<svg height="512" width="512" xmlns="http://www.w3.org/2000/svg"><linearGradient id="a" gradientUnits="userSpaceOnUse" x1="256" x2="256" y1="421" y2="61"><stop offset="0" stop-color="#a93aff"/><stop offset="1" stop-color="#ff81ff"/></linearGradient><linearGradient id="b" gradientUnits="userSpaceOnUse" x1="256" x2="256" y1="451" y2="151"><stop offset="0" stop-color="#ffbef9"/><stop offset="1" stop-color="#fff1ff"/></linearGradient><path d="M437 61H75c-24.814 0-45 20.186-45 45v270c0 8.291 6.709 15 15 15h114.789l25.605 25.605A14.99 14.99 0 00196 421h120c3.984 0 7.793-1.582 10.605-4.395L352.211 391H467c8.291 0 15-6.709 15-15V106c0-24.814-20.186-45-45-45z" fill="url(#a)"/><path d="M160.463 219.774C185.014 195.136 219.848 181 256 181s70.986 14.136 95.537 38.774c5.937 5.908 15.4 5.84 21.24.029 5.859-5.845 5.859-15.352.029-21.211C342.631 168.344 300.063 151 256 151s-86.631 17.344-116.807 47.593c-5.83 5.859-5.83 15.366.029 21.211 5.86 5.83 15.382 5.859 21.241-.03zm169.834 42.393c5.859-5.845 5.859-15.352.029-21.211-19.014-19.043-46.084-29.971-74.326-29.971s-55.313 10.928-74.326 29.971c-5.83 5.859-5.83 15.366.029 21.211 5.859 5.83 15.322 5.859 21.24-.029 26.777-26.865 79.336-26.865 106.113 0 5.938 5.907 15.401 5.84 21.241.029zm-106.143 22.031c-5.83 5.859-5.83 15.366.029 21.211 5.859 5.83 15.381 5.859 21.24-.029 5.625-5.654 15.527-5.654 21.152 0 5.798 5.827 15.32 5.919 21.24.029 5.859-5.845 5.859-15.352.029-21.211-16.99-17.021-46.698-17.021-63.69 0zM497 361H352.213c-3.978 0-7.793 1.58-10.606 4.393l-21.213 21.213A15 15 0 01309.788 391H202.213c-3.978 0-7.793-1.58-10.606-4.394l-21.213-21.213A14.999 14.999 0 00159.788 361H15c-8.284 0-15 6.716-15 15v15c0 33.137 26.863 60 60 60h392c33.137 0 60-26.863 60-60v-15c0-8.284-6.716-15-15-15z" fill="url(#b)"/></svg>