<svg height="512" width="512" xmlns="http://www.w3.org/2000/svg"><linearGradient id="a" gradientUnits="userSpaceOnUse" x1="256" x2="256" y1="451" y2="46"><stop offset="0" stop-color="#00b59c"/><stop offset="1" stop-color="#9cffac"/></linearGradient><linearGradient id="b" gradientUnits="userSpaceOnUse" x1="256" x2="256" y1="466" y2="196"><stop offset="0" stop-color="#c3ffe8"/><stop offset=".997" stop-color="#f0fff4"/></linearGradient><path d="M421 166c0-66.167-53.818-120-120-120-31.67 0-61.934 12.788-84.492 35.405-68.262-20.786-137.813 23.086-152.109 88.843C27.104 181.645 0 216.156 0 256c0 49.629 41.371 90 91 90h45c.314 0 .621-.028.93-.047C144.312 405.089 194.883 451 256 451s111.688-45.911 119.07-105.047c.309.019.616.047.93.047h45c49.629 0 91-40.371 91-90s-41.371-90-91-90z" fill="url(#a)"/><path d="M256 196c-74.443 0-135 60.557-135 135s60.557 135 135 135 135-60.557 135-135-60.557-135-135-135zm103.484 120h-44.647c-3.137-34.297-15.732-64.014-27.442-84.67 37.845 11.973 66.266 44.509 72.089 84.67zm-206.968 30h44.647c3.137 34.297 15.732 64.014 27.442 84.67-37.845-11.973-66.266-44.509-72.089-84.67zm44.647-30h-44.647c5.823-40.161 34.244-72.697 72.089-84.67-11.71 20.656-24.306 50.373-27.442 84.67zM256 424.926c-10.659-17.018-24.736-45.974-28.44-78.926h56.88c-3.704 32.952-17.781 61.908-28.44 78.926zM227.56 316c3.704-32.952 17.781-61.908 28.44-78.926 10.659 17.018 24.736 45.974 28.44 78.926zm59.835 114.67c11.71-20.656 24.305-50.372 27.442-84.67h44.647c-5.823 40.161-34.244 72.697-72.089 84.67z" fill="url(#b)"/></svg>