<svg height="512" width="512" xmlns="http://www.w3.org/2000/svg"><linearGradient id="a" gradientUnits="userSpaceOnUse" x1="256" x2="256" y1="512" y2="31"><stop offset="0" stop-color="#ffc8d1"/><stop offset="1" stop-color="#fff6f7"/></linearGradient><linearGradient id="b" gradientUnits="userSpaceOnUse" x1="256" x2="256" y1="451" y2="0"><stop offset="0" stop-color="#fd3a84"/><stop offset="1" stop-color="#ffa68d"/></linearGradient><path d="M456 512H56c-8.284 0-15-6.716-15-15V31h430v466c0 8.284-6.716 15-15 15z" fill="url(#a)"/><path d="M467 0H45C20.187 0 0 20.187 0 45v105c0 24.813 20.187 45 45 45h422c24.813 0 45-20.187 45-45V45c0-24.813-20.187-45-45-45zM310 127.5c0 8.284-6.716 15-15 15H75c-8.284 0-15-6.716-15-15v-60c0-8.284 6.716-15 15-15h220c8.284 0 15 6.716 15 15zm127 15h-80c-8.284 0-15-6.716-15-15s6.716-15 15-15h80c8.284 0 15 6.716 15 15s-6.716 15-15 15zm0-60h-80c-8.284 0-15-6.716-15-15s6.716-15 15-15h80c8.284 0 15 6.716 15 15s-6.716 15-15 15zM467 256H45c-24.813 0-45 20.187-45 45v105c0 24.813 20.187 45 45 45h422c24.813 0 45-20.187 45-45V301c0-24.813-20.187-45-45-45zM310 383.5c0 8.284-6.716 15-15 15H75c-8.284 0-15-6.716-15-15v-60c0-8.284 6.716-15 15-15h220c8.284 0 15 6.716 15 15zm127 15h-80c-8.284 0-15-6.716-15-15s6.716-15 15-15h80c8.284 0 15 6.716 15 15s-6.716 15-15 15zm0-60h-80c-8.284 0-15-6.716-15-15s6.716-15 15-15h80c8.284 0 15 6.716 15 15s-6.716 15-15 15z" fill="url(#b)"/></svg>