<svg width="467" height="473" fill="none" xmlns="http://www.w3.org/2000/svg"><path d="M419.369 111.044v118.58c0 12.229-13.275 22.141-29.654 22.141H77.128c-16.38 0-29.655-9.912-29.655-22.141v-118.58c0-12.228 13.276-22.14 29.655-22.14h312.587c13.62 0 25 6.822 28.447 16.09.863 1.931 1.207 3.991 1.207 6.05z" fill="#626681"/><path d="M73.942 146.611v-23.329c-14.859 1.2-26.469 10.487-26.469 21.901v84.441c0 12.228 13.276 22.141 29.655 22.141h312.586c16.38 0 29.656-9.913 29.656-22.141v-83.013H73.942z" fill="#4D5471"/><path d="M87.884 472.615H67.959c-8.16 0-14.774-6.614-14.774-14.773v-15.506c0-8.159 6.615-14.774 14.774-14.774h19.925c8.159 0 14.773 6.615 14.773 14.774v15.506c0 8.159-6.614 14.773-14.773 14.773zm310.883 0h-19.925c-8.159 0-14.773-6.614-14.773-14.773v-15.506c0-8.159 6.614-14.774 14.773-14.774h19.925c8.159 0 14.774 6.615 14.774 14.774v15.506c0 8.159-6.615 14.773-14.774 14.773z" fill="#444B63"/><path d="M419.369 258.716v84.442c0 12.228-13.275 22.14-29.654 22.14H77.128c-16.38 0-29.655-9.912-29.655-22.14v-84.442c0-12.228 13.276-22.14 29.655-22.14h312.587c13.62 0 25 6.822 28.447 16.09.863 1.931 1.207 3.99 1.207 6.05z" fill="#626681"/><path d="M419.369 258.716v50.716L47.473 289.223s-13.275-9.01-18.276-10.169l18.276-1.802 266.207-25.487s63.104.258 104.482.901c.863 1.931 1.207 3.991 1.207 6.05z" fill="#4D5471"/><path d="M438.025 289.186H28.701c-15.85 0-28.7-12.85-28.7-28.701v-71.32c0-15.851 12.85-28.701 28.7-28.701h409.324c15.851 0 28.701 12.85 28.701 28.701v71.32c0 15.851-12.85 28.701-28.701 28.701z" fill="#63AFFA"/><path d="M433.509 160.464h-97.423c-11.168 0-20.222 6.759-20.222 15.097 0 37.916-41.169 68.652-91.954 68.652H27.02c-14.922 0-27.02 9.032-27.02 20.174 0 13.696 14.872 24.799 33.217 24.799h400.292c18.346 0 33.217-11.103 33.217-24.799v-79.124c0-13.696-14.871-24.799-33.217-24.799z" fill="url(#paint0_linear_2516_197)"/><path d="M438.025 450.089H28.701c-15.85 0-28.7-12.85-28.7-28.701v-71.32c0-15.851 12.85-28.701 28.7-28.701h409.324c15.851 0 28.701 12.85 28.701 28.701v71.32c0 15.851-12.85 28.701-28.701 28.701z" fill="#63AFFA"/><path d="M433.509 321.367h-77.667c-10.573 0-19.145 6.399-19.145 14.293 0 35.99-39.078 65.166-87.284 65.166H32.767C14.67 400.826 0 411.779 0 425.29c0 13.696 14.872 24.799 33.217 24.799h400.292c18.346 0 33.217-11.103 33.217-24.799v-79.124c0-13.696-14.871-24.799-33.217-24.799z" fill="url(#paint1_linear_2516_197)"/><path d="M171.879 188.682c0 10.175-44.25 26.943-68.672 26.943-24.422 0-44.22-8.248-44.22-18.422 0-10.175 19.798-18.423 44.22-18.423s68.672-.272 68.672 9.902zm0 159.294c0 10.175-44.25 26.943-68.672 26.943-24.422 0-44.22-8.248-44.22-18.422 0-10.175 19.798-18.423 44.22-18.423s68.672-.272 68.672 9.902z" fill="#82C8FB"/><path d="M44.142 224.825c0-8.381 6.794-15.174 15.174-15.174h164.718c8.38 0 15.174 6.793 15.174 15.174 0 8.38-6.794 15.174-15.174 15.174H59.316c-8.38 0-15.174-6.794-15.174-15.174zm0 158.308c0-8.38 6.794-15.174 15.174-15.174h164.718c8.38 0 15.174 6.794 15.174 15.174 0 8.381-6.794 15.174-15.174 15.174H59.316c-8.38 0-15.174-6.793-15.174-15.174z" fill="#4D5471"/><path d="M407.177 406.154c11.284 0 20.431-9.147 20.431-20.431 0-11.283-9.147-20.431-20.431-20.431-11.283 0-20.43 9.148-20.43 20.431 0 11.284 9.147 20.431 20.43 20.431z" fill="#F7CC6D"/><path d="M417.075 367.959v5.508c0 10.25-8.31 18.56-18.56 18.56H387.84c3.193 9.791 13.453 16.388 24.842 13.409 6.921-1.811 12.533-7.527 14.268-14.467 2.458-9.83-2.234-18.743-9.875-23.01z" fill="#F4BC5F"/><path d="M349.095 406.154c11.283 0 20.431-9.147 20.431-20.431 0-11.283-9.148-20.431-20.431-20.431-11.284 0-20.431 9.148-20.431 20.431 0 11.284 9.147 20.431 20.431 20.431z" fill="#FC4A32"/><path d="M358.994 367.959v5.508c0 10.25-8.31 18.56-18.56 18.56h-10.675c3.193 9.791 13.453 16.388 24.842 13.409 6.921-1.811 12.533-7.527 14.268-14.467 2.458-9.83-2.234-18.743-9.875-23.01z" fill="#E23E2D"/><path d="M407.177 245.258c11.284 0 20.431-9.147 20.431-20.431 0-11.283-9.147-20.431-20.431-20.431-11.283 0-20.43 9.148-20.43 20.431 0 11.284 9.147 20.431 20.43 20.431z" fill="#F7CC6D"/><path d="M417.075 207.056v5.508c0 10.25-8.31 18.56-18.56 18.56H387.84c3.193 9.791 13.453 16.388 24.842 13.409 6.921-1.811 12.533-7.527 14.268-14.467 2.458-9.83-2.234-18.742-9.875-23.01z" fill="#F4BC5F"/><path d="M349.095 245.258c11.283 0 20.431-9.147 20.431-20.431 0-11.283-9.148-20.431-20.431-20.431-11.284 0-20.431 9.148-20.431 20.431 0 11.284 9.147 20.431 20.431 20.431z" fill="#FC4A32"/><path d="M358.994 207.056v5.508c0 10.25-8.31 18.56-18.56 18.56h-10.675c3.193 9.791 13.453 16.388 24.842 13.409 6.921-1.811 12.533-7.527 14.268-14.467 2.458-9.83-2.234-18.742-9.875-23.01z" fill="#E23E2D"/><path d="M438.025 128.722H28.701c-15.85 0-28.7-12.85-28.7-28.701v-71.32C0 12.85 12.85 0 28.7 0h409.324c15.851 0 28.701 12.85 28.701 28.701v71.32c0 15.851-12.85 28.701-28.701 28.701z" fill="#63AFFA"/><path d="M433.509 0h-97.423c-11.168 0-20.222 6.76-20.222 15.098 0 37.915-41.169 68.652-91.954 68.652H27.02C12.099 83.75 0 92.782 0 103.923c0 13.696 14.872 24.799 33.217 24.799h400.292c18.346 0 33.217-11.103 33.217-24.799V24.799C466.726 11.103 451.855 0 433.509 0z" fill="url(#paint2_linear_2516_197)"/><path d="M171.879 28.219c0 10.174-44.25 26.942-68.672 26.942-24.422 0-44.22-8.248-44.22-18.422 0-10.174 19.798-18.422 44.22-18.422s68.672-.273 68.672 9.902z" fill="#82C8FB"/><path d="M44.142 64.361c0-8.38 6.794-15.174 15.174-15.174h164.718c8.38 0 15.174 6.794 15.174 15.174 0 8.38-6.794 15.174-15.174 15.174H59.316c-8.38 0-15.174-6.793-15.174-15.174z" fill="#4D5471"/><path d="M407.177 84.795c11.284 0 20.431-9.147 20.431-20.43 0-11.284-9.147-20.431-20.431-20.431-11.283 0-20.43 9.147-20.43 20.43 0 11.284 9.147 20.431 20.43 20.431z" fill="#F7CC6D"/><path d="M417.075 46.593V52.1c0 10.25-8.31 18.56-18.56 18.56H387.84c3.193 9.79 13.453 16.388 24.842 13.408 6.921-1.81 12.533-7.526 14.268-14.466 2.458-9.83-2.234-18.743-9.875-23.01z" fill="#F4BC5F"/><path d="M349.095 84.795c11.283 0 20.431-9.147 20.431-20.43 0-11.284-9.148-20.431-20.431-20.431-11.284 0-20.431 9.147-20.431 20.43 0 11.284 9.147 20.431 20.431 20.431z" fill="#FC4A32"/><path d="M358.994 46.593V52.1c0 10.25-8.31 18.56-18.56 18.56h-10.675c3.193 9.79 13.453 16.388 24.842 13.408 6.921-1.81 12.533-7.526 14.268-14.466 2.458-9.83-2.234-18.743-9.875-23.01z" fill="#E23E2D"/><defs><linearGradient id="paint0_linear_2516_197" x1="-2.351" y1="224.833" x2="462.611" y2="224.833" gradientUnits="userSpaceOnUse"><stop stop-color="#1C40F2"/><stop offset=".983" stop-color="#03F8FB"/></linearGradient><linearGradient id="paint1_linear_2516_197" x1="-2.351" y1="385.736" x2="462.611" y2="385.736" gradientUnits="userSpaceOnUse"><stop stop-color="#1C40F2"/><stop offset=".983" stop-color="#03F8FB"/></linearGradient><linearGradient id="paint2_linear_2516_197" x1="-2.351" y1="64.369" x2="462.611" y2="64.369" gradientUnits="userSpaceOnUse"><stop stop-color="#1C40F2"/><stop offset=".983" stop-color="#03F8FB"/></linearGradient></defs></svg>