<svg height="512" viewBox="0 0 512.007 512.007" width="512" xmlns="http://www.w3.org/2000/svg" xmlns:xlink="http://www.w3.org/1999/xlink"><linearGradient id="a"><stop offset="0" stop-color="#fd3a84"/><stop offset="1" stop-color="#ffa68d"/></linearGradient><linearGradient id="b" gradientUnits="userSpaceOnUse" x1="256.004" x2="256.004" xlink:href="#a" y1="512.007" y2="0"/><linearGradient id="c" gradientUnits="userSpaceOnUse" x1="256.004" x2="256.004" y1="392.007" y2="122.007"><stop offset="0" stop-color="#ffc8d1"/><stop offset="1" stop-color="#fff6f7"/></linearGradient><linearGradient id="d" gradientUnits="userSpaceOnUse" x1="256.004" x2="256.004" xlink:href="#a" y1="317.007" y2="227.007"/><path d="M256.004 512.007a15.07 15.07 0 01-4.746-.776C137.469 473.306 61.004 367.222 61.004 247.266V75.007c0-8.291 6.709-15 15-15 55.913 0 110.039-16.392 156.563-47.402l15.117-10.078a14.963 14.963 0 0116.641 0l15.117 10.078c46.523 31.011 100.649 47.402 156.563 47.402 8.291 0 15 6.709 15 15v172.259c0 119.956-76.465 226.04-190.254 263.965a15.057 15.057 0 01-4.747.776z" fill="url(#b)"/><path d="M256.004 392.007c-74.443 0-135-60.557-135-135s60.557-135 135-135 135 60.557 135 135-60.557 135-135 135z" fill="url(#c)"/><path d="M241.004 317.007a14.948 14.948 0 01-10.605-4.395l-30-30c-5.859-5.859-5.859-15.352 0-21.211s15.352-5.859 21.211 0l19.395 19.395 49.395-49.395c5.859-5.859 15.352-5.859 21.211 0s5.859 15.352 0 21.211l-60 60a14.958 14.958 0 01-10.607 4.395z" fill="url(#d)"/></svg>