<svg width="134" height="26" fill="none" xmlns="http://www.w3.org/2000/svg"><path d="M0 .153h25.125V25.14H0V.153zm27.219 0h25.125V25.14H27.219V.153zm27.218 0h25.126V25.14H54.436V.153zm27.22 0h25.124V25.14H81.656V.153zm27.218 0H134V25.14h-25.125V.153z" fill="#00B67A"/><path d="M12.563 16.993l3.821-.963 1.597 4.893-5.418-3.93zm8.794-6.324h-6.726l-2.068-6.3-2.067 6.3H3.77l5.443 3.904-2.067 6.299 5.443-3.905 3.35-2.394 5.418-3.904zm18.425 6.324l3.821-.963 1.597 4.893-5.418-3.93zm8.794-6.324H41.85l-2.068-6.3-2.067 6.3h-6.727l5.444 3.904-2.068 6.299 5.444-3.905 3.35-2.394 5.418-3.904zM67 16.993l3.82-.963 1.597 4.893L67 16.993zm8.793-6.324h-6.726L67 4.369l-2.068 6.3h-6.726l5.444 3.904-2.068 6.299 5.444-3.905 3.35-2.394 5.418-3.904zm18.425 6.324l3.822-.963 1.596 4.893-5.418-3.93zm8.794-6.324h-6.726l-2.068-6.3-2.067 6.3h-6.726l5.444 3.904-2.068 6.299 5.444-3.905 3.35-2.394 5.417-3.904zm18.425 6.324l3.821-.963 1.597 4.893-5.418-3.93zm8.794-6.324h-6.726l-2.068-6.3-2.067 6.3h-6.726l5.443 3.904-2.067 6.299 5.443-3.905 3.35-2.394 5.418-3.904z" fill="#fff"/></svg>