<svg width="124" height="18" fill="none" xmlns="http://www.w3.org/2000/svg"><path d="M9.51 13.727l4.132-1.047L15.367 18l-5.859-4.273zm9.509-6.878h-7.274L9.51 0 7.274 6.85H0l5.887 4.245-2.236 6.849 5.887-4.246 3.622-2.603 5.859-4.246zm16.674 6.878l4.132-1.047L41.551 18l-5.858-4.273zm9.51-6.878h-7.274L35.693 0l-2.236 6.85h-7.273l5.886 4.245-2.236 6.849 5.887-4.246 3.623-2.603 5.858-4.246zm16.674 6.878l4.132-1.047L67.735 18l-5.858-4.273zm9.51-6.878h-7.275L61.877 0 59.64 6.85h-7.274l5.887 4.245-2.236 6.849 5.887-4.246 3.623-2.603 5.858-4.246zm16.673 6.878l4.132-1.047L93.92 18l-5.859-4.273zm9.51-6.878h-7.274L88.06 0l-2.236 6.85h-7.273l5.887 4.245-2.236 6.849 5.886-4.246 3.623-2.603 5.859-4.246zm16.674 6.878l4.132-1.047 1.726 5.32-5.858-4.273zm9.509-6.878h-7.273L114.244 0l-2.236 6.85h-7.274l5.887 4.245-2.236 6.849 5.887-4.246 3.623-2.603 5.858-4.246z" fill="#F8B800"/></svg>