<svg width="96" height="18" fill="none" xmlns="http://www.w3.org/2000/svg"><path d="M18 0H0v18h18V0zm19.5 0h-18v18h18V0zM57 0H39v18h18V0z" fill="#FF8622"/><path d="M76.5 0h-18v18h18V0zM96 0H78v18h18V0z" fill="#DCDCE6"/><path d="M9 12.13l2.737-.693 1.143 3.525L9 12.131zm6.3-4.555h-4.82L9 3.037 7.517 7.575H2.699l3.9 2.812-1.481 4.538 3.9-2.813 2.4-1.725 3.881-2.812zm13.2 4.555l2.737-.693 1.143 3.525-3.88-2.831zm6.3-4.555h-4.82L28.5 3.037l-1.482 4.538h-4.819l3.9 2.812-1.481 4.538 3.9-2.813 2.4-1.725 3.881-2.812zM48 12.13l2.737-.693 1.143 3.525L48 12.131zm6.3-4.555h-4.82L48 3.037l-1.482 4.538h-4.819l3.9 2.812-1.481 4.538 3.9-2.813 2.4-1.725 3.881-2.812zm13.2 4.555l2.737-.693 1.144 3.525-3.882-2.831zm6.3-4.555h-4.82L67.5 3.037l-1.482 4.538h-4.819l3.9 2.812-1.481 4.538 3.9-2.813 2.4-1.725 3.881-2.812zM87 12.13l2.737-.693 1.144 3.525-3.882-2.831zm6.3-4.555h-4.82L87 3.037l-1.482 4.538h-4.819l3.9 2.812-1.481 4.538 3.9-2.813 2.4-1.725 3.881-2.812z" fill="#fff"/></svg>