<svg width="1920" height="939" fill="none" xmlns="http://www.w3.org/2000/svg"><path d="M1996.8 450.36c-190.69 81.301-714.3 327.14-714.3 327.14C558.049 1074.27-2 506.5-2 506.5V92h1997.62l1.18 358.36z" fill="#83C1FF"/><path opacity=".5" d="M190 169L65 515s649.5 653 1360 338l674-310.957V169s-1748.809 5.282-1909 0z" fill="#D2D2D2"/><path d="M1039 909.5C625.4 867.1 169.5 602.833-3.5 477L0 .5h1917.5v745c-120.5 72.333-464.9 206.4-878.5 164z" fill="#18029D" stroke="#18029D"/><path opacity=".8" d="M305.19 146a60.997 60.997 0 0121.28 8l-21.28-8z" fill="#fff" stroke="url(#paint0_linear_1857_36459)"/><path opacity=".8" d="M278.38 147.48a74.335 74.335 0 011.77-.48l64.47 24.3c.35.5.68 1 1 1.53l-67.24-25.35z" fill="#fff" stroke="url(#paint1_linear_1857_36459)"/><path opacity=".8" d="M264.1 153.68c.39-.24.79-.47 1.19-.69l86.54 32.61c.15.43.3.87.44 1.31l-88.17-33.23z" fill="#fff" stroke="url(#paint2_linear_1857_36459)"/><path opacity=".8" d="M253.84 161.4l.89-.81 100 37.69c0 .4.09.8.13 1.2L253.84 161.4z" fill="#fff" stroke="url(#paint3_linear_1857_36459)"/><path opacity=".8" d="M246.19 170.1c.21-.3.44-.6.66-.9L355 210c0 .37-.06.74-.09 1.11L246.19 170.1z" fill="#fff" stroke="url(#paint4_linear_1857_36459)"/><path opacity=".8" d="M240.61 179.58c.15-.32.3-.65.46-1l112 42.23c-.09.34-.19.69-.29 1l-112.17-42.23z" fill="#fff" stroke="url(#paint5_linear_1857_36459)"/><path opacity=".8" d="M236.87 189.76c.09-.35.19-.69.29-1L349.38 231c-.15.33-.31.65-.47 1l-112.04-42.24z" fill="#fff" stroke="url(#paint6_linear_1857_36459)"/><path opacity=".8" d="M235 200.64c0-.37.06-.74.1-1.11l108.7 41c-.22.313-.44.613-.66.9L235 200.64z" fill="#fff" stroke="url(#paint7_linear_1857_36459)"/><path opacity=".8" d="M235.23 212.31c0-.39-.09-.79-.12-1.19l101 38.08-.88.81-100-37.7z" fill="#fff" stroke="url(#paint8_linear_1857_36459)"/><path opacity=".8" d="M238.15 225c-.15-.44-.29-.88-.44-1.32l88.18 33.24-1.2.69L238.15 225z" fill="#fff" stroke="url(#paint9_linear_1857_36459)"/><path opacity=".8" d="M245.36 239.3c-.34-.5-.68-1-1-1.53l67.24 25.35c-.58.17-1.17.33-1.76.48l-64.48-24.3z" fill="#fff" stroke="url(#paint10_linear_1857_36459)"/><path opacity=".8" d="M273.955 261.122a59.552 59.552 0 01-2.74-1.103l5.453 2.051a60.42 60.42 0 01-2.712-.948l-.176.468.175-.468z" fill="#fff" stroke="url(#paint11_linear_1857_36459)"/><g style="mix-blend-mode:soft-light"><path style="mix-blend-mode:overlay" opacity=".59" d="M1872.43 309.499l-101.96 23.613a25.352 25.352 0 00-11.58 6.16 25.297 25.297 0 00-6.96 11.125l-30.52 100.167a25.443 25.443 0 00-.45 13.133 25.47 25.47 0 006.18 11.6l71.44 76.521a25.35 25.35 0 0024.26 7.402l101.95-23.612a25.405 25.405 0 0011.6-6.173 25.353 25.353 0 006.96-11.146l30.51-100.134a25.45 25.45 0 00.46-13.135 25.353 25.353 0 00-6.19-11.597l-71.43-76.555a25.395 25.395 0 00-24.27-7.369z" fill="url(#paint12_linear_1857_36459)"/><path style="mix-blend-mode:overlay" opacity=".59" d="M1744.17 333.146l-45.52 10.541c-2.2.515-4.5.444-6.67-.206a13.014 13.014 0 01-5.68-3.499l-31.92-34.232a13.044 13.044 0 01-3.14-5.917c-.51-2.213-.44-4.521.22-6.695l13.64-44.705a12.9 12.9 0 013.54-5.68 12.971 12.971 0 015.91-3.153l45.51-10.541a12.957 12.957 0 0112.37 3.779l31.82 34.115a12.92 12.92 0 013.14 5.916c.52 2.213.44 4.523-.22 6.696l-13.54 44.823a12.896 12.896 0 01-3.56 5.64 12.972 12.972 0 01-5.9 3.118zm-68.9-90.415a9.759 9.759 0 00-7.11 6.642l-13.63 44.702a9.765 9.765 0 00-.16 5.033 9.75 9.75 0 002.36 4.449l31.89 34.16a9.769 9.769 0 004.27 2.663c1.64.498 3.37.559 5.04.176l45.51-10.541a9.77 9.77 0 004.48-2.367 9.828 9.828 0 002.7-4.289l13.62-44.702c.49-1.635.55-3.37.17-5.034a9.841 9.841 0 00-2.36-4.448l-31.89-34.161a9.819 9.819 0 00-4.28-2.658 9.777 9.777 0 00-5.03-.18l-45.58 10.555z" fill="url(#paint13_linear_1857_36459)"/><path style="mix-blend-mode:overlay" opacity=".59" d="M1876.77 217.312l-55.88 12.94a15.913 15.913 0 01-15.2-4.63l-39.12-41.975a15.905 15.905 0 01-3.58-15.474l16.73-54.815a15.907 15.907 0 0111.62-10.843l55.87-12.94a15.92 15.92 0 018.23.277c2.66.813 5.07 2.314 6.98 4.353l39.15 41.919a16.045 16.045 0 013.85 7.261c.63 2.715.53 5.546-.27 8.214l-16.79 54.876a16 16 0 01-4.35 6.969 15.86 15.86 0 01-7.24 3.868zm-84.57-110.959a12.027 12.027 0 00-8.72 8.144l-16.73 54.877c-.6 2.005-.67 4.132-.19 6.171.47 2.04 1.46 3.92 2.88 5.458l39.16 41.919a11.938 11.938 0 0011.4 3.484l55.87-12.94a11.924 11.924 0 005.46-2.907 11.93 11.93 0 003.27-5.24l16.72-54.86c.61-2.004.68-4.133.21-6.173a11.917 11.917 0 00-2.9-5.455l-39.14-41.937a11.946 11.946 0 00-5.25-3.263c-2-.611-4.13-.686-6.17-.218l-55.87 12.94z" fill="url(#paint14_linear_1857_36459)"/><path style="mix-blend-mode:overlay" opacity=".59" d="M2004.1 235.698l-50.36 11.663a12.503 12.503 0 00-9.16 8.563l-15.08 49.468a12.51 12.51 0 00-.22 6.483 12.48 12.48 0 003.04 5.727l35.3 37.817c1.5 1.611 3.4 2.798 5.51 3.44 2.1.643 4.34.72 6.49.222l50.36-11.663a12.564 12.564 0 005.69-3.061c1.6-1.5 2.77-3.392 3.41-5.488l15.08-49.469c.64-2.105.72-4.34.22-6.483a12.592 12.592 0 00-3.05-5.727l-35.29-37.817a12.543 12.543 0 00-11.94-3.675z" fill="url(#paint15_linear_1857_36459)"/><path style="mix-blend-mode:overlay" opacity=".59" d="M1890.68 227.912L1864.39 234a6.542 6.542 0 00-2.98 1.584 6.471 6.471 0 00-1.79 2.869l-7.87 25.823a6.502 6.502 0 00-.13 3.39 6.59 6.59 0 001.6 2.991l18.42 19.735c.79.84 1.78 1.459 2.87 1.795 1.1.336 2.27.377 3.39.118l26.29-6.089c1.12-.26 2.15-.81 2.99-1.594a6.607 6.607 0 001.8-2.877l7.87-25.823c.33-1.1.37-2.268.11-3.387a6.607 6.607 0 00-1.59-2.994l-18.42-19.735a6.553 6.553 0 00-6.27-1.894z" fill="url(#paint16_linear_1857_36459)"/><path style="mix-blend-mode:overlay" opacity=".59" d="M1949.68 170.784l-26.29 6.088a6.508 6.508 0 00-2.99 1.59 6.57 6.57 0 00-1.78 2.878l-7.87 25.823a6.471 6.471 0 00-.12 3.382 6.548 6.548 0 001.59 2.984l18.42 19.735a6.606 6.606 0 002.87 1.8c1.1.336 2.27.375 3.39.113l26.29-6.088a6.52 6.52 0 002.99-1.591 6.617 6.617 0 001.8-2.88l7.87-25.824c.33-1.097.37-2.262.11-3.38a6.577 6.577 0 00-1.59-2.985l-18.4-19.661a6.538 6.538 0 00-6.29-1.984z" fill="url(#paint17_linear_1857_36459)"/></g><defs><linearGradient id="paint0_linear_1857_36459" x1="305.083" y1="150" x2="326.283" y2="150" gradientUnits="userSpaceOnUse"><stop stop-color="#1C40F2"/><stop offset=".983" stop-color="#03F8FB"/></linearGradient><linearGradient id="paint1_linear_1857_36459" x1="278.041" y1="159.917" x2="345.027" y2="159.917" gradientUnits="userSpaceOnUse"><stop stop-color="#1C40F2"/><stop offset=".983" stop-color="#03F8FB"/></linearGradient><linearGradient id="paint2_linear_1857_36459" x1="263.655" y1="169.952" x2="351.492" y2="169.952" gradientUnits="userSpaceOnUse"><stop stop-color="#1C40F2"/><stop offset=".983" stop-color="#03F8FB"/></linearGradient><linearGradient id="paint3_linear_1857_36459" x1="253.331" y1="180.037" x2="353.969" y2="180.037" gradientUnits="userSpaceOnUse"><stop stop-color="#1C40F2"/><stop offset=".983" stop-color="#03F8FB"/></linearGradient><linearGradient id="paint4_linear_1857_36459" x1="245.642" y1="190.158" x2="354.041" y2="190.158" gradientUnits="userSpaceOnUse"><stop stop-color="#1C40F2"/><stop offset=".983" stop-color="#03F8FB"/></linearGradient><linearGradient id="paint5_linear_1857_36459" x1="240.044" y1="200.198" x2="352.079" y2="200.198" gradientUnits="userSpaceOnUse"><stop stop-color="#1C40F2"/><stop offset=".983" stop-color="#03F8FB"/></linearGradient><linearGradient id="paint6_linear_1857_36459" x1="236.303" y1="210.383" x2="348.388" y2="210.383" gradientUnits="userSpaceOnUse"><stop stop-color="#1C40F2"/><stop offset=".983" stop-color="#03F8FB"/></linearGradient><linearGradient id="paint7_linear_1857_36459" x1="234.452" y1="220.483" x2="342.841" y2="220.483" gradientUnits="userSpaceOnUse"><stop stop-color="#1C40F2"/><stop offset=".983" stop-color="#03F8FB"/></linearGradient><linearGradient id="paint8_linear_1857_36459" x1="234.602" y1="230.568" x2="335.22" y2="230.568" gradientUnits="userSpaceOnUse"><stop stop-color="#1C40F2"/><stop offset=".983" stop-color="#03F8FB"/></linearGradient><linearGradient id="paint9_linear_1857_36459" x1="237.266" y1="240.647" x2="325.112" y2="240.647" gradientUnits="userSpaceOnUse"><stop stop-color="#1C40F2"/><stop offset=".983" stop-color="#03F8FB"/></linearGradient><linearGradient id="paint10_linear_1857_36459" x1="244.022" y1="250.687" x2="311.007" y2="250.687" gradientUnits="userSpaceOnUse"><stop stop-color="#1C40F2"/><stop offset=".983" stop-color="#03F8FB"/></linearGradient><linearGradient id="paint11_linear_1857_36459" x1="263.412" y1="260.591" x2="284.602" y2="260.591" gradientUnits="userSpaceOnUse"><stop stop-color="#1C40F2"/><stop offset=".983" stop-color="#03F8FB"/></linearGradient><linearGradient id="paint12_linear_1857_36459" x1="1958.94" y1="190.809" x2="1779.09" y2="592.341" gradientUnits="userSpaceOnUse"><stop stop-color="#93DBFF"/><stop offset="1" stop-color="#CDE2ED" stop-opacity="0"/></linearGradient><linearGradient id="paint13_linear_1857_36459" x1="1740.64" y1="224.16" x2="1661.61" y2="414.355" gradientUnits="userSpaceOnUse"><stop stop-color="#93DBFF"/><stop offset="1" stop-color="#CDE2ED" stop-opacity="0"/></linearGradient><linearGradient id="paint14_linear_1857_36459" x1="1872.55" y1="83.543" x2="1775.65" y2="317.065" gradientUnits="userSpaceOnUse"><stop stop-color="#93DBFF"/><stop offset="1" stop-color="#CDE2ED" stop-opacity="0"/></linearGradient><linearGradient id="paint15_linear_1857_36459" x1="2046.77" y1="177.07" x2="1957.87" y2="375.393" gradientUnits="userSpaceOnUse"><stop stop-color="#93DBFF"/><stop offset="1" stop-color="#CDE2ED" stop-opacity="0"/></linearGradient><linearGradient id="paint16_linear_1857_36459" x1="1913" y1="197.305" x2="1866.62" y2="300.849" gradientUnits="userSpaceOnUse"><stop stop-color="#93DBFF"/><stop offset="1" stop-color="#CDE2ED" stop-opacity="0"/></linearGradient><linearGradient id="paint17_linear_1857_36459" x1="1972" y1="140.177" x2="1925.62" y2="243.719" gradientUnits="userSpaceOnUse"><stop stop-color="#93DBFF"/><stop offset="1" stop-color="#CDE2ED" stop-opacity="0"/></linearGradient></defs></svg>