<svg width="305" height="535" fill="none" xmlns="http://www.w3.org/2000/svg"><g style="mix-blend-mode:soft-light" filter="url(#filter0_d_1855_26262)"><path style="mix-blend-mode:overlay" opacity=".59" d="M257.427 260.499l-101.953 23.613a25.372 25.372 0 00-18.546 17.285l-30.52 100.167a25.417 25.417 0 005.728 24.733l71.441 76.521a25.363 25.363 0 0024.263 7.402l101.954-23.612a25.38 25.38 0 0018.554-17.319l30.512-100.134a25.344 25.344 0 00-5.728-24.732l-71.433-76.555a25.403 25.403 0 00-24.272-7.369z" fill="url(#paint0_linear_1855_26262)"/><path style="mix-blend-mode:overlay" opacity=".59" d="M129.168 284.146l-45.515 10.541a12.952 12.952 0 01-12.352-3.705L39.379 256.75a13.025 13.025 0 01-2.921-12.612l13.64-44.705a12.953 12.953 0 019.449-8.833l45.514-10.541a12.957 12.957 0 0112.37 3.779l31.816 34.115a12.963 12.963 0 012.921 12.612l-13.534 44.823a12.962 12.962 0 01-9.466 8.758zm-68.896-90.415a9.756 9.756 0 00-7.114 6.642l-13.625 44.702a9.78 9.78 0 002.196 9.482l31.89 34.16a9.755 9.755 0 009.31 2.839l45.514-10.541a9.788 9.788 0 007.173-6.656l13.625-44.702a9.776 9.776 0 00-2.196-9.482l-31.889-34.161a9.795 9.795 0 00-9.31-2.838l-45.574 10.555z" fill="url(#paint1_linear_1855_26262)"/><path style="mix-blend-mode:overlay" opacity=".59" d="M261.766 168.312l-55.873 12.94a15.932 15.932 0 01-15.205-4.63l-39.117-41.975a15.92 15.92 0 01-3.583-15.474l16.731-54.815a15.924 15.924 0 0111.621-10.844l55.873-12.94a15.89 15.89 0 0115.205 4.631l39.151 41.92a15.99 15.99 0 013.584 15.474l-16.796 54.876a15.903 15.903 0 01-11.591 10.837zm-84.568-110.96a11.997 11.997 0 00-8.713 8.145l-16.733 54.877a12.048 12.048 0 002.693 11.629l39.151 41.919a11.964 11.964 0 0011.406 3.484l55.873-12.94a11.956 11.956 0 008.728-8.147l16.721-54.86a11.972 11.972 0 00-2.693-11.628l-39.139-41.938a11.994 11.994 0 00-11.422-3.48l-55.872 12.94z" fill="url(#paint2_linear_1855_26262)"/><path style="mix-blend-mode:overlay" opacity=".59" d="M389.101 186.698l-50.358 11.663a12.52 12.52 0 00-9.166 8.563l-15.081 49.468a12.553 12.553 0 002.828 12.21l35.296 37.817a12.525 12.525 0 0011.997 3.662l50.358-11.663a12.549 12.549 0 009.106-8.549l15.081-49.469a12.549 12.549 0 00-2.828-12.21l-35.296-37.817a12.54 12.54 0 00-11.937-3.675z" fill="url(#paint3_linear_1855_26262)"/><path style="mix-blend-mode:overlay" opacity=".59" d="M275.684 178.912L249.395 185a6.518 6.518 0 00-4.779 4.453l-7.869 25.823a6.501 6.501 0 001.477 6.381l18.421 19.735a6.532 6.532 0 006.253 1.913l26.289-6.089a6.563 6.563 0 004.791-4.471l7.869-25.823a6.585 6.585 0 00-1.478-6.381l-18.42-19.735a6.566 6.566 0 00-2.879-1.786 6.538 6.538 0 00-3.386-.108z" fill="url(#paint4_linear_1855_26262)"/><path style="mix-blend-mode:overlay" opacity=".59" d="M334.684 121.784l-26.29 6.088a6.508 6.508 0 00-4.775 4.468l-7.869 25.823a6.492 6.492 0 001.474 6.366l18.421 19.735a6.496 6.496 0 006.253 1.913l26.289-6.088a6.535 6.535 0 004.791-4.471l7.869-25.824a6.545 6.545 0 00-1.475-6.365l-18.403-19.661a6.53 6.53 0 00-6.285-1.984z" fill="url(#paint5_linear_1855_26262)"/></g><defs><linearGradient id="paint0_linear_1855_26262" x1="343.944" y1="141.809" x2="164.095" y2="543.341" gradientUnits="userSpaceOnUse"><stop stop-color="#93DBFF"/><stop offset="1" stop-color="#CDE2ED" stop-opacity="0"/></linearGradient><linearGradient id="paint1_linear_1855_26262" x1="125.637" y1="175.16" x2="46.613" y2="365.355" gradientUnits="userSpaceOnUse"><stop stop-color="#93DBFF"/><stop offset="1" stop-color="#CDE2ED" stop-opacity="0"/></linearGradient><linearGradient id="paint2_linear_1855_26262" x1="257.546" y1="34.543" x2="160.648" y2="268.065" gradientUnits="userSpaceOnUse"><stop stop-color="#93DBFF"/><stop offset="1" stop-color="#CDE2ED" stop-opacity="0"/></linearGradient><linearGradient id="paint3_linear_1855_26262" x1="431.774" y1="128.07" x2="342.87" y2="326.393" gradientUnits="userSpaceOnUse"><stop stop-color="#93DBFF"/><stop offset="1" stop-color="#CDE2ED" stop-opacity="0"/></linearGradient><linearGradient id="paint4_linear_1855_26262" x1="297.996" y1="148.305" x2="251.622" y2="251.849" gradientUnits="userSpaceOnUse"><stop stop-color="#93DBFF"/><stop offset="1" stop-color="#CDE2ED" stop-opacity="0"/></linearGradient><linearGradient id="paint5_linear_1855_26262" x1="356.996" y1="91.177" x2="310.621" y2="194.719" gradientUnits="userSpaceOnUse"><stop stop-color="#93DBFF"/><stop offset="1" stop-color="#CDE2ED" stop-opacity="0"/></linearGradient><filter id="filter0_d_1855_26262" x="31.905" y="40.163" width="461.896" height="478.711" filterUnits="userSpaceOnUse" color-interpolation-filters="sRGB"><feFlood flood-opacity="0" result="BackgroundImageFix"/><feColorMatrix in="SourceAlpha" values="0 0 0 0 0 0 0 0 0 0 0 0 0 0 0 0 0 0 127 0" result="hardAlpha"/><feOffset dy="4"/><feGaussianBlur stdDeviation="2"/><feComposite in2="hardAlpha" operator="out"/><feColorMatrix values="0 0 0 0 0 0 0 0 0 0 0 0 0 0 0 0 0 0 0.25 0"/><feBlend in2="BackgroundImageFix" result="effect1_dropShadow_1855_26262"/><feBlend in="SourceGraphic" in2="effect1_dropShadow_1855_26262" result="shape"/></filter></defs></svg>