<svg width="142" height="98" fill="none" xmlns="http://www.w3.org/2000/svg"><path d="M13.479 29.734l77.628-19.227-28.843 57.379L47.98 49.884l-9.499 5.682-1.696-16.533-23.306-9.299z" fill="#fff"/><path d="M42.279 48.248a.214.214 0 01-.217-.193l-.873-11.246a.21.21 0 01.199-.227.213.213 0 01.233.193l.874 11.246a.21.21 0 01-.2.227h-.016zm3.668-3.794c-.113 0-.216-.092-.216-.201a130.604 130.604 0 00-.805-9.366.206.206 0 01.19-.235c.113-.017.234.067.243.184.38 3.114.648 6.278.804 9.4.009.117-.086.218-.207.226 0-.008 0-.008-.01-.008zm3.703-2.526a.216.216 0 01-.19-.109l-.035-.092c-.38-2.87-.658-5.79-.83-8.686-.01-.118.086-.218.207-.227a.214.214 0 01.233.202c.174 2.878.45 5.782.822 8.635a.207.207 0 01-.103.252.237.237 0 01-.104.025zm3.52-3.105a.22.22 0 01-.216-.176 71.355 71.355 0 01-.873-7.78c-.009-.117.086-.218.207-.226a.214.214 0 01.234.201c.147 2.585.441 5.187.874 7.738a.212.212 0 01-.182.243h-.043zm3.6-2.913a.214.214 0 01-.217-.192 115.283 115.283 0 01-.45-6.689.206.206 0 01.208-.218c.121 0 .225.092.225.201.087 2.216.234 4.456.45 6.664a.223.223 0 01-.199.235h-.017zm4.282-2.391a.211.211 0 01-.216-.21l-.182-7.133c0-.118.095-.218.217-.218h.008c.121 0 .217.092.217.21l.181 7.133a.22.22 0 01-.225.218zm3.322-2.803a.218.218 0 01-.216-.218l.052-5.438c0-.118.095-.21.216-.21s.216.1.216.218l-.052 5.438c.009.118-.095.21-.216.21zm3.711-2.207a.218.218 0 01-.216-.218l.052-5.598c0-.117.095-.21.216-.21s.217.1.217.218l-.052 5.598c0 .117-.096.21-.217.21zm3.79-2.769a.211.211 0 01-.216-.21l-.104-4.616c0-.118.095-.218.216-.218h.009c.12 0 .216.092.216.21l.104 4.615a.22.22 0 01-.225.218zm3.451-2.87c-.112 0-.216-.093-.216-.202a37.5 37.5 0 01-.008-3.819c.008-.117.112-.218.233-.201a.218.218 0 01.208.226 36.68 36.68 0 00.008 3.777c.009.117-.086.218-.207.227-.009-.009-.017-.009-.017-.009zm3.591-2.779a.211.211 0 01-.216-.21l-.104-2.979c0-.117.095-.218.207-.218.104 0 .225.084.225.201l.104 2.98a.21.21 0 01-.216.226c.008 0 .008 0 0 0zM39.684 52.276c-.113 0-.217-.092-.217-.201a197.02 197.02 0 00-1.116-13.546.206.206 0 01.19-.235c.113-.008.226.068.243.185.528 4.49.908 9.064 1.116 13.57.009.118-.087.219-.208.227h-.008z" fill="#000"/><path d="M62.177 69.036a.647.647 0 01-.528-.26L44.277 46.241a.616.616 0 01.121-.881c.269-.21 24.034-18.43 40.134-30.876a2878.93 2878.93 0 01-47.08 24.69.627.627 0 01-.407.068c-7.484-1.142-23.791-8.837-24.483-9.165a.617.617 0 01-.364-.637.641.641 0 01.493-.554L91.237 9.433a.68.68 0 01.675.218c.165.193.19.462.087.68L62.774 68.675a.677.677 0 01-.528.36h-.07zM45.722 45.973l16.342 21.2 27.529-54.97c-14.604 11.313-39.987 30.791-43.871 33.77zM14.776 29.684c4.343 1.989 16.247 7.26 22.252 8.258A2863.632 2863.632 0 0086.65 11.884l-71.875 17.8z" fill="#000"/><path d="M37.754 56.414a.615.615 0 01-.173-.026.642.642 0 01-.484-.579L35.98 39.394a.646.646 0 01.614-.68c.346-.017.675.244.7.596l.996 14.552 5.779-8.325a.68.68 0 01.917-.176c.302.201.38.596.181.89l-6.86 9.869a.66.66 0 01-.554.294z" fill="#000"/><path d="M38.282 56.413a.657.657 0 01-.554-.302.627.627 0 01.208-.88l9.629-5.892a.671.671 0 01.908.201.627.627 0 01-.207.881l-9.638 5.892a.637.637 0 01-.346.1z" fill="#000"/><path d="M103.288 66.35l1.782 11.456 6.229-4.373 10.304 10.826 15.805-39.771-49.865 17.565 7.794 2.912 7.951 1.385z" fill="#FFB217"/><path d="M121.542 85.149a.657.657 0 01-.484-.21L108.375 71.36a.62.62 0 01.035-.89c.155-.142 12.786-11.933 22.441-20.997a1908.146 1908.146 0 01-27.053 17.758.726.726 0 01-.398.11c-4.991-.252-16.143-4.205-16.61-4.373a.643.643 0 01-.433-.596c0-.269.173-.504.433-.596l50.221-17.96a.676.676 0 01.692.152.624.624 0 01.147.68l-15.694 40.106a.646.646 0 01-.493.403c-.043-.008-.086-.008-.121-.008zm-11.766-14.192L121.3 83.303l14.283-36.516a8063.124 8063.124 0 01-25.807 24.17zm-20.832-8.602c3.305 1.108 10.563 3.433 14.301 3.693a1955.006 1955.006 0 0029.371-19.311L88.944 62.355z" fill="#000"/><path d="M104.828 78.519c-.035 0-.078 0-.112-.009a.652.652 0 01-.537-.528l-1.695-10.659a.646.646 0 01.553-.73.665.665 0 01.753.537l1.401 8.804 2.976-5.262c.173-.31.58-.42.892-.252.32.168.432.554.259.864l-3.902 6.916a.69.69 0 01-.588.319z" fill="#000"/><path d="M105.174 78.485a.663.663 0 01-.519-.243.628.628 0 01.112-.898l5.952-4.499a.674.674 0 01.926.11.628.628 0 01-.112.898l-5.953 4.498a.69.69 0 01-.406.134z" fill="#000"/><path d="M107.146 13.11L140.626.864l-9.879 25.68-7.094-6.79-3.902 2.98-1.583-6.89-11.022-2.736z" fill="#fff"/><path d="M130.747 27.603a.694.694 0 01-.467-.185l-8.842-8.56a.59.59 0 01-.19-.462.61.61 0 01.207-.453c.096-.084 7.034-6.487 13.194-12.186a1231.4 1231.4 0 01-16.152 10.541.589.589 0 01-.372.11c-3.461-.068-11.178-2.418-11.507-2.518a.642.642 0 01-.458-.588.636.636 0 01.424-.612L140.921.05a.672.672 0 01.701.143.624.624 0 01.147.68l-10.408 26.319a.642.642 0 01-.476.394c-.043.017-.086.017-.138.017zm-7.899-9.19l7.648 7.402 9.006-22.793a6461.733 6461.733 0 01-16.654 15.391zm-13.989-5.203c2.457.688 6.748 1.813 9.084 1.913A1433.734 1433.734 0 00136.31 3.105L108.859 13.21z" fill="#000"/><path d="M119.206 23.633c-.034 0-.069 0-.112-.008a.635.635 0 01-.537-.52l-1.263-6.882a.64.64 0 01.537-.739c.354-.059.7.168.761.52l.943 5.12 1.721-2.996c.174-.31.58-.42.9-.252.32.168.433.562.251.873l-2.621 4.565a.676.676 0 01-.58.32z" fill="#000"/><path d="M119.44 23.608a.646.646 0 01-.519-.252.622.622 0 01.121-.898l4.049-3.038a.667.667 0 01.925.117.622.622 0 01-.121.898l-4.049 3.039a.673.673 0 01-.406.134zM.658 83.252a.65.65 0 01-.563-.31.636.636 0 01.217-.881 228.409 228.409 0 0028.61-19.99.672.672 0 01.925.075.625.625 0 01-.078.898A228.631 228.631 0 011.004 83.16a.649.649 0 01-.346.092zm26.871-5.228a.654.654 0 01-.381-.118.632.632 0 01-.165-.89 81.03 81.03 0 0113.869-14.87.67.67 0 01.925.067.624.624 0 01-.069.898 79.585 79.585 0 00-13.643 14.636.667.667 0 01-.536.277zm58.975 18.983a.749.749 0 01-.294-.067.624.624 0 01-.294-.856c2.829-5.539 6.774-10.54 11.402-14.46a.67.67 0 01.926.059.623.623 0 01-.06.898c-4.508 3.81-8.34 8.67-11.092 14.057a.65.65 0 01-.588.37z" fill="#000"/></svg>