<svg width="136" height="80" fill="none" xmlns="http://www.w3.org/2000/svg"><path d="M28.429 22.38a.587.587 0 01-.461-.946l7.121-9.128a.587.587 0 01.923.723L28.89 22.15a.579.579 0 01-.461.23z" fill="#000"/><path d="M51.686 78.715c-.07-2.091-.131-4.183-.2-6.283-.085-2.546-.162-5.091-.093-7.645.062-2.276.246-4.545.293-6.814.061-3.007-.131-6.006-.246-9.013-.285-7.352-.139-14.72.115-22.103a69.067 69.067 0 00-12.236.1c2.569-3.346 5.637-6.26 8.69-9.16 1.477-1.4 2.954-2.807 4.43-4.207C57.015 9.26 61.584 4.923 66.367.74c1.17.784 2.192 1.769 3.184 2.769 7.245 7.298 13.397 15.612 20.265 23.11-4.276.023-8.56.047-12.851.116.154 17.427.561 34.854.938 52.227-8.667.831-17.404.9-26.217-.246z" fill="#fff"/><path d="M47.502 23.858a.21.21 0 01-.146-.062.194.194 0 01.008-.277L67.483 4.77c.077-.077.2-.07.276.008.077.077.07.2-.007.277l-20.12 18.75a.18.18 0 01-.13.054zm5.353.322a.19.19 0 01-.146-.069.202.202 0 01.015-.276A836.732 836.732 0 0170.251 8.768a.195.195 0 01.277.023.195.195 0 01-.023.277 816.643 816.643 0 00-17.512 15.059.21.21 0 01-.138.054zm1.054 5.061a.19.19 0 01-.146-.07.195.195 0 01.023-.276l19.442-16.62a.195.195 0 01.277.023.195.195 0 01-.023.277l-19.45 16.62a.189.189 0 01-.123.046zm-.715 6.429a.21.21 0 01-.147-.06.197.197 0 01.008-.278 425.705 425.705 0 0123.103-19.98.196.196 0 01.277.03.196.196 0 01-.03.277 428.21 428.21 0 00-23.08 19.958.18.18 0 01-.132.054zm.446 5.145a.193.193 0 01-.139-.061.194.194 0 01.008-.277 241.745 241.745 0 0126.11-21.75.19.19 0 01.269.047.189.189 0 01-.046.269A241.945 241.945 0 0053.77 40.762a.18.18 0 01-.13.053zm-.485 5.568a.21.21 0 01-.146-.061.196.196 0 01.015-.277A352.933 352.933 0 0173.62 28.602a.196.196 0 01.277.031.196.196 0 01-.031.277 352.043 352.043 0 00-20.573 17.42.211.211 0 01-.138.053zm26.018-21.995a.19.19 0 01-.108-.346l3.438-2.515a.189.189 0 01.269.046.189.189 0 01-.046.27l-3.438 2.514a.217.217 0 01-.115.031zM53.609 50.783a.21.21 0 01-.146-.062.195.195 0 01.007-.277A248.875 248.875 0 0174.597 32.91a.205.205 0 01.277.039.205.205 0 01-.039.277A248.141 248.141 0 0053.74 50.729a.2.2 0 01-.131.054zm.076 5.114a.205.205 0 01-.153-.07.196.196 0 01.03-.276L74.004 38.97a.196.196 0 01.277.03.196.196 0 01-.03.277L53.808 55.851a.204.204 0 01-.123.046zm.708 4.899a.19.19 0 01-.146-.07.195.195 0 01.023-.276 455.058 455.058 0 0119.888-15.72.205.205 0 01.277.039.205.205 0 01-.038.276A454.182 454.182 0 0054.53 60.758a.315.315 0 01-.138.038zm-.069 5.614a.205.205 0 01-.154-.069.203.203 0 01.023-.277 640.12 640.12 0 0120.673-16.412c.085-.069.208-.046.277.039.069.084.046.207-.039.277a650.2 650.2 0 00-20.657 16.404.256.256 0 01-.123.038zm-.1 6.514a.19.19 0 01-.146-.069.202.202 0 01.015-.277 185.128 185.128 0 0120.719-15.781.19.19 0 01.27.054.196.196 0 01-.055.269 184.98 184.98 0 00-20.672 15.743.162.162 0 01-.131.061zm2.984 3.323a.2.2 0 01-.162-.085.19.19 0 01.054-.269l17.635-11.92a.19.19 0 01.27.053.19.19 0 01-.055.27l-17.635 11.92a.176.176 0 01-.107.03zm7.222.453a.2.2 0 01-.162-.084.19.19 0 01.054-.27c2.9-1.96 5.899-3.86 8.913-5.652a.199.199 0 01.27.07.199.199 0 01-.07.268 175.104 175.104 0 00-8.89 5.645.31.31 0 01-.115.023zm6.967.254a.192.192 0 01-.169-.092.199.199 0 01.07-.269l2.599-1.554a.199.199 0 01.269.07.199.199 0 01-.07.269l-2.599 1.553a.214.214 0 01-.1.023z" fill="#000"/><path d="M74.427 76.439c.031.915-.315 1.915.046 2.784.077.215.193.4.339.554a27.878 27.878 0 012.26-.139h.547c.446-.523.338-1.123.438-1.669.085-1.215.108-2.43.031-3.637-.246-5.069-.123-10.145-.238-15.213-.108-3.699-.462-7.39-.408-11.09-.015-3.83.262-7.66.254-11.49-.03-2.722-.362-4.391-.408-6.522 0-.86.039-1.73.07-2.591 0-.3-.124-.585-.331-.8-.662-.7-1.961-.177-1.923.8-.208 3.63-.323 7.268-.438 10.898-.254 3.96-.523 7.92-.546 11.882-.016 8.744.576 17.488.307 26.233z" fill="#000" opacity=".129"/><path d="M75.312 79.792c-8.468 0-16.235-.13-23.672-.4a.578.578 0 01-.562-.577c-.184-16.95-.384-34.47-.138-51.52a49.122 49.122 0 00-11.875.515.594.594 0 01-.615-.307.586.586 0 01.108-.685C47.356 18.005 56.469 8.898 65.952.155a.593.593 0 01.808.007 277.52 277.52 0 0123.74 26.21c.146.177.17.423.061.63a.6.6 0 01-.546.324c-4.883-.215-8.805-.3-12.635-.27.407 16.92.83 34.41 1.238 52.136a.593.593 0 01-.585.6h-2.722zM52.24 78.246c7.875.277 16.127.392 25.187.377-.408-17.727-.83-35.216-1.239-52.128a.62.62 0 01.162-.423.57.57 0 01.415-.177c3.7-.038 7.445.024 12.006.216A276.388 276.388 0 0066.337 1.4c-8.875 8.19-17.42 16.711-25.703 24.994a50.065 50.065 0 0110.944-.215.58.58 0 01.53.592c-.245 17.02-.053 34.524.132 51.474zM34.312 25.165a.6.6 0 01-.369-.13.585.585 0 01-.077-.824L48.88 6.046a.585.585 0 01.9.746L34.76 24.957a.572.572 0 01-.447.208z" fill="#000"/><path d="M47.502 23.858a.21.21 0 01-.146-.062.194.194 0 01.008-.277L67.483 4.77c.077-.077.2-.07.276.008.077.077.07.2-.007.277l-20.12 18.75a.18.18 0 01-.13.054zm5.353.322a.19.19 0 01-.146-.069.202.202 0 01.015-.276A836.732 836.732 0 0170.251 8.768a.195.195 0 01.277.023.195.195 0 01-.023.277 816.643 816.643 0 00-17.512 15.059.21.21 0 01-.138.054zm1.054 5.061a.19.19 0 01-.146-.07.195.195 0 01.023-.276l19.442-16.62a.195.195 0 01.277.023.195.195 0 01-.023.277l-19.45 16.62a.189.189 0 01-.123.046zm-.715 6.429a.21.21 0 01-.147-.06.197.197 0 01.008-.278 425.705 425.705 0 0123.103-19.98.196.196 0 01.277.03.196.196 0 01-.03.277 428.21 428.21 0 00-23.08 19.958.18.18 0 01-.132.054zm.446 5.145a.193.193 0 01-.139-.061.194.194 0 01.008-.277 241.745 241.745 0 0126.11-21.75.19.19 0 01.269.047.189.189 0 01-.046.269A241.945 241.945 0 0053.77 40.762a.18.18 0 01-.13.053zm-.485 5.568a.21.21 0 01-.146-.061.196.196 0 01.015-.277A352.933 352.933 0 0173.62 28.602a.196.196 0 01.277.031.196.196 0 01-.031.277 352.043 352.043 0 00-20.573 17.42.211.211 0 01-.138.053zm26.018-21.995a.19.19 0 01-.108-.346l3.438-2.515a.189.189 0 01.269.046.189.189 0 01-.046.27l-3.438 2.514a.217.217 0 01-.115.031zM53.609 50.783a.21.21 0 01-.146-.062.195.195 0 01.007-.277A248.875 248.875 0 0174.597 32.91a.205.205 0 01.277.039.205.205 0 01-.039.277A248.141 248.141 0 0053.74 50.729a.2.2 0 01-.131.054zm.076 5.114a.205.205 0 01-.153-.07.196.196 0 01.03-.276L74.004 38.97a.196.196 0 01.277.03.196.196 0 01-.03.277L53.808 55.851a.204.204 0 01-.123.046zm.708 4.899a.19.19 0 01-.146-.07.195.195 0 01.023-.276 455.058 455.058 0 0119.888-15.72.205.205 0 01.277.039.205.205 0 01-.038.276A454.182 454.182 0 0054.53 60.758a.315.315 0 01-.138.038zm-.069 5.614a.205.205 0 01-.154-.069.203.203 0 01.023-.277 640.12 640.12 0 0120.673-16.412c.085-.069.208-.046.277.039.069.084.046.207-.039.277a650.2 650.2 0 00-20.657 16.404.256.256 0 01-.123.038zm-.1 6.514a.19.19 0 01-.146-.069.202.202 0 01.015-.277 185.128 185.128 0 0120.719-15.781.19.19 0 01.27.054.196.196 0 01-.055.269 184.98 184.98 0 00-20.672 15.743.162.162 0 01-.131.061zm2.984 3.323a.2.2 0 01-.162-.085.19.19 0 01.054-.269l17.635-11.92a.19.19 0 01.27.053.19.19 0 01-.055.27l-17.635 11.92a.176.176 0 01-.107.03zm7.222.453a.2.2 0 01-.162-.084.19.19 0 01.054-.27c2.9-1.96 5.899-3.86 8.913-5.652a.199.199 0 01.27.07.199.199 0 01-.07.268 175.104 175.104 0 00-8.89 5.645.31.31 0 01-.115.023zm6.967.254a.192.192 0 01-.169-.092.199.199 0 01.07-.269l2.599-1.554a.199.199 0 01.269.07.199.199 0 01-.07.269l-2.599 1.553a.214.214 0 01-.1.023z" fill="#000"/><path d="M74.427 76.439c.031.915-.315 1.915.046 2.784.077.215.193.4.339.554a27.878 27.878 0 012.26-.139h.547c.446-.523.338-1.123.438-1.669.085-1.215.108-2.43.031-3.637-.246-5.069-.123-10.145-.238-15.213-.108-3.699-.462-7.39-.408-11.09-.015-3.83.262-7.66.254-11.49-.03-2.722-.362-4.391-.408-6.522 0-.86.039-1.73.07-2.591 0-.3-.124-.585-.331-.8-.662-.7-1.961-.177-1.923.8-.208 3.63-.323 7.268-.438 10.898-.254 3.96-.523 7.92-.546 11.882-.016 8.744.576 17.488.307 26.233z" fill="#000" opacity=".129"/><path d="M75.312 79.792c-8.468 0-16.235-.13-23.672-.4a.578.578 0 01-.562-.577c-.184-16.95-.384-34.47-.138-51.52a49.122 49.122 0 00-11.875.515.594.594 0 01-.615-.307.586.586 0 01.108-.685C47.356 18.005 56.469 8.898 65.952.155a.593.593 0 01.808.007 277.52 277.52 0 0123.74 26.21c.146.177.17.423.061.63a.6.6 0 01-.546.324c-4.883-.215-8.805-.3-12.635-.27.407 16.92.83 34.41 1.238 52.136a.593.593 0 01-.585.6h-2.722zM52.24 78.246c7.875.277 16.127.392 25.187.377-.408-17.727-.83-35.216-1.239-52.128a.62.62 0 01.162-.423.57.57 0 01.415-.177c3.7-.038 7.445.024 12.006.216A276.388 276.388 0 0066.337 1.4c-8.875 8.19-17.42 16.711-25.703 24.994a50.065 50.065 0 0110.944-.215.58.58 0 01.53.592c-.245 17.02-.053 34.524.132 51.474zM34.312 25.165a.6.6 0 01-.369-.13.585.585 0 01-.077-.824L48.88 6.046a.585.585 0 01.9.746L34.76 24.957a.572.572 0 01-.447.208zm-5.883-2.785a.587.587 0 01-.461-.946l7.121-9.128a.587.587 0 01.923.723L28.89 22.15a.579.579 0 01-.461.23z" fill="#000"/><path d="M97.9 78.816l.523-34.447-8.43-.323 21.112-21.634 18.888 21.565-8.237.2-.976 34.77-22.88-.132z" fill="#fff"/><path d="M121.918 51.936v-.084c-.023-2.246-.131-4.492-.223-6.737-.016-.37.2-.6.469-.685 0-.177-.008-.354-.008-.53a.6.6 0 01.062-.27c-.031-.061-.062-.123-.108-.184h-.123c-.192.008-.185.008-.385.061-.046.016-.092.023-.138.039.046-.023.046-.023.008-.008-.062.023-.123.054-.185.085a5.58 5.58 0 01-.5.192c-.015.008-.038.008-.054.015a5.421 5.421 0 00-.815.97c-.407 2.922-.8 7.62-1.253 12.312-.285 1.892-.339 2.761-.547 5.868-.353 3.63-.553 7.268-.438 10.913.046.87.054 1.739.031 2.6a2.419 2.419 0 00-.115.338c-.031.085-.062.162-.085.254-.608 2.346 2.153 3.784 3.73 2.33-.031-.5-.054-.992-.092-1.492a758.969 758.969 0 00-.293-3.976c-.03-.361.3-.677.639-.73-.039-1.846.03-3.684 0-5.53-.039-2.3-.146-4.599.077-6.89.115-1.17.015-2.331.007-3.5.108-1.777.223-3.569.339-5.36z" fill="#000" opacity=".129"/><path d="M120.764 79.892h-.015c-3.392-.069-7.46-.146-11.536-.223-4.076-.077-8.153-.154-11.544-.223a.578.578 0 01-.415-.184.585.585 0 01-.162-.424c.4-11.966.592-23.133.592-34.131h-.03c-2.877 0-5.476-.138-7.922-.423a.572.572 0 01-.484-.392.59.59 0 01.138-.608c7.006-6.937 14.243-14.112 21.334-21.434a.538.538 0 01.438-.177.61.61 0 01.431.208c2.446 2.922 5.245 6.106 8.214 9.483 3.491 3.976 7.106 8.083 10.813 12.512a.59.59 0 01.077.631c-.1.2-.3.33-.531.33h-.015c-.923-.03-1.992-.045-3.069-.068-1.922-.039-3.907-.077-5.13-.162-.507 11.198-.607 21.611-.607 34.693a.572.572 0 01-.177.415.525.525 0 01-.4.177zm-22.472-1.607c3.268.069 7.106.138 10.944.208 3.837.069 7.675.146 10.944.207 0-13.051.115-23.472.638-34.754a.576.576 0 01.208-.416.588.588 0 01.446-.138c1.023.108 3.368.161 5.645.208.607.015 1.207.023 1.784.038-3.407-4.045-6.737-7.83-9.96-11.498-2.807-3.191-5.46-6.214-7.813-9.006-6.668 6.86-13.451 13.59-20.035 20.112 2.223.207 4.584.3 7.176.284.153 0 .3.062.415.17a.602.602 0 01.177.415c.008 11.02-.177 22.203-.57 34.17zm36.215-37.6a.584.584 0 01-.469-.231l-7.39-9.698a.588.588 0 01.107-.823.588.588 0 01.823.108l7.399 9.698a.595.595 0 01-.108.823.602.602 0 01-.362.123z" fill="#000"/><path d="M121.918 51.936v-.084c-.023-2.246-.131-4.492-.223-6.737-.016-.37.2-.6.469-.685 0-.177-.008-.354-.008-.53a.6.6 0 01.062-.27c-.031-.061-.062-.123-.108-.184h-.123c-.192.008-.185.008-.385.061-.046.016-.092.023-.138.039.046-.023.046-.023.008-.008-.062.023-.123.054-.185.085a5.58 5.58 0 01-.5.192c-.015.008-.038.008-.054.015a5.421 5.421 0 00-.815.97c-.407 2.922-.8 7.62-1.253 12.312-.285 1.892-.339 2.761-.547 5.868-.353 3.63-.553 7.268-.438 10.913.046.87.054 1.739.031 2.6a2.419 2.419 0 00-.115.338c-.031.085-.062.162-.085.254-.608 2.346 2.153 3.784 3.73 2.33-.031-.5-.054-.992-.092-1.492a758.969 758.969 0 00-.293-3.976c-.03-.361.3-.677.639-.73-.039-1.846.03-3.684 0-5.53-.039-2.3-.146-4.599.077-6.89.115-1.17.015-2.331.007-3.5.108-1.777.223-3.569.339-5.36z" fill="#000" opacity=".129"/><path d="M120.764 79.892h-.015c-3.392-.069-7.46-.146-11.536-.223-4.076-.077-8.153-.154-11.544-.223a.578.578 0 01-.415-.184.585.585 0 01-.162-.424c.4-11.966.592-23.133.592-34.131h-.03c-2.877 0-5.476-.138-7.922-.423a.572.572 0 01-.484-.392.59.59 0 01.138-.608c7.006-6.937 14.243-14.112 21.334-21.434a.538.538 0 01.438-.177.61.61 0 01.431.208c2.446 2.922 5.245 6.106 8.214 9.483 3.491 3.976 7.106 8.083 10.813 12.512a.59.59 0 01.077.631c-.1.2-.3.33-.531.33h-.015c-.923-.03-1.992-.045-3.069-.068-1.922-.039-3.907-.077-5.13-.162-.507 11.198-.607 21.611-.607 34.693a.572.572 0 01-.177.415.525.525 0 01-.4.177zm-22.472-1.607c3.268.069 7.106.138 10.944.208 3.837.069 7.675.146 10.944.207 0-13.051.115-23.472.638-34.754a.576.576 0 01.208-.416.588.588 0 01.446-.138c1.023.108 3.368.161 5.645.208.607.015 1.207.023 1.784.038-3.407-4.045-6.737-7.83-9.96-11.498-2.807-3.191-5.46-6.214-7.813-9.006-6.668 6.86-13.451 13.59-20.035 20.112 2.223.207 4.584.3 7.176.284.153 0 .3.062.415.17a.602.602 0 01.177.415c.008 11.02-.177 22.203-.57 34.17zm36.215-37.6a.584.584 0 01-.469-.231l-7.39-9.698a.588.588 0 01.107-.823.588.588 0 01.823.108l7.399 9.698a.595.595 0 01-.108.823.602.602 0 01-.362.123z" fill="#000"/><path d="M11.948 79.07a171.434 171.434 0 001.792-21.627c-3.569-.108-7.145 0-10.698.323 7.114-5.6 13.728-11.836 19.727-18.758 5.375 6.691 10.859 13.49 17.819 18.304a317.61 317.61 0 00-10.198.346c-.092 7.183.223 14.366.854 21.573-1.877.092-3.761.084-5.645.077l-4.469-.024c-3.03-.023-6.068-.038-9.182-.215z" fill="#FFB217"/><path d="M31.475 76.2c-.1-1.53-.2-3.06-.262-4.59-.069-2.823-.284-5.646-.346-8.468-.015-1.116-.03-2.223.039-3.338-.016-.67.261-1.407-.008-2.038-.523-1.377-2.646-.938-2.63.53-.439 3.784-.562 4.292-1.1 8.422-.2 2.93-.1 5.868.13 8.783.247 1.807.108 2.284.416 2.968.461 1.346 2.407 1.692 3.36.67.831-.8.593-1.923.4-2.938z" fill="#000" opacity=".129"/><path d="M27.306 79.892c-.576 0-1.146 0-1.715-.008l-4.468-.023c-2.992-.015-6.083-.03-9.214-.207a.585.585 0 01-.423-.216.605.605 0 01-.123-.454 169.49 169.49 0 001.77-20.972 87.503 87.503 0 00-10.045.338.592.592 0 01-.6-.369.577.577 0 01.185-.677c7.214-5.683 13.82-11.967 19.642-18.688a.58.58 0 01.454-.2.58.58 0 01.446.215c5.283 6.576 10.744 13.382 17.696 18.189a.584.584 0 01-.323 1.07c-2.892.045-5.96.145-9.629.322-.061 6.69.224 13.743.862 20.965a.58.58 0 01-.554.638 85.092 85.092 0 01-3.96.077zm-14.689-1.377c2.884.146 5.737.154 8.514.17l4.468.023c1.646.007 3.33.015 5.007-.047-.616-7.244-.885-14.32-.808-21.026a.588.588 0 01.562-.577 309.2 309.2 0 018.46-.307c-6.222-4.669-11.237-10.821-16.074-16.843C17.4 46.014 11.402 51.759 4.903 57.02a87.198 87.198 0 018.852-.17.585.585 0 01.57.6 170.66 170.66 0 01-1.708 21.065zM.589 53.513a.585.585 0 01-.4-1.015 118.986 118.986 0 008.736-8.99.577.577 0 01.823-.055c.246.216.27.585.054.823A121.392 121.392 0 01.981 53.36a.539.539 0 01-.392.154z" fill="#000"/><path d="M11.948 79.07a171.434 171.434 0 001.792-21.627c-3.569-.108-7.145 0-10.698.323 7.114-5.6 13.728-11.836 19.727-18.758 5.375 6.691 10.859 13.49 17.819 18.304a317.61 317.61 0 00-10.198.346c-.092 7.183.223 14.366.854 21.573-1.877.092-3.761.084-5.645.077l-4.469-.024c-3.03-.023-6.068-.038-9.182-.215z" fill="#FFB217"/><path d="M31.475 76.2c-.1-1.53-.2-3.06-.262-4.59-.069-2.823-.284-5.646-.346-8.468-.015-1.116-.03-2.223.039-3.338-.016-.67.261-1.407-.008-2.038-.523-1.377-2.646-.938-2.63.53-.439 3.784-.562 4.292-1.1 8.422-.2 2.93-.1 5.868.13 8.783.247 1.807.108 2.284.416 2.968.461 1.346 2.407 1.692 3.36.67.831-.8.593-1.923.4-2.938z" fill="#000" opacity=".129"/><path d="M27.306 79.892c-.576 0-1.146 0-1.715-.008l-4.468-.023c-2.992-.015-6.083-.03-9.214-.207a.585.585 0 01-.423-.216.605.605 0 01-.123-.454 169.49 169.49 0 001.77-20.972 87.503 87.503 0 00-10.045.338.592.592 0 01-.6-.369.577.577 0 01.185-.677c7.214-5.683 13.82-11.967 19.642-18.688a.58.58 0 01.454-.2.58.58 0 01.446.215c5.283 6.576 10.744 13.382 17.696 18.189a.584.584 0 01-.323 1.07c-2.892.045-5.96.145-9.629.322-.061 6.69.224 13.743.862 20.965a.58.58 0 01-.554.638 85.092 85.092 0 01-3.96.077zm-14.689-1.377c2.884.146 5.737.154 8.514.17l4.468.023c1.646.007 3.33.015 5.007-.047-.616-7.244-.885-14.32-.808-21.026a.588.588 0 01.562-.577 309.2 309.2 0 018.46-.307c-6.222-4.669-11.237-10.821-16.074-16.843C17.4 46.014 11.402 51.759 4.903 57.02a87.198 87.198 0 018.852-.17.585.585 0 01.57.6 170.66 170.66 0 01-1.708 21.065zM.589 53.513a.585.585 0 01-.4-1.015 118.986 118.986 0 008.736-8.99.577.577 0 01.823-.055c.246.216.27.585.054.823A121.392 121.392 0 01.981 53.36a.539.539 0 01-.392.154z" fill="#000"/></svg>