<svg width="164" height="160" fill="none" xmlns="http://www.w3.org/2000/svg"><path d="M23.686.5l109.74.32c-15.544 5.786-25.57 17.477-25.57 30.459v89.396c0 10.658-5.952 20.351-15.662 27.399-9.71 7.047-23.148 11.421-38.013 11.421-14.868.002-28.308-4.371-38.018-11.417C6.452 141.031.5 131.338.5 120.68V17.125c0-4.542 2.543-8.696 6.738-11.728S17.248.482 23.686.5c0 0 0 0 0 0z" fill="#fff" stroke="#7E7E8F"/><path d="M109.525 25.177C109.813 11.663 121.747.729 136.51.729s26.697 10.934 26.985 24.448h-53.97z" fill="#fff" stroke="#7E7E8F"/></svg>