<svg width="35" height="31" fill="none" xmlns="http://www.w3.org/2000/svg"><path d="M35 16.694c-.084.384-.153.768-.263 1.152-.774 2.8-3.207 4.792-6.041 4.905a42.21 42.21 0 01-2.322.015c-.705-.015-1.175-.47-1.175-1.138.013-.654.483-1.095 1.188-1.109.816-.014 1.645.043 2.461-.043 1.714-.184 2.944-1.137 3.608-2.772.636-1.593.456-3.129-.636-4.48-.774-.952-1.825-1.407-3-1.578a9.344 9.344 0 00-1.258-.085c-.926 0-1.313-.355-1.354-1.308-.097-1.792-.65-3.427-1.77-4.806-2.142-2.645-4.893-3.711-8.155-2.972-3.235.725-5.17 2.943-5.986 6.185-.22.91-.235 1.877-.304 2.816-.055.696-.428 1.194-1.023 1.222-.636.043-1.175-.412-1.16-1.052.04-1.01.151-2.019.234-3.043 0-.056.014-.113.028-.199-.899 0-1.756.214-2.558.612-2.391 1.194-3.732 3.967-3.193 6.612.567 2.772 2.779 4.749 5.488 4.877.125 0 .249 0 .373.028.636.071 1.037.555 1.01 1.195a1.071 1.071 0 01-1.12 1.038c-2.378-.029-4.41-.925-5.972-2.773-2.087-2.446-2.64-5.29-1.562-8.347C1.602 8.603 3.8 6.826 6.897 6.257c.539-.1 1.092-.085 1.63-.085.208 0 .319-.057.416-.256C10.422 2.859 12.772.954 16.006.228c5.557-1.237 11.239 2.688 12.234 8.46.11.64.11.612.719.712 2.737.426 4.783 1.777 5.722 4.578.139.427.208.882.305 1.323.013.455.013.924.013 1.393z" fill="#001042"/><path d="M14.637 25.837c.4-.27.774-.37 1.175-.185.622.284.885 1.08.47 1.65a56.513 56.513 0 01-1.95 2.488c-.4.483-1.119.497-1.547.028a69.305 69.305 0 01-2.13-2.417 1.114 1.114 0 01.084-1.522c.415-.398 1.037-.412 1.493-.014a.986.986 0 01.138.2c.028-.015.07-.03.097-.044v-7.735c0-.568.345-1.01.857-1.109.525-.113 1.037.143 1.23.654.07.185.097.413.097.612v6.953c-.014.128-.014.256-.014.44zM19.02 21.4c-.249.072-.456.171-.664.2-.442.042-.802-.157-1.023-.555-.22-.398-.22-.825.056-1.194a56.299 56.299 0 011.963-2.474c.414-.498 1.12-.484 1.575.014.705.782 1.397 1.564 2.088 2.36.387.455.345 1.11-.056 1.522-.414.426-1.05.426-1.506.028-.056-.057-.11-.1-.221-.213v7.735c0 .896-.802 1.45-1.535 1.095-.456-.228-.65-.626-.65-1.138v-7.024c-.027-.114-.027-.241-.027-.355z" fill="#001042"/></svg>