<svg width="101" height="72" fill="none" xmlns="http://www.w3.org/2000/svg"><path d="M8.089 69.023c14.75 2.834 52.596.454 78.716 1.741 3.78.187 7.978.187 10.794-3.085 2.422-2.817 3.11-7.82 1.59-11.545-1.52-3.725-5.106-5.814-9.136-5.563.882-3.1 1.783-6.38 1.37-9.643-.307-2.42-1.308-4.599-2.384-6.623-.989-1.87-2.072-3.7-3.43-5.125-4.092-4.275-10.237-4.154-15.875 0-.632-5.109-2.14-10.186-4.938-13.894-2.797-3.7-7.027-5.813-10.913-4.566-1.552.502-2.985 1.497-4.268 2.728-3.548 3.409-5.963 8.72-6.176 14.882-3.598-8.137-12.26-11.756-18.861-7.886-6.602 3.878-10.194 14.695-8.116 24.095-2.297-2.485-5.757-2.647-8.48-1.028-2.722 1.62-4.755 4.769-6.107 8.226-.62 1.579-1.095 3.271-1.277 5.028-.763 7.684 5.764 11.927 7.49 12.258z" fill="#fff"/><path d="M88.976 71.534c-.732 0-1.464-.025-2.196-.065-10.832-.535-23.66-.437-36.07-.34-17.503.13-34.035.259-42.702-1.41-2.19-.42-8.736-5.14-7.941-13.043.168-1.692.607-3.408 1.326-5.255 1.108-2.825 3.11-6.606 6.364-8.541 2.604-1.555 5.588-1.474 7.854.089-1.365-9.303 2.353-19.4 8.742-23.157 6.376-3.748 14.568-.777 18.691 6.461.608-5.303 2.829-10.096 6.246-13.383 1.464-1.41 2.966-2.365 4.462-2.85 3.83-1.231 8.322.631 11.432 4.752 2.447 3.239 4.15 7.822 4.95 13.295 5.745-3.886 11.752-3.7 15.814.543 1.483 1.546 2.622 3.538 3.541 5.27 1.09 2.065 2.147 4.324 2.472 6.907.394 3.15-.37 6.34-1.126 9.036 3.992.04 7.328 2.267 8.836 5.959 1.645 4.024.907 9.36-1.709 12.396-2.384 2.777-5.644 3.336-8.986 3.336zm-23.698-1.887c7.56 0 14.919.09 21.54.413 3.841.186 7.809.121 10.412-2.907 2.222-2.583 2.866-7.279 1.477-10.695-1.383-3.393-4.775-5.425-8.63-5.182-.187.016-.356-.097-.462-.284a.869.869 0 01-.07-.663c.82-2.867 1.747-6.122 1.346-9.287-.294-2.308-1.276-4.413-2.29-6.34-.876-1.652-1.953-3.538-3.323-4.971-3.867-4.04-9.718-4.016-15.263.064a.447.447 0 01-.507.025c-.162-.097-.275-.292-.3-.527-.695-5.619-2.353-10.282-4.787-13.513-2.847-3.773-6.927-5.49-10.394-4.372-1.358.437-2.729 1.312-4.074 2.607-3.592 3.45-5.763 8.68-5.957 14.347-.013.316-.182.583-.413.656-.238.073-.482-.065-.601-.332-3.473-7.854-11.796-11.335-18.16-7.595-6.326 3.717-9.83 14.154-7.816 23.262.063.3-.025.615-.225.786-.2.17-.463.145-.645-.049-2.008-2.178-5.181-2.55-7.897-.931-2.972 1.773-4.818 5.279-5.85 7.902-.67 1.7-1.065 3.271-1.221 4.801-.739 7.336 5.607 11.19 7.021 11.465 8.586 1.652 25.075 1.523 42.534 1.393 4.825-.04 9.73-.073 14.555-.073z" fill="#000"/><path d="M11.105 66.983c-.05 0-.1-.024-.138-.081a143.52 143.52 0 01-6.62-10.906c-.056-.105-.038-.251.044-.324.081-.073.194-.049.25.057a142.71 142.71 0 006.602 10.874.293.293 0 01-.019.331.207.207 0 01-.119.049zm5.044.316c-.05 0-.094-.025-.132-.073-2.91-3.862-5.6-8.065-8.003-12.485-.056-.105-.038-.251.044-.324.081-.073.194-.049.25.057a101.837 101.837 0 007.966 12.428.283.283 0 01-.006.332.155.155 0 01-.12.065zm4.199.818c-.057 0-.107-.033-.144-.09l-5.914-9.999a.292.292 0 01.031-.332c.082-.08.194-.056.257.04l5.913 10a.292.292 0 01-.03.332.173.173 0 01-.113.049zm3.147-2.405c-.05 0-.1-.024-.137-.08l-4.112-6.09a.283.283 0 01.02-.331c.074-.081.187-.073.256.024l4.111 6.088a.283.283 0 01-.019.332c-.037.033-.081.057-.119.057zm2.904-2.592a.165.165 0 01-.138-.088l-2.547-4.008a.293.293 0 01.025-.332c.075-.081.194-.065.257.032l2.54 4.008a.293.293 0 01-.024.332.135.135 0 01-.113.057zm-5.476-19.35a.16.16 0 01-.143-.097l-2.58-4.502a.282.282 0 01.038-.332c.081-.072.194-.056.256.049l2.579 4.502a.283.283 0 01-.038.332.174.174 0 01-.113.048zm4.15-.194c-.057 0-.107-.033-.144-.097l-6.333-10.947a.283.283 0 01.037-.332c.082-.08.194-.057.257.049l6.326 10.946a.282.282 0 01-.037.332.148.148 0 01-.106.049zm2.803-2.332a.134.134 0 01-.119-.065c-1.458-1.708-2.74-3.651-3.83-5.773a.28.28 0 01.05-.323c.082-.073.194-.041.25.064 1.07 2.09 2.335 4 3.768 5.684.075.09.081.235.012.332a.161.161 0 01-.131.081zm21.02-8.607c-.044 0-.088-.024-.125-.065l-3.117-3.7a.282.282 0 01-.012-.332c.069-.097.181-.097.256-.016l3.117 3.7c.075.09.081.235.012.332a.147.147 0 01-.131.081zm5.619.535a.161.161 0 01-.112-.049 184.204 184.204 0 01-8.06-8.712.282.282 0 01-.013-.332c.069-.097.182-.105.257-.016a187.5 187.5 0 008.04 8.696c.082.08.095.227.032.332-.037.048-.087.08-.144.08z" fill="#000"/><path d="M99.508 60.506c-.576.68-1.089 1.433-1.658 2.121-.495.494-.413.518-1.527 1.369a4.053 4.053 0 01-.288.202c-.131.065-.169.081-.15.081-3.01 1.466-5.376 1.19-9.28 1.49-3.192.17-6.383.024-9.568.089-2.447-.081-4.894-.243-7.34-.203-2.216-.008-4.425.122-6.64.082-1.696-.017-3.386-.235-5.075-.292-3.705-.081-7.41.105-11.114.04-6.42-.178-12.828-.963-19.255-.817-3.71.064-7.428.008-11.139-.057-1.84-.105-5.406-.704-5.588-.737a18.03 18.03 0 01-3.73-1.279c-.97-.478-.7-.356-1.032-.534-.838-.478-1.664-1.013-2.434-1.668-.45-.357-.826-.964-1.383-.988-.795-.178-1.44.47-1.683 1.32.287.704.594 1.408.9 2.097-.237.453-.262 1.109.095 1.53.707.818 1.376 1.676 2.183 2.332.025.024.057.048.082.073.069.072.156.162.225.226.7.705 1.508 1.231 2.29 1.765.833.551 1.715.996 2.616 1.336.507.154 1.033.154 1.546.243-.025-.008-.05-.008-.075-.016 1.182.194 2.459.227 2.81-.955.03-.073.05-.154.062-.227.538.08 1.076.154 1.614.227 1.621.226 3.255.186 4.888.235 1.82.04 3.642.226 5.463.299 9.092-.291 18.16 1.093 27.252.802 1.708-.008 3.423-.114 5.131-.04 1.809.048 3.611.282 5.426.299 3.592.016 7.184-.178 10.776-.04 2.935.202 5.87.048 8.81.032 4.262-.13 8.592-.349 12.735-1.741.444-.178.87-.413 1.295-.656a14.98 14.98 0 00-.313.17c.557-.275 1.07-.688 1.534-1.174l-.332.332c.294-.219.576-.453.857-.704.276-.753.551-1.506.833-2.26l.713-2.04c.031-.25.063-.502.088-.753.056-.745.125-1.481.187-2.226-.632.186-.588.42-.807.615z" fill="#000" opacity=".129"/><path d="M73.782 12.19c-2.302.866-4.34 2.695-5.433 5.138-1.088 2.444-1.154 5.48 0 7.883 1.68 3.498 5.843 5.058 9.141 3.646 3.592-1.544 5.782-6.403 4.73-10.566-1.052-4.17-5.281-7.285-8.438-6.1zm4.37 10.925c-.323.855-1.056 1.646-1.795 2.05-1.68.923-3.587.132-4.578-1.583-1.022-1.76-.875-4.14.182-5.85.526-.848 1.189-1.514 2.115-1.714.854-.182 1.71-.006 2.382.604.435.085.85.29 1.194.61.663.62.946 1.856 1.002 2.79.055 1.026-.147 2.153-.501 3.093z" fill="#fff"/><path d="M91.104 20.022c-.956-.325-1.877-.889-2.51-1.766-.88-1.219-1.092-2.945-.733-4.465.36-1.521 1.234-2.837 2.302-3.85a56.664 56.664 0 00-3.035-4.808c-1.3 1.082-2.545 2.107-3.987 2.187-1.391.08-2.737-.78-3.602-2.005-.865-1.23-1.295-2.785-1.467-4.34-.05-.148-.121-.177-.172-.182-1.457-.12-2.919-.245-4.376-.365-.263 1.532-.885 2.905-1.836 3.896-.951.991-2.246 1.584-3.541 1.538-.532-.017-1.058-.142-1.579-.268-.85-.21-1.75-.467-2.352-1.179-1.158.889-2.2 1.834-3.207 2.82.516.393.733.94.915 1.47.39 1.133.683 2.374.44 3.56-.252 1.224-1.072 2.238-2.053 2.841-.982.604-2.11.843-3.223.917-.309 1.795-.46 3.714-.51 5.64.95.38 1.85.706 2.665 1.241.81.53 1.538 1.293 1.897 2.267.405 1.1.309 2.38-.116 3.469-.425 1.088-1.154 1.999-1.978 2.75a187.49 187.49 0 002.934 5.167c1.518-1.122 3.43-1.47 5.094-.866.415.148.815.359 1.159.667.425.381.738.9.986 1.446.587 1.31.81 2.825.622 4.278 1.771.399 3.486.655 5.206.809-.101-2.017.668-4.039 2.084-5.144 1.417-1.105 3.435-1.179 4.862-.085.673.518 1.194 1.253 1.695 1.976 1.552-1.236 3.085-2.494 4.522-3.884-.804-1.407-1.619-2.814-1.654-4.397-.036-1.652.85-3.224 2.079-4.124 1.23-.894 2.767-1.168 4.224-.997.501-1.92.926-3.793 1.28-5.684-1.072-.097-2.074-.205-3.035-.53zm-9.152 4.215a9.396 9.396 0 01-2.706 3.696 7.55 7.55 0 01-2.21 1.3c-3.259 1.172-7.078-.89-8.59-4.347-1.104-2.517-1.053-5.639.126-8.11 1.178-2.473 3.46-4.244 5.939-4.597 2.216-.32 5.023 1.03 6.622 3.457 1.598 2.427 1.922 5.85.82 8.6z" fill="#FFB217"/><path d="M83.94 20.233a9.552 9.552 0 00-.146-.849l-.086-.2a18.153 18.153 0 00-1.64-2.898.63.63 0 00-.217.341c-.066.485.273.934.38 1.396.379 1.276.632 1.89.51 3.053.016.444-.637 2.916-.844 3.224a11.03 11.03 0 01-.86 1.555c-.102.136-.132.193-.122.199-.162.142-.303.33-.465.479-.34.324-.678.649-1.022.973a3.534 3.534 0 00-.344.33c.056-.09-.096.07-.233.2-.076.057-.415.32-.587.416-1.194.473-2.433.735-3.09.775-.876.09-1.736-.16-2.409-.337-.48-.153-.9-.689-1.416-.58-.223.062-.37.25-.43.472.05.063.101.12.152.177.177.16.349.325.526.484.637.467 1.28.94 1.922 1.401 1.063.348 2.2.416 3.557.125-.026 0-.051.006-.081.012 1.426-.342 1.871-.553 2.913-1.162.911-.61 1.645-1.498 2.211-2.506.015-.029.036-.057.05-.086 0-.005.006-.005.006-.005.663-.934 1.169-2 1.523-3.127.354-1.236.349-2.575.242-3.862zm3.476 13.134a.853.853 0 00-.405.126c-.182.114-.298.302-.415.49-.106.153-.217.302-.313.467-.284.41-.365.586-.992 1.304-.349.422-.895.684-1.123 1.208-.005.01-.005.017-.01.028-.137.085-.268.177-.405.256-.253.177-.581.262-.758.547-.552.735.303 1.817 1.026 1.316a10.53 10.53 0 002.1-1.63c.03-.033.06-.073.096-.107.496-.45.976-.917 1.421-1.43.162-.194.355-.422.511-.666a13.627 13.627 0 01-.44-1.151 7.945 7.945 0 01-.293-.758zm4.912-12.907a71.692 71.692 0 01-.966 3.697c-.162.564-.324 1.14-.486 1.709.192.268.521.422.825.313.015-.005.03-.017.045-.022a.593.593 0 001.083-.217c.066-.268.167-.535.248-.803a.692.692 0 00.151-.108c.314-.257.4-.74.516-1.134a14.05 14.05 0 00.299-2.432 1.6 1.6 0 01.01-.148 45.529 45.529 0 01-1.725-.854z" fill="#000" opacity=".129"/><path d="M75.047 43.324h-.03a39.035 39.035 0 01-5.252-.815c-.202-.045-.334-.262-.303-.49a7.531 7.531 0 00-.587-4.02c-.258-.582-.546-1.009-.88-1.305-.268-.245-.607-.439-1.037-.592-1.533-.559-3.314-.251-4.76.814-.178.131-.415.074-.532-.125a151.53 151.53 0 01-2.944-5.172.469.469 0 01.086-.564c.88-.797 1.508-1.669 1.867-2.586.415-1.06.455-2.204.111-3.133-.374-1.008-1.148-1.674-1.735-2.061-.683-.439-1.442-.74-2.246-1.06l-.354-.142a.438.438 0 01-.258-.422c.055-2.113.227-4.032.516-5.707.035-.194.182-.336.354-.348 1.254-.085 2.256-.37 3.06-.865.956-.593 1.655-1.55 1.862-2.563.238-1.145-.101-2.37-.425-3.31-.167-.484-.35-.945-.769-1.27a.466.466 0 01-.035-.683c1.158-1.14 2.19-2.045 3.242-2.854a.35.35 0 01.496.063c.516.61 1.31.848 2.155 1.053.536.131 1.017.245 1.508.262 1.168.04 2.357-.478 3.268-1.423.87-.906 1.462-2.17 1.72-3.657.035-.217.212-.365.404-.348l4.376.365c.233.017.415.188.506.461.01.034.015.063.02.097.188 1.697.658 3.087 1.387 4.124.85 1.202 2.104 1.902 3.283 1.84 1.345-.074 2.58-1.105 3.779-2.108.167-.142.404-.102.53.08 1.2 1.726 2.201 3.31 3.056 4.841a.477.477 0 01-.076.564c-.778.74-1.785 1.965-2.18 3.628-.349 1.47-.096 3.03.658 4.079.52.723 1.32 1.281 2.322 1.623.92.313 1.882.422 2.954.518a.386.386 0 01.278.171.489.489 0 01.071.348 84.597 84.597 0 01-1.285 5.718c-.05.2-.222.33-.41.308-1.497-.171-2.908.154-3.976.928-1.183.86-1.932 2.33-1.902 3.748.03 1.441.774 2.746 1.563 4.124l.026.046a.476.476 0 01-.071.563c-1.492 1.436-3.07 2.729-4.553 3.908a.36.36 0 01-.526-.086c-.45-.649-.961-1.39-1.609-1.885-1.26-.968-3.121-.928-4.421.085-1.265.986-2.019 2.854-1.918 4.762a.473.473 0 01-.116.336.336.336 0 01-.268.137zm-4.786-1.59c1.437.308 2.879.536 4.391.684.026-2.05.87-3.947 2.262-5.03 1.583-1.23 3.758-1.27 5.296-.085.633.485 1.123 1.128 1.553 1.743 1.295-1.036 2.651-2.153 3.941-3.377-.759-1.339-1.497-2.723-1.533-4.306-.035-1.71.85-3.475 2.256-4.494 1.134-.826 2.596-1.202 4.149-1.094a79.75 79.75 0 001.092-4.83c-.92-.091-1.82-.216-2.676-.507-1.148-.393-2.079-1.054-2.696-1.908-.906-1.259-1.214-3.116-.804-4.847.328-1.384 1.077-2.7 2.17-3.816a58.77 58.77 0 00-2.606-4.124c-1.193.99-2.438 1.936-3.895 2.022-1.416.085-2.924-.752-3.925-2.17-.795-1.128-1.306-2.598-1.528-4.37l-3.88-.324c-.319 1.51-.967 2.803-1.882 3.754-1.058 1.1-2.449 1.703-3.815 1.652-.556-.017-1.097-.143-1.649-.28-.82-.199-1.664-.45-2.307-1.048-.84.656-1.669 1.39-2.58 2.262.35.41.532.883.683 1.315.36 1.054.739 2.444.456 3.817-.263 1.27-1.078 2.409-2.241 3.127-.84.518-1.852.831-3.086.945-.233 1.464-.38 3.122-.44 4.927l.086.034c.84.33 1.634.65 2.377 1.134.688.45 1.604 1.247 2.06 2.477.424 1.145.379 2.535-.117 3.811-.37.951-.982 1.845-1.826 2.666.87 1.583 1.704 3.053 2.544 4.482 1.578-1.025 3.455-1.287 5.094-.689.516.188.936.427 1.28.74.42.376.78.9 1.088 1.595a8.41 8.41 0 01.708 4.113z" fill="#000"/><path d="M74.85 25.968c-1.296 0-2.611-.808-3.344-2.113-.775-1.372-.896-3.24-.33-4.864.385-1.1 1.048-2.022 1.873-2.597.91-.638 1.993-.838 2.964-.541 1.103.336 1.927.882 2.448 1.634.628.906.967 2.114.962 3.412-.005.883-.167 1.64-.491 2.256-.283.54-.678.95-1.027 1.287-.88.843-1.67 1.31-2.479 1.47-.187.04-.38.056-.577.056zm.263-9.375c-.567 0-1.154.188-1.66.541-.683.479-1.234 1.253-1.558 2.182-.48 1.372-.38 2.939.263 4.084.678 1.207 1.973 1.896 3.142 1.663.667-.131 1.34-.536 2.11-1.276.298-.285.637-.638.86-1.065.252-.479.379-1.094.384-1.817.005-1.1-.279-2.125-.8-2.87-.415-.599-1.103-1.049-2.038-1.334a2.224 2.224 0 00-.704-.108z" fill="#000"/><path d="M75.128 29.995c-2.828 0-5.717-1.914-7.027-4.915-1.159-2.649-1.108-5.907.131-8.51 1.24-2.597 3.628-4.448 6.228-4.824 2.433-.348 5.367 1.179 6.981 3.628 1.695 2.575 2.029 6.123.86 9.04a9.737 9.737 0 01-2.833 3.867c-.749.615-1.528 1.076-2.322 1.361a5.857 5.857 0 01-2.018.353zm.055-17.429c-.212 0-.42.017-.627.046-2.358.341-4.523 2.016-5.646 4.374-1.123 2.358-1.173 5.314-.121 7.712 1.472 3.36 5.114 5.212 8.124 4.124.714-.256 1.422-.672 2.1-1.236a8.896 8.896 0 002.585-3.526c1.042-2.597.728-5.878-.78-8.167-1.314-2.006-3.601-3.327-5.635-3.327z" fill="#000"/><path d="M91.104 20.022c-.956-.325-1.877-.889-2.51-1.766-.88-1.219-1.092-2.945-.733-4.465.36-1.521 1.234-2.837 2.302-3.85a56.664 56.664 0 00-3.035-4.808c-1.3 1.082-2.545 2.107-3.987 2.187-1.391.08-2.737-.78-3.602-2.005-.865-1.23-1.295-2.785-1.467-4.34-.05-.148-.121-.177-.172-.182-1.457-.12-2.919-.245-4.376-.365-.263 1.532-.885 2.905-1.836 3.896-.951.991-2.246 1.584-3.541 1.538-.532-.017-1.058-.142-1.579-.268-.85-.21-1.75-.467-2.352-1.179-1.158.889-2.2 1.834-3.207 2.82.516.393.733.94.915 1.47.39 1.133.683 2.374.44 3.56-.252 1.224-1.072 2.238-2.053 2.841-.982.604-2.11.843-3.223.917-.309 1.795-.46 3.714-.51 5.64.95.38 1.85.706 2.665 1.241.81.53 1.538 1.293 1.897 2.267.405 1.1.309 2.38-.116 3.469-.425 1.088-1.154 1.999-1.978 2.75a187.49 187.49 0 002.934 5.167c1.518-1.122 3.43-1.47 5.094-.866.415.148.815.359 1.159.667.425.381.738.9.986 1.446.587 1.31.81 2.825.622 4.278 1.771.399 3.486.655 5.206.809-.101-2.017.668-4.039 2.084-5.144 1.417-1.105 3.435-1.179 4.862-.085.673.518 1.194 1.253 1.695 1.976 1.552-1.236 3.085-2.494 4.522-3.884-.804-1.407-1.619-2.814-1.654-4.397-.036-1.652.85-3.224 2.079-4.124 1.23-.894 2.767-1.168 4.224-.997.501-1.92.926-3.793 1.28-5.684-1.072-.097-2.074-.205-3.035-.53zm-9.152 4.215a9.396 9.396 0 01-2.706 3.696 7.55 7.55 0 01-2.21 1.3c-3.259 1.172-7.078-.89-8.59-4.347-1.104-2.517-1.053-5.639.126-8.11 1.178-2.473 3.46-4.244 5.939-4.597 2.216-.32 5.023 1.03 6.622 3.457 1.598 2.427 1.922 5.85.82 8.6z" fill="#FFB217"/><path d="M83.94 20.233a9.552 9.552 0 00-.146-.849l-.086-.2a18.153 18.153 0 00-1.64-2.898.63.63 0 00-.217.341c-.066.485.273.934.38 1.396.379 1.276.632 1.89.51 3.053.016.444-.637 2.916-.844 3.224a11.03 11.03 0 01-.86 1.555c-.102.136-.132.193-.122.199-.162.142-.303.33-.465.479-.34.324-.678.649-1.022.973a3.534 3.534 0 00-.344.33c.056-.09-.096.07-.233.2-.076.057-.415.32-.587.416-1.194.473-2.433.735-3.09.775-.876.09-1.736-.16-2.409-.337-.48-.153-.9-.689-1.416-.58-.223.062-.37.25-.43.472.05.063.101.12.152.177.177.16.349.325.526.484.637.467 1.28.94 1.922 1.401 1.063.348 2.2.416 3.557.125-.026 0-.051.006-.081.012 1.426-.342 1.871-.553 2.913-1.162.911-.61 1.645-1.498 2.211-2.506.015-.029.036-.057.05-.086 0-.005.006-.005.006-.005.663-.934 1.169-2 1.523-3.127.354-1.236.349-2.575.242-3.862zm3.476 13.134a.853.853 0 00-.405.126c-.182.114-.298.302-.415.49-.106.153-.217.302-.313.467-.284.41-.365.586-.992 1.304-.349.422-.895.684-1.123 1.208-.005.01-.005.017-.01.028-.137.085-.268.177-.405.256-.253.177-.581.262-.758.547-.552.735.303 1.817 1.026 1.316a10.53 10.53 0 002.1-1.63c.03-.033.06-.073.096-.107.496-.45.976-.917 1.421-1.43.162-.194.355-.422.511-.666a13.627 13.627 0 01-.44-1.151 7.945 7.945 0 01-.293-.758zm4.912-12.907a71.692 71.692 0 01-.966 3.697c-.162.564-.324 1.14-.486 1.709.192.268.521.422.825.313.015-.005.03-.017.045-.022a.593.593 0 001.083-.217c.066-.268.167-.535.248-.803a.692.692 0 00.151-.108c.314-.257.4-.74.516-1.134a14.05 14.05 0 00.299-2.432 1.6 1.6 0 01.01-.148 45.529 45.529 0 01-1.725-.854z" fill="#000" opacity=".129"/><path d="M75.047 43.324h-.03a39.035 39.035 0 01-5.252-.815c-.202-.045-.334-.262-.303-.49a7.531 7.531 0 00-.587-4.02c-.258-.582-.546-1.009-.88-1.305-.268-.245-.607-.439-1.037-.592-1.533-.559-3.314-.251-4.76.814-.178.131-.415.074-.532-.125a151.53 151.53 0 01-2.944-5.172.469.469 0 01.086-.564c.88-.797 1.508-1.669 1.867-2.586.415-1.06.455-2.204.111-3.133-.374-1.008-1.148-1.674-1.735-2.061-.683-.439-1.442-.74-2.246-1.06l-.354-.142a.438.438 0 01-.258-.422c.055-2.113.227-4.032.516-5.707.035-.194.182-.336.354-.348 1.254-.085 2.256-.37 3.06-.865.956-.593 1.655-1.55 1.862-2.563.238-1.145-.101-2.37-.425-3.31-.167-.484-.35-.945-.769-1.27a.466.466 0 01-.035-.683c1.158-1.14 2.19-2.045 3.242-2.854a.35.35 0 01.496.063c.516.61 1.31.848 2.155 1.053.536.131 1.017.245 1.508.262 1.168.04 2.357-.478 3.268-1.423.87-.906 1.462-2.17 1.72-3.657.035-.217.212-.365.404-.348l4.376.365c.233.017.415.188.506.461.01.034.015.063.02.097.188 1.697.658 3.087 1.387 4.124.85 1.202 2.104 1.902 3.283 1.84 1.345-.074 2.58-1.105 3.779-2.108.167-.142.404-.102.53.08 1.2 1.726 2.201 3.31 3.056 4.841a.477.477 0 01-.076.564c-.778.74-1.785 1.965-2.18 3.628-.349 1.47-.096 3.03.658 4.079.52.723 1.32 1.281 2.322 1.623.92.313 1.882.422 2.954.518a.386.386 0 01.278.171.489.489 0 01.071.348 84.597 84.597 0 01-1.285 5.718c-.05.2-.222.33-.41.308-1.497-.171-2.908.154-3.976.928-1.183.86-1.932 2.33-1.902 3.748.03 1.441.774 2.746 1.563 4.124l.026.046a.476.476 0 01-.071.563c-1.492 1.436-3.07 2.729-4.553 3.908a.36.36 0 01-.526-.086c-.45-.649-.961-1.39-1.609-1.885-1.26-.968-3.121-.928-4.421.085-1.265.986-2.019 2.854-1.918 4.762a.473.473 0 01-.116.336.336.336 0 01-.268.137zm-4.786-1.59c1.437.308 2.879.536 4.391.684.026-2.05.87-3.947 2.262-5.03 1.583-1.23 3.758-1.27 5.296-.085.633.485 1.123 1.128 1.553 1.743 1.295-1.036 2.651-2.153 3.941-3.377-.759-1.339-1.497-2.723-1.533-4.306-.035-1.71.85-3.475 2.256-4.494 1.134-.826 2.596-1.202 4.149-1.094a79.75 79.75 0 001.092-4.83c-.92-.091-1.82-.216-2.676-.507-1.148-.393-2.079-1.054-2.696-1.908-.906-1.259-1.214-3.116-.804-4.847.328-1.384 1.077-2.7 2.17-3.816a58.77 58.77 0 00-2.606-4.124c-1.193.99-2.438 1.936-3.895 2.022-1.416.085-2.924-.752-3.925-2.17-.795-1.128-1.306-2.598-1.528-4.37l-3.88-.324c-.319 1.51-.967 2.803-1.882 3.754-1.058 1.1-2.449 1.703-3.815 1.652-.556-.017-1.097-.143-1.649-.28-.82-.199-1.664-.45-2.307-1.048-.84.656-1.669 1.39-2.58 2.262.35.41.532.883.683 1.315.36 1.054.739 2.444.456 3.817-.263 1.27-1.078 2.409-2.241 3.127-.84.518-1.852.831-3.086.945-.233 1.464-.38 3.122-.44 4.927l.086.034c.84.33 1.634.65 2.377 1.134.688.45 1.604 1.247 2.06 2.477.424 1.145.379 2.535-.117 3.811-.37.951-.982 1.845-1.826 2.666.87 1.583 1.704 3.053 2.544 4.482 1.578-1.025 3.455-1.287 5.094-.689.516.188.936.427 1.28.74.42.376.78.9 1.088 1.595a8.41 8.41 0 01.708 4.113z" fill="#000"/><path d="M74.85 25.968c-1.296 0-2.611-.808-3.344-2.113-.775-1.372-.896-3.24-.33-4.864.385-1.1 1.048-2.022 1.873-2.597.91-.638 1.993-.838 2.964-.541 1.103.336 1.927.882 2.448 1.634.628.906.967 2.114.962 3.412-.005.883-.167 1.64-.491 2.256-.283.54-.678.95-1.027 1.287-.88.843-1.67 1.31-2.479 1.47-.187.04-.38.056-.577.056zm.263-9.375c-.567 0-1.154.188-1.66.541-.683.479-1.234 1.253-1.558 2.182-.48 1.372-.38 2.939.263 4.084.678 1.207 1.973 1.896 3.142 1.663.667-.131 1.34-.536 2.11-1.276.298-.285.637-.638.86-1.065.252-.479.379-1.094.384-1.817.005-1.1-.279-2.125-.8-2.87-.415-.599-1.103-1.049-2.038-1.334a2.224 2.224 0 00-.704-.108z" fill="#000"/><path d="M75.128 29.995c-2.828 0-5.717-1.914-7.027-4.915-1.159-2.649-1.108-5.907.131-8.51 1.24-2.597 3.628-4.448 6.228-4.824 2.433-.348 5.367 1.179 6.981 3.628 1.695 2.575 2.029 6.123.86 9.04a9.737 9.737 0 01-2.833 3.867c-.749.615-1.528 1.076-2.322 1.361a5.857 5.857 0 01-2.018.353zm.055-17.429c-.212 0-.42.017-.627.046-2.358.341-4.523 2.016-5.646 4.374-1.123 2.358-1.173 5.314-.121 7.712 1.472 3.36 5.114 5.212 8.124 4.124.714-.256 1.422-.672 2.1-1.236a8.896 8.896 0 002.585-3.526c1.042-2.597.728-5.878-.78-8.167-1.314-2.006-3.601-3.327-5.635-3.327z" fill="#000"/></svg>