<svg width="114" height="100" fill="none" xmlns="http://www.w3.org/2000/svg"><path d="M44.58 93.232c-7.457 0-14.928-3.053-20.148-8.392a.541.541 0 01.007-.76.541.541 0 01.76.007c5.832 5.959 14.583 8.962 22.842 7.837a.533.533 0 01.605.457.538.538 0 01-.458.605 25.856 25.856 0 01-3.608.246z" fill="#000"/><path d="M43.433 95.948a.528.528 0 01-.5-.352.54.54 0 01.317-.69 16.073 16.073 0 004.165-2.272 28.478 28.478 0 01-4.024-2.757.535.535 0 01.682-.823 26.294 26.294 0 004.559 3.025.531.531 0 01.091.88 17.16 17.16 0 01-5.107 2.947.46.46 0 01-.183.042zm58.115-64.214h-.043a.536.536 0 01-.492-.577c.619-7.457-2.955-15.026-9.096-19.296a.532.532 0 01-.134-.746.532.532 0 01.746-.134c6.45 4.482 10.2 12.43 9.553 20.26a.54.54 0 01-.534.493z" fill="#000"/><path d="M93.859 17.15a.534.534 0 01-.514-.386 46.801 46.801 0 00-1.892-5.375.536.536 0 01.64-.725l5.53 1.548c.288.078.45.373.372.662a.534.534 0 01-.661.373l-4.481-1.253a47.94 47.94 0 011.519 4.482.533.533 0 01-.366.66 1.004 1.004 0 01-.147.015zm15.546 13.606h-.056a.538.538 0 01-.478-.59 26.405 26.405 0 00-2.301-13.824.535.535 0 01.971-.45 27.485 27.485 0 012.392 14.386.523.523 0 01-.528.478zM34.773 100c-.035 0-.07 0-.106-.007-5.43-1.07-10.545-3.848-14.407-7.816a.535.535 0 01.014-.76.535.535 0 01.76.015c3.707 3.813 8.625 6.486 13.845 7.513a.535.535 0 01.422.626.535.535 0 01-.528.429zm9.807-6.768c-7.457 0-14.928-3.053-20.148-8.392a.541.541 0 01.007-.76.541.541 0 01.76.007c5.832 5.959 14.583 8.962 22.842 7.837a.533.533 0 01.605.457.538.538 0 01-.458.605 25.856 25.856 0 01-3.608.246z" fill="#000"/><path d="M43.433 95.948a.528.528 0 01-.5-.352.54.54 0 01.317-.69 16.073 16.073 0 004.165-2.272 28.478 28.478 0 01-4.024-2.757.535.535 0 01.682-.823 26.294 26.294 0 004.559 3.025.531.531 0 01.091.88 17.16 17.16 0 01-5.107 2.947.46.46 0 01-.183.042zm58.115-64.214h-.043a.536.536 0 01-.492-.577c.619-7.457-2.955-15.026-9.096-19.296a.532.532 0 01-.134-.746.532.532 0 01.746-.134c6.45 4.482 10.2 12.43 9.553 20.26a.54.54 0 01-.534.493z" fill="#000"/><path d="M93.859 17.15a.534.534 0 01-.514-.386 46.801 46.801 0 00-1.892-5.375.536.536 0 01.64-.725l5.53 1.548c.288.078.45.373.372.662a.534.534 0 01-.661.373l-4.481-1.253a47.94 47.94 0 011.519 4.482.533.533 0 01-.366.66 1.004 1.004 0 01-.147.015z" fill="#000"/><path d="M24.46 34.752c-3.2 1.07-6.036 3.327-7.555 6.345-1.513 3.018-1.604 6.768 0 9.737 2.335 4.319 8.125 6.246 12.712 4.502 4.994-1.907 8.04-7.907 6.577-13.05-1.463-5.15-7.344-8.997-11.734-7.534zm6.078 13.493c-.45 1.055-1.47 2.033-2.497 2.532-2.336 1.14-4.988.162-6.367-1.955-1.42-2.174-1.217-5.115.254-7.225.731-1.048 1.653-1.871 2.94-2.118 1.19-.225 2.378-.007 3.314.746a3.575 3.575 0 011.66.753c.921.767 1.315 2.293 1.393 3.447.077 1.266-.204 2.659-.697 3.82z" fill="#fff"/><path d="M48.547 44.425c-1.33-.401-2.61-1.097-3.489-2.18-1.224-1.506-1.52-3.638-1.02-5.516.5-1.879 1.717-3.504 3.2-4.756-1.308-2.082-2.729-4.038-4.22-5.937-1.808 1.336-3.539 2.603-5.544 2.701-1.934.099-3.805-.963-5.008-2.476-1.203-1.52-1.801-3.44-2.04-5.36-.07-.183-.17-.219-.24-.226-2.026-.147-4.059-.302-6.085-.45-.366 1.892-1.23 3.588-2.553 4.812-1.323 1.224-3.124 1.956-4.925 1.9-.738-.022-1.47-.177-2.195-.331-1.181-.26-2.434-.577-3.27-1.457-1.612 1.098-3.06 2.266-4.46 3.483.717.485 1.02 1.16 1.272 1.815.542 1.4.95 2.933.613 4.396-.352 1.513-1.492 2.765-2.857 3.51-1.364.746-2.933 1.042-4.48 1.133-.43 2.216-.641 4.587-.711 6.965 1.322.471 2.574.872 3.707 1.533 1.126.655 2.139 1.597 2.638 2.8.563 1.358.43 2.94-.162 4.285-.59 1.343-1.604 2.469-2.75 3.397a226.143 226.143 0 004.08 6.381c2.11-1.386 4.77-1.815 7.084-1.07.577.184 1.133.444 1.61.824.592.471 1.028 1.111 1.373 1.787a8.965 8.965 0 01.865 5.283c2.462.492 4.847.809 7.239.999-.14-2.49.928-4.988 2.898-6.353 1.97-1.364 4.777-1.456 6.76-.105.936.64 1.66 1.547 2.357 2.44 2.16-1.526 4.291-3.08 6.29-4.797-1.12-1.737-2.252-3.475-2.301-5.43-.05-2.04 1.182-3.982 2.891-5.094 1.71-1.105 3.848-1.442 5.874-1.231a92.455 92.455 0 001.78-7.02c-1.491-.12-2.884-.254-4.22-.655zM35.821 49.63c-.823 1.815-2.16 3.383-3.763 4.565-.936.69-1.97 1.245-3.075 1.604-4.53 1.45-9.841-1.097-11.945-5.367-1.533-3.11-1.463-6.965.176-10.018 1.64-3.053 4.812-5.24 8.26-5.677 3.08-.394 6.985 1.273 9.208 4.27s2.673 7.225 1.14 10.623z" fill="#FFB217"/><path d="M38.586 44.685c-.05-.352-.12-.703-.204-1.048l-.12-.246a21.877 21.877 0 00-2.279-3.58.775.775 0 00-.302.421c-.092.598.38 1.154.527 1.724.528 1.575.88 2.335.71 3.77.022.55-.886 3.602-1.174 3.982a13.246 13.246 0 01-1.196 1.92c-.14.17-.183.24-.169.247-.225.176-.422.408-.647.59-.471.402-.943.803-1.421 1.204-.127.091-.33.26-.479.408.078-.113-.133.084-.323.246-.106.07-.577.394-.816.513-1.66.584-3.384.908-4.298.957-1.218.113-2.413-.197-3.349-.415-.668-.19-1.252-.851-1.97-.717a.836.836 0 00-.598.584c.07.077.141.147.211.218.247.197.486.4.732.597.886.577 1.78 1.161 2.673 1.731 1.477.43 3.06.514 4.946.155-.035 0-.07.007-.113.014 1.984-.422 2.603-.682 4.052-1.435 1.266-.753 2.287-1.85 3.074-3.096.022-.035.05-.07.07-.105 0-.007.008-.007.008-.007a13.255 13.255 0 002.117-3.862c.493-1.527.486-3.18.338-4.77zm4.833 16.222a1.295 1.295 0 00-.563.155c-.253.14-.415.373-.577.605-.147.19-.302.373-.436.577-.394.507-.506.725-1.379 1.611-.485.52-1.245.844-1.561 1.491-.007.014-.007.022-.014.036-.19.105-.373.218-.563.316-.352.218-.81.324-1.055.676-.767.907.422 2.244 1.428 1.625a14.57 14.57 0 002.92-2.012c.041-.043.084-.092.133-.134a22.419 22.419 0 001.976-1.766c.226-.239.493-.52.711-.823a15.7 15.7 0 01-.612-1.42 9.201 9.201 0 01-.408-.937zm6.831-15.94a80.67 80.67 0 01-1.344 4.565c-.225.697-.45 1.407-.675 2.11.267.331.724.521 1.146.387.021-.007.043-.02.064-.028.365.514 1.322.45 1.505-.267.092-.33.232-.661.345-.992a.964.964 0 00.21-.133c.437-.317.557-.915.718-1.4.24-.985.373-1.998.416-3.004 0-.057.007-.12.014-.183a66.914 66.914 0 01-2.4-1.055z" fill="#000" opacity=".129"/><path d="M26.219 73.204h-.042a60.634 60.634 0 01-7.303-1.006.534.534 0 01-.422-.605 8.37 8.37 0 00-.816-4.966c-.358-.718-.76-1.245-1.224-1.611-.373-.303-.844-.542-1.442-.732-2.132-.69-4.608-.31-6.62 1.006a.534.534 0 01-.738-.155 182.876 182.876 0 01-4.095-6.387.533.533 0 01.12-.697c1.224-.985 2.096-2.06 2.596-3.194.577-1.308.633-2.722.155-3.869-.521-1.245-1.597-2.068-2.413-2.546-.95-.542-2.005-.915-3.124-1.309l-.492-.176a.539.539 0 01-.359-.52c.077-2.61.317-4.98.718-7.05a.538.538 0 01.492-.428c1.745-.106 3.138-.458 4.256-1.07 1.33-.731 2.3-1.913 2.589-3.165.33-1.414-.14-2.927-.591-4.087-.232-.598-.485-1.168-1.07-1.57a.534.534 0 01-.049-.843c1.611-1.407 3.046-2.526 4.51-3.525a.528.528 0 01.69.078c.717.752 1.821 1.048 2.996 1.301.746.162 1.414.303 2.096.324 1.625.049 3.279-.591 4.545-1.76 1.21-1.118 2.033-2.68 2.392-4.515a.53.53 0 01.563-.43l6.085.45c.323.022.576.233.703.57a.74.74 0 01.028.12c.26 2.096.915 3.813 1.928 5.093 1.182 1.485 2.926 2.35 4.565 2.273 1.872-.092 3.588-1.365 5.255-2.603a.533.533 0 01.739.098c1.667 2.132 3.06 4.087 4.25 5.98a.54.54 0 01-.106.696c-1.084.915-2.484 2.427-3.033 4.481-.485 1.815-.133 3.743.915 5.037.725.894 1.836 1.583 3.229 2.005 1.28.387 2.617.52 4.108.64a.55.55 0 01.387.212.55.55 0 01.099.429 94.522 94.522 0 01-1.787 7.063.53.53 0 01-.57.38c-2.082-.212-4.045.19-5.53 1.146-1.645 1.062-2.687 2.877-2.644 4.629.042 1.78 1.076 3.39 2.173 5.093l.036.056a.539.539 0 01-.099.697c-2.075 1.773-4.27 3.37-6.331 4.826a.54.54 0 01-.732-.106c-.626-.802-1.337-1.716-2.237-2.328-1.752-1.196-4.34-1.147-6.148.105-1.76 1.217-2.807 3.525-2.667 5.881a.545.545 0 01-.161.415.488.488 0 01-.373.17zm-6.655-1.962c1.998.38 4.003.66 6.106.844.035-2.533 1.21-4.875 3.145-6.212 2.201-1.52 5.226-1.569 7.365-.105.88.597 1.562 1.392 2.16 2.152 1.8-1.28 3.686-2.659 5.48-4.172-1.055-1.653-2.082-3.362-2.132-5.318-.049-2.11 1.182-4.291 3.138-5.55 1.576-1.02 3.609-1.485 5.768-1.351a89.624 89.624 0 001.52-5.965c-1.28-.113-2.533-.268-3.721-.627-1.597-.485-2.892-1.301-3.75-2.356-1.26-1.555-1.688-3.848-1.119-5.987.458-1.71 1.499-3.334 3.018-4.713a72.022 72.022 0 00-3.623-5.093c-1.66 1.224-3.39 2.391-5.416 2.497-1.97.105-4.066-.929-5.46-2.68-1.104-1.393-1.814-3.208-2.124-5.396l-5.396-.401c-.443 1.864-1.343 3.461-2.617 4.636-1.47 1.358-3.404 2.103-5.304 2.04-.774-.021-1.526-.176-2.293-.345-1.14-.246-2.315-.556-3.208-1.294-1.168.809-2.322 1.716-3.588 2.793.486.506.739 1.09.95 1.625.5 1.301 1.027 3.018.633 4.713-.366 1.569-1.498 2.976-3.116 3.862-1.168.64-2.575 1.027-4.292 1.168-.323 1.808-.527 3.855-.612 6.085l.12.042c1.168.408 2.272.802 3.306 1.4.957.556 2.23 1.54 2.863 3.06.591 1.414.528 3.13-.161 4.707-.514 1.174-1.365 2.279-2.54 3.292 1.21 1.956 2.37 3.77 3.539 5.536 2.195-1.266 4.804-1.59 7.084-.85.717.231 1.301.527 1.78.914.583.464 1.083 1.111 1.512 1.97a9.382 9.382 0 01.985 5.079z" fill="#000"/><path d="M25.944 51.77c-1.8 0-3.63-1-4.65-2.61-1.076-1.696-1.245-4.003-.457-6.008.535-1.358 1.456-2.498 2.603-3.208 1.266-.788 2.772-1.034 4.122-.669 1.534.416 2.68 1.09 3.405 2.02.873 1.118 1.344 2.61 1.337 4.213-.007 1.09-.232 2.026-.683 2.786-.393.668-.942 1.175-1.428 1.59-1.224 1.041-2.321 1.618-3.447 1.815-.26.05-.527.07-.802.07zm.366-11.58c-.788 0-1.604.232-2.307.668-.95.591-1.717 1.548-2.167 2.695-.668 1.695-.528 3.63.366 5.044.942 1.49 2.743 2.342 4.368 2.054.929-.162 1.865-.662 2.934-1.576.415-.352.886-.788 1.196-1.316.352-.59.527-1.35.535-2.244.007-1.357-.387-2.624-1.112-3.545-.577-.739-1.534-1.295-2.835-1.646a3.454 3.454 0 00-.978-.134z" fill="#000"/><path d="M26.331 56.743c-3.932 0-7.949-2.364-9.771-6.071-1.611-3.271-1.54-7.295.183-10.51 1.723-3.208 5.044-5.495 8.66-5.959 3.384-.429 7.464 1.456 9.708 4.481 2.357 3.18 2.82 7.563 1.196 11.165-.837 1.85-2.195 3.496-3.94 4.776-1.04.76-2.124 1.33-3.229 1.682a9.067 9.067 0 01-2.807.436zm.078-21.527c-.296 0-.584.021-.873.056-3.278.423-6.289 2.49-7.85 5.403-1.562 2.913-1.633 6.564-.17 9.525 2.048 4.151 7.113 6.437 11.299 5.094.991-.317 1.976-.83 2.92-1.527 1.589-1.168 2.834-2.673 3.594-4.355 1.449-3.207 1.013-7.26-1.084-10.087-1.828-2.477-5.008-4.109-7.836-4.109z" fill="#000"/><path d="M48.547 44.425c-1.33-.401-2.61-1.097-3.489-2.18-1.224-1.506-1.52-3.638-1.02-5.516.5-1.879 1.717-3.504 3.2-4.756-1.308-2.082-2.729-4.038-4.22-5.937-1.808 1.336-3.539 2.603-5.544 2.701-1.934.099-3.805-.963-5.008-2.476-1.203-1.52-1.801-3.44-2.04-5.36-.07-.183-.17-.219-.24-.226-2.026-.147-4.059-.302-6.085-.45-.366 1.892-1.23 3.588-2.553 4.812-1.323 1.224-3.124 1.956-4.925 1.9-.738-.022-1.47-.177-2.195-.331-1.181-.26-2.434-.577-3.27-1.457-1.612 1.098-3.06 2.266-4.46 3.483.717.485 1.02 1.16 1.272 1.815.542 1.4.95 2.933.613 4.396-.352 1.513-1.492 2.765-2.857 3.51-1.364.746-2.933 1.042-4.48 1.133-.43 2.216-.641 4.587-.711 6.965 1.322.471 2.574.872 3.707 1.533 1.126.655 2.139 1.597 2.638 2.8.563 1.358.43 2.94-.162 4.285-.59 1.343-1.604 2.469-2.75 3.397a226.143 226.143 0 004.08 6.381c2.11-1.386 4.77-1.815 7.084-1.07.577.184 1.133.444 1.61.824.592.471 1.028 1.111 1.373 1.787a8.965 8.965 0 01.865 5.283c2.462.492 4.847.809 7.239.999-.14-2.49.928-4.988 2.898-6.353 1.97-1.364 4.777-1.456 6.76-.105.936.64 1.66 1.547 2.357 2.44 2.16-1.526 4.291-3.08 6.29-4.797-1.12-1.737-2.252-3.475-2.301-5.43-.05-2.04 1.182-3.982 2.891-5.094 1.71-1.105 3.848-1.442 5.874-1.231a92.455 92.455 0 001.78-7.02c-1.491-.12-2.884-.254-4.22-.655zM35.821 49.63c-.823 1.815-2.16 3.383-3.763 4.565-.936.69-1.97 1.245-3.075 1.604-4.53 1.45-9.841-1.097-11.945-5.367-1.533-3.11-1.463-6.965.176-10.018 1.64-3.053 4.812-5.24 8.26-5.677 3.08-.394 6.985 1.273 9.208 4.27s2.673 7.225 1.14 10.623z" fill="#FFB217"/><path d="M38.586 44.685c-.05-.352-.12-.703-.204-1.048l-.12-.246a21.877 21.877 0 00-2.279-3.58.775.775 0 00-.302.421c-.092.598.38 1.154.527 1.724.528 1.575.88 2.335.71 3.77.022.55-.886 3.602-1.174 3.982a13.246 13.246 0 01-1.196 1.92c-.14.17-.183.24-.169.247-.225.176-.422.408-.647.59-.471.402-.943.803-1.421 1.204-.127.091-.33.26-.479.408.078-.113-.133.084-.323.246-.106.07-.577.394-.816.513-1.66.584-3.384.908-4.298.957-1.218.113-2.413-.197-3.349-.415-.668-.19-1.252-.851-1.97-.717a.836.836 0 00-.598.584c.07.077.141.147.211.218.247.197.486.4.732.597.886.577 1.78 1.161 2.673 1.731 1.477.43 3.06.514 4.946.155-.035 0-.07.007-.113.014 1.984-.422 2.603-.682 4.052-1.435 1.266-.753 2.287-1.85 3.074-3.096.022-.035.05-.07.07-.105 0-.007.008-.007.008-.007a13.255 13.255 0 002.117-3.862c.493-1.527.486-3.18.338-4.77zm4.833 16.222a1.295 1.295 0 00-.563.155c-.253.14-.415.373-.577.605-.147.19-.302.373-.436.577-.394.507-.506.725-1.379 1.611-.485.52-1.245.844-1.561 1.491-.007.014-.007.022-.014.036-.19.105-.373.218-.563.316-.352.218-.81.324-1.055.676-.767.907.422 2.244 1.428 1.625a14.57 14.57 0 002.92-2.012c.041-.043.084-.092.133-.134a22.419 22.419 0 001.976-1.766c.226-.239.493-.52.711-.823a15.7 15.7 0 01-.612-1.42 9.201 9.201 0 01-.408-.937zm6.831-15.94a80.67 80.67 0 01-1.344 4.565c-.225.697-.45 1.407-.675 2.11.267.331.724.521 1.146.387.021-.007.043-.02.064-.028.365.514 1.322.45 1.505-.267.092-.33.232-.661.345-.992a.964.964 0 00.21-.133c.437-.317.557-.915.718-1.4.24-.985.373-1.998.416-3.004 0-.057.007-.12.014-.183a66.914 66.914 0 01-2.4-1.055z" fill="#000" opacity=".129"/><path d="M26.219 73.204h-.042a60.634 60.634 0 01-7.303-1.006.534.534 0 01-.422-.605 8.37 8.37 0 00-.816-4.966c-.358-.718-.76-1.245-1.224-1.611-.373-.303-.844-.542-1.442-.732-2.132-.69-4.608-.31-6.62 1.006a.534.534 0 01-.738-.155 182.876 182.876 0 01-4.095-6.387.533.533 0 01.12-.697c1.224-.985 2.096-2.06 2.596-3.194.577-1.308.633-2.722.155-3.869-.521-1.245-1.597-2.068-2.413-2.546-.95-.542-2.005-.915-3.124-1.309l-.492-.176a.539.539 0 01-.359-.52c.077-2.61.317-4.98.718-7.05a.538.538 0 01.492-.428c1.745-.106 3.138-.458 4.256-1.07 1.33-.731 2.3-1.913 2.589-3.165.33-1.414-.14-2.927-.591-4.087-.232-.598-.485-1.168-1.07-1.57a.534.534 0 01-.049-.843c1.611-1.407 3.046-2.526 4.51-3.525a.528.528 0 01.69.078c.717.752 1.821 1.048 2.996 1.301.746.162 1.414.303 2.096.324 1.625.049 3.279-.591 4.545-1.76 1.21-1.118 2.033-2.68 2.392-4.515a.53.53 0 01.563-.43l6.085.45c.323.022.576.233.703.57a.74.74 0 01.028.12c.26 2.096.915 3.813 1.928 5.093 1.182 1.485 2.926 2.35 4.565 2.273 1.872-.092 3.588-1.365 5.255-2.603a.533.533 0 01.739.098c1.667 2.132 3.06 4.087 4.25 5.98a.54.54 0 01-.106.696c-1.084.915-2.484 2.427-3.033 4.481-.485 1.815-.133 3.743.915 5.037.725.894 1.836 1.583 3.229 2.005 1.28.387 2.617.52 4.108.64a.55.55 0 01.387.212.55.55 0 01.099.429 94.522 94.522 0 01-1.787 7.063.53.53 0 01-.57.38c-2.082-.212-4.045.19-5.53 1.146-1.645 1.062-2.687 2.877-2.644 4.629.042 1.78 1.076 3.39 2.173 5.093l.036.056a.539.539 0 01-.099.697c-2.075 1.773-4.27 3.37-6.331 4.826a.54.54 0 01-.732-.106c-.626-.802-1.337-1.716-2.237-2.328-1.752-1.196-4.34-1.147-6.148.105-1.76 1.217-2.807 3.525-2.667 5.881a.545.545 0 01-.161.415.488.488 0 01-.373.17zm-6.655-1.962c1.998.38 4.003.66 6.106.844.035-2.533 1.21-4.875 3.145-6.212 2.201-1.52 5.226-1.569 7.365-.105.88.597 1.562 1.392 2.16 2.152 1.8-1.28 3.686-2.659 5.48-4.172-1.055-1.653-2.082-3.362-2.132-5.318-.049-2.11 1.182-4.291 3.138-5.55 1.576-1.02 3.609-1.485 5.768-1.351a89.624 89.624 0 001.52-5.965c-1.28-.113-2.533-.268-3.721-.627-1.597-.485-2.892-1.301-3.75-2.356-1.26-1.555-1.688-3.848-1.119-5.987.458-1.71 1.499-3.334 3.018-4.713a72.022 72.022 0 00-3.623-5.093c-1.66 1.224-3.39 2.391-5.416 2.497-1.97.105-4.066-.929-5.46-2.68-1.104-1.393-1.814-3.208-2.124-5.396l-5.396-.401c-.443 1.864-1.343 3.461-2.617 4.636-1.47 1.358-3.404 2.103-5.304 2.04-.774-.021-1.526-.176-2.293-.345-1.14-.246-2.315-.556-3.208-1.294-1.168.809-2.322 1.716-3.588 2.793.486.506.739 1.09.95 1.625.5 1.301 1.027 3.018.633 4.713-.366 1.569-1.498 2.976-3.116 3.862-1.168.64-2.575 1.027-4.292 1.168-.323 1.808-.527 3.855-.612 6.085l.12.042c1.168.408 2.272.802 3.306 1.4.957.556 2.23 1.54 2.863 3.06.591 1.414.528 3.13-.161 4.707-.514 1.174-1.365 2.279-2.54 3.292 1.21 1.956 2.37 3.77 3.539 5.536 2.195-1.266 4.804-1.59 7.084-.85.717.231 1.301.527 1.78.914.583.464 1.083 1.111 1.512 1.97a9.382 9.382 0 01.985 5.079z" fill="#000"/><path d="M25.944 51.77c-1.8 0-3.63-1-4.65-2.61-1.076-1.696-1.245-4.003-.457-6.008.535-1.358 1.456-2.498 2.603-3.208 1.266-.788 2.772-1.034 4.122-.669 1.534.416 2.68 1.09 3.405 2.02.873 1.118 1.344 2.61 1.337 4.213-.007 1.09-.232 2.026-.683 2.786-.393.668-.942 1.175-1.428 1.59-1.224 1.041-2.321 1.618-3.447 1.815-.26.05-.527.07-.802.07zm.366-11.58c-.788 0-1.604.232-2.307.668-.95.591-1.717 1.548-2.167 2.695-.668 1.695-.528 3.63.366 5.044.942 1.49 2.743 2.342 4.368 2.054.929-.162 1.865-.662 2.934-1.576.415-.352.886-.788 1.196-1.316.352-.59.527-1.35.535-2.244.007-1.357-.387-2.624-1.112-3.545-.577-.739-1.534-1.295-2.835-1.646a3.454 3.454 0 00-.978-.134z" fill="#000"/><path d="M26.331 56.743c-3.932 0-7.949-2.364-9.771-6.071-1.611-3.271-1.54-7.295.183-10.51 1.723-3.208 5.044-5.495 8.66-5.959 3.384-.429 7.464 1.456 9.708 4.481 2.357 3.18 2.82 7.563 1.196 11.165-.837 1.85-2.195 3.496-3.94 4.776-1.04.76-2.124 1.33-3.229 1.682a9.067 9.067 0 01-2.807.436zm.078-21.527c-.296 0-.584.021-.873.056-3.278.423-6.289 2.49-7.85 5.403-1.562 2.913-1.633 6.564-.17 9.525 2.048 4.151 7.113 6.437 11.299 5.094.991-.317 1.976-.83 2.92-1.527 1.589-1.168 2.834-2.673 3.594-4.355 1.449-3.207 1.013-7.26-1.084-10.087-1.828-2.477-5.008-4.109-7.836-4.109z" fill="#000"/><path d="M78.677 12.276l-1.174-3.862 2.476-3.483L73.887.724 71.53 4.558c-.042.07-.084.141-.155.183a.534.534 0 01-.316.057 393.326 393.326 0 01-4.073-.078c-.669-1.266-1.316-2.469-2.047-3.623-.057-.091-.127-.19-.233-.218-.105-.028-.21.035-.302.092-1.611.963-3.23 1.934-4.84 2.898-.042.028-.084.05-.113.092-.07.105-.007.239.05.344a17.703 17.703 0 002.16 2.997 40.16 40.16 0 01-2.336 3.778c-.204.288-.43.59-.767.69-.282.084-.584.006-.865-.071a48.122 48.122 0 01-3.37-1.084 11.07 11.07 0 00-.507 7.113c.092.175 4.306-.422 4.306-.422l2.511 4.34-2.019 3.3 4.622 3.355 2.399-3.49 4.235.085 1.632 3.686 6.31-2.173-1.526-3.778 2.272-3.665 4.284-.345.134-5.199-4.299-1.146zm-7.28 1.97c.042.182-.12.541-.19.71-.064.14-.127.281-.211.415a3.564 3.564 0 01-.584.675c-.45.415-.957.718-1.534.936-.232.084-.485.14-.725.183a2.399 2.399 0 01-.633.035c-.133-.014-.274-.056-.408-.056.38 0-.035.007-.183-.035-.647-.183-1.287-.71-1.604-1.302-.19-.352-.365-.753-.38-1.16-.013-.366.085-.746.226-1.084.204-.485.436-.97.738-1.4.338-.485.76-.992 1.302-1.26.549-.274 1.14-.316 1.667-.112.218-.098.471-.133.682-.056.394.148.732.338 1 .661.267.324.45.633.604 1.027.05.12.092.247.12.373.021.07.028.148.042.225.014.113.035.232.05.352 0-.028-.008-.05-.008-.077-.014-.099-.007-.106.007-.014.022.12.035.232.05.351.007.057.007.12.007.176.014.134 0 .296-.035.436z" fill="#fff"/><path d="M60.112 16.94c-.014 0-.035 0-.049-.007a.178.178 0 01-.12-.218A131.31 131.31 0 0164.18 4.53a.179.179 0 01.232-.098.18.18 0 01.098.232 131.88 131.88 0 00-4.22 12.15.188.188 0 01-.177.126zm1.858.668c-.014 0-.035 0-.05-.007a.178.178 0 01-.119-.218A67.89 67.89 0 0166.177 6.07c.042-.084.147-.127.239-.084a.17.17 0 01.077.239 67.757 67.757 0 00-4.354 11.248.172.172 0 01-.17.134zm-.697 7.436a.179.179 0 01-.169-.246l3.068-7.366a.179.179 0 01.232-.098c.091.035.133.14.098.232l-3.067 7.365a.173.173 0 01-.162.113zm4.024-1.576c-.021 0-.042-.007-.07-.014a.179.179 0 01-.099-.232l1.717-4.228a.179.179 0 01.232-.099.18.18 0 01.098.233l-1.709 4.228a.183.183 0 01-.169.112zm3.201-13.943c-.021 0-.035 0-.056-.007a.182.182 0 01-.12-.225l.816-2.596a.182.182 0 01.225-.12.182.182 0 01.12.226l-.816 2.595a.173.173 0 01-.169.127zm3.222.675c-.021 0-.042 0-.063-.014a.182.182 0 01-.106-.232 70.359 70.359 0 012.856-6.563.17.17 0 01.24-.078.17.17 0 01.077.24 69.62 69.62 0 00-2.842 6.528.159.159 0 01-.162.12zm-3.229 13.303c-.028 0-.05-.007-.077-.014a.177.177 0 01-.085-.239l7.788-16.433a.177.177 0 01.239-.085.177.177 0 01.084.24l-7.787 16.433a.171.171 0 01-.162.098zm3.117.669c-.029 0-.05-.007-.078-.014a.177.177 0 01-.084-.24l5.227-11.185a.177.177 0 01.239-.084.177.177 0 01.084.239L71.77 24.073a.193.193 0 01-.162.099zm5.571-5.6a.187.187 0 01-.085-.021.182.182 0 01-.07-.247l2.3-4.157a.182.182 0 01.247-.07c.084.049.12.154.07.246l-2.3 4.157c-.043.056-.099.092-.162.092zm-3.862 7.865a.141.141 0 01-.077-.021.17.17 0 01-.078-.24l1.041-2.075a.17.17 0 01.24-.077.17.17 0 01.077.24l-1.041 2.074a.172.172 0 01-.162.099zm-17.58-10.461a.142.142 0 01-.078-.021.177.177 0 01-.084-.24l1.407-2.89a.177.177 0 01.24-.085.177.177 0 01.084.24l-1.407 2.89a.18.18 0 01-.162.106zm5.937-10.904a.188.188 0 01-.084-.021.182.182 0 01-.07-.246l1.04-1.857a.182.182 0 01.247-.07.18.18 0 01.07.245l-1.04 1.858c-.043.056-.1.091-.163.091z" fill="#000"/><path d="M72.635 15.02c-.05-.648-1.049-.711-1.203-.085-.197.612-.12.506-.781 1.132-.633.507-.408.36-1.4.718-.922.274-.549.218-1.33.218-.105-.02-.21-.05-.316-.077-.38-.14-.26-.07-.985-.471-.303-.155-.57-.423-.915-.444-1.055-.19-1.569 1.33-.64 1.85 1.653 1.126 3.313 1.633 5.206.704.978-.528 1.681-1.428 2.04-2.47.148-.337.352-.703.323-1.076zm2.849 10.439c-.62.225-.837.373-2.005.577-.556.176-1.224.084-1.696.443-.992.697-.168 2.322.985 1.977 1.386-.289 2.976-.345 4.052-1.365.844-.95-.225-2.188-1.336-1.632zm8.301-8.793c0-.015.007-.022.007-.036-.007.014-.007.028-.007.036a1.264 1.264 0 00-.162-.662c-.479-.893-1.885-.746-2.216.176-.021.042-.042.091-.077.155-.092.183-.155.373-.226.563-.063.14-.147.337-.204.45-.12.204-.175.429-.183.668.015 1.52 2.174 1.808 2.59.352.21-.471.38-.957.442-1.463a1.51 1.51 0 00.036-.24z" fill="#000" opacity=".129"/><path d="M71.453 29.06a.543.543 0 01-.5-.337c-.464-1.146-.907-2.23-1.583-3.32-1.308.147-2.617.077-3.862-.043a99.306 99.306 0 00-1.09 1.998c-.218.408-.443.823-.676 1.253a.538.538 0 01-.66.246c-2.055-.795-3.849-2.082-5.178-3.722a.529.529 0 01-.015-.654 65.441 65.441 0 002.14-3.067c-.789-1.02-1.492-2.244-2.14-3.7-.28.056-.57.12-.858.176-.992.203-2.012.422-3.123.57a.535.535 0 01-.591-.388c-.633-2.293-.457-4.882.52-7.696a.54.54 0 01.634-.344c1.393.344 2.785.689 4.256 1.04.59-1.216 1.308-2.363 2.068-3.552-.675-.893-1.428-1.927-2.104-3.13a.537.537 0 01.113-.662c1.527-1.357 3.447-2.546 5.712-3.517a.539.539 0 01.676.225 35.535 35.535 0 011.843 3.7 18.48 18.48 0 014.228-.147c.64-1.203 1.308-2.441 2.145-3.736a.544.544 0 01.697-.19 25.31 25.31 0 014.657 3.053c.387.317.76.648 1.14.978.196.17.436.38.52.71a.509.509 0 01-.077.437c-.324.478-.662.95-1.006 1.428-.458.64-.922 1.301-1.414 2.026.415 1.006.83 2.04 1.217 3.074 1.203.113 2.736.352 4.375 1.013.19.078.324.26.338.464.127 2.118-.155 4.053-.872 5.91a.52.52 0 01-.52.345l-.472-.022c-1.055-.042-2.146-.084-3.314 0-.45 1.049-1.118 2.097-2.075 3.265.62 1.076 1.252 2.201 1.815 3.524a.546.546 0 01-.24.682c-2.18 1.161-4.424 1.872-6.668 2.104-.021 0-.042.007-.056.007zm-1.815-4.769a.56.56 0 01.45.24c.76 1.146 1.252 2.293 1.71 3.411 1.821-.239 3.65-.816 5.444-1.71-.541-1.195-1.153-2.25-1.744-3.27a.53.53 0 01.056-.612c1.111-1.309 1.829-2.442 2.258-3.567a.52.52 0 01.45-.338c1.351-.126 2.582-.077 3.771-.028h.084c.528-1.505.753-3.067.69-4.763-1.548-.576-2.99-.752-4.087-.844a.524.524 0 01-.458-.351c-.443-1.21-.942-2.434-1.428-3.616a.527.527 0 01.05-.5 73.678 73.678 0 011.59-2.293c.267-.373.527-.739.78-1.105a.355.355 0 01-.049-.042c-.373-.323-.739-.647-1.111-.957a24.737 24.737 0 00-4.031-2.7c-.767 1.223-1.393 2.405-2.005 3.559a.542.542 0 01-.528.288 17.625 17.625 0 00-4.713.169.53.53 0 01-.584-.324 34.94 34.94 0 00-1.71-3.545c-1.808.816-3.37 1.78-4.657 2.856.662 1.119 1.386 2.09 2.026 2.92a.54.54 0 01.028.619c-.9 1.4-1.744 2.722-2.384 4.129a.544.544 0 01-.612.302c-1.457-.344-2.835-.689-4.207-1.027-.71 2.237-.865 4.299-.457 6.135.893-.141 1.744-.317 2.574-.486.436-.091.866-.176 1.295-.26a.54.54 0 01.598.317c.717 1.695 1.498 3.053 2.392 4.15a.54.54 0 01.042.626c-.753 1.196-1.456 2.174-2.132 3.11a11.253 11.253 0 004.031 2.905c.155-.281.303-.556.443-.83.436-.81.844-1.569 1.28-2.329a.54.54 0 01.521-.267c1.386.14 2.863.246 4.291.035-.007-.007.014-.007.043-.007z" fill="#000"/><path d="M67.696 17.348a4.38 4.38 0 01-1.71-.352c-.47-.204-.816-.457-1.04-.78-.31-.437-.388-.958-.423-1.359-.105-1.392.233-2.666.964-3.58.894-1.119 2.378-1.611 3.609-1.196a.543.543 0 01.211.133c.007 0 .007 0 .014.008 1.302.429 2.265 1.709 2.35 3.109.077 1.35-.64 2.694-1.83 3.426a4.15 4.15 0 01-2.145.59zm.5-6.338c-.676 0-1.4.344-1.872.935-.563.704-.823 1.703-.731 2.828.02.26.063.591.225.816.112.162.31.296.598.422.935.408 2.033.345 2.87-.169.844-.52 1.372-1.505 1.315-2.448-.056-.957-.731-1.864-1.61-2.152l-.1-.029a.999.999 0 01-.358-.168 1.38 1.38 0 00-.338-.036zm-8.084 5.93c-.014 0-.035 0-.049-.007a.178.178 0 01-.12-.218A131.31 131.31 0 0164.18 4.53a.179.179 0 01.232-.098.18.18 0 01.098.232 131.88 131.88 0 00-4.22 12.15.188.188 0 01-.177.126zm1.858.668c-.014 0-.035 0-.05-.007a.178.178 0 01-.119-.218A67.89 67.89 0 0166.177 6.07c.042-.084.147-.127.239-.084a.17.17 0 01.077.239 67.757 67.757 0 00-4.354 11.248.172.172 0 01-.17.134zm-.697 7.436a.179.179 0 01-.169-.246l3.068-7.366a.179.179 0 01.232-.098c.091.035.133.14.098.232l-3.067 7.365a.173.173 0 01-.162.113zm4.024-1.576c-.021 0-.042-.007-.07-.014a.179.179 0 01-.099-.232l1.717-4.228a.179.179 0 01.232-.099.18.18 0 01.098.233l-1.709 4.228a.183.183 0 01-.169.112zm3.201-13.943c-.021 0-.035 0-.056-.007a.182.182 0 01-.12-.225l.816-2.596a.182.182 0 01.225-.12.182.182 0 01.12.226l-.816 2.595a.173.173 0 01-.169.127zm3.222.675c-.021 0-.042 0-.063-.014a.182.182 0 01-.106-.232 70.359 70.359 0 012.856-6.563.17.17 0 01.24-.078.17.17 0 01.077.24 69.62 69.62 0 00-2.842 6.528.159.159 0 01-.162.12zm-3.229 13.303c-.028 0-.05-.007-.077-.014a.177.177 0 01-.085-.239l7.788-16.433a.177.177 0 01.239-.085.177.177 0 01.084.24l-7.787 16.433a.171.171 0 01-.162.098zm3.117.669c-.029 0-.05-.007-.078-.014a.177.177 0 01-.084-.24l5.227-11.185a.177.177 0 01.239-.084.177.177 0 01.084.239L71.77 24.073a.193.193 0 01-.162.099zm5.571-5.6a.187.187 0 01-.085-.021.182.182 0 01-.07-.247l2.3-4.157a.182.182 0 01.247-.07c.084.049.12.154.07.246l-2.3 4.157c-.043.056-.099.092-.162.092zm-3.862 7.865a.141.141 0 01-.077-.021.17.17 0 01-.078-.24l1.041-2.075a.17.17 0 01.24-.077.17.17 0 01.077.24l-1.041 2.074a.172.172 0 01-.162.099zm-17.58-10.461a.142.142 0 01-.078-.021.177.177 0 01-.084-.24l1.407-2.89a.177.177 0 01.24-.085.177.177 0 01.084.24l-1.407 2.89a.18.18 0 01-.162.106zm5.937-10.904a.188.188 0 01-.084-.021.182.182 0 01-.07-.246l1.04-1.857a.182.182 0 01.247-.07.18.18 0 01.07.245l-1.04 1.858c-.043.056-.1.091-.163.091z" fill="#000"/><path d="M72.635 15.02c-.05-.648-1.049-.711-1.203-.085-.197.612-.12.506-.781 1.132-.633.507-.408.36-1.4.718-.922.274-.549.218-1.33.218-.105-.02-.21-.05-.316-.077-.38-.14-.26-.07-.985-.471-.303-.155-.57-.423-.915-.444-1.055-.19-1.569 1.33-.64 1.85 1.653 1.126 3.313 1.633 5.206.704.978-.528 1.681-1.428 2.04-2.47.148-.337.352-.703.323-1.076zm2.849 10.439c-.62.225-.837.373-2.005.577-.556.176-1.224.084-1.696.443-.992.697-.168 2.322.985 1.977 1.386-.289 2.976-.345 4.052-1.365.844-.95-.225-2.188-1.336-1.632zm8.301-8.793c0-.015.007-.022.007-.036-.007.014-.007.028-.007.036a1.264 1.264 0 00-.162-.662c-.479-.893-1.885-.746-2.216.176-.021.042-.042.091-.077.155-.092.183-.155.373-.226.563-.063.14-.147.337-.204.45-.12.204-.175.429-.183.668.015 1.52 2.174 1.808 2.59.352.21-.471.38-.957.442-1.463a1.51 1.51 0 00.036-.24z" fill="#000" opacity=".129"/><path d="M71.453 29.06a.543.543 0 01-.5-.337c-.464-1.146-.907-2.23-1.583-3.32-1.308.147-2.617.077-3.862-.043a99.306 99.306 0 00-1.09 1.998c-.218.408-.443.823-.676 1.253a.538.538 0 01-.66.246c-2.055-.795-3.849-2.082-5.178-3.722a.529.529 0 01-.015-.654 65.441 65.441 0 002.14-3.067c-.789-1.02-1.492-2.244-2.14-3.7-.28.056-.57.12-.858.176-.992.203-2.012.422-3.123.57a.535.535 0 01-.591-.388c-.633-2.293-.457-4.882.52-7.696a.54.54 0 01.634-.344c1.393.344 2.785.689 4.256 1.04.59-1.216 1.308-2.363 2.068-3.552-.675-.893-1.428-1.927-2.104-3.13a.537.537 0 01.113-.662c1.527-1.357 3.447-2.546 5.712-3.517a.539.539 0 01.676.225 35.535 35.535 0 011.843 3.7 18.48 18.48 0 014.228-.147c.64-1.203 1.308-2.441 2.145-3.736a.544.544 0 01.697-.19 25.31 25.31 0 014.657 3.053c.387.317.76.648 1.14.978.196.17.436.38.52.71a.509.509 0 01-.077.437c-.324.478-.662.95-1.006 1.428-.458.64-.922 1.301-1.414 2.026.415 1.006.83 2.04 1.217 3.074 1.203.113 2.736.352 4.375 1.013.19.078.324.26.338.464.127 2.118-.155 4.053-.872 5.91a.52.52 0 01-.52.345l-.472-.022c-1.055-.042-2.146-.084-3.314 0-.45 1.049-1.118 2.097-2.075 3.265.62 1.076 1.252 2.201 1.815 3.524a.546.546 0 01-.24.682c-2.18 1.161-4.424 1.872-6.668 2.104-.021 0-.042.007-.056.007zm-1.815-4.769a.56.56 0 01.45.24c.76 1.146 1.252 2.293 1.71 3.411 1.821-.239 3.65-.816 5.444-1.71-.541-1.195-1.153-2.25-1.744-3.27a.53.53 0 01.056-.612c1.111-1.309 1.829-2.442 2.258-3.567a.52.52 0 01.45-.338c1.351-.126 2.582-.077 3.771-.028h.084c.528-1.505.753-3.067.69-4.763-1.548-.576-2.99-.752-4.087-.844a.524.524 0 01-.458-.351c-.443-1.21-.942-2.434-1.428-3.616a.527.527 0 01.05-.5 73.678 73.678 0 011.59-2.293c.267-.373.527-.739.78-1.105a.355.355 0 01-.049-.042c-.373-.323-.739-.647-1.111-.957a24.737 24.737 0 00-4.031-2.7c-.767 1.223-1.393 2.405-2.005 3.559a.542.542 0 01-.528.288 17.625 17.625 0 00-4.713.169.53.53 0 01-.584-.324 34.94 34.94 0 00-1.71-3.545c-1.808.816-3.37 1.78-4.657 2.856.662 1.119 1.386 2.09 2.026 2.92a.54.54 0 01.028.619c-.9 1.4-1.744 2.722-2.384 4.129a.544.544 0 01-.612.302c-1.457-.344-2.835-.689-4.207-1.027-.71 2.237-.865 4.299-.457 6.135.893-.141 1.744-.317 2.574-.486.436-.091.866-.176 1.295-.26a.54.54 0 01.598.317c.717 1.695 1.498 3.053 2.392 4.15a.54.54 0 01.042.626c-.753 1.196-1.456 2.174-2.132 3.11a11.253 11.253 0 004.031 2.905c.155-.281.303-.556.443-.83.436-.81.844-1.569 1.28-2.329a.54.54 0 01.521-.267c1.386.14 2.863.246 4.291.035-.007-.007.014-.007.043-.007z" fill="#000"/><path d="M67.696 17.348a4.38 4.38 0 01-1.71-.352c-.47-.204-.816-.457-1.04-.78-.31-.437-.388-.958-.423-1.359-.105-1.392.233-2.666.964-3.58.894-1.119 2.378-1.611 3.609-1.196a.543.543 0 01.211.133c.007 0 .007 0 .014.008 1.302.429 2.265 1.709 2.35 3.109.077 1.35-.64 2.694-1.83 3.426a4.15 4.15 0 01-2.145.59zm.5-6.338c-.676 0-1.4.344-1.872.935-.563.704-.823 1.703-.731 2.828.02.26.063.591.225.816.112.162.31.296.598.422.935.408 2.033.345 2.87-.169.844-.52 1.372-1.505 1.315-2.448-.056-.957-.731-1.864-1.61-2.152l-.1-.029a.999.999 0 01-.358-.168 1.38 1.38 0 00-.338-.036z" fill="#000"/><path d="M105.959 66.972c-1.555-2.442-2.153-5.523-1.4-8.323.647-2.377 2.209-4.432 4.101-6.226a84.583 84.583 0 00-7.316-9.42c-.24-.26-.479-.527-.767-.73-.45-.324-1.034-.535-1.597-.93-2.413 2.625-6.008 4.102-9.617 4.039-4.685-.584-8.892-4.017-10.496-8.498a55.443 55.443 0 00-13.134 3.791c.859 1.428 1.084 3.159 1.056 4.826-.029 1.801-.338 3.63-1.119 5.248-.788 1.625-2.09 3.032-3.742 3.75-.957.415-2.005.584-3.04.675-1.8.169-3.622.12-5.402-.028 0 0-3.426 12.712-3.04 12.712a68.23 68.23 0 013.321.914c1.217.373 2.434.788 3.496 1.492 1.063.703 1.956 1.723 2.273 2.954.21.823.147 1.689.007 2.526a13.656 13.656 0 01-4.397 7.9s8.484 8.42 8.625 8.336c.963-1.428 2.56-2.272 4.087-3.06.647-.33 1.294-.668 1.984-.886 2.511-.802 5.388.02 7.316 1.815 1.927 1.794 2.948 4.439 3.095 7.112a202.97 202.97 0 009.019-.697c1.315-.126 2.673-.288 3.897-1.259a16.91 16.91 0 011.653-7.76c.563-1.167 1.267-2.278 2.259-3.116 1.477-1.238 3.475-1.737 5.395-1.632 1.921.106 3.778.781 5.635 1.506 1.97-3.722 3.961-7.513 4.601-11.812-2.737-.978-5.192-2.778-6.753-5.22zm-14.5.794c-.21 1.745-.998 3.356-2.089 4.714a10.126 10.126 0 01-1.892 1.787c-.69.513-1.569.999-2.406 1.21-.9.225-1.913.126-2.828.126-.964 0-1.948-.007-2.87-.337-.88-.31-1.632-.88-2.3-1.52-.655-.626-1.428-1.203-1.879-1.998-1.765-3.123-1.252-7.267.851-10.095 1.126-1.512 2.709-2.659 4.376-3.524 1.794-.936 3.904-1.267 5.86-.697.598.176.81.697.732 1.175 3.208 1.667 4.868 5.635 4.446 9.16z" fill="#fff"/><path d="M91.242 55.259c-2.737-1.801-6.282-2.49-8.949-2.21-4.622.5-8.04 2.85-10.468 6.817-2.427 3.968-2.806 9.139-.9 13.374 1.913 4.235 6.1 7.393 10.714 7.956 3.862.471 7.872-.844 10.806-3.405 2.926-2.56 4.129-6.296 4.509-10.165.19-1.942-.591-9.005-5.712-12.367zm-5.234 20.337c-3.7 1.252-8.126-.162-10.447-3.306-.69-.929-1.203-1.998-1.393-3.138-.19-1.14-.05-2.314.232-3.44.676-2.736 2.237-5.318 4.587-6.873 2.357-1.554 5.536-1.941 8.04-.647 3.11 1.604 5.038 5.016 5.178 8.4.17 3.911-2.497 7.752-6.197 9.004z" fill="#88E0EF"/><path d="M97.854 66.17c-.154-.465-.31-.93-.471-1.386-.302-.866-.654-1.71-.929-2.582a.637.637 0 00-.161.021c-.95.422-.437 1.111-.409 1.977.099.851.289 1.688.401 2.532.106.852.134 1.717.07 2.575a.28.28 0 00-.02.07c-.127.479-.345.922-.472 1.4-.576 1.977-.802 2.582-1.913 4.144-.07.084-.176.225-.246.33-.085.148-.408.591-.507.732-.028.035-.049.063-.063.078-.05.063-.099.12-.148.182-.14.204-.844.908-.844.936-.964.739-.872.725-1.927 1.491-.781.521-1.618.964-2.463 1.365-1.048.443-2.342 1.027-3.94 1.119-1.251.02-2.504 0-3.749-.141-1.927-.373-2.377-.696-4.03-1.618-.5-.281-.979-.893-1.598-.78-.007 0-.014.006-.028.013.443.486.894.964 1.35 1.435a85.09 85.09 0 001.78 1.78c1.921.746 3.982 1.168 6.044 1.084 1.16-.05 2.335-.099 3.468-.402 1.998-.527 3.855-1.526 5.459-2.828 1.168-1.069 2.455-2.04 3.419-3.306 1.379-2.272 2.026-4.931 2.047-6.915.091-.732.035-2.012-.12-3.306zm15.301 6.282c-.148-.605-1.034-.725-1.336-.176-1.323 2.307-2.646 4.622-4.038 6.894-.577.915-1.323 1.738-1.738 2.743-.134.254-.317.5-.331.796-.176.858.88 1.54 1.611 1.076.282-.148.408-.43.549-.69.12-.12.239-.246.331-.386 1.35-1.97 2.019-4.32 3.165-6.41.57-1.09 1.147-2.187 1.71-3.278a.742.742 0 00.077-.57zM91.621 92.845c-.527-.161-1.027.134-1.54.233-3.405.942-5.692.991-9.596.865-1.766.042-1.766 2.63 0 2.68 2.969.084 5.98.12 8.871-.619.683-.162 1.365-.31 2.04-.5.408-.105.816-.302 1.027-.689.444-.731.021-1.752-.802-1.97z" fill="#000" opacity=".129"/><path d="M80.014 97.299a.534.534 0 01-.535-.507 10.108 10.108 0 00-3.151-6.74c-.774-.724-2.005-1.617-3.468-1.758-1.267-.12-2.54.317-3.743.774-1.878.725-3.785 1.639-4.967 3.454a.518.518 0 01-.358.232.52.52 0 01-.415-.105c-3.665-2.8-6.543-5.579-8.773-8.484a.532.532 0 01.085-.739c2.216-1.836 3.784-4.51 4.298-7.344.204-1.112.19-1.97-.05-2.709-.414-1.294-1.561-2.378-3.503-3.313a20.359 20.359 0 00-5.698-1.752.525.525 0 01-.352-.218.514.514 0 01-.091-.4c.725-4.32 1.949-8.682 3.644-12.96a.541.541 0 01.675-.309c2.294.816 8.027.894 10.356-1.885 3.869-4.608 2.033-9.884 1.379-11.396a.537.537 0 01.26-.697c2.202-1.055 5.888-2.131 9.785-3.271 1.203-.352 2.434-.71 3.658-1.076a.537.537 0 01.528.126c.14.134.197.338.14.528-.225.816 1.9 4.875 5.227 6.584 7.626 3.905 12.466-.977 13.768-2.567a.533.533 0 01.387-.197.521.521 0 01.408.162c3.735 3.784 6.908 7.541 9.687 11.487a.54.54 0 01-.127.746c-3.229 2.322-4.896 6.662-4.059 10.552.837 3.855 4.129 7.155 8.195 8.21a.537.537 0 01.38.668c-1.294 4.369-3.151 8.632-5.367 12.332a.54.54 0 01-.676.218c-2.919-1.259-5.754-2.321-8.371-1.42-1.878.647-3.51 2.398-4.376 4.692-.668 1.773-.88 3.693-1.104 5.733-.05.43-.099.865-.148 1.308a.53.53 0 01-.422.458c-4.552.935-8.836 1.442-13.099 1.555 0 .028 0 .028-.007.028zm-7.59-10.088c.175 0 .358.007.534.028 1.4.133 2.814.844 4.101 2.04a11.158 11.158 0 013.448 6.936c3.918-.133 7.857-.605 12.029-1.442l.106-.914c.232-2.104.457-4.095 1.167-5.994.992-2.631 2.821-4.573 5.03-5.332 2.828-.971 5.839.049 8.709 1.266 1.977-3.384 3.651-7.225 4.868-11.172-4.199-1.294-7.555-4.797-8.434-8.863-.894-4.123.767-8.695 4.052-11.326-2.575-3.602-5.487-7.05-8.871-10.518-1.66 1.801-6.922 6.374-14.689 2.392-3.004-1.54-5.403-5.008-5.768-6.964-1.006.302-2.012.59-3.004.88-3.595 1.047-7 2.04-9.167 2.996.802 2.104 2.174 7.359-1.744 12.023-2.519 3.004-8.21 3.13-11.038 2.356-1.505 3.883-2.624 7.837-3.313 11.748a21.41 21.41 0 015.466 1.752c2.223 1.076 3.552 2.37 4.059 3.954.288.907.316 1.934.077 3.222-.527 2.905-2.075 5.663-4.277 7.64 2.04 2.567 4.608 5.043 7.823 7.548 1.35-1.759 3.264-2.674 5.15-3.398 1.104-.422 2.377-.858 3.686-.858z" fill="#000"/><path d="M82.737 76.595c-3.089 0-6.184-1.456-8.048-3.981-.788-1.063-1.302-2.23-1.492-3.37-.183-1.084-.105-2.28.24-3.651.752-3.053 2.511-5.67 4.811-7.19 2.638-1.737 6.008-2.005 8.583-.675 3.166 1.632 5.311 5.107 5.473 8.85.176 4.108-2.645 8.202-6.564 9.532a9.555 9.555 0 01-3.003.485zm.506-18.642c-1.505 0-3.06.457-4.404 1.344-2.082 1.371-3.672 3.763-4.361 6.556-.303 1.231-.38 2.286-.218 3.222.161.978.612 1.984 1.294 2.905 2.174 2.94 6.409 4.277 9.849 3.117 3.482-1.182 5.986-4.82 5.832-8.47-.141-3.363-2.061-6.486-4.89-7.942a6.716 6.716 0 00-3.102-.732z" fill="#000"/><path d="M82.75 81.836a13.71 13.71 0 01-1.61-.098c-4.763-.584-9.132-3.827-11.136-8.266-1.977-4.383-1.625-9.701.928-13.873 2.56-4.193 6.219-6.57 10.869-7.07 3.039-.324 6.69.577 9.3 2.293 5.565 3.658 6.113 11.2 5.951 12.874-.464 4.728-1.997 8.168-4.685 10.517-2.673 2.322-6.17 3.623-9.616 3.623zm-.844-28.245c-4.361.472-7.653 2.617-10.066 6.564-2.371 3.876-2.702 8.807-.866 12.873 1.85 4.109 5.888 7.106 10.292 7.647 3.644.444 7.528-.78 10.39-3.278 2.477-2.16 3.891-5.375 4.327-9.814.204-2.075-.717-8.75-5.473-11.874-2.42-1.59-5.797-2.42-8.604-2.118z" fill="#000"/><path d="M91.242 55.259c-2.737-1.801-6.282-2.49-8.949-2.21-4.622.5-8.04 2.85-10.468 6.817-2.427 3.968-2.806 9.139-.9 13.374 1.913 4.235 6.1 7.393 10.714 7.956 3.862.471 7.872-.844 10.806-3.405 2.926-2.56 4.129-6.296 4.509-10.165.19-1.942-.591-9.005-5.712-12.367zm-5.234 20.337c-3.7 1.252-8.126-.162-10.447-3.306-.69-.929-1.203-1.998-1.393-3.138-.19-1.14-.05-2.314.232-3.44.676-2.736 2.237-5.318 4.587-6.873 2.357-1.554 5.536-1.941 8.04-.647 3.11 1.604 5.038 5.016 5.178 8.4.17 3.911-2.497 7.752-6.197 9.004z" fill="#88E0EF"/><path d="M97.854 66.17c-.154-.465-.31-.93-.471-1.386-.302-.866-.654-1.71-.929-2.582a.637.637 0 00-.161.021c-.95.422-.437 1.111-.409 1.977.099.851.289 1.688.401 2.532.106.852.134 1.717.07 2.575a.28.28 0 00-.02.07c-.127.479-.345.922-.472 1.4-.576 1.977-.802 2.582-1.913 4.144-.07.084-.176.225-.246.33-.085.148-.408.591-.507.732-.028.035-.049.063-.063.078-.05.063-.099.12-.148.182-.14.204-.844.908-.844.936-.964.739-.872.725-1.927 1.491-.781.521-1.618.964-2.463 1.365-1.048.443-2.342 1.027-3.94 1.119-1.251.02-2.504 0-3.749-.141-1.927-.373-2.377-.696-4.03-1.618-.5-.281-.979-.893-1.598-.78-.007 0-.014.006-.028.013.443.486.894.964 1.35 1.435a85.09 85.09 0 001.78 1.78c1.921.746 3.982 1.168 6.044 1.084 1.16-.05 2.335-.099 3.468-.402 1.998-.527 3.855-1.526 5.459-2.828 1.168-1.069 2.455-2.04 3.419-3.306 1.379-2.272 2.026-4.931 2.047-6.915.091-.732.035-2.012-.12-3.306zm15.301 6.282c-.148-.605-1.034-.725-1.336-.176-1.323 2.307-2.646 4.622-4.038 6.894-.577.915-1.323 1.738-1.738 2.743-.134.254-.317.5-.331.796-.176.858.88 1.54 1.611 1.076.282-.148.408-.43.549-.69.12-.12.239-.246.331-.386 1.35-1.97 2.019-4.32 3.165-6.41.57-1.09 1.147-2.187 1.71-3.278a.742.742 0 00.077-.57zM91.621 92.845c-.527-.161-1.027.134-1.54.233-3.405.942-5.692.991-9.596.865-1.766.042-1.766 2.63 0 2.68 2.969.084 5.98.12 8.871-.619.683-.162 1.365-.31 2.04-.5.408-.105.816-.302 1.027-.689.444-.731.021-1.752-.802-1.97z" fill="#000" opacity=".129"/><path d="M80.014 97.299a.534.534 0 01-.535-.507 10.108 10.108 0 00-3.151-6.74c-.774-.724-2.005-1.617-3.468-1.758-1.267-.12-2.54.317-3.743.774-1.878.725-3.785 1.639-4.967 3.454a.518.518 0 01-.358.232.52.52 0 01-.415-.105c-3.665-2.8-6.543-5.579-8.773-8.484a.532.532 0 01.085-.739c2.216-1.836 3.784-4.51 4.298-7.344.204-1.112.19-1.97-.05-2.709-.414-1.294-1.561-2.378-3.503-3.313a20.359 20.359 0 00-5.698-1.752.525.525 0 01-.352-.218.514.514 0 01-.091-.4c.725-4.32 1.949-8.682 3.644-12.96a.541.541 0 01.675-.309c2.294.816 8.027.894 10.356-1.885 3.869-4.608 2.033-9.884 1.379-11.396a.537.537 0 01.26-.697c2.202-1.055 5.888-2.131 9.785-3.271 1.203-.352 2.434-.71 3.658-1.076a.537.537 0 01.528.126c.14.134.197.338.14.528-.225.816 1.9 4.875 5.227 6.584 7.626 3.905 12.466-.977 13.768-2.567a.533.533 0 01.387-.197.521.521 0 01.408.162c3.735 3.784 6.908 7.541 9.687 11.487a.54.54 0 01-.127.746c-3.229 2.322-4.896 6.662-4.059 10.552.837 3.855 4.129 7.155 8.195 8.21a.537.537 0 01.38.668c-1.294 4.369-3.151 8.632-5.367 12.332a.54.54 0 01-.676.218c-2.919-1.259-5.754-2.321-8.371-1.42-1.878.647-3.51 2.398-4.376 4.692-.668 1.773-.88 3.693-1.104 5.733-.05.43-.099.865-.148 1.308a.53.53 0 01-.422.458c-4.552.935-8.836 1.442-13.099 1.555 0 .028 0 .028-.007.028zm-7.59-10.088c.175 0 .358.007.534.028 1.4.133 2.814.844 4.101 2.04a11.158 11.158 0 013.448 6.936c3.918-.133 7.857-.605 12.029-1.442l.106-.914c.232-2.104.457-4.095 1.167-5.994.992-2.631 2.821-4.573 5.03-5.332 2.828-.971 5.839.049 8.709 1.266 1.977-3.384 3.651-7.225 4.868-11.172-4.199-1.294-7.555-4.797-8.434-8.863-.894-4.123.767-8.695 4.052-11.326-2.575-3.602-5.487-7.05-8.871-10.518-1.66 1.801-6.922 6.374-14.689 2.392-3.004-1.54-5.403-5.008-5.768-6.964-1.006.302-2.012.59-3.004.88-3.595 1.047-7 2.04-9.167 2.996.802 2.104 2.174 7.359-1.744 12.023-2.519 3.004-8.21 3.13-11.038 2.356-1.505 3.883-2.624 7.837-3.313 11.748a21.41 21.41 0 015.466 1.752c2.223 1.076 3.552 2.37 4.059 3.954.288.907.316 1.934.077 3.222-.527 2.905-2.075 5.663-4.277 7.64 2.04 2.567 4.608 5.043 7.823 7.548 1.35-1.759 3.264-2.674 5.15-3.398 1.104-.422 2.377-.858 3.686-.858z" fill="#000"/><path d="M82.737 76.595c-3.089 0-6.184-1.456-8.048-3.981-.788-1.063-1.302-2.23-1.492-3.37-.183-1.084-.105-2.28.24-3.651.752-3.053 2.511-5.67 4.811-7.19 2.638-1.737 6.008-2.005 8.583-.675 3.166 1.632 5.311 5.107 5.473 8.85.176 4.108-2.645 8.202-6.564 9.532a9.555 9.555 0 01-3.003.485zm.506-18.642c-1.505 0-3.06.457-4.404 1.344-2.082 1.371-3.672 3.763-4.361 6.556-.303 1.231-.38 2.286-.218 3.222.161.978.612 1.984 1.294 2.905 2.174 2.94 6.409 4.277 9.849 3.117 3.482-1.182 5.986-4.82 5.832-8.47-.141-3.363-2.061-6.486-4.89-7.942a6.716 6.716 0 00-3.102-.732z" fill="#000"/><path d="M82.75 81.836a13.71 13.71 0 01-1.61-.098c-4.763-.584-9.132-3.827-11.136-8.266-1.977-4.383-1.625-9.701.928-13.873 2.56-4.193 6.219-6.57 10.869-7.07 3.039-.324 6.69.577 9.3 2.293 5.565 3.658 6.113 11.2 5.951 12.874-.464 4.728-1.997 8.168-4.685 10.517-2.673 2.322-6.17 3.623-9.616 3.623zm-.844-28.245c-4.361.472-7.653 2.617-10.066 6.564-2.371 3.876-2.702 8.807-.866 12.873 1.85 4.109 5.888 7.106 10.292 7.647 3.644.444 7.528-.78 10.39-3.278 2.477-2.16 3.891-5.375 4.327-9.814.204-2.075-.717-8.75-5.473-11.874-2.42-1.59-5.797-2.42-8.604-2.118zm27.499-22.835h-.056a.538.538 0 01-.478-.59 26.405 26.405 0 00-2.301-13.824.535.535 0 01.971-.45 27.485 27.485 0 012.392 14.386.523.523 0 01-.528.478zM34.773 100c-.035 0-.07 0-.106-.007-5.43-1.07-10.545-3.848-14.407-7.816a.535.535 0 01.014-.76.535.535 0 01.76.015c3.707 3.813 8.625 6.486 13.845 7.513a.535.535 0 01.422.626.535.535 0 01-.528.429z" fill="#000"/></svg>