<svg width="75" height="63" fill="none" xmlns="http://www.w3.org/2000/svg"><path d="M35.386 52.45L0 37.32v3.819L31.905 59.75l3.48-7.3z" fill="url(#paint0_linear_4957_6002)"/><path d="M63.81 40.945v-3.673L31.903 54.964v4.786l31.905-18.805z" fill="url(#paint1_linear_4957_6002)"/><circle cx="52.302" cy="40.415" r="22.585" fill="#0082F8" fill-opacity=".15"/><path d="M0 37.32l31.905 18.563 31.906-18.611-31.809-18.563L0 37.319z" fill="url(#paint2_linear_4957_6002)"/><path opacity=".3" fill-rule="evenodd" clip-rule="evenodd" d="M20.448 47.616l6.14 1.499 3.19-2.562c.628 0 1.305 0 2.03-.048l2.852 2.61 6.333-1.402-.918-2.997c.58-.29 1.111-.58 1.643-.919l5.318.726 2.9-3.433-4.447-1.643c.097-.387.097-.822.048-1.257l4.69-1.596-2.37-3.48-5.414.58a9.741 9.741 0 00-1.547-.87l1.402-2.997-6.139-1.499-3.336 2.756c-.725-.049-1.45 0-2.175 0l-2.755-2.707-6.43 1.45 1.16 3.045c-.531.242-1.063.532-1.595.87l-5.366-.725-2.852 3.432 4.64 1.692c-.096.387-.096.822-.047 1.257l-4.69 1.596 2.37 3.529 5.317-.677c.483.338.966.628 1.498.918l-1.45 2.852z" fill="#fff"/><path fill-rule="evenodd" clip-rule="evenodd" d="M20.836 40.462l6.091 1.498 3.19-2.61c.63 0 1.306 0 2.031-.048L35 41.912l6.333-1.402s.048-2.369.097-4.012l5.946.822 2.852-3.481.048-4.35.145-.05.145-7.589-8.025.774v-7.541l-6.187 5.994-7.783.048-6.72-6.09-.048 7.54-8.653-.821V33.79l2.224 3.384 5.462-.677v3.964z" fill="url(#paint3_linear_4957_6002)"/><path fill-rule="evenodd" clip-rule="evenodd" d="M21.03 32.872l6.09 1.499 3.191-2.61c.628 0 1.305 0 2.03-.049l2.804 2.61 6.285-1.402-.967-2.948c.58-.29 1.112-.58 1.643-.919l5.318.725 2.852-3.432-4.399-1.692c.097-.387.097-.822.048-1.257l4.641-1.595-2.369-3.48-5.414.628a9.743 9.743 0 00-1.547-.87l1.402-2.997-6.042-1.547-3.336 2.755c-.725-.048-1.45 0-2.175 0l-2.756-2.707-6.381 1.402 1.16 3.045c-.532.242-1.063.532-1.595.87l-5.511-.58-2.852 3.433 4.834 1.547c-.097.386-.097.821-.048 1.257l-4.641 1.595 2.369 3.529 5.317-.677c.484.338.967.628 1.499.918l-1.45 2.95z" fill="url(#paint4_linear_4957_6002)"/><path fill-rule="evenodd" clip-rule="evenodd" d="M20.836 27.023l6.14 1.499 3.19-2.61c.628 0 1.305 0 2.03-.049l2.852 2.61 6.333-1.401s.049-2.37.097-4.013l5.946.822 2.755-3.335v-4.593l.532-.097V8.364l-8.17.773V1.451l-6.139 6.09-7.928.049-6.671-6.043v7.445l-8.653-.919v12.23l2.272 3.433 5.414-.677v3.964z" fill="url(#paint5_linear_4957_6002)"/><path fill-rule="evenodd" clip-rule="evenodd" d="M21.03 19.433l6.09 1.499 3.191-2.61c.628 0 1.305 0 2.03-.049l2.804 2.61 6.285-1.401-.919-2.998c.58-.29 1.112-.58 1.644-.918l5.317.725 2.852-3.432-4.399-1.644c.097-.386.097-.822.049-1.257l4.737-1.643-2.465-3.48-5.366.58c-.58-.34-1.16-.678-1.789-.968l1.45-3.093L36.645 0 33.26 2.852a16.333 16.333 0 00-2.175 0l-2.9-2.755-6.382 1.45 1.305 3.045c-.532.29-1.063.532-1.595.87l-5.511-.773-2.852 3.432 4.834 1.789a3.326 3.326 0 00-.097 1.208l-4.64 1.596 2.368 3.529 5.318-.677a15.6 15.6 0 001.498.918l-1.402 2.95z" fill="url(#paint6_linear_4957_6002)"/><path opacity=".6" fill-rule="evenodd" clip-rule="evenodd" d="M27.845 8.17a8.604 8.604 0 017.832 0c2.175 1.305 2.175 3.335 0 4.64a8.32 8.32 0 01-7.832 0c-2.175-1.256-2.175-3.335 0-4.64z" fill="#818696"/><path fill-rule="evenodd" clip-rule="evenodd" d="M29.004 8.895c1.692-.87 3.723-.87 5.463 0 1.498.87 1.498 2.32 0 3.239-1.692.87-3.722.87-5.463 0-1.498-.919-1.498-2.37 0-3.24z" fill="url(#paint7_linear_4957_6002)"/><path fill-rule="evenodd" clip-rule="evenodd" d="M47.13 19.192c-1.498 2.852-3.48 5.994-8.797 7.59.725 8.314 3.238 11.601 5.365 12.81l2.61 1.547.533-.774 11.747-22.334s-1.596-.918-2.66-1.595c-5.268 4.64-7.25 3.819-8.797 2.756z" fill="url(#paint8_linear_4957_6002)"/><path fill-rule="evenodd" clip-rule="evenodd" d="M47.13 19.192c-1.498 2.852-3.48 5.994-8.797 7.59 2.368 1.353 2.658 1.546 2.658 1.546l7.541.145 10.104-10.442s-1.595-.918-2.659-1.595c-5.317 4.64-7.3 3.819-8.846 2.756z" fill="url(#paint9_linear_4957_6002)"/><path fill-rule="evenodd" clip-rule="evenodd" d="M49.791 20.738c-1.498 2.852-3.48 5.995-8.798 7.59 1.305 15.082 8.557 13.536 8.557 13.536s8.314-7.928 9.088-23.93c-5.27 4.69-7.3 3.868-8.847 2.804z" fill="url(#paint10_linear_4957_6002)"/><path d="M47.568 32.099l1.934 1.595 2.755-5.656" stroke="url(#paint11_linear_4957_6002)" stroke-width="1.71" stroke-linecap="round" stroke-linejoin="round"/><defs><linearGradient id="paint0_linear_4957_6002" x1="35.386" y1="54.998" x2="-1.525" y2="45.462" gradientUnits="userSpaceOnUse"><stop stop-color="#001DAC"/><stop offset="1" stop-color="#000F57"/></linearGradient><linearGradient id="paint1_linear_4957_6002" x1="63.809" y1="54.988" x2="30.127" y2="47.159" gradientUnits="userSpaceOnUse"><stop stop-color="#001DAC"/><stop offset="1" stop-color="#000F57"/></linearGradient><linearGradient id="paint2_linear_4957_6002" x1="0" y1="21.429" x2="66.436" y2="32.316" gradientUnits="userSpaceOnUse"><stop stop-color="#0082F8"/><stop offset="1" stop-color="#1C40F2"/></linearGradient><linearGradient id="paint3_linear_4957_6002" x1="50.265" y1="28.67" x2="1.012" y2="28.198" gradientUnits="userSpaceOnUse"><stop offset=".36" stop-color="#E7E9E9"/><stop offset=".53" stop-color="#B1B4C3"/><stop offset=".67" stop-color="#8F92AA"/><stop offset=".74" stop-color="#8285A1"/></linearGradient><linearGradient id="paint4_linear_4957_6002" x1="52.561" y1="24.471" x2="15.028" y2="23.532" gradientUnits="userSpaceOnUse"><stop offset=".02" stop-color="#CDD3DB"/><stop offset=".92" stop-color="#ACB0C2"/></linearGradient><linearGradient id="paint5_linear_4957_6002" x1="50.478" y1="15.136" x2=".945" y2="14.664" gradientUnits="userSpaceOnUse"><stop offset=".36" stop-color="#E7E9E9"/><stop offset=".53" stop-color="#B1B4C3"/><stop offset=".67" stop-color="#8F92AA"/><stop offset=".74" stop-color="#8285A1"/></linearGradient><linearGradient id="paint6_linear_4957_6002" x1="36.289" y1="10.576" x2="-1.322" y2="9.637" gradientUnits="userSpaceOnUse"><stop offset=".02" stop-color="#CDD3DB"/><stop offset=".92" stop-color="#ACB0C2"/></linearGradient><linearGradient id="paint7_linear_4957_6002" x1="27.88" y1="8.575" x2="35.913" y2="9.876" gradientUnits="userSpaceOnUse"><stop stop-color="#0082F8"/><stop offset="1" stop-color="#1C40F2"/></linearGradient><linearGradient id="paint8_linear_4957_6002" x1="48.496" y1="19.613" x2="48.113" y2="49.287" gradientUnits="userSpaceOnUse"><stop stop-color="#989AAD"/><stop offset="1" stop-color="#98A0B7"/></linearGradient><linearGradient id="paint9_linear_4957_6002" x1="54.831" y1="21.473" x2="35.616" y2="27.95" gradientUnits="userSpaceOnUse"><stop offset=".08" stop-color="#CDD3DB"/><stop offset="1" stop-color="#ACB0C2"/></linearGradient><linearGradient id="paint10_linear_4957_6002" x1="65.911" y1="24.161" x2="25.03" y2="42.133" gradientUnits="userSpaceOnUse"><stop offset=".25" stop-color="#E7E9E9"/><stop offset="1" stop-color="#98AACD"/></linearGradient><linearGradient id="paint11_linear_4957_6002" x1="47.568" y1="28.452" x2="52.55" y2="28.846" gradientUnits="userSpaceOnUse"><stop stop-color="#0082F8"/><stop offset="1" stop-color="#1C40F2"/></linearGradient></defs></svg>