<svg width="117" height="89" fill="none" xmlns="http://www.w3.org/2000/svg"><path d="M112.048 51.97l-49.074-34.1a6.562 6.562 0 00-.449-.285c-1.165-.672-2.686-1.087-4.346-1.178-1.883-.103-3.718.23-5.165.927L5.296 40.36c-2.993 1.441-3.393 4.029-.891 5.77l49.078 34.096c.142.099.292.194.449.286 1.168.673 2.69 1.088 4.346 1.178 1.88.099 3.714-.23 5.165-.928l14.6-7.047 3.877-1.871 3.759-1.812h.002l3.514-1.696 3.797-1.832 18.165-8.765c2.994-1.444 3.393-4.031.891-5.768zm-1.091 5.625L92.766 66.37l-3.793 1.83-3.516 1.696-3.758 1.814-18.46 8.905c-1.383.668-3.133.98-4.931.885-1.584-.084-3.034-.48-4.15-1.126a5.487 5.487 0 01-.427-.269L4.653 46.01c-2.387-1.66-2.004-4.13.85-5.506L53.222 17.48c1.382-.668 3.131-.98 4.93-.884 1.583.084 3.034.48 4.148 1.121.15.086.291.18.43.273l49.076 34.098c2.386 1.66 2.006 4.13-.848 5.507z" fill="#BEBEBE"/><path d="M104.23 36.083c-.004.1-.015.197-.034.294l-.006.028c-.02.1-.048.202-.088.303v.002a2.18 2.18 0 01-.158.334c-.019.034-.042.068-.062.101l-.043.07a1.203 1.203 0 01-.081.108l-.042.058c-.047.06-.1.12-.154.178-.017.016-.033.035-.05.052a4.816 4.816 0 01-.172.168 3.736 3.736 0 01-.297.245l-.04.028c-.112.082-.23.16-.357.238l-.022.013a5.493 5.493 0 01-.441.237L62.685 57.598c-.14.067-.286.131-.434.189-.05.02-.1.035-.151.054a5.38 5.38 0 01-.301.107c-.167.052-.335.1-.505.144-.035.01-.073.015-.108.024a7.692 7.692 0 01-.414.088l-.12.019a8.859 8.859 0 01-.549.076c-.062.008-.125.013-.187.019-.134.011-.269.02-.403.026a5.692 5.692 0 01-.6.011h-.135a12.044 12.044 0 01-.54-.028c-.034-.002-.066-.007-.1-.01a8.479 8.479 0 01-.435-.05c-.058-.007-.114-.018-.17-.028a7.89 7.89 0 01-.367-.063c-.06-.011-.12-.026-.18-.04a6.482 6.482 0 01-.558-.143 6.936 6.936 0 01-.613-.208c-.1-.04-.193-.082-.288-.125-.045-.02-.092-.038-.136-.06a5.347 5.347 0 01-.76-.438l-40.627-28.22c-.898-.623-1.333-1.38-1.331-2.131l-.049 17.397c-.002.752.434 1.51 1.331 2.132l40.623 28.225a5.347 5.347 0 00.761.437c.047.023.095.041.142.062.092.041.181.082.277.12l.005.002c.198.078.404.145.613.207l.073.025c.032.009.068.014.1.024.127.033.256.065.387.095l.12.03c.02.004.04.006.059.011.121.025.245.045.368.064.047.007.092.017.139.024l.03.004c.143.02.29.035.437.049.03.001.06.007.091.009h.008c.18.015.36.024.54.028h.015c.04.002.079-.002.118 0 .14.002.28.002.422-.002h.047c.045-.002.088-.007.133-.01.135-.005.27-.014.404-.025l.091-.006c.032-.004.064-.01.096-.013a8.36 8.36 0 00.55-.077c.027-.005.057-.007.085-.011l.034-.008c.14-.026.277-.056.413-.087.035-.01.073-.015.108-.025a8.37 8.37 0 00.505-.144l.015-.003c.097-.032.19-.068.286-.103.05-.019.103-.036.151-.055a6.52 6.52 0 00.434-.188l39.498-19.058c.155-.075.301-.155.439-.238.006-.003.012-.005.017-.01l.006-.003c.127-.077.245-.155.355-.237.013-.01.028-.019.041-.03a4.12 4.12 0 00.297-.245c.008-.008.019-.015.026-.023.01-.007.017-.016.025-.024.043-.04.082-.08.121-.121l.051-.053c.054-.058.104-.118.153-.177l.002-.002.039-.055c.028-.037.056-.072.081-.11l.043-.067a1.8 1.8 0 00.063-.103l.006-.01c.002-.005.003-.009.007-.014.056-.103.107-.206.146-.31v-.002a2.47 2.47 0 00.093-.322c0-.002 0-.006.002-.008a1.95 1.95 0 00.034-.293c0-.01.002-.017.004-.026v-.05l.048-17.398c0 .024-.003.048-.003.074z" fill="#BEC1D0"/><path d="M61.914 5.42c.125.073.247.15.363.23L102.9 33.875c2.027 1.408 1.703 3.497-.72 4.667L62.684 57.598c-2.284 1.103-5.624.993-7.696-.204a5.347 5.347 0 01-.36-.228L14.003 28.941c-2.026-1.408-1.703-3.496.72-4.667L54.222 5.218c2.284-1.103 5.623-.994 7.692.202z" fill="#fff"/><path d="M79.81 32.849l.009-3.143c.006.003.01.007.015.011l-.01 3.143a.103.103 0 01-.014-.011z" fill="#141EA7"/><path d="M80.95 31.517v-.022a1.44 1.44 0 00-.01-.155 5.306 5.306 0 00-.013-.084c-.003-.019-.003-.036-.007-.055a1.536 1.536 0 00-.032-.132l-.005-.02-.008-.027a1.31 1.31 0 00-.088-.23 31.663 31.663 0 01-.039-.084c-.019-.037-.041-.075-.062-.112a.075.075 0 01-.009-.017c-.004-.006-.007-.013-.013-.019-.015-.026-.032-.05-.049-.076a1.425 1.425 0 00-.078-.109c-.006-.007-.011-.015-.017-.02l-.017-.023a1.746 1.746 0 00-.052-.065l-.097-.109c-.008-.01-.017-.017-.025-.024l-.024-.024c-.019-.02-.037-.04-.058-.058a2.278 2.278 0 00-.147-.13c-.01-.009-.021-.016-.03-.026l-.079-.065a3.236 3.236 0 00-.153-.112v.002l-.015-.012-.01 3.143c.088.062.17.124.247.19l.032.026c.073.061.142.125.206.188l.024.025a2.395 2.395 0 01.335.426c.003.005.007.013.013.019.043.07.08.142.112.213.004.005.005.013.01.019.03.07.057.142.078.213.001.009.005.016.007.026.02.069.034.138.045.207l.006.04c.009.072.015.147.015.22l.007-3.147zM61.633 17.07a2.462 2.462 0 00-.162-.106c-.047-.03-.095-.058-.144-.088l-.067-.038a5.088 5.088 0 00-.247-.129c-.006-.001-.011-.005-.017-.007l-.086-.037a3.394 3.394 0 00-.249-.109c-.067-.028-.138-.052-.207-.076-.047-.017-.092-.036-.14-.053l-.047-.015-.11-.033a10.37 10.37 0 00-.26-.075l-.125-.032-.088-.022c-.034-.008-.068-.014-.101-.02-.109-.022-.217-.044-.327-.063-.032-.005-.064-.013-.098-.018l-.08-.01a11.553 11.553 0 00-.247-.032c-.045-.005-.088-.013-.133-.016a1.624 1.624 0 00-.093-.008 1.804 1.804 0 00-.1-.007l-.104-.008c-.08-.005-.16-.01-.24-.011h-.068l-.148-.004c-.069 0-.14 0-.21.002-.012 0-.027 0-.04.002-.013 0-.026 0-.04.002l-.121.004a3.43 3.43 0 00-.2.01.898.898 0 01-.073.006l-.045.004-.082.006a7.436 7.436 0 00-.198.02c-.038.004-.073.01-.11.013l-.04.006-.047.006c-.065.009-.13.018-.194.03l-.159.028-.02.003-.015.002c-.064.013-.127.024-.191.04-.064.013-.125.028-.187.043l-.015.003-.019.006-.151.04a5.318 5.318 0 00-.185.053c-.013.004-.028.01-.041.013l-.038.012a33.2 33.2 0 00-.106.033l-.189.068-.056.022c-.015.006-.03.011-.045.019a4.886 4.886 0 00-.284.122c-.023.009-.043.02-.066.031l-17.12 8.262a2.446 2.446 0 00-.171.09l-.112.062-.066.035c-.007.006-.015.01-.022.015-.058.034-.112.07-.167.105l-.035.022c-.002.002-.004.002-.004.004-.084.056-.16.114-.235.174l-.026.019c-.01.007-.017.015-.025.022-.062.05-.12.103-.175.155l-.012.011a2.8 2.8 0 00-.162.17l-.04.047a2.588 2.588 0 00-.114.146l-.026.036a2.367 2.367 0 00-.134.222c-.027.05-.05.1-.072.15l-.02.047a2.45 2.45 0 00-.071.218 1.668 1.668 0 00-.032.163l-.007.052a1.662 1.662 0 00-.013.193l-.01 3.143c0-.064.006-.13.013-.193l.008-.052a1.524 1.524 0 01.039-.194 1.714 1.714 0 01.084-.234 1.776 1.776 0 01.094-.195c.033-.06.07-.121.112-.18l.026-.035c.035-.048.073-.099.114-.145l.04-.047c.05-.058.104-.114.162-.17l.011-.012c.054-.052.114-.104.176-.155.017-.013.033-.028.05-.04a3.33 3.33 0 01.236-.175.236.236 0 01.04-.024c.053-.036.107-.071.166-.105.028-.017.06-.034.09-.05l.111-.062c.056-.03.114-.06.174-.088l17.12-8.262c.114-.054.232-.105.351-.153.015-.006.03-.012.045-.02.114-.044.232-.085.35-.122a6.224 6.224 0 01.415-.12l.02-.006c.135-.034.27-.063.408-.09.005-.001.013-.001.018-.003a6.79 6.79 0 01.4-.064l.042-.005c.129-.017.26-.03.39-.042l.045-.003a7.46 7.46 0 01.395-.02c.013 0 .026 0 .037-.003a7.18 7.18 0 01.402.002h.037c.126.004.249.011.374.02l.1.008.226.024c.082.01.164.02.246.032l.178.028c.11.019.219.04.327.064a5.505 5.505 0 01.574.148l.108.033c.064.02.126.045.19.067.068.025.138.05.205.077.086.034.168.071.25.109.028.013.058.024.084.037a4.622 4.622 0 01.638.368L79.81 32.85l.01-3.143L61.632 17.07z" fill="#B3B4C8"/><path d="M61.317 20.019c.107.062.21.125.307.194L79.807 32.85c1.722 1.196 1.449 2.973-.611 3.967l-17.122 8.26c-1.942.938-4.781.846-6.544-.173a3.867 3.867 0 01-.307-.195L37.04 32.075c-1.724-1.197-1.449-2.973.611-3.968l17.12-8.262c1.946-.937 4.785-.843 6.546.174z" fill="#D4D7E0"/><path d="M99.255 33.591c1.869 1.3 1.57 3.233-.664 4.31L62.935 55.106c-1.085.522-2.455.768-3.86.692-1.24-.066-2.376-.376-3.248-.879a4.482 4.482 0 01-.334-.213L18.818 29.227c-1.87-1.3-1.57-3.232.665-4.311L55.14 7.71c1.082-.522 2.454-.769 3.858-.694 1.241.067 2.378.378 3.249.88.116.068.228.139.334.214l36.674 25.48zm-.817 4.205c2.133-1.03 2.419-2.875.633-4.115L62.398 8.199a4.947 4.947 0 00-.321-.204c-.832-.48-1.916-.776-3.1-.84-1.344-.07-2.65.163-3.684.662L19.635 25.02c-2.133 1.03-2.42 2.876-.634 4.116l36.673 25.48c.101.071.208.139.32.202.832.48 1.918.776 3.101.84 1.344.07 2.65-.163 3.685-.662l35.658-17.2z" fill="#E1E2E7"/><path d="M108.363 27.83l-.006 2.287-3.355 1.95.006-2.287 3.355-1.95z" fill="#07B182"/><path d="M105.008 29.78l-.006 2.287-3.378-1.95.006-2.287 3.378 1.95z" fill="#057B5A"/><path d="M108.364 27.83l-3.356 1.95-3.378-1.95 3.356-1.95 3.378 1.95z" fill="#08C591"/><path d="M112.175 21.195l-.006 1.828-1.836 1.068.004-1.829 1.838-1.067z" fill="#07B182"/><path d="M110.338 22.262l-.003 1.829-1.849-1.068.004-1.828 1.848 1.067z" fill="#057B5A"/><path d="M112.175 21.195l-1.837 1.067-1.849-1.067 1.837-1.068 1.849 1.068z" fill="#08C591"/><path d="M5.215 9.734l-.004 1.829-1.837 1.067.005-1.829 1.836-1.067z" fill="#07B182"/><path d="M3.378 10.802l-.005 1.828-1.85-1.068.007-1.828 1.848 1.068z" fill="#057B5A"/><path d="M5.214 9.734L3.38 10.802 1.53 9.734l1.837-1.068 1.848 1.068z" fill="#08C591"/><path d="M116.999 28.85l-.008 2.286-2.056 1.195.006-2.285 2.058-1.196z" fill="#07B182"/><path d="M114.941 30.046l-.005 2.285-2.408-1.39.005-2.286 2.408 1.39z" fill="#057B5A"/><path d="M116.999 28.85l-2.059 1.196-2.407-1.39 2.058-1.197 2.408 1.39z" fill="#08C591"/><path d="M6.738 19.125l-.006 2.287-3.356 1.95.006-2.285 3.356-1.952z" fill="#07B182"/><path d="M3.384 21.077l-.006 2.285L0 21.412l.006-2.287 3.378 1.952z" fill="#057B5A"/><path d="M6.74 19.125l-3.356 1.952-3.378-1.952 3.357-1.95 3.376 1.95z" fill="#08C591"/><path d="M15.38 13.819l-.006 2.284-2.058 1.197.005-2.287 2.059-1.194z" fill="#07B182"/><path d="M13.322 15.014l-.006 2.286-2.41-1.39.006-2.287 2.41 1.39z" fill="#057B5A"/><path d="M15.379 13.819l-2.058 1.194-2.41-1.39 2.058-1.197 2.41 1.393z" fill="#08C591"/><path d="M102.335 82.716h-.226v-1.991c0-.612-.328-1.188-.853-1.5l-15.927-9.268.178-.09 15.863 9.164c.596.353.965 1.002.965 1.694v1.99zm-16.67-1.446h-.226v-2.89a.72.72 0 00-.363-.589l-7.296-4.094.11-.199 7.298 4.097a.947.947 0 01.479.781l-.002 2.895z" fill="#BEBEBE"/><path d="M85.46 83.918c-.537 0-1.072-.11-1.49-.335-.46-.246-.72-.592-.734-.974-.013-.38.223-.738.66-1.011.864-.54 2.301-.585 3.204-.101.46.247.72.593.733.974.013.38-.222.739-.66 1.011-.462.288-1.09.436-1.712.436zm.149-2.533c-.578 0-1.161.136-1.591.405-.367.228-.563.518-.554.812.01.297.228.574.614.781.837.45 2.174.408 2.976-.093.366-.228.562-.518.553-.812-.01-.297-.228-.574-.613-.781-.389-.211-.886-.312-1.385-.312zm16.542 3.971c-.539 0-1.073-.11-1.492-.335-.46-.247-.72-.593-.733-.974-.013-.38.223-.739.66-1.011.864-.54 2.301-.586 3.204-.101.46.246.72.592.733.974.013.38-.222.738-.66 1.011-.463.29-1.092.436-1.712.436zm.146-2.534c-.578 0-1.161.137-1.591.406-.367.228-.563.518-.554.812.01.297.229.574.614.781.837.449 2.174.408 2.976-.093.366-.228.562-.518.553-.812-.009-.297-.228-.574-.613-.781-.389-.21-.884-.313-1.385-.313zm-8.241 3.474h-.226v-6.25c0-.611-.327-1.187-.852-1.5l-11.414-6.783.258-.11 11.272 6.699a1.98 1.98 0 01.964 1.694v6.25h-.002z" fill="#BEBEBE"/><path d="M93.87 89c-.539 0-1.073-.11-1.492-.335-.46-.247-.72-.593-.733-.974-.013-.38.223-.738.66-1.011.864-.54 2.301-.586 3.204-.101.46.246.72.592.733.974.013.38-.223.738-.66 1.011-.464.288-1.09.436-1.712.436zm.147-2.534c-.577 0-1.16.137-1.59.406-.367.228-.563.518-.554.812.01.297.228.574.613.781.838.449 2.174.408 2.976-.093.367-.228.563-.518.554-.812-.01-.297-.228-.574-.614-.781-.388-.21-.886-.313-1.385-.313zm16.657-12.618H98.297l-9.418-5.604.215-.103 9.265 5.48h12.315v.227zm-7.994-4.817l-5.881-.185-4.156-2.415.245-.12 3.974 2.311 5.825.183-.007.226z" fill="#BEBEBE"/><path d="M112.784 74.975c-.539 0-1.073-.11-1.492-.334-.46-.247-.72-.593-.733-.974-.013-.38.223-.739.66-1.012.864-.54 2.301-.585 3.204-.1.46.246.72.592.733.973.013.38-.223.739-.66 1.012-.462.29-1.09.435-1.712.435zm.145-2.533c-.577 0-1.16.137-1.59.406-.367.228-.563.518-.554.811.01.297.228.574.613.782.84.448 2.175.407 2.976-.094.367-.228.563-.518.554-.811-.01-.297-.228-.574-.613-.782-.387-.21-.885-.312-1.386-.312zm-8.091-2.145c-.538 0-1.073-.11-1.491-.334-.46-.247-.72-.593-.733-.974-.013-.38.222-.74.66-1.012.863-.54 2.301-.585 3.204-.101.46.247.719.593.733.974.013.38-.223.739-.66 1.012-.464.288-1.09.435-1.713.435zm.146-2.535c-.577 0-1.161.136-1.591.406-.366.228-.562.518-.553.811.009.297.228.574.613.782.838.448 2.174.407 2.976-.094.367-.228.563-.518.554-.811-.01-.298-.229-.574-.614-.782-.387-.21-.884-.312-1.385-.312zm-90.922 7.836l.226.017.142-1.986a1.75 1.75 0 01.959-1.434l15.818-7.748-.172-.103-15.747 7.647a1.983 1.983 0 00-1.084 1.621l-.143 1.986zm16.73-.245l.226.017.208-2.883a.714.714 0 01.404-.561l6.14-2.906-.205-.151-6.033 2.851a.948.948 0 00-.532.744l-.208 2.89z" fill="#BEBEBE"/><path d="M29.128 77.449c-.417-.305-.626-.681-.585-1.057.039-.38.325-.706.802-.918.934-.417 2.364-.269 3.189.331.417.305.626.679.585 1.056-.04.38-.324.707-.8.92-.434.195-.974.266-1.51.227-.623-.045-1.238-.238-1.681-.56zm.308-1.77c-.4.178-.637.44-.667.736-.032.293.144.594.493.85.765.558 2.094.696 2.963.307.4-.18.638-.44.668-.737.032-.293-.144-.594-.494-.848-.41-.3-.981-.477-1.557-.518-.5-.036-1.002.031-1.406.21zm-17.053 2.009c-.417-.304-.626-.678-.585-1.056.04-.38.323-.707.8-.918.935-.417 2.365-.27 3.19.33.416.306.625.68.584 1.057-.039.38-.323.707-.8.918-.433.195-.974.266-1.51.227-.623-.045-1.238-.236-1.679-.558zm.307-1.768c-.4.177-.638.439-.668.734-.031.294.144.595.494.85.764.556 2.094.695 2.963.306.4-.178.637-.44.667-.735.032-.294-.144-.594-.493-.849-.41-.299-.982-.477-1.558-.518-.499-.037-1.002.03-1.405.212zm9.371 3.842l.226.016.449-6.233c.043-.612.411-1.16.959-1.434l10.767-5.398-.248-.129-10.62 5.323a1.977 1.977 0 00-1.082 1.621l-.451 6.234z" fill="#BEBEBE"/><path d="M20.377 81.916c-.417-.305-.626-.68-.585-1.057.039-.38.323-.707.8-.92.934-.417 2.364-.269 3.189.331.417.305.626.679.585 1.057-.04.38-.323.706-.8.918-.434.194-.974.265-1.51.226-.623-.043-1.238-.234-1.68-.555zm.308-1.77c-.4.18-.637.44-.667.736-.032.293.144.594.493.849.765.557 2.094.695 2.963.306.4-.178.638-.44.668-.735.032-.293-.144-.594-.494-.849-.41-.299-.981-.476-1.557-.517-.501-.036-1.004.03-1.406.21zM6.383 66.154l12.345.888 9.41-4.715-.183-.129-9.274 4.614L6.4 65.928l-.017.226zm8.317-4.229l5.88.237 4.318-2.112-.238-.137-4.13 2.021-5.82-.237-.01.228z" fill="#BEBEBE"/><path d="M2.518 66.571c-.417-.305-.626-.678-.585-1.056.04-.38.325-.707.802-.92.934-.419 2.365-.27 3.189.33.417.306.626.68.585 1.057-.04.38-.323.707-.8.918-.434.195-.974.266-1.512.226-.623-.043-1.238-.233-1.68-.555zm.308-1.769c-.4.18-.637.44-.669.735-.032.294.144.595.494.85.764.556 2.093.695 2.963.306.4-.178.637-.44.667-.735.032-.294-.144-.595-.494-.849-.409-.3-.981-.477-1.557-.518-.499-.035-1 .03-1.404.211zm7.956-2.329c-.417-.305-.627-.679-.585-1.057.039-.38.323-.706.8-.918.934-.417 2.364-.269 3.189.331.417.305.626.679.585 1.057-.04.38-.324.706-.8.918-.434.194-.974.265-1.51.226-.623-.043-1.238-.236-1.68-.557zm.308-1.769c-.4.178-.637.44-.667.735-.032.293.144.594.493.849.765.557 2.094.695 2.963.306.4-.177.638-.44.668-.735.031-.293-.144-.594-.494-.848-.41-.3-.981-.477-1.557-.518-.501-.036-1.004.032-1.406.211z" fill="#BEBEBE"/><mask id="a" style="mask-type:luminance" maskUnits="userSpaceOnUse" x="33" y="12" width="2" height="5"><path d="M33.72 15.548l.2-3.042c-.024.368.197.752.664 1.062l-.2 3.042c-.467-.31-.688-.695-.663-1.062z" fill="#fff"/></mask><g mask="url(#a)"><path d="M34.586 13.568l-.2 3.042c-.47-.312-.688-.695-.664-1.062l.2-3.042c-.026.368.195.752.664 1.062z" fill="#0B1160"/></g><path d="M86.32 22.868l.032-.015c.025-.013.045-.026.068-.039a1.98 1.98 0 00.091-.052l.073-.05c.026-.02.054-.038.079-.059l.016-.01c.01-.008.017-.018.028-.027a1.21 1.21 0 00.113-.107l.024-.022c.007-.008.011-.017.019-.024.022-.027.043-.055.063-.083.008-.01.019-.022.026-.033l.01-.019a.994.994 0 00.04-.075c.008-.015.018-.028.025-.043l.006-.015a.902.902 0 00.026-.073c.005-.017.013-.032.017-.048a1.138 1.138 0 00.015-.09c.001-.017.007-.034.009-.05l.002-.023.2-3.042c-.002.024-.008.047-.011.071a1.13 1.13 0 01-.013.079l-.021.061a.56.56 0 01-.056.131c-.013.024-.026.05-.041.075a.522.522 0 01-.038.052.877.877 0 01-.063.083c-.013.016-.028.031-.043.046a1.545 1.545 0 01-.112.107l-.043.037a.902.902 0 01-.08.058c-.025.017-.047.034-.074.05-.03.02-.061.036-.091.055a1.623 1.623 0 01-.097.054L64.054 31.06a3.053 3.053 0 01-.239.102c-.024.01-.048.017-.073.027-.065.022-.13.043-.198.061-.024.008-.048.013-.073.02-.043.012-.086.02-.129.029a3.023 3.023 0 01-.237.041c-.032.004-.062.01-.094.013a3.51 3.51 0 01-.282.02c-.03.002-.058.002-.088.002a2.482 2.482 0 01-.168 0l-.108-.003a3.36 3.36 0 01-.135-.008c-.037-.004-.075-.005-.112-.01a2.831 2.831 0 01-.126-.014l-.113-.017-.122-.02-.11-.023c-.043-.01-.086-.02-.13-.032-.033-.009-.067-.017-.1-.028a4.535 4.535 0 01-.152-.046l-.082-.029a2.902 2.902 0 01-.26-.106l-.121-.06c-.02-.011-.043-.02-.062-.032a2.564 2.564 0 01-.176-.106L34.586 13.568l-.2 3.042 25.986 17.27c.056.037.114.073.175.107l.062.031c.036.02.071.038.109.056l.013.006a3.366 3.366 0 00.28.116c.02.008.041.013.062.019.05.017.099.032.151.047.013.003.026.009.041.013l.06.014c.043.012.086.021.13.032.016.004.033.01.052.013l.056.01.123.022.058.011.054.006c.041.006.082.01.125.015.02.002.041.006.064.007l.05.004a3.193 3.193 0 00.202.011h.04c.056.002.112 0 .168 0h.067l.02-.002c.096-.003.19-.01.283-.02.004 0 .01 0 .015-.002l.08-.011.139-.02.099-.021c.043-.01.086-.017.129-.028l.028-.006c.015-.004.03-.01.045-.013.067-.019.132-.04.198-.062.024-.01.048-.017.073-.026.082-.032.162-.065.239-.103L86.32 22.868z" fill="#0B1160"/><path d="M86.636 17.805c.931.619.88 1.524-.114 2.021L64.058 31.058c-.994.497-2.555.398-3.486-.221L34.586 13.568c-.931-.619-.879-1.522.116-2.02L57.164.317c.995-.498 2.555-.4 3.486.218l25.986 17.269z" fill="#0854F5"/><path d="M40.1 12.9c.03-.463-.594-.882-1.395-.934-.8-.053-1.474.28-1.504.744-.03.463.593.882 1.394.935.8.052 1.474-.28 1.504-.745zm20.039-9.841c.03-.464-.594-.883-1.394-.935-.8-.053-1.474.28-1.505.744-.03.464.594.882 1.394.935.8.052 1.474-.28 1.505-.744zM83.91 18.542c.03-.464-.593-.882-1.394-.935-.8-.053-1.474.28-1.504.744-.03.464.593.882 1.394.935.8.053 1.474-.28 1.504-.744zM63.763 28.645c.03-.464-.594-.883-1.394-.935-.8-.053-1.474.28-1.505.744-.03.464.594.882 1.394.935.8.052 1.474-.28 1.505-.744z" fill="#426CF6"/><g clip-path="url(#clip0_4950_3688)"><path fill-rule="evenodd" clip-rule="evenodd" d="M74.119 13.278l.078.045c.13.08.236.173.312.275l.021.028c.327.436 1.333 1.7 1.333 2.154 0 .679-.46 1.255-1.25 1.753-.881.555-2.101.96-3.293 1.252-3.018.74-6.735 1.001-9.993 1.001s-6.975-.262-9.995-1.001c-1.116-.274-2.245-.643-3.108-1.14a5.685 5.685 0 01-.185-.112c-.79-.498-1.25-1.075-1.25-1.753 0-.465.995-1.71 1.331-2.151l.021-.028c.157-.21.44-.38.796-.48a2.75 2.75 0 011.145-.061l4.513.698c.422.066.782.226 1 .444.22.22.28.479.167.723-.207.446-.176.923.277 1.319.209.188.487.348.814.467.327.12.696.197 1.08.225 1.125.087 2.259.128 3.394.122a41.84 41.84 0 003.393-.122 4.046 4.046 0 001.08-.225c.328-.12.605-.279.815-.467.452-.396.483-.873.276-1.32-.112-.243-.052-.503.166-.722.22-.218.579-.378 1.001-.444l4.512-.698a2.81 2.81 0 01.824-.008c.27.039.52.116.725.226zm-5.216-2.241a.646.646 0 00.204-.177.356.356 0 00.072-.208.355.355 0 00-.072-.209.645.645 0 00-.204-.176c-.995-.575-2.176-1.03-3.476-1.341a17.734 17.734 0 00-4.1-.471c-1.406 0-2.8.16-4.1.47-1.299.312-2.48.767-3.474 1.342a.655.655 0 00-.209.176.359.359 0 00-.074.21c0 .072.024.143.071.21a.644.644 0 00.206.177c.088.051.192.092.308.119a1.564 1.564 0 00.726-.002 1.14 1.14 0 00.306-.12c.82-.473 1.792-.849 2.863-1.105a14.614 14.614 0 013.377-.388c1.16 0 2.307.132 3.378.388 1.07.256 2.044.632 2.863 1.105.088.05.192.09.306.118a1.562 1.562 0 00.723 0 1.15 1.15 0 00.306-.118zm-2.704 1.56a.646.646 0 00.205-.176.357.357 0 00.072-.209.356.356 0 00-.072-.208.646.646 0 00-.204-.177c-.64-.37-1.4-.662-2.236-.862a11.41 11.41 0 00-2.636-.303c-.905 0-1.801.103-2.637.303-.836.2-1.596.493-2.236.862-.176.102-.276.24-.276.385 0 .145.1.283.276.386.178.102.418.16.668.16.25 0 .49-.058.667-.16a6.095 6.095 0 011.623-.627 8.282 8.282 0 011.914-.22c.657 0 1.308.075 1.915.22a6.096 6.096 0 011.623.627c.088.05.192.09.306.118a1.562 1.562 0 00.722 0 1.15 1.15 0 00.306-.118zm-2.703 1.561a.647.647 0 00.205-.176.356.356 0 00.072-.209.356.356 0 00-.072-.208.646.646 0 00-.205-.177 3.738 3.738 0 00-.995-.384 5.08 5.08 0 00-1.173-.135c-.403 0-.802.046-1.174.135-.373.089-.71.22-.995.384-.177.102-.277.24-.277.385 0 .145.1.283.277.385.177.102.417.16.667.16.25 0 .49-.058.667-.16.221-.128.521-.2.834-.2.314 0 .614.072.835.2.088.05.192.09.306.118a1.562 1.562 0 00.722 0c.115-.027.219-.067.306-.118z" fill="#fff"/></g><defs><clipPath id="clip0_4950_3688"><path fill="#fff" transform="matrix(-.86603 -.5 -.86603 .5 87.68 15.551)" d="M0 0h30.43v30.43H0z"/></clipPath></defs></svg>