<svg width="117" height="89" fill="none" xmlns="http://www.w3.org/2000/svg"><path d="M112.048 51.97l-49.074-34.1a6.562 6.562 0 00-.449-.285c-1.165-.672-2.686-1.087-4.346-1.178-1.883-.103-3.718.23-5.165.927L5.296 40.36c-2.993 1.441-3.393 4.029-.891 5.77l49.078 34.096c.142.099.292.194.449.286 1.168.673 2.69 1.088 4.346 1.178 1.88.099 3.714-.23 5.165-.928l14.6-7.047 3.877-1.871 3.759-1.812h.002l3.514-1.696 3.797-1.832 18.165-8.765c2.994-1.444 3.393-4.031.891-5.768zm-1.091 5.625L92.766 66.37l-3.793 1.83-3.516 1.696-3.758 1.814-18.46 8.905c-1.383.668-3.133.98-4.931.885-1.584-.084-3.034-.48-4.15-1.126a5.487 5.487 0 01-.427-.269L4.653 46.01c-2.387-1.66-2.004-4.13.85-5.506L53.222 17.48c1.382-.668 3.131-.98 4.93-.884 1.583.084 3.034.48 4.148 1.121.15.086.291.18.43.273l49.076 34.098c2.386 1.66 2.006 4.13-.848 5.507z" fill="#BEBEBE"/><path d="M104.23 36.083c-.004.1-.015.197-.034.294l-.006.028c-.02.1-.048.202-.088.303v.002a2.18 2.18 0 01-.158.334c-.019.034-.042.068-.062.101l-.043.07a1.203 1.203 0 01-.081.108l-.042.058c-.047.06-.1.12-.154.178-.017.016-.033.035-.05.052a4.816 4.816 0 01-.172.168 3.736 3.736 0 01-.297.245l-.04.028c-.112.082-.23.16-.357.238l-.022.013a5.493 5.493 0 01-.441.237L62.685 57.598c-.14.067-.286.131-.434.189-.05.02-.1.035-.151.054a5.38 5.38 0 01-.301.107c-.167.052-.335.1-.505.144-.035.01-.073.015-.108.024a7.692 7.692 0 01-.414.088l-.12.019a8.859 8.859 0 01-.549.076c-.062.008-.125.013-.187.019-.134.011-.269.02-.403.026a5.692 5.692 0 01-.6.011h-.135a12.044 12.044 0 01-.54-.028c-.034-.002-.066-.007-.1-.01a8.479 8.479 0 01-.435-.05c-.058-.007-.114-.018-.17-.028a7.89 7.89 0 01-.367-.063c-.06-.011-.12-.026-.18-.04a6.482 6.482 0 01-.558-.143 6.936 6.936 0 01-.613-.208c-.1-.04-.193-.082-.288-.125-.045-.02-.092-.038-.136-.06a5.347 5.347 0 01-.76-.438l-40.627-28.22c-.898-.623-1.333-1.38-1.331-2.131l-.049 17.397c-.002.752.434 1.51 1.331 2.132l40.623 28.225a5.347 5.347 0 00.761.437c.047.023.095.041.142.062.092.041.181.082.277.12l.005.002c.198.078.404.145.613.207l.073.025c.032.009.068.014.1.024.127.033.256.065.387.095l.12.03c.02.004.04.006.059.011.121.025.245.045.368.064.047.007.092.017.139.024l.03.004c.143.02.29.035.437.049.03.001.06.007.091.009h.008c.18.015.36.024.54.028h.015c.04.002.079-.002.118 0 .14.002.28.002.422-.002h.047c.045-.002.088-.007.133-.01.135-.005.27-.014.404-.025l.091-.006c.032-.004.064-.01.096-.013a8.36 8.36 0 00.55-.077c.027-.005.057-.007.085-.011l.034-.008c.14-.026.277-.056.413-.087.035-.01.073-.015.108-.025a8.37 8.37 0 00.505-.144l.015-.003c.097-.032.19-.068.286-.103.05-.019.103-.036.151-.055a6.52 6.52 0 00.434-.188l39.498-19.058c.155-.075.301-.155.439-.238.006-.003.012-.005.017-.01l.006-.003c.127-.077.245-.155.355-.237.013-.01.028-.019.041-.03a4.12 4.12 0 00.297-.245c.008-.008.019-.015.026-.023.01-.007.017-.016.025-.024.043-.04.082-.08.121-.121l.051-.053c.054-.058.104-.118.153-.177l.002-.002.039-.055c.028-.037.056-.072.081-.11l.043-.067a1.8 1.8 0 00.063-.103l.006-.01c.002-.005.003-.009.007-.014.056-.103.107-.206.146-.31v-.002a2.47 2.47 0 00.093-.322c0-.002 0-.006.002-.008a1.95 1.95 0 00.034-.293c0-.01.002-.017.004-.026v-.05l.048-17.398c0 .024-.003.048-.003.074z" fill="#BEC1D0"/><path d="M61.914 5.42c.125.073.247.15.363.23L102.9 33.875c2.027 1.408 1.703 3.497-.72 4.667L62.684 57.598c-2.284 1.103-5.624.993-7.696-.204a5.347 5.347 0 01-.36-.228L14.003 28.941c-2.026-1.408-1.703-3.496.72-4.667L54.222 5.218c2.284-1.103 5.623-.994 7.692.202z" fill="#fff"/><path d="M79.81 32.849l.009-3.143.015.011-.01 3.143-.014-.011z" fill="#141EA7"/><path d="M80.95 31.518v-.023a1.344 1.344 0 00-.017-.2l-.005-.039c-.004-.019-.004-.036-.008-.054a1.545 1.545 0 00-.032-.133l-.005-.02-.008-.027a1.312 1.312 0 00-.088-.23l-.039-.084c-.019-.037-.041-.075-.062-.112a.075.075 0 01-.009-.017c-.004-.006-.007-.013-.013-.019-.015-.026-.032-.05-.049-.076a1.447 1.447 0 00-.078-.109c-.006-.007-.011-.015-.017-.02l-.017-.023a1.667 1.667 0 00-.052-.065l-.097-.109-.025-.024-.024-.024c-.019-.019-.037-.04-.058-.058a2.324 2.324 0 00-.147-.13c-.01-.009-.021-.016-.03-.025l-.079-.066a3.306 3.306 0 00-.153-.112v.002l-.015-.011-.01 3.143c.088.061.17.123.247.188l.032.027a3.35 3.35 0 01.23.213 2.363 2.363 0 01.335.426 1.952 1.952 0 01.125.232c.004.006.005.013.01.019.03.07.057.142.078.213.001.01.005.017.007.026.02.07.034.138.045.208l.006.039c.009.073.015.148.015.22l.007-3.146zM61.633 17.07a2.463 2.463 0 00-.162-.106c-.047-.03-.095-.058-.144-.088-.023-.013-.045-.026-.067-.037a5.272 5.272 0 00-.247-.13c-.006-.001-.011-.005-.017-.007l-.086-.037a3.458 3.458 0 00-.249-.109c-.067-.028-.138-.052-.207-.076-.047-.017-.092-.036-.14-.053l-.047-.014-.11-.034a10.37 10.37 0 00-.26-.075l-.125-.032-.088-.022c-.034-.008-.068-.013-.101-.019-.109-.022-.217-.045-.327-.064-.032-.005-.064-.013-.098-.018l-.08-.01c-.082-.01-.165-.022-.247-.031-.045-.006-.088-.013-.133-.017a1.54 1.54 0 00-.093-.008l-.1-.007-.104-.008a4.813 4.813 0 00-.24-.01h-.068c-.049-.003-.1-.003-.148-.005-.069 0-.14 0-.21.002-.012 0-.027 0-.04.002-.013 0-.026 0-.04.002l-.121.004a3.52 3.52 0 00-.273.017l-.045.003-.082.006a7.043 7.043 0 00-.198.02l-.11.014-.04.005-.047.006c-.065.01-.13.019-.194.03l-.159.028-.02.004-.015.001c-.064.014-.127.025-.191.04a5.437 5.437 0 00-.187.043l-.015.003-.019.006-.151.04a5.318 5.318 0 00-.185.053l-.041.014-.038.01-.106.035-.189.067-.056.022c-.015.006-.03.011-.045.019a4.747 4.747 0 00-.284.122c-.023.009-.043.02-.066.031l-17.12 8.262a2.512 2.512 0 00-.171.09l-.112.062-.066.035c-.007.006-.015.01-.022.015-.058.034-.112.07-.167.105-.01.008-.024.015-.035.023l-.004.003c-.084.056-.16.114-.235.174l-.026.019c-.01.007-.017.015-.025.022-.062.05-.12.103-.175.155l-.012.012a2.773 2.773 0 00-.162.17l-.04.047a2.59 2.59 0 00-.114.145c-.007.012-.017.023-.026.036-.041.06-.078.12-.112.18-.008.014-.015.03-.023.042-.026.051-.05.1-.07.15-.008.015-.014.032-.021.047a2.453 2.453 0 00-.071.219 1.666 1.666 0 00-.032.162l-.007.053a1.662 1.662 0 00-.013.192l-.01 3.143c0-.063.006-.129.013-.192l.008-.053a1.534 1.534 0 01.039-.194 1.709 1.709 0 01.084-.234c.02-.05.045-.099.071-.15l.023-.044c.033-.06.07-.122.112-.18l.026-.035c.035-.049.073-.1.114-.146l.04-.047c.05-.058.104-.114.162-.17l.011-.011c.054-.053.114-.105.176-.155l.05-.042c.075-.06.152-.117.236-.174.013-.009.026-.016.04-.024.053-.035.107-.07.166-.105l.09-.05.111-.062c.056-.03.114-.06.174-.088l17.12-8.262a6.647 6.647 0 01.746-.295 6.224 6.224 0 01.415-.12l.02-.006c.135-.033.27-.063.408-.09.005-.001.013-.001.018-.003.133-.024.266-.047.4-.064l.042-.005c.129-.017.26-.03.39-.041l.045-.004a7.46 7.46 0 01.395-.02c.013 0 .026 0 .037-.003a7.18 7.18 0 01.402.002h.037c.126.004.249.011.374.02l.1.008a7.834 7.834 0 01.472.056l.178.029c.11.018.219.039.327.063a5.754 5.754 0 01.574.148l.108.033c.064.021.126.045.19.068.068.024.138.048.205.076.086.034.168.071.25.109.028.013.058.024.084.037a4.663 4.663 0 01.638.369L79.81 32.849l.01-3.143-18.188-12.635z" fill="#B3B4C8"/><path d="M61.317 20.02c.107.06.21.124.307.194l18.183 12.635c1.722 1.197 1.449 2.973-.611 3.968l-17.122 8.26c-1.942.937-4.781.845-6.544-.174a3.895 3.895 0 01-.307-.194L37.04 32.075c-1.724-1.197-1.449-2.973.611-3.968l17.12-8.262c1.946-.936 4.785-.843 6.546.174z" fill="#D4D7E0"/><path d="M99.255 33.591c1.869 1.3 1.57 3.233-.664 4.31L62.935 55.106c-1.085.522-2.455.768-3.86.692-1.24-.066-2.376-.376-3.248-.879a4.482 4.482 0 01-.334-.213L18.818 29.227c-1.87-1.3-1.57-3.232.665-4.311L55.14 7.71c1.082-.522 2.454-.769 3.858-.694 1.241.067 2.378.378 3.249.88.116.068.228.139.334.214l36.674 25.48zm-.817 4.205c2.133-1.03 2.419-2.875.633-4.115L62.398 8.199a4.947 4.947 0 00-.321-.204c-.832-.48-1.916-.776-3.1-.84-1.344-.07-2.65.163-3.684.662L19.635 25.02c-2.133 1.03-2.42 2.876-.634 4.116l36.673 25.48c.101.071.208.139.32.202.832.48 1.918.776 3.101.84 1.344.07 2.65-.163 3.685-.662l35.658-17.2z" fill="#E1E2E7"/><path d="M108.363 27.83l-.006 2.287-3.355 1.95.006-2.286 3.355-1.95z" fill="#07B182"/><path d="M105.008 29.78l-.006 2.287-3.378-1.95.006-2.286 3.378 1.95z" fill="#057B5A"/><path d="M108.364 27.83l-3.356 1.95-3.378-1.95 3.356-1.95 3.378 1.95z" fill="#08C591"/><path d="M112.175 21.195l-.006 1.829-1.836 1.067.004-1.828 1.838-1.068z" fill="#07B182"/><path d="M110.338 22.263l-.003 1.828-1.849-1.067.004-1.829 1.848 1.068z" fill="#057B5A"/><path d="M112.175 21.195l-1.837 1.068-1.849-1.068 1.837-1.068 1.849 1.068z" fill="#08C591"/><path d="M5.215 9.734l-.004 1.829-1.837 1.067.005-1.829 1.836-1.067z" fill="#07B182"/><path d="M3.378 10.802l-.005 1.828-1.85-1.068.007-1.828 1.848 1.068z" fill="#057B5A"/><path d="M5.214 9.734L3.38 10.802 1.53 9.734l1.837-1.068 1.848 1.068z" fill="#08C591"/><path d="M116.999 28.85l-.008 2.287-2.056 1.194.006-2.285 2.058-1.196z" fill="#07B182"/><path d="M114.941 30.046l-.005 2.285-2.408-1.39.005-2.286 2.408 1.391z" fill="#057B5A"/><path d="M116.999 28.85l-2.059 1.196-2.407-1.39 2.058-1.197 2.408 1.39z" fill="#08C591"/><path d="M6.738 19.125l-.006 2.287-3.356 1.95.006-2.284 3.356-1.953z" fill="#07B182"/><path d="M3.384 21.078l-.006 2.284L0 21.412l.006-2.287 3.378 1.953z" fill="#057B5A"/><path d="M6.74 19.125l-3.356 1.952-3.378-1.952 3.357-1.95 3.376 1.95z" fill="#08C591"/><path d="M15.38 13.819l-.006 2.285-2.058 1.196.005-2.286 2.059-1.195z" fill="#07B182"/><path d="M13.322 15.014l-.006 2.287-2.41-1.391.006-2.287 2.41 1.39z" fill="#057B5A"/><path d="M15.379 13.819l-2.058 1.195-2.41-1.391 2.058-1.197 2.41 1.393z" fill="#08C591"/><path d="M102.335 82.716h-.226v-1.991c0-.611-.328-1.187-.853-1.5l-15.927-9.268.178-.09 15.863 9.164c.596.353.965 1.002.965 1.694v1.991zm-16.67-1.446h-.226v-2.89a.72.72 0 00-.363-.589l-7.296-4.094.11-.198 7.298 4.096a.946.946 0 01.479.782l-.002 2.894z" fill="#BEBEBE"/><path d="M85.46 83.918c-.537 0-1.072-.11-1.49-.334-.46-.247-.72-.593-.734-.975-.013-.379.223-.738.66-1.011.864-.54 2.301-.585 3.204-.1.46.246.72.592.733.973.013.38-.222.739-.66 1.012-.462.288-1.09.435-1.712.435zm.149-2.533c-.578 0-1.161.136-1.591.406-.367.228-.563.517-.554.811.01.297.228.574.614.782.837.448 2.174.407 2.976-.094.366-.228.562-.518.553-.811-.01-.298-.228-.574-.613-.782-.389-.211-.886-.312-1.385-.312zm16.542 3.971c-.539 0-1.073-.11-1.492-.335-.46-.246-.72-.592-.733-.974-.013-.38.223-.738.66-1.011.864-.54 2.301-.585 3.204-.101.46.247.72.593.733.974.013.38-.222.738-.66 1.011-.463.29-1.092.436-1.712.436zm.146-2.533c-.578 0-1.161.136-1.591.405-.367.229-.563.518-.554.812.01.297.229.574.614.781.837.45 2.174.408 2.976-.093.366-.228.562-.518.553-.812-.009-.297-.228-.574-.613-.781-.389-.21-.884-.312-1.385-.312zm-8.241 3.474h-.226v-6.25c0-.612-.327-1.188-.852-1.5l-11.414-6.784.258-.11 11.272 6.7a1.98 1.98 0 01.964 1.693v6.25h-.002z" fill="#BEBEBE"/><path d="M93.87 89c-.539 0-1.073-.11-1.492-.335-.46-.246-.72-.592-.733-.974-.013-.38.223-.738.66-1.011.864-.54 2.301-.585 3.204-.101.46.247.72.593.733.974.013.38-.223.739-.66 1.011-.464.288-1.09.436-1.712.436zm.147-2.533c-.577 0-1.16.136-1.59.405-.367.228-.563.518-.554.812.01.297.228.574.613.781.838.45 2.174.408 2.976-.093.367-.228.563-.518.554-.811-.01-.298-.228-.575-.614-.782-.388-.21-.886-.312-1.385-.312zm16.657-12.619H98.297l-9.418-5.604.215-.102 9.265 5.48h12.315v.226zm-7.994-4.816l-5.881-.185-4.156-2.416.245-.12 3.974 2.311 5.825.183-.007.227z" fill="#BEBEBE"/><path d="M112.784 74.976c-.539 0-1.073-.11-1.492-.335-.46-.247-.72-.593-.733-.974-.013-.38.223-.739.66-1.012.864-.54 2.301-.585 3.204-.1.46.246.72.592.733.974.013.38-.223.738-.66 1.011-.462.29-1.09.436-1.712.436zm.145-2.534c-.577 0-1.16.137-1.59.406-.367.228-.563.518-.554.811.01.298.228.574.613.782.84.449 2.175.408 2.976-.094.367-.228.563-.517.554-.811-.01-.297-.228-.574-.613-.782-.387-.209-.885-.312-1.386-.312zm-8.091-2.145c-.538 0-1.073-.11-1.491-.334-.46-.247-.72-.593-.733-.974-.013-.38.222-.739.66-1.012.863-.54 2.301-.585 3.204-.1.46.246.719.592.733.973.013.38-.223.739-.66 1.012-.464.288-1.09.436-1.713.436zm.146-2.535c-.577 0-1.161.137-1.591.406-.366.228-.562.518-.553.811.009.298.228.574.613.782.838.449 2.174.407 2.976-.094.367-.228.563-.517.554-.811-.01-.297-.229-.574-.614-.782-.387-.209-.884-.312-1.385-.312zm-90.922 7.836l.226.017.142-1.986a1.75 1.75 0 01.959-1.434l15.818-7.748-.172-.103-15.747 7.648a1.983 1.983 0 00-1.084 1.62l-.143 1.986zm16.73-.245l.226.017.208-2.883a.714.714 0 01.404-.56l6.14-2.906-.205-.152-6.033 2.852a.948.948 0 00-.532.744l-.208 2.888z" fill="#BEBEBE"/><path d="M29.128 77.449c-.417-.305-.626-.68-.585-1.056.039-.38.325-.707.802-.919.934-.416 2.364-.269 3.189.331.417.305.626.68.585 1.057-.04.38-.324.707-.8.92-.434.194-.974.265-1.51.226-.623-.045-1.238-.238-1.681-.56zm.308-1.769c-.4.178-.637.44-.667.735-.032.293.144.594.493.85.765.558 2.094.696 2.963.307.4-.18.638-.44.668-.736.032-.294-.144-.595-.494-.85-.41-.298-.981-.476-1.557-.517-.5-.036-1.002.032-1.406.211zm-17.053 2.009c-.417-.305-.626-.68-.585-1.057.04-.38.323-.707.8-.918.935-.417 2.365-.27 3.19.331.416.305.625.679.584 1.056-.039.38-.323.707-.8.918-.433.195-.974.266-1.51.227-.623-.045-1.238-.236-1.679-.557zm.307-1.77c-.4.178-.638.44-.668.736-.031.293.144.594.494.849.764.557 2.094.695 2.963.306.4-.178.637-.44.667-.735.032-.293-.144-.594-.493-.849-.41-.299-.982-.476-1.558-.517-.499-.038-1.002.03-1.405.21zm9.371 3.843l.226.017.449-6.234c.043-.611.411-1.16.959-1.434l10.767-5.398-.248-.129-10.62 5.323a1.977 1.977 0 00-1.082 1.621l-.451 6.234z" fill="#BEBEBE"/><path d="M20.377 81.916c-.417-.305-.626-.679-.585-1.057.039-.38.323-.706.8-.92.934-.416 2.364-.269 3.189.332.417.304.626.678.585 1.056-.04.38-.323.707-.8.918-.434.194-.974.265-1.51.226-.623-.043-1.238-.234-1.68-.555zm.308-1.769c-.4.18-.637.44-.667.735-.032.293.144.594.493.849.765.557 2.094.695 2.963.306.4-.177.638-.439.668-.735.032-.293-.144-.594-.494-.848-.41-.3-.981-.477-1.557-.518-.501-.036-1.004.03-1.406.211zM6.383 66.155l12.345.888 9.41-4.716-.183-.129-9.274 4.615L6.4 65.928l-.017.227zm8.317-4.23l5.88.238 4.318-2.113-.238-.137-4.13 2.022-5.82-.238-.01.228z" fill="#BEBEBE"/><path d="M2.518 66.571c-.417-.304-.626-.678-.585-1.056.04-.38.325-.707.802-.92.934-.419 2.365-.27 3.189.331.417.305.626.679.585 1.056-.04.38-.323.707-.8.918-.434.195-.974.266-1.512.227-.623-.043-1.238-.234-1.68-.556zm.308-1.768c-.4.18-.637.439-.669.734-.032.294.144.595.494.85.764.556 2.093.695 2.963.306.4-.178.637-.44.667-.735.032-.293-.144-.594-.494-.849-.409-.299-.981-.477-1.557-.518-.499-.035-1 .03-1.404.212zm7.956-2.33c-.417-.305-.627-.679-.585-1.056.039-.38.323-.707.8-.918.934-.417 2.364-.27 3.189.33.417.305.626.68.585 1.057-.04.38-.324.707-.8.918-.434.194-.974.265-1.51.226-.623-.043-1.238-.235-1.68-.557zm.308-1.769c-.4.178-.637.44-.667.735-.032.294.144.595.493.849.765.557 2.094.696 2.963.307.4-.178.638-.44.668-.735.031-.294-.144-.595-.494-.85-.41-.298-.981-.476-1.557-.517-.501-.035-1.004.032-1.406.211z" fill="#BEBEBE"/><mask id="a" style="mask-type:luminance" maskUnits="userSpaceOnUse" x="33" y="12" width="2" height="5"><path d="M33.72 15.548l.2-3.042c-.024.369.197.752.664 1.062l-.2 3.042c-.467-.31-.688-.695-.663-1.062z" fill="#fff"/></mask><g mask="url(#a)"><path d="M34.586 13.568l-.2 3.042c-.47-.312-.688-.695-.664-1.062l.2-3.042c-.026.369.195.752.664 1.062z" fill="#0B1160"/></g><path d="M86.32 22.869c.012-.006.021-.012.032-.015l.068-.04.091-.052.073-.05c.026-.02.054-.038.079-.058l.016-.012c.01-.007.017-.017.028-.026.042-.034.077-.069.113-.106l.024-.023c.007-.007.011-.017.019-.024.022-.026.043-.054.063-.082.008-.012.019-.023.026-.034l.01-.019a.975.975 0 00.04-.075c.008-.015.018-.028.025-.043l.006-.015a.902.902 0 00.026-.073c.005-.016.013-.031.017-.048a1.124 1.124 0 00.015-.09c.001-.017.007-.033.009-.05l.002-.023.2-3.042c-.002.024-.008.047-.011.071a1.127 1.127 0 01-.013.079l-.021.062a.56.56 0 01-.056.13c-.013.025-.026.05-.041.075-.011.019-.025.036-.038.052a.865.865 0 01-.063.083c-.013.017-.028.032-.043.047a1.524 1.524 0 01-.112.106l-.043.037a.883.883 0 01-.08.058c-.025.017-.047.034-.074.051-.03.019-.061.036-.091.054a1.568 1.568 0 01-.097.054L64.054 31.06a3.092 3.092 0 01-.239.103c-.024.009-.048.016-.073.026-.065.022-.13.043-.198.061-.024.008-.048.014-.073.021-.043.011-.086.019-.129.028a3.023 3.023 0 01-.237.041c-.032.004-.062.01-.094.013a3.557 3.557 0 01-.282.02c-.03.003-.058.003-.088.003a2.482 2.482 0 01-.276-.004c-.045-.002-.09-.004-.135-.008-.037-.003-.075-.005-.112-.009a2.99 2.99 0 01-.126-.015l-.113-.017-.122-.02-.11-.023c-.043-.009-.086-.02-.13-.031-.033-.01-.067-.017-.1-.028-.05-.015-.101-.03-.152-.047a2.902 2.902 0 01-.342-.135l-.121-.06c-.02-.01-.043-.02-.062-.031-.06-.034-.12-.07-.176-.107L34.586 13.569l-.2 3.042 25.986 17.268c.056.038.114.073.175.107.021.011.042.02.062.032l.109.056.013.005c.084.04.17.073.26.107a.062.062 0 01.02.01c.02.007.041.012.062.018.05.017.099.032.151.047.013.003.026.01.041.013l.06.015c.043.011.086.02.13.032l.052.013.056.009.123.022.058.012.054.005c.041.006.082.01.125.015l.064.008.05.003c.045.004.09.006.135.008a.799.799 0 00.067.004h.04c.056.002.112 0 .168 0h.067l.02-.002c.096-.004.19-.011.283-.02.004 0 .01 0 .015-.003l.08-.01c.047-.006.092-.014.139-.021l.099-.021c.043-.01.086-.017.129-.028l.028-.006c.015-.003.03-.009.045-.013.067-.018.132-.039.198-.062.024-.009.048-.016.073-.026a3.06 3.06 0 00.239-.102L86.32 22.868z" fill="#0B1160"/><path d="M86.636 17.805c.931.62.88 1.524-.114 2.021L64.058 31.058c-.994.497-2.555.398-3.486-.22l-25.986-17.27c-.931-.618-.879-1.521.116-2.02L57.164.317c.995-.498 2.555-.4 3.486.219l25.986 17.268z" fill="#0854F5"/><path d="M40.1 12.9c.03-.463-.594-.882-1.395-.934-.8-.053-1.474.28-1.504.744-.03.463.593.882 1.394.935.8.052 1.474-.28 1.504-.745zm20.039-9.841c.03-.464-.594-.883-1.394-.935-.8-.053-1.474.28-1.505.744-.03.464.594.882 1.394.935.8.052 1.474-.28 1.505-.744zM83.91 18.542c.03-.464-.593-.882-1.394-.935-.8-.053-1.474.28-1.504.744-.03.464.593.882 1.394.935.8.053 1.474-.28 1.504-.744zM63.763 28.645c.03-.464-.594-.883-1.394-.935-.8-.053-1.474.28-1.505.744-.03.464.594.882 1.394.935.8.052 1.474-.28 1.505-.744z" fill="#426CF6"/></svg>