<svg width="141" height="109" fill="none" xmlns="http://www.w3.org/2000/svg"><path d="M135.033 63.372L75.892 22.2a7.907 7.907 0 00-.541-.345c-1.403-.81-3.237-1.312-5.238-1.423-2.269-.124-4.48.278-6.224 1.12L6.383 49.353c-3.607 1.74-4.09 4.865-1.075 6.967l59.146 41.168c.171.12.352.235.54.346 1.409.812 3.243 1.314 5.239 1.422 2.266.12 4.476-.278 6.224-1.12l17.595-8.508 4.672-2.26 4.531-2.188h.002l4.235-2.048 4.576-2.212 21.891-10.583c3.609-1.743 4.089-4.868 1.074-6.965zm-1.315 6.79L111.795 80.76l-4.571 2.21-4.237 2.048-4.529 2.19L76.212 97.96c-1.668.806-3.776 1.183-5.943 1.068-1.909-.102-3.657-.58-5.002-1.36a6.566 6.566 0 01-.513-.324L5.608 56.175c-2.877-2.005-2.415-4.987 1.025-6.648l57.506-27.8c1.665-.806 3.773-1.183 5.94-1.068 1.909.102 3.657.58 5 1.355.18.104.35.217.518.33l59.143 41.17c2.875 2.005 2.418 4.987-1.022 6.649z" fill="#BEBEBE"/><path d="M125.61 44.19c-.004.12-.018.237-.04.354l-.007.034a2.289 2.289 0 01-.106.366v.002a2.63 2.63 0 01-.176.375l-.015.029c-.023.04-.05.081-.075.122-.018.027-.034.056-.052.084-.029.045-.063.088-.096.13-.018.023-.034.048-.052.07a3.57 3.57 0 01-.185.215l-.061.063a4.81 4.81 0 01-.207.203c-.11.102-.23.201-.358.296l-.048.034c-.135.1-.277.194-.43.287l-.027.015c-.167.1-.342.197-.532.287l-47.6 23.011a7.745 7.745 0 01-.523.228c-.06.025-.121.043-.182.066-.12.045-.239.09-.363.128-.2.064-.403.122-.608.174-.043.012-.088.018-.13.03a9.232 9.232 0 01-.498.106 2.418 2.418 0 01-.145.022c-.218.039-.439.068-.662.093a11.512 11.512 0 01-.712.054c-.072.005-.144.01-.216.011-.17.005-.338.005-.507.003h-.162a15.569 15.569 0 01-.651-.034c-.04-.002-.08-.01-.12-.014a10.122 10.122 0 01-.525-.059c-.07-.008-.137-.022-.205-.033a9.57 9.57 0 01-.441-.077c-.072-.014-.144-.032-.216-.047a7.817 7.817 0 01-.674-.174 8.323 8.323 0 01-.739-.251c-.12-.047-.232-.1-.347-.151-.054-.025-.11-.045-.164-.073a6.406 6.406 0 01-.917-.528L16.877 35.566c-1.081-.752-1.606-1.666-1.604-2.574L15.214 54c-.002.907.523 1.822 1.604 2.573l48.957 34.08a6.457 6.457 0 00.917.529c.056.027.115.05.171.074.11.05.219.1.333.145l.007.002c.239.095.487.176.74.25l.087.03c.038.011.081.018.12.03.152.04.308.078.466.114.047.012.094.025.144.036.025.005.05.007.072.014.146.03.295.054.444.077l.166.029c.012.002.025.002.037.005.173.024.349.042.527.058.036.002.072.01.11.011h.01c.215.019.434.03.65.034h.018c.047.003.095-.002.142 0 .17.003.338.003.51-.002h.056c.054-.002.105-.009.16-.011.162-.007.324-.018.486-.032l.11-.007c.039-.004.077-.01.115-.015.223-.025.444-.054.663-.093.034-.007.07-.009.103-.014l.04-.008a11 11 0 00.499-.107c.043-.01.088-.018.13-.029.208-.052.41-.11.609-.174l.018-.004c.117-.039.23-.082.344-.124.061-.023.124-.043.183-.066.178-.07.354-.147.523-.228l47.6-23.011c.187-.09.363-.188.529-.287l.021-.011c.002-.002.004-.002.006-.005.153-.092.295-.187.428-.286.016-.012.034-.023.05-.036a6.06 6.06 0 00.358-.296c.009-.01.023-.018.032-.027l.029-.03c.052-.047.099-.097.146-.146.021-.02.041-.043.061-.064.065-.07.126-.142.185-.214l.002-.002a.857.857 0 00.047-.066c.034-.045.068-.088.097-.133l.052-.081c.027-.04.052-.082.077-.124l.006-.012.01-.018a2.99 2.99 0 00.175-.375v-.002c.045-.122.079-.244.106-.365l.007-.023c0-.002 0-.007.002-.01.023-.117.036-.236.041-.354 0-.01.002-.02.004-.031v-.061l.059-21.007c0 .03-.005.059-.005.09z" fill="#BEC1D0"/><path d="M74.615 7.166c.151.088.297.18.437.278l48.957 34.08c2.442 1.7 2.052 4.221-.868 5.634l-47.598 23.01c-2.753 1.331-6.779 1.198-9.275-.247a6.406 6.406 0 01-.434-.275l-48.957-34.08c-2.442-1.7-2.052-4.222.867-5.635l47.6-23.009c2.754-1.332 6.777-1.2 9.271.244z" fill="#fff"/><path d="M96.182 40.284l.011-3.795c.007.005.011.01.018.014l-.011 3.795-.018-.014z" fill="#141EA7"/><path d="M97.556 38.677v-.027c0-.064-.004-.125-.011-.188l-.009-.054-.007-.047c-.004-.023-.004-.043-.009-.066a1.693 1.693 0 00-.038-.16l-.007-.025c-.002-.011-.007-.02-.009-.032a1.494 1.494 0 00-.085-.239.036.036 0 00-.01-.016.103.103 0 00-.01-.022l-.048-.102c-.023-.045-.05-.09-.074-.135a.096.096 0 01-.012-.02c-.004-.007-.009-.016-.015-.023-.019-.032-.039-.061-.059-.093a1.762 1.762 0 00-.095-.13.137.137 0 00-.02-.026l-.02-.027a1.898 1.898 0 00-.063-.079c-.039-.042-.077-.088-.117-.13-.01-.012-.02-.02-.03-.03a7.518 7.518 0 00-.029-.03c-.022-.022-.045-.047-.07-.07a2.735 2.735 0 00-.178-.155c-.011-.011-.025-.02-.036-.032l-.095-.079a3.89 3.89 0 00-.184-.135v.002l-.018-.013-.011 3.794c.105.075.204.15.297.229l.038.031c.088.075.171.151.248.228l.03.03c.076.079.146.158.209.239l.02.027c.063.081.122.165.174.248.004.007.009.016.015.023.052.086.097.171.135.257.005.007.007.016.012.023a1.9 1.9 0 01.094.257l.01.032c.024.083.04.167.053.25l.007.048c.011.088.018.178.018.266l.01-3.8zM74.277 21.233a2.903 2.903 0 00-.196-.129c-.056-.036-.115-.07-.174-.106a6.182 6.182 0 00-.378-.2c-.007-.003-.013-.008-.02-.01-.034-.016-.07-.03-.104-.045a4.068 4.068 0 00-.3-.131c-.08-.034-.166-.063-.25-.093-.056-.02-.11-.043-.169-.063-.018-.007-.038-.011-.056-.018a10.013 10.013 0 00-.446-.13l-.15-.04-.107-.026a2.362 2.362 0 00-.121-.023c-.131-.027-.262-.054-.395-.077-.038-.006-.076-.015-.117-.022-.031-.005-.065-.007-.097-.012-.099-.013-.198-.027-.297-.038-.054-.007-.106-.016-.16-.02a1.943 1.943 0 00-.113-.01 2.161 2.161 0 00-.121-.008l-.124-.01a6.28 6.28 0 00-.29-.013h-.082l-.178-.004c-.083 0-.169 0-.252.002-.016 0-.034 0-.05.002-.016 0-.031 0-.047.002-.05.003-.097.003-.147.005a4.114 4.114 0 00-.24.013l-.088.007c-.018.002-.036.002-.054.005l-.1.006c-.078.007-.16.016-.238.025-.045.005-.088.012-.133.016l-.048.007-.056.007a6.882 6.882 0 00-.426.07l-.025.004-.017.002c-.077.016-.154.03-.23.048-.077.016-.151.034-.226.052l-.018.004c-.006.003-.015.005-.022.007l-.183.047a6.46 6.46 0 00-.223.066l-.05.016-.044.013-.129.04-.227.082-.068.027a.55.55 0 00-.054.023 5.68 5.68 0 00-.342.147c-.027.01-.052.024-.08.038l-20.63 9.976a2.959 2.959 0 00-.208.108l-.135.075c-.027.016-.054.03-.079.043l-.027.018c-.07.04-.135.083-.2.126-.014.01-.03.018-.043.027-.002.003-.005.003-.005.005a3.989 3.989 0 00-.284.21c-.01.009-.022.016-.031.022a4.377 4.377 0 00-.241.215l-.014.014a3.29 3.29 0 00-.196.205l-.047.056c-.05.059-.095.118-.138.176l-.031.043a2.869 2.869 0 00-.162.269c-.032.06-.061.12-.086.18-.009.019-.016.039-.025.057a2.944 2.944 0 00-.085.264 1.71 1.71 0 00-.038.197l-.01.063a2.016 2.016 0 00-.015.232l-.012 3.795c0-.077.007-.156.016-.232.002-.02.007-.043.01-.064.008-.065.022-.13.038-.194.002-.013.004-.027.008-.04a2.048 2.048 0 01.102-.282c.025-.061.054-.12.085-.181l.028-.054c.04-.072.085-.147.135-.217l.031-.043c.043-.059.088-.12.138-.176l.047-.056c.06-.07.126-.138.196-.206l.014-.013c.065-.064.137-.127.211-.188l.061-.05c.09-.072.183-.142.284-.21l.047-.029c.066-.043.13-.086.2-.126l.109-.061.135-.075a4.5 4.5 0 01.21-.106l20.631-9.976a8.036 8.036 0 01.478-.207c.137-.055.279-.104.421-.15a7.472 7.472 0 01.5-.145c.01-.001.016-.004.025-.006.162-.04.324-.077.491-.108.007-.002.016-.002.022-.005a8.604 8.604 0 01.532-.083c.156-.02.313-.036.471-.05l.054-.004c.158-.012.318-.02.475-.025.016 0 .032 0 .046-.003.162-.004.322-.002.484.003h.045c.15.004.3.013.45.025.041.002.082.006.12.009a11.333 11.333 0 01.57.067l.214.034c.133.023.264.048.394.077.077.016.153.032.228.05.05.01.099.024.148.038.106.027.212.059.316.09l.13.041c.077.025.151.054.228.081.083.03.167.059.248.093.103.04.203.086.302.13.033.017.07.03.101.046a5.55 5.55 0 01.768.445l21.914 15.256.01-3.795-21.917-15.256z" fill="#B3B4C8"/><path d="M73.896 24.793c.128.074.252.151.37.235l21.913 15.256c2.075 1.445 1.746 3.59-.737 4.79L74.808 55.05c-2.34 1.13-5.762 1.02-7.887-.21a4.65 4.65 0 01-.37-.235L44.639 39.35c-2.077-1.445-1.746-3.59.737-4.791l20.632-9.976c2.345-1.131 5.767-1.018 7.889.21z" fill="#D4D7E0"/><path d="M119.615 41.18c2.253 1.57 1.893 3.904-.799 5.204L75.845 67.158c-1.307.63-2.958.928-4.652.835-1.494-.079-2.864-.453-3.913-1.06a5.36 5.36 0 01-.404-.258L22.678 35.911c-2.253-1.569-1.892-3.903.802-5.206L66.45 9.931c1.305-.63 2.959-.927 4.65-.837 1.496.081 2.866.456 3.916 1.063.14.082.275.167.403.258l44.196 30.766zm-.984 5.078c2.57-1.244 2.915-3.472.764-4.97L75.198 10.522a5.98 5.98 0 00-.387-.246c-1.003-.58-2.31-.937-3.735-1.014-1.62-.086-3.195.196-4.44.8L23.662 30.83c-2.571 1.245-2.916 3.473-.764 4.97l44.196 30.766c.122.085.25.167.385.244 1.003.58 2.312.936 3.738 1.013 1.62.086 3.194-.196 4.44-.8l42.973-20.766z" fill="#E1E2E7"/><path d="M130.592 34.225l-.007 2.761-4.043 2.355.006-2.761 4.044-2.355z" fill="#07B182"/><path d="M126.548 36.58l-.007 2.76-4.071-2.354.007-2.761 4.071 2.355z" fill="#057B5A"/><path d="M130.592 34.225l-4.044 2.355-4.07-2.355 4.043-2.355 4.071 2.355z" fill="#08C591"/><path d="M135.185 26.213l-.006 2.208-2.213 1.289.005-2.208 2.214-1.289z" fill="#07B182"/><path d="M132.973 27.502l-.005 2.208-2.228-1.29.005-2.207 2.228 1.289z" fill="#057B5A"/><path d="M135.186 26.213l-2.214 1.289-2.228-1.29 2.214-1.288 2.228 1.289z" fill="#08C591"/><path d="M6.284 12.374l-.004 2.208-2.215 1.29.007-2.209 2.212-1.289z" fill="#07B182"/><path d="M4.072 13.663l-.007 2.208-2.228-1.289.007-2.208 2.228 1.29z" fill="#057B5A"/><path d="M6.284 12.374l-2.212 1.29-2.228-1.29 2.212-1.289 2.228 1.29z" fill="#08C591"/><path d="M141 35.455l-.009 2.761-2.478 1.443.007-2.759 2.48-1.445z" fill="#07B182"/><path d="M138.521 36.9l-.007 2.759-2.902-1.678.007-2.76 2.902 1.68z" fill="#057B5A"/><path d="M141 35.455l-2.48 1.445-2.902-1.68 2.481-1.444 2.901 1.68z" fill="#08C591"/><path d="M8.12 23.714l-.006 2.76L4.07 28.83l.007-2.758 4.043-2.357z" fill="#07B182"/><path d="M4.078 26.07l-.007 2.76L0 26.474l.007-2.761 4.07 2.357z" fill="#057B5A"/><path d="M8.122 23.714L4.078 26.07.007 23.714l4.046-2.355 4.069 2.355z" fill="#08C591"/><path d="M18.535 17.307l-.007 2.759-2.48 1.444.006-2.76 2.48-1.443z" fill="#07B182"/><path d="M16.054 18.75l-.007 2.76-2.904-1.68.007-2.76 2.904 1.68z" fill="#057B5A"/><path d="M18.533 17.307l-2.48 1.443-2.905-1.68 2.48-1.445 2.905 1.682z" fill="#08C591"/><path d="M123.328 100.495h-.273v-2.404c0-.738-.394-1.433-1.027-1.81L102.833 85.09l.215-.109 19.117 11.065a2.386 2.386 0 011.163 2.045v2.404zm-20.09-1.745h-.273v-3.49a.868.868 0 00-.437-.711l-8.793-4.944.133-.24 8.795 4.947c.343.196.559.549.577.944l-.002 3.494z" fill="#BEBEBE"/><path d="M102.992 101.947c-.649 0-1.293-.133-1.798-.404-.554-.298-.867-.716-.883-1.176-.016-.459.268-.892.795-1.222 1.041-.652 2.774-.706 3.862-.122.554.298.867.716.883 1.177.016.458-.268.891-.795 1.221-.557.348-1.314.526-2.064.526zm.178-3.059c-.696 0-1.399.165-1.917.49-.442.275-.678.625-.667.98.011.359.275.693.739.943 1.009.542 2.62.492 3.586-.113.442-.275.679-.625.667-.979-.011-.36-.275-.693-.739-.944-.468-.255-1.067-.377-1.669-.377zm19.935 4.795c-.648 0-1.293-.133-1.797-.404-.555-.298-.868-.716-.884-1.176-.015-.459.269-.892.796-1.222 1.041-.652 2.773-.706 3.861-.121.554.298.867.715.883 1.176.016.458-.268.891-.795 1.221-.559.35-1.316.526-2.064.526zm.176-3.059c-.696 0-1.399.165-1.917.49-.442.275-.678.625-.667.98.011.359.275.693.739.943 1.009.542 2.62.493 3.587-.112.441-.276.678-.626.666-.98-.011-.359-.275-.693-.739-.944-.468-.253-1.065-.377-1.669-.377zm-9.93 4.195h-.273v-7.547c0-.739-.394-1.434-1.027-1.811l-13.756-8.19.31-.133 13.585 8.088a2.39 2.39 0 011.163 2.046v7.547h-.002z" fill="#BEBEBE"/><path d="M113.126 108.083c-.649 0-1.293-.133-1.798-.404-.554-.298-.867-.716-.883-1.176-.016-.459.268-.892.795-1.222 1.041-.652 2.773-.706 3.862-.122.554.298.867.716.883 1.177.015.458-.268.891-.796 1.221-.558.348-1.313.526-2.063.526zm.178-3.059c-.696 0-1.399.165-1.917.49-.442.275-.678.625-.667.98.011.359.275.693.739.943 1.009.542 2.62.492 3.586-.113.442-.275.678-.625.667-.979-.011-.359-.275-.693-.739-.944-.468-.253-1.068-.377-1.669-.377zm20.073-15.236h-14.916l-11.35-6.766.259-.124 11.165 6.617h14.842v.273zm-9.634-5.816l-7.087-.223-5.009-2.917.296-.144 4.789 2.79 7.02.221-.009.273z" fill="#BEBEBE"/><path d="M135.92 91.15c-.649 0-1.293-.134-1.798-.405-.554-.298-.867-.716-.883-1.176-.016-.458.268-.892.795-1.222 1.041-.652 2.773-.706 3.862-.121.554.298.867.715.883 1.176.015.458-.268.892-.796 1.221-.556.35-1.313.526-2.063.526zm.176-3.06c-.697 0-1.4.165-1.918.49-.441.276-.678.625-.666.98.011.359.274.693.738.944 1.012.541 2.62.492 3.587-.113.442-.276.678-.626.667-.98-.011-.36-.275-.693-.739-.944-.466-.253-1.066-.377-1.669-.377zm-9.752-2.59c-.649 0-1.293-.132-1.798-.403-.554-.298-.867-.716-.883-1.176-.016-.459.268-.892.795-1.222 1.041-.652 2.774-.706 3.862-.122.554.298.867.716.883 1.176.016.459-.268.892-.795 1.222-.559.347-1.314.526-2.064.526zm.176-3.06c-.696 0-1.399.164-1.917.49-.442.275-.678.625-.667.98.011.358.275.692.739.943 1.009.542 2.62.492 3.586-.113.442-.275.678-.625.667-.98-.011-.359-.275-.693-.739-.943-.466-.253-1.065-.377-1.669-.377zM16.946 91.9l.272.021.172-2.397a2.11 2.11 0 011.155-1.732l19.064-9.355-.207-.124-18.978 9.233a2.395 2.395 0 00-1.307 1.957l-.171 2.398zm20.162-.295l.273.02.25-3.48a.861.861 0 01.487-.678l7.4-3.508-.248-.183L38 87.219a1.145 1.145 0 00-.642.898l-.25 3.488z" fill="#BEBEBE"/><path d="M35.103 94.136c-.502-.368-.754-.822-.705-1.276.047-.458.392-.853.967-1.108 1.126-.503 2.85-.325 3.843.4.502.367.755.819.705 1.275-.047.458-.39.853-.964 1.11-.523.235-1.174.321-1.82.274-.75-.054-1.492-.287-2.026-.675zM35.475 92c-.482.215-.768.53-.804.888-.038.354.173.717.595 1.027.921.672 2.523.84 3.57.37.482-.217.769-.53.805-.89.038-.354-.174-.718-.595-1.024-.493-.362-1.183-.576-1.877-.626-.601-.043-1.207.038-1.694.255zm-20.552 2.425c-.503-.368-.755-.82-.705-1.276.047-.458.39-.853.964-1.108 1.126-.504 2.85-.325 3.843.4.503.367.755.819.705 1.275-.047.458-.39.853-.964 1.109-.523.234-1.174.32-1.82.273-.75-.055-1.492-.285-2.023-.673zm.37-2.136c-.483.215-.77.53-.805.888-.038.354.173.717.595 1.024.921.673 2.523.84 3.57.37.483-.214.769-.53.805-.886.038-.355-.174-.718-.595-1.026-.494-.36-1.183-.575-1.877-.625-.601-.045-1.207.036-1.694.255zm11.294 4.639l.273.02.54-7.526c.053-.738.496-1.4 1.156-1.731l12.977-6.518-.3-.156-12.798 6.428a2.388 2.388 0 00-1.305 1.957l-.543 7.526z" fill="#BEBEBE"/><path d="M24.558 99.53c-.503-.369-.755-.82-.706-1.276.048-.459.39-.854.965-1.111 1.126-.503 2.85-.325 3.843.4.502.368.755.82.705 1.275-.047.458-.39.853-.964 1.109-.523.234-1.174.32-1.82.273-.75-.052-1.492-.282-2.023-.67zm.371-2.136c-.482.216-.768.53-.804.887-.038.354.173.718.595 1.025.921.672 2.523.84 3.57.37.483-.215.769-.53.805-.887.038-.355-.174-.718-.595-1.025-.493-.361-1.183-.576-1.877-.626-.603-.042-1.21.037-1.694.256zM7.692 80.498L22.57 81.57l11.34-5.693-.22-.156-11.177 5.572-14.8-1.068-.021.273zm10.024-5.107l7.085.287 5.205-2.55-.287-.166-4.976 2.44-7.015-.286-.012.275z" fill="#BEBEBE"/><path d="M3.035 81.001c-.503-.368-.755-.819-.706-1.275.048-.458.392-.853.967-1.11 1.126-.506 2.85-.326 3.843.399.503.368.755.82.705 1.275-.047.459-.39.854-.964 1.109-.523.235-1.174.32-1.822.273-.75-.052-1.492-.282-2.023-.67zm.371-2.135c-.482.217-.768.53-.806.887-.039.355.173.718.594 1.025.922.673 2.524.84 3.571.37.482-.214.768-.53.804-.887.039-.354-.173-.718-.594-1.025-.494-.361-1.183-.576-1.877-.625-.601-.043-1.205.036-1.692.255zm9.587-2.813c-.502-.368-.754-.82-.705-1.276.048-.458.39-.853.965-1.108 1.126-.504 2.85-.325 3.843.4.502.367.755.819.705 1.275-.047.458-.39.853-.964 1.109-.523.234-1.174.32-1.82.273-.75-.052-1.492-.285-2.024-.673zm.372-2.136c-.482.215-.768.53-.804.888-.038.354.173.717.595 1.024.921.673 2.523.84 3.57.37.483-.214.769-.53.805-.886.038-.355-.174-.718-.595-1.026-.493-.36-1.183-.575-1.877-.625-.603-.043-1.21.039-1.694.255z" fill="#BEBEBE"/><mask id="a" style="mask-type:luminance" maskUnits="userSpaceOnUse" x="40" y="15" width="2" height="6"><path d="M40.638 19.395l.241-3.673c-.03.445.236.908.8 1.282l-.241 3.673c-.564-.375-.83-.84-.8-1.282z" fill="#fff"/></mask><g mask="url(#a)"><path d="M41.68 17.004l-.24 3.673c-.566-.377-.83-.84-.8-1.282l.24-3.673c-.031.445.235.908.8 1.282z" fill="#0B1160"/></g><path d="M104.028 28.233c.013-.006.025-.013.038-.018l.081-.047c.039-.02.077-.043.111-.063.031-.02.058-.041.087-.061.032-.023.066-.046.095-.07l.02-.014c.012-.009.021-.02.034-.032.05-.04.093-.083.135-.128.009-.01.021-.018.03-.027.009-.01.013-.02.022-.03.027-.031.052-.065.077-.099l.031-.04c.005-.007.007-.016.012-.023.018-.03.033-.059.049-.09l.029-.052.007-.018c.011-.03.023-.06.032-.088.006-.02.015-.039.02-.06.002-.004.002-.01.002-.015.007-.032.011-.06.016-.092.002-.02.009-.041.011-.061 0-.01.003-.019.003-.028l.241-3.673c-.003.03-.009.057-.014.086a1.042 1.042 0 01-.016.095.724.724 0 01-.024.075c-.01.029-.019.058-.032.087a.73.73 0 01-.036.07c-.016.03-.032.061-.05.09a.532.532 0 01-.045.064.972.972 0 01-.076.1c-.016.02-.034.038-.052.056a2.1 2.1 0 01-.135.129l-.052.045c-.029.025-.063.047-.097.07-.029.02-.056.04-.088.06-.036.023-.074.043-.11.066a2.694 2.694 0 01-.117.066l-27.073 13.56a3.57 3.57 0 01-.288.125l-.088.031a4.189 4.189 0 01-.239.075l-.088.025c-.051.013-.103.022-.155.034a3.623 3.623 0 01-.286.05c-.038.004-.075.01-.113.015a4.2 4.2 0 01-.34.025c-.036.002-.07.002-.106.002a2.978 2.978 0 01-.203 0c-.042 0-.085-.002-.13-.004a3.83 3.83 0 01-.162-.01l-.136-.01a3.372 3.372 0 01-.15-.019l-.138-.02c-.05-.01-.1-.016-.147-.025l-.132-.027a3.826 3.826 0 01-.156-.038c-.04-.012-.08-.02-.121-.034a5.872 5.872 0 01-.282-.09 3.503 3.503 0 01-.313-.13c-.05-.022-.097-.047-.147-.072-.025-.013-.052-.024-.074-.038a3.36 3.36 0 01-.212-.129L41.681 17.004l-.241 3.673 31.316 20.851c.068.045.138.088.212.129l.074.038.13.068.017.007c.101.047.205.088.313.128.009.002.016.007.025.011.024.01.05.016.074.023.06.02.12.038.183.056.015.005.031.012.049.016l.072.018.156.039c.02.004.04.011.063.016l.067.01.149.028.07.014.065.006c.05.007.1.012.151.018l.077.01.06.004c.054.004.109.007.163.009a.956.956 0 00.08.004h.048c.068.003.135 0 .203 0h.08l.026-.002a4.77 4.77 0 00.34-.025c.004 0 .011 0 .018-.002l.097-.014c.056-.006.11-.015.166-.024.041-.007.08-.016.12-.025.052-.011.103-.02.155-.034l.034-.007c.018-.004.036-.011.054-.016a4.11 4.11 0 00.239-.074c.03-.011.059-.02.088-.032.099-.038.196-.079.288-.124l27.066-13.568z" fill="#0B1160"/><path d="M104.409 22.12c1.122.747 1.059 1.84-.137 2.44L77.199 38.121c-1.198.6-3.08.481-4.201-.266L41.68 17.005c-1.122-.748-1.059-1.838.14-2.441l27.07-13.56c1.198-.6 3.08-.482 4.201.265l31.317 20.85z" fill="#0854F5"/><path d="M48.325 16.198c.037-.56-.715-1.065-1.68-1.129-.964-.063-1.776.339-1.813.899-.037.56.716 1.065 1.68 1.128.965.064 1.777-.338 1.813-.898zm24.15-11.883c.037-.56-.715-1.066-1.68-1.13-.965-.063-1.776.34-1.813.9-.037.56.716 1.065 1.68 1.128.965.064 1.776-.339 1.813-.898zm28.648 18.695c.037-.56-.715-1.066-1.68-1.13-.965-.063-1.776.34-1.813.9-.037.56.716 1.064 1.68 1.128.965.063 1.776-.339 1.813-.899zm-24.28 12.198c.037-.56-.716-1.065-1.68-1.129-.965-.063-1.777.339-1.813.899-.037.56.715 1.065 1.68 1.128.964.064 1.776-.338 1.813-.898z" fill="#426CF6"/><path d="M62.522 16.505c.937-2.019 3.667-3.595 7.164-4.136l1.882-.291c3.496-.541 7.226.036 9.786 1.513l1.377.796c2.56 1.477 3.56 3.631 2.623 5.65l-.505 1.086c-.936 2.019-3.667 3.596-7.163 4.136l-1.883.292c-3.496.54-7.226-.037-9.786-1.514l-1.377-.796c-2.56-1.477-3.56-3.631-2.623-5.65l.505-1.086z" fill="#fff"/><path d="M69.759 14.971l-.332.192 4.25 2.454-1.508.87-2.535-1.463-3.015 1.74 6.444 3.72c1.519.877 3.957.896 5.437.042l.331-.192-3.997-2.308 1.508-.87 2.638 1.522 3.015-1.74-6.8-3.926c-1.518-.877-3.957-.895-5.436-.04zm7.7 7.337c-1.12.458-2.706.386-3.732-.206l-1.244-.718 1.688-.975 3.288 1.899zm3.191-3.38l-1.687.974-2.638-1.523-4.523 2.611-3.838-2.216 1.687-.974 2.536 1.464 4.523-2.611 3.94 2.275zm-4.621-2.669l-1.688.975-3.541-2.045c1.119-.458 2.705-.387 3.732.206l1.497.864z" fill="#00165B"/></svg>