<svg width="29" height="32" fill="none" xmlns="http://www.w3.org/2000/svg"><path d="M14.208 32h-.503c-.047-.02-.094-.047-.14-.062A24.858 24.858 0 018.7 30.297c-2.351-1.074-4.51-2.427-6.23-4.387C.952 24.175.012 22.194.007 19.855c-.01-5-.005-10.012 0-15.019 0-.655.358-1.022 1.017-1.053 1.002-.046 2.01-.077 3.011-.16 2.04-.17 4.044-.521 5.985-1.187 1.277-.439 2.482-1.001 3.452-1.971.182-.181.41-.315.613-.465h.441c.213.18.426.351.633.537.24.217.452.464.706.666 1.038.81 2.253 1.264 3.51 1.61 2.455.676 4.972.929 7.51.975.795.016 1.117.346 1.117 1.136 0 4.903.01 9.806-.01 14.71a10.041 10.041 0 01-.244 2.193c-.51 2.194-1.807 3.907-3.489 5.357-2.227 1.915-4.807 3.19-7.579 4.12-.815.273-1.645.469-2.47.696zM1.901 5.667c-.006.098-.01.17-.01.243v13.966c0 .883.186 1.734.529 2.55.716 1.698 1.952 2.968 3.42 4.03 2.41 1.745 5.13 2.83 7.984 3.598.13.036.291.02.426-.015.664-.191 1.329-.377 1.978-.604 2.497-.867 4.864-1.982 6.872-3.732 1.88-1.636 3.032-3.613 3.016-6.188-.03-4.49-.01-8.976-.01-13.466v-.372a4.293 4.293 0 00-.285-.03c-1.127-.088-2.259-.14-3.38-.274-1.936-.238-3.825-.681-5.621-1.481-.93-.413-1.797-.94-2.56-1.59-3.716 2.586-7.968 3.18-12.36 3.365z" fill="#001042"/><path d="M11.182 15.07h8.228c.851 0 1.194.347 1.194 1.198v7.061c0 .81-.353 1.166-1.163 1.166H8.54c-.779 0-1.132-.35-1.132-1.125v-7.184c0-.754.358-1.11 1.116-1.11h.774c0-.929-.021-1.827.01-2.715.016-.506.062-1.027.208-1.507.633-2.147 2.72-3.494 5.004-3.277 2.19.211 3.97 2.002 4.173 4.206.016.155.037.315.026.465-.03.521-.425.913-.929.918a.929.929 0 01-.945-.893c-.036-.603-.176-1.171-.534-1.667-.717-.985-1.957-1.398-3.151-1.037a2.742 2.742 0 00-1.962 2.586c-.026.95-.016 1.904-.016 2.916zm-1.869 7.516h9.39V16.97h-9.39v5.616z" fill="#001042"/><path d="M13.066 19.773a.942.942 0 01.935-.934c.508 0 .94.423.945.929a.961.961 0 01-.96.95.931.931 0 01-.92-.945z" fill="#001042"/></svg>