<svg width="72" height="81" fill="none" xmlns="http://www.w3.org/2000/svg"><g clip-path="url(#clip0_4830_1617)"><path d="M48.413 80.843H1.01c-.19 0-.343-.256-.343-.57 0-.315.154-.57.343-.57h47.403c.19 0 .343.255.343.57 0 .314-.154.57-.343.57z" fill="#000"/><path d="M44.445 1.505H28.072v70.534h16.373V1.505z" fill="#fff"/><path d="M44.438 72.61H28.072a.567.567 0 01-.563-.57V1.504c0-.315.253-.57.563-.57h16.373c.31 0 .562.255.562.57v70.534a.577.577 0 01-.569.57zm-15.804-1.141h15.248V2.075H28.635V71.47z" fill="#000"/><path d="M17.607 23.979H1.234v48.06h16.373V23.98z" fill="#FFB217"/><path d="M17.6 72.61H1.234a.567.567 0 01-.563-.57V23.978c0-.315.252-.57.563-.57h16.373c.31 0 .562.255.562.57v48.06a.576.576 0 01-.569.57zM1.796 71.469h15.248v-46.92H1.796v46.92z" fill="#000"/><path d="M46.145 53.957c3.923 3.92 7.853 7.835 11.777 11.755 2.075 2.072 4.15 4.143 6.412 5.94 1.222.97 2.573 1.881 4.06 1.881 1.48 0 3.057-1.265 3.044-2.97-.007-1.324-.912-2.393-1.758-3.297a278.366 278.366 0 00-19.573-18.993c-1.24 1.85-2.482 3.698-3.962 5.684z" fill="#fff"/><path d="M68.393 74.103c-1.654 0-3.096-.963-4.408-2.006-2.288-1.816-4.408-3.933-6.457-5.979L45.75 54.364a.577.577 0 01-.052-.754c1.467-1.974 2.727-3.842 3.95-5.651a.573.573 0 01.393-.25.563.563 0 01.44.132 279.516 279.516 0 0119.611 19.031c.918.984 1.9 2.164 1.914 3.685.006.885-.35 1.743-1.002 2.406-.705.714-1.674 1.14-2.612 1.14zM46.888 53.898l11.428 11.4c2.03 2.027 4.124 4.118 6.367 5.894 1.15.918 2.398 1.764 3.71 1.764.64 0 1.319-.302 1.81-.8.44-.446.679-1.016.672-1.593-.006-1.108-.795-2.045-1.603-2.904a278.948 278.948 0 00-19.055-18.533c-1.034 1.534-2.107 3.12-3.329 4.772z" fill="#000"/><path d="M30.82 10.63c-13.523 0-24.486 11.119-24.486 24.833 0 13.715 10.963 24.834 24.485 24.834 13.523 0 24.485-11.119 24.485-24.834 0-13.714-10.962-24.833-24.485-24.833zm0 43.701c-10.272 0-18.597-8.444-18.597-18.861s8.325-18.868 18.596-18.868 18.597 8.444 18.597 18.861c0 10.418-8.326 18.868-18.597 18.868zm0 0c-10.272 0-18.597-8.444-18.597-18.861s8.325-18.868 18.596-18.868 18.597 8.444 18.597 18.861c0 10.418-8.326 18.868-18.597 18.868z" fill="#fff"/><path d="M30.819 60.874C17.006 60.874 5.77 49.48 5.77 35.47s11.236-25.404 25.05-25.404c13.813 0 25.047 11.394 25.047 25.404 0 14.004-11.234 25.404-25.047 25.404zm0-49.673c-13.193 0-23.923 10.882-23.923 24.263 0 13.38 10.73 24.263 23.923 24.263 13.193 0 23.923-10.883 23.923-24.263 0-13.374-10.73-24.263-23.923-24.263zm0 43.7c-10.562 0-19.159-8.719-19.159-19.43 0-10.713 8.597-19.432 19.159-19.432s19.159 8.719 19.159 19.431c0 10.712-8.59 19.432-19.16 19.432zM12.785 35.465c0 10.09 8.093 18.29 18.034 18.29 9.941 0 18.034-8.207 18.034-18.29 0-10.09-8.093-18.291-18.034-18.291-9.941 0-18.034 8.208-18.034 18.29z" fill="#000"/><path d="M49.3 54.666c-.02 0-.033 0-.052-.007-.097-.026-.156-.131-.13-.236l.433-1.528a.185.185 0 01.233-.13c.097.026.155.13.13.235l-.434 1.528a.187.187 0 01-.18.138zm2.06 2.681h-.025a.192.192 0 01-.162-.216c.233-1.783.511-3.592.828-5.362a.188.188 0 11.368.072c-.316 1.77-.594 3.566-.82 5.35a.195.195 0 01-.188.156zm2.677 2.596a.189.189 0 01-.187-.19c0-.892.135-2.393.252-3.717.07-.806.135-1.501.155-1.94.006-.106.084-.19.194-.178a.184.184 0 01.174.197c-.02.446-.084 1.147-.161 1.96-.117 1.318-.252 2.806-.252 3.685.012.098-.072.183-.175.183zm2.735 2.564a.188.188 0 01-.188-.184l-.142-6.346c0-.105.078-.19.18-.197h.007c.104 0 .188.085.188.184l.142 6.346c.006.105-.078.19-.188.197.007 0 .007 0 0 0zm2.604 2.805c-.103 0-.18-.078-.187-.183l-.246-6.641a.19.19 0 01.181-.197c.097 0 .188.079.194.184l.246 6.64a.19.19 0 01-.181.197h-.007zm2.657 2.36a.19.19 0 01-.188-.177l-.33-6.202a.19.19 0 01.175-.203.182.182 0 01.2.177l.33 6.202a.19.19 0 01-.174.203h-.013zm2.624 2.19a.19.19 0 01-.187-.177l-.46-6.038a.19.19 0 01.175-.203c.097-.013.194.072.2.177l.46 6.038a.19.19 0 01-.175.203h-.013zm2.489 1.96a.19.19 0 01-.188-.17l-.536-5.297a.19.19 0 01.168-.21c.097-.013.194.066.207.17l.536 5.297a.19.19 0 01-.168.21h-.02zm2.43-.282a.194.194 0 01-.187-.157l-.375-2.367a.183.183 0 01.155-.216c.103-.02.2.053.213.157l.375 2.367a.183.183 0 01-.155.216h-.026z" fill="#000"/><path d="M48.142 41.476c-.614.524-.899 1.376-1.422 2-.097.176-1.351 1.612-2.062 2.3a27.458 27.458 0 01-1.803 1.508.912.912 0 00-.317.125c-3.064 2.248-5.359 3.068-9.23 3.789-1.836.347-3.956.642-6.846-.085-2.03-.479-3.006-1.043-5.126-2.492-.898-.642-2.902-2.432-4.266-4.104-1.467-2.032-1.965-3.808-2.269-4.615-.303-.832-.536-1.685-.775-2.537-.356-1.167-.466-1.58-.466-2.576a33.091 33.091 0 01-.614-1.921 1.186 1.186 0 00-.581-.112c-.33 2.564-.278 5.14.038 7.697.55 2.21 1.229 4.602 3.316 6.982 1.68 1.881 2.838 2.53 3.562 3.134 1.687 1.232 3.484 2.36 5.468 3.015 1.086.322 2.217.453 3.336.59.006 0 .013 0 .02.007 1.22.223 2.462.23 3.69.092.963-.08 1.894-.367 2.825-.623 1.932-.479 3.858-1.082 5.623-2.026.718-.446.963-.623 1.3-.878 2.165-1.37 4.401-3.272 5.545-4.596a40.41 40.41 0 00.854-1.888c.336-.95.678-1.901 1.008-2.852a.907.907 0 00-.808.066zm3.995 8.102c-.931-.269-1.558.387-2.017 1.108-.02.026-.039.046-.065.079-.814.963-1.04.878-2.385 2.11-.006.007-.013.007-.02.014-.264.19-.58.321-.749.616-1.131 1.41.595 3.376 2.127 2.459 1.066-.597 1.984-1.443 2.72-2.426.473-.525.932-1.069 1.294-1.678.523-.853.038-2.026-.905-2.282z" fill="#000" opacity=".129"/><path d="M27.49 30.58c-1.635-.157-2.954-1.704-3.09-3.363-.129-1.659.796-3.298 2.153-4.235 1.357-.938 3.083-1.213 4.712-1.01 2.088.262 4.124 1.338 5.288 3.114 1.163 1.777 1.312 4.268.122 6.025-1.06 1.573-3.07 2.537-3.484 4.399-.297 1.311.246 2.937-.704 3.875-.75.74-2.088.504-2.8-.27-.71-.773-.91-1.907-.878-2.962.02-.617.103-1.233.33-1.803.924-2.354 4.046-3.639 4.091-6.17.026-1.206-.814-2.38-1.945-2.733-.912-.282-2.12.118-2.302 1.062-.123.642.265 1.265.35 1.908.11.872-.388 1.79-1.843 2.163z" fill="#FFB217"/><path d="M31.323 40.4h-.064a2.84 2.84 0 01-1.985-.898c-.717-.78-1.073-1.94-1.034-3.37.02-.773.142-1.429.369-2 .439-1.12 1.292-1.985 2.113-2.818.983-.997 1.913-1.94 1.933-3.154.02-.957-.647-1.894-1.551-2.176a1.562 1.562 0 00-1.216.138c-.207.124-.33.288-.368.491-.052.263.045.564.155.912.078.255.162.524.2.813.136 1.035-.38 2.307-2.256 2.792a.485.485 0 01-.193.013c-1.855-.177-3.44-1.888-3.594-3.887-.143-1.79.801-3.652 2.398-4.753 1.383-.95 3.193-1.337 5.1-1.102 2.372.296 4.499 1.554 5.688 3.364 1.338 2.045 1.383 4.785.116 6.66-.446.656-1.021 1.2-1.583 1.725-.821.773-1.603 1.5-1.817 2.471-.09.407-.09.872-.09 1.357 0 .95.006 2.032-.776 2.8-.388.406-.937.622-1.545.622zm-.652-15.622c.265 0 .523.04.775.118 1.39.432 2.372 1.816 2.346 3.29-.032 1.672-1.163 2.82-2.262 3.934-.776.787-1.512 1.534-1.868 2.439-.174.446-.271.97-.29 1.606-.02.78.083 1.862.73 2.557.297.321.75.524 1.189.538.233 0 .556-.04.808-.289.44-.433.44-1.147.433-1.98 0-.53-.006-1.081.116-1.62.298-1.317 1.241-2.202 2.153-3.054.536-.505 1.047-.983 1.422-1.534 1.015-1.508.97-3.717-.123-5.389-1.008-1.534-2.831-2.603-4.887-2.858-1.635-.204-3.173.124-4.33.917-1.274.872-2.023 2.328-1.907 3.718.11 1.41 1.215 2.655 2.482 2.832.93-.27 1.41-.82 1.319-1.515a3.56 3.56 0 00-.162-.622c-.136-.433-.284-.925-.188-1.469a1.86 1.86 0 01.893-1.252 2.6 2.6 0 011.35-.367z" fill="#000"/><path d="M31.892 42.38a2.574 2.574 0 00-2.36.361 2.565 2.565 0 00-1.001 2.19c.084 1.14 1.047 2.144 2.165 2.262 1.118.118 2.262-.669 2.573-1.77.31-1.102-.15-2.616-1.377-3.042z" fill="#FFB217"/><path d="M30.922 47.77c-.09 0-.187-.007-.278-.014-1.396-.144-2.566-1.37-2.67-2.786a3.161 3.161 0 011.229-2.688 3.114 3.114 0 012.876-.439c1.52.531 2.12 2.36 1.74 3.737-.363 1.272-1.598 2.19-2.897 2.19zm.142-4.963c-.426 0-.853.131-1.195.387a1.98 1.98 0 00-.776 1.684c.065.866.808 1.646 1.661 1.738.847.092 1.739-.518 1.978-1.357.24-.852-.123-2.026-1.021-2.34a1.971 1.971 0 00-.646-.112z" fill="#000"/><path d="M17.568 57.02c.006-.354.077-.682.187-.984a38.448 38.448 0 01-3.69-2.884c-.73-.636-1.216-1.469-1.907-2.138-.685-.668-1.164-1.18-1.565-1.992-.95.301-1.544 1.252-.93 2.012 1.525 2.091 2.954 4.261 4.964 6.104.2.19.4.38.595.577.129.163.698.793.956.91.46.316 1.047.388 1.584.29-.117-.624-.207-1.26-.194-1.895zm26.302 2.51c-.013.013-.033.02-.046.033-.038.033-.077.06-.11.092.052-.04.143-.099.156-.125zm-.155.124c-.007 0-.007.007-.014.007 0 0 .007 0 .014-.007zm-.012.014c-.047.034-.04.027 0 0z" fill="#000" opacity=".129"/><path d="M43.488 57.196c-.756.36-.426.328-.866.584-1.248.8-1.48.78-2.482 1.212-2.948 1.194-6.444 1.39-8.571 1.102a10.585 10.585 0 01-1.758-.354c-.537.02-1.073.052-1.61 0-.13-.013-.245-.033-.368-.046.013.675.052 1.35.09 2.026 1.506.446 3.025.82 4.596.898 2.23.052 4.467-.282 6.613-.872 1.454-.452 2.934-.964 4.22-1.81.162-.11.324-.236.479-.36.446-.354 1.008-.715.995-1.344.013-.695-.685-1.226-1.338-1.036z" fill="#000" opacity=".129"/></g><defs><clipPath id="clip0_4830_1617"><path fill="#fff" transform="translate(0 .935)" d="M0 0h72v79.909H0z"/></clipPath></defs></svg>