<svg width="104" height="100" fill="none" xmlns="http://www.w3.org/2000/svg"><path d="M34.017 82.844l12.227 16.483 12.22-16.483h-6.877V.681H40.901v82.163h-6.884z" fill="#FFB217"/><path d="M46.245 100a.686.686 0 01-.548-.274l-12.22-16.475a.67.67 0 01-.062-.712.69.69 0 01.61-.375h6.204V.68A.67.67 0 0140.9 0h10.687a.68.68 0 01.68.68v81.484h6.204a.69.69 0 01.61.375.671.671 0 01-.063.712L46.8 99.726a.724.724 0 01-.554.274zM35.37 83.525l10.873 14.652L57.11 83.525h-5.53a.681.681 0 01-.68-.68V1.36h-9.318v81.483a.68.68 0 01-.68.681H35.37z" fill="#000"/><path d="M72.436 61.488c4.748 4.678 9.505 9.348 14.253 14.026 2.511 2.473 5.022 4.945 7.76 7.088 1.479 1.158 3.114 2.245 4.913 2.245 1.799 0 3.7-1.51 3.685-3.544-.008-1.58-1.103-2.855-2.128-3.934a334.782 334.782 0 00-23.688-22.663c-1.502 2.206-3.004 4.412-4.795 6.782z" fill="#fff"/><path d="M99.362 85.528c-2.002 0-3.747-1.15-5.335-2.394-2.777-2.175-5.335-4.694-7.815-7.135L71.959 61.974a.681.681 0 01-.063-.9c1.784-2.354 3.31-4.592 4.78-6.75a.66.66 0 01.477-.29.672.672 0 01.532.164 336.253 336.253 0 0123.735 22.71c1.11 1.173 2.3 2.582 2.315 4.397.008 1.056-.422 2.08-1.212 2.87-.853.845-2.026 1.354-3.16 1.354zm-26.026-24.11l13.83 13.604c2.457 2.417 4.991 4.912 7.706 7.032 1.392 1.096 2.902 2.105 4.49 2.105.775 0 1.596-.36 2.191-.955.532-.531.821-1.212.813-1.9-.008-1.323-.962-2.441-1.94-3.466a335.48 335.48 0 00-23.062-22.115c-1.251 1.83-2.55 3.715-4.029 5.695z" fill="#000"/><path d="M53.888 9.787c-16.366 0-29.633 13.267-29.633 29.64 0 16.366 13.267 29.634 29.633 29.634 16.365 0 29.633-13.268 29.633-29.634 0-16.373-13.268-29.64-29.633-29.64zm0 52.147c-12.43 0-22.507-10.076-22.507-22.506 0-12.431 10.076-22.507 22.507-22.507 12.43 0 22.506 10.076 22.506 22.507 0 12.43-10.076 22.506-22.506 22.506zm0 0c-12.43 0-22.507-10.076-22.507-22.506 0-12.431 10.076-22.507 22.507-22.507 12.43 0 22.506 10.076 22.506 22.507 0 12.43-10.076 22.506-22.506 22.506z" fill="#fff"/><path d="M53.888 69.741c-16.718 0-30.314-13.596-30.314-30.313 0-16.718 13.596-30.314 30.314-30.314C70.605 9.114 84.2 22.71 84.2 39.428c0 16.71-13.596 30.313-30.313 30.313zm0-59.274c-15.967 0-28.953 12.986-28.953 28.953 0 15.966 12.986 28.952 28.953 28.952 15.966 0 28.952-12.986 28.952-28.952 0-15.96-12.986-28.953-28.952-28.953zm0 52.148C41.105 62.614 30.7 52.21 30.7 39.427c0-12.782 10.404-23.187 23.187-23.187 12.782 0 23.187 10.405 23.187 23.188 0 12.782-10.397 23.187-23.187 23.187zM32.062 39.427c0 12.04 9.794 21.826 21.826 21.826 12.031 0 21.825-9.794 21.825-21.825 0-12.032-9.794-21.826-21.825-21.826-12.032 0-21.826 9.786-21.826 21.826z" fill="#000"/><path d="M76.253 62.333c-.023 0-.039 0-.062-.008a.23.23 0 01-.157-.282l.524-1.822a.224.224 0 01.282-.157.23.23 0 01.156.282l-.524 1.823a.225.225 0 01-.219.164zm2.496 3.199h-.032a.23.23 0 01-.195-.258 134.34 134.34 0 011.001-6.399.225.225 0 01.266-.18.225.225 0 01.18.266 124 124 0 00-.993 6.384.235.235 0 01-.227.188zm3.239 3.098a.227.227 0 01-.227-.226c0-1.064.164-2.856.305-4.436.086-.962.164-1.792.188-2.316.007-.125.093-.234.234-.21a.22.22 0 01.212.234c-.024.532-.102 1.369-.188 2.339-.141 1.572-.305 3.348-.305 4.396.008.118-.094.22-.22.22zm3.309 3.06a.226.226 0 01-.227-.22l-.172-7.572c0-.126.094-.227.219-.235.133.016.227.094.234.219l.172 7.572a.224.224 0 01-.226.235zm3.16 3.347a.225.225 0 01-.227-.219l-.297-7.924c-.008-.126.094-.227.219-.235.125-.008.227.094.234.219l.298 7.924c.008.126-.094.227-.22.235h-.007zm3.207 2.824a.23.23 0 01-.227-.211l-.398-7.408a.228.228 0 01.21-.243.223.223 0 01.243.212l.4 7.408a.228.228 0 01-.212.242h-.016zm3.176 2.605a.23.23 0 01-.226-.21l-.556-7.206a.228.228 0 01.211-.242c.118-.016.235.086.243.211l.555 7.205a.228.228 0 01-.21.242h-.016zm3.012 2.347a.228.228 0 01-.227-.203l-.649-6.321a.228.228 0 01.204-.25c.109-.016.234.078.25.203l.65 6.32a.228.228 0 01-.204.251h-.024zm2.942-.336a.233.233 0 01-.227-.188l-.454-2.824a.22.22 0 01.188-.258.219.219 0 01.258.188l.454 2.824a.22.22 0 01-.188.258h-.031z" fill="#000"/><path d="M74.853 46.593c-.743.626-1.087 1.643-1.721 2.386-.117.211-1.635 1.925-2.496 2.746a33.12 33.12 0 01-2.182 1.8 1.11 1.11 0 00-.383.148c-3.709 2.683-6.493 3.661-11.171 4.521-2.222.415-4.788.767-8.285-.101-2.456-.571-3.638-1.244-6.204-2.973-1.087-.767-3.512-2.902-5.163-4.897-1.775-2.425-2.378-4.545-2.745-5.507-.368-.994-.65-2.01-.94-3.028-.43-1.392-.563-1.885-.563-3.074a39.066 39.066 0 01-.743-2.292 1.453 1.453 0 00-.704-.133c-.399 3.059-.336 6.133.047 9.184.665 2.636 1.487 5.492 4.013 8.331 2.034 2.245 3.435 3.02 4.31 3.74 2.043 1.47 4.217 2.816 6.619 3.598 1.314.383 2.683.54 4.037.704.007 0 .015 0 .023.008 1.479.266 2.98.274 4.467.11 1.165-.094 2.292-.439 3.418-.744 2.34-.57 4.67-1.29 6.806-2.417.869-.532 1.166-.743 1.573-1.048 2.62-1.635 5.327-3.904 6.712-5.484a47.58 47.58 0 001.032-2.253c.407-1.134.822-2.269 1.22-3.403-.304-.11-.672-.11-.977.078zm4.834 9.669c-1.126-.32-1.885.462-2.44 1.322-.024.032-.047.055-.079.094-.985 1.15-1.259 1.049-2.886 2.52-.008.007-.016.007-.024.015-.32.227-.704.383-.907.735-1.37 1.682.72 4.03 2.574 2.934 1.29-.712 2.401-1.721 3.293-2.895.571-.625 1.127-1.275 1.565-2.002.633-1.017.047-2.417-1.096-2.723z" fill="#000" opacity=".129"/><path d="M45.861 51.232a.681.681 0 01-.68-.68V35.61a.681.681 0 011.361 0v14.94a.68.68 0 01-.68.681zm14.973 0a.681.681 0 01-.68-.68V35.61a.681.681 0 011.36 0v14.94a.68.68 0 01-.68.681zm-7.486 0a.681.681 0 01-.68-.68V26.504a.681.681 0 011.36 0v24.048a.68.68 0 01-.68.68z" fill="#000"/><path d="M.684 64.899l12.22 16.475L25.13 64.899h-6.884l.453-45.686H8.022L7.568 64.9H.684z" fill="#fff"/><path d="M12.903 82.054a.685.685 0 01-.547-.273L.136 65.297a.671.671 0 01-.062-.712.691.691 0 01.61-.376h6.204l.446-45.013c0-.375.305-.672.68-.672H18.7a.681.681 0 01.68.688l-.445 45.005h6.196a.69.69 0 01.61.376.67.67 0 01-.063.712L13.458 81.78a.7.7 0 01-.555.273zM2.037 65.58l10.874 14.653L23.785 65.58h-5.53a.681.681 0 01-.681-.688l.446-44.997H8.695l-.446 45.013a.674.674 0 01-.68.672H2.036z" fill="#000"/><path d="M51.893 70.547c-.18-.665-.837-1.174-1.526-1.166-.219.008-.43.016-.649 0a13.275 13.275 0 01-.595-.133c-1.54-.391-3.105-.735-4.592-1.322-.876-.352-1.627-1.064-2.55-1.236-1.893-.328-2.8 2.355-1.142 3.301 2.065 1.252 4.389 1.987 6.775 2.324 1.103.11 2.292.493 3.364.11.743-.267 1.11-1.143.915-1.878z" fill="#000" opacity=".129"/></svg>