<svg width="33" height="32" fill="none" xmlns="http://www.w3.org/2000/svg"><path d="M32.01 15.059v2.373c-.186.336-.463.459-.847.443-.715-.021-1.43-.005-2.091-.005l-.822 3.024c.496.288 1.04.598 1.574.912.464.272.544.571.277 1.04-.347.609-.693 1.211-1.046 1.814-.357.619-.608.683-1.237.325l-1.344-.773-2.257 2.256c.23.4.545.94.854 1.478.256.448.17.763-.267 1.019-.635.373-1.28.741-1.92 1.11-.507.287-.79.213-1.078-.289-.31-.528-.613-1.056-.896-1.547-1.024.278-2.01.544-3.024.816 0 .683-.016 1.387.005 2.097.01.384-.107.667-.443.848h-2.875c-.336-.187-.459-.464-.443-.848.022-.715.006-1.43.006-2.091-1.035-.283-2.022-.55-3.025-.822-.299.512-.603 1.046-.912 1.574-.272.464-.57.544-1.04.277-.614-.352-1.227-.71-1.84-1.061-.582-.336-.657-.598-.315-1.19.293-.512.587-1.018.79-1.37-.78-.78-1.5-1.494-2.262-2.257-.395.23-.934.539-1.478.848-.448.256-.763.17-1.019-.266-.373-.64-.741-1.28-1.11-1.92-.287-.508-.213-.79.289-1.078.528-.31 1.056-.614 1.547-.896a1670.67 1670.67 0 01-.817-3.025c-.677 0-1.386-.016-2.096.005-.384.011-.667-.106-.848-.442v-2.374c.048-.39.09-.779.144-1.168a15.754 15.754 0 013.558-7.959C6.16 2.992 9.255 1.072 13.026.304 13.698.165 14.381.101 15.06 0h1.877c.544.075 1.094.123 1.638.219 3.339.592 6.203 2.112 8.604 4.491 2.422 2.406 3.985 5.281 4.582 8.658.112.56.17 1.125.25 1.69zM9.363 28.761c.314-.55.613-1.072.917-1.59.235-.4.502-.5.912-.32 1.152.502 2.353.827 3.6.966.38.043.582.288.582.683.006.624 0 1.248 0 1.877v.363h1.248c0-.752-.005-1.488 0-2.224.006-.427.209-.651.635-.699a12.015 12.015 0 003.457-.923c.528-.23.763-.15 1.05.352.294.502.582 1.003.88 1.52.369-.213.716-.416 1.078-.624l-.89-1.547c-.267-.464-.214-.725.213-1.045.95-.71 1.782-1.536 2.49-2.486.332-.443.588-.49 1.068-.213.501.288 1.008.576 1.536.88.213-.368.416-.715.608-1.05-.021-.033-.027-.044-.037-.049-.523-.304-1.046-.608-1.563-.912-.363-.219-.475-.49-.31-.87.513-1.173.843-2.39.982-3.664.037-.341.288-.55.645-.555.56-.01 1.126 0 1.686-.005h.576v-1.232h-4.107v.485c.01.998-.086 1.984-.39 2.928-.256.79-.597 1.553-.933 2.31-.15.33-.528.416-.827.256-.299-.16-.41-.496-.267-.832.038-.085.086-.165.128-.25 1.665-3.532 1.355-6.876-.928-10.04-.08-.112-.176-.218-.277-.336-.101.128-.17.219-.235.31-1.184 1.61-2.363 3.227-3.552 4.832-.177.235-.288.454-.235.763.043.23-.006.48-.043.715-.261 1.611-1.835 2.79-3.42 2.566-1.727-.24-2.954-1.76-2.762-3.425.202-1.728 1.733-2.97 3.424-2.8a.699.699 0 00.449-.112c1.701-1.232 3.397-2.48 5.094-3.723.069-.054.138-.113.218-.182-.144-.117-.261-.219-.384-.31-2.133-1.594-4.518-2.192-7.153-1.808-5.28.78-8.903 6.092-7.687 11.282 1.313 5.612 7.031 8.716 12.445 6.743.4-.144.779-.342 1.168-.523.39-.181.742-.101.913.23.17.33.048.666-.337.88-.074.042-.143.08-.218.117-2.886 1.408-5.868 1.605-8.839.33-3.862-1.658-6.038-4.64-6.534-8.822-.064-.523-.054-1.051-.075-1.584H1.27v1.226h2.133c.539 0 .736.171.8.7a12.12 12.12 0 00.918 3.392c.23.522.144.763-.358 1.056-.501.293-1.002.581-1.514.88.213.373.416.715.629 1.078.539-.315 1.045-.603 1.547-.896.459-.267.725-.214 1.045.213.71.95 1.537 1.782 2.486 2.49.443.332.486.588.214 1.068-.289.501-.577 1.008-.88 1.53.357.214.698.411 1.072.63zm19.656-19.55c-.133.075-.224.123-.315.176-.512.294-1.024.603-1.541.886-.41.224-.864.01-.939-.427-.053-.32.112-.533.379-.688.581-.336 1.163-.672 1.776-1.03a15.42 15.42 0 00-4.497-4.491c-.069.112-.122.187-.17.267-.304.522-.598 1.045-.907 1.568-.144.245-.374.368-.662.31-.272-.054-.464-.23-.485-.502-.016-.17.048-.374.133-.528.315-.582.656-1.152 1.009-1.755-1.937-1.04-3.964-1.622-6.162-1.728v1.968c0 .587-.218.89-.634.885-.406-.005-.614-.304-.614-.874v-1.98a14.289 14.289 0 00-6.155 1.734c.197.342.368.635.538.934.176.309.363.608.528.922.176.337.075.694-.234.865-.299.165-.635.074-.838-.24-.101-.155-.186-.326-.283-.486l-.789-1.36C6.332 4.843 4.838 6.32 3.654 8.135c.624.362 1.21.698 1.792 1.04.326.192.438.453.336.757-.128.4-.538.555-.939.331-.608-.336-1.205-.688-1.834-1.05a14.28 14.28 0 00-1.611 4.89h4.15c.944-4.992 5.12-8.491 9.964-8.72 2.395-.113 4.603.506 6.566 1.893 2.385 1.68 3.825 3.98 4.401 6.833h4.15a14.424 14.424 0 00-1.61-4.897zM20.02 12.04l-.048-.048c-.074.054-.149.102-.224.155-.805.592-1.621 1.174-2.416 1.776-.315.24-.613.326-1.008.235-.768-.176-1.585.245-1.969.955a1.862 1.862 0 00.336 2.214 1.863 1.863 0 002.193.32c.715-.384 1.136-1.2.965-1.963-.09-.395-.005-.7.23-1.009.661-.869 1.296-1.755 1.941-2.635z" fill="#001042"/><path d="M14.13 22.255a.63.63 0 01-.64.618.633.633 0 01-.602-.63c0-.346.298-.629.64-.618.33.01.603.293.603.63zm2.503-.005c0 .346-.3.629-.64.618a.633.633 0 01-.603-.63c0-.346.298-.629.64-.618a.64.64 0 01.602.63zm2.495-.012a.632.632 0 01-.63.635.629.629 0 01-.618-.613.632.632 0 01.63-.635c.335 0 .613.277.618.613zm3.916 1.446a.631.631 0 01-.598-.662.628.628 0 01.646-.581.63.63 0 01.597.661.632.632 0 01-.645.582zm-7.03-7.063a.624.624 0 01-.624-.634.628.628 0 01.619-.609c.346 0 .634.288.624.635a.64.64 0 01-.619.608z" fill="#001042"/></svg>