<svg width="93" height="100" fill="none" xmlns="http://www.w3.org/2000/svg"><path d="M15.857 74.855a.538.538 0 01-.33-.117c-5.32-4.327-8.483-11.005-8.456-17.86a.523.523 0 111.048 0c-.028 6.545 2.99 12.912 8.069 17.04.227.186.262.51.076.737a.519.519 0 01-.407.2z" fill="#000"/><path d="M15.87 75.145a.602.602 0 01-.11-.014c-1.956-.42-3.893-1-5.753-1.73a.527.527 0 01.386-.978 35.772 35.772 0 004.906 1.523 19.124 19.124 0 00-.979-4.555.523.523 0 01.324-.669.528.528 0 01.669.324 20.46 20.46 0 011.082 5.534.527.527 0 01-.186.427.463.463 0 01-.338.138zm53.198 10.274a.535.535 0 01-.482-.31.53.53 0 01.269-.696c6.263-2.798 11.087-8.69 12.582-15.387a.527.527 0 01.627-.4.527.527 0 01.4.627c-1.564 7.015-6.615 13.19-13.175 16.118a.637.637 0 01-.22.048z" fill="#000"/><path d="M82.891 74.139a.523.523 0 01-.524-.524c0-1.268-.172-2.522-.523-3.735-1 .84-2.081 1.592-3.205 2.253a.526.526 0 01-.716-.186.526.526 0 01.186-.716 22.142 22.142 0 003.638-2.653.532.532 0 01.483-.117.519.519 0 01.365.33 14.42 14.42 0 01.827 4.83.533.533 0 01-.53.518zM45.501 11.26a.528.528 0 01-.296-.965c5.402-3.645 12.68-4.162 18.543-1.31a.52.52 0 01.241.704.52.52 0 01-.702.24C57.753 7.243 50.89 7.726 45.79 11.17a.48.48 0 01-.29.09z" fill="#000"/><path d="M49.994 11.556h-.048a39.608 39.608 0 00-4.7-.152.517.517 0 01-.482-.282.53.53 0 01.048-.558l2.84-3.797a.52.52 0 01.737-.104.52.52 0 01.103.738l-2.198 2.935h.076c1.226 0 2.453.055 3.672.173a.525.525 0 01-.048 1.047zm17.338-6.877a.572.572 0 01-.276-.076c-3.714-2.295-8.166-3.556-12.534-3.556h-.014A.523.523 0 1154.528 0c4.624 0 9.145 1.282 13.086 3.707a.526.526 0 01.172.724.561.561 0 01-.454.248zm5.181 88.244a.523.523 0 01-.248-.985c3.797-2.054 7.077-5.244 9.227-8.986a.522.522 0 01.717-.193.528.528 0 01.193.717 24.623 24.623 0 01-9.64 9.392.619.619 0 01-.249.055zM4.721 69.136a.51.51 0 01-.413-.207A20.746 20.746 0 010 56.092c0-.29.234-.517.524-.517h.007a.52.52 0 01.517.53 19.76 19.76 0 004.086 12.183.52.52 0 01-.097.738.494.494 0 01-.317.11z" fill="#000"/><path d="M5.583 11.625c.744 11.335.923 22.712.606 34.117a28.722 28.722 0 019.985-.986c.441.035.916.096 1.24.4.372.358.407.965.235 1.454-.173.489-.503.902-.793 1.337-.427.64-.785 1.357-.827 2.129-.096 1.674 1.337 3.121 2.936 3.624 1.599.503 3.321.276 5.113-.262 1.323-.482 2.115-2.094 1.681-3.438-.193-.6-.586-1.116-.813-1.709-.379-.978-.214-2.212.593-2.88.744-.62 1.798-.641 2.77-.627 3.238.041 6.477.09 9.613.082-.159-4.479-.083-8.958.213-13.595-.703.613-1.66.895-2.59.861-.931-.034-1.84-.365-2.633-.847-.544-.331-1.061-.752-1.358-1.317-.365-.682-.365-1.502-.275-2.267.117-.971.413-1.991 1.157-2.632.352-.303.772-.503 1.2-.682.778-.331 1.598-.62 2.446-.6.847.014 1.73.386 2.24 1.22-.18-3.17-.366-6.354-.008-9.51.138-1.198.352-2.397-.014-3.493-.813-.283-1.695-.241-2.556-.207-8.91.4-17.84.627-26.736.076a152.683 152.683 0 01-3.425-.248z" fill="#fff"/><path d="M38.418 12.734c-.007-.379.11-.834-.2-1.123a.668.668 0 00-.345-.193c-.282 1.626-.565 3.26-.868 4.879-.455 2.48-.937 4.954-1.413 7.428.18.248.504.4.82.352.276.668 1.29.82 1.689.124.076-.159.124-.324.124-.497v-.124c0-.062.007-.124.014-.186.02-.213.055-.565.02-.689-.165-2.501-.2-5.698 0-7.552.11-.806.124-1.613.159-2.419zm-.813 30.892c0-.028-.007-.048-.007-.076-.138-1.667-.104-3.342-.048-5.016-.035-1.985.193-3.963.323-5.94-.02-.986-1.081-1.248-1.667-.8-.42-.172-.979.131-.965.634.159 2.316.283 4.63.269 6.953-.041 1.082 0 2.164.027 3.239-.565.296-.379.22-.854.4-3.19.716-4.679.565-8.696 1.447-.813.234-.483 1.454.344 1.247 2.205-.448 4.527-.448 7.036-.779.744-.076 1.502-.158 2.205-.448.014.055.02.11.041.166.117.33.462.475.786.434.427.138.95 0 1.178-.428.145-.234.159-.51.097-.771a1.65 1.65 0 01-.07-.262zm-11.742 5.299c-.076-.324-.07-.71-.27-.985-.254-.386-.895-.331-1.116.069-.11.2-.11.413-.048.627.104.565.07.316.11.758.028.103 0 .447-.006.585-.2 1.103-.979 1.44-2.646 1.792-1 .22-2.302.103-4.163-.613-1.426-.359-2.005 1.722-.592 2.156 1.53.531 3.176 1.055 4.81.793 1.095-.186 2.143-.758 2.956-1.516.916-.951 1.178-2.384.965-3.666z" fill="#000" opacity=".129"/><path d="M21.625 54.658a9.89 9.89 0 01-.634-.02c-1.93-.118-3.487-.724-4.507-1.75-.4-.407-.896-1.062-.978-1.903-.083-.861.296-1.646.606-2.274l.951-1.95c.172-.358.317-.675.276-.937a.4.4 0 00-.434-.303c-.049.007-.104.007-.152.007-3.446-.38-7.022-.159-10.633.654a.523.523 0 01-.64-.523c.234-10.846.048-21.927-.566-33.89a.546.546 0 01.145-.392.505.505 0 01.386-.159c10.97.22 22.092.242 33.055.076a.517.517 0 01.51.372c.097.303.097.558.014.758-.255 3.776-.33 7.794-.234 12.631a.532.532 0 01-.303.49.516.516 0 01-.565-.083c-.972-.848-2.398-1.144-3.632-.758a3.848 3.848 0 00-2.536 2.7c-.262 1.069.007 2.192.69 2.867.378.38.923.676 1.708.924.71.227 2.488.648 3.694-.283a.537.537 0 01.572-.048.52.52 0 01.275.496c-.303 4.328-.379 8.758-.227 13.554a.53.53 0 01-.551.545c-3.398-.18-6.843-.186-10.24-.035-.896.042-1.771.159-2.157.738-.4.6-.096 1.523.124 2.012.076.172.159.345.241.51.324.661.655 1.35.682 2.143.042 1.254-.744 2.501-2.005 3.177-.813.44-1.778.654-2.935.654zm-4.659-10.191c.29 0 .58.09.82.268.317.228.531.565.586.924.09.606-.172 1.157-.365 1.557l-.95 1.95c-.318.648-.552 1.192-.504 1.716.048.53.393.979.675 1.261 1.055 1.061 2.66 1.371 3.825 1.44 1.247.076 2.232-.09 2.997-.503.896-.482 1.475-1.371 1.454-2.219-.02-.572-.29-1.13-.572-1.722-.09-.18-.172-.359-.255-.545-.537-1.212-.55-2.253-.041-3.025.648-.965 1.867-1.15 2.984-1.199 3.245-.145 6.525-.145 9.771.007-.117-4.259-.062-8.248.186-12.128-1.358.53-2.867.214-3.742-.062-.6-.193-1.468-.517-2.129-1.178-.937-.93-1.316-2.446-.965-3.866.393-1.599 1.668-2.956 3.239-3.452 1.227-.386 2.612-.241 3.749.358-.07-4.424.013-8.172.255-11.707-10.612.158-21.369.13-31.995-.07.58 11.522.758 22.251.552 32.739 3.48-.717 6.925-.903 10.26-.544h.166z" fill="#000"/><path d="M38.418 12.734c-.007-.379.11-.834-.2-1.123a.668.668 0 00-.345-.193c-.282 1.626-.565 3.26-.868 4.879-.455 2.48-.937 4.954-1.413 7.428.18.248.504.4.82.352.276.668 1.29.82 1.689.124.076-.159.124-.324.124-.497v-.124c0-.062.007-.124.014-.186.02-.213.055-.565.02-.689-.165-2.501-.2-5.698 0-7.552.11-.806.124-1.613.159-2.419zm-.813 30.892c0-.028-.007-.048-.007-.076-.138-1.667-.104-3.342-.048-5.016-.035-1.985.193-3.963.323-5.94-.02-.986-1.081-1.248-1.667-.8-.42-.172-.979.131-.965.634.159 2.316.283 4.63.269 6.953-.041 1.082 0 2.164.027 3.239-.565.296-.379.22-.854.4-3.19.716-4.679.565-8.696 1.447-.813.234-.483 1.454.344 1.247 2.205-.448 4.527-.448 7.036-.779.744-.076 1.502-.158 2.205-.448.014.055.02.11.041.166.117.33.462.475.786.434.427.138.95 0 1.178-.428.145-.234.159-.51.097-.771a1.65 1.65 0 01-.07-.262zm-11.742 5.299c-.076-.324-.07-.71-.27-.985-.254-.386-.895-.331-1.116.069-.11.2-.11.413-.048.627.104.565.07.316.11.758.028.103 0 .447-.006.585-.2 1.103-.979 1.44-2.646 1.792-1 .22-2.302.103-4.163-.613-1.426-.359-2.005 1.722-.592 2.156 1.53.531 3.176 1.055 4.81.793 1.095-.186 2.143-.758 2.956-1.516.916-.951 1.178-2.384.965-3.666z" fill="#000" opacity=".129"/><path d="M21.625 54.658a9.89 9.89 0 01-.634-.02c-1.93-.118-3.487-.724-4.507-1.75-.4-.407-.896-1.062-.978-1.903-.083-.861.296-1.646.606-2.274l.951-1.95c.172-.358.317-.675.276-.937a.4.4 0 00-.434-.303c-.049.007-.104.007-.152.007-3.446-.38-7.022-.159-10.633.654a.523.523 0 01-.64-.523c.234-10.846.048-21.927-.566-33.89a.546.546 0 01.145-.392.505.505 0 01.386-.159c10.97.22 22.092.242 33.055.076a.517.517 0 01.51.372c.097.303.097.558.014.758-.255 3.776-.33 7.794-.234 12.631a.532.532 0 01-.303.49.516.516 0 01-.565-.083c-.972-.848-2.398-1.144-3.632-.758a3.848 3.848 0 00-2.536 2.7c-.262 1.069.007 2.192.69 2.867.378.38.923.676 1.708.924.71.227 2.488.648 3.694-.283a.537.537 0 01.572-.048.52.52 0 01.275.496c-.303 4.328-.379 8.758-.227 13.554a.53.53 0 01-.551.545c-3.398-.18-6.843-.186-10.24-.035-.896.042-1.771.159-2.157.738-.4.6-.096 1.523.124 2.012.076.172.159.345.241.51.324.661.655 1.35.682 2.143.042 1.254-.744 2.501-2.005 3.177-.813.44-1.778.654-2.935.654zm-4.659-10.191c.29 0 .58.09.82.268.317.228.531.565.586.924.09.606-.172 1.157-.365 1.557l-.95 1.95c-.318.648-.552 1.192-.504 1.716.048.53.393.979.675 1.261 1.055 1.061 2.66 1.371 3.825 1.44 1.247.076 2.232-.09 2.997-.503.896-.482 1.475-1.371 1.454-2.219-.02-.572-.29-1.13-.572-1.722-.09-.18-.172-.359-.255-.545-.537-1.212-.55-2.253-.041-3.025.648-.965 1.867-1.15 2.984-1.199 3.245-.145 6.525-.145 9.771.007-.117-4.259-.062-8.248.186-12.128-1.358.53-2.867.214-3.742-.062-.6-.193-1.468-.517-2.129-1.178-.937-.93-1.316-2.446-.965-3.866.393-1.599 1.668-2.956 3.239-3.452 1.227-.386 2.612-.241 3.749.358-.07-4.424.013-8.172.255-11.707-10.612.158-21.369.13-31.995-.07.58 11.522.758 22.251.552 32.739 3.48-.717 6.925-.903 10.26-.544h.166z" fill="#000"/><path d="M54.466 46.679c-1.013-3.88-3.549-7.201-4.72-11.163a109.777 109.777 0 019.496-4.41c.668-.276 1.337-.538 2.005-.807.475-.186 1-.42 1.22-.882.186-.4.096-.889-.131-1.275-.228-.379-.572-.675-.965-1.026-1.323-1.069-1.743-3.04-1.185-4.645.558-1.605 1.97-2.839 3.576-3.404 1.04-.365 2.302-.448 3.142.262.214.179.393.4.545.634a5.035 5.035 0 01.765 3.549c-.104.62-.324 1.233-.317 1.867.006.634.323 1.323 1.006 1.626 3.714-1.743 7.538-3.245 11.597-4.375 1.096 1.66 1.716 3.583 2.391 5.457 1.895 5.244 4.3 10.281 6.705 15.312.737 1.543 1.474 3.087 2.095 4.7.041.358-.276.654-.565.867-3.26 2.405-7.201 3.653-10.75 5.596-.31.172-.627.351-.84.634-.221.275-.318.682-.035.937-.09.53.275 1.04.703 1.364.427.331.93.558 1.316.93.648.635.868 1.64.648 2.516-.221.882-.841 1.633-1.6 2.122-.764.49-1.66.744-2.563.84-.702.077-1.481.049-2.019-.413-.633-.544-.71-1.481-.744-2.315-.034-.834-.117-1.77-.758-2.308-.537-.448-1.405-.448-1.888.027a133.782 133.782 0 00-11.122 4.038c-.427-.406-.613-1.006-.799-1.564-1.047-3.204-2.556-6.23-4.169-9.186 1.116.255 2.33.125 3.335-.434 1-.558 1.771-1.543 1.992-2.666.034-.187.062-.386.034-.572-.034-.235-.145-.448-.255-.655-.386-.69-.882-1.33-1.509-1.812-.627-.483-1.392-.806-2.184-.834-.496-.02-.993.076-1.461.227-.758.235-1.454.614-1.992 1.24z" fill="#fff"/><path d="M53.88 44.005h-.02c-.097-.014-.166-.103-.152-.193.414-3.211.745-6.477.993-9.702a.167.167 0 01.186-.159c.096.007.165.09.158.186a191.903 191.903 0 01-.992 9.723c-.007.083-.083.145-.172.145zm3.99.131h-.006a.177.177 0 01-.166-.186l.572-10.901c.007-.097.09-.18.186-.166.097.007.172.09.166.186l-.572 10.902a.18.18 0 01-.18.165zm3.246.744h-.014a.171.171 0 01-.158-.186l1.102-13.244c.007-.097.097-.159.186-.159.097.007.166.09.159.186l-1.103 13.245c0 .09-.082.158-.172.158zm1.454-18.888h-.007a.177.177 0 01-.165-.186l.22-4.293a.174.174 0 01.173-.165h.007c.096.007.172.09.165.186l-.22 4.293a.17.17 0 01-.173.165zm1.819 34.014h-.007a.177.177 0 01-.165-.187l2.108-37.81a.173.173 0 01.186-.165c.097.007.173.09.166.186l-2.109 37.81a.18.18 0 01-.179.166zm3.473-1.426a.168.168 0 01-.172-.18 905.75 905.75 0 011.268-29.679.173.173 0 01.186-.165c.096.007.172.09.165.186a925.237 925.237 0 00-1.268 29.672.18.18 0 01-.179.165zm3.177-1.455c-.103-.007-.18-.083-.172-.179.365-9.909.668-19.942.895-29.823 0-.097.076-.166.18-.173.096 0 .172.083.172.18-.228 9.88-.524 19.92-.896 29.83a.175.175 0 01-.18.165zm3.218-1.233c-.007 0-.007 0 0 0a.168.168 0 01-.173-.18L74.966 26c0-.096.076-.165.18-.172.096 0 .172.083.172.18l-.882 29.712a.186.186 0 01-.18.173zm2.846 7.352a.17.17 0 01-.172-.165c-.441-7.91.062-15.952.544-23.732.29-4.693.593-9.544.682-14.32 0-.096.083-.172.172-.172h.007c.097 0 .172.083.172.18-.09 4.782-.392 9.633-.689 14.332-.482 7.767-.978 15.801-.544 23.691a.177.177 0 01-.165.186h-.007zm3.073-10.935a.168.168 0 01-.172-.18 199.32 199.32 0 011.785-22.002c.013-.097.103-.159.2-.152a.178.178 0 01.151.2c-1 7.25-1.599 14.643-1.785 21.961a.186.186 0 01-.179.172zm2.908-1.482h-.007a.177.177 0 01-.165-.186c.234-4.707.654-9.468 1.254-14.147.014-.096.103-.165.193-.152.096.014.165.104.151.193-.6 4.672-1.02 9.42-1.247 14.12a.176.176 0 01-.18.172zm3.287-1.103h-.014a.171.171 0 01-.158-.186c.172-2.308.42-4.644.737-6.939.014-.096.103-.158.2-.151a.178.178 0 01.151.2 110.976 110.976 0 00-.737 6.918.185.185 0 01-.179.158z" fill="#000"/><path d="M74.222 56.126h.014c.041.007.083.007.124.014-.048 0-.11-.014-.138-.014z" fill="#000" opacity=".129"/><path d="M75.759 57.663a1.549 1.549 0 00-.248-.772c-.069-.083-.069-.09-.007-.007.152.186-.33-.413-.193-.22.062.082.055.075-.007-.014-.213-.283-.551-.448-.896-.503-.007 0-.007 0-.02-.007-.007 0-.021 0-.028-.007.014 0 .02.007.035.007-.056-.007-.104-.02-.159-.02-.393-.05-.785.02-1.171.102-.958.18-1.868.517-2.75.93-.744.283-2.136.965-4.155 1.661-1.31.386-2.584.876-3.852 1.365-.503.22-1.158.275-1.454.792-.496.793.324 1.868 1.22 1.592 2.577-.896 5.202-1.66 7.69-2.798.524-.151 2.97-1.399 3.852-1.805.007 0 .007 0 .014-.007.24-.096.51-.117.737-.241.028-.014.062-.028.09-.041a1.88 1.88 0 00.537.365c.028.014.083.034.11.048.035.041.062.09.09.13a.35.35 0 00.482.125c.359-.234.062-.606.083-.675zM91.29 47.072a9.865 9.865 0 01-.295-.972.676.676 0 00-.393.186c-.193.172-.186.434-.269.661-.276.531-.193.38-.682.869-1.737 1.557-5.148 2.887-7.304 3.865-.228.09-.717.297-.869.352-.6.317-1.44.337-1.833.937-.468.744.304 1.75 1.144 1.489 2.598-.938 5.072-2.178 7.415-3.632 1.22-.779 2.59-1.537 3.266-2.873.028-.063.055-.131.083-.2-.09-.228-.18-.455-.262-.682z" fill="#000" opacity=".129"/><path d="M77.792 64.719c-1.04 0-2.074-.358-2.66-1.275-.448-.71-.482-1.502-.51-2.267a7.521 7.521 0 00-.083-1c-.082-.495-.482-1.033-.882-1.205-.234-.103-.372-.035-.461.027a.35.35 0 01-.124.063c-2.412.847-4.88 1.812-7.256 2.735-1.427.558-2.908 1.13-4.37 1.681a.555.555 0 01-.42-.02.544.544 0 01-.268-.324c-1.096-3.942-2.702-7.525-4.769-10.653a.522.522 0 01.517-.806c1.054.165 2.033.11 2.977-.159.73-.207 1.226-.496 1.523-.889.248-.33.386-.806.379-1.33-.014-1.433-1.096-2.846-2.53-3.294-1.398-.434-3.072.014-4.154 1.117a.538.538 0 01-.469.151.528.528 0 01-.386-.303c-.468-1.054-.916-2.095-1.364-3.122-1.165-2.68-2.267-5.216-3.5-7.717a.519.519 0 01.22-.69 105.294 105.294 0 0112.9-5.988c.061-.027.075-.048.089-.082.069-.228-.103-.751-.379-1.137-.193-.269-.434-.51-.696-.765-.234-.234-.482-.476-.696-.751-1.15-1.468-1.247-3.68-.241-5.382.91-1.537 2.673-2.611 4.596-2.805.896-.089 1.66.028 2.267.359.868.468 1.502 1.426 1.688 2.563.173 1.027-.007 2.033-.206 2.88l-.035.138c-.103.441-.2.855-.158 1.234.027.255.144.551.351.696 3.266-1.275 7.525-2.915 11.88-4.465a.504.504 0 01.4.02c.124.062.22.166.268.303 3.198 9.213 6.933 18.006 11.088 26.137a.52.52 0 01-.214.696c-3.72 2.068-7.67 3.976-11.487 5.823-.42.2-.806.414-.93.717-.152.386.158.896.517 1.213.186.165.4.31.62.468.351.248.716.496 1.02.848.875.992 1.047 2.59.406 3.886-.544 1.096-1.62 1.985-2.963 2.44a4.997 4.997 0 01-1.495.234zm-4.362-6.856c.207 0 .427.048.634.137.73.31 1.364 1.151 1.509 1.999.062.379.083.764.097 1.137.027.654.048 1.274.35 1.743.552.861 1.903.951 2.95.6 1.075-.366 1.936-1.062 2.357-1.91.455-.923.351-2.046-.255-2.728-.228-.255-.524-.462-.84-.682a7.274 7.274 0 01-.717-.545c-.6-.53-1.165-1.467-.8-2.39.262-.655.862-.986 1.447-1.269 3.652-1.764 7.422-3.59 10.991-5.554-4.01-7.897-7.621-16.407-10.736-25.317-4.265 1.523-8.4 3.122-11.563 4.355a.557.557 0 01-.351.014c-.655-.206-1.137-.861-1.22-1.66-.062-.566.062-1.082.18-1.585l.034-.138c.172-.751.33-1.627.193-2.474-.138-.82-.572-1.495-1.158-1.812-.42-.228-.978-.31-1.667-.241-1.6.158-3.053 1.04-3.797 2.294-.779 1.316-.71 3.08.165 4.197.18.227.386.434.613.654.276.276.566.559.814.903.372.524.73 1.371.523 2.047-.11.351-.358.627-.716.758a103.879 103.879 0 00-12.328 5.684c1.157 2.378 2.198 4.783 3.3 7.312.352.813.71 1.633 1.076 2.467 1.33-1.006 3.114-1.365 4.65-.89 1.882.586 3.253 2.385 3.267 4.287.007.53-.096 1.31-.586 1.97-.434.58-1.116 1-2.074 1.269a7.7 7.7 0 01-2.322.289c1.757 2.846 3.156 6.03 4.162 9.489 1.282-.49 2.57-.993 3.825-1.475 2.37-.923 4.823-1.881 7.235-2.729.227-.13.49-.207.758-.207z" fill="#000"/><path d="M53.88 44.005h-.02c-.097-.014-.166-.103-.152-.193.414-3.211.745-6.477.993-9.702a.167.167 0 01.186-.159c.096.007.165.09.158.186a191.903 191.903 0 01-.992 9.723c-.007.083-.083.145-.172.145zm3.99.131h-.006a.177.177 0 01-.166-.186l.572-10.901c.007-.097.09-.18.186-.166.097.007.172.09.166.186l-.572 10.902a.18.18 0 01-.18.165zm3.246.744h-.014a.171.171 0 01-.158-.186l1.102-13.244c.007-.097.097-.159.186-.159.097.007.166.09.159.186l-1.103 13.245c0 .09-.082.158-.172.158zm1.454-18.888h-.007a.177.177 0 01-.165-.186l.22-4.293a.174.174 0 01.173-.165h.007c.096.007.172.09.165.186l-.22 4.293a.17.17 0 01-.173.165zm1.819 34.014h-.007a.177.177 0 01-.165-.187l2.108-37.81a.173.173 0 01.186-.165c.097.007.173.09.166.186l-2.109 37.81a.18.18 0 01-.179.166zm3.473-1.426a.168.168 0 01-.172-.18 905.75 905.75 0 011.268-29.679.173.173 0 01.186-.165c.096.007.172.09.165.186a925.237 925.237 0 00-1.268 29.672.18.18 0 01-.179.165zm3.177-1.455c-.103-.007-.18-.083-.172-.179.365-9.909.668-19.942.895-29.823 0-.097.076-.166.18-.173.096 0 .172.083.172.18-.228 9.88-.524 19.92-.896 29.83a.175.175 0 01-.18.165zm3.218-1.233c-.007 0-.007 0 0 0a.168.168 0 01-.173-.18L74.966 26c0-.096.076-.165.18-.172.096 0 .172.083.172.18l-.882 29.712a.186.186 0 01-.18.173zm2.846 7.352a.17.17 0 01-.172-.165c-.441-7.91.062-15.952.544-23.732.29-4.693.593-9.544.682-14.32 0-.096.083-.172.172-.172h.007c.097 0 .172.083.172.18-.09 4.782-.392 9.633-.689 14.332-.482 7.767-.978 15.801-.544 23.691a.177.177 0 01-.165.186h-.007zm3.073-10.935a.168.168 0 01-.172-.18 199.32 199.32 0 011.785-22.002c.013-.097.103-.159.2-.152a.178.178 0 01.151.2c-1 7.25-1.599 14.643-1.785 21.961a.186.186 0 01-.179.172zm2.908-1.482h-.007a.177.177 0 01-.165-.186c.234-4.707.654-9.468 1.254-14.147.014-.096.103-.165.193-.152.096.014.165.104.151.193-.6 4.672-1.02 9.42-1.247 14.12a.176.176 0 01-.18.172zm3.287-1.103h-.014a.171.171 0 01-.158-.186c.172-2.308.42-4.644.737-6.939.014-.096.103-.158.2-.151a.178.178 0 01.151.2 110.976 110.976 0 00-.737 6.918.185.185 0 01-.179.158z" fill="#000"/><path d="M74.222 56.126h.014c.041.007.083.007.124.014-.048 0-.11-.014-.138-.014z" fill="#000" opacity=".129"/><path d="M75.759 57.663a1.549 1.549 0 00-.248-.772c-.069-.083-.069-.09-.007-.007.152.186-.33-.413-.193-.22.062.082.055.075-.007-.014-.213-.283-.551-.448-.896-.503-.007 0-.007 0-.02-.007-.007 0-.021 0-.028-.007.014 0 .02.007.035.007-.056-.007-.104-.02-.159-.02-.393-.05-.785.02-1.171.102-.958.18-1.868.517-2.75.93-.744.283-2.136.965-4.155 1.661-1.31.386-2.584.876-3.852 1.365-.503.22-1.158.275-1.454.792-.496.793.324 1.868 1.22 1.592 2.577-.896 5.202-1.66 7.69-2.798.524-.151 2.97-1.399 3.852-1.805.007 0 .007 0 .014-.007.24-.096.51-.117.737-.241.028-.014.062-.028.09-.041a1.88 1.88 0 00.537.365c.028.014.083.034.11.048.035.041.062.09.09.13a.35.35 0 00.482.125c.359-.234.062-.606.083-.675zM91.29 47.072a9.865 9.865 0 01-.295-.972.676.676 0 00-.393.186c-.193.172-.186.434-.269.661-.276.531-.193.38-.682.869-1.737 1.557-5.148 2.887-7.304 3.865-.228.09-.717.297-.869.352-.6.317-1.44.337-1.833.937-.468.744.304 1.75 1.144 1.489 2.598-.938 5.072-2.178 7.415-3.632 1.22-.779 2.59-1.537 3.266-2.873.028-.063.055-.131.083-.2-.09-.228-.18-.455-.262-.682z" fill="#000" opacity=".129"/><path d="M77.792 64.719c-1.04 0-2.074-.358-2.66-1.275-.448-.71-.482-1.502-.51-2.267a7.521 7.521 0 00-.083-1c-.082-.495-.482-1.033-.882-1.205-.234-.103-.372-.035-.461.027a.35.35 0 01-.124.063c-2.412.847-4.88 1.812-7.256 2.735-1.427.558-2.908 1.13-4.37 1.681a.555.555 0 01-.42-.02.544.544 0 01-.268-.324c-1.096-3.942-2.702-7.525-4.769-10.653a.522.522 0 01.517-.806c1.054.165 2.033.11 2.977-.159.73-.207 1.226-.496 1.523-.889.248-.33.386-.806.379-1.33-.014-1.433-1.096-2.846-2.53-3.294-1.398-.434-3.072.014-4.154 1.117a.538.538 0 01-.469.151.528.528 0 01-.386-.303c-.468-1.054-.916-2.095-1.364-3.122-1.165-2.68-2.267-5.216-3.5-7.717a.519.519 0 01.22-.69 105.294 105.294 0 0112.9-5.988c.061-.027.075-.048.089-.082.069-.228-.103-.751-.379-1.137-.193-.269-.434-.51-.696-.765-.234-.234-.482-.476-.696-.751-1.15-1.468-1.247-3.68-.241-5.382.91-1.537 2.673-2.611 4.596-2.805.896-.089 1.66.028 2.267.359.868.468 1.502 1.426 1.688 2.563.173 1.027-.007 2.033-.206 2.88l-.035.138c-.103.441-.2.855-.158 1.234.027.255.144.551.351.696 3.266-1.275 7.525-2.915 11.88-4.465a.504.504 0 01.4.02c.124.062.22.166.268.303 3.198 9.213 6.933 18.006 11.088 26.137a.52.52 0 01-.214.696c-3.72 2.068-7.67 3.976-11.487 5.823-.42.2-.806.414-.93.717-.152.386.158.896.517 1.213.186.165.4.31.62.468.351.248.716.496 1.02.848.875.992 1.047 2.59.406 3.886-.544 1.096-1.62 1.985-2.963 2.44a4.997 4.997 0 01-1.495.234zm-4.362-6.856c.207 0 .427.048.634.137.73.31 1.364 1.151 1.509 1.999.062.379.083.764.097 1.137.027.654.048 1.274.35 1.743.552.861 1.903.951 2.95.6 1.075-.366 1.936-1.062 2.357-1.91.455-.923.351-2.046-.255-2.728-.228-.255-.524-.462-.84-.682a7.274 7.274 0 01-.717-.545c-.6-.53-1.165-1.467-.8-2.39.262-.655.862-.986 1.447-1.269 3.652-1.764 7.422-3.59 10.991-5.554-4.01-7.897-7.621-16.407-10.736-25.317-4.265 1.523-8.4 3.122-11.563 4.355a.557.557 0 01-.351.014c-.655-.206-1.137-.861-1.22-1.66-.062-.566.062-1.082.18-1.585l.034-.138c.172-.751.33-1.627.193-2.474-.138-.82-.572-1.495-1.158-1.812-.42-.228-.978-.31-1.667-.241-1.6.158-3.053 1.04-3.797 2.294-.779 1.316-.71 3.08.165 4.197.18.227.386.434.613.654.276.276.566.559.814.903.372.524.73 1.371.523 2.047-.11.351-.358.627-.716.758a103.879 103.879 0 00-12.328 5.684c1.157 2.378 2.198 4.783 3.3 7.312.352.813.71 1.633 1.076 2.467 1.33-1.006 3.114-1.365 4.65-.89 1.882.586 3.253 2.385 3.267 4.287.007.53-.096 1.31-.586 1.97-.434.58-1.116 1-2.074 1.269a7.7 7.7 0 01-2.322.289c1.757 2.846 3.156 6.03 4.162 9.489 1.282-.49 2.57-.993 3.825-1.475 2.37-.923 4.823-1.881 7.235-2.729.227-.13.49-.207.758-.207z" fill="#000"/><path d="M39.596 66.173c.875-.986.351-2.508.4-3.818.117-2.88 3.796-4.837 6.373-3.528 2.57 1.31 3.294 5.12 1.585 7.442-.358.49-.82 1.123-.475 1.627.151.22.427.323.682.413 4.052 1.413 8.097 2.832 12.149 4.245a110.442 110.442 0 01-4.231 10.55c-1.606-1.62-4.293-2.33-6.236-1.13-1.944 1.192-2.302 4.506-.366 5.705 1.323.82 3.032.448 4.597.572-.448 4.073-1.744 8.049-4.06 11.24-3.452-1.482-6.91-2.97-10.363-4.452-.214-.09-.434-.186-.6-.359-.413-.42-.317-1.144 0-1.64s.8-.868 1.158-1.337c1.185-1.53.724-3.99-.84-5.126-1.558-1.137-3.9-.917-5.348.358-1.454 1.275-1.991 3.425-1.509 5.292-3.721-2.108-7.76-3.652-12.596-4.438 2.694-8.44 5.388-16.882 8-25.372 3.941 1.275 7.876 2.564 11.68 3.756z" fill="#FFB217"/><path d="M59.62 72.064c-.44-.192-.881-.4-1.309-.62-.468.193-.833.627-.827 1.24-.055.724-.303 2.137-.764 3.701-.593 1.737-.752 1.923-1.351 3.397-.13.407-.262.813-.407 1.213-.082.241-.186.49-.117.744.042.662.793 1.13 1.413.944.93-.4.73-.875.985-1.22.738-1.343 1.248-2.804 1.723-4.258.338-1.178.944-2.274 1.123-3.5.049-.455.207-.945.083-1.392l-.551-.249zM53.48 87.68c-.357.006-.723.006-1.074.006a.524.524 0 01-.145-.02.958.958 0 00-.434.82c-.055 1.13-.096 1.205-.448 2.542-.716 2.88-.95 3.287-2.17 5.561-.028.055-.056.117-.09.172-.84-.4-1.764-.606-2.66-.854-2.026-.593-4.093-1.047-6.126-1.64-.2-.062-.427-.172-.627-.041-.338.186-.269.737.11.826.744.29 1.792.503 2.185.717 2.598 1.15 4.217 1.888 6.16 2.598.055.02.103.041.159.062.31.158.654.241.985.358 0 0 .007 0 .007.007.33.214.792.338 1.11.041.261-.179.358-.516.296-.813.261-.317.454-.71.661-1.047 1.213-1.902 1.613-4.155 2.198-6.298.138-.545.214-1.11.262-1.668.007-.303.104-.64-.055-.923a1.035 1.035 0 00-.303-.407z" fill="#000" opacity=".129"/><path d="M50.022 100a.554.554 0 01-.207-.041l-10.364-4.452c-.234-.103-.53-.227-.772-.468-.634-.648-.475-1.64-.069-2.288.214-.33.47-.6.724-.862.172-.172.33-.337.462-.516.455-.586.64-1.365.523-2.199-.124-.895-.585-1.695-1.254-2.184-1.323-.965-3.383-.827-4.692.324-1.255 1.103-1.799 3.018-1.344 4.768a.528.528 0 01-.186.552.521.521 0 01-.579.041c-3.983-2.253-7.931-3.645-12.417-4.376a.537.537 0 01-.366-.24.535.535 0 01-.055-.435c2.647-8.29 5.375-16.855 8-25.365a.51.51 0 01.263-.31.552.552 0 01.406-.035 967.39 967.39 0 0011.287 3.652c.262-.516.207-1.226.145-1.97a10.8 10.8 0 01-.055-1.261c.062-1.468.958-2.853 2.391-3.694 1.516-.889 3.335-.999 4.74-.282 1.303.661 2.261 1.943 2.633 3.514.4 1.668.076 3.432-.861 4.706-.214.29-.6.82-.469 1.013.062.09.283.166.428.22l12.148 4.246a.528.528 0 01.324.668c-1.227 3.59-2.66 7.16-4.252 10.598a.504.504 0 01-.386.297.534.534 0 01-.461-.145c-1.337-1.358-3.756-2.185-5.589-1.055-.847.524-1.399 1.585-1.399 2.715 0 .93.38 1.696 1.04 2.102.807.503 1.84.483 2.93.469.468-.007.957-.014 1.433.02a.525.525 0 01.365.186c.09.11.131.249.117.393-.496 4.452-1.93 8.42-4.155 11.487a.546.546 0 01-.427.207zM36.998 85.309c.972 0 1.923.275 2.688.834.895.654 1.509 1.709 1.674 2.88.158 1.116-.103 2.177-.73 2.99-.173.221-.359.414-.538.6-.227.234-.434.448-.593.69-.2.316-.282.778-.069.991.097.097.27.173.435.242l9.97 4.286c1.889-2.743 3.15-6.209 3.653-10.088-.255-.007-.517 0-.786 0-1.192.013-2.425.034-3.493-.628-.979-.606-1.537-1.695-1.537-2.997 0-1.482.751-2.894 1.902-3.604 2.053-1.261 4.644-.613 6.333.717a111.697 111.697 0 003.741-9.358L47.996 68.79c-.276-.096-.682-.24-.944-.613-.558-.813.09-1.702.482-2.233.758-1.026 1.013-2.466.69-3.838-.304-1.275-1.062-2.301-2.089-2.825-1.088-.551-2.522-.455-3.734.255-1.13.662-1.827 1.716-1.875 2.825-.014.352.014.73.048 1.13.083 1.013.18 2.157-.585 3.018-.138.152-.352.214-.552.152-3.659-1.144-7.462-2.391-11.163-3.604-2.515 8.152-5.127 16.345-7.662 24.29a37.76 37.76 0 0111.225 3.88c-.117-1.792.565-3.583 1.847-4.713.916-.793 2.129-1.206 3.314-1.206z" fill="#000"/><path d="M39.596 66.173c.875-.986.351-2.508.4-3.818.117-2.88 3.796-4.837 6.373-3.528 2.57 1.31 3.294 5.12 1.585 7.442-.358.49-.82 1.123-.475 1.627.151.22.427.323.682.413 4.052 1.413 8.097 2.832 12.149 4.245a110.442 110.442 0 01-4.231 10.55c-1.606-1.62-4.293-2.33-6.236-1.13-1.944 1.192-2.302 4.506-.366 5.705 1.323.82 3.032.448 4.597.572-.448 4.073-1.744 8.049-4.06 11.24-3.452-1.482-6.91-2.97-10.363-4.452-.214-.09-.434-.186-.6-.359-.413-.42-.317-1.144 0-1.64s.8-.868 1.158-1.337c1.185-1.53.724-3.99-.84-5.126-1.558-1.137-3.9-.917-5.348.358-1.454 1.275-1.991 3.425-1.509 5.292-3.721-2.108-7.76-3.652-12.596-4.438 2.694-8.44 5.388-16.882 8-25.372 3.941 1.275 7.876 2.564 11.68 3.756z" fill="#FFB217"/><path d="M59.62 72.064c-.44-.192-.881-.4-1.309-.62-.468.193-.833.627-.827 1.24-.055.724-.303 2.137-.764 3.701-.593 1.737-.752 1.923-1.351 3.397-.13.407-.262.813-.407 1.213-.082.241-.186.49-.117.744.042.662.793 1.13 1.413.944.93-.4.73-.875.985-1.22.738-1.343 1.248-2.804 1.723-4.258.338-1.178.944-2.274 1.123-3.5.049-.455.207-.945.083-1.392l-.551-.249zM53.48 87.68c-.357.006-.723.006-1.074.006a.524.524 0 01-.145-.02.958.958 0 00-.434.82c-.055 1.13-.096 1.205-.448 2.542-.716 2.88-.95 3.287-2.17 5.561-.028.055-.056.117-.09.172-.84-.4-1.764-.606-2.66-.854-2.026-.593-4.093-1.047-6.126-1.64-.2-.062-.427-.172-.627-.041-.338.186-.269.737.11.826.744.29 1.792.503 2.185.717 2.598 1.15 4.217 1.888 6.16 2.598.055.02.103.041.159.062.31.158.654.241.985.358 0 0 .007 0 .007.007.33.214.792.338 1.11.041.261-.179.358-.516.296-.813.261-.317.454-.71.661-1.047 1.213-1.902 1.613-4.155 2.198-6.298.138-.545.214-1.11.262-1.668.007-.303.104-.64-.055-.923a1.035 1.035 0 00-.303-.407z" fill="#000" opacity=".129"/><path d="M50.022 100a.554.554 0 01-.207-.041l-10.364-4.452c-.234-.103-.53-.227-.772-.468-.634-.648-.475-1.64-.069-2.288.214-.33.47-.6.724-.862.172-.172.33-.337.462-.516.455-.586.64-1.365.523-2.199-.124-.895-.585-1.695-1.254-2.184-1.323-.965-3.383-.827-4.692.324-1.255 1.103-1.799 3.018-1.344 4.768a.528.528 0 01-.186.552.521.521 0 01-.579.041c-3.983-2.253-7.931-3.645-12.417-4.376a.537.537 0 01-.366-.24.535.535 0 01-.055-.435c2.647-8.29 5.375-16.855 8-25.365a.51.51 0 01.263-.31.552.552 0 01.406-.035 967.39 967.39 0 0011.287 3.652c.262-.516.207-1.226.145-1.97a10.8 10.8 0 01-.055-1.261c.062-1.468.958-2.853 2.391-3.694 1.516-.889 3.335-.999 4.74-.282 1.303.661 2.261 1.943 2.633 3.514.4 1.668.076 3.432-.861 4.706-.214.29-.6.82-.469 1.013.062.09.283.166.428.22l12.148 4.246a.528.528 0 01.324.668c-1.227 3.59-2.66 7.16-4.252 10.598a.504.504 0 01-.386.297.534.534 0 01-.461-.145c-1.337-1.358-3.756-2.185-5.589-1.055-.847.524-1.399 1.585-1.399 2.715 0 .93.38 1.696 1.04 2.102.807.503 1.84.483 2.93.469.468-.007.957-.014 1.433.02a.525.525 0 01.365.186c.09.11.131.249.117.393-.496 4.452-1.93 8.42-4.155 11.487a.546.546 0 01-.427.207zM36.998 85.309c.972 0 1.923.275 2.688.834.895.654 1.509 1.709 1.674 2.88.158 1.116-.103 2.177-.73 2.99-.173.221-.359.414-.538.6-.227.234-.434.448-.593.69-.2.316-.282.778-.069.991.097.097.27.173.435.242l9.97 4.286c1.889-2.743 3.15-6.209 3.653-10.088-.255-.007-.517 0-.786 0-1.192.013-2.425.034-3.493-.628-.979-.606-1.537-1.695-1.537-2.997 0-1.482.751-2.894 1.902-3.604 2.053-1.261 4.644-.613 6.333.717a111.697 111.697 0 003.741-9.358L47.996 68.79c-.276-.096-.682-.24-.944-.613-.558-.813.09-1.702.482-2.233.758-1.026 1.013-2.466.69-3.838-.304-1.275-1.062-2.301-2.089-2.825-1.088-.551-2.522-.455-3.734.255-1.13.662-1.827 1.716-1.875 2.825-.014.352.014.73.048 1.13.083 1.013.18 2.157-.585 3.018-.138.152-.352.214-.552.152-3.659-1.144-7.462-2.391-11.163-3.604-2.515 8.152-5.127 16.345-7.662 24.29a37.76 37.76 0 0111.225 3.88c-.117-1.792.565-3.583 1.847-4.713.916-.793 2.129-1.206 3.314-1.206zM15.857 74.855a.538.538 0 01-.33-.117c-5.32-4.327-8.483-11.005-8.456-17.86a.523.523 0 111.048 0c-.028 6.545 2.99 12.912 8.069 17.04.227.186.262.51.076.737a.519.519 0 01-.407.2z" fill="#000"/><path d="M15.87 75.145a.602.602 0 01-.11-.014c-1.956-.42-3.893-1-5.753-1.73a.527.527 0 01.386-.978 35.772 35.772 0 004.906 1.523 19.124 19.124 0 00-.979-4.555.523.523 0 01.324-.669.528.528 0 01.669.324 20.46 20.46 0 011.082 5.534.527.527 0 01-.186.427.463.463 0 01-.338.138zm53.198 10.274a.535.535 0 01-.482-.31.53.53 0 01.269-.696c6.263-2.798 11.087-8.69 12.582-15.387a.527.527 0 01.627-.4.527.527 0 01.4.627c-1.564 7.015-6.615 13.19-13.175 16.118a.637.637 0 01-.22.048z" fill="#000"/><path d="M82.891 74.139a.523.523 0 01-.524-.524c0-1.268-.172-2.522-.523-3.735-1 .84-2.081 1.592-3.205 2.253a.526.526 0 01-.716-.186.526.526 0 01.186-.716 22.142 22.142 0 003.638-2.653.532.532 0 01.483-.117.519.519 0 01.365.33 14.42 14.42 0 01.827 4.83.533.533 0 01-.53.518zM45.501 11.26a.528.528 0 01-.296-.965c5.402-3.645 12.68-4.162 18.543-1.31a.52.52 0 01.241.704.52.52 0 01-.702.24C57.753 7.243 50.89 7.726 45.79 11.17a.48.48 0 01-.29.09z" fill="#000"/><path d="M49.994 11.556h-.048a39.608 39.608 0 00-4.7-.152.517.517 0 01-.482-.282.53.53 0 01.048-.558l2.84-3.797a.52.52 0 01.737-.104.52.52 0 01.103.738l-2.198 2.935h.076c1.226 0 2.453.055 3.672.173a.525.525 0 01-.048 1.047zm17.338-6.877a.572.572 0 01-.276-.076c-3.714-2.295-8.166-3.556-12.534-3.556h-.014A.523.523 0 1154.528 0c4.624 0 9.145 1.282 13.086 3.707a.526.526 0 01.172.724.561.561 0 01-.454.248zm5.181 88.244a.523.523 0 01-.248-.985c3.797-2.054 7.077-5.244 9.227-8.986a.522.522 0 01.717-.193.528.528 0 01.193.717 24.623 24.623 0 01-9.64 9.392.619.619 0 01-.249.055zM4.721 69.136a.51.51 0 01-.413-.207A20.746 20.746 0 010 56.092c0-.29.234-.517.524-.517h.007a.52.52 0 01.517.53 19.76 19.76 0 004.086 12.183.52.52 0 01-.097.738.494.494 0 01-.317.11z" fill="#000"/></svg>