<svg width="50" height="50" fill="none" xmlns="http://www.w3.org/2000/svg"><path d="M1.281 47.049c4.05-2.733 8.098-5.47 12.15-8.202.56-.377 1.135-.764 1.785-.943.543-.152 1.118-.152 1.68-.152 6.005-.01 12.01-.02 18.02-.033l13.726 9.424.084 2.548-47.487-.208.042-2.434zm43.861-2.809s-6.051-4.182-6.045-4.319c.146-1.683.348-3.366.767-5.004.237-.933.575-1.891 1.3-2.522.725-.633 1.937-.793 2.616-.114.416.42.543 1.037.64 1.619.569 3.428.79 6.915.721 10.34z" fill="#fff"/><path d="M39.507 29.93a4.09 4.09 0 01.835-3.636c.585-.686 1.423-1.167 2.32-1.245.897-.078 1.84.276 2.405.978.536.666.692 1.57.653 2.425-.048 1.095-.448 2.252-1.358 2.869-.478.325-1.056.471-1.632.5a3.632 3.632 0 01-1.407-.195c-.822-.299-1.615-.922-1.816-1.696zm-17.974-3.494c-.328-1.316-.006-2.794.835-3.828.585-.721 1.424-1.228 2.32-1.31.898-.08 1.84.29 2.402 1.03.536.703.692 1.655.653 2.552-.048 1.153-.448 2.372-1.358 3.019-.478.34-1.056.497-1.631.526a3.41 3.41 0 01-1.408-.205c-.818-.312-1.611-.971-1.813-1.784zM4.905 30.08c-.322-1.271-.007-2.694.812-3.692.572-.696 1.39-1.186 2.265-1.264.874-.078 1.794.28 2.343.991.523.68.676 1.592.637 2.46-.049 1.111-.439 2.288-1.323 2.912-.464.328-1.03.477-1.592.507a3.393 3.393 0 01-1.371-.199c-.8-.295-1.573-.932-1.771-1.716zm.198 14.418c.084-2.678.208-5.353.364-8.027.052-.907.116-1.836.467-2.674.351-.839 1.053-1.586 1.95-1.746.247-.042.504-.042.741.033.728.22 1.108 1.007 1.362 1.725a19.534 19.534 0 011.098 6.62 134.09 134.09 0 01-2.375 1.722c-1.164.829-2.35 1.645-3.607 2.347z" fill="#fff"/><path d="M49.005 47.484a1.173 1.173 0 00-.296-.299 28.95 28.95 0 01-.757 0c-.393-.007-.796-.03-1.173-.146-.023-.007-.042-.017-.062-.026-3.23.029-6.46-.065-9.69-.114a.162.162 0 01-.042.007c-.407.042-.822.022-1.232.026-.41.003-.819.01-1.228.012-.816.007-1.632 0-2.447.004-1.635.003-3.27.013-4.907.023a.223.223 0 01-.195-.098c-2.538.081-5.076.156-7.614.039-.868-.016-1.736-.023-2.603-.026-2.44.02-4.881.052-7.322.081-1.368.017-2.74 0-4.107.01-.686.007-1.368.042-2.054.065-.676.023-1.355.03-2.031.058a.283.283 0 01-.221-.078c.045.514.078 1.03.114 1.547.022.345.068.702.087 1.056.004 0 .01 0 .013.004 1.109.253 2.262.328 3.396.28 1.027-.046 2.048-.154 3.074-.154 1.03 0 2.058.014 3.088.014 1.046 0 2.092-.036 3.136.003.27.01.539.016.809.023 1.998-.15 3.997-.3 6.002-.277 1.115.007 2.223.11 3.337.146 1.45.059 2.899.046 4.348.069 2.363.058 4.722.185 7.085.133 1.832-.03 3.668-.045 5.505-.055 2.479-.085 4.962-.13 7.441.026a.946.946 0 00.536-.153 7.578 7.578 0 01-.068-.715c-.013-.322.007-.64.01-.962.006-.185.013-.37.068-.523z" fill="#000" opacity=".129"/><path d="M6.173 36.114a.075.075 0 01-.046-.013.08.08 0 01-.022-.113 33.817 33.817 0 012.528-3.247.082.082 0 01.117-.006.08.08 0 01.006.117 33.963 33.963 0 00-2.515 3.23.091.091 0 01-.068.032zm-.121 2.518a.074.074 0 01-.045-.013.08.08 0 01-.023-.114 62.247 62.247 0 013.35-4.52.086.086 0 01.117-.013c.036.03.04.081.013.117a60.326 60.326 0 00-3.344 4.507.085.085 0 01-.068.036zm.133 1.969a.088.088 0 01-.049-.016.08.08 0 01-.016-.114l3.48-4.666a.08.08 0 01.114-.016.083.083 0 01.016.117l-3.48 4.666a.094.094 0 01-.065.03zm-.095 2.691a.074.074 0 01-.045-.013.08.08 0 01-.023-.114 100.191 100.191 0 013.747-5.361c.026-.036.078-.043.117-.017.035.026.042.078.016.117a99.786 99.786 0 00-3.74 5.352.09.09 0 01-.072.036zm2.523-1.251a.088.088 0 01-.048-.016c-.036-.026-.043-.078-.017-.117l1.537-2.015a.087.087 0 01.117-.016c.036.026.043.078.017.117L8.682 42.01a.09.09 0 01-.069.032z" fill="#000"/><path d="M11.16 27.42c-.002-.042-.006-.077-.006-.097-.029-.188-.013-.413-.123-.575-.085-.127-.27-.153-.397-.078-.169.094-.162.286-.123.448.02.186.023.374.036.563-.007.243-.03.705-.147 1.124-.318 1.349-1.043 1.963-1.862 2.112-.4.03-.562.065-1.157.05-.094-.004-.47-.04-.562-.046-.25-.036-.5-.078-.75-.114a.337.337 0 00-.257.032c-.25.137-.198.543.081.611l.26.069c.03.042.071.074.127.087.308.098.617.208.942.231.189.006.38 0 .569-.003.185.01.367.01.552-.007h.033c.848.04 1.602-.465 2.148-1.075.575-.634.845-1.862.867-2.36.036-.302.026-.828-.23-.971zm-1.351 9.314c.084 1.557.065 3.113.058 4.673.137-.1.273-.201.41-.299.27-.198.536-.41.806-.614a66.38 66.38 0 01-.205-1.888c-.14-1.014-.335-3.347-.68-4.91-.08-.208-.113-.498-.288-.647-.05-.1-.098-.202-.15-.299-.127-.175-.185-.445-.406-.517-.267-.081-.51.234-.364.472.851 1.218.806 2.45.819 4.029z" fill="#000" opacity=".129"/><path d="M7.869 32.13c-.481 0-.972-.082-1.443-.247a2.742 2.742 0 01-.75-.38c-.417-.31-.729-.784-.953-1.447-.14-.41-.211-.78-.218-1.137-.01-.432.072-.887.25-1.394.303-.855.787-1.57 1.398-2.07.702-.572 1.58-.852 2.405-.764.806.085 1.589.644 2.145 1.527.435.693.666 1.557.666 2.496 0 .374-.036.699-.11.988-.245.936-.989 1.761-1.944 2.151a3.77 3.77 0 01-1.446.277zm.387-6.958c-.621 0-1.261.237-1.791.67-.543.442-.972 1.082-1.245 1.849-.159.448-.23.845-.22 1.215.006.305.07.627.191.991.192.562.445.959.777 1.206.162.12.357.217.62.312.855.299 1.781.292 2.542-.02.812-.331 1.446-1.03 1.65-1.816.066-.247.095-.53.095-.861 0-.849-.205-1.619-.592-2.233-.224-.357-.848-1.2-1.777-1.3-.085-.006-.166-.013-.25-.013z" fill="#000"/><path d="M5.019 44.711a.257.257 0 01-.127-.035.242.242 0 01-.12-.218c.081-3.172.257-6.035.543-8.748.104-.975.234-1.914.715-2.714.47-.783 1.462-1.517 2.531-1.277 1.07.24 1.778 1.307 2.103 3.169.286 1.628.52 3.383.734 5.53a.248.248 0 01-.098.225c-.126.094-.25.188-.373.282-.17.13-.335.257-.504.38-.198.147-.396.29-.595.436-.442.28-.87.553-1.3.822-.542.338-1.082.68-1.624 1.017l-1.638 1.024c-.013.01-.033.026-.046.033l-.078.045a.276.276 0 01-.123.03zm3.136-12.543c-.692 0-1.355.51-1.7 1.082-.429.715-.546 1.56-.646 2.512-.27 2.57-.442 5.27-.53 8.248.455-.283.91-.57 1.361-.852l1.625-1.014c.43-.27.858-.54 1.284-.812.185-.137.383-.28.582-.426.165-.123.331-.247.497-.374l.266-.204c-.211-2.07-.438-3.777-.715-5.356-.289-1.647-.867-2.58-1.722-2.772a1.65 1.65 0 00-.302-.032z" fill="#000"/><path d="M45.487 27.739c-.312.058-.335.377-.367.633.042-.237-.017.114-.043.267-.188.793-.396 1.2-.679 1.479-.442.425-1.556.864-2.015.887h-.026a4.845 4.845 0 01-.22-.049 1.837 1.837 0 00-.482-.052 3.288 3.288 0 00-.123.01c-.143 0-.292-.026-.426.026-.49.15-.38.91.13.93.53.041.078.041.68.058.136-.007.27-.02.406-.033.565-.01 1.189-.13 1.946-.477 1.037-.527 1.632-1.687 1.722-2.815.004-.41.091-.897-.503-.864zm-1.804 9.392c.026.904-.042 1.807.007 2.707.048.965.178 1.683.15 3.39a7.58 7.58 0 01-.024.321c.17.12.335.24.504.364l.663.488c-.003-.195-.003-.394-.036-.579-.055-.416-.052-.429-.068-.569.003-.77.1-3.132.02-4.442a40.413 40.413 0 00-.137-2.336c-.039-.907-.094-1.817-.312-2.7-.153-.589-.39-1.281-.868-1.674-.37-.202-.75.299-.468.607.92 1.141.67 2.568.57 4.423z" fill="#000" opacity=".129"/><path d="M42.508 32.064a4.334 4.334 0 01-1.677-.341 2.792 2.792 0 01-.728-.426c-.396-.334-.68-.825-.861-1.501a3.8 3.8 0 01-.15-1.147c.017-.432.127-.88.335-1.375.354-.835.88-1.517 1.52-1.979.739-.53 1.629-.754 2.445-.617.8.133 1.546.738 2.047 1.654.393.718.569 1.592.513 2.531a3.968 3.968 0 01-.169.979c-.299.92-1.092 1.7-2.07 2.03-.377.127-.79.192-1.205.192zm.406-6.931c-.572 0-1.167.195-1.677.562-.569.41-1.037 1.02-1.355 1.771-.185.439-.283.832-.296 1.202-.013.306.033.63.13 1.001.156.575.387.985.702 1.251.153.13.345.24.601.348.836.351 1.759.4 2.538.137.832-.283 1.505-.94 1.758-1.713.079-.244.127-.523.147-.855.048-.845-.108-1.628-.455-2.265-.202-.37-.774-1.25-1.697-1.403a2.021 2.021 0 00-.396-.036z" fill="#000"/><path d="M45.133 44.761a.24.24 0 01-.147-.048c-.27-.202-.542-.403-.815-.602-.647-.47-1.306-.942-1.96-1.4-.325-.228-.65-.458-.971-.69-.745-.529-1.515-1.078-2.291-1.578a.246.246 0 01-.11-.238c.184-1.57.376-3.113.646-4.731.162-.965.35-1.898.877-2.665.517-.754 1.554-1.423 2.606-1.121 1.053.306 1.693 1.41 1.905 3.289.364 3.23.452 6.48.507 9.53a.241.241 0 01-.134.225.206.206 0 01-.113.03zm-5.785-4.647c.741.485 1.472 1.005 2.18 1.508.323.231.644.458.97.686a114.906 114.906 0 012.378 1.712c-.058-2.892-.153-5.95-.494-8.982-.188-1.66-.708-2.625-1.55-2.869-.78-.224-1.628.296-2.06.926-.471.686-.64 1.524-.8 2.467-.26 1.55-.445 3.038-.624 4.552z" fill="#000"/><path d="M23.666 37.703c.682.006 1.361.003 2.04-.03.696-.029 1.388-.065 2.083-.087.052-.003.104-.003.156-.007l-.311-3.233c-.16-1.648-.329-3.334-1.053-4.823-.182-.373-.41-.74-.754-.971-.787-.53-1.927-.12-2.506.63-.578.75-.738 1.736-.861 2.675a77.98 77.98 0 00-.546 5.833c.585.013 1.167.006 1.752.013z" fill="#FFB217"/><path d="M27.959 24.346c-.14-.15-.41-.036-.403.166.003.21-.205.711-.319 1.078-.263.728-.832 1.313-1.758 1.745-.312.12-1.075.28-1.77.26-.15-.003-.371-.065-.716-.136a.34.34 0 00-.263.036c-.257.14-.205.559.081.627 1.177.383 2.528.16 3.594-.439.426-.305.865-.65 1.06-1.154-.004.017-.036.079-.023.062.166-.266.296-.552.393-.851.114-.28.16-.76.16-.897.01-.163.094-.364-.036-.497zM26.1 30.108c.065.433.078.442.147 1.047.006.133.003.266.006.4l.01-.065c-.007.419.104.848.117 1.273.042 1.401.104 2.798.136 4.199.007.224.017.448.026.673.416-.02.835-.036 1.255-.052h.042a61.425 61.425 0 00-.166-3.37c-.123-1.612-.191-2.519-.386-3.217-.095-.69-.235-1.04-.345-1.271-.169-.406-.432-.764-.725-1.089-.152-.15-.27-.396-.51-.396-.305-.01-.478.396-.253.608.52.598.526.76.646 1.26z" fill="#000" opacity=".129"/><path d="M24.644 28.577a4.36 4.36 0 01-1.443-.247 2.696 2.696 0 01-.75-.38c-.416-.308-.729-.783-.953-1.446-.14-.41-.21-.78-.217-1.137-.01-.433.071-.887.25-1.394.302-.855.786-1.57 1.397-2.07.702-.572 1.58-.852 2.405-.764.806.084 1.589.643 2.145 1.527.435.692.666 1.557.666 2.496 0 .374-.036.699-.11.988-.244.936-.988 1.761-1.944 2.151-.445.185-.94.276-1.446.276zm.39-6.957c-.62 0-1.26.237-1.79.67-.543.441-.972 1.081-1.245 1.848-.16.449-.231.845-.221 1.216.006.305.071.627.192.99.191.563.445.96.776 1.206.163.12.358.218.62.312.855.3 1.782.293 2.542-.02.813-.33 1.446-1.03 1.65-1.816a3.34 3.34 0 00.095-.86c0-.849-.205-1.62-.591-2.233-.225-.358-.849-1.2-1.778-1.3a3.306 3.306 0 00-.25-.013z" fill="#000"/><path d="M24.182 37.954c-.169 0-.341 0-.52-.004-.25-.003-.5-.003-.75-.003-.335 0-.67-.003-1.001-.006a.239.239 0 01-.176-.078.247.247 0 01-.065-.182c.101-1.963.237-3.77.423-5.521.1-.975.234-1.914.715-2.714.47-.783 1.465-1.518 2.531-1.277 1.07.24 1.774 1.306 2.103 3.168.318 1.81.572 3.786.805 6.223a.251.251 0 01-.24.273l-.208.007c-.507.016-1.014.039-1.52.062l-.56.026c-.48.016-.988.026-1.537.026zm-2.008-.504c.247.003.49.003.738.003.25 0 .503 0 .754.003.747.007 1.41 0 2.027-.029l.56-.026c.49-.023.98-.045 1.471-.062-.224-2.3-.47-4.188-.776-5.92-.29-1.648-.868-2.577-1.723-2.77-.793-.178-1.605.394-1.998 1.05-.43.715-.546 1.56-.647 2.512-.172 1.664-.305 3.38-.406 5.239z" fill="#000"/><path d="M1.093 47.503a.252.252 0 01-.237-.172.248.248 0 01.097-.28c3.227-2.15 6.025-4.042 8.492-5.71 1.96-1.322 3.808-2.57 5.505-3.704a.248.248 0 01.133-.042c3.49-.042 7.078-.104 10.545-.16 3.029-.051 6.165-.103 9.261-.145.043 0 .091.01.13.035 3.016 1.775 6.048 3.994 8.98 6.139 1.731 1.267 3.37 2.466 5.014 3.587a.248.248 0 01-.14.452c-.566 0-2.1-.01-4.218-.026-9.411-.068-31.454-.23-43.559.026h-.003zm18.328-.637c9.72 0 19.68.075 25.24.114 1.456.01 2.636.02 3.416.023a219.17 219.17 0 01-4.365-3.143c-2.902-2.125-5.901-4.322-8.878-6.077-3.074.043-6.184.095-9.19.143-3.444.059-7.006.117-10.473.16-1.68 1.12-3.507 2.356-5.44 3.662-2.288 1.544-4.855 3.279-7.79 5.239 4.849-.088 11.114-.12 17.48-.12z" fill="#000"/><path d="M41.753 50c-6.168 0-17.409-.035-37.65-.14l-3.01-.016a.246.246 0 01-.179-.078.255.255 0 01-.068-.181 17.5 17.5 0 000-2.19.247.247 0 11.494-.032c.042.587.046 1.24.013 1.99.442.004 1.4.007 2.753.014 27.72.143 42.684.178 44.54.104.022-.413.01-.904-.004-1.381-.01-.3-.016-.582-.013-.832 0-.137.11-.247.247-.247h.003a.25.25 0 01.247.25c-.003.24.007.52.013.816.017.575.033 1.17-.016 1.65a.25.25 0 01-.166.212c-.11.029-1.452.061-7.204.061z" fill="#000"/><path d="M9.064 21.071c.933-1.547 1.056-3.555.322-5.206-.481-1.082-1.29-1.982-1.937-2.973-.647-.991-1.15-2.18-.897-3.438.163-.88.387-1.758.757-2.574.969-2.141 2.886-3.76 5.028-4.731 2.141-.972 4.504-1.35 6.876-1.564a107.05 107.05 0 016.7-.295c2.701-.026 5.473.09 7.956 1.137 1.222.51 2.34 1.29 3.184 2.31.845 1.021 1.408 2.288 1.495 3.614.517.24.953.63 1.323 1.066a6.747 6.747 0 011.553 5.177 6.763 6.763 0 01-2.794 4.627c-.11.078-.228.16-.28.283-.042.107-.026.23-.01.345.153 1.026.306 2.053.38 3.1-.584-.387-1.075-.897-1.618-1.34a8.538 8.538 0 00-5.417-1.88c-1.57.032-3.123.315-4.686.467-1.563.153-3.175.17-4.666-.322-1.492-.487-2.863-1.546-3.474-3.005-1.885-.3-3.825.328-5.44 1.345-1.612 1.017-2.957 2.401-4.355 3.857z" fill="#FFB217"/><path d="M41.532 12.148c-.072-.851-.296-1.683-.592-2.482a2.831 2.831 0 01-.584-.784c-.082-.155-.16-.311-.238-.467-.322.14-.058.53-.01.776.144.481.29.965.394 1.456.175.689.156 1.557.045 2.07-.055.695-.357 1.84-.676 2.405-.666 1.007-.903 1.332-1.631 2.177a.486.486 0 00-.15.1 2.67 2.67 0 00-.217.251 1.97 1.97 0 01-.63.26c-.452.104-.527.143-1.1.104a1.401 1.401 0 01-.149-.026c-.201-.02-.416-.12-.617-.097-.091-.03-.192-.056-.302-.085a9.107 9.107 0 00-1.586-.328c-1.748-.189-3.708.218-4.257.266-1.004.082-2.899.11-3.305.231-.754.039-1.508-.052-2.258-.065a8.56 8.56 0 01-.39-.036 2.916 2.916 0 01-.24-.045c-1.018-.28-1.454-.494-2.438-1.125-.354-.207-.484-.302-.718-.552 1.387 0 2.775.039 4.16-.039 1.956-.136 3.918-.195 5.875-.36 1.615-.04 3.405-.459 4.377-.888 1.306-.536 2.798-1.553 3.59-3.457.196-.494.326-1.018.472-1.528a3.9 3.9 0 00.094-.471c-.026.237.042-.127-.045-.211a.27.27 0 00-.052-.069l-.14.312a4.94 4.94 0 01-.734 1.157c-.26.309-.472.657-.767.933l-.036.032c-.358.465-.676.722-1.336 1.203-.23.169-1.748 1.264-4.146 1.45-.459.035-.913.09-1.378.087a47.7 47.7 0 00-1.79.188c-.956.124-1.921.147-2.883.195-1.33.137-2.665.16-4 .17-.89.01-1.781-.072-2.672-.05-.91.02-1.816.137-2.707.326-.936.25-1.654.41-2.762.978-.55.286-1.066.624-1.57.981-.315.254-.688.494-.877.861.02-.045.02-.065-.055.049-.24.364-.198.24-.309.465.007-.02.016-.036.023-.052-.237.393-.517.754-.787 1.12l-.087.427-.049.243c.11.212.367.341.601.29.3-.394.627-.764.982-1.115.507-.497 1.04-.962 1.585-1.414.579-.477 1.16-.887 1.853-1.183a11.21 11.21 0 012.128-.692c.37-.075.744-.13 1.121-.169.384-.039.77-.035 1.154-.074.328-.033.432.344.312.578.234.299.16.247.604.744.806.79 2.05 1.427 2.694 1.657.881.31 1.83.364 2.753.41 1.706.003 1.137-.114 2.379-.192.874-.114 1.76-.143 2.629-.302a33.393 33.393 0 013.324-.127c.712.062.67-.026 1.65.309 0 0 .004 0 .004.003.137.075.078.023-.006-.035.354.25.159.07.575.292.305.169.458.234.604.299a.492.492 0 00-.026.062c.484.308.917.708 1.31 1.117.257.27.507.54.763.81l.01.01c.354.042.605-.332.406-.621l-.039-.088c-.058-.578-.198-.54-.331-1.196-.081-.276.02-.67.078-.933.006-.032.016-.061.026-.09l.045-.091c.173-.27.036-.095.303-.371a.507.507 0 00.143-.29c.308-.314.646-.604.942-.932.504-.614.87-1.316 1.17-2.047a.38.38 0 00.02-.049c-.03.072.25-.585.285-.724a6.7 6.7 0 00.189-1.902z" fill="#000" opacity=".129"/><path d="M8.818 21.584a.246.246 0 01-.208-.38c1.082-1.722 1.163-3.997.208-5.794-.257-.481-.588-.94-.913-1.381-.361-.494-.731-1.004-1.014-1.57-1.739-3.464.484-7.698 3.539-9.635C13.634.79 17.732.494 21.024.257c3.347-.244 6.814-.494 10.23.165 2.346.452 4.11 1.264 5.39 2.48 1.486 1.41 2.256 3.607 2.061 5.882-.195 2.274-1.33 4.309-3.035 5.443-2.389 1.589-5.482 1.621-7.972 1.644l-7.159.072c-1.94.02-4.14.042-6.018.887-1.69.76-3.029 2.138-4.325 3.47-.393.403-.8.823-1.21 1.216a.238.238 0 01-.168.068zM26.35.494c-1.778 0-3.552.13-5.294.253-3.405.25-7.263.53-10.363 2.496C7.82 5.066 5.714 9.024 7.33 12.238c.263.527.623 1.02.971 1.498.332.455.676.926.95 1.44.812 1.52.935 3.357.392 4.982.065-.069.134-.137.199-.202 1.329-1.365 2.703-2.778 4.478-3.578 1.972-.89 4.227-.91 6.216-.93l7.162-.07c2.421-.023 5.434-.053 7.699-1.564 1.58-1.053 2.632-2.95 2.814-5.072.182-2.126-.53-4.173-1.907-5.48-1.213-1.15-2.896-1.917-5.148-2.352C29.57.6 27.958.494 26.35.494z" fill="#000"/><path d="M38.89 22.501a.25.25 0 01-.182-.081c-.92-1.004-1.868-2.044-3.087-2.671-1.836-.95-4.078-.826-5.83-.611-.403.049-.806.107-1.212.162-1.608.225-3.276.459-4.92.238-1.807-.24-4.182-1.303-4.933-3.504a.25.25 0 01.153-.315.25.25 0 01.315.153c.68 1.986 2.866 2.95 4.53 3.172 1.58.21 3.21-.017 4.787-.238a52.4 52.4 0 011.219-.162c1.82-.224 4.162-.348 6.119.663 1.033.536 1.897 1.358 2.661 2.17l-.374-2.287c-.039-.237-.09-.566.059-.858.107-.208.286-.338.442-.452l.03-.022c1.598-1.177 2.586-3.136 2.586-5.122a6.46 6.46 0 00-2.6-5.115.248.248 0 01-.055-.344.249.249 0 01.344-.056c1.726 1.261 2.798 3.373 2.801 5.512.004 2.138-1.065 4.254-2.788 5.521l-.029.023c-.123.09-.24.178-.296.282-.071.137-.045.332-.01.55l.51 3.1a.253.253 0 01-.136.263.163.163 0 01-.104.03zM16.974 9.986c-.774 0-1.404-.63-1.404-1.404 0-.773.63-1.404 1.404-1.404.773 0 1.404.63 1.404 1.404 0 .773-.63 1.404-1.404 1.404zm0-2.31a.907.907 0 100 1.813.907.907 0 000-1.814zm5.509 2.31c-.774 0-1.404-.63-1.404-1.404 0-.773.63-1.404 1.404-1.404.773 0 1.404.63 1.404 1.404 0 .773-.63 1.404-1.404 1.404zm0-2.31a.907.907 0 100 1.813.907.907 0 000-1.814zm5.56 2.31c-.774 0-1.404-.63-1.404-1.404 0-.773.63-1.404 1.404-1.404.773 0 1.403.63 1.403 1.404 0 .773-.63 1.404-1.404 1.404zm0-2.31a.907.907 0 100 1.813.907.907 0 000-1.814z" fill="#000"/></svg>