<svg width="141" height="101" fill="none" xmlns="http://www.w3.org/2000/svg"><path d="M108.815 1.428c.311 29.586 0 59.612 0 89.79-82.322 0-83.49.234-108.155-.123C.218 61.105.07 26.886.791 1.727c25.91 0 73.805-.727 108.024-.299z" fill="#fff"/><path d="M27.966 85.085c-10.355 0-16.634-.043-27.311-.185a.294.294 0 01-.29-.288C.06 65.23-.332 28.682.503 1.685a.294.294 0 01.295-.283c9.012 0 20.917-.082 33.52-.174 24.463-.174 52.19-.365 74.503-.104a.29.29 0 01.289.289c.208 18.277.137 37.093.071 55.294-.032 9.17-.071 18.658-.071 28.014a.293.293 0 01-.294.293c-30.34 0-49.326.028-63.189.05-7.294.01-12.908.021-17.66.021zM.944 84.318c15.363.207 21.654.196 44.677.163 13.82-.021 32.729-.049 62.899-.049 0-9.263.038-18.647.071-27.725.065-18.104.136-36.816-.065-55-22.26-.256-49.855-.06-74.21.108-12.471.087-24.261.169-33.241.169C.256 28.812.638 64.937.944 84.318z" fill="#000"/><path d="M108.897 12.1h-.006c-25.396-1.053-75.016-1.044-104.657-1.044H.654c-.163 0-.294-.213-.294-.478s.131-.477.295-.477h3.573c29.647-.01 79.272-.01 104.674 1.043.164.009.289.221.284.486 0 .266-.131.47-.289.47zm-6.029-3.246a2.685 2.685 0 01-2.684-2.676 2.685 2.685 0 015.368 0 2.685 2.685 0 01-2.684 2.676zm0-4.77a2.102 2.102 0 00-2.101 2.094 2.102 2.102 0 004.201 0 2.102 2.102 0 00-2.1-2.094z" fill="#000"/><path d="M92.437 8.854a2.685 2.685 0 01-2.685-2.676 2.685 2.685 0 015.369 0 2.685 2.685 0 01-2.684 2.676zm0-4.77a2.1 2.1 0 00-2.1 2.094 2.101 2.101 0 004.2 0 2.102 2.102 0 00-2.1-2.094z" fill="#FFB217"/><path d="M81.438 8.854a2.685 2.685 0 01-2.684-2.676 2.685 2.685 0 015.368 0 2.685 2.685 0 01-2.684 2.676zm0-4.77a2.1 2.1 0 00-2.1 2.094 2.101 2.101 0 004.2 0 2.102 2.102 0 00-2.1-2.094z" fill="#000"/><path d="M12.253 43.684a.292.292 0 01-.256-.435 595.8 595.8 0 0011.26-20.41.304.304 0 01.252-.157.27.27 0 01.256.146l.038.071c2.177 3.726 4.425 7.583 6.694 11.51a2488.98 2488.98 0 0112.62-14.47l1.118-1.272a.284.284 0 01.262-.098.3.3 0 01.223.169c1.97 4.471 4.005 9.09 6.187 13.887l7.644-7.033c.158-.142.37-.337.665-.386.644-.098 1.059.576 1.195.794 1.599 2.589 3.11 5.227 4.567 7.784.845 1.48 1.647 2.883 2.45 4.248a344.461 344.461 0 019.258-15.824.293.293 0 01.496.31 344.98 344.98 0 00-9.493 16.248.288.288 0 01-.25.153.303.303 0 01-.257-.142 384.95 384.95 0 01-2.717-4.7c-1.457-2.55-2.963-5.183-4.556-7.767-.229-.376-.436-.55-.61-.528-.11.016-.23.12-.355.24l-7.928 7.316a.28.28 0 01-.256.07.289.289 0 01-.207-.163 1291.08 1291.08 0 01-6.17-13.844l-.814.93c-4.452 5.081-8.658 9.873-12.886 14.78a.293.293 0 01-.475-.049 2484.35 2484.35 0 00-6.672-11.478A585.282 585.282 0 0112.51 43.542a.293.293 0 01-.257.142z" fill="#FFB217"/><path d="M24.447 47.66a.288.288 0 01-.245-.136l-1.239-1.974a.293.293 0 01.496-.31c.415.652.83 1.31 1.244 1.974a.291.291 0 01-.092.403.336.336 0 01-.164.043zm7.982-.027a.3.3 0 01-.202-.081.297.297 0 01-.011-.414l1.604-1.697a.289.289 0 01.415-.01c.12.108.125.293.01.413l-1.603 1.697a.282.282 0 01-.213.092zm-6.967-.925a.242.242 0 01-.12-.027.293.293 0 01-.147-.386c.316-.707.643-1.42.982-2.121a.288.288 0 01.387-.136c.147.07.207.244.136.386-.333.696-.66 1.409-.976 2.11a.278.278 0 01-.262.175zm38.097-.152a.292.292 0 01-.256-.152l-.595-1.077a.294.294 0 01.115-.397.296.296 0 01.398.114l.595 1.077a.294.294 0 01-.257.435zm-32.385-.555a.288.288 0 01-.246-.136c-.436-.69-.867-1.349-1.265-1.953a.293.293 0 01.081-.402.295.295 0 01.404.082c.399.609.835 1.267 1.271 1.963a.291.291 0 01-.092.403.25.25 0 01-.153.043zm4.452-1.768a.292.292 0 01-.213-.49c.53-.57 1.058-1.141 1.588-1.707a.294.294 0 01.414-.017c.12.11.126.294.017.414l-1.588 1.713a.336.336 0 01-.218.087zm-13.667-.516a.288.288 0 01-.245-.136c-.42-.659-.835-1.317-1.25-1.97a.29.29 0 01.088-.402.297.297 0 01.403.087l1.255 1.97a.291.291 0 01-.093.402.313.313 0 01-.158.049zm39.876-.278a.292.292 0 01-.256-.152l-1.13-2.04a.294.294 0 01.115-.397.294.294 0 01.398.114l1.13 2.04a.294.294 0 01-.257.435zM27.48 42.5a.275.275 0 01-.13-.033.289.289 0 01-.126-.392c.207-.408.42-.816.638-1.219a.28.28 0 01.246-.152.276.276 0 01.256.136c.17.272.338.539.513.805a.292.292 0 01-.491.316c-.082-.13-.164-.256-.245-.386-.131.255-.268.51-.399.767a.306.306 0 01-.262.157zm11.316-1.693a.292.292 0 01-.213-.49c.529-.57 1.053-1.147 1.582-1.718a.294.294 0 01.431.397c-.524.571-1.053 1.148-1.582 1.719a.306.306 0 01-.218.093zM19.45 39.779a.288.288 0 01-.246-.136c-.42-.658-.84-1.31-1.26-1.963a.292.292 0 01.491-.316c.42.653.84 1.306 1.26 1.964a.29.29 0 01-.087.402.248.248 0 01-.158.05zm40.132-.424a.292.292 0 01-.256-.152l-1.13-2.04a.294.294 0 01.115-.397.296.296 0 01.398.114l1.13 2.04a.294.294 0 01-.257.435zm-17.627-1.99a.292.292 0 01-.213-.49l1.576-1.725a.294.294 0 01.415-.016.29.29 0 01.016.413l-1.576 1.725a.306.306 0 01-.218.092zm-25.026-1.508a.288.288 0 01-.245-.136l-1.26-1.963a.292.292 0 01.491-.316l1.26 1.964a.29.29 0 01-.088.402.285.285 0 01-.158.05zm40.394-.582a.292.292 0 01-.256-.152l-1.13-2.04a.294.294 0 01.115-.397.296.296 0 01.398.114l1.13 2.04a.294.294 0 01-.257.435zM45.108 33.92a.292.292 0 01-.213-.49c.53-.576 1.053-1.147 1.577-1.724a.294.294 0 01.414-.016c.12.108.126.293.017.413-.524.571-1.053 1.148-1.577 1.724a.316.316 0 01-.218.093zm9.957-2.73a.292.292 0 01-.257-.153l-1.13-2.04a.294.294 0 01.115-.397.294.294 0 01.399.114l1.129 2.04a.294.294 0 01-.256.435zm-6.804-.713a.292.292 0 01-.213-.49c.53-.577 1.059-1.148 1.583-1.719a.294.294 0 01.43.397c-.529.571-1.052 1.143-1.581 1.714a.29.29 0 01-.219.098zm4.55-3.373a.292.292 0 01-.256-.152l-.338-.61c-.191.202-.377.409-.568.61a.294.294 0 01-.43-.397c.283-.305.561-.604.845-.903a.293.293 0 01.47.054l.528.963a.294.294 0 01-.25.435z" fill="#1DC8E6"/><path d="M83.49 54.7h-.006l-21.06-.468a.288.288 0 01-.283-.3.294.294 0 01.295-.282h.005l21.06.468a.288.288 0 01.283.299.298.298 0 01-.295.282zm-24.393 6.864a.292.292 0 01-.295-.288c0-.163.131-.294.29-.294l14.817-.038a.292.292 0 11.005.582l-14.817.038zM78.83 69.3c-5.483 0-10.999-.12-16.449-.349a.289.289 0 01-.278-.304.285.285 0 01.305-.278c6.836.294 13.776.403 20.623.327h.005a.3.3 0 01.295.288.288.288 0 01-.29.294c-1.407.01-2.809.021-4.211.021z" fill="#000"/><path d="M42.522 70.24a68.736 68.736 0 011.707-1.06c-4.124-7.501-11.986-9.77-16.847-10.118-4.621.147-7.802.147-13.29 3.324-1.386.8-3.546 2.785-5.369 5.793.666.424 1.326.849 1.986 1.273 1.61 1.039 3.225 2.078 4.834 3.128 2.226-4.09 6.634-6.174 11.855-6.174 5.243 0 8.626 3.427 10.464 7.104a78.638 78.638 0 014.66-3.27z" fill="#fff"/><path d="M37.868 73.803c-.022 0-.043 0-.065-.005a.295.295 0 01-.197-.152c-1.298-2.595-4.348-6.941-10.202-6.941-5.286 0-9.515 2.192-11.599 6.021a.273.273 0 01-.185.142.284.284 0 01-.23-.038 981.4 981.4 0 00-3.971-2.573l-.862-.555-1.986-1.273a.295.295 0 01-.093-.397c1.877-3.1 4.06-5.08 5.472-5.897 5.374-3.111 8.566-3.209 12.985-3.35l.442-.017h.033c2.793.202 12.275 1.529 17.082 10.27a.296.296 0 01-.104.392c-.627.38-1.184.729-1.702 1.055a75.029 75.029 0 00-4.638 3.259.324.324 0 01-.18.06zm-10.47-7.686c5.942 0 9.128 4.216 10.569 6.952a74.936 74.936 0 014.391-3.073c.453-.294.939-.593 1.473-.92-4.697-8.246-13.748-9.524-16.46-9.72l-.425.01c-4.332.137-7.458.235-12.707 3.27-1.254.729-3.328 2.584-5.117 5.45.584.376 1.168.746 1.746 1.121l.862.555c1.238.8 2.477 1.6 3.71 2.404 2.242-3.846 6.58-6.049 11.959-6.049z" fill="#000"/><path d="M23.296 98.01c.3-1.752.638-3.492 1.004-5.227-1.315-.136-2.668-.365-3.89-.865-1.13-.463-2.15-1.246-3.006-2.122-1.806-1.855-3.034-4.308-3.394-6.908-.207-1.48-.076-2.954-.005-4.444a14.86 14.86 0 01.322-2.497c-2.695-.642-5.347-1.49-8.053-2.094-1.124 4.009-1.331 8.932.475 14.627 2.526 7.963 9.946 10.9 15.99 11.858.17-.783.355-1.555.557-2.328z" fill="#FFB217"/><path d="M22.74 100.626c-.017 0-.033 0-.044-.005-5.958-.947-13.607-3.802-16.225-12.06-1.632-5.14-1.79-10.118-.48-14.796a.295.295 0 01.343-.206c1.484.332 2.968.74 4.403 1.137a109 109 0 003.655.962c.153.038.251.19.219.343a14.65 14.65 0 00-.317 2.448l-.033.69c-.065 1.274-.13 2.476.039 3.705a12.135 12.135 0 003.311 6.745c.917.941 1.92 1.654 2.908 2.056 1.015.414 2.226.686 3.808.844a.293.293 0 01.257.353 145.6 145.6 0 00-1.004 5.217c0 .005-.006.016-.006.022a63.122 63.122 0 00-.556 2.311.276.276 0 01-.279.234zM6.48 74.196c-1.2 4.487-1.02 9.263.546 14.191 2.488 7.85 9.733 10.656 15.489 11.614.147-.658.31-1.333.496-2.056.268-1.578.579-3.188.939-4.912-1.484-.17-2.652-.441-3.65-.849-1.075-.44-2.117-1.175-3.104-2.187a12.746 12.746 0 01-3.47-7.071c-.18-1.279-.11-2.568-.044-3.814l.033-.685a15.07 15.07 0 01.273-2.268c-1.14-.278-2.292-.593-3.4-.903-1.347-.365-2.733-.745-4.108-1.06z" fill="#000"/><path d="M46.461 75.528c-2.45.419-4.894.848-7.31 1.436.212.838.343 1.632.398 2.34.043.581-.011 1.55-.142 2.322-.246 1.392-.677 2.785-1.211 4.09-.96 2.361-2.45 4.668-4.741 5.82-1.315.664-2.712 1.007-4.158 1.187-.196.027-.398.043-.594.065.098.903.19 1.806.289 2.709.19 1.74.387 3.476.584 5.216.152-.01.3-.021.436-.032 11.55-.99 16.951-13.23 16.951-19.648a29.857 29.857 0 00-.502-5.505z" fill="#fff"/><path d="M29.57 100.996a.29.29 0 01-.289-.261l-.01-.114c-.192-1.703-.388-3.4-.568-5.102-.082-.746-.159-1.49-.24-2.236l-.05-.473a.276.276 0 01.066-.213.31.31 0 01.196-.108c.197-.022.393-.038.59-.066 1.604-.2 2.897-.57 4.064-1.158 1.92-.969 3.47-2.872 4.605-5.668.567-1.398.965-2.753 1.19-4.031.125-.713.185-1.66.141-2.252-.05-.707-.18-1.48-.387-2.285a.29.29 0 01.212-.353c2.445-.593 4.96-1.034 7.327-1.436a.294.294 0 01.339.234c.333 1.74.496 3.606.496 5.548 0 3.672-1.647 8.393-4.195 12.027-2.314 3.296-6.449 7.349-13.023 7.915l-.442.032h-.022zm-.545-7.958l.021.18c.077.745.159 1.49.24 2.235.18 1.648.366 3.291.551 4.939.05-.005.104-.005.153-.01 6.35-.544 10.35-4.472 12.592-7.665 3.017-4.308 4.092-8.992 4.092-11.695 0-1.806-.147-3.536-.437-5.162-2.182.375-4.484.783-6.721 1.31.175.735.284 1.442.333 2.1.043.637-.017 1.643-.148 2.394-.229 1.322-.643 2.714-1.227 4.15-1.19 2.927-2.832 4.94-4.883 5.968-1.227.62-2.58 1.006-4.256 1.213-.103.021-.207.032-.31.043z" fill="#88E0EF"/><path d="M32.145 99.125a.09.09 0 01-.065-.027l-1.473-1.436a.095.095 0 010-.136.096.096 0 01.136 0l1.473 1.436a.095.095 0 010 .136.129.129 0 01-.07.027zm1.959-.392a.105.105 0 01-.066-.022 76.937 76.937 0 01-3.895-3.53.095.095 0 010-.136.096.096 0 01.136 0 76.486 76.486 0 003.885 3.52c.044.032.044.097.01.136a.088.088 0 01-.07.032zm1.768-.74c-.022 0-.05-.005-.066-.027l-4.877-4.373c-.038-.038-.044-.098-.006-.136.039-.038.099-.044.137-.006l4.877 4.374c.038.038.044.098.006.136a.088.088 0 01-.071.032zm1.925-1.245a.082.082 0 01-.06-.022 67.534 67.534 0 01-4.484-3.786c-.038-.038-.044-.098-.006-.136.038-.038.099-.044.137-.005a68.85 68.85 0 004.473 3.775c.044.032.05.092.017.136a.095.095 0 01-.077.038zm1.571-1.453a.106.106 0 01-.054-.016 58.612 58.612 0 01-4.583-3.421.091.091 0 01-.01-.136.092.092 0 01.136-.011c1.462 1.207 3 2.35 4.571 3.41a.103.103 0 01.028.136c-.028.022-.055.038-.088.038zm1.414-1.43a.093.093 0 01-.055-.016 108.95 108.95 0 01-4.359-3.188.094.094 0 01-.016-.136.096.096 0 01.136-.017c1.419 1.094 2.88 2.16 4.354 3.183a.097.097 0 01.022.136.116.116 0 01-.082.038zm1.189-1.643a.105.105 0 01-.055-.016 238.35 238.35 0 01-4.451-2.867c-.044-.027-.055-.093-.028-.136.028-.044.093-.06.137-.027a237.84 237.84 0 004.452 2.867.1.1 0 01.032.135.114.114 0 01-.087.044zm1.004-1.812c-.017 0-.033-.005-.05-.01l-4.217-2.486a.097.097 0 01-.032-.13.097.097 0 01.13-.033l4.218 2.486c.044.027.06.087.033.13a.096.096 0 01-.082.044zm.769-1.664a.16.16 0 01-.049-.01l-4.32-2.4c-.05-.027-.066-.087-.039-.13a.094.094 0 01.131-.038l4.321 2.399c.05.027.066.087.038.13a.09.09 0 01-.082.05zm.808-1.844c-.017 0-.033-.005-.05-.01l-4.348-2.378c-.049-.027-.065-.087-.038-.13a.093.093 0 01.131-.038l4.348 2.377c.05.027.066.087.038.13a.09.09 0 01-.081.05zm.638-1.784c-.016 0-.033-.006-.049-.011a144.566 144.566 0 00-4.676-2.606.092.092 0 01-.038-.13c.028-.05.087-.066.131-.038 1.571.837 3.143 1.719 4.681 2.61.05.028.06.088.033.131-.011.028-.044.044-.082.044zm.382-2.132c-.017 0-.028-.006-.044-.011l-4.894-2.356a.093.093 0 01-.043-.13.094.094 0 01.13-.044l4.895 2.356c.049.021.07.081.043.13a.097.097 0 01-.087.055zm.038-1.997c-.016 0-.027-.005-.044-.01a232.572 232.572 0 01-4.97-2.4c-.049-.021-.065-.081-.043-.13.022-.05.082-.066.13-.044 1.643.816 3.312 1.621 4.97 2.4.05.02.072.08.05.13-.017.038-.055.054-.093.054zm0-1.963c-.01 0-.027 0-.038-.011a33.197 33.197 0 01-3.159-1.616.092.092 0 01-.033-.13.093.093 0 01.131-.033 34.116 34.116 0 003.143 1.605.1.1 0 01.049.13.12.12 0 01-.093.055zm-.109-1.692c-.01 0-.027 0-.038-.01l-.884-.392a.1.1 0 01-.05-.131.1.1 0 01.132-.049l.884.392a.1.1 0 01-.044.19z" fill="#000"/><path d="M48.283 80.124c-.109-1.224-.289-2.448-.682-3.617-.13-.327-.158-.75-.496-.941a.655.655 0 00-.617-.038c-.016-.022-.027-.044-.049-.06-.31-.332-.906-.104-.938.337-.502-.027-.933.511-.78 1.006.316 1.24.294 1.893.267 3.438-.011 1.616-.496 4.004-1.5 6.577-.426 1.164-.508 1.322-1.119 2.53-.61 1.316-1.631 3.17-2.155 3.714a31.26 31.26 0 01-.682.806c-1.173 1.207-1.986 1.838-3.382 2.676-1.473.86-2.417 1.343-3.82 1.762-1.221.316-1.625.327-2.133.348-.332-.087-.758.038-.878.376a.595.595 0 000 .5c-.316.577.273 1.333.922 1.132.344-.12.246-.12.475-.213.3-.108.622-.141.933-.223.36-.103.709-.25 1.074-.337.066-.016.126-.027.191-.038.54-.049 1.086-.065 1.61-.228 1.473-.463 3.639-1.86 5.14-3.406.965-.957 1.903-1.958 2.667-3.09.704-1.038 1.211-2.186 1.784-3.301.567-1.06.993-2.187 1.397-3.318.43-1.17.818-2.361 1.02-3.59a15.04 15.04 0 00.169-3.737c.022-.044.033-.087.05-.136.054.446.092.924.12 1.5.032 1.018.021 2.443-.11 2.933a.894.894 0 00-.087.158c-.153.288-.153.658.07.908.59.74 1.632.12 1.507-.685v-.011c.005-.093.005-.185.005-.278.01-.081.022-.157.033-.24.103-1.065.076-2.142-.006-3.214z" fill="#88E0EF" opacity=".129"/><path d="M43.619 68.897c-.622-1.687-1.566-3.357-2.93-4.553-.617-.599-1.522.304-.928.925.813.592 1.5 2.17 1.724 2.709.224.576.459 1.153.628 1.746.37 1.245 2.199.636 1.506-.827zM22.576 98.434c-1.184.115-1.244-.016-2.412-.255-.993-.261-1.997-.48-2.984-.767-.84-.207-2.1-.718-2.466-.8-.617-.114-.917.778-.371 1.077.606.326 1.195.685 1.833.957.53.229 1.091.354 1.631.55 1.168.462 2.385.794 3.64.897.376.033.752.017 1.123-.043.175-.022.366-.044.497-.174.616-.43.256-1.464-.491-1.442zm-7-15.133c-.12-.625-.273-1.545-.267-1.594a44.173 44.173 0 01-.11-5.309c-.016-.816-1.216-.816-1.243 0-.044 1.578-.137 3.16-.12 4.738.049 1.055.267 2.094.453 3.133.158.62 1.047.735 1.358.18.23-.376-.011-.767-.071-1.148z" fill="#000" opacity=".129"/><path d="M139.242 71.043l-10.64-10.64a.837.837 0 00-.587-.245.817.817 0 00-.588.246l-.427.427-2.916-2.916c6.147-8.626 5.357-20.713-2.377-28.442A21.954 21.954 0 00106.084 23a21.937 21.937 0 00-15.623 6.473c-8.615 8.616-8.615 22.636 0 31.251a21.954 21.954 0 0015.623 6.474c4.658 0 9.096-1.432 12.813-4.092l2.911 2.911-.427.428a.838.838 0 00-.246.587c0 .22.086.433.246.588l10.64 10.64a5.068 5.068 0 003.61 1.495 5.072 5.072 0 003.611-1.496 5.069 5.069 0 001.495-3.61 5.09 5.09 0 00-1.495-3.606zm-20.777-9.694c-.022.016-.038.032-.059.048a20.294 20.294 0 01-12.333 4.14 20.284 20.284 0 01-14.447-5.988c-7.97-7.969-7.97-20.932 0-28.895a20.293 20.293 0 0114.447-5.988 20.284 20.284 0 0114.448 5.988c7.301 7.301 7.91 18.795 1.832 26.802-.01.015-.027.026-.037.042a21.363 21.363 0 01-1.8 2.057 20.07 20.07 0 01-2.051 1.794zm1.757.732a22.094 22.094 0 002.836-2.836l2.762 2.761-2.837 2.836-2.761-2.761zm17.845 15.008c-.006 0-.006 0 0 0a3.446 3.446 0 01-4.866 0l-10.052-10.052.427-.427 4.011-4.011.428-.427 10.052 10.052a3.415 3.415 0 011.009 2.435 3.464 3.464 0 01-1.009 2.43z" fill="#000"/><circle cx="106" cy="45" r="21" fill="#FBFBFB"/></svg>