<svg width="66" height="50" fill="none" xmlns="http://www.w3.org/2000/svg"><g clip-path="url(#clip0_4800_1756)"><path d="M11.125 28.368l-.212-.598-.253.582a15.109 15.109 0 00-1.249 6.025c0 5.86 3.315 10.916 8.122 13.322l.556.278-.208-.585-6.756-19.024zm8.456 19.886l-.081.244.245.075c1.299.395 2.662.61 4.073.61 1.683 0 3.288-.297 4.78-.858l.291-.11-.169-.26a.566.566 0 01-.03-.06l-.003-.009-.04-.086-4.341-12.244-.243-.683-.23.688-4.252 12.693zm6.175-20.959l-.323.019.1.308 5.102 15.672.25.77.228-.777 1.417-4.856s0 0 0 0l.183-.615c.506-1.698.898-3.01.898-4.168 0-1.861-.655-3.154-1.197-4.135h0l-.003-.007-.178-.3c-.646-1.083-1.173-1.968-1.173-2.989 0-1.237.91-2.34 2.128-2.34a.42.42 0 01.062.006h.004a.94.94 0 00.122.01h.63l-.458-.432c-2.564-2.422-5.978-3.89-9.73-3.89-5.036 0-9.458 2.656-12.052 6.672l-.235.365.433.02c.337.017.657.017.924.017h.002c.747 0 1.698-.045 2.459-.09a88.758 88.758 0 001.237-.081l.076-.006.02-.001h.004c.125-.008.204.031.254.081a.362.362 0 01.1.232c.014.19-.09.359-.308.387h-.002l-.006.001-.025.003a20.122 20.122 0 01-1.567.124l-.33.012.102.315 5.149 15.786.238.73.238-.73 3.102-9.553.026-.08-.029-.08-2.204-6.218-.055-.155-.165-.01a23 23 0 01-1.34-.129l-.091-.011-.024-.004h-.007 0l-.01-.002h-.008c-.122-.008-.192-.057-.235-.114a.387.387 0 01-.065-.256.413.413 0 01.104-.254.304.304 0 01.245-.091h.002l.02.001.077.006a79.368 79.368 0 001.247.082c.76.044 1.7.089 2.4.089.748 0 1.699-.045 2.46-.09a88.758 88.758 0 001.236-.081l.076-.006.02-.001h.004c.125-.008.204.031.254.081a.362.362 0 01.1.232c.014.19-.089.359-.308.387h-.008l-.025.004-.098.011a26.301 26.301 0 01-1.474.13zm10.707-.013l-.468.151c.06.44.092.93.092 1.456 0 1.44-.261 3.077-1.054 5.122h0l-.004.011-4.33 12.855-.216.642.58-.347c3.247-1.94 5.625-5.105 6.633-8.82a15.168 15.168 0 00-1.233-11.07zM8.321 34.377c0-8.79 6.965-15.94 15.497-15.94s15.497 7.15 15.497 15.94-6.965 15.94-15.497 15.94-15.497-7.15-15.497-15.94z" fill="#FFB217" stroke="#000" stroke-width=".5"/><path d="M47.727 29.701c2.692 2.653 5.389 5.301 8.082 7.954 1.423 1.401 2.847 2.803 4.4 4.018.838.657 1.765 1.273 2.785 1.273 1.016 0 2.099-.856 2.09-2.009-.005-.896-.626-1.619-1.207-2.231a189.839 189.839 0 00-13.431-12.85c-.852 1.25-1.708 2.501-2.72 3.845z" fill="#fff"/><path d="M62.995 43.328c-1.136 0-2.125-.652-3.026-1.357-1.57-1.229-3.025-2.662-4.431-4.046l-8.082-7.953a.386.386 0 01-.035-.51c1.007-1.335 1.871-2.6 2.71-3.824a.385.385 0 01.572-.08 190.61 190.61 0 0113.458 12.878c.63.665 1.304 1.463 1.313 2.492.005.6-.24 1.18-.687 1.628-.484.488-1.15.772-1.792.772zM48.237 29.662l7.842 7.713c1.393 1.371 2.835 2.786 4.37 3.988.789.621 1.645 1.193 2.546 1.193.439 0 .905-.204 1.242-.54.301-.302.465-.688.46-1.079-.004-.75-.545-1.384-1.1-1.965a190.237 190.237 0 00-13.076-12.54 92.577 92.577 0 01-2.284 3.23z" fill="#000"/><path d="M37.21.386c-9.28 0-16.803 7.523-16.803 16.802 0 9.28 7.523 16.803 16.803 16.803 9.28 0 16.802-7.523 16.802-16.803C54.012 7.908 46.49.386 37.21.386zm0 29.564c-7.049 0-12.762-5.713-12.762-12.762 0-7.048 5.713-12.761 12.762-12.761 7.048 0 12.761 5.713 12.761 12.761 0 7.049-5.713 12.762-12.761 12.762zm0 0c-7.049 0-12.762-5.713-12.762-12.762 0-7.048 5.713-12.761 12.762-12.761 7.048 0 12.761 5.713 12.761 12.761 0 7.049-5.713 12.762-12.761 12.762z" fill="#fff"/><path d="M37.21 34.382c-9.48 0-17.189-7.71-17.189-17.189C20.021 7.709 27.731 0 37.21 0s17.188 7.71 17.188 17.189-7.71 17.193-17.188 17.193zm0-33.61c-9.054 0-16.417 7.363-16.417 16.417 0 9.053 7.363 16.416 16.417 16.416 9.053 0 16.416-7.363 16.416-16.416C53.626 8.135 46.263.772 37.21.772zm0 29.564c-7.248 0-13.148-5.9-13.148-13.147 0-7.248 5.9-13.148 13.148-13.148 7.248 0 13.147 5.9 13.147 13.148 0 7.252-5.9 13.147-13.147 13.147zM24.834 17.19c0 6.826 5.553 12.375 12.376 12.375 6.826 0 12.375-5.553 12.375-12.375 0-6.827-5.553-12.376-12.375-12.376-6.827 0-12.376 5.553-12.376 12.376z" fill="#000"/><path d="M30.654 18.333a1.317 1.317 0 100-2.635 1.317 1.317 0 000 2.635z" fill="#fff"/><path d="M30.654 18.72a1.704 1.704 0 110-3.408 1.704 1.704 0 010 3.407zm0-2.636a.931.931 0 100 1.863.931.931 0 000-1.863z" fill="#000"/><path d="M37.037 18.333a1.317 1.317 0 100-2.635 1.317 1.317 0 000 2.635z" fill="#fff"/><path d="M37.037 18.72a1.704 1.704 0 110-3.408 1.704 1.704 0 010 3.407zm0-2.636a.931.931 0 100 1.863.931.931 0 000-1.863z" fill="#000"/><path d="M43.424 18.333a1.317 1.317 0 100-2.635 1.317 1.317 0 000 2.635z" fill="#fff"/><path d="M43.424 18.72a1.704 1.704 0 11.001-3.408 1.704 1.704 0 01-.001 3.407zm0-2.636a.931.931 0 100 1.863.931.931 0 000-1.863zm6.467 14.096c-.013 0-.022 0-.035-.004a.13.13 0 01-.089-.16l.297-1.033a.127.127 0 01.16-.089.13.13 0 01.089.16l-.297 1.034a.128.128 0 01-.125.093zm1.415 1.815h-.017a.13.13 0 01-.111-.146c.16-1.207.35-2.43.568-3.628a.127.127 0 01.15-.102c.071.013.116.08.102.15a71.299 71.299 0 00-.563 3.62.133.133 0 01-.129.106zm1.837 1.757a.129.129 0 01-.129-.129c0-.603.093-1.619.173-2.515.049-.545.093-1.015.107-1.313.004-.07.057-.133.133-.12a.125.125 0 01.12.134 31.97 31.97 0 01-.111 1.326c-.08.892-.173 1.898-.173 2.493.008.066-.05.124-.12.124zm1.877 1.735a.128.128 0 01-.13-.125l-.097-4.293c0-.071.053-.129.124-.133.071.004.129.053.133.124l.098 4.294c.004.07-.053.128-.129.133zm1.787 1.898a.128.128 0 01-.129-.125l-.168-4.493c-.005-.071.053-.129.124-.133.066 0 .129.053.133.124l.169 4.493a.13.13 0 01-.125.134h-.004zm1.823 1.597a.13.13 0 01-.129-.12l-.226-4.2a.129.129 0 01.12-.138.124.124 0 01.137.12l.227 4.2a.13.13 0 01-.12.138h-.009zm1.8 1.481a.13.13 0 01-.128-.12l-.315-4.085a.13.13 0 01.12-.138c.066-.009.133.049.137.12l.315 4.085a.13.13 0 01-.12.138h-.008zm1.709 1.327a.13.13 0 01-.129-.116l-.368-3.584a.13.13 0 01.115-.142c.067-.009.133.045.142.116l.368 3.584a.13.13 0 01-.115.142h-.013zm1.668-.191a.133.133 0 01-.13-.107l-.256-1.601a.124.124 0 01.106-.147.124.124 0 01.146.107l.258 1.601a.124.124 0 01-.107.147h-.017z" fill="#000"/><path d="M49.097 21.256c-.421.355-.616.931-.975 1.353-.067.12-.928 1.09-1.415 1.557-.422.377-.825.71-1.238 1.02a.632.632 0 00-.217.084c-2.103 1.522-3.682 2.076-6.335 2.564-1.26.235-2.714.435-4.697-.058-1.393-.323-2.063-.705-3.518-1.685-.616-.435-1.991-1.646-2.927-2.777-1.007-1.375-1.349-2.577-1.557-3.123-.209-.563-.368-1.14-.533-1.716-.243-.79-.319-1.07-.319-1.744a22.14 22.14 0 01-.421-1.3.823.823 0 00-.4-.075c-.226 1.735-.19 3.478.027 5.208.377 1.495.843 3.114 2.276 4.724C28 26.56 28.795 27 29.292 27.408c1.157.834 2.39 1.597 3.752 2.04.746.218 1.522.307 2.29.4a8.818 8.818 0 002.546.067c.66-.054 1.3-.249 1.938-.422 1.326-.324 2.648-.732 3.859-1.37.492-.302.66-.422.892-.595 1.485-.927 3.02-2.213 3.805-3.11.204-.421.404-.847.586-1.277.23-.643.466-1.286.692-1.93a.63.63 0 00-.555.045zm2.742 5.483c-.639-.182-1.07.262-1.384.75-.013.017-.027.03-.044.053-.56.652-.715.594-1.637 1.428-.005.005-.01.005-.014.009-.181.129-.399.217-.514.417-.776.954.408 2.284 1.46 1.663a6.02 6.02 0 001.867-1.64c.324-.356.639-.724.887-1.136.36-.577.026-1.376-.621-1.544z" fill="#000" opacity=".129"/><path d="M14.707 7.342l-.643-2.17 1.353-1.95L12.08.861l-1.29 2.15a.315.315 0 01-.085.103c-.049.035-.11.035-.173.03a150.61 150.61 0 01-2.227-.04 31.391 31.391 0 00-1.122-2.03c-.031-.054-.07-.107-.129-.12-.057-.014-.115.017-.168.048-.883.541-1.766 1.083-2.648 1.628-.018.01-.045.022-.058.045-.04.057-.004.133.027.195a9.488 9.488 0 001.184 1.68c-.4.75-.82 1.451-1.278 2.121-.11.16-.235.333-.42.386-.156.044-.32.005-.471-.04a24.15 24.15 0 01-1.84-.608 6.337 6.337 0 00-.276 3.988c.044.098 2.351-.24 2.351-.24l1.375 2.436-1.104 1.854 2.528 1.88 1.313-1.96 2.315.049.896 2.067 3.456-1.22-.838-2.12 1.242-2.058 2.342-.191.07-2.919-2.346-.634zM10.72 8.447c.023.102-.066.306-.102.399-.03.08-.066.16-.115.23-.089.138-.2.271-.32.382a2.471 2.471 0 01-.838.523c-.128.05-.261.08-.399.102-.12.022-.226.031-.346.018-.075-.009-.15-.031-.222-.031.204 0-.017.004-.097-.022A1.548 1.548 0 017.4 9.32c-.106-.2-.2-.421-.208-.652a1.435 1.435 0 01.124-.607c.111-.271.24-.542.404-.786.186-.27.417-.554.714-.705.302-.15.62-.177.914-.062a.479.479 0 01.372-.031c.218.084.4.186.55.373a1.991 1.991 0 01.417.909l.027.195c0-.013-.005-.03-.005-.044-.004-.058-.004-.058.005-.005l.027.2a.774.774 0 01.004.102.94.94 0 01-.027.24z" fill="#fff"/><path d="M11.185 8.876c-.027-.363-.577-.399-.657-.044-.11.342-.066.284-.425.639-.346.284-.222.2-.763.404-.506.155-.302.124-.728.12a1.237 1.237 0 01-.173-.045c-.208-.08-.142-.04-.541-.262-.164-.084-.31-.24-.501-.248-.577-.107-.86.745-.35 1.038.904.634 1.814.918 2.847.395a2.437 2.437 0 001.114-1.384c.08-.2.19-.404.177-.613zm1.881 5.767c-.337.124-.462.209-1.1.324-.302.098-.67.049-.932.248-.541.395-.093 1.3.537 1.11.758-.16 1.628-.196 2.218-.764.47-.532-.12-1.228-.723-.918zm4.192-4.928c0-.004 0-.013.004-.018 0 .005 0 .014-.005.018a.708.708 0 00-.088-.368c-.262-.501-1.03-.417-1.211.097-.014.023-.027.054-.04.085-.049.102-.084.208-.124.315-.036.08-.08.19-.111.253a.732.732 0 00-.098.372c.01.852 1.189 1.016 1.415.195a3.01 3.01 0 00.244-.82.631.631 0 00.014-.129z" fill="#000" opacity=".129"/><path d="M10.75 16.843a.39.39 0 01-.36-.244c-.243-.62-.478-1.21-.829-1.8-.678.07-1.361.035-2.009-.027-.19.341-.373.696-.563 1.064-.12.23-.244.466-.373.705a.388.388 0 01-.483.178 6.9 6.9 0 01-2.875-2.116.386.386 0 01-.013-.461c.364-.515.74-1.043 1.135-1.673-.408-.554-.776-1.206-1.117-1.982-.129.026-.258.053-.39.084-.546.115-1.11.235-1.717.324a.382.382 0 01-.426-.284c-.35-1.3-.253-2.768.288-4.365a.388.388 0 01.461-.248c.737.186 1.478.377 2.254.563.31-.648.683-1.255 1.078-1.885A15.134 15.134 0 013.688 2.95a.385.385 0 01.076-.47c.843-.772 1.903-1.442 3.15-1.992a.387.387 0 01.492.165c.363.652.696 1.33.984 2.018a9.83 9.83 0 012.196-.076c.342-.66.7-1.34 1.149-2.049A.388.388 0 0112.24.41a14.17 14.17 0 012.572 1.725c.213.178.417.364.626.55.106.098.257.23.31.44a.386.386 0 01-.053.31c-.177.266-.364.532-.55.803-.244.35-.492.71-.75 1.1.213.536.43 1.082.635 1.637a8.325 8.325 0 012.364.567c.137.058.23.187.24.333.07 1.198-.085 2.293-.48 3.349a.368.368 0 01-.377.248l-.257-.008c-.559-.023-1.136-.045-1.743-.005-.244.563-.595 1.136-1.091 1.761.332.59.67 1.211.971 1.939a.39.39 0 01-.173.487c-1.206.657-2.444 1.06-3.686 1.194-.022.004-.035.004-.049.004zM9.761 14c.129 0 .253.066.324.177.403.626.674 1.251.918 1.863a9.13 9.13 0 002.799-.905c-.288-.643-.608-1.206-.918-1.756a.383.383 0 01.04-.435c.599-.727.989-1.357 1.224-1.978a.387.387 0 01.324-.249c.736-.07 1.406-.044 2.054-.017a7.113 7.113 0 00.35-2.529c-.816-.301-1.575-.399-2.156-.448a.388.388 0 01-.333-.257 47.833 47.833 0 00-.78-2.027.388.388 0 01.035-.355c.302-.47.59-.887.87-1.29l.386-.56a31.84 31.84 0 00-.582-.514 13.735 13.735 0 00-2.11-1.455 32.262 32.262 0 00-1.048 1.916.39.39 0 01-.381.208 9.137 9.137 0 00-2.555.098.388.388 0 01-.426-.235 19.096 19.096 0 00-.892-1.907c-.922.434-1.725.94-2.39 1.503.35.6.731 1.123 1.068 1.575a.381.381 0 01.018.435c-.488.78-.953 1.521-1.3 2.306a.381.381 0 01-.443.218c-.767-.187-1.495-.369-2.213-.555-.355 1.176-.435 2.267-.244 3.243.456-.076.891-.169 1.313-.258.244-.048.479-.097.714-.146a.383.383 0 01.43.23c.39.945.816 1.704 1.3 2.307.102.129.11.306.026.444a28.368 28.368 0 01-1.135 1.699 6.127 6.127 0 002.05 1.521l.203-.39c.235-.453.461-.883.7-1.304a.392.392 0 01.378-.195c.75.08 1.553.137 2.324.022h.058z" fill="#000"/><path d="M8.697 10.27c-.333 0-.666-.067-.976-.205-.275-.124-.475-.275-.608-.47-.182-.262-.226-.563-.244-.798-.062-.803.133-1.535.546-2.063.514-.656 1.366-.945 2.08-.7a.397.397 0 01.137.083c.741.258 1.287 1.003 1.331 1.82a2.24 2.24 0 01-1.042 1.995c-.364.222-.79.337-1.224.337zm.275-3.558c-.342 0-.706.182-.945.492-.293.377-.43.923-.386 1.53.009.138.03.311.106.418.053.075.147.142.289.208a1.593 1.593 0 001.477-.089c.434-.275.71-.798.683-1.3-.027-.505-.373-.984-.82-1.135l-.054-.018a.799.799 0 01-.204-.093.855.855 0 00-.146-.013z" fill="#000"/><path d="M14.707 7.342l-.643-2.17 1.353-1.95L12.08.861l-1.29 2.15a.315.315 0 01-.085.103c-.049.035-.11.035-.173.03a150.61 150.61 0 01-2.227-.04 31.391 31.391 0 00-1.122-2.03c-.031-.054-.07-.107-.129-.12-.057-.014-.115.017-.168.048-.883.541-1.766 1.083-2.648 1.628-.018.01-.045.022-.058.045-.04.057-.004.133.027.195a9.488 9.488 0 001.184 1.68c-.4.75-.82 1.451-1.278 2.121-.11.16-.235.333-.42.386-.156.044-.32.005-.471-.04a24.15 24.15 0 01-1.84-.608 6.337 6.337 0 00-.276 3.988c.044.098 2.351-.24 2.351-.24l1.375 2.436-1.104 1.854 2.528 1.88 1.313-1.96 2.315.049.896 2.067 3.456-1.22-.838-2.12 1.242-2.058 2.342-.191.07-2.919-2.346-.634zM10.72 8.447c.023.102-.066.306-.102.399-.03.08-.066.16-.115.23-.089.138-.2.271-.32.382a2.471 2.471 0 01-.838.523c-.128.05-.261.08-.399.102-.12.022-.226.031-.346.018-.075-.009-.15-.031-.222-.031.204 0-.017.004-.097-.022A1.548 1.548 0 017.4 9.32c-.106-.2-.2-.421-.208-.652a1.435 1.435 0 01.124-.607c.111-.271.24-.542.404-.786.186-.27.417-.554.714-.705.302-.15.62-.177.914-.062a.479.479 0 01.372-.031c.218.084.4.186.55.373a1.991 1.991 0 01.417.909l.027.195c0-.013-.005-.03-.005-.044-.004-.058-.004-.058.005-.005l.027.2a.774.774 0 01.004.102.94.94 0 01-.027.24z" fill="#fff"/><path d="M11.185 8.876c-.027-.363-.577-.399-.657-.044-.11.342-.066.284-.425.639-.346.284-.222.2-.763.404-.506.155-.302.124-.728.12a1.237 1.237 0 01-.173-.045c-.208-.08-.142-.04-.541-.262-.164-.084-.31-.24-.501-.248-.577-.107-.86.745-.35 1.038.904.634 1.814.918 2.847.395a2.437 2.437 0 001.114-1.384c.08-.2.19-.404.177-.613zm1.881 5.767c-.337.124-.462.209-1.1.324-.302.098-.67.049-.932.248-.541.395-.093 1.3.537 1.11.758-.16 1.628-.196 2.218-.764.47-.532-.12-1.228-.723-.918zm4.192-4.928c0-.004 0-.013.004-.018 0 .005 0 .014-.005.018a.708.708 0 00-.088-.368c-.262-.501-1.03-.417-1.211.097-.014.023-.027.054-.04.085-.049.102-.084.208-.124.315-.036.08-.08.19-.111.253a.732.732 0 00-.098.372c.01.852 1.189 1.016 1.415.195a3.01 3.01 0 00.244-.82.631.631 0 00.014-.129z" fill="#000" opacity=".129"/><path d="M10.75 16.843a.39.39 0 01-.36-.244c-.243-.62-.478-1.21-.829-1.8-.678.07-1.361.035-2.009-.027-.19.341-.373.696-.563 1.064-.12.23-.244.466-.373.705a.388.388 0 01-.483.178 6.9 6.9 0 01-2.875-2.116.386.386 0 01-.013-.461c.364-.515.74-1.043 1.135-1.673-.408-.554-.776-1.206-1.117-1.982-.129.026-.258.053-.39.084-.546.115-1.11.235-1.717.324a.382.382 0 01-.426-.284c-.35-1.3-.253-2.768.288-4.365a.388.388 0 01.461-.248c.737.186 1.478.377 2.254.563.31-.648.683-1.255 1.078-1.885A15.134 15.134 0 013.688 2.95a.385.385 0 01.076-.47c.843-.772 1.903-1.442 3.15-1.992a.387.387 0 01.492.165c.363.652.696 1.33.984 2.018a9.83 9.83 0 012.196-.076c.342-.66.7-1.34 1.149-2.049A.388.388 0 0112.24.41a14.17 14.17 0 012.572 1.725c.213.178.417.364.626.55.106.098.257.23.31.44a.386.386 0 01-.053.31c-.177.266-.364.532-.55.803-.244.35-.492.71-.75 1.1.213.536.43 1.082.635 1.637a8.325 8.325 0 012.364.567c.137.058.23.187.24.333.07 1.198-.085 2.293-.48 3.349a.368.368 0 01-.377.248l-.257-.008c-.559-.023-1.136-.045-1.743-.005-.244.563-.595 1.136-1.091 1.761.332.59.67 1.211.971 1.939a.39.39 0 01-.173.487c-1.206.657-2.444 1.06-3.686 1.194-.022.004-.035.004-.049.004zM9.761 14c.129 0 .253.066.324.177.403.626.674 1.251.918 1.863a9.13 9.13 0 002.799-.905c-.288-.643-.608-1.206-.918-1.756a.383.383 0 01.04-.435c.599-.727.989-1.357 1.224-1.978a.387.387 0 01.324-.249c.736-.07 1.406-.044 2.054-.017a7.113 7.113 0 00.35-2.529c-.816-.301-1.575-.399-2.156-.448a.388.388 0 01-.333-.257 47.833 47.833 0 00-.78-2.027.388.388 0 01.035-.355c.302-.47.59-.887.87-1.29l.386-.56a31.84 31.84 0 00-.582-.514 13.735 13.735 0 00-2.11-1.455 32.262 32.262 0 00-1.048 1.916.39.39 0 01-.381.208 9.137 9.137 0 00-2.555.098.388.388 0 01-.426-.235 19.096 19.096 0 00-.892-1.907c-.922.434-1.725.94-2.39 1.503.35.6.731 1.123 1.068 1.575a.381.381 0 01.018.435c-.488.78-.953 1.521-1.3 2.306a.381.381 0 01-.443.218c-.767-.187-1.495-.369-2.213-.555-.355 1.176-.435 2.267-.244 3.243.456-.076.891-.169 1.313-.258.244-.048.479-.097.714-.146a.383.383 0 01.43.23c.39.945.816 1.704 1.3 2.307.102.129.11.306.026.444a28.368 28.368 0 01-1.135 1.699 6.127 6.127 0 002.05 1.521l.203-.39c.235-.453.461-.883.7-1.304a.392.392 0 01.378-.195c.75.08 1.553.137 2.324.022h.058z" fill="#000"/><path d="M8.697 10.27c-.333 0-.666-.067-.976-.205-.275-.124-.475-.275-.608-.47-.182-.262-.226-.563-.244-.798-.062-.803.133-1.535.546-2.063.514-.656 1.366-.945 2.08-.7a.397.397 0 01.137.083c.741.258 1.287 1.003 1.331 1.82a2.24 2.24 0 01-1.042 1.995c-.364.222-.79.337-1.224.337zm.275-3.558c-.342 0-.706.182-.945.492-.293.377-.43.923-.386 1.53.009.138.03.311.106.418.053.075.147.142.289.208a1.593 1.593 0 001.477-.089c.434-.275.71-.798.683-1.3-.027-.505-.373-.984-.82-1.135l-.054-.018a.799.799 0 01-.204-.093.855.855 0 00-.146-.013z" fill="#000"/><path d="M14.707 7.342l-.643-2.17 1.353-1.95L12.08.861l-1.29 2.15a.315.315 0 01-.085.103c-.049.035-.11.035-.173.03a150.61 150.61 0 01-2.227-.04 31.391 31.391 0 00-1.122-2.03c-.031-.054-.07-.107-.129-.12-.057-.014-.115.017-.168.048-.883.541-1.766 1.083-2.648 1.628-.018.01-.045.022-.058.045-.04.057-.004.133.027.195a9.488 9.488 0 001.184 1.68c-.4.75-.82 1.451-1.278 2.121-.11.16-.235.333-.42.386-.156.044-.32.005-.471-.04a24.15 24.15 0 01-1.84-.608 6.337 6.337 0 00-.276 3.988c.044.098 2.351-.24 2.351-.24l1.375 2.436-1.104 1.854 2.528 1.88 1.313-1.96 2.315.049.896 2.067 3.456-1.22-.838-2.12 1.242-2.058 2.342-.191.07-2.919-2.346-.634zM10.72 8.447c.023.102-.066.306-.102.399-.03.08-.066.16-.115.23-.089.138-.2.271-.32.382a2.471 2.471 0 01-.838.523c-.128.05-.261.08-.399.102-.12.022-.226.031-.346.018-.075-.009-.15-.031-.222-.031.204 0-.017.004-.097-.022A1.548 1.548 0 017.4 9.32c-.106-.2-.2-.421-.208-.652a1.435 1.435 0 01.124-.607c.111-.271.24-.542.404-.786.186-.27.417-.554.714-.705.302-.15.62-.177.914-.062a.479.479 0 01.372-.031c.218.084.4.186.55.373a1.991 1.991 0 01.417.909l.027.195c0-.013-.005-.03-.005-.044-.004-.058-.004-.058.005-.005l.027.2a.774.774 0 01.004.102.94.94 0 01-.027.24z" fill="#88E0EF"/><path d="M11.185 8.876c-.027-.363-.577-.399-.657-.044-.11.342-.066.284-.425.639-.346.284-.222.2-.763.404-.506.155-.302.124-.728.12a1.237 1.237 0 01-.173-.045c-.208-.08-.142-.04-.541-.262-.164-.084-.31-.24-.501-.248-.577-.107-.86.745-.35 1.038.904.634 1.814.918 2.847.395a2.437 2.437 0 001.114-1.384c.08-.2.19-.404.177-.613zm1.881 5.767c-.337.124-.462.209-1.1.324-.302.098-.67.049-.932.248-.541.395-.093 1.3.537 1.11.758-.16 1.628-.196 2.218-.764.47-.532-.12-1.228-.723-.918zm4.192-4.928c0-.004 0-.013.004-.018 0 .005 0 .014-.005.018a.708.708 0 00-.088-.368c-.262-.501-1.03-.417-1.211.097-.014.023-.027.054-.04.085-.049.102-.084.208-.124.315-.036.08-.08.19-.111.253a.732.732 0 00-.098.372c.01.852 1.189 1.016 1.415.195a3.01 3.01 0 00.244-.82.631.631 0 00.014-.129z" fill="#000" opacity=".129"/><path d="M10.75 16.843a.39.39 0 01-.36-.244c-.243-.62-.478-1.21-.829-1.8-.678.07-1.361.035-2.009-.027-.19.341-.373.696-.563 1.064-.12.23-.244.466-.373.705a.388.388 0 01-.483.178 6.9 6.9 0 01-2.875-2.116.386.386 0 01-.013-.461c.364-.515.74-1.043 1.135-1.673-.408-.554-.776-1.206-1.117-1.982-.129.026-.258.053-.39.084-.546.115-1.11.235-1.717.324a.382.382 0 01-.426-.284c-.35-1.3-.253-2.768.288-4.365a.388.388 0 01.461-.248c.737.186 1.478.377 2.254.563.31-.648.683-1.255 1.078-1.885A15.134 15.134 0 013.688 2.95a.385.385 0 01.076-.47c.843-.772 1.903-1.442 3.15-1.992a.387.387 0 01.492.165c.363.652.696 1.33.984 2.018a9.83 9.83 0 012.196-.076c.342-.66.7-1.34 1.149-2.049A.388.388 0 0112.24.41a14.17 14.17 0 012.572 1.725c.213.178.417.364.626.55.106.098.257.23.31.44a.386.386 0 01-.053.31c-.177.266-.364.532-.55.803-.244.35-.492.71-.75 1.1.213.536.43 1.082.635 1.637a8.325 8.325 0 012.364.567c.137.058.23.187.24.333.07 1.198-.085 2.293-.48 3.349a.368.368 0 01-.377.248l-.257-.008c-.559-.023-1.136-.045-1.743-.005-.244.563-.595 1.136-1.091 1.761.332.59.67 1.211.971 1.939a.39.39 0 01-.173.487c-1.206.657-2.444 1.06-3.686 1.194-.022.004-.035.004-.049.004zM9.761 14c.129 0 .253.066.324.177.403.626.674 1.251.918 1.863a9.13 9.13 0 002.799-.905c-.288-.643-.608-1.206-.918-1.756a.383.383 0 01.04-.435c.599-.727.989-1.357 1.224-1.978a.387.387 0 01.324-.249c.736-.07 1.406-.044 2.054-.017a7.113 7.113 0 00.35-2.529c-.816-.301-1.575-.399-2.156-.448a.388.388 0 01-.333-.257 47.833 47.833 0 00-.78-2.027.388.388 0 01.035-.355c.302-.47.59-.887.87-1.29l.386-.56a31.84 31.84 0 00-.582-.514 13.735 13.735 0 00-2.11-1.455 32.262 32.262 0 00-1.048 1.916.39.39 0 01-.381.208 9.137 9.137 0 00-2.555.098.388.388 0 01-.426-.235 19.096 19.096 0 00-.892-1.907c-.922.434-1.725.94-2.39 1.503.35.6.731 1.123 1.068 1.575a.381.381 0 01.018.435c-.488.78-.953 1.521-1.3 2.306a.381.381 0 01-.443.218c-.767-.187-1.495-.369-2.213-.555-.355 1.176-.435 2.267-.244 3.243.456-.076.891-.169 1.313-.258.244-.048.479-.097.714-.146a.383.383 0 01.43.23c.39.945.816 1.704 1.3 2.307.102.129.11.306.026.444a28.368 28.368 0 01-1.135 1.699 6.127 6.127 0 002.05 1.521l.203-.39c.235-.453.461-.883.7-1.304a.392.392 0 01.378-.195c.75.08 1.553.137 2.324.022h.058z" fill="#000"/><path d="M8.697 10.27c-.333 0-.666-.067-.976-.205-.275-.124-.475-.275-.608-.47-.182-.262-.226-.563-.244-.798-.062-.803.133-1.535.546-2.063.514-.656 1.366-.945 2.08-.7a.397.397 0 01.137.083c.741.258 1.287 1.003 1.331 1.82a2.24 2.24 0 01-1.042 1.995c-.364.222-.79.337-1.224.337zm.275-3.558c-.342 0-.706.182-.945.492-.293.377-.43.923-.386 1.53.009.138.03.311.106.418.053.075.147.142.289.208a1.593 1.593 0 001.477-.089c.434-.275.71-.798.683-1.3-.027-.505-.373-.984-.82-1.135l-.054-.018a.799.799 0 01-.204-.093.855.855 0 00-.146-.013z" fill="#000"/><path d="M23.858 27.577c-.63-.648-1.366-1.783-2.005-3.083-.604-1.29-.905-1.779-1.162-3.362-.111-.808-.125-.626-.147-1.473.071-.368.098-.78-.204-1.056-.537-.554-1.512-.106-1.46.661-.008.071.01.142.019.209.004.049.013.097.017.146-.004-.017-.004-.004-.004.08-.031.346.155 1.66.155 1.624.129 1.255.586 2.43 1.113 3.566.64 1.402 1.407 2.763 2.45 3.908.833.78 2.009-.395 1.228-1.22zm15.25 6.162c-1.176.31-1.641.28-3.087.204-1.62-.151-2.458-.147-4.086-.812l-.062-.031c-.643-.4-1.495.328-1.158 1.02.173.484.768.537 1.18.728 1.832.634 3.815.643 5.731.763.47-.01.94-.085 1.402-.164.27-.072.586-.072.803-.262.723-.52.133-1.69-.723-1.446z" fill="#000" opacity=".129"/></g><defs><clipPath id="clip0_4800_1756"><path fill="#fff" transform="translate(.53)" d="M0 0h64.94v50H0z"/></clipPath></defs></svg>