<svg width="62" height="50" fill="none" xmlns="http://www.w3.org/2000/svg"><g clip-path="url(#clip0_4800_1841)"><path d="M5.879 35.862l9.331 13.802 9.332-13.802h-5.254l-.224-20.868h-8.157l.225 20.868H5.879z" fill="#FFB217"/><path d="M15.21 50a.334.334 0 01-.28-.147L5.6 36.047a.332.332 0 01.279-.521h4.912l-.222-20.525a.34.34 0 01.097-.239.332.332 0 01.24-.1h8.158c.186 0 .333.147.337.332l.22 20.532h4.92a.331.331 0 01.28.52l-9.332 13.807a.34.34 0 01-.279.147zm-8.7-13.803l8.7 12.87 8.7-12.87h-4.622a.336.336 0 01-.337-.332l-.22-20.532h-7.483l.22 20.525a.34.34 0 01-.096.239.332.332 0 01-.24.1H6.51z" fill="#000"/><path d="M8.89 22.017c9.17.1 18.342.204 27.51.304 2.516.027 5.063.054 7.51-.532 2.446-.586 4.823-1.851 6.234-3.922 1.41-2.075 1.643-5.029.143-7.038-1.206-1.62-3.346-2.391-5.365-2.264-2.024.131-2.8.625-4.385 1.882.36-1.145.609-1.766.512-3.14-.097-1.372-.783-2.653-1.69-3.694C36.985.883 32.968-.305 29.48.69c-3.485.995-6.26 4.119-6.823 7.682-.923-3.536-5.392-5.526-8.793-4.146-3.4 1.381-5.218 5.562-4.245 9.082-.798-1.523-2.744-2.244-4.439-1.912-1.698.331-3.12 1.554-4.024 3.02-.496.805-.86 1.739-.752 2.676.179 1.546 1.574 2.66 2.97 3.367 2.214 1.118 4.706 1.55 5.517 1.558z" fill="#fff"/><path d="M37.994 22.669c-.535 0-1.066-.004-1.597-.012l-27.51-.305c-.807-.007-3.354-.42-5.668-1.592-1.322-.667-2.943-1.84-3.152-3.625-.105-.884.167-1.855.803-2.889 1.039-1.693 2.59-2.85 4.245-3.174 1.442-.281 2.923.124 3.935.999-.33-3.42 1.59-6.895 4.69-8.153 1.772-.717 3.94-.594 5.796.332 1.361.679 2.427 1.72 3.04 2.95.926-3.228 3.547-5.9 6.811-6.83 3.64-1.037 7.746.178 10.223 3.024.745.852 1.656 2.221 1.772 3.891.07.976-.027 1.593-.213 2.252 1.155-.837 2.016-1.195 3.726-1.307 2.28-.147 4.446.771 5.66 2.399 1.516 2.028 1.457 5.083-.136 7.427-1.322 1.944-3.61 3.386-6.435 4.061-1.966.47-3.994.552-5.99.552zM6.014 11.655c-.256 0-.516.023-.768.073-1.473.289-2.857 1.334-3.799 2.865-.554.903-.79 1.728-.705 2.46.174 1.49 1.612 2.511 2.787 3.105 2.086 1.057 4.528 1.512 5.37 1.52l27.51.304c2.461.027 5.004.054 7.427-.524 2.663-.636 4.803-1.979 6.032-3.787 1.415-2.079 1.477-4.875.155-6.653-1.077-1.446-3.027-2.26-5.074-2.129-1.915.124-2.633.567-4.195 1.81a.336.336 0 01-.531-.363l.09-.278c.305-.964.491-1.543.406-2.738-.105-1.485-.934-2.723-1.609-3.498-2.271-2.611-6.19-3.768-9.529-2.82-3.338.953-6.044 4-6.583 7.413a.331.331 0 01-.318.282.345.345 0 01-.345-.251c-.391-1.508-1.523-2.823-3.097-3.61-1.687-.84-3.644-.956-5.238-.312-3.144 1.276-5 5.252-4.05 8.685a.335.335 0 01-.202.4.339.339 0 01-.422-.157c-.586-1.096-1.923-1.797-3.31-1.797z" fill="#000"/><path d="M47.34 19.345c-.01.007-.022.011-.034.015-.62.231-1.283.324-1.927.47-1.605.34-4.4.274-6.633.328-1.035.004-2.066.116-3.102.046-1.504-.13-3.012-.08-4.52-.1-2.838-.054-5.672-.096-8.51-.07-1.79.016-3.582.147-5.377.032-1.825-.07-3.651-.05-5.477-.07-1.183-.1-2.365-.092-3.552-.15-.566-.035-1.33-.235-2.876-.552-.524-.115-1.055-.196-1.574-.32-.303-.077-.636-.17-.923.012-.6.328-.484 1.303.194 1.465 1.55.316 3.067.752 4.57 1.045.807.132 1.625.124 2.44.14.798.042 1.589.138 2.387.138 2.148-.008 4.292.062 6.44.135 1.384-.008 2.764-.089 4.144-.108-.066.34.159.744.582.733 3.082-.066 6.164-.139 9.242-.193 2.213.054 4.431.17 6.645.004 1.29-.073 2.593-.054 3.865-.309a6.6 6.6 0 001.054-.308.778.778 0 00.528-.386c1.442-.204 3.128-.605 3.493-1.38.147-.683-.543-.988-1.078-.617z" fill="#000" opacity=".129"/><path d="M46.441 37.258c2.354 2.306 4.71 4.608 7.064 6.914 1.244 1.22 2.489 2.438 3.846 3.495.732.57 1.543 1.106 2.434 1.106.888 0 1.834-.744 1.826-1.747-.003-.779-.546-1.407-1.054-1.94a165.54 165.54 0 00-11.74-11.172c-.743 1.088-1.488 2.175-2.376 3.344z" fill="#fff"/><path d="M59.785 49.11c-.992 0-1.857-.568-2.644-1.181-1.372-1.068-2.644-2.314-3.873-3.517l-7.063-6.915a.335.335 0 01-.031-.443c.888-1.165 1.64-2.264 2.368-3.329a.328.328 0 01.237-.142.334.334 0 01.263.08A166.192 166.192 0 0160.805 44.86c.55.579 1.14 1.269 1.147 2.168a1.977 1.977 0 01-.6 1.415c-.42.416-1.005.667-1.567.667zM46.887 37.222l6.854 6.707c1.218 1.191 2.477 2.422 3.819 3.467.69.54 1.438 1.037 2.225 1.037a1.59 1.59 0 001.086-.47c.263-.262.407-.598.403-.937-.004-.652-.477-1.204-.962-1.709a165.89 165.89 0 00-11.428-10.902 71.345 71.345 0 01-1.997 2.807z" fill="#000"/><path d="M37.253 11.77c-8.11 0-14.685 6.541-14.685 14.61 0 8.067 6.575 14.608 14.685 14.608S51.94 34.447 51.94 26.379 45.364 11.77 37.253 11.77zm0 25.708c-6.16 0-11.153-4.967-11.153-11.095 0-6.128 4.993-11.095 11.153-11.095s11.154 4.967 11.154 11.095c0 6.124-4.993 11.095-11.154 11.095zm0 0c-6.16 0-11.153-4.967-11.153-11.095 0-6.128 4.993-11.095 11.153-11.095s11.154 4.967 11.154 11.095c0 6.124-4.993 11.095-11.154 11.095z" fill="#fff"/><path d="M37.253 41.327c-8.284 0-15.022-6.703-15.022-14.944 0-8.242 6.738-14.944 15.022-14.944 8.285 0 15.023 6.702 15.023 14.944 0 8.237-6.742 14.944-15.023 14.944zm0-29.221c-7.912 0-14.348 6.402-14.348 14.273 0 7.87 6.436 14.273 14.348 14.273 7.913 0 14.348-6.402 14.348-14.273 0-7.868-6.439-14.273-14.348-14.273zm0 25.707c-6.334 0-11.49-5.129-11.49-11.43 0-6.302 5.156-11.431 11.49-11.431 6.335 0 11.491 5.129 11.491 11.43 0 6.302-5.156 11.431-11.49 11.431zM26.433 26.38c0 5.935 4.854 10.76 10.816 10.76 5.963 0 10.817-4.829 10.817-10.76 0-5.932-4.854-10.76-10.817-10.76-5.962 0-10.816 4.828-10.816 10.76z" fill="#000"/><path d="M31.524 27.374c.636 0 1.151-.513 1.151-1.146 0-.632-.515-1.145-1.151-1.145s-1.152.513-1.152 1.145a1.15 1.15 0 001.152 1.146z" fill="#fff"/><path d="M31.524 27.709a1.485 1.485 0 01-1.49-1.481c0-.818.668-1.48 1.49-1.48s1.488.662 1.488 1.48-.67 1.48-1.488 1.48zm0-2.29a.812.812 0 00-.815.809c0 .447.365.81.815.81.45 0 .814-.363.814-.81a.814.814 0 00-.814-.81z" fill="#000"/><path d="M37.102 27.374a1.15 1.15 0 001.152-1.146c0-.632-.516-1.145-1.152-1.145-.636 0-1.151.513-1.151 1.145 0 .633.515 1.146 1.151 1.146z" fill="#fff"/><path d="M37.102 27.709a1.485 1.485 0 01-1.488-1.481c0-.818.666-1.48 1.488-1.48s1.489.662 1.489 1.48-.667 1.48-1.489 1.48zm0-2.29a.812.812 0 00-.814.809c0 .447.365.81.814.81.45 0 .814-.363.814-.81a.812.812 0 00-.814-.81z" fill="#000"/><path d="M42.681 27.374c.636 0 1.151-.513 1.151-1.146 0-.632-.515-1.145-1.151-1.145s-1.151.513-1.151 1.145c0 .633.515 1.146 1.151 1.146z" fill="#fff"/><path d="M42.68 27.709a1.485 1.485 0 01-1.488-1.481c0-.818.667-1.48 1.489-1.48.822 0 1.489.662 1.489 1.48a1.483 1.483 0 01-1.49 1.48zm0-2.29a.812.812 0 00-.813.809c0 .447.364.81.814.81a.81.81 0 100-1.62zm5.657 12.255c-.012 0-.02 0-.03-.004a.113.113 0 01-.079-.139l.26-.898a.111.111 0 01.14-.077.113.113 0 01.077.139l-.26.898a.115.115 0 01-.108.081zm1.233 1.578h-.015a.113.113 0 01-.097-.128c.14-1.053.306-2.117.496-3.158.012-.062.07-.1.132-.089.062.012.1.07.089.131a60.263 60.263 0 00-.492 3.147.113.113 0 01-.113.096zm1.605 1.528a.112.112 0 01-.112-.113c0-.524.08-1.407.15-2.186.043-.475.082-.884.094-1.142.004-.062.046-.116.116-.104a.109.109 0 01.105.116c-.012.262-.05.675-.093 1.149-.07.775-.152 1.65-.152 2.167a.107.107 0 01-.108.112zm1.644 1.507a.111.111 0 01-.113-.108l-.085-3.733c0-.062.046-.112.108-.116.062.004.113.046.117.108l.085 3.733c0 .062-.05.112-.112.116zm1.561 1.651a.111.111 0 01-.112-.108l-.147-3.907c-.004-.061.047-.111.109-.115.066.004.112.046.116.108l.147 3.906c.004.062-.046.112-.108.116h-.004zm1.59 1.388a.114.114 0 01-.112-.104l-.198-3.648a.112.112 0 01.105-.12c.074-.008.116.042.12.104l.198 3.648a.113.113 0 01-.105.12h-.008zm1.578 1.288a.114.114 0 01-.112-.104l-.275-3.552a.112.112 0 01.104-.12c.058-.007.117.043.12.105l.276 3.552a.112.112 0 01-.105.12h-.008zm1.489 1.153a.113.113 0 01-.113-.1l-.321-3.116a.112.112 0 01.1-.123.113.113 0 01.124.1l.322 3.116a.113.113 0 01-.1.123h-.012zm1.462-.166a.116.116 0 01-.113-.092l-.225-1.392a.108.108 0 01.093-.128.11.11 0 01.128.093l.225 1.392a.108.108 0 01-.093.127H60.5z" fill="#000"/><path d="M47.643 29.915c-.368.308-.539.81-.853 1.176-.058.104-.81.949-1.236 1.354-.369.328-.722.617-1.082.887a.552.552 0 00-.19.073c-1.838 1.323-3.218 1.805-5.536 2.23-1.101.204-2.373.377-4.106-.051-1.217-.282-1.802-.613-3.074-1.466-.539-.378-1.74-1.43-2.559-2.414-.88-1.195-1.178-2.24-1.36-2.715-.183-.49-.322-.99-.466-1.492-.213-.687-.279-.93-.279-1.516a19.192 19.192 0 01-.368-1.13.724.724 0 00-.349-.065c-.198 1.508-.167 3.023.023 4.527.33 1.3.737 2.707 1.99 4.107 1.007 1.107 1.701 1.489 2.135 1.844 1.012.725 2.09 1.388 3.28 1.774.651.189 1.33.266 2 .347a7.745 7.745 0 002.225.058c.578-.047 1.137-.216 1.695-.367 1.159-.281 2.314-.636 3.373-1.191a8.41 8.41 0 00.779-.517c1.299-.806 2.64-1.924 3.326-2.704.178-.366.353-.736.512-1.11.201-.56.407-1.118.605-1.678a.553.553 0 00-.485.039zm2.392 4.767c-.558-.158-.934.227-1.21.651-.011.016-.023.028-.038.047-.489.567-.624.517-1.43 1.242-.005.003-.009.003-.013.007-.158.112-.348.19-.45.363-.678.829.358 1.986 1.276 1.446a5.253 5.253 0 001.632-1.427c.283-.308.559-.629.776-.987.314-.502.023-1.192-.543-1.342zM18.482 22.063c-1.586-.07-3.171-.046-4.753-.108-.543-.034-1.09-.007-1.632-.038-.345.007-.721-.14-1.043.023-.896.34-.609 1.712.345 1.7 1.74.186 3.493-.015 5.237.112.535.05 1.07.058 1.61.039.306.02.635-.02.856-.255.539-.505.128-1.496-.62-1.473z" fill="#000" opacity=".129"/></g><defs><clipPath id="clip0_4800_1841"><path fill="#fff" transform="translate(.048)" d="M0 0h61.905v50H0z"/></clipPath></defs></svg>