<svg width="70" height="50" fill="none" xmlns="http://www.w3.org/2000/svg"><path d="M53.374 4.742H1.273v42.103h52.101V4.742z" fill="#fff"/><path d="M53.374 47.21H1.273a.365.365 0 01-.364-.365V4.742c0-.202.163-.366.364-.366h52.101c.201 0 .364.164.364.366v42.103a.365.365 0 01-.364.365zm-51.737-.73H53.01V5.107H1.637V46.48z" fill="#000"/><path d="M53.374.365H1.273v7.058h52.101V.365z" fill="#FFB217"/><path d="M53.374 7.788H1.273a.365.365 0 01-.364-.365V.365c0-.201.163-.365.364-.365h52.101c.201 0 .364.164.364.365v7.058a.365.365 0 01-.364.365zm-51.737-.73H53.01V.73H1.637v6.328z" fill="#000"/><path d="M9.767 15.773c0-.714.578-1.289 1.285-1.289a1.29 1.29 0 010 2.577 1.29 1.29 0 01-1.285-1.288z" fill="#fff"/><path d="M11.056 17.426a1.654 1.654 0 010-3.306 1.654 1.654 0 010 3.306zm0-2.576a.925.925 0 00-.92.923c0 .508.414.923.92.923a.922.922 0 000-1.846z" fill="#000"/><path d="M15.994 15.773c0-.714.578-1.289 1.285-1.289.711 0 1.284.58 1.284 1.289 0 .713-.577 1.288-1.284 1.288-.712 0-1.285-.58-1.285-1.288z" fill="#fff"/><path d="M17.279 17.426a1.654 1.654 0 010-3.306 1.654 1.654 0 010 3.306zm0-2.576a.925.925 0 00-.92.923c0 .508.413.923.92.923a.922.922 0 000-1.846z" fill="#000"/><path d="M22.216 15.773c0-.714.578-1.289 1.285-1.289.711 0 1.284.58 1.284 1.289 0 .713-.577 1.288-1.284 1.288a1.29 1.29 0 01-1.285-1.288z" fill="#fff"/><path d="M23.5 17.426a1.654 1.654 0 010-3.306 1.654 1.654 0 010 3.306zm0-2.576a.925.925 0 00-.92.923c0 .508.414.923.92.923a.924.924 0 00.921-.923.92.92 0 00-.92-.923zM10.567 35.314a.348.348 0 01-.276-.13.37.37 0 01.041-.516l8.863-7.51a.364.364 0 01.427-.03l9.018 5.652 13.834-16.373a.366.366 0 01.267-.13.36.36 0 01.277.117l5.908 6.349a.366.366 0 01-.017.516.363.363 0 01-.514-.017l-5.629-6.05-13.77 16.301a.366.366 0 01-.47.076l-9.063-5.682-8.662 7.34a.355.355 0 01-.234.087z" fill="#000"/><path d="M19.366 43.651a.122.122 0 01-.12-.121V27.815a.122.122 0 11.242 0v15.71a.123.123 0 01-.122.127zm-7.615 0a.122.122 0 01-.121-.121l.092-9.979a.122.122 0 11.242 0l-.092 9.979a.122.122 0 01-.121.121zm16.889.043a.122.122 0 01-.122-.122l.092-10.603a.122.122 0 11.243 0l-.092 10.603c-.004.067-.054.122-.121.122zm14.064-.164a.122.122 0 01-.122-.122l.092-26.762c0-.067.055-.122.122-.122.067-.008.121.055.121.122l-.092 26.762a.122.122 0 01-.121.122z" fill="#000"/><path d="M52.303 7.55c-1.2-.005-2.402-.08-3.603-.127-4.44-.188-8.888.038-13.328-.15a91.786 91.786 0 00-7.599-.106c-3.485-.042-6.97-.046-10.457-.138-2.318-.113-4.628.143-6.946.147-2.276.109-4.565-.034-6.833.201-.615.067-1.222.151-1.833.256-.255.067-.469.24-.602.466-.457.751.288 1.737 1.138 1.485.72-.105 1.452-.218 2.74-.251 1.582-.005 3.164.062 4.746.004 1.925 0 3.841-.126 5.766-.168 1.695-.017 3.385.071 5.08.08 2.469-.005 4.934.046 7.402.046 1.427-.009 2.854-.118 4.281-.08 3.795.13 7.587.235 11.382.185 2.193.012 4.385.054 6.574.138.573.017 1.146.042 1.72.025.385.009.799.005 1.08-.298.623-.604.17-1.737-.708-1.716zm-39.56 9.33c-.184-.52-.933-.595-1.264-.171-.004.004-.004.004-.008.004a1.692 1.692 0 01-.143.092 1.32 1.32 0 01-.184.05c-.012 0-.02 0-.033.005-.025 0-.05-.005-.075-.005-.026-.004-.055-.012-.088-.02-.067-.017-.118-.038-.151-.047-.038-.02-.075-.042-.113-.063a.81.81 0 00-.159-.125c-.565-.387-1.33.176-1.142.835.175.524.799.755 1.297.872.77.223 2.456-.44 2.063-1.426zm6.394-.066c-.16-.453-.808-.57-1.13-.227-.038.038-.076.072-.117.11-.013.008-.021.016-.038.024-.264.118-.218.097-.56.13-.047 0-.089-.004-.135-.008a2.046 2.046 0 01-.142-.042 2.263 2.263 0 01-.222-.121l-.03-.021c-.083-.076-.158-.156-.267-.185-.657-.31-1.26.6-.74 1.1.606.616 1.523.792 2.339.553.527-.172 1.326-.65 1.042-1.313zm6.184.138c-.13-.487-.749-.625-1.109-.31a.952.952 0 01-.146.075c-.025.013-.05.021-.075.034-.026.008-.092.033-.168.054-.03.009-.058.013-.084.021-.058 0-.117 0-.175-.004-.343-.071-.34-.1-.435-.143-.302-.16-.624-.428-.988-.327-.544.13-.648.932-.155 1.2.285.134.532.336.833.44.339.127.711.16 1.071.143.628-.025 1.624-.39 1.431-1.183z" fill="#000" opacity=".129"/><path d="M53.696 38.142l7.013 6.92c1.235 1.216 2.473 2.437 3.816 3.494.724.571 1.532 1.108 2.415 1.108s1.82-.747 1.816-1.745c-.004-.78-.544-1.406-1.046-1.939a163.512 163.512 0 00-11.654-11.178c-.74 1.082-1.481 2.173-2.36 3.34z" fill="#fff"/><path d="M66.944 50c-.987 0-1.841-.566-2.624-1.179-1.36-1.07-2.623-2.316-3.845-3.52l-7.013-6.92a.334.334 0 01-.034-.44c.875-1.158 1.624-2.258 2.348-3.32a.345.345 0 01.502-.07 165.076 165.076 0 0111.675 11.203c.548.579 1.13 1.271 1.138 2.17a2 2 0 01-.599 1.418c-.414.41-.991.658-1.548.658zM54.14 38.11l6.804 6.713c1.21 1.192 2.457 2.426 3.792 3.47.686.538 1.427 1.037 2.21 1.037.38 0 .786-.176 1.075-.47.259-.264.405-.596.401-.94-.004-.655-.473-1.204-.954-1.712a164.546 164.546 0 00-11.344-10.91c-.62.91-1.26 1.838-1.983 2.812z" fill="#000"/><path d="M44.574 12.639c-8.051 0-14.579 6.546-14.579 14.619s6.528 14.619 14.579 14.619c8.05 0 14.579-6.546 14.579-14.62 0-8.073-6.528-14.618-14.58-14.618zm0 25.722c-6.114 0-11.072-4.973-11.072-11.103s4.958-11.103 11.072-11.103c6.114 0 11.072 4.972 11.072 11.103 0 6.134-4.959 11.103-11.072 11.103zm0 0c-6.114 0-11.072-4.973-11.072-11.103s4.958-11.103 11.072-11.103c6.114 0 11.072 4.972 11.072 11.103 0 6.134-4.959 11.103-11.072 11.103z" fill="#fff"/><path d="M44.574 42.213c-8.222 0-14.913-6.71-14.913-14.955 0-8.245 6.69-14.955 14.913-14.955 8.223 0 14.914 6.71 14.914 14.955 0 8.245-6.691 14.955-14.914 14.955zm0-29.238c-7.854 0-14.244 6.407-14.244 14.283 0 7.876 6.39 14.283 14.244 14.283 7.855 0 14.244-6.407 14.244-14.283 0-7.876-6.39-14.283-14.244-14.283zm0 25.721c-6.29 0-11.407-5.131-11.407-11.438S38.285 15.82 44.574 15.82c6.29 0 11.407 5.131 11.407 11.438s-5.117 11.439-11.407 11.439zM33.837 27.258c0 5.937 4.816 10.767 10.737 10.767s10.738-4.83 10.738-10.767c0-5.937-4.817-10.767-10.738-10.767-5.92 0-10.737 4.83-10.737 10.767z" fill="#000"/><path d="M55.575 38.562c-.008 0-.02 0-.03-.004a.112.112 0 01-.075-.139l.256-.902c.016-.059.08-.097.138-.076.058.017.092.08.075.139l-.255.902a.117.117 0 01-.109.08zM56.8 40.14h-.012a.11.11 0 01-.096-.126c.138-1.053.301-2.115.49-3.16a.11.11 0 01.13-.088c.058.013.1.071.087.13a66.443 66.443 0 00-.49 3.147.109.109 0 01-.108.096zm1.595 1.527a.113.113 0 01-.113-.113c0-.525.08-1.41.15-2.19.043-.475.08-.886.093-1.142.004-.063.054-.113.117-.105a.11.11 0 01.105.118c-.013.264-.05.675-.096 1.154-.072.776-.151 1.653-.151 2.169a.102.102 0 01-.105.109zm1.628 1.507a.118.118 0 01-.113-.11l-.083-3.734c0-.063.046-.113.108-.113.067.008.113.046.113.109l.084 3.734a.104.104 0 01-.109.114c.005 0 .005 0 0 0zm1.552 1.653a.115.115 0 01-.113-.11l-.146-3.91c-.004-.063.046-.113.109-.117.063.004.113.046.117.109l.146 3.91c.005.063-.046.114-.108.118h-.005zm1.582 1.393a.114.114 0 01-.113-.105l-.196-3.65a.11.11 0 01.104-.118c.055-.009.113.042.117.105l.197 3.65a.112.112 0 01-.105.118h-.004zm1.561 1.284a.114.114 0 01-.113-.105l-.272-3.554a.113.113 0 01.105-.122c.063-.008.117.042.121.105l.272 3.554c.004.063-.042.113-.104.122h-.009zm1.482 1.158a.113.113 0 01-.114-.1l-.318-3.118c-.004-.064.038-.118.1-.122a.107.107 0 01.122.1l.318 3.118c.004.063-.038.118-.1.122h-.009zm1.447-.169a.109.109 0 01-.109-.092l-.225-1.393a.117.117 0 01.092-.13c.062-.013.117.034.13.092l.225 1.394a.117.117 0 01-.092.13h-.02z" fill="#000"/><path d="M54.889 30.795c-.369.31-.536.81-.846 1.179-.058.105-.803.948-1.226 1.35a16.51 16.51 0 01-1.075.89.592.592 0 00-.188.076c-1.825 1.322-3.193 1.804-5.499 2.232-1.096.206-2.356.378-4.075-.05-1.206-.281-1.791-.613-3.051-1.465-.536-.377-1.728-1.43-2.54-2.412-.87-1.196-1.172-2.241-1.352-2.72-.18-.49-.318-.99-.46-1.493-.21-.688-.276-.932-.276-1.515a17.84 17.84 0 01-.364-1.133.695.695 0 00-.343-.063c-.197 1.51-.168 3.026.025 4.532.326 1.3.732 2.71 1.975 4.112 1.004 1.108 1.69 1.49 2.121 1.846 1.005.726 2.072 1.39 3.256 1.775.649.19 1.318.269 1.988.344.004 0 .004 0 .012.005.724.134 1.465.134 2.197.054.573-.046 1.126-.214 1.678-.365 1.15-.281 2.297-.633 3.348-1.192.426-.264.573-.365.774-.516 1.289-.805 2.62-1.926 3.301-2.706.176-.37.348-.739.51-1.112.202-.558.403-1.116.603-1.679a.54.54 0 00-.493.026zm2.377 4.771c-.557-.16-.925.226-1.201.65-.013.012-.021.03-.038.046-.485.567-.62.52-1.419 1.242-.004.004-.008.004-.008.009-.159.109-.347.188-.448.36-.673.831.352 1.985 1.268 1.448a5.233 5.233 0 001.62-1.427c.28-.31.552-.63.77-.99.305-.5.016-1.192-.544-1.339z" fill="#000" opacity=".129"/><path d="M40.624 33.082a.336.336 0 01-.335-.336v-7.368c0-.185.15-.336.335-.336.184 0 .335.151.335.336v7.368a.334.334 0 01-.335.336zm7.369 0a.336.336 0 01-.335-.336v-7.368c0-.185.15-.336.335-.336.184 0 .334.151.334.336v7.368c0 .185-.15.336-.334.336zm-3.683 0a.336.336 0 01-.334-.336V20.884c0-.185.15-.336.335-.336.184 0 .334.151.334.336v11.862c0 .185-.15.336-.334.336z" fill="#000"/></svg>