<svg width="62" height="56" fill="none" xmlns="http://www.w3.org/2000/svg"><circle cx="43" cy="32.001" r="19" fill="#0082F8" fill-opacity=".15"/><path d="M23.134 40.093L0 27.991v8.068l23.134 13.42v-9.386z" fill="url(#paint0_linear_4957_6018)"/><path d="M45.939 36.06v-8.07L23.052 40.176l.082 9.302L45.94 36.06z" fill="url(#paint1_linear_4957_6018)"/><path d="M0 27.991l23.052 13.42 22.886-13.42-22.969-13.42L0 27.992z" fill="url(#paint2_linear_4957_6018)"/><path d="M23.134 27.168L0 15.065v8.069l23.134 13.419v-9.385z" fill="url(#paint3_linear_4957_6018)"/><path d="M45.939 23.134v-8.069L23.052 27.25l.082 9.303 22.805-13.42z" fill="url(#paint4_linear_4957_6018)"/><path d="M0 15.066l23.052 13.337 22.886-13.337L22.97 1.646 0 15.066z" fill="url(#paint5_linear_4957_6018)"/><path d="M4.94 16.218L0 13.337v1.729l4.94 2.881v-1.729z" fill="url(#paint6_linear_4957_6018)"/><path d="M27.826 4.528V2.8L4.94 15.066v2.882l22.887-13.42z" fill="url(#paint7_linear_4957_6018)"/><path d="M0 13.42l4.94 2.798L27.744 2.8 22.97 0 0 13.42z" fill="url(#paint8_linear_4957_6018)"/><path d="M18.03 18.77a1.944 1.944 0 01-.66-.74c-.082-.247-.164-.494-.082-.659.083-.247.165-.494.33-.658.247-.247.494-.412.74-.577.33-.164.66-.329 1.071-.411.33-.083.74-.165 1.07-.165.33 0 .741 0 1.07.082.33.083.66.165.906.33.165.082.412.247.576.411.083.083.165.247.247.412v.412c-.082.164-.164.329-.247.411a5.31 5.31 0 011.647-.247c.494 0 .988.165 1.482.412.33.165.576.412.74.659.165.247.165.494.165.74-.082.247-.164.494-.329.741-.247.247-.494.494-.823.659-.33.165-.741.33-1.153.494a4.86 4.86 0 01-1.152.165c-.412 0-.741 0-1.153-.083-.412-.082-.74-.164-1.152-.247l.247-.411c.082-.083.164-.165.329-.247h.411l.577.082c.164 0 .411.082.576 0 .247 0 .412 0 .659-.082.247-.083.494-.165.658-.33.165-.082.33-.247.494-.411.082-.165.165-.247.165-.412 0-.165-.082-.247-.165-.412-.082-.164-.247-.246-.33-.329-.164-.082-.41-.165-.575-.247-.247-.082-.412-.082-.659-.082-.247 0-.576.082-.823.165-.33.164-.659.247-.988.494l-.823-.494c.247-.165.494-.33.658-.494a.453.453 0 00.247-.412c0-.165 0-.247-.082-.412-.082-.164-.247-.247-.412-.329-.164-.082-.411-.165-.576-.247-.165-.082-.412-.082-.576-.082-.165 0-.412 0-.577.082-.164.082-.411.165-.576.247-.165.082-.247.165-.412.33-.082.082-.164.246-.164.329v.329c.082.082.164.247.247.33.082.082.082.164.082.246 0 .083-.165.165-.33.247l-.576.412z" fill="url(#paint9_linear_4957_6018)"/><path d="M30.79 13.337c.577.33 1.07.659 1.482 1.07.33.247.494.659.576.988.083.33 0 .659-.164.906-.247.33-.494.576-.823.74a3.636 3.636 0 01-1.318.495c-.494.082-1.07.164-1.564.082-.576-.082-1.235-.165-1.811-.33-.659-.246-1.317-.493-1.894-.823-.576-.329-1.07-.658-1.482-1.07-.329-.247-.494-.658-.658-.988-.082-.329 0-.658.165-.905.247-.33.494-.577.823-.741a3.637 3.637 0 011.317-.494c.494-.082 1.07-.165 1.564-.082.576.082 1.153.164 1.73.329.822.165 1.481.411 2.057.823zm-1.152.659c-.494-.33-.988-.494-1.482-.741-.412-.165-.823-.247-1.235-.33a2.007 2.007 0 00-.988 0l-.741.247a.992.992 0 00-.412.412.703.703 0 000 .576c.083.247.33.494.577.741.411.33.823.659 1.235.906l1.482.74c.411.165.823.248 1.234.33.33.082.659.082.988 0l.741-.247a.991.991 0 00.412-.412.703.703 0 000-.576c-.082-.247-.33-.494-.576-.74-.33-.412-.741-.66-1.235-.906z" fill="url(#paint10_linear_4957_6018)"/><path opacity=".3" fill-rule="evenodd" clip-rule="evenodd" d="M23.131 34.121L.084 20.582v.823L23.137 34.87l22.637-13.875v-.824l-22.643 13.95z" fill="url(#paint11_linear_4957_6018)"/><path opacity=".3" fill-rule="evenodd" clip-rule="evenodd" d="M23.128 31.16L45.773 17.7v.823L23.14 31.903l-.163-.091.156-.28-.156.28-.596-.332a1160.354 1160.354 0 01-7.364-4.137c-4.609-2.607-9.901-5.416-14.935-8.408v-.823c5.028 2.988 10.644 6.066 15.251 8.673a1386.199 1386.199 0 007.36 4.134l.434.241z" fill="url(#paint12_linear_4957_6018)"/><defs><linearGradient id="paint0_linear_4957_6018" x1="23.134" y1="44.926" x2="-1.832" y2="40.525" gradientUnits="userSpaceOnUse"><stop stop-color="#001DAC"/><stop offset="1" stop-color="#000F57"/></linearGradient><linearGradient id="paint1_linear_4957_6018" x1="45.939" y1="44.926" x2="21.224" y2="40.615" gradientUnits="userSpaceOnUse"><stop stop-color="#001DAC"/><stop offset="1" stop-color="#000F57"/></linearGradient><linearGradient id="paint2_linear_4957_6018" x1="0" y1="16.536" x2="47.836" y2="24.353" gradientUnits="userSpaceOnUse"><stop stop-color="#0082F8"/><stop offset="1" stop-color="#1C40F2"/></linearGradient><linearGradient id="paint3_linear_4957_6018" x1="-4.297" y1="25.793" x2="18.77" y2="25.793" gradientUnits="userSpaceOnUse"><stop stop-color="#989AAD"/><stop offset="1" stop-color="#98A0B7"/></linearGradient><linearGradient id="paint4_linear_4957_6018" x1="51.85" y1="25.793" x2="52.253" y2="25.793" gradientUnits="userSpaceOnUse"><stop stop-color="#E7E9E9"/><stop offset="1" stop-color="#98AACD"/></linearGradient><linearGradient id="paint5_linear_4957_6018" x1="37.107" y1="25.287" x2="9.404" y2="5.249" gradientUnits="userSpaceOnUse"><stop stop-color="#CDD3DB"/><stop offset="1" stop-color="#ACB0C2"/></linearGradient><linearGradient id="paint6_linear_4957_6018" x1="-.889" y1="15.654" x2="4.034" y2="15.654" gradientUnits="userSpaceOnUse"><stop stop-color="#989AAD"/><stop offset="1" stop-color="#98A0B7"/></linearGradient><linearGradient id="paint7_linear_4957_6018" x1="33.754" y1="10.377" x2="34.149" y2="10.377" gradientUnits="userSpaceOnUse"><stop stop-color="#E7E9E9"/><stop offset="1" stop-color="#98AACD"/></linearGradient><linearGradient id="paint8_linear_4957_6018" x1="20.097" y1="12.578" x2="7.97" y2="3.802" gradientUnits="userSpaceOnUse"><stop stop-color="#CDD3DB"/><stop offset="1" stop-color="#ACB0C2"/></linearGradient><linearGradient id="paint9_linear_4957_6018" x1="17.254" y1="15.976" x2="27.485" y2="17.666" gradientUnits="userSpaceOnUse"><stop stop-color="#0082F8"/><stop offset="1" stop-color="#1C40F2"/></linearGradient><linearGradient id="paint10_linear_4957_6018" x1="23.102" y1="12.553" x2="33.264" y2="14.277" gradientUnits="userSpaceOnUse"><stop stop-color="#0082F8"/><stop offset="1" stop-color="#1C40F2"/></linearGradient><linearGradient id="paint11_linear_4957_6018" x1="-3.373" y1="26.793" x2="47.315" y2="26.793" gradientUnits="userSpaceOnUse"><stop stop-color="#050505"/><stop offset="1" stop-color="#ACB0C2"/></linearGradient><linearGradient id="paint12_linear_4957_6018" x1="-2.832" y1="23.945" x2="47.315" y2="23.945" gradientUnits="userSpaceOnUse"><stop stop-color="#050505"/><stop offset="1" stop-color="#ACB0C2"/></linearGradient></defs></svg>