<svg width="24" height="24" fill="none" xmlns="http://www.w3.org/2000/svg"><path d="M2.346 8.8h.102a.747.747 0 00.691-.48.74.74 0 00-.16-.808l-.073-.073a2.35 2.35 0 010-3.317l1.21-1.208a2.348 2.348 0 013.316 0l.073.072A.765.765 0 008.8 2.45v-.103A2.348 2.348 0 0111.146 0h1.708A2.348 2.348 0 0115.2 2.346v.103a.765.765 0 001.291.534l.069-.073a2.348 2.348 0 013.317 0l1.213 1.208a2.35 2.35 0 010 3.318l-.073.073a.748.748 0 00-.148.828.74.74 0 00.683.463h.102A2.348 2.348 0 0124 11.146v1.708a2.348 2.348 0 01-2.346 2.346h-.102a.747.747 0 00-.691.48.74.74 0 00.16.808l.073.073a2.35 2.35 0 010 3.317l-1.208 1.208a2.347 2.347 0 01-3.318 0l-.073-.073a.748.748 0 00-.828-.148.738.738 0 00-.463.682v.103a2.348 2.348 0 01-2.35 2.35h-1.708A2.348 2.348 0 018.8 21.654v-.103a.765.765 0 00-1.291-.534l-.073.073a2.348 2.348 0 01-3.317 0L2.91 19.882a2.35 2.35 0 010-3.317l.073-.073a.748.748 0 00.148-.828.74.74 0 00-.683-.464h-.102A2.348 2.348 0 010 12.854v-1.708A2.348 2.348 0 012.346 8.8zM1.6 12.854a.746.746 0 00.746.746h.102a2.366 2.366 0 011.666 4.022l-.072.073a.747.747 0 000 1.055l1.21 1.208a.746.746 0 001.054 0l.072-.073A2.365 2.365 0 0110.4 21.55v.103a.746.746 0 00.746.746h1.708a.746.746 0 00.746-.746v-.103a2.36 2.36 0 014.022-1.665l.073.072a.747.747 0 001.055 0l1.208-1.207a.747.747 0 000-1.055l-.073-.073a2.364 2.364 0 011.667-4.023h.102a.746.746 0 00.746-.746v-1.708a.746.746 0 00-.746-.746h-.102a2.366 2.366 0 01-1.666-4.022l.072-.073a.746.746 0 000-1.055L18.75 4.042a.746.746 0 00-1.055 0l-.072.072A2.366 2.366 0 0113.6 2.45v-.103a.746.746 0 00-.746-.746h-1.708a.746.746 0 00-.746.746v.103a2.365 2.365 0 01-4.022 1.665l-.073-.072a.746.746 0 00-1.055 0L4.042 5.25a.746.746 0 000 1.055l.073.073A2.365 2.365 0 012.448 10.4h-.102a.746.746 0 00-.746.746v1.708z" fill="#001042"/><path d="M12 6.4A5.6 5.6 0 116.4 12 5.606 5.606 0 0112 6.4zm0 9.6a4 4 0 100-8 4 4 0 000 8z" fill="#001042"/></svg>