<svg width="70" height="50" fill="none" xmlns="http://www.w3.org/2000/svg"><path d="M.919 49.57h68.165V2.439H.919v47.13z" fill="#fff"/><path d="M69.082 50H.917a.433.433 0 01-.433-.433V2.437c0-.24.194-.433.433-.433h68.165c.24 0 .434.194.434.433v47.13a.433.433 0 01-.434.433zM1.35 49.135h67.3V2.869H1.35v46.266z" fill="#000"/><path d="M.919 6.647h68.165V.427H.919v6.22z" fill="#FFB217"/><path d="M69.082 7.081H.917a.433.433 0 01-.433-.433V.433C.484.193.678 0 .917 0h68.165c.24 0 .434.194.434.433v6.22a.432.432 0 01-.434.428zM1.35 6.216h67.3V.866H1.35v5.35z" fill="#000"/><path d="M50.216 3.973h-3.595a.433.433 0 010-.865h3.595a.433.433 0 010 .865zm7.294 0h-3.594a.433.433 0 010-.865h3.595a.433.433 0 010 .865zm7.295 0H61.21a.433.433 0 010-.865h3.595a.433.433 0 010 .865z" fill="#000"/><path d="M69.082 7.12H.917v2.02h68.165V7.12z" fill="#000" opacity=".129"/><path d="M11.528 35.087a.437.437 0 01-.369-.199.429.429 0 01.135-.596l11.556-7.31a.423.423 0 01.414-.025l11.85 5.54 18.09-15.978a.437.437 0 01.557-.014l7.703 6.175c.184.15.214.423.065.607a.434.434 0 01-.608.065l-7.419-5.947-18.024 15.922a.444.444 0 01-.473.07l-11.89-5.56-11.358 7.186a.434.434 0 01-.23.064z" fill="#000"/><path d="M23 43.148a.144.144 0 01-.145-.144V27.718a.144.144 0 01.29 0v15.286c0 .08-.066.144-.145.144zm-9.928 0a.144.144 0 01-.145-.144l.125-9.707c0-.08.07-.154.144-.144.08 0 .145.064.145.144l-.125 9.707a.141.141 0 01-.144.144zm22.018.045a.144.144 0 01-.145-.145l.125-10.318a.144.144 0 01.289 0l-.125 10.318c0 .08-.065.145-.144.145zm18.343-.165a.144.144 0 01-.144-.144l.124-26.042a.144.144 0 01.289 0l-.125 26.042c0 .08-.064.144-.144.144zm-17.074-8.1a.141.141 0 01-.11-.05c-.054-.06-.044-.149.015-.203l15.65-13.785a.144.144 0 01.204.015c.055.06.045.15-.015.204L36.458 34.89a.158.158 0 01-.1.04zm0 2.452a.141.141 0 01-.11-.05.144.144 0 01.015-.204l15.65-13.784c.06-.055.15-.045.204.015.055.06.045.149-.015.203L36.458 37.34a.158.158 0 01-.1.04zm0 2.451a.141.141 0 01-.11-.05c-.054-.06-.044-.149.015-.204l15.65-13.784a.144.144 0 01.204.015c.055.06.045.15-.015.204l-15.65 13.784a.157.157 0 01-.094.035zm0 2.308a.14.14 0 01-.11-.05.144.144 0 01.015-.204l15.65-13.784c.06-.055.15-.045.204.015.055.06.045.149-.015.204l-15.65 13.784a.157.157 0 01-.094.035zm1.171 1.198a.141.141 0 01-.11-.05.148.148 0 01.015-.204l14.48-12.56a.146.146 0 01.203.014c.05.06.045.15-.015.204l-14.48 12.56a.157.157 0 01-.094.036zm2.489 0a.141.141 0 01-.11-.05.147.147 0 01.015-.204l11.995-10.179a.148.148 0 01.204.015c.05.06.045.154-.015.204L40.113 43.302a.184.184 0 01-.094.035zm2.743 0a.139.139 0 01-.11-.055.148.148 0 01.02-.203l9.252-7.609c.06-.05.154-.04.204.02.05.06.04.154-.02.204l-9.251 7.608a.184.184 0 01-.095.035zm3.252 0a.141.141 0 01-.11-.05.147.147 0 01.015-.204l5.995-5.092a.148.148 0 01.204.015c.05.06.045.154-.015.204l-5.995 5.092a.17.17 0 01-.094.035zm2.997 0a.14.14 0 01-.11-.055.148.148 0 01.02-.204l2.998-2.441c.06-.05.154-.04.204.02.05.06.04.154-.02.204l-2.997 2.436a.146.146 0 01-.095.04z" fill="#000"/></svg>