<svg width="52" height="50" fill="none" xmlns="http://www.w3.org/2000/svg"><g clip-path="url(#clip0_4800_1894)"><path d="M38.938 37.321H.597V49.66h38.341V37.321z" fill="#fff"/><path d="M38.938 50H.597a.344.344 0 01-.343-.345V37.321c0-.19.154-.343.343-.343h38.341c.19 0 .343.154.343.343V49.66a.34.34 0 01-.343.34zM.94 49.311h37.655V37.665H.94v11.647z" fill="#000"/><path d="M38.938 4.774H.597v12.338h38.341V4.774z" fill="#fff"/><path d="M38.938 17.453H.597a.344.344 0 01-.343-.344V4.775c0-.19.154-.344.343-.344h38.341c.19 0 .343.154.343.344v12.334c0 .19-.154.343-.343.343zM.94 16.765h37.655V5.119H.94v11.646z" fill="#000"/><path d="M38.938 21.046H.597v12.338h38.341V21.046z" fill="#fff"/><path d="M38.938 33.728H.597a.344.344 0 01-.343-.344V21.05c0-.19.154-.344.343-.344h38.341c.19 0 .343.154.343.344v12.334c0 .19-.154.344-.343.344zM.94 33.04h37.655V21.39H.94v11.65z" fill="#000"/><path d="M5.402 27.216a1.518 1.518 0 113.037 0 1.518 1.518 0 11-3.037 0z" fill="#fff"/><path d="M6.92 29.082a1.867 1.867 0 01-1.862-1.866c0-1.027.837-1.865 1.862-1.865 1.026 0 1.862.838 1.862 1.866a1.867 1.867 0 01-1.862 1.865zm0-3.047a1.18 1.18 0 00-1.175 1.177 1.18 1.18 0 001.175 1.179 1.18 1.18 0 001.176-1.178 1.18 1.18 0 00-1.176-1.178z" fill="#000"/><path d="M5.402 43.488a1.518 1.518 0 113.037 0 1.518 1.518 0 11-3.037 0z" fill="#fff"/><path d="M6.92 45.354a1.867 1.867 0 01-1.862-1.866c0-1.028.837-1.866 1.862-1.866 1.026 0 1.862.838 1.862 1.866a1.867 1.867 0 01-1.862 1.866zm0-3.044a1.18 1.18 0 00-1.175 1.178 1.18 1.18 0 001.175 1.178 1.18 1.18 0 001.176-1.178A1.18 1.18 0 006.92 42.31z" fill="#000"/><path d="M5.402 43.488a1.518 1.518 0 113.037 0 1.518 1.518 0 11-3.037 0z" fill="#fff"/><path d="M6.92 45.354a1.867 1.867 0 01-1.862-1.866c0-1.028.837-1.866 1.862-1.866 1.026 0 1.862.838 1.862 1.866a1.867 1.867 0 01-1.862 1.866zm0-3.044a1.18 1.18 0 00-1.175 1.178 1.18 1.18 0 001.175 1.178 1.18 1.18 0 001.176-1.178A1.18 1.18 0 006.92 42.31z" fill="#000"/><path d="M13.192 43.488a1.519 1.519 0 113.038 0 1.519 1.519 0 11-3.038 0z" fill="#fff"/><path d="M14.71 45.354a1.867 1.867 0 01-1.861-1.866c0-1.028.836-1.866 1.862-1.866 1.025 0 1.862.838 1.862 1.866a1.867 1.867 0 01-1.862 1.866zm0-3.044a1.18 1.18 0 00-1.175 1.178 1.18 1.18 0 001.176 1.178 1.18 1.18 0 001.175-1.178 1.18 1.18 0 00-1.175-1.178z" fill="#000"/><path d="M5.402 10.94a1.518 1.518 0 113.037 0 1.518 1.518 0 11-3.037 0z" fill="#fff"/><path d="M6.92 12.807a1.867 1.867 0 01-1.862-1.866c0-1.028.837-1.866 1.862-1.866 1.026 0 1.862.838 1.862 1.866a1.867 1.867 0 01-1.862 1.866zm0-3.044a1.18 1.18 0 00-1.175 1.178A1.18 1.18 0 006.92 12.12a1.18 1.18 0 001.176-1.178A1.18 1.18 0 006.92 9.763z" fill="#000"/><path d="M13.192 10.94a1.518 1.518 0 113.038 0 1.518 1.518 0 11-3.038 0z" fill="#fff"/><path d="M14.71 12.807a1.867 1.867 0 01-1.861-1.866c0-1.028.836-1.866 1.862-1.866 1.025 0 1.862.838 1.862 1.866a1.867 1.867 0 01-1.862 1.866zm0-3.044a1.18 1.18 0 00-1.175 1.178 1.18 1.18 0 001.176 1.178 1.18 1.18 0 001.175-1.178 1.18 1.18 0 00-1.175-1.178z" fill="#000"/><path d="M43.764 26.85c7.01-3.837 9.678-12.475 5.961-19.292C46.01.74 37.314-1.675 30.305 2.163c-7.01 3.838-9.678 12.476-5.961 19.293 3.716 6.817 12.411 9.233 19.42 5.395z" fill="#fff"/><path d="M36.646 29.016c-2.465 0-4.946-.612-7.207-1.901-3.333-1.902-5.7-4.985-6.658-8.681-.978-3.772-.39-7.717 1.66-11.12C28.632.37 37.685-2.057 44.627 1.9c3.333 1.902 5.7 4.985 6.659 8.681.978 3.772.39 7.717-1.661 11.117-2.828 4.684-7.866 7.317-12.978 7.317zM25.03 7.673c-1.952 3.242-2.516 7.001-1.585 10.59a13.284 13.284 0 006.335 8.255 13.813 13.813 0 006.871 1.81c4.88 0 9.688-2.51 12.386-6.985 1.953-3.241 2.517-7.001 1.586-10.59a13.284 13.284 0 00-6.335-8.255c-6.62-3.775-15.262-1.455-19.258 5.175z" fill="#000"/><path d="M48.638 5.87c-1.866 1.119-3.732 2.234-5.59 3.368-2.796 1.708-5.514 3.776-8.24 5.598 1.57 1.557 6.97 6.705 8.998 8.756.647.653 1.29 1.309 1.937 1.961a14.683 14.683 0 003.585-4.028c3.085-5.112 2.615-11.267-.69-15.655z" fill="#fff"/><path d="M45.743 25.897a.343.343 0 01-.245-.103 912.54 912.54 0 00-1.937-1.96c-1.195-1.21-3.558-3.491-5.64-5.5a456.107 456.107 0 01-3.353-3.253.329.329 0 01-.099-.277.362.362 0 01.15-.253c1.026-.684 2.07-1.42 3.08-2.13 1.681-1.183 3.42-2.404 5.172-3.476 1.858-1.134 3.755-2.269 5.59-3.372a.343.343 0 01.45.087c3.506 4.65 3.786 10.947.713 16.038a15.05 15.05 0 01-3.668 4.124.334.334 0 01-.213.075zM35.349 14.883c.69.68 1.795 1.744 3.049 2.953 2.086 2.012 4.45 4.297 5.652 5.51.572.582 1.148 1.163 1.72 1.744a14.31 14.31 0 003.262-3.747c2.872-4.76 2.67-10.623-.489-15.022a729.673 729.673 0 00-5.317 3.206c-1.732 1.059-3.463 2.273-5.136 3.45-.895.637-1.822 1.285-2.741 1.906z" fill="#000"/><path d="M34.808 14.836a145.474 145.474 0 016.607-3.558 154.87 154.87 0 016.454-3.075c.587-.265 1.175-.53 1.767-.79a13.677 13.677 0 00-5.183-5.211A14.161 14.161 0 0037.597.344c-.462 2.233-.88 4.475-1.322 6.712a843.75 843.75 0 00-1.467 7.78z" fill="#FFB217"/><path d="M34.808 15.18a.343.343 0 01-.335-.407c.453-2.467.946-5.115 1.471-7.78.154-.775.304-1.55.454-2.324.276-1.44.564-2.93.867-4.392A.342.342 0 0137.602 0h.004c2.469.032 4.895.692 7.021 1.901a14.083 14.083 0 015.313 5.341.356.356 0 01.028.277.347.347 0 01-.19.206c-.496.217-.993.442-1.486.664l-.28.126c-2.162.969-4.328 2-6.438 3.068a144.77 144.77 0 00-6.591 3.55.347.347 0 01-.174.047zM37.881.696a376.01 376.01 0 00-.809 4.103c-.15.775-.3 1.554-.453 2.329-.474 2.403-.92 4.79-1.338 7.048a148.026 148.026 0 0112.453-6.281l.28-.127 1.14-.51a13.363 13.363 0 00-4.863-4.752 13.857 13.857 0 00-6.41-1.81zm-.971 15.002a.111.111 0 01-.058-.016.115.115 0 01-.04-.158l.825-1.376a.115.115 0 11.197.119l-.825 1.376a.122.122 0 01-.098.055zm1.152 1.178a.09.09 0 01-.055-.016.116.116 0 01-.043-.158l2.2-3.827a.116.116 0 01.202.115l-2.201 3.826a.119.119 0 01-.103.06zm1.378 1.198a.139.139 0 01-.056-.012.112.112 0 01-.047-.154 191.573 191.573 0 003.065-6.104.114.114 0 01.153-.055.117.117 0 01.056.154 187.911 187.911 0 01-3.07 6.112.128.128 0 01-.102.059zm1.254 1.395a.137.137 0 01-.052-.012.118.118 0 01-.055-.154l4.063-8.496a.117.117 0 01.154-.055.117.117 0 01.055.154l-4.063 8.496a.111.111 0 01-.102.067zm1.443 1.308a.105.105 0 01-.047-.011.116.116 0 01-.06-.15l4.88-10.868a.116.116 0 01.15-.06c.06.028.083.096.06.151l-4.88 10.867a.11.11 0 01-.103.072zm1.471 1.475a.141.141 0 01-.043-.008c-.06-.024-.087-.09-.06-.15l5.61-13.354a.11.11 0 01.15-.06c.06.024.087.092.06.15l-5.61 13.355a.123.123 0 01-.107.067zm1.436 1.04a.14.14 0 01-.043-.008c-.06-.023-.087-.09-.06-.15l4.943-11.559a.11.11 0 01.15-.06c.06.024.087.092.06.15l-4.94 11.56c-.027.04-.066.067-.11.067zm2.549-1.312c-.016 0-.032-.005-.048-.008a.116.116 0 01-.059-.15 626.45 626.45 0 002.785-6.357.11.11 0 01.15-.06c.06.024.083.091.06.15a629.705 629.705 0 01-2.786 6.357.107.107 0 01-.102.068z" fill="#000"/><path d="M50.01 17.836c-.453-.008-.552.455-.69.795a8.004 8.004 0 01-.576 1.11c-.382.574-.398.641-.773 1.06.052-.055-.418.522-.927 1.064-.47.482-.39.387-.706.692-.698.703-1.53 1.205-3.065 1.948-1.436.649-2.11 1.064-4.165 1.57-.529.09-.896.17-1.874.158-1.069-.067-1.053-.119-1.917-.237h.012c-.548-.103-1.105-.166-1.649-.293a8.972 8.972 0 01-1.318-.383c-.978-.45-3.487-1.914-4.248-2.637-.576-.526-1.175-1.02-1.716-1.581-.453-.447-.165-.25-.639-.728l-.031-.02c-.754-.94-1.152-1.288-1.68-2.383-.072-.162-.04-.087-.182-.479a.601.601 0 00-.276-.36c-.324-.2-.781-.011-.88.36-.075.257.067.506.15.744.213.545.517 1.051.832 1.545.205.317.422.617.647.914a.684.684 0 00-.256.506.845.845 0 00-1.183.53c-.083.308.035.576.18.841.013.028.025.052.036.083.142.344.363.645.549.965 1.451 2.415 3.787 4.226 6.295 5.443 2.09.997 4.406 1.404 6.714 1.293a23.65 23.65 0 001.499-.071c.284-.024.596-.032.805-.257.497-.47.122-1.384-.565-1.36-2.35.206-4.303.11-6.15-.45.695.082 1.401.094 2.096.15.804.047 1.601.19 2.41.21.864-.02 1.735.027 2.591-.104a21.786 21.786 0 004.327-1.486c.856-.415 1.685-.91 2.403-1.538.161-.158.386-.276.461-.498.103-.198.06-.45-.067-.629a9.089 9.089 0 001.089-1.075c.201-.225.832-.89 1.301-1.514.332-.486.636-.988.935-1.494.257-.459.466-.941.651-1.431.217-.427.087-.941-.45-.973zM25.224 23.11c-.095-.17-.194-.34-.288-.51.229.273.457.55.698.818.249.431.54.85.852 1.238-.032-.032-.067-.06-.098-.091-.675-.755-.695-.76-1.164-1.455z" fill="#000" opacity=".129"/></g><defs><clipPath id="clip0_4800_1894"><path fill="#fff" transform="translate(.254)" d="M0 0h51.492v50H0z"/></clipPath></defs></svg>