<svg width="122" height="120" fill="none" xmlns="http://www.w3.org/2000/svg"><path opacity=".8" d="M71.19 1a61 61 0 0121.28 8L71.19 1z" fill="#fff" stroke="url(#paint0_linear_1855_200)"/><path opacity=".8" d="M44.38 2.48A76.503 76.503 0 0146.15 2l64.47 24.3c.35.5.68 1 1 1.53L44.38 2.48z" fill="#fff" stroke="url(#paint1_linear_1855_200)"/><path opacity=".8" d="M30.1 8.68c.39-.24.79-.47 1.19-.69l86.54 32.61c.15.43.3.87.44 1.31L30.1 8.68z" fill="#fff" stroke="url(#paint2_linear_1855_200)"/><path opacity=".8" d="M19.84 16.4l.89-.81 100 37.69c0 .4.09.8.13 1.2L19.84 16.4z" fill="#fff" stroke="url(#paint3_linear_1855_200)"/><path opacity=".8" d="M12.19 25.1c.21-.3.44-.6.66-.9L121 65c0 .37-.06.74-.09 1.11L12.19 25.1z" fill="#fff" stroke="url(#paint4_linear_1855_200)"/><path opacity=".8" d="M6.61 34.58c.15-.32.3-.65.46-1l112 42.23c-.09.34-.19.69-.29 1L6.61 34.58z" fill="#fff" stroke="url(#paint5_linear_1855_200)"/><path opacity=".8" d="M2.87 44.76c.09-.35.19-.69.29-1L115.38 86c-.15.33-.31.65-.47 1L2.87 44.76z" fill="#fff" stroke="url(#paint6_linear_1855_200)"/><path opacity=".8" d="M1 55.64c0-.37.06-.74.1-1.11l108.7 41c-.22.313-.44.613-.66.9L1 55.64z" fill="#fff" stroke="url(#paint7_linear_1855_200)"/><path opacity=".8" d="M1.23 67.31c0-.39-.09-.79-.12-1.19l101 38.08-.88.81-100-37.7z" fill="#fff" stroke="url(#paint8_linear_1855_200)"/><path opacity=".8" d="M4.15 80c-.15-.44-.29-.88-.44-1.32l88.18 33.24-1.2.69L4.15 80z" fill="#fff" stroke="url(#paint9_linear_1855_200)"/><path opacity=".8" d="M11.36 94.3c-.34-.5-.68-1-1-1.53l67.24 25.35c-.58.17-1.17.33-1.76.48L11.36 94.3z" fill="#fff" stroke="url(#paint10_linear_1855_200)"/><path opacity=".8" d="M39.955 116.122a59.446 59.446 0 01-2.74-1.103l5.453 2.051a60.776 60.776 0 01-2.712-.948l-.177.468.176-.468z" fill="#fff" stroke="url(#paint11_linear_1855_200)"/><defs><linearGradient id="paint0_linear_1855_200" x1="71.083" y1="5" x2="92.283" y2="5" gradientUnits="userSpaceOnUse"><stop stop-color="#1C40F2"/><stop offset=".983" stop-color="#03F8FB"/></linearGradient><linearGradient id="paint1_linear_1855_200" x1="44.041" y1="14.917" x2="111.027" y2="14.917" gradientUnits="userSpaceOnUse"><stop stop-color="#1C40F2"/><stop offset=".983" stop-color="#03F8FB"/></linearGradient><linearGradient id="paint2_linear_1855_200" x1="29.655" y1="24.952" x2="117.492" y2="24.952" gradientUnits="userSpaceOnUse"><stop stop-color="#1C40F2"/><stop offset=".983" stop-color="#03F8FB"/></linearGradient><linearGradient id="paint3_linear_1855_200" x1="19.331" y1="35.038" x2="119.969" y2="35.038" gradientUnits="userSpaceOnUse"><stop stop-color="#1C40F2"/><stop offset=".983" stop-color="#03F8FB"/></linearGradient><linearGradient id="paint4_linear_1855_200" x1="11.642" y1="45.157" x2="120.041" y2="45.157" gradientUnits="userSpaceOnUse"><stop stop-color="#1C40F2"/><stop offset=".983" stop-color="#03F8FB"/></linearGradient><linearGradient id="paint5_linear_1855_200" x1="6.044" y1="55.198" x2="118.079" y2="55.198" gradientUnits="userSpaceOnUse"><stop stop-color="#1C40F2"/><stop offset=".983" stop-color="#03F8FB"/></linearGradient><linearGradient id="paint6_linear_1855_200" x1="2.303" y1="65.383" x2="114.388" y2="65.383" gradientUnits="userSpaceOnUse"><stop stop-color="#1C40F2"/><stop offset=".983" stop-color="#03F8FB"/></linearGradient><linearGradient id="paint7_linear_1855_200" x1=".452" y1="75.483" x2="108.841" y2="75.483" gradientUnits="userSpaceOnUse"><stop stop-color="#1C40F2"/><stop offset=".983" stop-color="#03F8FB"/></linearGradient><linearGradient id="paint8_linear_1855_200" x1=".602" y1="85.567" x2="101.22" y2="85.567" gradientUnits="userSpaceOnUse"><stop stop-color="#1C40F2"/><stop offset=".983" stop-color="#03F8FB"/></linearGradient><linearGradient id="paint9_linear_1855_200" x1="3.266" y1="95.647" x2="91.112" y2="95.647" gradientUnits="userSpaceOnUse"><stop stop-color="#1C40F2"/><stop offset=".983" stop-color="#03F8FB"/></linearGradient><linearGradient id="paint10_linear_1855_200" x1="10.022" y1="105.687" x2="77.007" y2="105.687" gradientUnits="userSpaceOnUse"><stop stop-color="#1C40F2"/><stop offset=".983" stop-color="#03F8FB"/></linearGradient><linearGradient id="paint11_linear_1855_200" x1="29.412" y1="115.591" x2="50.602" y2="115.591" gradientUnits="userSpaceOnUse"><stop stop-color="#1C40F2"/><stop offset=".983" stop-color="#03F8FB"/></linearGradient></defs></svg>