<svg width="387" height="27" fill="none" xmlns="http://www.w3.org/2000/svg"><g clip-path="url(#clip0_1893_2295)"><path d="M355.682 12.046c-8.411-.65-16.825-1.19-25.252-1.778-2.776-.2-5.554-.275-8.331-.412l-18.087-.888c-3.367-.166-6.719-.356-10.073-.497l-2.879-.078-6.565-.179-29.861-.811c-2.361-.065-4.737-.13-7.1-.119l-17.658-.244c-6.624-.106-13.248-.249-19.86-.292l-32.154-.217c-6.194-.032-12.401-.126-18.598-.084l-32.064.22c-5.851.04-11.686.042-17.525.169l-33.171.66c-5.91.125-11.82.175-17.72.449L25.746 9.526l-7.14.327c-4.761.218-9.513.634-14.248.964l-.895.088a3.415 3.415 0 00-1.46.691C1.352 12.115.965 12.834.926 13.6c-.017.762.314 1.501.924 2.059a3.23 3.23 0 001.066.667c.405.156.844.238 1.286.24 5.774-.389 11.434-.83 17.175-1.083l15.956-.732 17.397-.767c2.337-.11 4.675-.27 7.025-.318l27.074-.578 16.91-.346c2.321-.037 4.658-.122 6.978-.133l26.861-.163 16.283-.09c1.829.05 3.647-.038 5.476-.025l28.998.218 16.191.13c1.929.052 3.847.005 5.762.045l29.941.516c6.219.169 12.427.238 18.647.42l31.674.86c2.088.057 4.174.188 6.26.307l17.594.999 13.135.692c3.093.17 6.198.453 9.304.674 9.131.682 18.247 1.364 27.318 2.106 2.315.187 4.629.399 6.957.61 2.329.213 4.959.433 7.429.748.383.06.77.133 1.161.218a4.42 4.42 0 002.802-.234 3.375 3.375 0 001.453-1.286 2.76 2.76 0 00.385-1.767 2.952 2.952 0 00-.81-1.666 3.75 3.75 0 00-1.737-1.016 37.168 37.168 0 00-5.092-.833l-3.519-.405c-2.255-.26-4.527-.42-6.798-.631-4.211-.387-8.468-.664-12.71-.99z" fill="#FFB800"/></g><defs><clipPath id="clip0_1893_2295"><path fill="#fff" transform="rotate(1.557 -17.51 47.402)" d="M0 0h385.448v16H0z"/></clipPath></defs></svg>