<svg width="157" height="92" fill="none" xmlns="http://www.w3.org/2000/svg"><path d="M73.405 73.514a3.26 3.26 0 01-3.273 3.281 3.283 3.283 0 01-3.302-3.28c0-1.798 1.48-3.281 3.302-3.281a3.224 3.224 0 013.273 3.28zm16.736 0a3.277 3.277 0 01-3.273 3.281 3.26 3.26 0 01-3.273-3.28 3.277 3.277 0 013.273-3.281c1.793-.029 3.273 1.455 3.273 3.28zM56.697 55.4a3.302 3.302 0 01-3.273 3.309c-1.794 0-3.274-1.484-3.274-3.31 0-1.796 1.48-3.28 3.274-3.28a3.26 3.26 0 013.273 3.28zm16.736 0c0 1.825-1.452 3.309-3.273 3.309-1.822 0-3.274-1.484-3.274-3.31a3.277 3.277 0 013.274-3.28 3.277 3.277 0 013.273 3.28zm16.707 0c0 1.825-1.48 3.309-3.273 3.28a3.26 3.26 0 01-3.273-3.28 3.277 3.277 0 013.273-3.28 3.277 3.277 0 013.273 3.28zm16.736 0c0 1.825-1.48 3.28-3.273 3.309-1.821 0-3.273-1.484-3.273-3.31a3.278 3.278 0 013.273-3.28 3.277 3.277 0 013.273 3.28zM39.99 37.855a3.277 3.277 0 01-3.273 3.281c-1.794 0-3.274-1.483-3.274-3.28 0-1.826 1.48-3.31 3.274-3.281a3.26 3.26 0 013.273 3.28zm16.707 0a3.277 3.277 0 01-3.273 3.281c-1.793 0-3.273-1.483-3.273-3.28a3.277 3.277 0 013.273-3.281 3.26 3.26 0 013.273 3.28zm16.736 0c0 1.798-1.48 3.281-3.273 3.281a3.277 3.277 0 01-3.273-3.28 3.26 3.26 0 013.273-3.281 3.277 3.277 0 013.273 3.28zm16.708 0c0 1.798-1.48 3.281-3.273 3.281a3.277 3.277 0 01-3.273-3.28 3.26 3.26 0 013.273-3.281 3.277 3.277 0 013.273 3.28zm16.736 0c0 1.798-1.48 3.281-3.273 3.281-1.822 0-3.302-1.483-3.302-3.28 0-1.826 1.452-3.281 3.302-3.281 1.764 0 3.273 1.455 3.273 3.28zm16.708 0c0 1.798-1.48 3.281-3.274 3.281-1.793 0-3.273-1.483-3.273-3.28 0-1.826 1.48-3.281 3.273-3.31 1.794.029 3.274 1.484 3.274 3.31zM23.283 19.74c0 1.827-1.452 3.31-3.274 3.31a3.284 3.284 0 01-3.273-3.31c0-1.796 1.48-3.28 3.273-3.28 1.822-.028 3.274 1.455 3.274 3.28zm16.707 0c0 1.827-1.451 3.31-3.273 3.31a3.284 3.284 0 01-3.273-3.31c0-1.796 1.48-3.28 3.273-3.28 1.822-.028 3.273 1.455 3.273 3.28zm16.708 0c0 1.827-1.452 3.31-3.273 3.31a3.284 3.284 0 01-3.273-3.31c0-1.796 1.48-3.28 3.273-3.28 1.821-.028 3.273 1.455 3.273 3.28zm16.736 0c0 1.827-1.48 3.31-3.273 3.31a3.29 3.29 0 01-3.302-3.31c0-1.796 1.48-3.28 3.302-3.28 1.793-.028 3.273 1.455 3.273 3.28zm16.707 0c0 1.827-1.48 3.31-3.273 3.31-1.821 0-3.273-1.455-3.273-3.31a3.277 3.277 0 013.273-3.28c1.794-.028 3.273 1.455 3.273 3.28zm16.737 0c0 1.827-1.481 3.31-3.274 3.31a3.29 3.29 0 01-3.301-3.31c0-1.796 1.48-3.28 3.273-3.28 1.821-.028 3.302 1.455 3.302 3.28zm16.707 0a3.259 3.259 0 01-3.273 3.281c-1.822 0-3.273-1.454-3.273-3.309 0-1.797 1.48-3.28 3.273-3.28 1.793 0 3.273 1.483 3.273 3.309zm16.708 0c0 1.827-1.452 3.31-3.274 3.31a3.283 3.283 0 01-3.273-3.31c0-1.796 1.48-3.28 3.273-3.28 1.822-.028 3.274 1.455 3.274 3.28zM6.575 3.31c0 1.796-1.48 3.28-3.273 3.28A3.284 3.284 0 010 3.31C0 1.482 1.452 0 3.273 0a3.308 3.308 0 013.302 3.31zm16.707 0a3.277 3.277 0 01-3.273 3.28 3.277 3.277 0 01-3.273-3.28A3.266 3.266 0 0120.009 0c1.822 0 3.273 1.483 3.273 3.31zm16.708 0a3.277 3.277 0 01-3.273 3.28c-1.793 0-3.273-1.484-3.273-3.28A3.266 3.266 0 0136.717 0c1.821 0 3.273 1.483 3.273 3.31zm16.708 0a3.277 3.277 0 01-3.274 3.28c-1.793 0-3.273-1.484-3.273-3.28 0-1.827 1.48-3.31 3.273-3.31 1.822 0 3.274 1.483 3.274 3.31zm16.736 0c0 1.796-1.48 3.28-3.302 3.28a3.277 3.277 0 01-3.273-3.28c0-1.827 1.451-3.31 3.273-3.31a3.308 3.308 0 013.302 3.31zm16.707 0c0 1.796-1.48 3.28-3.273 3.28a3.277 3.277 0 01-3.273-3.28c0-1.827 1.451-3.31 3.273-3.31 1.793 0 3.273 1.483 3.273 3.31zm16.736 0c0 1.796-1.48 3.28-3.273 3.28a3.277 3.277 0 01-3.273-3.28A3.29 3.29 0 01103.633 0c1.764 0 3.244 1.483 3.244 3.31zm16.708 0a3.278 3.278 0 01-3.273 3.28c-1.794 0-3.274-1.484-3.274-3.28 0-1.827 1.48-3.31 3.274-3.31 1.793 0 3.273 1.483 3.273 3.31zm16.707 0a3.277 3.277 0 01-3.273 3.28c-1.793 0-3.273-1.484-3.273-3.28A3.26 3.26 0 01136.991 0a3.29 3.29 0 013.301 3.31zm16.708 0a3.278 3.278 0 01-3.273 3.28c-1.822 0-3.302-1.484-3.302-3.28 0-1.827 1.48-3.31 3.302-3.31C155.548 0 157 1.483 157 3.31zM81.773 88.69c0 1.826-1.48 3.31-3.273 3.31-1.822 0-3.273-1.455-3.273-3.31a3.277 3.277 0 013.273-3.28c1.793 0 3.273 1.484 3.273 3.28z" opacity=".2" fill="#01A6FF"/></svg>