<svg width="103" height="93" fill="none" xmlns="http://www.w3.org/2000/svg"><path d="M1.483 71.934c3.522-3.35 6.906.178 10.483-3.187 3.577-3.364.097-6.839 3.619-10.258 3.521-3.42 6.905.178 10.482-3.187 3.577-3.365.097-6.84 3.619-10.259 3.521-3.42 6.905.178 10.482-3.187 3.577-3.364.097-6.839 3.619-10.258 3.521-3.42 6.905.164 10.496-3.187 3.59-3.351.083-6.84 3.618-10.272 3.536-3.434 6.906.177 10.483-3.187 3.577-3.365.097-6.84 3.618-10.259 3.522-3.42 6.975.164 10.497-3.2M7.822 78.459c3.522-3.365 6.906.178 10.483-3.187 3.577-3.365.096-6.84 3.618-10.259 3.522-3.42 6.906.164 10.483-3.187 3.577-3.35.097-6.839 3.618-10.258 3.522-3.42 6.906.164 10.483-3.187 3.577-3.351.097-6.84 3.618-10.259 3.522-3.42 6.906.164 10.497-3.2 3.59-3.365.083-6.84 3.618-10.259 3.536-3.42 6.906.178 10.483-3.187 3.577-3.365.097-6.839 3.632-10.258 3.536-3.42 6.906.164 10.483-3.201M14.162 84.983c3.522-3.365 6.906.178 10.483-3.187 3.577-3.365.096-6.839 3.618-10.258 3.522-3.42 6.906.164 10.483-3.201 3.577-3.365.096-6.839 3.618-10.245 3.522-3.406 6.906.164 10.483-3.2 3.577-3.365.096-6.84 3.618-10.245 3.522-3.406 6.906.164 10.497-3.201 3.59-3.365.082-6.84 3.618-10.259 3.536-3.42 6.906.178 10.483-3.187 3.577-3.364.096-6.839 3.632-10.272s6.906.178 10.483-3.187M20.501 91.508c3.522-3.365 6.905.164 10.482-3.187 3.578-3.352.097-6.908 3.619-10.259 3.522-3.351 6.906.164 10.496-3.2 3.591-3.365.083-6.84 3.605-10.245 3.522-3.406 6.906.164 10.496-3.201 3.591-3.365.083-6.84 3.605-10.259 3.522-3.42 6.906.178 10.496-3.187 3.591-3.364.097-6.839 3.619-10.258 3.522-3.42 6.906.164 10.483-3.187 3.577-3.351.096-6.907 3.632-10.272 3.535-3.365 6.905.177 10.482-3.187" stroke="#18029D" stroke-opacity=".67" stroke-width="2" stroke-miterlimit="10"/></svg>