<svg width="174" height="167" fill="none" xmlns="http://www.w3.org/2000/svg"><path d="M164.917 45.976c0-1.776-1.447-3.204-3.246-3.204s-3.245 1.428-3.245 3.204c0 1.776 1.446 3.204 3.245 3.204 1.799 0 3.246-1.428 3.246-3.204zm-14.074 7.488c-1.799 0-3.245 1.428-3.245 3.205 0 1.776 1.446 3.204 3.245 3.204 1.799 0 3.246-1.428 3.246-3.204 0-1.777-1.447-3.205-3.246-3.205zm18.415 24.59c0 1.776 1.446 3.204 3.245 3.204.529 0 .988-.139 1.411-.348-.035-1.985-.106-3.936-.282-5.851a3.144 3.144 0 00-1.164-.21c-1.764-.034-3.21 1.429-3.21 3.205zm-4.341 10.658c0-1.776-1.447-3.204-3.246-3.204s-3.245 1.428-3.245 3.204c0 1.776 1.446 3.204 3.245 3.204 1.799.035 3.246-1.427 3.246-3.204zm-3.246-24.555c-1.799 0-3.245 1.428-3.245 3.204 0 1.776 1.446 3.204 3.245 3.204 1.799 0 3.246-1.428 3.246-3.204 0-1.776-1.447-3.204-3.246-3.204zm-10.828 10.658c-1.799 0-3.245 1.428-3.245 3.204 0 1.777 1.446 3.205 3.245 3.205 1.799 0 3.246-1.428 3.246-3.205 0-1.741-1.447-3.204-3.246-3.204zm20.108-15.36c-.388-1.463-.847-2.89-1.305-4.284-.247.453-.388.94-.388 1.498 0 1.184.67 2.229 1.693 2.786zm-12.383 71.123c.353-.522.706-1.045 1.094-1.567-.529.383-.882.94-1.094 1.567zm-.142-20.481c0 1.777 1.446 3.205 3.245 3.205 1.799 0 3.246-1.428 3.246-3.205 0-1.776-1.447-3.204-3.246-3.204s-3.245 1.463-3.245 3.204zm14.289-13.861c-.071 0-.141-.035-.212-.035-1.799 0-3.245 1.428-3.245 3.204 0 1.393.917 2.577 2.152 2.995a70.94 70.94 0 001.305-6.165zm-43.532-85.543c-1.799 0-3.245 1.428-3.245 3.204 0 1.777 1.446 3.205 3.245 3.205 1.799 0 3.245-1.428 3.245-3.205 0-1.776-1.446-3.204-3.245-3.204zm-14.076-7.489c0 1.776 1.447 3.204 3.246 3.204s3.245-1.428 3.245-3.204v-.14a94.568 94.568 0 00-5.503-2.159c-.6.592-.988 1.393-.988 2.3zm-7.582 7.489c-1.799 0-3.246 1.428-3.246 3.204 0 1.777 1.447 3.205 3.246 3.205s3.245-1.428 3.245-3.205c0-1.776-1.446-3.204-3.245-3.204zm21.658 42.771c-1.799 0-3.245 1.428-3.245 3.205 0 1.776 1.446 3.204 3.245 3.204 1.799 0 3.245-1.428 3.245-3.204 0-1.777-1.446-3.205-3.245-3.205zm21.66-14.977c1.793 0 3.246-1.434 3.246-3.204 0-1.77-1.453-3.204-3.246-3.204-1.792 0-3.245 1.434-3.245 3.204 0 1.77 1.453 3.204 3.245 3.204zm-21.66 0c1.799 0 3.245-1.428 3.245-3.204 0-1.777-1.446-3.205-3.245-3.205-1.799 0-3.245 1.428-3.245 3.205 0 1.776 1.446 3.204 3.245 3.204zm-10.83 10.693c1.799 0 3.245-1.428 3.245-3.204 0-1.776-1.446-3.204-3.245-3.204-1.799 0-3.246 1.428-3.246 3.204 0 1.776 1.447 3.204 3.246 3.204zm24.905-3.204c0-1.776-1.446-3.204-3.245-3.204-1.799 0-3.245 1.428-3.245 3.204 0 1.776 1.446 3.204 3.245 3.204 1.799 0 3.245-1.428 3.245-3.204zm-24.905-18.182c1.799 0 3.245-1.428 3.245-3.204 0-1.777-1.446-3.205-3.245-3.205-1.799 0-3.246 1.428-3.246 3.205 0 1.776 1.447 3.204 3.246 3.204zm18.415-3.204c0 1.776 1.446 3.204 3.245 3.204 1.799 0 3.245-1.428 3.245-3.204 0-1.777-1.446-3.205-3.245-3.205-1.799 0-3.245 1.428-3.245 3.205zm-29.243 28.874c-1.799 0-3.246 1.428-3.246 3.205 0 1.776 1.447 3.204 3.246 3.204s3.245-1.428 3.245-3.204c0-1.777-1.446-3.205-3.245-3.205zM129.183 96.2c-1.799 0-3.245 1.429-3.245 3.205 0 1.777 1.446 3.205 3.245 3.205 1.799 0 3.245-1.428 3.245-3.205 0-1.741-1.446-3.204-3.245-3.204zm0-21.385c-1.799 0-3.245 1.428-3.245 3.204 0 1.776 1.446 3.205 3.245 3.205 1.799 0 3.245-1.428 3.245-3.205 0-1.741-1.446-3.204-3.245-3.204zm-7.585 13.897c0-1.776-1.446-3.204-3.245-3.204-1.799 0-3.246 1.428-3.246 3.204 0 1.776 1.447 3.204 3.246 3.204 1.799.035 3.245-1.427 3.245-3.204zm18.415-3.204c-1.799 0-3.245 1.428-3.245 3.204 0 1.776 1.446 3.205 3.245 3.205 1.799 0 3.245-1.428 3.245-3.205 0-1.741-1.446-3.204-3.245-3.204zm-21.66-21.351c-1.799 0-3.246 1.428-3.246 3.204 0 1.776 1.447 3.204 3.246 3.204s3.245-1.428 3.245-3.204c0-1.776-1.446-3.204-3.245-3.204zm21.66 0c-1.799 0-3.245 1.428-3.245 3.204 0 1.776 1.446 3.204 3.245 3.204 1.799 0 3.245-1.428 3.245-3.204 0-1.776-1.446-3.204-3.245-3.204zM107.525 96.2c-1.799 0-3.246 1.429-3.246 3.205 0 1.777 1.447 3.205 3.246 3.205s3.245-1.428 3.245-3.205c0-1.741-1.446-3.204-3.245-3.204zm43.318 27.795c1.799 0 3.246-1.428 3.246-3.204 0-1.777-1.447-3.205-3.246-3.205s-3.245 1.428-3.245 3.205c0 1.776 1.446 3.204 3.245 3.204zm-21.66 0c1.799 0 3.245-1.428 3.245-3.204 0-1.777-1.446-3.205-3.245-3.205-1.799 0-3.245 1.428-3.245 3.205 0 1.776 1.446 3.204 3.245 3.204zm-10.83 4.284c-1.799 0-3.246 1.428-3.246 3.205 0 1.776 1.447 3.204 3.246 3.204s3.245-1.428 3.245-3.204c0-1.777-1.446-3.205-3.245-3.205zm24.905 3.205c0-1.777-1.446-3.205-3.245-3.205-1.799 0-3.245 1.428-3.245 3.205 0 1.776 1.446 3.204 3.245 3.204 1.799 0 3.245-1.428 3.245-3.204zm-24.905-24.591c-1.799 0-3.246 1.428-3.246 3.204 0 1.777 1.447 3.205 3.246 3.205s3.245-1.428 3.245-3.205c0-1.741-1.446-3.204-3.245-3.204zm21.66 0c-1.799 0-3.245 1.428-3.245 3.204 0 1.777 1.446 3.205 3.245 3.205 1.799 0 3.245-1.428 3.245-3.205 0-1.741-1.446-3.204-3.245-3.204zm-32.488 10.693c-1.799 0-3.246 1.428-3.246 3.205 0 1.776 1.447 3.204 3.246 3.204s3.245-1.428 3.245-3.204c0-1.777-1.446-3.205-3.245-3.205zm43.318-14.941c1.799 0 3.246-1.428 3.246-3.205 0-1.776-1.447-3.204-3.246-3.204s-3.245 1.428-3.245 3.204c0 1.742 1.446 3.205 3.245 3.205zm-35.736 50.224c0 1.777 1.447 3.205 3.246 3.205s3.245-1.428 3.245-3.205c0-1.776-1.446-3.204-3.245-3.204-1.799 0-3.246 1.428-3.246 3.204zm21.731-.696c1.164-.801 2.293-1.637 3.422-2.473-.071 0-.177-.035-.247-.035-1.552 0-2.822 1.08-3.175 2.508zm-29.313 8.185c-1.799 0-3.246 1.428-3.246 3.204 0 .871.353 1.672.953 2.264a86.772 86.772 0 005.397-1.324 2.56 2.56 0 00.141-.905 3.224 3.224 0 00-3.245-3.239zm44.235-21.247c-.282-.069-.599-.139-.917-.139-1.799 0-3.245 1.428-3.245 3.205 0 .348.07.696.176 1.044a72.927 72.927 0 003.986-4.11zm-22.577 6.27c1.799 0 3.245-1.428 3.245-3.204 0-1.777-1.446-3.205-3.245-3.205-1.799 0-3.245 1.428-3.245 3.205 0 1.776 1.446 3.204 3.245 3.204zM85.863 10.693c-1.8 0-3.246 1.428-3.246 3.204 0 1.777 1.447 3.205 3.246 3.205s3.245-1.428 3.245-3.205c0-1.776-1.446-3.204-3.245-3.204zm-7.55-7.489C78.313 1.428 76.832 0 75.068 0c-1.8 0-3.246 1.428-3.246 3.204 0 1.777 1.447 3.205 3.246 3.205 1.764 0 3.245-1.428 3.245-3.205zm21.627 0C99.94 1.428 98.494 0 96.695 0c-1.8 0-3.246 1.428-3.246 3.204 0 1.777 1.447 3.205 3.246 3.205S99.94 4.98 99.94 3.204zm7.585 35.283c1.799 0 3.245-1.428 3.245-3.204 0-1.777-1.446-3.205-3.245-3.205-1.799 0-3.246 1.428-3.246 3.205 0 1.776 1.447 3.204 3.246 3.204zm-21.662 0c1.799 0 3.245-1.428 3.245-3.204 0-1.777-1.446-3.205-3.245-3.205-1.8 0-3.246 1.428-3.246 3.205 0 1.776 1.482 3.204 3.246 3.204zM75.068 49.18c1.8 0 3.246-1.428 3.246-3.204 0-1.776-1.447-3.204-3.246-3.204s-3.245 1.428-3.245 3.204c-.035 1.776 1.446 3.204 3.245 3.204zm21.627 0c1.799 0 3.245-1.428 3.245-3.204 0-1.776-1.446-3.204-3.245-3.204-1.8 0-3.246 1.428-3.246 3.204 0 1.776 1.482 3.204 3.246 3.204zM75.068 27.794c1.8 0 3.246-1.428 3.246-3.204 0-1.777-1.447-3.205-3.246-3.205s-3.245 1.428-3.245 3.205c-.035 1.776 1.446 3.204 3.245 3.204zm21.627 0c1.799 0 3.245-1.428 3.245-3.204 0-1.777-1.446-3.205-3.245-3.205-1.8 0-3.246 1.428-3.246 3.205 0 1.776 1.482 3.204 3.246 3.204zM85.863 96.2c-1.8 0-3.246 1.429-3.246 3.205 0 1.777 1.447 3.205 3.246 3.205s3.245-1.428 3.245-3.205c0-1.741-1.446-3.204-3.245-3.204zm21.662-14.942c1.799 0 3.245-1.427 3.245-3.204 0-1.776-1.446-3.204-3.245-3.204-1.799 0-3.246 1.428-3.246 3.204 0 1.776 1.447 3.204 3.246 3.204zm-21.662-6.443c-1.8 0-3.246 1.428-3.246 3.204 0 1.776 1.447 3.205 3.246 3.205s3.245-1.428 3.245-3.205c0-1.741-1.446-3.204-3.245-3.204zM75.068 85.508c-1.8 0-3.246 1.428-3.246 3.204 0 1.776 1.447 3.205 3.246 3.205s3.245-1.428 3.245-3.205c0-1.741-1.481-3.204-3.245-3.204zm21.627 0c-1.8 0-3.246 1.428-3.246 3.204 0 1.776 1.447 3.205 3.246 3.205s3.245-1.428 3.245-3.205c0-1.741-1.446-3.204-3.245-3.204zM75.068 64.157c-1.8 0-3.246 1.428-3.246 3.204 0 1.776 1.447 3.204 3.246 3.204s3.245-1.428 3.245-3.204c0-1.776-1.481-3.204-3.245-3.204zm21.627 0c-1.8 0-3.246 1.428-3.246 3.204 0 1.776 1.447 3.204 3.246 3.204s3.245-1.428 3.245-3.204c0-1.776-1.446-3.204-3.245-3.204zM64.24 96.2c-1.8 0-3.246 1.429-3.246 3.205s1.447 3.204 3.246 3.204 3.245-1.428 3.245-3.204c0-1.742-1.482-3.204-3.245-3.204zm0-21.385c-1.8 0-3.246 1.428-3.246 3.205 0 1.776 1.447 3.204 3.246 3.204s3.245-1.428 3.245-3.204c0-1.742-1.482-3.205-3.245-3.205zm21.623-14.942c1.799 0 3.245-1.428 3.245-3.204 0-1.777-1.446-3.205-3.245-3.205-1.8 0-3.246 1.428-3.246 3.205 0 1.741 1.482 3.204 3.246 3.204zm0 79.099c-1.8 0-3.246 1.428-3.246 3.204 0 1.776 1.447 3.204 3.246 3.204s3.245-1.428 3.245-3.204c0-1.776-1.446-3.204-3.245-3.204zm0-21.386c-1.8 0-3.246 1.428-3.246 3.205 0 1.776 1.447 3.204 3.246 3.204s3.245-1.428 3.245-3.204c0-1.777-1.446-3.205-3.245-3.205zm-10.795 10.693c-1.8 0-3.246 1.428-3.246 3.205 0 1.776 1.447 3.204 3.246 3.204s3.245-1.428 3.245-3.204c0-1.777-1.481-3.205-3.245-3.205zm21.627 0c-1.8 0-3.246 1.428-3.246 3.205 0 1.776 1.447 3.204 3.246 3.204s3.245-1.428 3.245-3.204c0-1.777-1.446-3.205-3.245-3.205zm-21.627-21.386c-1.8 0-3.246 1.428-3.246 3.204 0 1.777 1.447 3.205 3.246 3.205s3.245-1.428 3.245-3.205c0-1.741-1.481-3.204-3.245-3.204zm21.627 0c-1.8 0-3.246 1.428-3.246 3.204 0 1.777 1.447 3.205 3.246 3.205s3.245-1.428 3.245-3.205c0-1.741-1.446-3.204-3.245-3.204zM64.24 117.586c-1.8 0-3.246 1.428-3.246 3.205 0 1.776 1.447 3.204 3.246 3.204s3.245-1.428 3.245-3.204c0-1.777-1.482-3.205-3.245-3.205zm21.623 42.772c-1.8 0-3.246 1.428-3.246 3.204 0 1.776 1.447 3.204 3.246 3.204s3.245-1.428 3.245-3.204c0-1.776-1.446-3.204-3.245-3.204zm-14.073-7.489c0 1.777 1.445 3.205 3.244 3.205 1.8 0 3.246-1.428 3.246-3.205 0-1.776-1.446-3.204-3.246-3.204-1.763 0-3.245 1.428-3.245 3.204zm21.66 0c0 1.777 1.446 3.205 3.245 3.205 1.799 0 3.245-1.428 3.245-3.205 0-1.776-1.446-3.204-3.245-3.204-1.764 0-3.246 1.428-3.246 3.204zm-29.21 7.488c-1.8 0-3.246 1.428-3.246 3.205 0 .104.035.174.035.278a80.76 80.76 0 005.892 1.568c.352-.523.6-1.15.6-1.846-.036-1.777-1.518-3.205-3.281-3.205zm43.285-14.976c1.799 0 3.245-1.428 3.245-3.204 0-1.777-1.446-3.205-3.245-3.205-1.799 0-3.246 1.428-3.246 3.205 0 1.776 1.447 3.204 3.246 3.204zM42.58 10.693c-1.8 0-3.246 1.428-3.246 3.204 0 1.777 1.446 3.205 3.245 3.205 1.8 0 3.246-1.428 3.246-3.205 0-1.776-1.447-3.204-3.246-3.204zm10.83-4.284c1.798 0 3.245-1.428 3.245-3.204 0-.627-.177-1.185-.494-1.672-2.011.766-3.986 1.567-5.892 2.473a3.252 3.252 0 003.14 2.403zm10.83 32.078c1.799 0 3.245-1.428 3.245-3.204 0-1.776-1.446-3.204-3.245-3.204-1.8 0-3.246 1.428-3.246 3.204 0 1.776 1.447 3.204 3.246 3.204zm-21.66 0c1.792 0 3.245-1.434 3.245-3.204 0-1.77-1.453-3.204-3.246-3.204-1.792 0-3.245 1.434-3.245 3.204 0 1.77 1.453 3.204 3.245 3.204zm-7.585 7.489c0-1.776-1.447-3.204-3.246-3.204s-3.245 1.428-3.245 3.204c0 1.776 1.446 3.204 3.245 3.204 1.8 0 3.246-1.428 3.246-3.204zM53.41 49.18c1.799 0 3.245-1.428 3.245-3.204 0-1.776-1.446-3.204-3.245-3.204-1.8 0-3.246 1.428-3.246 3.204 0 1.776 1.446 3.204 3.245 3.204zM28.504 24.59c0 1.776 1.446 3.204 3.245 3.204 1.8 0 3.246-1.428 3.246-3.204 0-1.777-1.447-3.205-3.246-3.205s-3.245 1.428-3.245 3.205zm24.906 3.204c1.799 0 3.245-1.428 3.245-3.204 0-1.777-1.446-3.205-3.245-3.205-1.8 0-3.246 1.428-3.246 3.205 0 1.776 1.446 3.204 3.245 3.204zm10.83-10.692c1.799 0 3.245-1.428 3.245-3.205 0-1.776-1.446-3.204-3.245-3.204-1.8 0-3.246 1.428-3.246 3.204 0 1.777 1.447 3.205 3.246 3.205zM42.58 96.2c-1.8 0-3.246 1.429-3.246 3.205s1.446 3.204 3.245 3.204c1.8 0 3.246-1.428 3.246-3.204 0-1.742-1.447-3.204-3.246-3.204zm0-21.385c-1.8 0-3.246 1.428-3.246 3.205 0 1.776 1.446 3.204 3.245 3.204 1.8 0 3.246-1.428 3.246-3.204 0-1.742-1.447-3.205-3.246-3.205zM31.75 85.508c-1.8 0-3.246 1.428-3.246 3.204 0 1.776 1.446 3.205 3.245 3.205 1.8 0 3.246-1.428 3.246-3.205 0-1.741-1.447-3.204-3.246-3.204zm21.66 0c-1.8 0-3.246 1.428-3.246 3.204 0 1.776 1.446 3.205 3.245 3.205 1.8 0 3.246-1.428 3.246-3.205 0-1.741-1.482-3.204-3.245-3.204zM31.75 64.157c-1.8 0-3.246 1.428-3.246 3.204 0 1.776 1.446 3.204 3.245 3.204 1.8 0 3.246-1.428 3.246-3.204 0-1.776-1.447-3.204-3.246-3.204zm21.66 0c-1.8 0-3.246 1.428-3.246 3.204 0 1.776 1.446 3.204 3.245 3.204 1.8 0 3.246-1.428 3.246-3.204 0-1.776-1.482-3.204-3.245-3.204zM20.92 96.2c-1.8 0-3.246 1.429-3.246 3.205s1.446 3.204 3.245 3.204c1.8 0 3.246-1.428 3.246-3.204 0-1.742-1.447-3.204-3.246-3.204zm0-21.385c-1.8 0-3.246 1.428-3.246 3.205 0 1.776 1.446 3.204 3.245 3.204 1.8 0 3.246-1.428 3.246-3.204 0-1.742-1.447-3.205-3.246-3.205zm43.32-14.942c1.799 0 3.245-1.428 3.245-3.204 0-1.777-1.446-3.205-3.245-3.205-1.8 0-3.246 1.428-3.246 3.205 0 1.741 1.447 3.204 3.246 3.204zm-21.66 0c1.799 0 3.245-1.428 3.245-3.204 0-1.777-1.447-3.205-3.246-3.205s-3.245 1.428-3.245 3.205c0 1.741 1.446 3.204 3.245 3.204zm0 57.713c-1.8 0-3.246 1.428-3.246 3.205 0 1.776 1.446 3.204 3.245 3.204 1.8 0 3.246-1.428 3.246-3.204 0-1.777-1.447-3.205-3.246-3.205zm-10.83 10.693c-1.8 0-3.246 1.428-3.246 3.205 0 1.776 1.446 3.204 3.245 3.204 1.8 0 3.246-1.428 3.246-3.204 0-1.777-1.447-3.205-3.246-3.205zm21.66 0c-1.8 0-3.246 1.428-3.246 3.205 0 1.776 1.446 3.204 3.245 3.204 1.8 0 3.246-1.428 3.246-3.204 0-1.777-1.482-3.205-3.245-3.205zm-21.66-21.386c-1.8 0-3.246 1.428-3.246 3.204 0 1.777 1.446 3.205 3.245 3.205 1.8 0 3.246-1.428 3.246-3.205 0-1.741-1.447-3.204-3.246-3.204zm21.66 0c-1.8 0-3.246 1.428-3.246 3.204 0 1.777 1.446 3.205 3.245 3.205 1.8 0 3.246-1.428 3.246-3.205 0-1.741-1.482-3.204-3.245-3.204zm-29.492 34.099c-.283-.731-.882-1.323-1.588-1.672l1.588 1.672zm.247-20.201c0-1.777-1.447-3.205-3.246-3.205s-3.245 1.428-3.245 3.205c0 1.776 1.446 3.204 3.245 3.204 1.8 0 3.246-1.428 3.246-3.204zm25.999 32.078c0 1.776 1.446 3.204 3.245 3.204 1.8 0 3.246-1.428 3.246-3.204 0-1.776-1.446-3.204-3.245-3.204-1.8 0-3.246 1.428-3.246 3.204zm14.076-7.488c1.799 0 3.245-1.428 3.245-3.204 0-1.777-1.446-3.205-3.245-3.205-1.8 0-3.246 1.428-3.246 3.205 0 1.776 1.447 3.204 3.246 3.204zm-21.66 0c1.799 0 3.245-1.428 3.245-3.204 0-1.777-1.447-3.205-3.246-3.205s-3.245 1.428-3.245 3.205c0 1.776 1.446 3.204 3.245 3.204zM20.92 38.487c1.798 0 3.245-1.428 3.245-3.204 0-1.776-1.447-3.204-3.246-3.204s-3.245 1.428-3.245 3.204c0 1.776 1.446 3.204 3.245 3.204zM10.09 49.18c1.799 0 3.245-1.428 3.245-3.204 0-1.777-1.446-3.205-3.245-3.205-.212 0-.388.035-.6.07a115.15 115.15 0 00-2.258 4.667c.565.975 1.623 1.672 2.858 1.672zM1.377 97.002c.247 1.289.494 2.577.776 3.866a3.17 3.17 0 00.353-1.428c0-1.01-.459-1.846-1.129-2.438zm1.128-18.948c0-1.428-.953-2.612-2.223-3.03A70.633 70.633 0 000 81.154c1.446-.348 2.505-1.602 2.505-3.1zm7.585 13.898c1.798 0 3.245-1.428 3.245-3.205 0-1.776-1.447-3.204-3.246-3.204s-3.245 1.428-3.245 3.204c0 1.742 1.446 3.205 3.245 3.205zM6.844 67.361c0 1.776 1.446 3.204 3.245 3.204 1.8 0 3.246-1.428 3.246-3.204 0-1.776-1.447-3.204-3.246-3.204s-3.245 1.428-3.245 3.204zm14.076-7.488c1.798 0 3.245-1.428 3.245-3.204 0-1.777-1.447-3.205-3.246-3.205s-3.245 1.428-3.245 3.205c0 1.741 1.446 3.204 3.245 3.204zM6.844 110.097c0 1.777 1.446 3.205 3.245 3.205 1.8 0 3.246-1.428 3.246-3.205 0-1.776-1.447-3.204-3.246-3.204s-3.245 1.463-3.245 3.204z" opacity=".2" fill="#FF0766"/></svg>