<svg width="660" height="361" fill="none" xmlns="http://www.w3.org/2000/svg"><path opacity=".4" d="M827.103 151.274c1.695-9.162-5.518-17.341-12.219-23.822a1593.13 1593.13 0 00-62.939-57.629c-23.966-20.777-48.875-41.042-77.552-54.556-28.677-13.515-61.808-19.82-92.409-11.574-33.643 9.027-60.987 34.91-77.337 65.632-16.351 30.721-22.581 65.915-24.035 100.692-1.116 26.368 0 54.367-13.349 77.125-19.862 33.887-64.755 43.777-103.888 40.853-39.133-2.923-77.768-15.171-116.874-11.803-52.24 4.514-100.079 38.213-125.795 83.971-25.717 45.758-59.063 122.87-15.88 152.661C108.621 515.451 375.312 725 375.312 725L829 155.047" fill="url(#paint0_linear_1865_48204)"/><path opacity=".4" d="M965 346.326c-18.038-20.04-249.3-225.689-275.278-232.912-25.978-7.223-55.954-3.257-76.24 14.501-18.16 15.896-27.384 41.098-47.958 53.705-22.003 13.482-50.428 8.596-74.856.288-24.427-8.308-48.921-19.752-74.667-18.101-42.233 2.714-74.124 39.625-93.547 77.245-11.394 22.09-20.928 46.217-39.687 62.524-25.058 21.801-61.412 24.936-94.399 21.047-38.757-4.508-79.385-16.86-115.35-1.861-18.283 7.622-33.132 21.635-46.143 36.557C14.207 373.864 2.514 390.481 0 409.612L123.534 617 965 346.326z" fill="url(#paint1_linear_1865_48204)"/><defs><linearGradient id="paint0_linear_1865_48204" x1="829" y1="571.411" x2="22.843" y2="435.742" gradientUnits="userSpaceOnUse"><stop stop-color="#001DAC"/><stop offset="1" stop-color="#000F57"/></linearGradient><linearGradient id="paint1_linear_1865_48204" x1="-4.861" y1="363.531" x2="956.491" y2="363.531" gradientUnits="userSpaceOnUse"><stop stop-color="#1C40F2"/><stop offset=".983" stop-color="#03F8FB"/></linearGradient></defs></svg>