<svg width="15" height="15" fill="none" xmlns="http://www.w3.org/2000/svg"><path d="M1.1 13.851h0-.006a.6.6 0 01-.421-.17.64.64 0 01-.154-.593L3.768.943a.6.6 0 01.425-.418h0l.009-.003a.59.59 0 01.58.152h0l8.89 8.9v.001a.6.6 0 01-.267 1.004s0 0 0 0l-12.149 3.25h0l-.01.002a.498.498 0 01-.145.02zM5.28 2.877l-.612-.61-.224.835-2.27 8.46-.225.837.837-.225 8.47-2.27.837-.224-.613-.613-6.2-6.19z" fill="#fff" stroke="url(#paint0_linear_1855_26278)"/><defs><linearGradient id="paint0_linear_1855_26278" x1="-.072" y1="7.177" x2="14.222" y2="7.177" gradientUnits="userSpaceOnUse"><stop stop-color="#1C40F2"/><stop offset=".983" stop-color="#03F8FB"/></linearGradient></defs></svg>