<svg width="70" height="32" fill="none" xmlns="http://www.w3.org/2000/svg"><g opacity=".8"><path opacity=".8" d="M57.35 31.15c-3.35 0-5-3-6.42-5.69-1.33-2.46-2.58-4.77-4.87-4.77s-3.55 2.31-4.87 4.76c-1.44 2.67-3.08 5.7-6.43 5.7-3.35 0-5-3-6.42-5.7-1.34-2.45-2.58-4.76-4.87-4.76S19.92 23 18.6 25.46c-1.44 2.67-3.07 5.69-6.42 5.69s-5-3-6.43-5.7C4.43 23 3.18 20.69.88 20.69a.89.89 0 010-1.77c3.36 0 5 3 6.43 5.69 1.32 2.46 2.57 4.77 4.87 4.77 2.3 0 3.54-2.31 4.86-4.77 1.45-2.67 3.08-5.69 6.43-5.69 3.35 0 5 3 6.42 5.69 1.33 2.46 2.58 4.77 4.87 4.77s3.55-2.31 4.87-4.77c1.44-2.67 3.08-5.69 6.43-5.69 3.35 0 5 3 6.42 5.69 1.33 2.46 2.58 4.77 4.87 4.77s3.55-2.31 4.87-4.77c1.44-2.67 3.07-5.69 6.43-5.69a.89.89 0 010 1.77c-2.3 0-3.55 2.31-4.87 4.76-1.44 2.68-3.08 5.7-6.43 5.7z" fill="url(#paint0_linear_1865_37983)"/><path opacity=".8" d="M34.76 12.23c-3.35 0-5-3-6.42-5.69-1.34-2.45-2.58-4.77-4.87-4.77s-3.55 2.32-4.87 4.77c-1.44 2.67-3.07 5.69-6.42 5.69s-5-3-6.43-5.69C4.43 4.09 3.18 1.77.88 1.77A.89.89 0 01.88 0c3.36 0 5 3 6.43 5.7 1.32 2.45 2.57 4.76 4.87 4.76 2.3 0 3.54-2.31 4.82-4.76C18.49 3 20.12 0 23.47 0c3.35 0 5 3 6.42 5.7 1.33 2.45 2.58 4.76 4.87 4.76a.89.89 0 110 1.77z" fill="url(#paint1_linear_1865_37983)"/></g><defs><linearGradient id="paint0_linear_1865_37983" x1="-.265" y1="25.036" x2="68.834" y2="25.036" gradientUnits="userSpaceOnUse"><stop stop-color="#1C40F2"/><stop offset=".983" stop-color="#03F8FB"/></linearGradient><linearGradient id="paint1_linear_1865_37983" x1="-.096" y1="6.118" x2="35.429" y2="6.118" gradientUnits="userSpaceOnUse"><stop stop-color="#1C40F2"/><stop offset=".983" stop-color="#03F8FB"/></linearGradient></defs></svg>