<svg width="93" height="92" fill="none" xmlns="http://www.w3.org/2000/svg"><path d="M50.941 81.45l-50.57-22v5.5L46.344 91.7l4.597-10.25z" fill="url(#paint0_linear_1_206)"/><path d="M92.232 64.95v-5.583L46.342 77.2v14.5l45.89-26.75z" fill="url(#paint1_linear_1_206)"/><path d="M.371 59.45l45.973 26.667 45.889-26.75-45.89-26.75L.372 59.45z" fill="url(#paint2_linear_1_206)"/><path opacity=".3" fill-rule="evenodd" clip-rule="evenodd" d="M66.32 58.733l-.327.184-22.058 12.666c-5.65 3.25-14.812 3.259-20.454 0-4.547-2.608-5.433-6.525-2.666-9.658-5.592-3.667-5.341-9.258.752-12.767 4.271-2.5 10.323-3.266 15.773-2.425.97-1.1 2.124-2.025 3.41-2.733 7.063-4.067 18.506-4.067 25.578 0 7.071 4.067 7.054 10.642-.009 14.733z" fill="url(#paint3_linear_1_206)"/><path fill-rule="evenodd" clip-rule="evenodd" d="M66.846 48.542l-.334.183-22.1 12.7c-5.651 3.267-14.812 3.267-20.463 0-2.683-1.542-4.095-3.542-4.22-5.592-.043-1.425 0-4.266 0-5.316a6.846 6.846 0 01-2.433-4.684c-.109-2.5-.05-8.675 0-11.85 4.271-2.5 15.046 1.717 20.52 2.567a13.232 13.232 0 013.42-2.733c7.062-4.067 23.805-8.334 30.86-4.259.1 6.309.083 9.167 0 11.917-.151 2.6-1.915 5.125-5.25 7.067z" fill="url(#paint4_linear_1_206)"/><path fill-rule="evenodd" clip-rule="evenodd" d="M66.788 37.167l-.326.183-22.058 12.7c-5.65 3.283-14.778 3.283-20.454 0-4.547-2.608-5.433-6.525-2.666-9.658-5.592-3.675-5.342-9.259.752-12.775 4.271-2.45 10.331-3.259 15.764-2.417a12.92 12.92 0 013.419-2.7c7.063-4.067 18.506-4.075 25.577 0 7.072 4.075 7.055 10.6-.008 14.667z" fill="url(#paint5_linear_1_206)"/><path fill-rule="evenodd" clip-rule="evenodd" d="M66.846 28.917l-.334.183-22.1 12.7c-5.651 3.25-14.812 3.258-20.463 0-2.691-1.55-4.095-3.542-4.22-5.575-.043-1.417 0-4.267 0-5.308a6.943 6.943 0 01-2.433-4.684c-.109-2.5-.05-8.675 0-11.858 4.271-2.5 15.046 1.725 20.52 2.575a12.89 12.89 0 013.42-2.733c7.062-4.075 23.805-8.334 30.86-4.259.1 6.309.083 9.167 0 11.917-.151 2.567-1.915 5.1-5.25 7.042z" fill="url(#paint6_linear_1_206)"/><path fill-rule="evenodd" clip-rule="evenodd" d="M66.847 17.983l-.335.184-22.1 12.666c-5.65 3.284-14.786 3.284-20.462 0-4.539-2.616-5.425-6.533-2.666-9.658-5.592-3.675-5.342-9.267.752-12.775C26.282 5.925 32.367 5.158 37.809 6a13.233 13.233 0 013.418-2.733c7.064-4.1 18.49-4.1 25.578 0 7.088 4.1 7.063 10.641.042 14.716z" fill="url(#paint7_linear_1_206)"/><path fill-rule="evenodd" clip-rule="evenodd" d="M78.79 51.667a30.963 30.963 0 002.658-11.759c0-2.325 3.068-6.275 1.505-7.15-1.864-1.05-6.077-3.333-7.205-3.75-2.683-1.016-6.119-.55-9.855 1.667-8.584 5.1-15.547 17.5-15.547 27.7 0 3.717.92 6.617 2.508 8.567l5.709 3.1L78.79 51.667z" fill="url(#paint8_linear_1_206)"/><path fill-rule="evenodd" clip-rule="evenodd" d="M84.552 54.783a31.12 31.12 0 002.616-11.808c0-10.225-6.98-14.367-15.589-9.25-8.61 5.117-15.589 17.542-15.589 27.758 0 3.725.928 6.667 2.508 8.592l26.054-15.292z" fill="url(#paint9_linear_1_206)"/><path d="M82.646 47.775c.06-.531.09-1.065.092-1.6 0-6.867-4.69-9.65-10.474-6.217-5.784 3.434-10.473 11.784-10.473 18.65 0 .415.023.83.067 1.242" stroke="#fff" stroke-width="2.34" stroke-linecap="round" stroke-linejoin="round"/><path d="M72.814 52.317l-7.246 3.875" stroke="#fff" stroke-width="1.46" stroke-linecap="round" stroke-linejoin="round"/><path fill-rule="evenodd" clip-rule="evenodd" d="M72.883 50.242c.961-.567 1.738-.109 1.738 1.041a3.964 3.964 0 01-1.738 3.1c-.961.575-1.747.109-1.747-1.033a3.999 3.999 0 011.747-3.108z" fill="#fff"/><path d="M36.604 10.312l-.557.286 6.324 4.925-2.532 1.3-3.772-2.938-5.06 2.598 9.587 7.467c2.259 1.76 6.116 2.154 8.599.879l.557-.286-5.947-4.632 2.532-1.3 3.924 3.057 5.06-2.598-10.116-7.88c-2.259-1.759-6.116-2.153-8.599-.878zm10.977 13.98c-1.847.636-4.346.276-5.873-.914l-1.85-1.441 2.832-1.454 4.891 3.81zm5.61-5.44l-2.831 1.455-3.925-3.057-7.59 3.898-5.71-4.448 2.831-1.454 3.773 2.938 7.59-3.898 5.863 4.566zm-6.875-5.355l-2.832 1.454-5.268-4.103c1.847-.636 4.346-.275 5.873.915l2.227 1.734z" fill="#7A8299"/><defs><linearGradient id="paint0_linear_1_206" x1="50.941" y1="84.868" x2="-1.848" y2="71.311" gradientUnits="userSpaceOnUse"><stop stop-color="#001DAC"/><stop offset="1" stop-color="#000F57"/></linearGradient><linearGradient id="paint1_linear_1_206" x1="92.232" y1="84.85" x2="43.787" y2="73.59" gradientUnits="userSpaceOnUse"><stop stop-color="#001DAC"/><stop offset="1" stop-color="#000F57"/></linearGradient><linearGradient id="paint2_linear_1_206" x1=".371" y1="45" x2="49.753" y2="41.426" gradientUnits="userSpaceOnUse"><stop stop-color="#0082F8"/><stop offset="1" stop-color="#1C40F2"/></linearGradient><linearGradient id="paint3_linear_1_206" x1="80.487" y1="43.475" x2="46.724" y2="55.481" gradientUnits="userSpaceOnUse"><stop/><stop offset="1"/></linearGradient><linearGradient id="paint4_linear_1_206" x1="69.646" y1="34.1" x2="13.748" y2="53.957" gradientUnits="userSpaceOnUse"><stop offset=".42" stop-color="#E7E9E9"/><stop offset=".68" stop-color="#B1B4C3"/><stop offset=".88" stop-color="#8F92AA"/><stop offset=".99" stop-color="#8285A1"/></linearGradient><linearGradient id="paint5_linear_1_206" x1="69.789" y1="25.908" x2="11.535" y2="46.603" gradientUnits="userSpaceOnUse"><stop stop-color="#CDD3DB"/><stop offset=".59" stop-color="#B7BBCA"/><stop offset="1" stop-color="#ACB0C2"/></linearGradient><linearGradient id="paint6_linear_1_206" x1="69.646" y1="14.483" x2="13.756" y2="34.34" gradientUnits="userSpaceOnUse"><stop offset=".42" stop-color="#E7E9E9"/><stop offset=".68" stop-color="#B1B4C3"/><stop offset=".88" stop-color="#8F92AA"/><stop offset=".99" stop-color="#8285A1"/></linearGradient><linearGradient id="paint7_linear_1_206" x1="69.789" y1="6.683" x2="11.527" y2="27.386" gradientUnits="userSpaceOnUse"><stop stop-color="#CDD3DB"/><stop offset=".59" stop-color="#B7BBCA"/><stop offset="1" stop-color="#ACB0C2"/></linearGradient><linearGradient id="paint8_linear_1_206" x1="83.397" y1="61.24" x2="47.234" y2="56.529" gradientUnits="userSpaceOnUse"><stop stop-color="#001DAC"/><stop offset="1" stop-color="#000F57"/></linearGradient><linearGradient id="paint9_linear_1_206" x1="55.99" y1="34.352" x2="89.125" y2="36.911" gradientUnits="userSpaceOnUse"><stop stop-color="#0082F8"/><stop offset="1" stop-color="#1C40F2"/></linearGradient></defs></svg>