<svg width="93" height="91" fill="none" xmlns="http://www.w3.org/2000/svg"><path d="M46.5 76.719L0 59.117v5.48L46.5 91V76.719z" fill="url(#paint0_linear_1_232)"/><path d="M93 64.597v-5.48L46.5 76.719V91L93 64.597z" fill="url(#paint1_linear_1_232)"/><path d="M0 59.117L46.5 85.52 93 59.117 46.5 32.714 0 59.117z" fill="url(#paint2_linear_1_232)"/><path opacity=".3" d="M8.105 59.117l37.883 21.255 38.906-21.255-38.906-18.682L8.105 59.117z" fill="url(#paint3_linear_1_232)"/><path d="M35.663 29.724L67.319 11.79v34.955l-31.654 18.1-.086-.082-.256-34.374.341-.665z" fill="url(#paint4_linear_1_232)"/><path d="M14.59 52.973V17.934l.17-.083 20.99 11.873-.086.084v35.038L14.59 52.973z" fill="url(#paint5_linear_1_232)"/><path d="M67.318 11.79L35.664 29.807 14.59 17.934 46.244 0l21.074 11.79z" fill="url(#paint6_linear_1_232)"/><path d="M51.787 10.762l-.564-.325-7.221 4.169-2.563-1.48 4.309-2.487-5.122-2.957-10.948 6.32c-2.58 1.49-2.634 3.882-.12 5.333l.563.326 6.791-3.921 2.563 1.48-4.482 2.587 5.122 2.957 11.552-6.67c2.58-1.489 2.633-3.881.12-5.332zm-21.588 7.552c-1.349-1.097-1.138-2.653.606-3.66l2.113-1.22 2.867 1.655-5.586 3.225zm9.945 3.131l-2.866-1.655 4.481-2.588-7.684-4.436L40.596 9l2.867 1.655-4.308 2.487 7.684 4.437-6.695 3.865zm7.852-4.533l-2.867-1.655 6.017-3.474c1.348 1.098 1.138 2.653-.607 3.66l-2.543 1.469z" fill="#7A8299"/><path fill-rule="evenodd" clip-rule="evenodd" d="M69.11 55.547a28.735 28.735 0 002.56-11.292c0-2.242 2.986-6.062 1.535-6.892-1.877-.996-5.972-3.155-7.081-3.57-2.645-.996-6.058-.498-9.727 1.577-8.447 4.9-15.358 16.772-15.358 26.653 0 3.57.939 6.393 2.474 8.22l5.632 2.989L69.11 55.547z" fill="url(#paint7_linear_1_232)"/><path fill-rule="evenodd" clip-rule="evenodd" d="M74.742 58.535c1.621-3.57 2.474-7.472 2.56-11.374 0-9.798-6.826-13.783-15.358-8.885-8.532 4.9-15.358 16.855-15.358 26.653 0 3.57.939 6.393 2.474 8.22l25.682-14.614z" fill="url(#paint8_linear_1_232)"/><path d="M72.864 51.81c.085-.498.085-1.08.085-1.577 0-6.56-4.607-9.3-10.323-5.978-5.717 3.32-10.324 11.374-10.324 17.934 0 .415 0 .83.085 1.162" stroke="url(#paint9_linear_1_232)" stroke-miterlimit="10"/><path d="M63.223 56.128l6.825-4.567" stroke="#001042" stroke-width="1.41" stroke-linecap="round" stroke-linejoin="round"/><path fill-rule="evenodd" clip-rule="evenodd" d="M63.223 54.218c.939-.581 1.706-.083 1.706.996-.085 1.163-.682 2.325-1.706 2.99-.938.58-1.706.082-1.706-.997.085-1.245.682-2.325 1.706-2.989z" fill="url(#paint10_linear_1_232)"/><path d="M23.378 32.713l-4.352-2.49" stroke="url(#paint11_linear_1_232)" stroke-miterlimit="10" stroke-linecap="round"/><path d="M23.378 41.847l-4.352-2.491" stroke="url(#paint12_linear_1_232)" stroke-miterlimit="10" stroke-linecap="round"/><path d="M23.378 50.73l-4.352-2.49" stroke="url(#paint13_linear_1_232)" stroke-miterlimit="10" stroke-linecap="round"/><path fill-rule="evenodd" clip-rule="evenodd" d="M27.985 33.959c-.597-.332-1.109-.083-1.109.664.085.747.427 1.495 1.11 1.91.596.332 1.108.083 1.108-.664a2.616 2.616 0 00-1.109-1.91z" fill="url(#paint14_linear_1_232)"/><path fill-rule="evenodd" clip-rule="evenodd" d="M27.985 42.76c-.597-.332-1.109-.083-1.109.664.085.748.427 1.495 1.11 1.91.596.332 1.108.083 1.108-.664-.085-.748-.512-1.412-1.109-1.91z" fill="url(#paint15_linear_1_232)"/><path fill-rule="evenodd" clip-rule="evenodd" d="M27.985 51.561c-.597-.332-1.109-.083-1.109.664.085.748.427 1.495 1.11 1.91.596.332 1.108.083 1.108-.664-.085-.747-.512-1.495-1.109-1.91z" fill="url(#paint16_linear_1_232)"/><defs><linearGradient id="paint0_linear_1_232" x1="46.5" y1="84.246" x2="-2.45" y2="72.554" gradientUnits="userSpaceOnUse"><stop stop-color="#001DAC"/><stop offset="1" stop-color="#000F57"/></linearGradient><linearGradient id="paint1_linear_1_232" x1="93" y1="84.246" x2="44.05" y2="72.554" gradientUnits="userSpaceOnUse"><stop stop-color="#001DAC"/><stop offset="1" stop-color="#000F57"/></linearGradient><linearGradient id="paint2_linear_1_232" x1="0" y1="36.577" x2="96.693" y2="52.836" gradientUnits="userSpaceOnUse"><stop stop-color="#0082F8"/><stop offset="1" stop-color="#1C40F2"/></linearGradient><linearGradient id="paint3_linear_1_232" x1="65.312" y1="76.211" x2="28.099" y2="48.54" gradientUnits="userSpaceOnUse"><stop/><stop offset="1"/></linearGradient><linearGradient id="paint4_linear_1_232" x1="75.671" y1="35.615" x2="-5.619" y2="45.211" gradientUnits="userSpaceOnUse"><stop offset=".49" stop-color="#E7E9E9"/><stop offset=".72" stop-color="#B1B4C3"/><stop offset=".9" stop-color="#8F92AA"/><stop offset=".99" stop-color="#8285A1"/></linearGradient><linearGradient id="paint5_linear_1_232" x1="9.047" y1="41.349" x2="8.675" y2="41.349" gradientUnits="userSpaceOnUse"><stop stop-color="#989AAD"/><stop offset="1" stop-color="#98A0B7"/></linearGradient><linearGradient id="paint6_linear_1_232" x1="56.422" y1="5.54" x2="20.667" y2="28.296" gradientUnits="userSpaceOnUse"><stop stop-color="#CDD3DB"/><stop offset="1" stop-color="#ACB0C2"/></linearGradient><linearGradient id="paint7_linear_1_232" x1="82.079" y1="42.802" x2="22.209" y2="67.373" gradientUnits="userSpaceOnUse"><stop stop-color="#CDD3DB"/><stop offset="1" stop-color="#ACB0C2"/></linearGradient><linearGradient id="paint8_linear_1_232" x1="48.214" y1="57.96" x2="106.73" y2="37.269" gradientUnits="userSpaceOnUse"><stop offset=".64" stop-color="#E7E9E9"/><stop offset=".8" stop-color="#B1B4C3"/><stop offset=".93" stop-color="#8F92AA"/><stop offset=".99" stop-color="#8285A1"/></linearGradient><linearGradient id="paint9_linear_1_232" x1="52.302" y1="42.242" x2="75.754" y2="47.035" gradientUnits="userSpaceOnUse"><stop stop-color="#102062"/><stop offset="1" stop-color="#060B43"/></linearGradient><linearGradient id="paint10_linear_1_232" x1="61.517" y1="53.842" x2="65.46" y2="54.453" gradientUnits="userSpaceOnUse"><stop stop-color="#102062"/><stop offset="1" stop-color="#060B43"/></linearGradient><linearGradient id="paint11_linear_1_232" x1="23.378" y1="32.186" x2="18.902" y2="30.905" gradientUnits="userSpaceOnUse"><stop stop-color="#001DAC"/><stop offset="1" stop-color="#000F57"/></linearGradient><linearGradient id="paint12_linear_1_232" x1="23.378" y1="41.319" x2="18.902" y2="40.039" gradientUnits="userSpaceOnUse"><stop stop-color="#001DAC"/><stop offset="1" stop-color="#000F57"/></linearGradient><linearGradient id="paint13_linear_1_232" x1="23.378" y1="50.203" x2="18.902" y2="48.923" gradientUnits="userSpaceOnUse"><stop stop-color="#001DAC"/><stop offset="1" stop-color="#000F57"/></linearGradient><linearGradient id="paint14_linear_1_232" x1="29.094" y1="36.071" x2="26.665" y2="35.762" gradientUnits="userSpaceOnUse"><stop stop-color="#001DAC"/><stop offset="1" stop-color="#000F57"/></linearGradient><linearGradient id="paint15_linear_1_232" x1="29.094" y1="44.872" x2="26.665" y2="44.564" gradientUnits="userSpaceOnUse"><stop stop-color="#001DAC"/><stop offset="1" stop-color="#000F57"/></linearGradient><linearGradient id="paint16_linear_1_232" x1="29.094" y1="53.673" x2="26.665" y2="53.365" gradientUnits="userSpaceOnUse"><stop stop-color="#001DAC"/><stop offset="1" stop-color="#000F57"/></linearGradient></defs></svg>