<svg width="101" height="100" fill="none" xmlns="http://www.w3.org/2000/svg"><g clip-path="url(#clip0_1_176)"><path d="M50.474 77.25L4.585 59.418v5.584l45.89 26.666V77.251z" fill="url(#paint0_linear_1_176)"/><path d="M96.28 65v-5.583L50.474 77.251v14.416L96.28 65.001z" fill="url(#paint1_linear_1_176)"/><path d="M4.585 59.5l45.89 26.584L96.28 59.501 50.474 32.75 4.585 59.5z" fill="url(#paint2_linear_1_176)"/><path opacity=".3" d="M18.795 62.917l31.68 18.417 31.678-18.417-31.679-18.416-31.68 18.416z" fill="url(#paint3_linear_1_176)"/><path d="M50.474 55.834l-31.68-16.5v14.667l31.68 18.416V55.834z" fill="url(#paint4_linear_1_176)"/><path d="M82.154 54V39.335l-31.68 16.5v16.667L82.154 54z" fill="url(#paint5_linear_1_176)"/><path d="M18.795 39.417l31.68 18.417 31.678-18.417-31.679-18.5-31.68 18.5z" fill="url(#paint6_linear_1_176)"/><path d="M55.322 62.917l7.774-4.5" stroke="url(#paint7_linear_1_176)" stroke-width=".997" stroke-linecap="round" stroke-linejoin="round"/><path fill-rule="evenodd" clip-rule="evenodd" d="M72.206 52.5c.669-.416 1.17-.083 1.17.667 0 .834-.501 1.667-1.17 2.084-.668.416-1.17.083-1.17-.667 0-.833.418-1.667 1.17-2.083zm5.1-2.916c.669-.417 1.17-.083 1.17.667 0 .833-.501 1.666-1.17 2.083-.669.417-1.17.083-1.17-.667 0-.833.418-1.583 1.17-2.083z" fill="#F70E28"/><path d="M50.474 35.084l-31.68-16.5v14.667l31.764 18.416-.084-16.583z" fill="url(#paint8_linear_1_176)"/><path d="M82.154 33.25V18.585l-31.68 16.417v16.666l31.68-18.416z" fill="url(#paint9_linear_1_176)"/><path d="M18.795 18.584l31.68 18.417 31.678-18.417L50.474.167l-31.68 18.417z" fill="url(#paint10_linear_1_176)"/><path d="M55.322 41.584l7.774-4.583" stroke="url(#paint11_linear_1_176)" stroke-width=".997" stroke-linecap="round" stroke-linejoin="round"/><path fill-rule="evenodd" clip-rule="evenodd" d="M72.206 31.084c.669-.417 1.17-.083 1.17.667 0 .833-.501 1.666-1.17 2.083-.668.417-1.17.083-1.17-.667 0-.833.418-1.583 1.17-2.083zm5.1-2.834c.669-.416 1.17-.083 1.17.667 0 .834-.501 1.667-1.17 2.084-.669.416-1.17.083-1.17-.667 0-.833.418-1.583 1.17-2.083z" fill="#F70E28"/></g><path d="M40.975 10.86l-.722.416 9.247 5.322-3.281 1.89-5.517-3.176-6.559 3.775 14.02 8.07c3.303 1.9 8.609 1.94 11.827.088l.722-.416-8.696-5.005 3.281-1.889 5.74 3.304 6.558-3.775-14.793-8.515c-3.303-1.902-8.609-1.941-11.827-.089zm16.75 15.913c-2.434.993-5.885.838-8.118-.447L46.9 24.768l3.671-2.113 7.154 4.118zm6.944-7.331L61 21.555l-5.74-3.304-9.84 5.664-8.35-4.806 3.67-2.114 5.518 3.176 9.84-5.664 8.572 4.935zm-10.054-5.788l-3.671 2.113-7.705-4.434c2.435-.994 5.885-.84 8.12.447l3.256 1.874z" fill="#9195A8"/><defs><linearGradient id="paint0_linear_1_176" x1="50.474" y1="84.835" x2="2.042" y2="73.549" gradientUnits="userSpaceOnUse"><stop stop-color="#001DAC"/><stop offset="1" stop-color="#000F57"/></linearGradient><linearGradient id="paint1_linear_1_176" x1="50.474" y1="61.777" x2="98.537" y2="68.291" gradientUnits="userSpaceOnUse"><stop stop-color="#18029D"/><stop offset="1" stop-color="#1C40F2"/></linearGradient><linearGradient id="paint2_linear_1_176" x1="4.585" y1="36.653" x2="100.044" y2="52.322" gradientUnits="userSpaceOnUse"><stop stop-color="#0082F8"/><stop offset="1" stop-color="#1C40F2"/></linearGradient><linearGradient id="paint3_linear_1_176" x1="70.005" y1="77.008" x2="31.81" y2="49.285" gradientUnits="userSpaceOnUse"><stop/><stop offset="1"/></linearGradient><linearGradient id="paint4_linear_1_176" x1="12.811" y1="55.876" x2="44.49" y2="55.876" gradientUnits="userSpaceOnUse"><stop stop-color="#989AAD"/><stop offset="1" stop-color="#98A0B7"/></linearGradient><linearGradient id="paint5_linear_1_176" x1="90.39" y1="55.917" x2="90.939" y2="55.917" gradientUnits="userSpaceOnUse"><stop stop-color="#E7E9E9"/><stop offset="1" stop-color="#98AACD"/></linearGradient><linearGradient id="paint6_linear_1_176" x1="69.979" y1="53.484" x2="31.784" y2="25.77" gradientUnits="userSpaceOnUse"><stop stop-color="#CDD3DB"/><stop offset="1" stop-color="#ACB0C2"/></linearGradient><linearGradient id="paint7_linear_1_176" x1="54.876" y1="60.667" x2="63.483" y2="60.667" gradientUnits="userSpaceOnUse"><stop stop-color="#FC2632"/><stop offset="1" stop-color="#F70E28"/></linearGradient><linearGradient id="paint8_linear_1_176" x1="12.797" y1="35.126" x2="44.56" y2="35.126" gradientUnits="userSpaceOnUse"><stop stop-color="#989AAD"/><stop offset="1" stop-color="#98A0B7"/></linearGradient><linearGradient id="paint9_linear_1_176" x1="90.39" y1="35.126" x2="90.939" y2="35.126" gradientUnits="userSpaceOnUse"><stop stop-color="#E7E9E9"/><stop offset="1" stop-color="#98AACD"/></linearGradient><linearGradient id="paint10_linear_1_176" x1="70.009" y1="32.673" x2="31.814" y2="4.958" gradientUnits="userSpaceOnUse"><stop stop-color="#CDD3DB"/><stop offset="1" stop-color="#ACB0C2"/></linearGradient><linearGradient id="paint11_linear_1_176" x1="54.876" y1="39.292" x2="63.483" y2="39.292" gradientUnits="userSpaceOnUse"><stop stop-color="#FC2632"/><stop offset="1" stop-color="#F70E28"/></linearGradient><clipPath id="clip0_1_176"><path fill="#fff" transform="translate(.322)" d="M0 0h100.304v100H0z"/></clipPath></defs></svg>