<svg width="92" height="92" fill="none" xmlns="http://www.w3.org/2000/svg"><path d="M46.119 77.295L.352 59.509v5.568l45.767 26.596V77.295z" fill="url(#paint0_linear_1_272)"/><path d="M91.886 65.077V59.51L46.12 77.295v14.378l45.767-26.596z" fill="url(#paint1_linear_1_272)"/><path d="M.352 59.509l45.767 26.596 45.767-26.596-45.767-26.596L.352 59.51z" fill="url(#paint2_linear_1_272)"/><path opacity=".3" d="M14.524 63.166l31.678 18.45 31.762-18.45-31.762-18.451-31.678 18.45z" fill="url(#paint3_linear_1_272)"/><path d="M63.876 26.098L32.865 8.146 32.78 43.55l30.845 18.285.25-35.738z" fill="url(#paint4_linear_1_272)"/><path d="M77.797 53.774V18.202l-14.172 8.062v35.572l14.172-8.062z" fill="url(#paint5_linear_1_272)"/><path d="M32.781 8.063l30.845 18.201 14.172-8.062L46.62.001 32.78 8.063z" fill="url(#paint6_linear_1_272)"/><path d="M71.212 31.583l4.335-2.493" stroke="url(#paint7_linear_1_272)" stroke-width=".9" stroke-linecap="round" stroke-linejoin="round"/><path d="M71.212 40.809l4.335-2.577" stroke="url(#paint8_linear_1_272)" stroke-width=".9" stroke-linecap="round" stroke-linejoin="round"/><path d="M71.212 49.702l4.335-2.493" stroke="url(#paint9_linear_1_272)" stroke-width=".9" stroke-linecap="round" stroke-linejoin="round"/><path fill-rule="evenodd" clip-rule="evenodd" d="M67.794 32.165c.583-.332 1.083-.083 1.083.665s-.416 1.496-1.083 1.912c-.584.332-1.084.083-1.084-.665.083-.748.417-1.413 1.084-1.912z" fill="url(#paint10_linear_1_272)"/><path fill-rule="evenodd" clip-rule="evenodd" d="M67.794 41.058c.583-.332 1.083-.083 1.083.665s-.416 1.496-1.083 1.912c-.584.332-1.084.083-1.084-.665.083-.748.417-1.496 1.084-1.912z" fill="url(#paint11_linear_1_272)"/><path fill-rule="evenodd" clip-rule="evenodd" d="M67.794 49.868c.583-.333 1.083-.083 1.083.665s-.416 1.496-1.083 1.911c-.584.333-1.084.084-1.084-.664.083-.748.417-1.497 1.084-1.912z" fill="url(#paint12_linear_1_272)"/><path d="M45.451 36.57L14.606 18.535v35.489L45.368 72.39l.083-35.821z" fill="url(#paint13_linear_1_272)"/><path d="M59.457 64.246V28.674L45.285 36.82v35.572l14.172-8.145z" fill="url(#paint14_linear_1_272)"/><path d="M14.606 18.535l30.679 18.284 14.172-8.145-31.012-18.118-13.839 7.979z" fill="url(#paint15_linear_1_272)"/><path d="M53.121 42.139l4.252-2.494" stroke="url(#paint16_linear_1_272)" stroke-width=".9" stroke-linecap="round" stroke-linejoin="round"/><path d="M53.121 51.281l4.252-2.493" stroke="url(#paint17_linear_1_272)" stroke-width=".9" stroke-linecap="round" stroke-linejoin="round"/><path d="M53.121 60.174l4.252-2.493" stroke="url(#paint18_linear_1_272)" stroke-width=".9" stroke-linecap="round" stroke-linejoin="round"/><path fill-rule="evenodd" clip-rule="evenodd" d="M49.62 42.72c.584-.332 1.084-.083 1.084.665-.084.748-.417 1.496-1.084 1.912-.584.332-1.084.083-1.084-.665.084-.748.417-1.496 1.084-1.912z" fill="url(#paint19_linear_1_272)"/><path fill-rule="evenodd" clip-rule="evenodd" d="M49.62 51.614c.584-.333 1.084-.084 1.084.664-.084.748-.417 1.496-1.084 1.912-.584.332-1.084.083-1.084-.665.084-.748.417-1.496 1.084-1.911z" fill="url(#paint20_linear_1_272)"/><path fill-rule="evenodd" clip-rule="evenodd" d="M49.62 60.423c.584-.332 1.084-.083 1.084.665-.084.748-.417 1.496-1.084 1.912-.584.332-1.084.083-1.084-.665.084-.831.417-1.496 1.084-1.912z" fill="url(#paint21_linear_1_272)"/><path d="M32.107 34.886l-.675-.388v9.75l-3.065-1.765v-5.816L22.24 33.14v14.782c0 3.483 2.446 7.724 5.453 9.454l.674.388v-9.168l3.065 1.764v6.051l6.127 3.527V44.34c0-3.483-2.446-7.724-5.452-9.455zm-5.089 20.476c-1.943-1.492-3.43-4.309-3.43-6.664v-2.853l3.43 1.974v7.543zm9.193 2.237l-3.43-1.974v-6.05l-9.192-5.292V35.48l3.43 1.974v5.816l9.192 5.291v9.04zm0-10.6l-3.43-1.975v-8.123c1.944 1.492 3.43 4.308 3.43 6.663v3.434z" fill="#7A8299"/><defs><linearGradient id="paint0_linear_1_272" x1="46.119" y1="84.859" x2="-2.185" y2="73.603" gradientUnits="userSpaceOnUse"><stop stop-color="#001DAC"/><stop offset="1" stop-color="#000F57"/></linearGradient><linearGradient id="paint1_linear_1_272" x1="91.886" y1="84.859" x2="43.583" y2="73.603" gradientUnits="userSpaceOnUse"><stop stop-color="#001DAC"/><stop offset="1" stop-color="#000F57"/></linearGradient><linearGradient id="paint2_linear_1_272" x1=".352" y1="36.805" x2="95.64" y2="52.461" gradientUnits="userSpaceOnUse"><stop stop-color="#0082F8"/><stop offset="1" stop-color="#1C40F2"/></linearGradient><linearGradient id="paint3_linear_1_272" x1="65.778" y1="77.258" x2="27.552" y2="49.514" gradientUnits="userSpaceOnUse"><stop/><stop offset="1"/></linearGradient><linearGradient id="paint4_linear_1_272" x1="26.957" y1="34.991" x2="58.052" y2="34.991" gradientUnits="userSpaceOnUse"><stop stop-color="#989AAD"/><stop offset="1" stop-color="#98A0B7"/></linearGradient><linearGradient id="paint5_linear_1_272" x1="81.451" y1="40.019" x2="81.697" y2="40.019" gradientUnits="userSpaceOnUse"><stop stop-color="#E7E9E9"/><stop offset="1" stop-color="#98AACD"/></linearGradient><linearGradient id="paint6_linear_1_272" x1="71.388" y1="24.747" x2="39.844" y2="1.85" gradientUnits="userSpaceOnUse"><stop stop-color="#CDD3DB"/><stop offset="1" stop-color="#ACB0C2"/></linearGradient><linearGradient id="paint7_linear_1_272" x1="71.212" y1="29.272" x2="75.722" y2="30.021" gradientUnits="userSpaceOnUse"><stop stop-color="#0082F8"/><stop offset="1" stop-color="#1C40F2"/></linearGradient><linearGradient id="paint8_linear_1_272" x1="71.212" y1="38.421" x2="75.73" y2="39.147" gradientUnits="userSpaceOnUse"><stop stop-color="#0082F8"/><stop offset="1" stop-color="#1C40F2"/></linearGradient><linearGradient id="paint9_linear_1_272" x1="71.212" y1="47.391" x2="75.722" y2="48.14" gradientUnits="userSpaceOnUse"><stop stop-color="#0082F8"/><stop offset="1" stop-color="#1C40F2"/></linearGradient><linearGradient id="paint10_linear_1_272" x1="66.71" y1="32.23" x2="69.015" y2="32.397" gradientUnits="userSpaceOnUse"><stop stop-color="#0082F8"/><stop offset="1" stop-color="#1C40F2"/></linearGradient><linearGradient id="paint11_linear_1_272" x1="66.71" y1="41.123" x2="69.015" y2="41.29" gradientUnits="userSpaceOnUse"><stop stop-color="#0082F8"/><stop offset="1" stop-color="#1C40F2"/></linearGradient><linearGradient id="paint12_linear_1_272" x1="66.71" y1="49.933" x2="69.015" y2="50.1" gradientUnits="userSpaceOnUse"><stop stop-color="#0082F8"/><stop offset="1" stop-color="#1C40F2"/></linearGradient><linearGradient id="paint13_linear_1_272" x1="8.785" y1="45.463" x2="39.677" y2="45.463" gradientUnits="userSpaceOnUse"><stop stop-color="#989AAD"/><stop offset="1" stop-color="#98A0B7"/></linearGradient><linearGradient id="paint14_linear_1_272" x1="63.098" y1="50.533" x2="63.344" y2="50.533" gradientUnits="userSpaceOnUse"><stop stop-color="#E7E9E9"/><stop offset="1" stop-color="#98AACD"/></linearGradient><linearGradient id="paint15_linear_1_272" x1="53.157" y1="35.239" x2="21.682" y2="12.392" gradientUnits="userSpaceOnUse"><stop stop-color="#CDD3DB"/><stop offset="1" stop-color="#ACB0C2"/></linearGradient><linearGradient id="paint16_linear_1_272" x1="53.121" y1="39.828" x2="57.55" y2="40.549" gradientUnits="userSpaceOnUse"><stop stop-color="#0082F8"/><stop offset="1" stop-color="#1C40F2"/></linearGradient><linearGradient id="paint17_linear_1_272" x1="53.121" y1="48.97" x2="57.55" y2="49.691" gradientUnits="userSpaceOnUse"><stop stop-color="#0082F8"/><stop offset="1" stop-color="#1C40F2"/></linearGradient><linearGradient id="paint18_linear_1_272" x1="53.121" y1="57.863" x2="57.55" y2="58.584" gradientUnits="userSpaceOnUse"><stop stop-color="#0082F8"/><stop offset="1" stop-color="#1C40F2"/></linearGradient><linearGradient id="paint19_linear_1_272" x1="48.536" y1="42.786" x2="50.842" y2="42.952" gradientUnits="userSpaceOnUse"><stop stop-color="#0082F8"/><stop offset="1" stop-color="#1C40F2"/></linearGradient><linearGradient id="paint20_linear_1_272" x1="48.536" y1="51.679" x2="50.842" y2="51.845" gradientUnits="userSpaceOnUse"><stop stop-color="#0082F8"/><stop offset="1" stop-color="#1C40F2"/></linearGradient><linearGradient id="paint21_linear_1_272" x1="48.536" y1="60.489" x2="50.842" y2="60.655" gradientUnits="userSpaceOnUse"><stop stop-color="#0082F8"/><stop offset="1" stop-color="#1C40F2"/></linearGradient></defs></svg>