<svg width="47" height="40" fill="none" xmlns="http://www.w3.org/2000/svg"><path d="M28.729 36.978l.8-1.41-.8 1.41zm-2.72-16.632l1.207 1.083-1.207-1.083zm9.342 2.79a1.621 1.621 0 10-2.594-1.947l2.594 1.946zm-4.54 3.35l-1.297-.973a1.622 1.622 0 00.784 2.512l.513-1.538zm6.486 2.163l1.298.973a1.622 1.622 0 00-.785-2.512l-.513 1.539zM32.757 32a1.622 1.622 0 102.594 1.946L32.757 32zm10.486-4.432a9.19 9.19 0 01-9.189 9.189V40c6.866 0 12.432-5.566 12.432-12.432h-3.243zm-9.189 9.189a9.14 9.14 0 01-4.525-1.19l-1.6 2.822A12.382 12.382 0 0034.054 40v-3.243zm-4.525-1.19a9.199 9.199 0 01-4.532-6.437l-3.197.547a12.444 12.444 0 006.129 8.712l1.6-2.822zm-4.532-6.437a9.26 9.26 0 01-.132-1.562h-3.243c0 .717.06 1.422.178 2.109l3.197-.547zm-.132-1.562c0-2.36.888-4.51 2.35-6.139l-2.412-2.167a12.392 12.392 0 00-3.181 8.306h3.243zm2.35-6.139a9.162 9.162 0 016.84-3.05v-3.244a12.405 12.405 0 00-9.252 4.127l2.413 2.167zm6.84-3.05a9.19 9.19 0 019.188 9.189h3.243c0-6.867-5.566-12.433-12.432-12.433v3.243zm-5.796 17.047c-2.694.814-6.35 1.33-10.421 1.33V40c4.313 0 8.297-.544 11.36-1.47l-.939-3.104zm-10.421 1.33c-4.352 0-8.225-.59-10.954-1.5-1.373-.457-2.367-.966-2.984-1.453-.636-.5-.657-.793-.657-.83H0c0 1.456.887 2.585 1.892 3.378 1.024.806 2.405 1.462 3.966 1.983C8.998 39.38 13.234 40 17.838 40v-3.243zM3.243 32.974v-8.649H0v8.649h3.243zm0-8.649v-8.648H0v8.648h3.243zm0-8.648v-8.65H0v8.649h3.243zm29.19-8.649c0 .037-.021.33-.657.83-.617.487-1.611.996-2.984 1.454-2.73.91-6.602 1.5-10.954 1.5v3.243c4.604 0 8.839-.62 11.98-1.666 1.561-.521 2.942-1.177 3.965-1.983 1.006-.793 1.893-1.922 1.893-3.378h-3.244zm-14.595 3.784c-4.352 0-8.225-.59-10.954-1.5-1.373-.458-2.367-.967-2.984-1.454-.636-.5-.657-.793-.657-.83H0c0 1.456.887 2.585 1.892 3.378 1.024.806 2.405 1.462 3.966 1.983 3.14 1.046 7.376 1.666 11.98 1.666v-3.243zM3.243 7.027c0-.036.021-.33.657-.83.617-.487 1.611-.996 2.984-1.454 2.729-.91 6.602-1.5 10.954-1.5V0c-4.604 0-8.84.62-11.98 1.666-1.561.521-2.942 1.177-3.966 1.983C.887 4.442 0 5.571 0 7.027h3.243zm14.595-3.784c4.352 0 8.225.59 10.954 1.5 1.372.458 2.366.967 2.984 1.454.636.5.656.794.656.83h3.244c0-1.456-.887-2.585-1.893-3.378-1.023-.806-2.404-1.462-3.966-1.983C26.677.62 22.442 0 17.837 0v3.243zM0 24.324c0 1.456.887 2.586 1.892 3.378 1.024.807 2.405 1.462 3.966 1.983 3.14 1.047 7.376 1.666 11.98 1.666v-3.243c-4.352 0-8.225-.59-10.954-1.5-1.373-.457-2.367-.967-2.984-1.453-.636-.501-.657-.794-.657-.83H0zm17.838 7.027c2.016 0 3.954-.118 5.756-.338l-.391-3.22a44.66 44.66 0 01-5.365.315v3.243zM0 15.676c0 1.456.887 2.585 1.892 3.377 1.024.807 2.405 1.463 3.966 1.983 3.14 1.047 7.376 1.667 11.98 1.667v-3.244c-4.352 0-8.225-.59-10.954-1.5-1.373-.457-2.367-.966-2.984-1.453-.636-.501-.657-.794-.657-.83H0zm17.838 7.027c3.073 0 5.97-.276 8.481-.765l-.62-3.184c-2.287.446-4.975.705-7.861.705v3.244zm14.919-1.514l-3.243 4.325 2.594 1.945 3.243-4.324-2.594-1.946zm-2.46 6.836l6.487 2.162 1.026-3.077-6.486-2.162-1.026 3.077zm5.703-.35L32.757 32l2.594 1.946 3.244-4.324L36 27.676zM32.432 7.028v9.73h3.244v-9.73h-3.244z" fill="url(#paint0_linear_73_1892)"/><defs><linearGradient id="paint0_linear_73_1892" x1="46.486" y1="40" x2="-7.364" y2="21.855" gradientUnits="userSpaceOnUse"><stop stop-color="#335EF7"/><stop offset="1" stop-color="#5F82FF"/></linearGradient></defs></svg>