<svg width="41" height="48" fill="none" xmlns="http://www.w3.org/2000/svg"><path d="M39.18 28.555a4.39 4.39 0 00-2.027-1.157 4.42 4.42 0 00-1.168-4.17 4.39 4.39 0 00-2.027-1.153 4.411 4.411 0 00-2.52-5.094l4.547-4.547a4.418 4.418 0 000-6.249 4.416 4.416 0 00-6.25 0L15.55 20.37l-.83-3.595a5.834 5.834 0 00-9.807-2.812 1.408 1.408 0 00-.413.997l.018 17.494L.412 36.56c-.55.55-.55 1.44 0 1.989l9.039 9.039c.263.264.621.412.994.412h13.086a5.89 5.89 0 004.19-1.736l11.459-11.46a4.419 4.419 0 000-6.25zm-7.456-3.338a1.606 1.606 0 112.272 2.273L30.8 30.684a1.606 1.606 0 11-2.272-2.272l3.196-3.196zm-5.185 1.207a1.609 1.609 0 01-2.272 0 1.608 1.608 0 010-2.272l4.26-4.26a1.606 1.606 0 112.272 2.272l-4.26 4.26zm-.807 17.85c-.58.58-1.382.913-2.2.913H11.027l-7.632-7.633L6.92 34.03c.265-.264.413-.622.412-.995l-.017-17.428a3.019 3.019 0 014.665 1.8l1.4 6.068c.06.261.193.494.376.677l1.066 1.066a6.133 6.133 0 010 8.664 1.406 1.406 0 101.989 1.989c3.485-3.485 3.485-9.156 0-12.641l-.071-.071L31.724 8.174a1.606 1.606 0 112.272 2.272L22.278 22.163a4.425 4.425 0 000 6.25 4.403 4.403 0 002.972 1.289 4.404 4.404 0 004.26 4.261 4.387 4.387 0 001.289 2.971c.395.396.852.706 1.35.924l-6.417 6.417zm11.46-11.459h-.001l-2.13 2.131a1.606 1.606 0 11-2.272-2.272l2.13-2.13a1.606 1.606 0 012.273 2.271z" fill="url(#paint0_linear_73_1899)"/><path d="M14.965 8.831c.777 0 1.407-.63 1.407-1.406V1.399c-.075-1.866-2.74-1.865-2.813 0v6.026c0 .777.63 1.406 1.406 1.406z" fill="url(#paint1_linear_73_1899)"/><path d="M7.944 8.42a1.406 1.406 0 101.989-1.99L8.426 4.925a1.406 1.406 0 10-1.989 1.99L7.944 8.42z" fill="url(#paint2_linear_73_1899)"/><path d="M21.985 8.42l1.506-1.507a1.407 1.407 0 00-1.989-1.989l-1.506 1.507a1.407 1.407 0 001.989 1.989z" fill="url(#paint3_linear_73_1899)"/><defs><linearGradient id="paint0_linear_73_1899" x1="40.475" y1="48" x2="-8.133" y2="34.768" gradientUnits="userSpaceOnUse"><stop stop-color="#335EF7"/><stop offset="1" stop-color="#5F82FF"/></linearGradient><linearGradient id="paint1_linear_73_1899" x1="16.372" y1="8.831" x2="12.774" y2="8.499" gradientUnits="userSpaceOnUse"><stop stop-color="#335EF7"/><stop offset="1" stop-color="#5F82FF"/></linearGradient><linearGradient id="paint2_linear_73_1899" x1="10.345" y1="8.832" x2="5.205" y2="7.341" gradientUnits="userSpaceOnUse"><stop stop-color="#335EF7"/><stop offset="1" stop-color="#5F82FF"/></linearGradient><linearGradient id="paint3_linear_73_1899" x1="23.903" y1="8.832" x2="18.764" y2="7.341" gradientUnits="userSpaceOnUse"><stop stop-color="#335EF7"/><stop offset="1" stop-color="#5F82FF"/></linearGradient></defs></svg>