<svg width="40" height="40" fill="none" xmlns="http://www.w3.org/2000/svg"><path d="M20 0C8.972 0 0 8.971 0 20c0 11.028 8.972 20 20 20 11.027 0 19.999-8.972 19.999-20S31.028 0 20 0zM2.018 20c0-2.607.56-5.083 1.557-7.318l8.578 23.5C6.155 33.269 2.018 27.118 2.018 20zM20 37.981c-1.765 0-3.468-.259-5.08-.733l5.396-15.677 5.528 15.143c.035.09.08.17.128.248A17.957 17.957 0 0120 37.983zm2.478-26.413a36.17 36.17 0 002.059-.172c.968-.114.855-1.538-.116-1.481 0 0-2.912.228-4.793.228-1.766 0-4.736-.228-4.736-.228-.97-.057-1.082 1.424-.114 1.481 0 0 .918.115 1.886.172l2.801 7.676-3.935 11.802-6.547-19.478a35.818 35.818 0 002.059-.171c.968-.114.854-1.539-.116-1.48 0 0-2.911.228-4.792.228-.338 0-.736-.01-1.157-.022C8.19 5.24 13.719 2.018 20 2.018c4.683 0 8.944 1.79 12.143 4.72-.078-.004-.153-.014-.234-.014-1.765 0-3.019 1.539-3.019 3.192 0 1.48.854 2.735 1.766 4.217.684 1.197 1.482 2.736 1.482 4.959 0 1.54-.59 3.325-1.368 5.813l-1.794 5.994-6.498-19.33zm6.562 23.974l5.492-15.88c1.027-2.565 1.368-4.616 1.368-6.441 0-.662-.043-1.276-.121-1.85A17.877 17.877 0 0137.982 20c0 6.633-3.597 12.426-8.942 15.543z" fill="url(#paint0_linear_73_1907)"/><defs><linearGradient id="paint0_linear_73_1907" x1="39.999" y1="40" x2="-7.596" y2="26.201" gradientUnits="userSpaceOnUse"><stop stop-color="#335EF7"/><stop offset="1" stop-color="#5F82FF"/></linearGradient></defs></svg>