<svg width="133" height="135" fill="none" xmlns="http://www.w3.org/2000/svg"><g opacity=".15"><path d="M65.678 128.638a2.68 2.68 0 01.588 1.946 2.653 2.653 0 01-.94 1.77 2.621 2.621 0 01-1.916.588c-1.39-.134-2.519-1.502-2.402-2.879.08-.694.427-1.347.955-1.783a2.658 2.658 0 011.916-.588 2.61 2.61 0 011.799.946z" fill="url(#paint0_linear_1932_622)"/><path d="M5.396 59.766a2.622 2.622 0 01-3.715-.358 2.635 2.635 0 01.352-3.715 2.648 2.648 0 013.715.358 2.635 2.635 0 01-.352 3.715zm8.561 10.37a2.63 2.63 0 01-3.702-.343 2.64 2.64 0 01.34-3.73c1.117-.923 2.79-.762 3.727.373.911 1.104.753 2.777-.365 3.7zm8.562 10.37a2.635 2.635 0 01-3.715-.359 2.623 2.623 0 01.352-3.715 2.635 2.635 0 013.715.358 2.648 2.648 0 01-.352 3.715zm8.56 10.369a2.635 2.635 0 01-3.714-.358 2.622 2.622 0 01.352-3.715 2.635 2.635 0 013.715.358 2.648 2.648 0 01-.352 3.715zm8.562 10.37a2.636 2.636 0 01-3.715-.358 2.635 2.635 0 01.352-3.716 2.648 2.648 0 013.715.358 2.648 2.648 0 01-.352 3.716zm8.548 10.354a2.623 2.623 0 01-3.714-.358 2.635 2.635 0 01.352-3.715 2.648 2.648 0 013.714.357 2.636 2.636 0 01-.352 3.716zm8.562 10.37a2.623 2.623 0 01-3.715-.358 2.636 2.636 0 01.352-3.716 2.649 2.649 0 013.715.358 2.636 2.636 0 01-.352 3.716z" fill="url(#paint1_linear_1932_622)"/><path d="M76.872 119.399a2.68 2.68 0 01.589 1.946 2.724 2.724 0 01-.953 1.754 2.67 2.67 0 01-1.931.601c-1.374-.147-2.491-1.499-2.388-2.892a2.7 2.7 0 01.956-1.782 2.655 2.655 0 011.916-.589 2.726 2.726 0 011.811.962z" fill="url(#paint2_linear_1932_622)"/><path d="M16.593 50.525a2.622 2.622 0 01-3.714-.358 2.635 2.635 0 01.352-3.715 2.648 2.648 0 013.714.358 2.635 2.635 0 01-.352 3.715zm8.562 10.37a2.618 2.618 0 01-3.702-.342 2.622 2.622 0 01.352-3.716 2.635 2.635 0 013.714.358c.912 1.104.753 2.777-.364 3.7zm8.56 10.37a2.635 2.635 0 01-3.714-.358 2.622 2.622 0 01.352-3.715 2.635 2.635 0 013.715.358 2.648 2.648 0 01-.352 3.715zm8.562 10.37a2.635 2.635 0 01-3.715-.358 2.622 2.622 0 01.352-3.716 2.635 2.635 0 013.715.358 2.648 2.648 0 01-.352 3.716zm8.561 10.37a2.622 2.622 0 01-3.715-.359 2.635 2.635 0 01.352-3.715 2.648 2.648 0 013.715.358 2.648 2.648 0 01-.352 3.715zm8.549 10.353a2.622 2.622 0 01-3.715-.358 2.634 2.634 0 01.352-3.715 2.648 2.648 0 013.715.358 2.634 2.634 0 01-.352 3.715zm8.56 10.37a2.623 2.623 0 01-3.714-.358 2.635 2.635 0 01.352-3.715 2.647 2.647 0 013.715.358 2.635 2.635 0 01-.352 3.715z" fill="url(#paint3_linear_1932_622)"/><path d="M87.688 110.438c.449.544.655 1.236.604 1.932a2.68 2.68 0 01-.943 1.798 2.67 2.67 0 01-1.929.573c-1.39-.134-2.506-1.486-2.387-2.892a2.65 2.65 0 01.94-1.769 2.66 2.66 0 011.931-.601c.722.084 1.347.43 1.784.959z" fill="url(#paint4_linear_1932_622)"/><path d="M27.422 41.582a2.635 2.635 0 01-3.715-.358 2.648 2.648 0 01.352-3.715 2.635 2.635 0 013.714.358 2.623 2.623 0 01-.351 3.715zm8.56 10.37a2.648 2.648 0 01-3.714-.358 2.635 2.635 0 01.352-3.715 2.622 2.622 0 013.715.357 2.635 2.635 0 01-.352 3.716zm8.562 10.37a2.648 2.648 0 01-3.715-.358 2.635 2.635 0 01.352-3.716 2.622 2.622 0 013.715.358 2.635 2.635 0 01-.352 3.715zm8.561 10.37a2.648 2.648 0 01-3.715-.359 2.635 2.635 0 01.352-3.715 2.622 2.622 0 013.715.358 2.635 2.635 0 01-.352 3.715zm8.561 10.369a2.648 2.648 0 01-3.714-.358 2.648 2.648 0 01.352-3.715 2.635 2.635 0 013.714.358 2.635 2.635 0 01-.352 3.715zm8.549 10.354a2.635 2.635 0 01-3.715-.358 2.648 2.648 0 01.352-3.715 2.635 2.635 0 013.715.358 2.622 2.622 0 01-.352 3.715zm8.561 10.37a2.636 2.636 0 01-3.715-.358 2.648 2.648 0 01.352-3.716 2.635 2.635 0 013.715.358 2.623 2.623 0 01-.352 3.716z" fill="url(#paint5_linear_1932_622)"/><path d="M98.885 101.199c.45.544.655 1.236.604 1.933-.08.693-.4 1.349-.943 1.798-.543.448-1.248.638-1.944.585-1.39-.134-2.506-1.486-2.388-2.891a2.7 2.7 0 01.956-1.783 2.613 2.613 0 011.916-.588 2.626 2.626 0 011.799.946z" fill="url(#paint6_linear_1932_622)"/><path d="M38.619 32.342a2.622 2.622 0 01-3.715-.358 2.648 2.648 0 01.352-3.715 2.648 2.648 0 013.715.358 2.635 2.635 0 01-.352 3.715zm8.561 10.37a2.635 2.635 0 01-3.715-.358 2.64 2.64 0 01.34-3.731c1.117-.923 2.79-.762 3.727.373a2.648 2.648 0 01-.352 3.715zm8.561 10.37a2.635 2.635 0 01-3.715-.359 2.622 2.622 0 01.352-3.715 2.635 2.635 0 013.715.358 2.648 2.648 0 01-.352 3.715zm8.561 10.369a2.635 2.635 0 01-3.714-.358 2.622 2.622 0 01.352-3.715 2.635 2.635 0 013.714.358 2.648 2.648 0 01-.352 3.715zm8.562 10.37a2.622 2.622 0 01-3.715-.358 2.635 2.635 0 01.352-3.716 2.648 2.648 0 013.715.358 2.648 2.648 0 01-.352 3.716zm8.548 10.354a2.622 2.622 0 01-3.715-.358 2.635 2.635 0 01.352-3.715 2.648 2.648 0 013.715.357 2.635 2.635 0 01-.352 3.716zm8.561 10.37a2.622 2.622 0 01-3.715-.359 2.635 2.635 0 01.352-3.715 2.648 2.648 0 013.715.358 2.635 2.635 0 01-.352 3.715z" fill="url(#paint7_linear_1932_622)"/><path d="M109.065 92.821c.436.529.655 1.237.604 1.933a2.702 2.702 0 01-.956 1.783 2.653 2.653 0 01-1.916.588c-1.374-.147-2.506-1.487-2.387-2.892a2.65 2.65 0 01.94-1.77 2.7 2.7 0 011.931-.6 2.709 2.709 0 011.784.958z" fill="url(#paint8_linear_1932_622)"/><path d="M48.783 23.948a2.635 2.635 0 01-3.715-.358 2.648 2.648 0 01.352-3.715 2.635 2.635 0 013.715.358 2.635 2.635 0 01-.352 3.715zm8.561 10.37c-1.117.923-2.79.761-3.727-.373a2.63 2.63 0 01.364-3.7 2.618 2.618 0 013.702.342c.937 1.135.779 2.808-.339 3.731zm8.561 10.37a2.648 2.648 0 01-3.714-.358 2.635 2.635 0 01.351-3.716 2.622 2.622 0 013.715.358 2.648 2.648 0 01-.352 3.716zm8.561 10.37a2.648 2.648 0 01-3.714-.359 2.635 2.635 0 01.352-3.715 2.622 2.622 0 013.714.358 2.648 2.648 0 01-.352 3.715zm8.562 10.369a2.635 2.635 0 01-3.715-.358 2.648 2.648 0 01.352-3.715 2.635 2.635 0 013.715.358 2.648 2.648 0 01-.352 3.715zm8.548 10.354a2.635 2.635 0 01-3.715-.358 2.648 2.648 0 01.352-3.715 2.635 2.635 0 013.715.358 2.635 2.635 0 01-.352 3.715zm8.561 10.37a2.63 2.63 0 01-3.702-.343c-.937-1.134-.778-2.808.34-3.73a2.64 2.64 0 013.727.373 2.63 2.63 0 01-.365 3.7z" fill="url(#paint9_linear_1932_622)"/><path d="M120.251 83.582c.437.529.656 1.237.589 1.946-.065.68-.4 1.35-.928 1.785a2.635 2.635 0 01-1.928.573c-1.39-.134-2.506-1.487-2.403-2.88.08-.692.4-1.349.943-1.797a2.587 2.587 0 011.928-.573c.709.069 1.35.402 1.799.946z" fill="url(#paint10_linear_1932_622)"/><path d="M59.97 14.709a2.622 2.622 0 01-3.714-.358 2.635 2.635 0 01.352-3.715 2.648 2.648 0 013.714.358 2.635 2.635 0 01-.352 3.715zm8.562 10.37a2.635 2.635 0 01-3.715-.358 2.64 2.64 0 01.339-3.731c1.117-.923 2.79-.761 3.727.373a2.648 2.648 0 01-.351 3.716zm8.56 10.37a2.635 2.635 0 01-3.714-.358 2.622 2.622 0 01.352-3.716 2.635 2.635 0 013.715.358 2.648 2.648 0 01-.352 3.715zm8.562 10.37a2.635 2.635 0 01-3.715-.359 2.622 2.622 0 01.352-3.715 2.635 2.635 0 013.715.358 2.648 2.648 0 01-.352 3.715zm8.561 10.369a2.622 2.622 0 01-3.715-.358 2.635 2.635 0 01.352-3.715 2.648 2.648 0 013.715.357 2.648 2.648 0 01-.352 3.716zm8.549 10.354a2.623 2.623 0 01-3.715-.358 2.635 2.635 0 01.352-3.715 2.647 2.647 0 013.714.358 2.635 2.635 0 01-.351 3.715zm8.561 10.37a2.623 2.623 0 01-3.715-.358 2.635 2.635 0 01.352-3.716 2.648 2.648 0 013.715.358 2.635 2.635 0 01-.352 3.716z" fill="url(#paint11_linear_1932_622)"/><path d="M131.074 74.621c.45.544.669 1.252.604 1.933a2.67 2.67 0 01-.927 1.785 2.683 2.683 0 01-1.944.586c-1.39-.134-2.506-1.487-2.388-2.892.065-.68.413-1.334.956-1.783a2.653 2.653 0 011.916-.588c.706.097 1.347.43 1.783.96z" fill="url(#paint12_linear_1932_622)"/><path d="M70.82 5.752a2.622 2.622 0 01-3.715-.358 2.635 2.635 0 01.352-3.715 2.648 2.648 0 013.715.358c.921 1.147.766 2.792-.352 3.715zm8.561 10.37a2.635 2.635 0 01-3.715-.358 2.622 2.622 0 01.352-3.716 2.635 2.635 0 013.715.358c.909 1.133.766 2.793-.352 3.716zm8.561 10.37a2.635 2.635 0 01-3.714-.359 2.622 2.622 0 01.352-3.715 2.635 2.635 0 013.714.358c.909 1.132.766 2.793-.352 3.715zm8.562 10.37a2.635 2.635 0 01-3.715-.359 2.622 2.622 0 01.352-3.715 2.635 2.635 0 013.715.358c.908 1.132.765 2.792-.352 3.715zm8.561 10.369a2.623 2.623 0 01-3.715-.358 2.635 2.635 0 01.352-3.715 2.648 2.648 0 013.715.357c.908 1.133.765 2.793-.352 3.716zm8.548 10.354a2.623 2.623 0 01-3.715-.358 2.635 2.635 0 01.352-3.715 2.648 2.648 0 013.715.358c.922 1.147.766 2.792-.352 3.715zm8.561 10.37a2.621 2.621 0 01-3.714-.358 2.634 2.634 0 01.352-3.716 2.647 2.647 0 013.714.358c.922 1.148.766 2.793-.352 3.716z" fill="url(#paint13_linear_1932_622)"/></g><defs><linearGradient id="paint0_linear_1932_622" x1="67.359" y1="130.675" x2="61.531" y2="133.013" gradientUnits="userSpaceOnUse"><stop stop-color="#FF0766"/><stop offset="1" stop-color="#FF7E5D"/></linearGradient><linearGradient id="paint1_linear_1932_622" x1="58.784" y1="120.29" x2="53.578" y2="124.418" gradientUnits="userSpaceOnUse"><stop stop-color="#FF0766"/><stop offset="1" stop-color="#FF7E5D"/></linearGradient><linearGradient id="paint2_linear_1932_622" x1="78.541" y1="121.42" x2="72.71" y2="123.758" gradientUnits="userSpaceOnUse"><stop stop-color="#FF0766"/><stop offset="1" stop-color="#FF7E5D"/></linearGradient><linearGradient id="paint3_linear_1932_622" x1="69.981" y1="111.049" x2="64.775" y2="115.177" gradientUnits="userSpaceOnUse"><stop stop-color="#FF0766"/><stop offset="1" stop-color="#FF7E5D"/></linearGradient><linearGradient id="paint4_linear_1932_622" x1="89.382" y1="112.49" x2="83.557" y2="114.835" gradientUnits="userSpaceOnUse"><stop stop-color="#FF0766"/><stop offset="1" stop-color="#FF7E5D"/></linearGradient><linearGradient id="paint5_linear_1932_622" x1="80.809" y1="102.106" x2="75.603" y2="106.234" gradientUnits="userSpaceOnUse"><stop stop-color="#FF0766"/><stop offset="1" stop-color="#FF7E5D"/></linearGradient><linearGradient id="paint6_linear_1932_622" x1="100.579" y1="103.251" x2="94.731" y2="105.598" gradientUnits="userSpaceOnUse"><stop stop-color="#FF0766"/><stop offset="1" stop-color="#FF7E5D"/></linearGradient><linearGradient id="paint7_linear_1932_622" x1="92.007" y1="92.866" x2="86.8" y2="96.994" gradientUnits="userSpaceOnUse"><stop stop-color="#FF0766"/><stop offset="1" stop-color="#FF7E5D"/></linearGradient><linearGradient id="paint8_linear_1932_622" x1="110.746" y1="94.858" x2="104.929" y2="97.195" gradientUnits="userSpaceOnUse"><stop stop-color="#FF0766"/><stop offset="1" stop-color="#FF7E5D"/></linearGradient><linearGradient id="paint9_linear_1932_622" x1="102.171" y1="84.472" x2="96.965" y2="88.6" gradientUnits="userSpaceOnUse"><stop stop-color="#FF0766"/><stop offset="1" stop-color="#FF7E5D"/></linearGradient><linearGradient id="paint10_linear_1932_622" x1="121.946" y1="85.635" x2="116.118" y2="87.987" gradientUnits="userSpaceOnUse"><stop stop-color="#FF0766"/><stop offset="1" stop-color="#FF7E5D"/></linearGradient><linearGradient id="paint11_linear_1932_622" x1="113.358" y1="75.233" x2="108.152" y2="79.361" gradientUnits="userSpaceOnUse"><stop stop-color="#FF0766"/><stop offset="1" stop-color="#FF7E5D"/></linearGradient><linearGradient id="paint12_linear_1932_622" x1="132.769" y1="76.673" x2="126.944" y2="79.018" gradientUnits="userSpaceOnUse"><stop stop-color="#FF0766"/><stop offset="1" stop-color="#FF7E5D"/></linearGradient><linearGradient id="paint13_linear_1932_622" x1="124.208" y1="66.276" x2="119.002" y2="70.404" gradientUnits="userSpaceOnUse"><stop stop-color="#FF0766"/><stop offset="1" stop-color="#FF7E5D"/></linearGradient></defs></svg>