<svg width="53" height="49" fill="none" xmlns="http://www.w3.org/2000/svg"><path d="M45.606 39.413c-7.636 9.62-22.61 7.24-26.082-4.76-.198-.596-.297-1.29-.397-1.885 8.033-1.785 15.868-7.636 16.562-14.677.595-6.347-5.851-8.231-10.115-4.661-5.058 4.264-8.628 10.512-8.926 17.156-5.157.694-10.214-.694-12.991-5.752-4.661-8.528 1.586-20.032 9.917-23.404.892-.298.496-1.686-.397-1.388C1.673 3.314-4.277 19.38 3.557 28.9c3.075 3.67 8.033 4.86 13.19 4.265.695 6.743 5.95 12.099 12.198 14.181 7.24 2.38 13.884-1.09 18.148-6.743.695-.893-.793-1.984-1.487-1.19zM23.392 19.38c1.587-2.182 3.67-4.661 6.347-5.553 2.578-.893 3.47 2.677 3.57 4.264.099 1.983-1.29 3.768-2.579 5.157-2.677 3.074-7.14 5.752-11.702 6.941.298-3.867 2.182-7.636 4.364-10.809z" fill="#001042"/><path d="M51.16 35.743c-2.777 0-5.653.198-8.33.893-1.09.297-.595 1.785.496 1.586 2.182-.396 4.462-.297 6.644-.198-.099 1.29-.198 2.678-.396 3.967-.199.992-.893 2.48-.298 3.47.298.497.793.497 1.29.298 1.19-.495 1.19-2.578 1.388-3.669.297-1.785.396-3.471.396-5.256 0-.595-.595-1.09-1.19-1.09z" fill="#001042"/></svg>