<svg width="126" height="41" fill="none" xmlns="http://www.w3.org/2000/svg"><g clip-path="url(#clip0_1_404)"><path d="M0 34.656C6.06 22.274 36.218 6.876 57.257 4.858c22.77-2.192 35.56 1.243 61.401 16.677-.298-2.017-.583-3.583-.734-5.183a34.407 34.407 0 01-.208-5.217c.027-.54.903-1.376 1.429-1.43a1.8 1.8 0 01.913.373c.27.21.488.494.633.826 1.335 4.873 2.57 9.781 3.76 14.707.126.332.179.695.155 1.058a2.505 2.505 0 01-.293 1.026 2.21 2.21 0 01-.675.767 1.892 1.892 0 01-.908.337c-5.851 1.318-11.671 2.728-17.55 3.905-1.389.28-2.882-.195-4.729-.357 1.665-4.182 4.827-3.533 7.149-4.558 2.468-1.088 5.089-1.687 8.217-2.672-6.643-5.615-14.134-9.839-22.122-12.474-28.46-9.588-55.293-4.206-80.746 12.75-3.314 2.217-6.4 4.856-9.626 7.247-.867.657-1.84 1.13-3.321 2.016z" fill="#EAEAEA"/></g><defs><clipPath id="clip0_1_404"><path fill="#fff" transform="rotate(2.872 -15.083 34.29)" d="M0 0h124.017v33.9H0z"/></clipPath></defs></svg>