<svg width="1920" height="1765" fill="none" xmlns="http://www.w3.org/2000/svg"><mask id="a" style="mask-type:alpha" maskUnits="userSpaceOnUse" x="0" y="0" width="1920" height="1765"><path fill="#C4C4C4" d="M0 0h1920v1765H0z"/></mask><g mask="url(#a)"><path d="M-702.267 2275.13L2270.3 194.129l-3037.267 45.679 64.7 2035.322z" fill="url(#paint0_linear_1576_7098)"/><path d="M-1005 2093.74l3496.39-802.9 111.45-1042.53L-240.249 49.915-1005 2093.74z" fill="url(#paint1_linear_1576_7098)"/><path d="M-679.865 2292.45L655.224-1077.03-1856 628.25l1176.135 1664.2z" fill="url(#paint2_linear_1576_7098)"/><path d="M2534.69 2247.83L-455.977 188.2H2534.69v2059.63z" fill="url(#paint3_linear_1576_7098)"/><path d="M3134 749.838L-455.977 188.2 2238.79-1106.01 3134 749.838z" fill="url(#paint4_linear_1576_7098)"/><path opacity=".8" d="M2471.87 2255.04c-55.87 78.41-797-351.85-1655.306-961.04C-41.739 684.812-692.258 127.504-636.393 49.098-580.528-29.31 160.61 400.95 1018.91 1010.14c858.31 609.19 1508.82 1166.54 1452.96 1244.9z" fill="url(#paint5_radial_1576_7098)"/><path opacity=".8" d="M2696.78 1562.88c24 119.21-793.72 383.57-1826.422 590.43-1032.7 206.86-1889.278 277.93-1913.248 158.72-24-119.21 793.721-383.56 1826.42-590.42 1032.66-206.86 1889.28-277.94 1913.25-158.73z" fill="url(#paint6_radial_1576_7098)"/><path opacity=".8" d="M-25.555 3117.08c-119.47 23.95-384.408-791.98-591.722-1822.42C-824.591 264.227-895.82-590.479-776.349-614.391c119.47-23.951 384.408 791.981 591.722 1822.421C22.687 2238.46 93.955 3093.17-25.555 3117.08z" fill="url(#paint7_radial_1576_7098)"/><g filter="url(#filter0_f_1576_7098)"><ellipse cx="960" cy="885.5" rx="1143" ry="1141.5" fill="#FAFAFA"/></g></g><defs><linearGradient id="paint0_linear_1576_7098" x1="788.303" y1="1241.49" x2="564.748" y2="882.74" gradientUnits="userSpaceOnUse"><stop stop-color="#CCC"/><stop offset=".026" stop-color="#D0D0D0" stop-opacity=".974"/><stop offset=".204" stop-color="#E5E5E5" stop-opacity=".796"/><stop offset=".404" stop-color="#F4F4F4" stop-opacity=".596"/><stop offset=".64" stop-color="#FCFCFC" stop-opacity=".36"/><stop offset="1" stop-color="#fff" stop-opacity="0"/></linearGradient><linearGradient id="paint1_linear_1576_7098" x1="885.175" y1="1675.07" x2="809.149" y2="1228.87" gradientUnits="userSpaceOnUse"><stop stop-color="#CCC"/><stop offset=".026" stop-color="#D0D0D0" stop-opacity=".974"/><stop offset=".204" stop-color="#E5E5E5" stop-opacity=".796"/><stop offset=".404" stop-color="#F4F4F4" stop-opacity=".596"/><stop offset=".64" stop-color="#FCFCFC" stop-opacity=".36"/><stop offset="1" stop-color="#fff" stop-opacity="0"/></linearGradient><linearGradient id="paint2_linear_1576_7098" x1="18.33" y1="620.451" x2="-403.587" y2="444.266" gradientUnits="userSpaceOnUse"><stop stop-color="#CCC"/><stop offset=".026" stop-color="#D0D0D0" stop-opacity=".974"/><stop offset=".204" stop-color="#E5E5E5" stop-opacity=".796"/><stop offset=".404" stop-color="#F4F4F4" stop-opacity=".596"/><stop offset=".64" stop-color="#FCFCFC" stop-opacity=".36"/><stop offset="1" stop-color="#fff" stop-opacity="0"/></linearGradient><linearGradient id="paint3_linear_1576_7098" x1="975.745" y1="1302.66" x2="1309.04" y2="857.288" gradientUnits="userSpaceOnUse"><stop stop-color="#CCC"/><stop offset=".026" stop-color="#D0D0D0" stop-opacity=".974"/><stop offset=".204" stop-color="#E5E5E5" stop-opacity=".796"/><stop offset=".404" stop-color="#F4F4F4" stop-opacity=".596"/><stop offset=".64" stop-color="#FCFCFC" stop-opacity=".36"/><stop offset="1" stop-color="#fff" stop-opacity="0"/></linearGradient><linearGradient id="paint4_linear_1576_7098" x1="1318.47" y1="572.849" x2="1425.92" y2="27.431" gradientUnits="userSpaceOnUse"><stop stop-color="#CCC"/><stop offset=".026" stop-color="#D0D0D0" stop-opacity=".974"/><stop offset=".204" stop-color="#E5E5E5" stop-opacity=".796"/><stop offset=".404" stop-color="#F4F4F4" stop-opacity=".596"/><stop offset=".64" stop-color="#FCFCFC" stop-opacity=".36"/><stop offset="1" stop-color="#fff" stop-opacity="0"/></linearGradient><radialGradient id="paint5_radial_1576_7098" cx="0" cy="0" r="1" gradientUnits="userSpaceOnUse" gradientTransform="matrix(1554.2364 1103.03658 -100.88322 142.14975 917.737 1152.08)"><stop stop-color="#F2F2F2"/><stop offset=".407" stop-color="#FAFAFA" stop-opacity=".593"/><stop offset="1" stop-color="#fff" stop-opacity="0"/></radialGradient><radialGradient id="paint6_radial_1576_7098" cx="0" cy="0" r="1" gradientUnits="userSpaceOnUse" gradientTransform="rotate(-11.328 10180.696 -3200.11) scale(1906.75 220.21)"><stop stop-color="#F2F2F2"/><stop offset=".407" stop-color="#FAFAFA" stop-opacity=".593"/><stop offset="1" stop-color="#fff" stop-opacity="0"/></radialGradient><radialGradient id="paint7_radial_1576_7098" cx="0" cy="0" r="1" gradientUnits="userSpaceOnUse" gradientTransform="matrix(375.37006 1865.5095 -216.32028 43.52707 -400.929 1251.36)"><stop stop-color="#F2F2F2"/><stop offset=".407" stop-color="#FAFAFA" stop-opacity=".593"/><stop offset="1" stop-color="#fff" stop-opacity="0"/></radialGradient><filter id="filter0_f_1576_7098" x="-683" y="-756" width="3286" height="3283" filterUnits="userSpaceOnUse" color-interpolation-filters="sRGB"><feFlood flood-opacity="0" result="BackgroundImageFix"/><feBlend in="SourceGraphic" in2="BackgroundImageFix" result="shape"/><feGaussianBlur stdDeviation="250" result="effect1_foregroundBlur_1576_7098"/></filter></defs></svg>