<svg width="703" height="374" fill="none" xmlns="http://www.w3.org/2000/svg"><path d="M281.045 182.796L16.5-1.001c-5-4.5-13.7-1.31-16 0l277.149 189.714c.531.318 1.132.46 1.698.46 1.167 0 2.335-.602 2.936-1.701.955-1.665.389-3.755-1.238-4.676z" fill="#0C8EF5"/><path d="M214.083 185.488l-.142 52.225c0 2.728 1.804 5.456 5.377 7.546l88.294 51.056c7.11 4.109 18.642 4.109 25.717 0l87.727-51.056c3.537-2.055 5.271-4.747 5.306-7.44l.142-52.224-212.421-.107z" fill="url(#paint0_linear_1567_1668)"/><path d="M421.161 178.083c7.11 4.11 7.146 10.806.071 14.952l-87.728 51.055c-7.074 4.11-18.606 4.11-25.717 0l-88.328-51.055c-7.111-4.11-7.181-10.807-.107-14.952l87.728-51.055c7.075-4.11 18.642-4.11 25.752 0l88.329 51.055z" fill="#0C8EF5"/><path fill-rule="evenodd" clip-rule="evenodd" d="M397.002 259.476l40.555 23.455c13.725 7.936 30.775 7.936 44.5 0l52.672-30.47c10.754-6.236 24.125-6.236 34.879 0l139.267 80.533v-7.866h.035l-135.836-78.549c-12.84-7.44-28.829-7.44-41.67 0l-52.672 30.47c-11.603 6.732-26.071 6.732-37.673 0l-37.399-21.625-6.658 4.052z" fill="#0C8EF5"/><path opacity=".6" d="M232-.001l.035 192.134c0 1.978 1.484 3.956 4.488 5.47l73.57 37.148c5.937 2.997 15.548 2.997 21.414 0l73.076-37.148c2.933-1.483 4.417-3.461 4.417-5.408L408.965.092 232-.001z" fill="url(#paint1_linear_1567_1668)"/><path d="M402.697 179.464c5.837 3.366 5.837 8.822.035 12.188L331.1 233.354c-5.766 3.366-15.175 3.366-21.012 0l-72.128-41.702c-5.836-3.366-5.872-8.822-.07-12.188l71.667-41.701c5.766-3.366 15.211-3.366 21.048 0l72.092 41.701z" fill="url(#paint2_linear_1567_1668)"/><path d="M306.927 402.721c0 4.287-2.193 8.113-5.907 10.239l-6.58 3.791h12.876c4.033-3.507 6.403-8.503 6.403-14.03 0-6.732-3.466-12.791-9.303-16.156l-100.604-58.177c-5.66-3.26-9.02-9.106-9.02-15.66 0-6.52 3.36-12.366 9.02-15.625L256 266.499c-3.5-2-2.427-1.541-4-2.5-.972-.592-.5.5-2.5-1.5s-49.084 28.722-49.084 28.722c-7.782 4.5-12.416 12.543-12.416 21.542 0 8.999 4.634 17.042 12.416 21.542l100.604 58.176c3.714 2.162 5.907 5.988 5.907 10.24z" fill="#0C8EF5"/><defs><linearGradient id="paint0_linear_1567_1668" x1="213.942" y1="242.455" x2="426.525" y2="242.455" gradientUnits="userSpaceOnUse"><stop offset=".404" stop-color="#0E4E9B"/><stop offset=".66" stop-color="#155EB5"/></linearGradient><linearGradient id="paint1_linear_1567_1668" x1="320" y1="-.001" x2="320.502" y2="237.009" gradientUnits="userSpaceOnUse"><stop stop-color="#001B9C" stop-opacity="0"/><stop offset="1" stop-color="#24D7FF"/></linearGradient><linearGradient id="paint2_linear_1567_1668" x1="320.307" y1="135.228" x2="320.307" y2="235.892" gradientUnits="userSpaceOnUse"><stop stop-color="#0061ED"/><stop offset=".168" stop-color="#036AEF"/><stop offset=".444" stop-color="#0983F3"/><stop offset=".792" stop-color="#14ABFA"/><stop offset="1" stop-color="#1CC6FF"/></linearGradient></defs></svg>