<svg width="330" height="15" fill="none" xmlns="http://www.w3.org/2000/svg"><path d="M303.277 5.317c-7.169-.616-14.341-1.12-21.524-1.675-2.366-.189-4.735-.253-7.102-.38l-15.418-.815c-2.87-.153-5.727-.33-8.586-.457l-2.455-.066-5.597-.152-25.457-.692c-2.013-.055-4.038-.11-6.053-.09L196.03.816c-5.648-.08-11.295-.195-16.933-.212L151.683.516c-5.281-.007-10.574-.077-15.857-.01l-27.34.349c-4.989.062-9.965.088-14.943.238l-28.286.794c-5.04.148-10.078.222-15.11.519L21.97 4.12l-6.09.355c-4.06.237-8.113.672-12.151 1.021l-.764.091c-.469.12-.899.36-1.247.698a2.938 2.938 0 00-.927 2.008c-.018.761.262 1.5.78 2.054a2.7 2.7 0 002.002.898c4.924-.412 9.752-.876 14.648-1.152l13.607-.796 14.837-.836c1.993-.12 3.987-.289 5.991-.346l23.087-.687 14.42-.414c1.978-.045 3.97-.14 5.949-.16l22.904-.27 13.884-.156c1.559.042 3.109-.052 4.669-.047l24.724.102 13.804.065c1.645.044 3.28-.01 4.913.022l25.526.396c5.303.144 10.596.189 15.898.345l27.003.734c1.78.048 3.558.171 5.336.281l14.997.929 11.198.639c2.636.158 5.282.428 7.93.637 7.782.645 15.552 1.29 23.284 1.996 1.973.178 3.945.38 5.929.583 1.984.203 4.227.412 6.331.718.326.058.656.129.989.212a3.265 3.265 0 002.39-.245 3.125 3.125 0 001.244-1.29 3.157 3.157 0 00-.348-3.432 3.105 3.105 0 00-1.477-1.009 27.304 27.304 0 00-4.339-.812l-2.999-.392c-1.921-.25-3.858-.402-5.793-.603-3.589-.37-7.218-.63-10.833-.94z" fill="#FF0766"/></svg>