<svg width="674" height="823" fill="none" xmlns="http://www.w3.org/2000/svg"><g style="mix-blend-mode:soft-light" fill="#fff"><path d="M234.724 774.245a73.918 73.918 0 011.649-5.081c3.115-8.539 10.294-17.014 21.943-25.908 10.417-7.953 24.27-16.117 42.351-24.959 33.73-16.495 76.916-32.769 122.639-49.999 53.072-20.002 107.953-40.684 153.692-63.814 51.87-26.231 83.363-51.561 96.287-77.438 38.818-77.738 14.56-206.055-4.933-309.161-7.234-38.266-14.069-74.412-16.444-102.234-2.641-30.896.424-48.973 9.645-56.892l.606.704c-8.974 7.71-11.937 25.537-9.326 56.106 2.372 27.776 9.201 63.898 16.431 102.142 17.266 91.319 38.266 202.407 15.918 280.833-2.918 10.24-6.569 19.906-11.067 28.915-6.89 13.794-19.222 27.656-36.659 41.2-15.609 12.126-35.249 24.115-60.041 36.652-45.784 23.153-100.687 43.845-153.784 63.855-45.701 17.222-88.865 33.489-122.556 49.964-18.027 8.815-31.828 16.948-42.196 24.864-11.504 8.783-18.581 17.12-21.633 25.488-9.598 26.313-3.787 56.177 17.768 91.295 18.984 30.927 47.021 61.358 74.137 90.787l.427.463c30.498 33.1 65.689 72.443 95.472 113.253 30.888 42.32 52.393 81.32 65.746 119.23 14.115 40.07 20.477 80.34 18.911 119.7-1.519 38.17-10.434 74.47-26.492 107.88a233.242 233.242 0 01-24.197 39.65c-8.972 11.84-19.323 23.1-30.768 33.47-21.58 19.54-47.189 36.33-78.289 51.32-62.384 30.09-137.637 47.81-203.022 61.18l-.188-.91c132.337-27.06 278.326-65.91 335.624-185.11 32.548-67.72 35.228-148.28 7.542-226.87-30.205-85.74-98.956-164.8-161.026-232.163l-.427-.465c-27.145-29.462-55.216-59.927-74.245-90.932-10.323-16.821-16.913-32.028-20.141-46.494-3.182-14.254-2.962-27.861.646-40.521z"/><path d="M244.198 776.131a82.093 82.093 0 013.5-9.839c3.936-9.191 11.478-18.43 23.058-28.241 10.363-8.782 23.813-17.88 41.117-27.813 32.279-18.529 72.878-37.041 115.858-56.64 46.941-21.403 95.482-43.537 137.363-67.626 32.821-18.876 72.689-44.283 89.823-73.425 37.847-64.362 31.936-162.962 21.159-250.927-1.835-14.993-3.82-29.75-5.738-44.021-4.698-34.95-9.136-67.964-9.911-94.056-.865-29.038 2.881-46.728 11.786-55.669l.621.617c-8.724 8.758-12.387 26.244-11.532 55.026.774 26.045 5.208 59.037 9.903 93.965 1.92 14.274 3.901 29.034 5.741 44.031 4.647 37.945 9.713 87.555 7.62 134.785-1.026 23.108-3.743 44.195-8.074 62.679-4.816 20.538-11.817 38.712-20.816 54.013-7.41 12.601-19.138 25.104-35.854 38.223-13.961 10.959-31.212 22.242-54.288 35.517-41.92 24.112-90.477 46.253-137.438 67.665-42.963 19.59-83.542 38.093-115.787 56.602-36.169 20.762-56.444 38.443-63.808 55.64-20.951 48.931 12.722 100.222 48.422 143.943 10.847 13.226 22.295 26.108 33.09 38.171 42.017 46.889 79.138 89.349 107.933 134.199 10.475 16.39 19.532 33.02 26.925 49.4 7.371 16.35 13.345 33.04 17.763 49.63 6.368 23.9 10.017 48.29 10.848 72.49.947 25.67-1.51 51.24-7.303 75.97-5.659 24.17-14.531 47.7-26.37 69.93-7.712 14.56-16.948 28.55-27.452 41.57-9.967 12.37-21.427 24.29-34.06 35.46-25.702 22.78-56.036 42.65-92.732 60.74-31.047 15.31-67.18 29.52-110.463 43.45a1892.253 1892.253 0 01-56.047 17.1l-.244-.84a1921.667 1921.667 0 0056.021-17.09c92.869-29.89 155.44-61.97 202.884-104.02 26.124-23.09 46.181-48.2 61.318-76.78 24.164-45.37 35.457-94.31 33.571-145.45-.828-24.14-4.468-48.47-10.818-72.31-8.916-33.47-23.498-65.78-44.579-98.78-28.76-44.79-65.858-87.226-107.847-134.087-10.802-12.07-22.255-24.961-33.115-38.202-23.46-28.73-38.328-52.062-46.789-73.426-8.892-22.447-10.637-42.701-5.259-61.574z"/><path d="M253.278 778.325c1.438-5.045 3.351-10.003 5.747-14.9 4.941-10.096 13.058-20.36 24.824-31.384 10.535-9.872 23.837-20.188 40.662-31.535 31.387-21.167 70.053-42.557 110.988-65.201 37.472-20.729 76.218-42.162 111.738-64.785 38.496-24.518 71.789-46.894 89.322-72.467 43.14-62.917 43.893-157.585 39.73-233.028-.917-16.582-2.121-32.934-3.288-48.746-4.665-63.279-8.694-117.93 9.883-139.291l.622.539c-18.351 21.105-14.334 75.595-9.681 138.692 1.166 15.817 2.372 32.172 3.288 48.763 2.779 50.362 1.931 90.058-2.67 124.93-2.811 21.317-7.126 40.879-12.823 58.146-6.286 19.058-14.489 36.038-24.379 50.462-8.049 11.738-20.228 23.832-37.233 36.975-14.618 11.295-31.49 22.451-52.329 35.721-35.54 22.636-74.3 44.075-111.781 64.811-40.919 22.637-79.569 44.015-110.927 65.163-35.205 23.741-55.927 43.631-65.207 62.6-19.294 39.428-7.428 83.518 38.473 142.953 10.635 13.774 22.206 27.217 32.218 38.736 2.785 3.196 5.571 6.39 8.357 9.58 35.176 40.3 71.549 81.971 98.002 125.611 19.259 31.77 31.576 64.08 37.66 98.78 3.984 22.72 5.4 45.48 4.33 69.58-1.079 24.33-5.329 48.67-12.634 72.37-7.066 22.93-17.08 45.56-29.764 67.25-16.059 27.46-36.502 52.34-62.498 76.05-25.578 23.46-54.697 44.54-89.017 64.44-29.34 17.01-62.782 33.27-102.237 49.71-16.15 6.73-33.564 13.91-51.481 20.82l-.296-.76c17.908-6.91 35.314-14.09 51.459-20.82 84.556-35.24 143.468-70.39 191.016-113.99 25.935-23.66 46.327-48.48 62.343-75.86 25.926-44.34 40.153-91.19 42.285-139.24 1.067-24.04-.345-46.75-4.32-69.41-6.065-34.59-18.351-66.81-37.552-98.49-26.417-43.58-62.767-85.227-97.919-125.499-2.786-3.192-5.572-6.384-8.359-9.583-10.019-11.528-21.597-24.981-32.249-38.773-21.927-28.391-35.358-51.789-42.274-73.637-6.261-19.794-6.948-38.022-2.029-55.283z"/><path d="M261.823 781.105c1.982-6.954 4.824-13.787 8.527-20.541 6.422-11.706 15.731-23.758 28.456-36.844 11.405-11.727 25.378-24.085 42.719-37.785 32.353-25.556 71.282-51.703 112.495-79.385 24.789-16.65 50.422-33.866 75.361-51.48 4.83-3.412 9.693-6.807 14.396-10.093 29.637-20.699 57.627-40.252 74.427-61.41 36.985-46.586 56.056-116.955 58.305-215.133.424-18.469.299-36.759.181-54.446-.382-56.396-.712-105.099 16.869-127.893l.608.468c-17.421 22.584-17.093 71.165-16.713 127.416.119 17.692.243 35.986-.18 54.468-1.02 44.541-5.276 82.173-13.005 115.047-4.59 19.518-10.504 37.558-17.579 53.623-7.74 17.577-17.123 33.363-27.888 46.922-16.869 21.247-44.904 40.831-74.587 61.563-4.702 3.284-9.563 6.679-14.392 10.089-24.948 17.619-50.584 34.839-75.377 51.49-41.2 27.673-80.117 53.812-112.448 79.35-36.314 28.687-58.868 52.327-70.975 74.394-22.242 40.544-13.445 84.327 28.52 141.965 10.038 13.786 20.999 27.037 31.347 39.299 5.323 6.285 10.761 12.647 16.02 18.801 32.068 37.523 65.228 76.32 88.766 117.38 9.546 16.66 16.684 33.15 21.821 50.42 4.595 15.44 7.477 31.18 8.809 48.11 1.67 21.21.954 43.02-2.186 66.67-5.964 44.94-23.163 89.8-51.118 133.34-16.72 26.04-37.488 50.6-63.486 75.08-47.461 45-104.44 84.44-179.314 124.1-2.691 1.43-5.379 2.86-8.073 4.29-12.643 6.71-25.716 13.66-38.839 20.26l-.346-.69c13.114-6.59 26.184-13.54 38.824-20.25 2.694-1.43 5.383-2.86 8.073-4.28 74.811-39.64 131.736-79.03 179.147-123.99 25.953-24.43 46.679-48.94 63.365-74.93 27.894-43.45 45.053-88.2 51.002-133.02 3.132-23.61 3.847-45.36 2.181-66.51-2.798-35.55-12.5-66.76-30.531-98.21-23.502-41-56.638-79.772-88.683-117.268-5.259-6.154-10.697-12.516-16.021-18.805-10.357-12.274-21.329-25.537-31.381-39.342-20.208-27.756-32.533-51.913-37.678-73.853-3.982-16.994-3.807-32.986.581-48.387z"/><path d="M269.705 784.636c2.588-9.081 6.571-18.029 11.97-26.934 40.225-66.346 131.678-141.018 229.848-218.087 10.425-8.185 21.032-15.958 31.289-23.476 21.816-15.988 42.421-31.089 57.027-47.06 41.175-45.023 67.042-111.384 76.886-197.244 2.362-20.616 3.728-41.193 5.05-61.092 1.613-24.314 3.137-47.28 6.3-67.116 3.543-22.231 8.68-37.619 16.166-48.425l.587.406c-16.252 23.461-19.073 65.968-22.34 115.184-1.322 19.908-2.687 40.492-5.053 61.127-9.86 86.012-35.789 152.508-77.067 197.644-14.652 16.023-35.287 31.145-57.134 47.155-10.253 7.515-20.854 15.285-31.27 23.462-98.118 77.028-189.516 151.653-229.677 217.897-25.352 41.811-19.626 85.291 18.566 140.98 9.88 14.408 20.949 28.237 30.475 39.864 6.887 8.371 13.971 16.812 20.822 24.978 29.987 35.736 60.995 72.691 82.39 112.201 16.955 31.31 24.454 62.54 23.598 98.28-.477 19.85-3.241 40.11-8.699 63.76-4.965 21.5-12.761 43.43-23.177 65.17-9.725 20.3-22.059 41.12-36.659 61.88-17.13 24.36-37.616 47.9-64.473 74.11-25.833 25.2-52.548 48.7-81.671 71.84-26.708 21.22-54.742 41.57-85.706 62.21-4.832 3.22-9.733 6.53-14.47 9.73-9.08 6.12-18.471 12.46-27.876 18.53l-.387-.6c9.399-6.07 18.787-12.4 27.863-18.53 4.74-3.19 9.639-6.5 14.473-9.72 63.667-42.45 118.382-86.27 167.275-133.98 26.824-26.17 47.283-49.68 64.389-74 30.5-43.36 50.035-84.84 59.724-126.81 5.449-23.6 8.208-43.82 8.682-63.62.853-35.6-6.618-66.72-23.511-97.91-21.362-39.45-52.345-76.38-82.31-112.086-6.854-8.166-13.937-16.609-20.827-24.984-9.536-11.639-20.617-25.484-30.513-39.913-18.895-27.556-29.702-51.78-33.032-74.057-2.103-14.039-1.296-27.541 2.472-40.764z"/><path d="M276.787 789.003c3.246-11.392 8.633-22.72 16.211-34.154 26.653-40.224 53.297-76.035 81.451-109.478 36.312-43.134 75.308-82.781 119.218-121.207 14.284-12.501 29.407-23.701 44.032-34.531 16.161-11.968 31.426-23.272 43.777-35.035 58.112-55.345 83.993-128.082 95.472-179.357 5.142-22.976 8.502-46.232 11.752-68.725 2.986-20.673 5.807-40.201 9.756-57.639 4.437-19.59 9.67-33.756 16.469-44.577l.559.353c-14.806 23.56-20.306 61.641-26.13 101.96-3.251 22.505-6.612 45.775-11.761 68.773-7.625 34.061-18.987 66.077-33.769 95.157-16.732 32.917-37.556 61.36-61.89 84.533-12.38 11.791-27.661 23.107-43.838 35.088-14.614 10.823-29.726 22.014-43.991 34.496-101.94 89.212-163.282 174.307-200.554 230.552-29.019 43.792-26.445 85.661 8.611 139.997 9.698 15.035 20.917 29.503 29.606 40.43 7.905 9.895 16.11 19.839 24.044 29.455 28.466 34.504 57.903 70.186 77.594 108.716 8.755 17.13 14.222 33.94 16.719 51.39 2.111 14.75 2.057 30-.161 46.63-3.142 23.56-9.78 44.89-15.214 60.85-13.013 38.22-35.436 77.73-68.55 120.78-21.779 28.32-46.427 53.96-65.463 73.14-55.246 55.64-106.094 102.75-155.445 144-5.546 4.64-11.127 9.41-16.522 14.03-6.924 5.92-14.087 12.05-21.256 17.95l-.42-.51c7.166-5.9 14.325-12.02 21.246-17.94 5.395-4.62 10.976-9.4 16.528-14.03 49.333-41.24 100.164-88.33 155.397-143.97 19.026-19.16 43.651-44.78 65.409-73.07 33.071-43 55.46-82.44 68.45-120.59 5.424-15.93 12.051-37.23 15.184-60.72 4.714-35.36-.527-66.39-16.496-97.64-19.655-38.47-49.069-74.117-77.514-108.595-7.936-9.618-16.143-19.566-24.051-29.464-8.7-10.94-19.93-25.426-29.644-40.484-17.684-27.414-26.958-51.699-28.345-74.245-.676-10.921.488-21.648 3.529-32.319z"/><path d="M282.936 794.018a107.1 107.1 0 013.293-9.724c4.115-10.512 10.031-21.078 18.087-32.299 16.439-22.901 30.884-47.458 46.177-73.457 15.689-26.675 31.915-54.26 51.852-82.753 22.635-32.347 46.666-60.83 73.467-87.075 17.002-16.65 36.269-30.597 54.904-44.087 11.608-8.403 22.572-16.34 32.393-24.502 51.804-43.05 92.312-100.396 114.06-161.473 9.073-25.477 15.006-51.887 20.743-77.432 7.516-33.459 14.615-65.062 27.693-87.816l.528.302c-13.034 22.675-20.123 54.236-27.628 87.647-5.742 25.562-11.681 51.993-20.764 77.504-10.441 29.32-25.296 57.964-44.158 85.136-19.981 28.784-43.561 54.556-70.086 76.601-9.837 8.176-20.809 16.118-32.425 24.528-18.616 13.476-37.865 27.411-54.833 44.028-59.913 58.671-94.609 117.658-125.221 169.704-15.299 26.011-29.75 50.579-46.206 73.501-32.971 45.928-33.361 86.204-1.349 139.016 9.42 15.545 20.307 30.073 28.736 40.996 8.59 11.073 17.592 22.164 26.3 32.889 27.291 33.616 55.511 68.378 73.762 106.278 8.402 17.45 13.041 34.41 14.186 51.88.952 14.53-.573 29.54-4.663 45.88-5.307 21.22-13.959 41.19-21.725 57.94-8.684 18.73-19.699 37.69-33.674 57.98-11.915 17.3-26.173 35.79-43.59 56.52-20.443 24.35-43.093 47.89-64.998 70.66l-1.456 1.51c-28.754 29.89-55.445 58.93-81.255 87-21.451 23.33-41.715 45.37-62.259 66.96-5.64 5.92-11.248 12.02-16.67 17.91-5.387 5.86-10.958 11.92-16.541 17.79l-.442-.42c5.579-5.86 11.148-11.92 16.534-17.77 5.425-5.9 11.036-12 16.679-17.93 20.543-21.58 40.803-43.62 62.252-66.95 25.813-28.08 52.505-57.11 81.265-87.01l1.457-1.51c21.897-22.76 44.54-46.3 64.969-70.62 37.276-44.39 61.078-79.66 77.178-114.38 7.754-16.71 16.393-36.66 21.687-57.82 8.843-35.35 5.918-65.38-9.481-97.36-18.221-37.83-46.419-72.566-73.687-106.153-8.71-10.728-17.714-21.82-26.309-32.899-8.44-10.936-19.339-25.482-28.776-41.053-8.446-13.935-14.457-26.743-18.376-39.16-3.869-12.265-5.589-23.797-5.251-35.255.23-7.857 1.422-15.534 3.621-23.252z"/><path d="M288.283 799.108c1.712-6.007 4.053-12.041 7.058-18.211 4.856-9.967 11.496-20.356 20.296-31.754 23.816-30.843 38.083-65.549 53.189-102.29 10.05-24.446 20.444-49.723 34.283-75.486 15.675-29.179 33.617-54.729 54.851-78.112 18.933-20.847 42.556-37.033 65.4-52.684 7.488-5.13 14.559-9.977 21.381-14.925 60.087-43.59 107.198-94.585 132.656-143.588 14.539-27.984 23.638-58.174 32.438-87.37 7.999-26.532 15.552-51.59 26.459-72.194l.489.258c-10.88 20.556-18.428 45.591-26.415 72.095-8.808 29.22-17.916 59.435-32.478 87.465-12.86 24.755-31.205 50.012-54.524 75.071-22.622 24.311-48.964 47.427-78.298 68.709-6.826 4.954-13.901 9.8-21.393 14.933-22.818 15.635-46.413 31.802-65.303 52.6-47.414 52.208-68.571 103.671-89.032 153.437-15.122 36.778-29.403 71.516-53.265 102.418-31.042 40.202-44.845 79.063-11.309 138.037 7.116 12.512 15.711 25.33 27.867 41.563 9.053 12.025 18.644 24.026 27.918 35.632 26.338 32.95 53.571 67.028 70.568 104.528 8.064 17.79 11.878 34.92 11.661 52.35-.18 14.39-3.182 29.16-9.181 45.15-7.529 20.07-18.077 38.18-28.236 55.02-21.115 34.99-49.639 68.58-85.972 108.23-12.177 13.3-24.968 26.63-37.339 39.52-9.893 10.31-20.122 20.98-30.109 31.69-45.692 49-82.131 97.75-117.371 144.9-4.672 6.25-9.507 12.72-14.224 19-5.394 7.18-10.688 14.56-15.806 21.7-4.181 5.83-8.504 11.86-12.84 17.72l-.445-.33c4.335-5.86 8.656-11.88 12.835-17.71 5.121-7.14 10.413-14.52 15.814-21.71 4.716-6.28 9.549-12.75 14.224-19 35.247-47.16 71.695-95.92 117.408-144.95 9.99-10.71 20.22-21.38 30.115-31.69 12.368-12.89 25.158-26.22 37.332-39.51 36.309-39.63 64.815-73.19 85.907-108.15 10.145-16.81 20.68-34.9 28.192-54.93 13.008-34.67 12.247-64.61-2.467-97.08-16.967-37.43-44.179-71.48-70.495-104.405-9.278-11.609-18.872-23.61-27.929-35.644-12.173-16.252-20.779-29.088-27.906-41.622-8.022-14.108-13.427-27.065-16.53-39.614-2.992-12.104-3.76-23.539-2.35-34.952a92.815 92.815 0 012.876-14.115z"/><path d="M292.823 804.05c6.251-21.938 20.639-41.409 34.137-57.756 28.701-34.763 38.371-75.246 48.612-118.104 5.752-24.079 11.702-48.978 21.307-74.212 10.869-28.556 25.013-53.474 43.238-76.179 20.304-25.296 49.02-43.28 76.789-60.674 3.122-1.955 6.349-3.976 9.469-5.951 74.625-47.218 124.102-88.334 151.259-125.7 21.971-30.231 34.721-65.056 47.049-98.733 7.181-19.62 13.966-38.153 22.306-55.156l.45.22c-8.326 16.978-15.108 35.5-22.285 55.107-12.34 33.709-25.101 68.564-47.113 98.854-14.831 20.407-36.65 42.272-64.848 64.987-23.68 19.076-51.992 38.977-86.547 60.844-3.12 1.974-6.347 3.996-9.469 5.95-27.734 17.371-56.414 35.332-76.665 60.562-40.668 50.663-52.757 101.262-64.448 150.195-10.255 42.916-19.94 83.453-48.713 118.306-36.292 43.959-51.409 80.477-21.274 137.06 6.769 12.71 15.349 26.098 26.999 42.128 9.363 12.822 19.397 25.569 29.098 37.895 25.537 32.445 51.946 65.997 67.813 103.247 7.735 18.16 10.727 35.45 9.149 52.86-1.298 14.3-5.781 28.82-13.706 44.38-9.301 18.26-21.239 34.4-34.747 52.11-23.723 31.09-53.317 60.65-84.651 91.94-3.327 3.32-6.672 6.66-10.028 10.03-3.978 3.98-8.046 8.04-11.978 11.95-18.749 18.69-38.135 38.01-56.466 58.29-51.603 57.09-86.21 116.45-119.677 173.86-4.936 8.46-9.702 17.14-14.311 25.53-3.18 5.78-6.467 11.77-9.77 17.61l-.436-.25c3.302-5.84 6.588-11.82 9.767-17.6 4.61-8.4 9.379-17.07 14.317-25.55 16.435-28.18 33.428-57.33 52.86-86.72 21.932-33.16 43.808-61.69 66.879-87.21 18.339-20.29 37.73-39.62 56.483-58.31 3.933-3.92 8.001-7.97 11.978-11.96 3.356-3.36 6.701-6.7 10.029-10.02 31.32-31.28 60.907-60.83 84.608-91.9 13.492-17.68 25.415-33.8 34.698-52.03 17.239-33.85 18.641-63.71 4.543-96.81-15.841-37.2-42.229-70.719-67.746-103.138-9.705-12.332-19.743-25.083-29.111-37.911-11.664-16.051-20.255-29.457-27.036-42.187-7.617-14.299-12.415-27.404-14.674-40.063-2.131-11.954-1.948-23.282.562-34.637.377-1.73.814-3.45 1.3-5.154z"/><path d="M296.788 808.036c.269-.944.555-1.887.86-2.829 6.565-20.384 20.414-38.744 40.629-61.758 32.834-37.381 36.414-82.22 40.203-129.691 1.942-24.331 3.95-49.489 9.941-74.905 6.777-28.754 17.851-53.779 33.852-76.51 9.141-12.986 21.732-25.098 38.49-37.025 14.881-10.592 31.497-19.941 47.241-28.607 7.755-4.269 15.7-8.604 23.385-12.796 55.724-30.394 113.347-61.825 146.48-95.013 31.716-31.769 48.31-72.435 64.355-111.761 4.938-12.102 10.044-24.616 15.455-36.463l.406.186c-5.406 11.838-10.511 24.348-15.447 36.446-16.064 39.366-32.675 80.073-64.453 111.907-14.887 14.913-35.974 30.749-64.47 48.412-25.405 15.747-54.233 31.471-82.112 46.678-7.684 4.192-15.629 8.525-23.383 12.793-35.263 19.413-66.042 37.741-85.583 65.499-35.689 50.7-39.766 101.788-43.71 151.193-3.794 47.547-7.38 92.458-40.313 129.95-36.992 42.115-60.888 76.53-31.239 136.08 6.509 13.073 14.81 26.64 26.132 42.697 9.56 13.503 19.931 26.88 29.962 39.817 24.849 32.051 50.542 65.194 65.376 102.324 7.408 18.54 9.58 35.99 6.643 53.35-2.415 14.25-8.379 28.52-18.241 43.61-11.879 18.17-27.432 34.6-41.155 49.09l-.1.1c-20.611 21.77-44.003 42.57-68.769 64.59-11.32 10.06-23.027 20.47-34.62 31.12-22.998 21.14-47.328 44.16-69.441 69.29-50.026 57.3-79.523 119.64-107.767 183.81-4.327 9.83-8.43 19.87-12.398 29.58-2.317 5.68-4.71 11.54-7.12 17.28l-.411-.17c2.406-5.74 4.802-11.61 7.118-17.27 3.967-9.72 8.072-19.76 12.403-29.6 12.4-28.17 27.11-60.9 44.785-92.77 19.367-34.92 39.993-64.74 63.056-91.16 22.127-25.14 46.467-48.17 69.475-69.32 11.596-10.65 23.304-21.06 34.626-31.13 24.758-22.01 48.144-42.8 68.742-64.55l.099-.11c13.71-14.47 29.249-30.88 41.107-49.03 13.357-20.43 29.085-52.67 11.557-96.55-14.809-37.06-40.485-70.181-65.312-102.208-10.032-12.94-20.407-26.323-29.972-39.832-11.333-16.078-19.649-29.664-26.166-42.756-13.295-26.682-16.561-49.65-10.196-71.988z"/><path d="M385.561 489.997c4.383-15.381 10.64-29.653 18.865-43.113 8.252-13.502 20.203-25.676 36.535-37.219 16.198-11.449 34.515-20.669 48.664-27.418 22.867-10.912 47.146-21.213 70.624-31.173 45.92-19.483 89.291-37.886 117.847-58.734 43.862-32.024 63.174-78.066 83.623-126.811 2.168-5.168 4.409-10.513 6.652-15.761l.362.154c-2.243 5.248-4.483 10.591-6.652 15.758-9.815 23.402-19.967 47.601-32.904 69.36-6.959 11.707-14.168 21.83-22.034 30.952-8.822 10.225-18.247 18.949-28.813 26.663-28.593 20.876-71.986 39.288-117.928 58.779-23.475 9.959-47.748 20.258-70.609 31.165-33.447 15.96-66.897 34.817-85.031 64.49-31.447 51.453-28.015 103.647-24.694 154.124 1.723 26.187 3.349 50.923-.023 74.417-1.807 12.604-4.899 23.733-9.451 34.024-5.078 11.485-11.853 21.697-20.713 31.217-38.742 41.635-69.343 74.519-41.206 135.103 6.236 13.427 14.263 27.177 25.264 43.266 9.675 14.099 20.303 28.019 30.585 41.48 24.241 31.742 49.306 64.56 63.177 101.65 3.632 9.71 5.782 19.31 6.384 28.53.56 8.55-.194 17.08-2.242 25.33-3.537 14.24-10.985 28.25-22.777 42.82-13.796 17.04-31.259 32.08-46.667 45.34l-1.096.94c-17.544 15.11-36.276 29.57-56.11 44.89-18.403 14.21-37.431 28.91-55.991 44.56-29.973 25.28-51.696 46.35-70.44 68.33-50.704 59.84-75.16 128.54-95.861 193.77-3.605 11.36-6.944 22.93-10.17 34.13-1.558 5.4-3.166 10.98-4.78 16.45l-.377-.11c1.615-5.47 3.224-11.05 4.781-16.45 3.23-11.2 6.567-22.77 10.173-34.14 10.073-31.74 21.49-65.68 36.694-98.85 16.892-36.85 36.272-67.94 59.242-95.05 18.759-22 40.499-43.09 70.488-68.38 18.568-15.66 37.6-30.36 56.004-44.57 19.828-15.31 38.557-29.78 56.09-44.88l1.096-.94c15.393-13.26 32.842-28.28 46.616-45.3 25.471-31.46 31.372-62.06 18.573-96.29-13.849-37.03-38.897-69.826-63.121-101.544-10.283-13.465-20.915-27.387-30.595-41.497-11.012-16.107-19.049-29.874-25.296-43.321-28.247-60.823 2.433-93.793 41.274-135.535 36.658-39.394 33.465-87.954 30.083-139.364-1.636-24.863-3.327-50.575-.671-76.495 1.252-12.214 3.427-23.764 6.556-34.747z"/><path d="M375.318 459.626a147.988 147.988 0 0111.266-28.204c7.316-13.967 18.634-26.21 34.598-37.428 13.168-9.253 29.077-17.582 50.064-26.213 31.985-13.153 67.425-23.87 101.7-34.234 40.492-12.245 78.737-23.81 105.377-37.767 53.731-28.147 76.523-76.56 100.74-136.926l.314.126c-11.271 28.101-22.658 55.264-37.977 78.688-8.234 12.593-16.993 23.244-26.775 32.566-10.84 10.329-22.662 18.785-36.144 25.848-26.668 13.97-64.928 25.54-105.435 37.791-34.266 10.361-69.699 21.076-101.67 34.223-30.402 12.501-67.482 31.016-84.488 63.483-27.547 52.588-16.884 106.225-6.572 158.098 5.574 28.033 10.839 54.513 9.728 79.499-.595 13.403-2.975 25.199-7.276 36.058-4.799 12.118-11.87 22.836-21.619 32.761-2.812 2.862-5.634 5.701-8.363 8.449-37.768 38-67.599 68.015-42.813 125.674 5.964 13.729 13.945 28.067 24.396 43.836 9.718 14.62 20.529 29.008 30.983 42.92 23.679 31.515 48.168 64.096 61.202 101.196 3.447 9.92 5.276 19.67 5.435 28.98a77.309 77.309 0 01-3.824 25.41c-4.664 14.26-13.588 28-27.282 42-15.913 16.27-35.559 30.16-52.895 42.41l-1.374.97c-14.695 10.38-29.791 20.35-45.771 30.89-24.859 16.4-50.565 33.37-75.04 52.31-29.818 23.07-52.52 44.48-71.442 67.37-34.746 42.23-54.686 90.92-68.27 138.59-6.323 22.18-11.266 44.14-15.69 65.15-2.78 13.2-5.26 26.63-7.658 39.62-.888 4.82-1.808 9.79-2.727 14.68l-.335-.07c.921-4.88 1.839-9.86 2.727-14.67 2.399-12.99 4.881-26.43 7.662-39.64 7.052-33.49 15.402-69.38 28.633-104.95 14.438-38.81 32.557-71.17 55.396-98.93 18.938-22.91 41.656-44.33 71.495-67.42 24.485-18.95 50.196-35.92 75.061-52.32 15.98-10.55 31.073-20.5 45.763-30.89l1.373-.97c17.324-12.24 36.958-26.12 52.848-42.37 29.676-30.34 37.807-60.86 25.589-96.04-13.017-37.05-37.488-69.609-61.152-101.102-10.457-13.916-21.272-28.307-30.995-42.936-10.461-15.786-18.451-30.141-24.424-43.889-11.412-26.548-11.999-49.01-1.842-70.689 9.177-19.592 26.443-36.966 44.725-55.36 2.728-2.745 5.55-5.584 8.362-8.446 40.337-41.069 30.009-93.017 19.074-148.016-5.08-25.55-10.333-51.971-10.861-78.566-.366-18.591 1.675-35.66 6.203-51.55z"/><path d="M362.533 433.133a131.923 131.923 0 016.216-17.174c6.358-14.405 17.049-26.72 32.683-37.648 13.368-9.343 30.191-17.519 51.434-24.987 38.674-13.599 83.392-22.24 126.634-30.596 37.667-7.279 73.245-14.152 99.043-23.493 59.415-21.51 86.602-66.186 111.213-131.295l.269.101c-9.737 25.761-22.175 55.357-40.591 79.556-9.053 11.893-18.888 21.758-30.067 30.155-12.111 9.098-25.431 16.214-40.723 21.749-25.82 9.349-61.408 16.223-99.085 23.505-43.234 8.353-87.939 16.991-126.595 30.583-45.524 16.007-72.201 35.862-83.949 62.482-23.806 53.937-6.089 109.219 11.043 162.683 9.543 29.78 18.556 57.907 19.798 84.288.667 14.149-.965 26.559-4.983 37.939-4.486 12.695-11.825 23.862-22.445 34.138-5.186 5.02-10.423 9.883-15.488 14.587-36.416 33.818-67.865 63.023-45.658 118.561 5.635 14.01 13.332 28.535 23.528 44.405 9.723 15.109 20.695 29.925 31.306 44.251 23.187 31.309 47.165 63.687 59.304 100.857 3.283 10.11 4.806 20.01 4.53 29.41-.257 8.73-2.077 17.31-5.409 25.5-5.815 14.28-16.222 27.75-31.819 41.19-18.545 15.97-40.981 28.99-60.774 40.47-12.431 7.26-25.486 14.54-38.116 21.58-30.555 17.04-62.151 34.66-91.412 55.37-30.087 21.4-53.785 43.13-72.445 66.42-50.885 63.68-63.877 143.7-72.06 213.71-1.843 15.76-3.351 31.78-4.809 47.28-.336 3.58-.674 7.16-1.015 10.74l-.285-.03c.341-3.58.68-7.16 1.016-10.74 1.458-15.5 2.967-31.52 4.81-47.29 3.824-32.71 9.15-70.95 19.652-107.82.31-1.08.623-2.17.941-3.25 11.989-40.77 28.843-74.39 51.528-102.78 18.678-23.31 42.393-45.05 72.501-66.47 29.273-20.72 60.876-38.35 91.439-55.39 12.627-7.04 25.682-14.32 38.11-21.58 19.784-11.47 42.206-24.48 60.731-40.44 33.962-29.25 44.326-59.69 32.613-95.79-12.124-37.13-36.086-69.484-59.261-100.773-10.613-14.33-21.589-29.149-31.317-44.267-10.207-15.887-17.911-30.426-23.555-44.453-10.205-25.523-9.981-46.981.712-67.525 9.615-18.474 26.811-34.446 45.019-51.351 5.062-4.703 10.298-9.564 15.484-14.581 43.944-42.526 26.269-97.681 7.556-156.075-8.438-26.328-17.16-53.554-20.79-80.927-1.96-14.793-2.273-28.24-.955-41.111.836-8.22 2.325-16.063 4.493-23.674z"/><path d="M348.252 408.708c.787-2.76 1.673-5.497 2.661-8.217 10.449-28.762 39.554-49.429 88.982-63.187 43.124-12.003 96.25-17.214 143.123-21.812 36.108-3.541 70.217-6.887 95.739-12.8 69.492-16.099 98.907-61.881 121.695-125.667l.219.079c-13.004 36.399-26.34 61.212-43.244 80.452-20.149 22.936-45.865 37.774-78.618 45.363-25.538 5.916-59.652 9.262-95.77 12.804-46.862 4.596-99.977 9.808-143.082 21.804-49.348 13.735-78.404 34.355-88.825 63.044-20.125 55.396 4.512 112.45 28.34 167.629 13.59 31.471 26.428 61.198 30.075 88.914 1.955 14.861 1.097 27.854-2.624 39.724-4.149 13.237-11.747 24.821-23.227 35.41-7.217 6.657-14.623 12.959-21.787 19.055-37.236 31.684-69.393 59.046-49.332 113.116 12.239 32.984 33.556 62.186 54.17 90.427 11.372 15.577 23.129 31.683 33.207 48.224 11.304 18.54 19.257 35.69 24.317 52.42 5.083 16.8 5.07 32.76-.033 47.43-4.502 12.93-12.747 24.86-25.21 36.46-22.844 21.27-55.512 36.91-81.76 49.48-10.007 4.79-20.356 9.6-30.363 14.26-66.708 31.04-135.689 63.13-181.33 121.91-20.596 26.53-33.974 56.21-42.763 87.05-12.853 45.11-15.904 92.7-17.399 136.64-.693 20.31-.976 40.99-1.249 60.98l-.01.76h-.233l.01-.76c.273-20 .557-40.67 1.25-60.99 1.209-35.54 3.649-77.26 12.567-117.21 9.54-42.73 25.124-77.61 47.644-106.61 45.676-58.82 114.682-90.93 181.416-121.98 10.006-4.65 20.353-9.47 30.359-14.26 26.234-12.56 58.884-28.19 81.701-49.43 26.505-24.68 34.742-52.05 25.181-83.66-11.265-37.25-34.766-69.444-57.491-100.575-20.623-28.253-41.951-57.468-54.201-90.482-7.155-19.286-7.688-35.186-3.729-49.089 7.174-25.183 29.097-43.833 53.129-64.282 7.161-6.094 14.566-12.394 21.78-19.048 21.684-20 29.873-43.81 25.779-74.932-3.644-27.684-16.474-57.396-30.057-88.851-11.731-27.166-23.862-55.259-30.533-83.472-3.606-15.245-5.303-29.096-5.188-42.341.099-11.9 1.65-23.026 4.714-33.78z"/></g></svg>