<svg width="1714" height="640" fill="none" xmlns="http://www.w3.org/2000/svg"><g style="mix-blend-mode:soft-light" fill="#fff"><path d="M557.266 900.419a90.355 90.355 0 01-5.643-3.195c-9.399-5.779-17.735-16.376-25.483-32.392-6.928-14.322-13.273-32.782-19.397-56.435-11.425-44.125-20.289-99.441-29.675-158.009-10.897-67.982-22.163-138.28-38.562-198.299-18.598-68.065-41.074-111.676-68.712-133.333-83.029-65.054-241.539-67.374-368.905-69.237-47.27-.693-91.92-1.345-125.589-5.278-37.389-4.365-58.144-12.402-65.323-25.292l.984-.551c6.99 12.547 27.474 20.402 64.466 24.723 33.612 3.926 78.234 4.579 125.476 5.27 112.808 1.649 250.034 3.658 337.882 49.291 11.47 5.958 22.079 12.648 31.702 20.187 14.733 11.546 28.223 29.581 40.096 53.61 10.631 21.51 20.119 47.782 29.008 80.315 16.415 60.078 27.688 130.405 38.588 198.418 9.382 58.539 18.243 113.829 29.654 157.902 6.104 23.582 12.425 41.973 19.321 56.227 7.652 15.816 15.849 26.259 25.061 31.922 28.963 17.808 65.894 18.151 112.899 1.045 41.395-15.066 84.4-41.019 125.99-66.121l.653-.395c46.778-28.233 102.115-60.532 157.89-86.04 57.843-26.455 109.453-42.558 157.783-49.232 51.09-7.054 100.53-4.837 146.96 6.587 45.04 11.081 86.04 30.501 121.87 57.715a282.212 282.212 0 0141.29 38.413c11.9 13.547 22.78 28.594 32.32 44.724 18.01 30.414 31.76 64.951 42.04 105.583 20.62 81.508 23.42 175.318 23.43 256.328h-1.13c-.03-163.97-10.77-347.041-138.63-444.146-72.63-55.162-167.8-77.921-268-64.083-109.313 15.096-220.035 77.662-315.24 135.121l-.656.394c-41.636 25.129-84.689 51.115-126.189 66.215-22.514 8.192-42.201 12.335-60.191 12.661-17.727.321-33.856-3.246-48.038-10.613z"/><path d="M561.81 889.609a99.653 99.653 0 01-10.852-6.553c-9.976-6.914-19.131-18.128-27.988-34.285-7.927-14.458-15.48-32.666-23.091-55.66-14.196-42.893-26.351-95.677-39.22-151.557-14.054-61.03-28.586-124.141-47.063-179.805-14.478-43.622-35.011-97.212-65.509-124.67-67.357-60.65-186.065-77.572-293.305-86.123-18.279-1.46-36.312-2.683-53.752-3.869-42.71-2.903-83.054-5.646-114.275-11.061-34.747-6.026-54.876-14.778-63.348-27.542l.885-.59c8.297 12.505 28.205 21.11 62.645 27.085 31.166 5.406 71.482 8.147 114.164 11.048 17.444 1.184 35.48 2.413 53.765 3.869 46.259 3.69 106.495 9.716 162.16 23.68 27.235 6.833 51.656 15.187 72.587 24.829 23.258 10.717 43.172 23.46 59.186 37.88 13.186 11.874 25.208 28.86 36.751 51.928 9.642 19.267 18.871 42.527 29.054 73.198 18.495 55.715 33.032 118.847 47.092 179.902 12.861 55.857 25.011 108.616 39.192 151.464 15.908 48.062 32.01 76.472 50.675 89.408 53.108 36.805 122.292 9.215 182.966-22.623 18.365-9.689 36.467-20.176 53.437-30.084 65.975-38.583 125.498-72.419 185.83-95.773 22.042-8.475 44.014-15.209 65.304-20.021 21.23-4.796 42.53-7.847 63.33-9.072 29.98-1.767 59.88-.181 88.87 4.71 30.76 5.11 60.56 14.242 88.58 27.141 27.37 12.602 53.19 28.869 76.76 48.35 15.44 12.71 29.84 27.093 42.78 42.751 12.28 14.858 23.68 31.385 33.89 49.122 20.85 36.105 37.12 77.009 49.72 125.054 10.67 40.64 18.79 87.07 24.84 141.93 2.66 24.07 4.92 47.89 6.72 70.82l-1.06.08c-1.8-22.91-4.06-46.73-6.71-70.78-12.99-117.71-35.94-199.928-74.43-266.571-21.11-36.68-46.11-66.637-76.43-91.584-48.09-39.761-103.55-65.081-164.84-75.263-28.91-4.879-58.72-6.459-88.63-4.698-41.97 2.473-83.95 11.966-128.313 29.024-60.261 23.325-119.741 57.141-185.677 95.697-16.98 9.915-35.094 20.405-53.48 30.105-39.871 20.923-71.233 32.939-98.697 37.813-28.858 5.122-53.372 2.278-74.513-8.704z"/><path d="M566.626 879.343c-5.651-2.935-11.083-6.415-16.326-10.455-10.806-8.329-21.043-20.476-31.296-37.148-9.183-14.93-18.221-33.256-27.629-56.024-17.55-42.473-33.598-93.657-50.586-147.845-15.552-49.604-31.631-100.894-49.909-148.636-19.809-51.742-38.334-96.776-64.49-123.842-64.353-66.593-176.765-90.487-267.506-103.862-19.945-2.938-39.686-5.478-58.776-7.932-76.395-9.824-142.375-18.308-163.269-45.592l.793-.609c20.643 26.953 86.429 35.413 162.605 45.206 19.096 2.456 38.84 4.995 58.796 7.936 60.574 8.929 107.581 19.582 147.939 33.524 24.671 8.523 46.89 18.408 66.042 29.377 21.141 12.107 39.343 25.988 54.096 41.255 12.006 12.424 23.431 29.848 34.932 53.267 9.883 20.13 19.052 42.906 29.773 70.915 18.289 47.77 34.372 99.078 49.929 148.694 16.984 54.167 33.021 105.33 50.556 147.763 19.685 47.639 38.308 77.117 58.614 92.763 42.208 32.526 97.529 29.124 179.371-11.031 18.965-9.304 37.766-19.8 53.898-28.909 4.478-2.536 8.954-5.073 13.424-7.613 56.478-32.047 114.876-65.185 173.208-86.045 42.465-15.189 83.885-21.988 126.635-20.796 27.99.782 55.4 4.627 83.81 11.754 28.67 7.192 56.59 18.162 83.01 32.608 25.55 13.974 50.03 31.381 72.75 51.736 28.76 25.772 53.38 56.13 75.27 92.809 21.69 36.121 39.68 75.873 55.01 121.529 13.1 39.03 24.32 82.75 34.29 133.67 4.09 20.85 8.4 43.3 12.26 66.29l-.98.17c-3.87-22.98-8.17-45.43-12.26-66.26-21.37-109.13-48.87-187.741-89.18-254.885-21.83-36.593-46.39-66.876-75.08-92.578-46.43-41.606-98.7-69.908-155.33-84.117-28.34-7.11-55.68-10.945-83.6-11.723-42.62-1.191-83.93 5.595-126.27 20.737-58.251 20.832-116.612 53.948-173.05 85.974-4.473 2.539-8.946 5.077-13.428 7.614-16.145 9.116-34.958 19.618-53.95 28.937-39.094 19.183-70.185 29.473-97.85 32.391-25.065 2.638-46.911-.973-66.246-11.017z"/><path d="M572.009 869.856c-7.79-4.047-15.227-9.086-22.359-15.132-12.363-10.482-24.437-24.481-36.909-42.795-11.178-16.414-22.482-36.035-34.563-59.988-22.536-44.687-44.178-97.34-67.09-153.082-13.78-33.529-28.03-68.198-42.921-102.139-2.885-6.573-5.741-13.183-8.508-19.574-17.419-40.278-33.875-78.319-54.958-103.44-46.423-55.305-125.486-95.083-241.709-121.608-21.864-4.992-43.648-9.286-64.713-13.442-67.169-13.246-125.174-24.685-148.014-51.133l.704-.61c22.629 26.207 80.49 37.619 147.485 50.832 21.071 4.156 42.86 8.453 64.74 13.446 52.728 12.034 96.451 26.237 133.674 43.416 22.099 10.201 42.118 21.617 59.506 33.934 19.026 13.476 35.522 28.472 49.034 44.569 21.172 25.224 37.654 63.326 55.101 103.666 2.764 6.39 5.621 12.997 8.503 19.569 14.896 33.952 29.149 68.627 42.931 102.159 22.904 55.726 44.539 108.362 67.059 153.019 25.297 50.161 47.934 82.729 71.24 102.489 42.819 36.303 97.029 36.476 175.777.566 18.836-8.589 37.258-18.407 54.356-27.736 8.769-4.804 17.657-9.727 26.254-14.486 52.418-29.026 106.62-59.04 161.177-77.06 22.128-7.308 43.474-11.791 65.264-13.706 19.48-1.714 38.9-1.317 59.36 1.211 25.63 3.165 51.39 9.314 78.77 18.797 51.99 18.009 101.17 49.363 146.17 93.189 26.91 26.213 51.07 56.88 73.87 93.748 42 67.381 75.06 144.725 104.05 243.415 1.04 3.55 2.09 7.1 3.13 10.65 4.92 16.67 10 33.9 14.66 51.11l-.9.25c-4.66-17.2-9.74-34.43-14.65-51.1-1.05-3.55-2.09-7.1-3.14-10.64-28.96-98.61-61.99-175.883-103.94-243.192-22.75-36.805-46.87-67.41-73.73-93.569-44.9-43.73-93.96-75.012-145.82-92.975-27.31-9.459-53.02-15.596-78.58-18.752-42.95-5.307-82.43-1.348-124.218 12.456-54.476 17.992-108.638 47.985-161.02 76.989-8.596 4.759-17.484 9.682-26.257 14.486-17.114 9.337-35.555 19.165-54.416 27.766-37.921 17.293-69.647 26.084-96.991 26.873-21.18.608-40.159-3.485-57.409-12.446z"/><path d="M578.122 861.339c-10.172-5.283-19.847-12.195-29.126-20.78-69.138-63.96-135.735-190.871-203.549-326.354-7.203-14.387-13.871-28.891-20.321-42.917-13.716-29.832-26.672-58.007-42.119-79.259-43.546-59.909-116.19-106.796-215.918-139.361C43.142 244.849 19 238.226-4.346 231.82c-28.526-7.826-55.47-15.217-78.294-23.798-25.58-9.614-42.634-19.462-53.669-30.991l.626-.6c23.955 25.029 73.826 38.711 131.569 54.552 23.357 6.409 47.508 13.033 71.476 20.86 99.904 32.622 172.694 79.615 216.349 139.674 15.498 21.32 28.471 49.536 42.206 79.41 6.447 14.02 13.113 28.516 20.309 42.891 67.779 135.411 134.333 262.246 203.364 326.105 43.571 40.31 96.675 44.062 172.188 12.166 19.536-8.25 38.674-18.056 54.817-26.562 11.629-6.157 23.39-12.532 34.766-18.697 49.788-26.984 101.27-54.887 153.463-70.736 41.356-12.558 80.326-13.891 122.616-4.191 23.5 5.389 46.92 13.598 73.72 25.834 24.38 11.13 48.56 25.73 71.89 43.399 21.79 16.5 43.55 36.226 64.69 58.634 24.81 26.291 47.84 56.377 72.48 94.685 23.71 36.849 45.17 74.335 65.61 114.595 18.75 36.91 36.14 75.2 53.17 117.04 2.66 6.53 5.4 13.17 8.05 19.58 5.08 12.28 10.34 24.99 15.28 37.65l-.81.32c-4.94-12.65-10.19-25.36-15.27-37.64-2.65-6.42-5.39-13.05-8.05-19.58-35.02-86.03-73.85-161.76-118.71-231.496-24.61-38.262-47.61-68.308-72.38-94.56-44.16-46.81-88.75-80.121-136.31-101.84-26.75-12.215-50.12-20.406-73.55-25.78-42.15-9.664-80.97-8.337-122.178 4.176-52.111 15.824-103.552 43.704-153.302 70.669-11.377 6.168-23.141 12.541-34.775 18.702-16.159 8.513-35.318 18.331-54.884 26.594-37.364 15.78-68.801 22.749-96.106 21.298-17.208-.91-33.071-5.15-47.883-12.844z"/><path d="M585.037 853.977c-12.761-6.629-24.925-15.787-36.685-27.578-41.366-41.473-77.485-81.861-110.422-123.471-42.481-53.667-80.163-109.679-115.199-171.239-11.398-20.027-21.045-40.734-30.373-60.759-10.309-22.129-20.045-43.032-31.035-60.579-51.709-82.561-131.933-131.013-190.13-157.122-26.076-11.698-52.921-21.343-78.884-30.673-23.863-8.574-46.402-16.673-66.183-25.606-22.223-10.036-37.8-19.701-49.019-30.417l.555-.579c24.426 23.334 68.382 39.126 114.921 55.847 25.977 9.335 52.838 18.985 78.94 30.696 38.658 17.343 73.977 38.634 104.974 63.279 35.085 27.898 63.855 59.576 85.506 94.146 11.016 17.589 20.763 38.514 31.083 60.664 9.323 20.011 18.961 40.703 30.342 60.702 81.342 142.917 167.65 236.547 225.491 294.54 45.035 45.154 95.458 52.263 168.6 23.769 20.239-7.882 40.172-17.711 55.279-25.39 13.689-6.999 27.51-14.342 40.874-21.442 47.953-25.476 97.542-51.819 148.154-65.878 22.504-6.251 43.824-8.67 65.184-7.4 18.06 1.072 36.19 4.841 55.43 11.519 27.25 9.458 51.01 22.537 68.67 32.877 42.29 24.761 83.83 61.028 127 110.872 28.39 32.783 52.9 68.327 71.08 95.626 52.76 79.229 96.44 151.149 133.51 219.869 4.17 7.72 8.49 15.52 12.67 23.06 5.37 9.67 10.91 19.68 16.2 29.64l-.71.37c-5.28-9.95-10.83-19.96-16.19-29.63-4.18-7.53-8.5-15.33-12.67-23.06-37.07-68.7-80.73-140.59-133.48-219.801-18.17-27.283-42.66-62.796-71.02-95.547-43.1-49.778-84.58-85.989-126.8-110.707-17.63-10.321-41.34-23.375-68.53-32.81-40.91-14.197-79.08-15.5-120.129-4.098-50.529 14.032-100.076 40.355-147.993 65.811-13.368 7.102-27.192 14.446-40.887 21.448-15.125 7.69-35.082 17.528-55.352 25.423-36.9 14.373-68.037 19.504-95.191 15.677-13.153-1.85-25.629-5.84-37.581-12.049z"/><path d="M592.496 847.879a130.201 130.201 0 01-10.766-6.279c-11.503-7.447-22.632-17.051-34.021-29.358-23.244-25.115-48.943-48.261-76.149-72.766-27.916-25.141-56.783-51.141-85.828-81.774-32.975-34.781-61.014-70.281-85.718-108.533-15.672-24.267-27.58-50.571-39.098-76.011-7.174-15.848-13.951-30.816-21.272-44.48-38.619-72.073-96.984-134.183-164.343-174.886-28.098-16.98-58.068-30.453-87.056-43.482-37.97-17.068-73.833-33.188-97.719-54.27l.488-.555c23.803 21.011 59.617 37.109 97.533 54.152 29.008 13.039 59 26.524 87.136 43.523 32.336 19.541 62.796 44.169 90.531 73.203 29.382 30.757 54.306 65.063 74.081 101.967 7.335 13.686 14.115 28.665 21.297 44.524 11.505 25.415 23.403 51.695 39.044 75.913 55.228 85.511 116.957 141.107 171.422 190.16 27.22 24.515 52.93 47.671 76.195 72.812 46.616 50.372 94.424 60.62 165.014 35.376 20.777-7.429 40.701-16.848 55.74-24.22 15.257-7.526 30.635-15.538 45.506-23.29 46.612-24.293 94.809-49.413 144.322-61.912 22.792-5.755 44.105-7.151 65.145-4.271 17.52 2.398 35 7.859 53.45 16.694 23.94 11.465 45.6 26.608 63.63 39.913 20.16 14.879 40.04 32.586 60.77 54.136 17.68 18.373 36.21 39.823 56.64 65.576 23.99 30.229 46.49 62.887 68.25 94.469l1.45 2.1c28.56 41.46 56.61 80.26 83.73 117.78 22.54 31.18 43.83 60.64 64.51 90.31 5.68 8.15 11.57 16.3 17.26 24.18 5.66 7.83 11.51 15.93 17.14 24l-.61.42c-5.62-8.06-11.47-16.15-17.12-23.98-5.7-7.89-11.59-16.04-17.27-24.19-20.67-29.68-41.96-59.13-64.5-90.31-27.13-37.52-55.18-76.32-83.75-117.79l-1.44-2.1c-21.76-31.575-44.25-64.222-68.22-94.43-43.73-55.117-79.9-91.995-117.28-119.577-18-13.284-39.62-28.404-63.51-39.842-39.9-19.106-76.32-22.921-118.093-12.374-49.43 12.479-97.589 37.581-144.161 61.853-14.875 7.753-30.255 15.768-45.52 23.299-15.057 7.382-35.006 16.811-55.818 24.252-18.625 6.66-35.319 10.699-51.039 12.343-15.528 1.623-29.662.866-43.207-2.319-9.289-2.182-18.13-5.465-26.776-9.956z"/><path d="M599.849 842.757c-6.729-3.496-13.336-7.745-19.945-12.819-10.675-8.197-21.418-18.617-32.837-31.853-30.898-35.818-68.71-61.219-108.74-88.111-26.633-17.892-54.172-36.394-81.452-59.112-30.896-25.732-56.926-53.279-79.579-84.215-20.196-27.582-33.708-59.61-46.774-90.583-4.282-10.152-8.329-19.74-12.556-29.055-37.249-82.055-86.455-150.477-138.555-192.66-29.75-24.09-63.448-42.246-96.035-59.806-29.613-15.958-57.58-31.029-79.437-49.006l.426-.52c21.805 17.934 49.748 32.993 79.33 48.932 32.614 17.574 66.338 35.747 96.138 59.876 26.32 21.309 51.903 49.264 76.043 83.086 23.419 32.811 44.513 69.757 62.7 109.817 4.233 9.322 8.278 18.915 12.563 29.071 13.053 30.938 26.549 62.929 46.698 90.449 50.575 69.075 106.644 106.741 160.864 143.166 40.069 26.92 77.916 52.344 108.874 88.232 40.274 46.687 83.141 72.544 161.43 46.984 16.61-5.423 33.943-12.532 56.202-23.047 16.503-7.846 33.106-16.338 49.162-24.549 45.589-23.321 92.732-47.433 141.461-58.54 23.122-5.269 44.42-5.644 65.11-1.149 17.07 3.709 33.9 10.867 51.46 21.885 22.04 13.831 41.02 30.778 58.58 46.95 36.49 33.615 69.5 75.699 107.85 128.546 12.85 17.713 25.6 36.165 37.93 54.011 9.86 14.273 20.06 29.023 30.37 43.503 47.19 66.25 96.32 121.44 143.83 174.8 6.3 7.08 12.82 14.4 19.14 21.54 7.23 8.16 14.73 16.25 21.97 24.07 5.92 6.39 12.04 12.99 17.96 19.57l-.5.45c-5.92-6.58-12.03-13.18-17.95-19.56-7.25-7.83-14.74-15.92-21.98-24.09-6.32-7.13-12.84-14.45-19.14-21.53-47.52-53.38-96.67-108.58-143.88-174.86-10.31-14.48-20.51-29.24-30.37-43.512-12.33-17.842-25.08-36.293-37.93-54-38.32-52.813-71.3-94.869-107.76-128.447-17.53-16.151-36.49-33.076-58.48-46.876-38.08-23.893-73.874-30.262-116.062-20.649-48.648 11.086-95.751 35.181-141.304 58.482-16.062 8.214-32.666 16.709-49.18 24.559-22.286 10.529-39.643 17.648-56.282 23.079-18.729 6.113-35.452 9.395-51.131 10.037-15.124.618-28.911-1.246-42.143-5.696a112.613 112.613 0 01-16.089-6.85z"/><path d="M606.829 838.56c-24.573-12.765-44.237-34.607-60.401-54.632-34.373-42.582-80.173-63.918-128.659-86.509-27.242-12.691-55.411-25.816-83.09-43.371-31.323-19.864-57.524-42.74-80.102-69.931-25.153-30.294-39.567-68.817-53.509-106.071-1.567-4.187-3.187-8.517-4.777-12.708-38.032-100.227-74.914-169.062-112.76-210.438-30.618-33.477-68.94-57.1-106-79.944-21.59-13.308-41.985-25.879-60.182-39.93l.371-.481c18.17 14.027 38.553 26.592 60.128 39.892 37.096 22.866 75.452 46.51 106.13 80.049 20.669 22.597 41.374 53.859 61.54 92.915 16.936 32.799 33.728 71.307 51.341 117.718 1.591 4.19 3.211 8.52 4.777 12.708 13.923 37.205 28.318 75.679 53.406 105.896 50.378 60.676 107.622 87.346 162.981 113.138 48.553 22.623 94.413 43.99 128.877 86.679 43.466 53.843 83.228 80.694 157.846 58.598 16.762-4.963 34.769-11.915 56.666-21.878 17.524-8.021 35.122-16.858 52.14-25.403 44.792-22.491 91.109-45.751 139.278-55.571 23.478-4.788 44.765-4.148 65.08 1.957 16.7 5.018 32.88 13.877 49.46 27.084 19.46 15.499 35.76 33.619 53.54 53.985 31.22 35.77 59.18 78.149 88.79 123.017 3.14 4.766 6.3 9.555 9.49 14.364 3.77 5.699 7.6 11.522 11.31 17.151 17.66 26.836 35.94 54.586 55.6 81.316 55.37 75.25 117.56 130.83 177.71 184.58 8.87 7.92 18.03 15.7 26.89 23.22 6.11 5.19 12.43 10.55 18.57 15.9l-.4.46c-6.14-5.35-12.45-10.71-18.57-15.9-8.86-7.52-18.02-15.3-26.89-23.23-29.54-26.39-60.08-53.69-90.31-83.94-34.12-34.14-62.73-67.09-87.48-100.73-19.68-26.74-37.96-54.5-55.63-81.342-3.71-5.629-7.54-11.452-11.31-17.15-3.18-4.808-6.35-9.599-9.49-14.364-29.6-44.851-57.55-87.217-88.74-122.954-17.76-20.344-34.04-38.441-53.46-53.909-36.07-28.727-71.245-37.648-114.039-28.922-48.089 9.806-94.37 33.046-139.128 55.52-17.025 8.547-34.628 17.388-52.161 25.414-21.925 9.973-39.956 16.935-56.745 21.907-18.857 5.586-35.609 8.109-51.214 7.72-14.735-.369-28.164-3.338-41.059-9.082a102.784 102.784 0 01-5.815-2.798z"/><path d="M612.534 834.811c-1.058-.55-2.11-1.118-3.156-1.709-22.65-12.761-41.122-33.693-63.584-63.327-36.484-48.132-88.943-63.283-144.484-79.321-28.467-8.221-57.901-16.722-86.675-30.021-32.553-15.046-59.627-34.296-82.775-58.849-13.225-14.027-24.572-31.944-34.686-54.773-8.983-20.273-16.066-42.307-22.549-63.138a8586.756 8586.756 0 01-9.538-30.921c-22.613-73.661-45.997-149.831-77.42-197.301-30.082-45.439-74.418-75.055-117.292-103.692-13.195-8.813-26.838-17.925-39.614-27.239l.32-.438c12.767 9.306 26.405 18.416 39.595 27.226 42.918 28.669 87.299 58.315 117.441 103.843 14.121 21.33 27.833 50.257 41.918 88.44 12.558 34.042 24.256 72.149 35.571 109.001 3.119 10.158 6.342 20.66 9.535 30.92 14.523 46.656 28.845 87.716 57.112 117.701 51.631 54.764 111.403 72.024 169.206 88.716 55.629 16.063 108.174 31.239 144.766 79.517 41.103 54.228 76.231 91.01 154.26 70.212 17.13-4.565 35.283-11.143 57.131-20.708 18.383-8.09 36.813-17.176 54.636-25.963 44.157-21.769 89.816-44.277 137.579-52.9 23.853-4.306 45.137-2.65 65.069 5.059 16.37 6.336 31.88 16.894 47.43 32.289 18.74 18.545 34.49 41.033 48.4 60.876l.1.144c20.88 29.801 39.93 62.676 60.1 97.481 9.22 15.909 18.76 32.36 28.62 48.737 19.55 32.487 41.01 67.017 65.53 99.417 56 73.43 122.98 123.65 192.44 172.83 10.64 7.54 21.59 14.86 32.18 21.94 6.18 4.13 12.57 8.4 18.81 12.66l-.3.45c-6.24-4.26-12.63-8.53-18.81-12.66-10.6-7.08-21.54-14.4-32.2-21.95-30.49-21.59-65.83-47.03-99.45-75.8-36.83-31.51-67.28-63.29-93.1-97.14-24.53-32.42-46.01-66.97-65.57-99.47-9.86-16.381-19.39-32.835-28.61-48.745-20.17-34.795-39.22-67.661-60.09-97.442l-.09-.144c-13.89-19.823-29.64-42.291-48.33-60.802-21.06-20.851-55.59-47.389-112.029-37.201-47.686 8.609-93.312 31.103-137.436 52.85-17.827 8.789-36.264 17.877-54.656 25.972-21.875 9.573-40.053 16.163-57.208 20.734-34.965 9.331-63.076 7.636-88.097-5.361z"/><path d="M255.832 651.965c-17.228-8.949-32.683-19.858-46.693-32.91-14.056-13.095-25.632-30.266-35.393-52.495-9.681-22.047-16.198-46.073-20.788-64.541-7.424-29.848-13.776-61.226-19.92-91.57-12.017-59.349-23.369-115.405-41.228-154.432-27.433-59.948-77.502-94.103-130.51-130.265-5.62-3.835-11.432-7.798-17.129-11.74l.271-.394c5.697 3.942 11.507 7.905 17.127 11.739 25.448 17.36 51.764 35.312 74.5 55.985 12.234 11.122 22.523 22.155 31.46 33.726 10.02 12.976 18.105 26.306 24.714 40.747 17.884 39.079 29.24 95.162 41.261 154.539 6.143 30.34 12.496 61.712 19.915 91.551 10.857 43.658 25.158 88.024 56.045 116.8 53.557 49.901 116.469 58.5 177.312 66.812 31.565 4.313 61.38 8.387 88.504 18.105 14.551 5.212 27.037 11.592 38.171 19.506 12.427 8.831 22.927 19.37 32.097 32.219 40.108 56.194 71.785 100.577 150.677 81.83 17.485-4.155 35.789-10.362 57.597-19.537 19.119-8.083 38.258-17.341 56.765-26.301 43.642-21.12 88.766-42.959 136.245-50.447 12.437-1.96 24.377-2.184 35.486-.662 10.311 1.413 20.263 4.379 29.573 8.819 16.08 7.666 30.94 19.929 45.4 37.493 16.92 20.55 30.56 44.971 42.59 66.519l.86 1.533c13.7 24.536 26.36 50.329 39.76 77.64 12.43 25.341 25.28 51.542 39.4 77.416 22.78 41.79 42.57 72.75 64.15 100.38 58.86 74.84 134.62 120.62 207.18 161.09 12.63 7.05 25.59 13.83 38.12 20.39 6.04 3.16 12.29 6.43 18.41 9.68l-.23.42c-6.12-3.25-12.36-6.52-18.4-9.68-12.53-6.56-25.49-13.35-38.13-20.4-35.31-19.69-72.91-41.51-108.66-67.65-39.73-29.05-72-59.65-98.67-93.56-21.6-27.65-41.4-58.63-64.19-100.44-14.12-25.891-26.98-52.097-39.41-77.439-13.4-27.304-26.05-53.093-39.75-77.615l-.86-1.533c-12.02-21.528-25.65-45.93-42.54-66.446-31.24-37.939-66.203-52.392-110.017-45.482-47.406 7.475-92.503 29.299-136.112 50.405-18.513 8.96-37.655 18.223-56.787 26.308-21.833 9.185-40.159 15.399-57.671 19.563-79.204 18.82-110.964-25.679-151.175-82.016-37.948-53.17-96.48-61.169-158.447-69.636-29.969-4.094-60.961-8.329-91.144-17.785-14.223-4.456-27.432-9.848-39.735-16.239z"/><path d="M217.223 656.77a179.545 179.545 0 01-30.808-20.252c-14.835-12.094-26.647-28.529-36.112-50.242-7.806-17.909-13.848-38.855-19.014-65.912-7.874-41.237-12.011-85.993-16.011-129.275-4.727-51.136-9.192-99.432-19.32-134.507C75.534 185.838 23.49 146.968-42.425 103.501l.226-.343c30.685 20.231 60.224 40.374 84.363 64.284 12.978 12.853 23.519 25.858 32.23 39.757 9.65 15.402 16.836 31.517 21.96 49.267 10.138 35.112 14.605 83.429 19.335 134.582 4 43.273 8.135 88.018 16.006 129.238 7.482 39.196 20.496 87.796 54.98 115.909 55.854 45.54 122.239 45.887 186.441 46.223 34.696.181 67.469.352 96.917 7.743 15.796 3.964 29.248 9.66 41.119 17.413 13.247 8.652 24.276 19.666 33.713 33.672 2.72 4.04 5.411 8.086 8.016 11.999 36.023 54.152 64.475 96.923 139.074 81.451 17.778-3.759 36.769-9.767 58.063-18.368 19.749-8.006 39.489-17.369 58.575-26.422 43.235-20.508 87.94-41.718 135.228-48.209 12.64-1.689 24.68-1.496 35.787.575a93.83 93.83 0 0129.292 10.721c15.83 9.011 30 22.963 43.33 42.653 15.49 22.879 27.23 49.619 37.59 73.213l.82 1.87c8.78 20.001 16.96 40.376 25.62 61.943 13.47 33.552 27.4 68.248 43.98 101.958 20.2 41.07 40.15 73.27 62.78 101.34 41.79 51.58 94.85 87.13 148.24 114.86 24.86 12.91 49.78 24.13 73.68 34.49 15.03 6.52 30.4 12.73 45.27 18.74 5.51 2.22 11.2 4.52 16.79 6.8l-.15.39c-5.59-2.29-11.29-4.59-16.8-6.81-14.86-6.01-30.24-12.23-45.28-18.74-38.12-16.53-78.78-35.18-117.87-59.55-42.65-26.61-76.74-56.02-104.2-89.92-22.65-28.09-42.62-60.32-62.83-101.42-16.58-33.72-30.52-68.424-43.99-101.983-8.66-21.568-16.84-41.937-25.62-61.932l-.82-1.87c-10.35-23.578-22.09-50.301-37.55-73.147-28.89-42.668-63.212-59.753-108.018-53.767-47.223 6.483-91.898 27.678-135.103 48.172-19.092 9.057-38.836 18.424-58.597 26.434-21.317 8.607-40.331 14.623-58.134 18.387-34.348 7.124-61.205 2.365-84.523-14.981-21.073-15.674-37.542-40.431-54.978-66.643a2567.19 2567.19 0 00-8.014-11.998c-39.048-57.952-103.342-58.288-171.413-58.644-31.623-.164-64.322-.335-96.083-6.168-22.2-4.081-42.005-10.655-59.804-19.9z"/><path d="M182.606 665.541a160.033 160.033 0 01-18.916-11.566c-15.588-11.06-27.638-26.767-36.838-48.018-7.865-18.169-13.501-40.163-17.224-67.243-6.779-49.301-6.192-104.587-5.626-158.048.492-46.568.961-90.553-3.882-123.506C88.97 181.269 42.439 138.079-29.021 92.99l.185-.294c28.274 17.838 60.453 39.822 84.76 67.604 11.947 13.656 21.29 27.75 28.562 43.086 7.879 16.615 13.106 34.186 15.974 53.719 4.847 32.98 4.378 76.978 3.886 123.558-.567 53.452-1.154 108.721 5.621 157.998 7.98 58.034 25.114 94.586 53.921 115.026 58.368 41.416 128.422 33.775 196.173 26.386 37.738-4.115 73.381-8.003 105.06-3.071 16.99 2.644 31.354 7.599 43.912 15.143 14.009 8.419 25.508 19.861 35.151 34.988 4.71 7.389 9.222 14.798 13.586 21.965 31.376 51.527 58.472 96.027 129.922 83.107 18.032-3.299 37.177-8.925 58.529-17.197 20.333-7.894 40.62-17.344 60.237-26.484 42.871-19.972 87.201-40.627 134.358-46.034 12.832-1.447 24.974-.854 36.085 1.757 10.322 2.426 20.081 6.675 29.009 12.627 15.58 10.386 29.07 26.037 41.26 47.852 14.5 25.937 24.53 55.784 33.38 82.114 5.61 16.548 11.1 33.845 16.4 50.577 12.85 40.48 26.13 82.343 43.65 122.173 18.15 40.98 38.23 74.45 61.4 102.3 63.38 75.99 155.4 110.88 236.67 137.62 18.3 6.02 36.99 11.71 55.07 17.21l12.53 3.81-.1.34c-4.18-1.28-8.35-2.55-12.53-3.82-18.08-5.5-36.78-11.19-55.08-17.21-37.98-12.5-82.17-28.12-123.46-49.57-1.22-.63-2.43-1.26-3.64-1.91-45.58-24.16-81.48-52.37-109.73-86.25-23.18-27.88-43.28-61.37-61.45-102.38-17.53-39.85-30.81-81.718-43.66-122.208-5.3-16.729-10.79-34.025-16.4-50.569-8.85-26.318-18.87-56.146-33.35-82.056-26.54-47.5-60.227-67.222-106.011-62.061-47.103 5.401-91.407 26.04-134.251 46.004-19.621 9.141-39.913 18.596-60.257 26.493-21.376 8.281-40.539 13.911-58.594 17.218-32.835 5.937-58.302.457-80.138-17.252-19.638-15.924-34.457-40.256-50.14-66.019-4.364-7.163-8.873-14.571-13.581-21.958-39.904-62.597-109.797-54.973-183.795-46.902-33.364 3.64-67.864 7.399-101.302 5.067-18.071-1.262-34.14-4.156-49.128-8.851-9.574-2.991-18.541-6.667-27.067-11.095z"/><path d="M150.087 676.593a147.84 147.84 0 01-9.127-5.161c-31.671-19.415-49.181-59.053-53.537-121.182-3.8-54.206 2.909-118.659 8.826-175.526 4.56-43.806 8.867-85.187 8.034-116.979-2.265-86.562-49.572-132.669-119.901-175.269l.147-.24c40.133 24.309 66.405 46.198 85.182 70.976 22.385 29.537 33.786 63.728 34.854 104.527.833 31.811-3.474 73.199-8.036 117.016-5.918 56.854-12.622 121.293-8.826 175.475 4.348 62.03 21.815 101.598 53.405 120.961 60.997 37.393 134.841 21.951 206.257 7.016 40.733-8.519 79.208-16.567 113.058-14.171 18.151 1.285 33.396 5.461 46.609 12.77 14.737 8.151 26.668 20.003 36.473 36.228 6.165 10.202 11.862 20.541 17.372 30.542 28.638 51.985 53.37 96.878 122.552 86.153 42.204-6.543 82.114-24.803 120.711-42.461 21.289-9.74 43.302-19.811 65.418-27.781 24.802-8.94 47.129-14.233 68.258-16.187 21.223-1.963 40.198 1.929 56.404 11.562 14.29 8.496 26.47 21.2 37.25 38.843 19.75 32.336 30.41 74.989 38.98 109.261 3.26 13.066 6.48 26.544 9.58 39.577 20.72 86.877 42.13 176.717 100.95 245.287 26.54 30.94 58.6 54.06 93.15 72.01 50.52 26.24 106.39 41.43 158.28 53.88 24 5.76 48.52 11.12 72.23 16.3l.9.2-.06.28-.9-.2c-23.72-5.18-48.24-10.54-72.24-16.3-41.98-10.08-91-23.11-136.35-43.42-48.5-21.73-86.2-48.74-115.22-82.57-58.87-68.61-80.29-158.49-101.01-245.401-3.1-13.033-6.32-26.508-9.58-39.573-8.57-34.253-19.23-76.883-38.95-109.182-22.92-37.52-53.46-53.964-93.386-50.272-47.042 4.348-91.037 24.48-133.585 43.946-38.613 17.665-78.541 35.935-120.783 42.484-24.677 3.825-43.718.596-59.291-7.491-28.21-14.65-45.066-45.254-63.549-78.806-5.509-9.997-11.202-20.335-17.364-30.531-18.52-30.649-44.849-46.173-82.86-48.864-33.811-2.392-72.266 5.65-112.978 14.164-35.16 7.353-71.52 14.957-106.697 16.038-19.007.585-35.893-.762-51.619-4.116-14.13-3.008-26.986-7.556-39.031-13.813z"/></g></svg>