<svg width="129" height="122" fill="none" xmlns="http://www.w3.org/2000/svg"><g clip-path="url(#clip0_1893_13)" fill="#042EFF" fill-opacity=".15"><path d="M5.511 119.247a2.754 2.754 0 01-4.704 1.947A2.754 2.754 0 010 119.247a2.781 2.781 0 012.756-2.784 2.788 2.788 0 012.755 2.784zm17.64 0a2.751 2.751 0 01-1.721 2.522 2.761 2.761 0 01-2.993-.616 2.752 2.752 0 011.959-4.69 2.762 2.762 0 011.96.817 2.751 2.751 0 01.795 1.967zm17.641 0a2.751 2.751 0 01-1.721 2.522 2.761 2.761 0 01-2.993-.616 2.753 2.753 0 013.02-4.478 2.767 2.767 0 011.493 1.509c.137.337.205.698.201 1.063zm17.645 0a2.753 2.753 0 01-3.312 2.667 2.762 2.762 0 01-2.148-2.171 2.753 2.753 0 012.704-3.28 2.762 2.762 0 011.96.817 2.752 2.752 0 01.796 1.967zm17.64 0a2.752 2.752 0 01-1.721 2.522 2.761 2.761 0 01-2.993-.616 2.752 2.752 0 011.959-4.69 2.762 2.762 0 011.959.817 2.753 2.753 0 01.796 1.967zm17.641 0a2.751 2.751 0 01-1.722 2.522 2.761 2.761 0 01-2.992-.616 2.752 2.752 0 011.958-4.69 2.761 2.761 0 011.96.817 2.751 2.751 0 01.796 1.967zm17.641 0a2.755 2.755 0 11-4.284-2.322 2.76 2.76 0 013.487.355 2.76 2.76 0 01.797 1.967zm17.64 0a2.752 2.752 0 01-3.311 2.667 2.758 2.758 0 01-2.149-2.171 2.747 2.747 0 011.177-2.818 2.758 2.758 0 014.082 1.259c.137.337.205.698.201 1.063zM5.511 102.605a2.755 2.755 0 11-5.51-.001 2.755 2.755 0 015.51.001zm17.641 0a2.755 2.755 0 11-5.511-.002 2.755 2.755 0 015.51.002zm17.64 0a2.755 2.755 0 11-5.509-.001 2.755 2.755 0 015.51.001zm17.645 0a2.755 2.755 0 11-5.51-.001 2.755 2.755 0 015.51.001zm17.64 0a2.755 2.755 0 11-5.509-.001 2.755 2.755 0 015.51.001zm17.641 0a2.755 2.755 0 11-5.509-.001 2.755 2.755 0 015.51.001zm17.641 0a2.754 2.754 0 01-3.293 2.701 2.76 2.76 0 01-2.165-2.164 2.75 2.75 0 012.702-3.29 2.756 2.756 0 012.756 2.753zm17.64 0a2.753 2.753 0 01-3.293 2.701 2.761 2.761 0 01-2.165-2.164 2.751 2.751 0 011.172-2.827 2.753 2.753 0 014.286 2.29zM5.511 85.963a2.752 2.752 0 01-3.293 2.7A2.756 2.756 0 01.21 84.91a2.753 2.753 0 013.6-1.49 2.756 2.756 0 011.701 2.544zm17.641 0a2.753 2.753 0 01-3.293 2.7 2.756 2.756 0 01-2.009-3.754 2.753 2.753 0 013.6-1.49 2.756 2.756 0 011.702 2.544zm17.64 0a2.752 2.752 0 01-3.293 2.7 2.756 2.756 0 01-2.008-3.754 2.753 2.753 0 013.6-1.49 2.756 2.756 0 011.701 2.544zm17.645 0a2.752 2.752 0 01-3.293 2.7 2.755 2.755 0 01-2.008-3.754 2.754 2.754 0 014.494-.894 2.754 2.754 0 01.807 1.948zm17.64 0a2.752 2.752 0 01-3.293 2.7 2.755 2.755 0 01-2.008-3.754 2.753 2.753 0 013.6-1.49 2.756 2.756 0 011.701 2.544zm17.641 0a2.752 2.752 0 01-3.293 2.7 2.756 2.756 0 01-2.008-3.754 2.753 2.753 0 013.6-1.49 2.756 2.756 0 011.701 2.544zm17.641 0a2.751 2.751 0 01-1.701 2.544 2.757 2.757 0 01-3.601-3.598 2.757 2.757 0 015.302 1.054zm17.64 0a2.75 2.75 0 01-1.701 2.544 2.755 2.755 0 01-2.585-4.834 2.757 2.757 0 014.286 2.29zM5.511 69.321a2.752 2.752 0 01-3.293 2.7A2.756 2.756 0 01.21 68.268a2.753 2.753 0 012.546-1.7 2.756 2.756 0 012.755 2.754zm17.641 0a2.753 2.753 0 01-3.293 2.7 2.756 2.756 0 01-2.009-3.754 2.753 2.753 0 012.546-1.7 2.757 2.757 0 012.756 2.754zm17.64 0a2.752 2.752 0 01-3.293 2.7 2.756 2.756 0 01-2.008-3.754 2.753 2.753 0 012.546-1.7 2.756 2.756 0 012.755 2.754zm17.645 0a2.752 2.752 0 01-3.293 2.7 2.755 2.755 0 01-2.008-3.754 2.754 2.754 0 014.494-.893c.517.516.807 1.217.807 1.947zm17.64 0a2.752 2.752 0 01-3.293 2.7 2.755 2.755 0 01-2.008-3.754 2.753 2.753 0 012.546-1.7 2.757 2.757 0 012.755 2.754zm17.641 0a2.752 2.752 0 01-3.293 2.7 2.756 2.756 0 01-2.008-3.754 2.753 2.753 0 013.6-1.49 2.756 2.756 0 011.701 2.544zm17.641 0a2.751 2.751 0 01-1.701 2.544 2.757 2.757 0 01-3.601-3.598 2.757 2.757 0 015.302 1.054zm17.64 0a2.75 2.75 0 01-1.701 2.544 2.755 2.755 0 01-2.585-4.834 2.757 2.757 0 014.286 2.29zM5.511 52.679a2.752 2.752 0 01-3.293 2.7A2.756 2.756 0 01.21 51.626a2.754 2.754 0 014.494-.893c.517.516.807 1.217.807 1.947zm17.641.001a2.753 2.753 0 01-3.293 2.7 2.756 2.756 0 01-2.009-3.754 2.753 2.753 0 012.546-1.7 2.757 2.757 0 012.756 2.753zm17.64 0a2.752 2.752 0 01-3.293 2.7 2.756 2.756 0 01-2.008-3.754 2.753 2.753 0 012.546-1.7 2.756 2.756 0 012.755 2.753zm17.645 0a2.752 2.752 0 01-3.293 2.7 2.755 2.755 0 01-2.008-3.754 2.754 2.754 0 014.494-.894c.517.517.807 1.217.807 1.947zm17.64 0a2.752 2.752 0 01-3.293 2.7 2.755 2.755 0 01-2.008-3.754 2.753 2.753 0 012.546-1.7 2.757 2.757 0 012.755 2.753zm17.641 0a2.752 2.752 0 01-3.293 2.7 2.756 2.756 0 01-2.008-3.754 2.753 2.753 0 013.6-1.49 2.756 2.756 0 011.701 2.543zm17.641-.001a2.751 2.751 0 01-1.701 2.544 2.757 2.757 0 01-3.601-3.598 2.758 2.758 0 014.495-.893c.516.516.807 1.217.807 1.947zm17.64.001a2.75 2.75 0 01-1.701 2.544 2.756 2.756 0 01-3.6-3.598 2.757 2.757 0 014.494-.894c.517.517.807 1.217.807 1.947zM5.511 35.918a2.752 2.752 0 01-3.293 2.7A2.756 2.756 0 01.21 34.864a2.754 2.754 0 014.494-.893 2.75 2.75 0 01.807 1.947zm17.641 0a2.753 2.753 0 01-3.293 2.7 2.756 2.756 0 01-2.009-3.754 2.754 2.754 0 012.546-1.7 2.757 2.757 0 012.756 2.754zm17.64 0a2.752 2.752 0 01-3.293 2.7 2.756 2.756 0 01-2.008-3.754 2.754 2.754 0 014.494-.893 2.75 2.75 0 01.807 1.947zm17.645 0a2.752 2.752 0 01-3.293 2.7 2.755 2.755 0 01-2.008-3.754 2.755 2.755 0 015.3 1.054zm17.64 0a2.752 2.752 0 01-3.293 2.7 2.755 2.755 0 01-2.008-3.754 2.754 2.754 0 014.494-.893 2.75 2.75 0 01.807 1.947zm17.641 0a2.752 2.752 0 01-3.293 2.7 2.756 2.756 0 01-2.008-3.754 2.754 2.754 0 013.6-1.49 2.756 2.756 0 011.701 2.544zm17.641 0a2.751 2.751 0 01-1.701 2.544 2.758 2.758 0 01-3.757-2.007 2.75 2.75 0 012.702-3.29 2.758 2.758 0 012.756 2.753zm17.64 0a2.75 2.75 0 01-1.701 2.544 2.756 2.756 0 01-3.6-3.598 2.758 2.758 0 014.494-.893 2.75 2.75 0 01.807 1.947zM5.511 19.395a2.752 2.752 0 01-3.293 2.701A2.757 2.757 0 01.21 18.341a2.754 2.754 0 014.494-.893c.517.517.807 1.217.807 1.947zm17.641 0a2.753 2.753 0 01-3.293 2.701 2.757 2.757 0 01-2.009-3.755 2.753 2.753 0 012.546-1.7 2.757 2.757 0 012.756 2.754zm17.64 0a2.752 2.752 0 01-1.7 2.544 2.758 2.758 0 01-3.758-2.006 2.752 2.752 0 012.703-3.291 2.756 2.756 0 012.755 2.753zm17.645 0a2.752 2.752 0 01-1.701 2.544 2.758 2.758 0 01-3.757-2.006 2.753 2.753 0 012.702-3.291 2.756 2.756 0 012.756 2.753zm17.64 0a2.752 2.752 0 01-1.7 2.544 2.758 2.758 0 01-3.758-2.006 2.751 2.751 0 011.172-2.827 2.757 2.757 0 014.286 2.29zm17.641 0a2.752 2.752 0 01-1.701 2.544 2.758 2.758 0 01-3.757-2.006 2.752 2.752 0 012.703-3.291 2.757 2.757 0 012.755 2.753zm17.641 0a2.751 2.751 0 01-1.701 2.544 2.758 2.758 0 01-3.757-2.006 2.75 2.75 0 012.702-3.291 2.758 2.758 0 012.756 2.753zm17.64 0a2.75 2.75 0 01-1.701 2.544 2.757 2.757 0 01-3.757-2.006 2.751 2.751 0 011.172-2.827 2.757 2.757 0 014.286 2.29zM5.511 2.754a2.752 2.752 0 01-3.293 2.7A2.756 2.756 0 01.21 1.7 2.754 2.754 0 014.704.807a2.75 2.75 0 01.807 1.947zm17.641 0a2.753 2.753 0 01-3.293 2.7A2.756 2.756 0 0117.85 1.7a2.753 2.753 0 013.6-1.49 2.756 2.756 0 011.702 2.544zm17.64 0a2.752 2.752 0 01-3.293 2.7A2.756 2.756 0 0135.491 1.7a2.754 2.754 0 014.494-.893 2.75 2.75 0 01.807 1.947zm17.645 0a2.752 2.752 0 01-3.293 2.7A2.756 2.756 0 0153.136 1.7a2.755 2.755 0 015.3 1.054zm17.64 0a2.752 2.752 0 01-3.293 2.7A2.756 2.756 0 0170.776 1.7 2.754 2.754 0 0173.322 0a2.757 2.757 0 012.755 2.754zm17.641 0a2.752 2.752 0 01-3.293 2.7A2.756 2.756 0 0188.417 1.7 2.753 2.753 0 0190.963 0a2.756 2.756 0 012.755 2.754zm17.641 0a2.751 2.751 0 01-1.701 2.544 2.758 2.758 0 01-3.757-2.007A2.75 2.75 0 01108.603 0a2.758 2.758 0 012.756 2.754zm17.64 0a2.75 2.75 0 01-1.701 2.544 2.756 2.756 0 01-3.6-3.598 2.758 2.758 0 014.494-.893 2.75 2.75 0 01.807 1.947z"/></g><defs><clipPath id="clip0_1893_13"><path fill="#fff" d="M0 0h129v122H0z"/></clipPath></defs></svg>