<svg width="1312" height="1215" fill="none" xmlns="http://www.w3.org/2000/svg"><g clip-path="url(#clip0_1173_20)"><g opacity=".3" filter="url(#filter0_f_1173_20)"><path opacity=".5" d="M570.27 736.176c12.78 19.092 4.922 44.961 20.601 63.163 4.533 4.522 9.23 17.574-8.244 33.6-4.489 25.822-69.208 63.074-63.37 90.351 4.297 20.08 10.845 43.71 36.308 58.703 19.634 11.558 44.68 16.176 67.517 18.717 33.085 3.68 66.388 3.2 96.799-1.993 99.123-16.913 168.574-73.275 217.639-131.321 59.785-70.723 84.01-155.155 83.65-243.652-.14-36.498-5-73.16-19.28-110.199-13.153-34.096-31.309-68.105-53.181-100.954-27.836-41.826-64.112-82.688-112.702-115.779-36.951-25.175-81.708-37.849-128.359-42.523-63.767-6.404-118.012 11.433-150.845 45.25-20.254 20.862-31.343 53.595-2.181 79.846 22.251 20.022 56.88 31.07 86.163 43.962 19.563 8.622 47.068 21.073 46.468 38.431-1.012 29.359-17.751 57.371-33.704 82.063-20.379 31.544-53.758 55.603-80.59 83.71-15.453 16.187-18.704 37.086-18.668 57.869.035 16.706 5.027 34.384 15.979 50.756z" fill="#00F0FF" fill-opacity=".6"/></g><g opacity=".4" filter="url(#filter1_f_1173_20)"><path opacity=".5" d="M716.901 736.176c-12.779 19.092-4.921 44.961-20.6 63.163-4.534 4.522-9.231 17.574 8.243 33.6 4.489 25.822 69.208 63.074 63.371 90.351-4.297 20.08-10.846 43.71-36.309 58.703-19.633 11.556-44.679 16.176-67.517 18.717-33.084 3.68-66.387 3.2-96.798-1.991-99.123-16.915-168.575-73.277-217.639-131.323-59.786-70.723-84.005-155.155-83.648-243.652.145-36.498 5.005-73.16 19.282-110.199 13.149-34.096 31.305-68.105 53.176-100.954 27.836-41.826 64.113-82.688 112.703-115.779 36.95-25.175 81.707-37.849 128.358-42.523 63.767-6.404 118.012 11.433 150.845 45.25 20.254 20.862 31.344 53.595 2.181 79.846-22.25 20.022-56.88 31.07-86.162 43.962-19.564 8.622-47.068 21.073-46.468 38.431 1.012 29.359 17.75 57.371 33.703 82.063 20.38 31.544 53.758 55.603 80.59 83.71 15.454 16.187 18.705 37.086 18.668 57.869-.034 16.706-5.027 34.384-15.979 50.756z" fill="#FF1CF7" fill-opacity=".8"/></g></g><defs><filter id="filter0_f_1173_20" x="268.885" y="3" width="1002.29" height="1250.11" filterUnits="userSpaceOnUse" color-interpolation-filters="sRGB"><feFlood flood-opacity="0" result="BackgroundImageFix"/><feBlend in="SourceGraphic" in2="BackgroundImageFix" result="shape"/><feGaussianBlur stdDeviation="125" result="effect1_foregroundBlur_1173_20"/></filter><filter id="filter1_f_1173_20" x="16" y="3" width="1002.29" height="1250.1" filterUnits="userSpaceOnUse" color-interpolation-filters="sRGB"><feFlood flood-opacity="0" result="BackgroundImageFix"/><feBlend in="SourceGraphic" in2="BackgroundImageFix" result="shape"/><feGaussianBlur stdDeviation="125" result="effect1_foregroundBlur_1173_20"/></filter><clipPath id="clip0_1173_20"><path fill="#fff" d="M0 0h1312v1215H0z"/></clipPath></defs></svg>