<svg width="763" height="365" fill="none" xmlns="http://www.w3.org/2000/svg"><path d="M779 0a387.99 387.99 0 00-54.396 10.405c-85.427 22.68-164.994 72.182-238.242 131.517-101.979 82.602-196.342 186.665-312.826 230.186-57.053 21.301-117.805 27.344-172.265 57.194L0 430h779V0z" fill="url(#paint0_linear_249_968)"/><path d="M779 143.207a385.602 385.602 0 00-111.934 7.493c-72.379 15.392-139.883 48.978-201.977 89.233-86.474 56.065-166.472 126.648-265.225 156.227C155.788 409.321 108.958 413.911 66 430h713V143.207z" fill="url(#paint1_linear_249_968)"/><defs><linearGradient id="paint0_linear_249_968" x1="-64.82" y1="1426.5" x2="979.639" y2="-45.154" gradientUnits="userSpaceOnUse"><stop stop-opacity="0"/><stop offset=".19" stop-color="#000204" stop-opacity=".03"/><stop offset=".36" stop-color="#00060F" stop-opacity=".11"/><stop offset=".53" stop-color="#000F21" stop-opacity=".25"/><stop offset=".69" stop-color="#001A3B" stop-opacity=".44"/><stop offset=".84" stop-color="#00295C" stop-opacity=".69"/><stop offset=".99" stop-color="#003B84" stop-opacity=".99"/><stop offset="1" stop-color="#003C86"/></linearGradient><linearGradient id="paint1_linear_249_968" x1="25.341" y1="1127.13" x2="670.121" y2="-8.099" gradientUnits="userSpaceOnUse"><stop stop-opacity="0"/><stop offset=".19" stop-color="#000204" stop-opacity=".03"/><stop offset=".36" stop-color="#00060F" stop-opacity=".11"/><stop offset=".53" stop-color="#000F21" stop-opacity=".25"/><stop offset=".69" stop-color="#001A3B" stop-opacity=".44"/><stop offset=".84" stop-color="#00295C" stop-opacity=".69"/><stop offset=".99" stop-color="#003B84" stop-opacity=".99"/><stop offset="1" stop-color="#003C86"/></linearGradient></defs></svg>