<svg width="70" height="34" fill="none" xmlns="http://www.w3.org/2000/svg"><path d="M34.854 12.245c-3.35 0-5-3-6.42-5.7-1.32-2.45-2.57-4.77-4.87-4.77-2.3 0-3.54 2.32-4.87 4.77-1.44 2.67-3.07 5.7-6.42 5.7s-5-3-6.43-5.7c-1.32-2.45-2.57-4.77-4.86-4.77a.89.89 0 110-1.77c3.35 0 5 3 6.42 5.7 1.32 2.45 2.57 4.77 4.87 4.77 2.3 0 3.54-2.32 4.87-4.77 1.44-2.67 3.07-5.7 6.42-5.7s5 3 6.43 5.7c1.32 2.45 2.57 4.77 4.86 4.77a.89.89 0 110 1.77zm22.59 21c-3.35 0-5-3-6.42-5.7-1.33-2.45-2.58-4.77-4.87-4.77s-3.55 2.32-4.87 4.77c-1.44 2.67-3.07 5.7-6.43 5.7s-5-3-6.42-5.7c-1.32-2.45-2.57-4.77-4.87-4.77-2.3 0-3.54 2.32-4.87 4.77-1.44 2.67-3.07 5.7-6.42 5.7s-5-3-6.43-5.7c-1.32-2.45-2.57-4.77-4.86-4.77a.89.89 0 110-1.77c3.35 0 5 3 6.42 5.7 1.32 2.45 2.57 4.77 4.87 4.77 2.3 0 3.54-2.32 4.87-4.77 1.44-2.67 3.07-5.7 6.42-5.7s5 3 6.43 5.7c1.32 2.45 2.57 4.77 4.86 4.77 2.29 0 3.55-2.32 4.87-4.77 1.44-2.67 3.08-5.7 6.43-5.7 3.35 0 5 3 6.42 5.7 1.33 2.45 2.58 4.77 4.87 4.77s3.55-2.32 4.87-4.77c1.44-2.67 3.08-5.7 6.43-5.7a.89.89 0 010 1.77c-2.3 0-3.55 2.32-4.87 4.77-1.44 2.67-3.08 5.7-6.43 5.7z" fill="#fff" opacity=".8"/></svg>