<svg width="650" height="785" fill="none" xmlns="http://www.w3.org/2000/svg"><path d="M13.337 680.884c53.837 7.458 105.778-33.937 124.29-84.985 18.512-51.049 9.606-108.308-8.958-159.328-16.887-46.41-41.802-96.092-25.193-142.617 12.625-35.517 47.351-58.991 83.125-70.937 35.774-11.947 73.828-14.757 110.618-23.246 36.79-8.488 74.079-24.168 96.26-54.667 27.781-38.192 25.534-89.73 22.124-136.821" stroke="url(#paint0_linear_1893_10)" stroke-width="8.043" stroke-miterlimit="10"/><path d="M114.727 742.098c48.62-18.662 70.364-70.118 80.485-117.421 16.081-75.61 15.252-153.539-2.439-229.13-14.432-61.509-39.054-129.271-5.034-183.539 28.038-44.787 88.041-64.294 144.539-69.38 56.499-5.086 114.185.667 169.689-9.777 55.504-10.443 111.52-42.82 122.938-93.543" stroke="url(#paint1_linear_1893_10)" stroke-width="4.022" stroke-miterlimit="10"/><defs><linearGradient id="paint0_linear_1893_10" x1="414.296" y1="-49.498" x2="29.644" y2="693.756" gradientUnits="userSpaceOnUse"><stop stop-color="#FF0766"/><stop offset="1" stop-color="#FF7E5D" stop-opacity="0"/></linearGradient><linearGradient id="paint1_linear_1893_10" x1="69.159" y1="689.794" x2="880.386" y2="-57.367" gradientUnits="userSpaceOnUse"><stop stop-color="#fff"/><stop offset="1" stop-color="#AFAFAF" stop-opacity="0"/></linearGradient></defs></svg>