<svg width="66" height="58" fill="none" xmlns="http://www.w3.org/2000/svg"><path d="M66 29.292v3.354c-.04.142-.101.28-.115.424-.313 3.283-1.276 6.376-3.073 9.129-.753 1.152-.82 2.086-.378 3.347 1.136 3.24 2.12 6.532 3.154 9.805.393 1.248-.15 2.409-1.319 2.62-.502.091-1.122-.038-1.588-.27a724.042 724.042 0 01-10.502-5.333c-.505-.26-.914-.271-1.435-.065-4.489 1.786-9.142 2.309-13.908 1.59-5.644-.852-10.54-3.253-14.595-7.313a1.34 1.34 0 00-.714-.363c-2.138-.284-4.218-.805-6.208-1.622-.605-.248-1.053-.198-1.609.09a725.916 725.916 0 01-10.388 5.273c-.467.233-1.088.365-1.588.274C.54 50.017.012 48.856.424 47.56c1.16-3.662 2.32-7.325 3.505-10.978.14-.432.11-.74-.15-1.119C2.289 33.28 1.206 30.904.62 28.32.363 27.193.203 26.046 0 24.907v-3.225c.038-.184.095-.366.112-.552a21.213 21.213 0 012.547-8.31C7.805 3.4 18.812-1.323 29.262.323c5.613.884 10.479 3.282 14.52 7.314.179.18.467.312.72.346 2.764.373 5.42 1.118 7.918 2.358 6.454 3.208 10.931 8.126 12.865 15.173.337 1.231.481 2.516.715 3.777zm-5.483 22.989c-.088-.329-.134-.533-.198-.733-.745-2.352-1.464-4.713-2.258-7.048-.352-1.037-.223-1.866.44-2.754 4.91-6.57 4.825-15.294-.172-21.798-7.68-10-23.407-11.209-32.653-2.508-3.712 3.494-5.909 7.75-6.051 12.884-.186 6.635 2.643 11.916 7.963 15.7 7.033 5.005 14.667 5.577 22.605 2.31.983-.404 1.804-.426 2.746.073 2.462 1.304 4.959 2.542 7.578 3.874zM37.948 7.815c-.122-.094-.184-.151-.254-.197a19.513 19.513 0 00-.595-.386c-3.073-1.883-6.404-2.983-9.996-3.261-6.09-.473-11.588 1.089-16.314 4.999-7.91 6.543-9.173 17.34-3.147 25.25.529.695.648 1.402.38 2.233-.815 2.51-1.604 5.028-2.398 7.545-.045.143-.059.296-.103.526 2.597-1.322 5.115-2.57 7.595-3.886.928-.491 1.758-.497 2.686-.04.817.4 1.693.675 2.563 1.012.022-.127.033-.15.027-.163a44.79 44.79 0 00-.278-.578c-2.864-5.8-3.273-11.776-.875-17.78 3.054-7.646 8.893-12.229 16.698-14.432 1.292-.365 2.635-.556 4.011-.842z" fill="url(#paint0_linear_1567_1944)" fill-opacity=".2"/><path d="M32.988 29.036a1.956 1.956 0 011.942 1.906 1.951 1.951 0 01-1.954 1.959 1.95 1.95 0 01-1.908-1.939 1.948 1.948 0 011.92-1.926z" fill="url(#paint1_linear_1567_1944)" fill-opacity=".2"/><path d="M50.397 30.964a1.957 1.957 0 01-1.91 1.938c-1.07.012-1.965-.889-1.952-1.96a1.947 1.947 0 011.94-1.905 1.951 1.951 0 011.922 1.927z" fill="url(#paint2_linear_1567_1944)" fill-opacity=".2"/><path d="M40.717 29.036a1.955 1.955 0 011.948 1.902c.017 1.069-.88 1.975-1.95 1.965a1.952 1.952 0 01-1.912-1.935c0-1.048.868-1.925 1.914-1.932z" fill="url(#paint3_linear_1567_1944)" fill-opacity=".2"/><defs><linearGradient id="paint0_linear_1567_1944" x1="85" y1="-25.5" x2="1.5" y2="63.5" gradientUnits="userSpaceOnUse"><stop stop-color="#fff"/><stop offset="1" stop-color="#fff" stop-opacity="0"/></linearGradient><linearGradient id="paint1_linear_1567_1944" x1="36.042" y1="27.336" x2="30.478" y2="32.543" gradientUnits="userSpaceOnUse"><stop stop-color="#fff"/><stop offset="1" stop-color="#fff" stop-opacity="0"/></linearGradient><linearGradient id="paint2_linear_1567_1944" x1="51.509" y1="27.338" x2="45.945" y2="32.545" gradientUnits="userSpaceOnUse"><stop stop-color="#fff"/><stop offset="1" stop-color="#fff" stop-opacity="0"/></linearGradient><linearGradient id="paint3_linear_1567_1944" x1="43.777" y1="27.335" x2="38.211" y2="32.543" gradientUnits="userSpaceOnUse"><stop stop-color="#fff"/><stop offset="1" stop-color="#fff" stop-opacity="0"/></linearGradient></defs></svg>