<svg width="80" height="108" fill="none" xmlns="http://www.w3.org/2000/svg"><g clip-path="url(#clip0_1929_4)"><path d="M44.48 104.42a1.484 1.484 0 011.367.914 1.479 1.479 0 01-2.598 1.388 1.478 1.478 0 01.184-1.869 1.482 1.482 0 011.047-.433zm0-14.92a1.48 1.48 0 110 2.96 1.48 1.48 0 010-2.96z" fill="#E5575E"/><path d="M44.48 77.54a1.48 1.48 0 100-2.96 1.48 1.48 0 000 2.96zm0-14.91a1.48 1.48 0 100-2.96 1.48 1.48 0 000 2.96zm0-14.92a1.48 1.48 0 100-2.96 1.48 1.48 0 000 2.96zm0-14.92a1.48 1.48 0 100-2.96 1.48 1.48 0 000 2.96zm0-14.91a1.48 1.48 0 100-2.96 1.48 1.48 0 000 2.96zm0-14.92a1.48 1.48 0 100-2.96 1.48 1.48 0 000 2.96z" fill="#E4E4E4"/><path d="M55.78 104.42a1.485 1.485 0 011.368.914 1.48 1.48 0 11-2.847.566 1.47 1.47 0 011.48-1.48zm0-14.92a1.481 1.481 0 011.053 2.52A1.48 1.48 0 0154.299 91a1.47 1.47 0 011.48-1.5z" fill="#E5575E"/><path d="M55.78 77.54a1.48 1.48 0 100-2.96 1.48 1.48 0 000 2.96zm0-14.91a1.48 1.48 0 100-2.96 1.48 1.48 0 000 2.96zm0-14.92a1.48 1.48 0 100-2.96 1.48 1.48 0 000 2.96zm0-14.92a1.48 1.48 0 100-2.96 1.48 1.48 0 000 2.96zm0-14.91a1.48 1.48 0 100-2.96 1.48 1.48 0 000 2.96zm0-14.92a1.48 1.48 0 100-2.96 1.48 1.48 0 000 2.96z" fill="#E4E4E4"/><path d="M67.07 104.42a1.485 1.485 0 011.367.914 1.48 1.48 0 11-1.367-.914zm0-14.92a1.48 1.48 0 110 2.959 1.48 1.48 0 010-2.959z" fill="#E5575E"/><path d="M67.07 74.59a1.48 1.48 0 11-1.48 1.47 1.47 1.47 0 011.48-1.47zm0-14.92a1.48 1.48 0 110 2.96 1.48 1.48 0 010-2.96zm0-14.92a1.48 1.48 0 110 2.96 1.48 1.48 0 010-2.96zm0-14.92a1.48 1.48 0 110 2.96 1.48 1.48 0 010-2.96zm0-14.91a1.48 1.48 0 110 2.96 1.48 1.48 0 010-2.96zm0-14.92a1.48 1.48 0 110 2.96 1.48 1.48 0 010-2.96z" fill="#E4E4E4"/><path d="M78.37 104.42a1.485 1.485 0 011.368.914 1.48 1.48 0 11-1.367-.914zm0-14.92a1.48 1.48 0 110 2.959 1.48 1.48 0 010-2.959z" fill="#E5575E"/><path d="M78.37 74.59a1.48 1.48 0 11-1.48 1.47 1.47 1.47 0 011.48-1.47zm0-14.92a1.48 1.48 0 110 2.96 1.48 1.48 0 010-2.96zm0-14.92a1.48 1.48 0 110 2.96 1.48 1.48 0 010-2.96zm0-14.92a1.48 1.48 0 110 2.961 1.48 1.48 0 010-2.96zm0-14.91a1.48 1.48 0 110 2.96 1.48 1.48 0 010-2.96zm0-14.92a1.48 1.48 0 110 2.96 1.48 1.48 0 010-2.96z" fill="#E4E4E4"/></g><g clip-path="url(#clip1_1929_4)"><path d="M1.48 104.42a1.485 1.485 0 011.367.914 1.48 1.48 0 11-1.367-.914zm0-14.92a1.48 1.48 0 110 2.959 1.48 1.48 0 010-2.959z" fill="#E5575E"/><path d="M1.48 77.54a1.48 1.48 0 100-2.96 1.48 1.48 0 000 2.96zm0-14.91a1.48 1.48 0 100-2.96 1.48 1.48 0 000 2.96zm0-14.92a1.48 1.48 0 100-2.96 1.48 1.48 0 000 2.96zm0-14.92a1.48 1.48 0 100-2.96 1.48 1.48 0 000 2.96zm0-14.91a1.48 1.48 0 100-2.96 1.48 1.48 0 000 2.96zm0-14.92a1.48 1.48 0 100-2.96 1.48 1.48 0 000 2.96z" fill="#E4E4E4"/><path d="M12.78 104.42a1.485 1.485 0 011.368.914 1.48 1.48 0 11-2.847.566 1.47 1.47 0 011.48-1.48zm0-14.92a1.481 1.481 0 011.053 2.52A1.48 1.48 0 0111.299 91a1.47 1.47 0 011.48-1.5z" fill="#E5575E"/><path d="M12.78 77.54a1.48 1.48 0 100-2.96 1.48 1.48 0 000 2.96zm0-14.91a1.48 1.48 0 100-2.96 1.48 1.48 0 000 2.96zm0-14.92a1.48 1.48 0 100-2.96 1.48 1.48 0 000 2.96zm0-14.92a1.48 1.48 0 100-2.96 1.48 1.48 0 000 2.96zm0-14.91a1.48 1.48 0 100-2.96 1.48 1.48 0 000 2.96zm0-14.92a1.48 1.48 0 100-2.96 1.48 1.48 0 000 2.96z" fill="#E4E4E4"/><path d="M24.07 104.42a1.485 1.485 0 011.367.914 1.48 1.48 0 11-1.367-.914zm0-14.92a1.48 1.48 0 110 2.959 1.48 1.48 0 010-2.959z" fill="#E5575E"/><path d="M24.07 74.59a1.48 1.48 0 11-1.48 1.47 1.47 1.47 0 011.48-1.47zm0-14.92a1.48 1.48 0 110 2.96 1.48 1.48 0 010-2.96zm0-14.92a1.48 1.48 0 110 2.96 1.48 1.48 0 010-2.96zm0-14.92a1.48 1.48 0 110 2.96 1.48 1.48 0 010-2.96zm0-14.91a1.48 1.48 0 110 2.96 1.48 1.48 0 010-2.96zm0-14.92a1.48 1.48 0 110 2.96 1.48 1.48 0 010-2.96z" fill="#E4E4E4"/><path d="M35.37 104.42a1.485 1.485 0 011.368.914 1.48 1.48 0 11-1.367-.914zm0-14.92a1.48 1.48 0 110 2.959 1.48 1.48 0 010-2.959z" fill="#E5575E"/><path d="M35.37 74.59a1.48 1.48 0 11-1.48 1.47 1.47 1.47 0 011.48-1.47zm0-14.92a1.48 1.48 0 110 2.96 1.48 1.48 0 010-2.96zm0-14.92a1.48 1.48 0 110 2.96 1.48 1.48 0 010-2.96zm0-14.92a1.48 1.48 0 110 2.961 1.48 1.48 0 010-2.96zm0-14.91a1.48 1.48 0 110 2.96 1.48 1.48 0 010-2.96zm0-14.92a1.48 1.48 0 110 2.96 1.48 1.48 0 010-2.96z" fill="#E4E4E4"/></g><defs><clipPath id="clip0_1929_4"><path fill="#fff" transform="translate(43)" d="M0 0h36.85v107.38H0z"/></clipPath><clipPath id="clip1_1929_4"><path fill="#fff" d="M0 0h36.85v107.38H0z"/></clipPath></defs></svg>