<svg width="74" height="76" fill="none" xmlns="http://www.w3.org/2000/svg"><path d="M53.903 75.258a7.376 7.376 0 005.29-2.19L69.22 63.005a3.719 3.719 0 000-5.235l-14.8-14.849a3.693 3.693 0 00-5.216 0l-5.92 5.903a27.9 27.9 0 01-11.098-5.903 28.321 28.321 0 01-5.883-11.138l5.883-5.94a3.719 3.719 0 000-5.235L17.388 5.758a3.693 3.693 0 00-5.216 0l-9.99 10.098A7.426 7.426 0 000 21.166a56.829 56.829 0 0015.908 38.127 56.43 56.43 0 0037.995 15.965zM14.798 13.666l9.583 9.615-4.773 4.79a3.714 3.714 0 00-1.11 3.378 37.62 37.62 0 008.51 16.707 37.245 37.245 0 0016.648 8.539 3.686 3.686 0 003.366-1.003l4.773-4.9 9.582 9.615-7.4 7.425A49.044 49.044 0 0121.162 54.06 49.39 49.39 0 017.399 21.09l7.4-7.425zm51.795 20.753h7.4a32.82 32.82 0 00-2.34-12.9 32.718 32.718 0 00-7.2-10.941A32.584 32.584 0 0053.55 3.353a32.493 32.493 0 00-12.854-2.347V8.43c3.433-.12 6.853.472 10.049 1.735a25.038 25.038 0 018.527 5.612 25.142 25.142 0 015.592 8.557 25.213 25.213 0 011.729 10.084z" fill="url(#paint0_linear_1567_1793)" fill-opacity=".3"/><path d="M40.695 23.282c7.77 0 11.1 3.341 11.1 11.138h7.398c0-11.955-6.585-18.563-18.498-18.563v7.425z" fill="url(#paint1_linear_1567_1793)" fill-opacity=".3"/><defs><linearGradient id="paint0_linear_1567_1793" x1="73" y1="-13.502" x2="-6.5" y2="105.998" gradientUnits="userSpaceOnUse"><stop stop-color="#fff" stop-opacity=".42"/><stop offset=".832" stop-color="#1949F3"/></linearGradient><linearGradient id="paint1_linear_1567_1793" x1="58.943" y1="12.232" x2="39.071" y2="42.104" gradientUnits="userSpaceOnUse"><stop stop-color="#fff" stop-opacity=".42"/><stop offset=".832" stop-color="#1949F3"/></linearGradient></defs></svg>