<svg width="55" height="40" fill="none" xmlns="http://www.w3.org/2000/svg"><path d="M15.771 13.976c1.29.557 2.583.98 3.744 1.643 4.45 2.537 6.833 7.822 5.946 12.994-.876 5.119-4.845 9.227-9.793 10.216C8.233 40.315 2.064 35.029.95 28.352c-.609-3.644-.074-7.24.932-10.742C4.264 9.32 9.734 4.052 17.672 1.276c.433-.152.883-.3 1.334-.343 1.15-.107 2.029.395 2.547 1.431.516 1.036.366 2.037-.348 2.948-.781 1-1.592 1.978-2.333 3.007a26.393 26.393 0 00-3.1 5.657zm29.223-.017c1.376.587 2.636.991 3.767 1.633 4.46 2.527 6.924 7.81 6.066 12.819-.919 5.355-4.79 9.415-9.892 10.424-7.292 1.443-13.305-3.664-14.604-10.146-.51-2.544-.26-5.087.125-7.613.674-4.436 2.266-8.49 5.1-11.984C38.82 5.067 43.02 2.497 47.903 1.02c1.081-.328 2.225.156 2.85 1.128.637.988.561 2.168-.178 3.145-1.048 1.381-2.164 2.72-3.1 4.176-.934 1.452-1.682 3.026-2.481 4.489z" fill="#BDBDBD" fill-opacity=".2"/></svg>