<svg width="145" height="22" fill="none" xmlns="http://www.w3.org/2000/svg"><path d="M21.88 0H0v22h21.88V0z" fill="#F8B800"/><path d="M10.94 14.825l3.327-.847 1.39 4.308-4.718-3.46zm7.658-5.568H12.74l-1.8-5.546-1.801 5.546H3.28l4.741 3.437-1.8 5.546 4.74-3.437 2.918-2.109 4.718-3.437z" fill="#fff"/><path d="M52.568 0h-21.88v22h21.88V0z" fill="#F8B800"/><path d="M41.627 14.825l3.328-.847 1.39 4.308-4.718-3.46zm7.658-5.568h-5.857L41.627 3.71l-1.8 5.546h-5.858l4.74 3.437-1.8 5.546 4.74-3.437 2.918-2.109 4.718-3.437z" fill="#fff"/><path d="M83.255 0h-21.88v22h21.88V0z" fill="#F8B800"/><path d="M72.316 14.825l3.328-.847 1.39 4.308-4.718-3.46zm7.659-5.568h-5.858l-1.8-5.546-1.801 5.546h-5.858l4.741 3.437-1.8 5.546 4.74-3.437 2.918-2.109 4.718-3.437z" fill="#fff"/><path d="M113.943 0h-21.88v22h21.88V0z" fill="#F8B800"/><path d="M103.004 14.825l3.328-.847 1.39 4.308-4.718-3.46zm7.658-5.568h-5.858l-1.8-5.546-1.801 5.546h-5.857l4.74 3.437-1.8 5.546 4.741-3.437 2.917-2.109 4.718-3.437z" fill="#fff"/><path d="M144.631 0h-21.88v22h21.88V0z" fill="#F8B800"/><path d="M133.69 14.825l3.328-.847 1.39 4.308-4.718-3.46zm7.659-5.568h-5.858L133.69 3.71l-1.8 5.546h-5.858l4.741 3.437-1.801 5.546 4.741-3.437 2.918-2.109 4.718-3.437z" fill="#fff"/></svg>