<svg width="646" height="894" fill="none" xmlns="http://www.w3.org/2000/svg"><g style="mix-blend-mode:soft-light" fill-rule="evenodd" clip-rule="evenodd"><path d="M-95.631 870.4l-178.36-106.927L335.258-332.275l178.36 106.928L-95.632 870.4z" fill="url(#paint0_radial_1233_273)"/><path d="M323.915-403.093l113.1 67.804-652.391 1173.343-113.1-67.804L323.915-403.093z" fill="url(#paint1_radial_1233_273)"/><path d="M378.38-370.712L646-210.272-6.391 963.071l-267.62-160.44L378.38-370.712z" fill="url(#paint2_radial_1233_273)"/><path d="M-287.188 792.493l-178.36-106.928 609.25-1095.747 178.36 106.928-609.25 1095.747z" fill="url(#paint3_radial_1233_273)"/><path d="M132.359-481l113.099 67.804-652.39 1173.343-113.1-67.804L132.359-481z" fill="url(#paint4_radial_1233_273)"/><path d="M186.824-448.62l267.619 160.441-652.391 1173.343-267.619-160.441L186.824-448.62z" fill="url(#paint5_radial_1233_273)"/><path d="M-83.369 1018.91l178.36-106.927-609.25-1095.747-178.36 106.928 609.25 1095.746z" fill="url(#paint6_radial_1233_273)"/><path d="M-502.915-254.582l-113.1 67.804L36.375 986.565l113.101-67.803-652.391-1173.344z" fill="url(#paint7_radial_1233_273)"/><path d="M-557.38-222.201L-825-61.761l652.391 1173.341 267.62-160.438L-557.38-222.201z" fill="url(#paint8_radial_1233_273)"/><path d="M172.665 974.601l178.36-106.928-609.25-1095.747-178.36 106.928 609.25 1095.747z" fill="url(#paint9_radial_1233_273)"/><path d="M-246.881-298.892l-113.1 67.804L292.41 942.255l113.1-67.804-652.391-1173.343z" fill="url(#paint10_radial_1233_273)"/><path d="M-330.888-319.644l-267.62 160.44L83.425 1067.27l267.62-160.438-681.933-1226.476z" fill="url(#paint11_radial_1233_273)"/><path d="M424.202-342.371l-1.625-.974-713.468 1283.19 1.625.974 713.468-1283.19z" fill="url(#paint12_linear_1233_273)"/><path d="M419.275-345.296l-1.625-.974-713.468 1283.19 1.625.974 713.468-1283.19z" fill="url(#paint13_linear_1233_273)"/><path d="M414.353-348.214l-1.624-.974-713.469 1283.19 1.625.974 713.468-1283.19z" fill="url(#paint14_linear_1233_273)"/><path d="M409.663-351.137l-1.625-.974-713.468 1283.19 1.624.974 713.469-1283.19z" fill="url(#paint15_linear_1233_273)"/><path d="M404.975-354.06l-1.624-.974L-310.12 928.16l1.625.974L404.975-354.06z" fill="url(#paint16_linear_1233_273)"/><path d="M400.051-356.979l-1.624-.974-713.468 1283.191 1.624.974L400.051-356.979z" fill="url(#paint17_linear_1233_273)"/><path d="M395.124-359.657l-1.625-.974-713.468 1283.19 1.624.974 713.469-1283.19z" fill="url(#paint18_linear_1233_273)"/><path d="M390.435-362.58l-1.624-.974-713.469 1283.19 1.625.974L390.435-362.58z" fill="url(#paint19_linear_1233_273)"/><path d="M385.748-365.503l-1.625-.974-713.468 1283.19 1.625.974 713.468-1283.19z" fill="url(#paint20_linear_1233_273)"/><path d="M380.824-368.421l-1.625-.974-713.468 1283.19 1.624.974 713.469-1283.19z" fill="url(#paint21_linear_1233_273)"/><path d="M376.135-371.344l-1.624-.974-713.469 1283.19 1.625.974 713.468-1283.19z" fill="url(#paint22_linear_1233_273)"/><path d="M371.214-374.267l-1.624-.974-713.471 1283.195 1.625.974 713.47-1283.195z" fill="url(#paint23_linear_1233_273)"/><path d="M366.286-377.187l-1.625-.974-713.468 1283.19 1.625.974 713.468-1283.19z" fill="url(#paint24_linear_1233_273)"/><path d="M361.597-379.864l-1.624-.974-713.469 1283.191 1.625.973 713.468-1283.19z" fill="url(#paint25_linear_1233_273)"/><path d="M356.908-382.787l-1.625-.974-713.468 1283.19 1.625.974 713.468-1283.19z" fill="url(#paint26_linear_1233_273)"/><path d="M351.752-385.462l-1.625-.974-713.468 1283.19 1.624.974 713.469-1283.19z" fill="url(#paint27_linear_1233_273)"/><path d="M130.459-364.801l-1.625-.974-713.471 1283.194 1.625.974L130.459-364.801z" fill="url(#paint28_linear_1233_273)"/><path d="M125.531-367.722l-1.625-.974-713.468 1283.19 1.625.974 713.468-1283.19z" fill="url(#paint29_linear_1233_273)"/><path d="M120.609-370.644l-1.625-.974-713.468 1283.19 1.625.974 713.468-1283.19z" fill="url(#paint30_linear_1233_273)"/><path d="M115.919-373.563l-1.625-.974-713.468 1283.19 1.624.974 713.469-1283.19z" fill="url(#paint31_linear_1233_273)"/><path d="M111.23-376.486l-1.625-.974-713.468 1283.19 1.625.974L111.23-376.486z" fill="url(#paint32_linear_1233_273)"/><path d="M106.311-379.409l-1.624-.974-713.469 1283.191 1.625.973 713.468-1283.19z" fill="url(#paint33_linear_1233_273)"/><path d="M101.381-382.087l-1.624-.974-713.468 1283.19 1.624.974 713.468-1283.19z" fill="url(#paint34_linear_1233_273)"/><path d="M96.695-385.01l-1.625-.974L-618.4 897.21l1.624.974L96.694-385.01z" fill="url(#paint35_linear_1233_273)"/><path d="M92.004-387.929l-1.625-.974L-623.09 894.288l1.624.974L92.004-387.929z" fill="url(#paint36_linear_1233_273)"/><path d="M87.082-390.851l-1.625-.974-713.468 1283.19 1.624.974L87.082-390.851z" fill="url(#paint37_linear_1233_273)"/><path d="M82.391-393.77l-1.624-.974-713.469 1283.19 1.625.974L82.391-393.77z" fill="url(#paint38_linear_1233_273)"/><path d="M77.47-396.692l-1.625-.974-713.468 1283.19 1.624.974L77.469-396.692z" fill="url(#paint39_linear_1233_273)"/><path d="M72.543-399.617l-1.624-.974-713.468 1283.19 1.624.974L72.543-399.617z" fill="url(#paint40_linear_1233_273)"/><path d="M67.853-402.294l-1.624-.974-713.469 1283.19 1.625.974L67.853-402.294z" fill="url(#paint41_linear_1233_273)"/><path d="M63.167-405.217l-1.624-.974-713.468 1283.19 1.624.974L63.168-405.217z" fill="url(#paint42_linear_1233_273)"/><path d="M58.011-407.892l-1.624-.974-713.468 1283.19 1.624.974L58.011-407.892z" fill="url(#paint43_linear_1233_273)"/><path d="M-259.05-320.25l1.624-.974L456.045 961.971l-1.625.973L-259.05-320.25z" fill="url(#paint44_linear_1233_273)"/><path d="M-254.128-323.168l1.625-.974 713.468 1283.19-1.624.974-713.469-1283.19z" fill="url(#paint45_linear_1233_273)"/><path d="M-249.201-326.093l1.625-.974 713.468 1283.19-1.625.974-713.468-1283.19z" fill="url(#paint46_linear_1233_273)"/><path d="M-244.509-329.012l1.624-.974 713.468 1283.19-1.624.974-713.468-1283.19z" fill="url(#paint47_linear_1233_273)"/><path d="M-239.823-331.935l1.625-.974L475.27 950.281l-1.625.974-713.468-1283.19z" fill="url(#paint48_linear_1233_273)"/><path d="M-234.903-334.857l1.625-.974L480.19 947.359l-1.625.974-713.468-1283.19z" fill="url(#paint49_linear_1233_273)"/><path d="M-229.979-337.533l1.625-.974 713.468 1283.19-1.625.974-713.468-1283.19z" fill="url(#paint50_linear_1233_273)"/><path d="M-225.29-340.456l1.625-.974 713.47 1283.194-1.624.974L-225.29-340.456z" fill="url(#paint51_linear_1233_273)"/><path d="M-220.598-343.375l1.624-.974 713.469 1283.19-1.625.974-713.468-1283.19z" fill="url(#paint52_linear_1233_273)"/><path d="M-215.673-346.3l1.624-.974 713.468 1283.19-1.624.974L-215.673-346.3z" fill="url(#paint53_linear_1233_273)"/><path d="M-210.984-349.219l1.625-.974 713.468 1283.19-1.625.974-713.468-1283.19z" fill="url(#paint54_linear_1233_273)"/><path d="M-206.062-352.141l1.624-.974 713.469 1283.19-1.625.974-713.468-1283.19z" fill="url(#paint55_linear_1233_273)"/><path d="M-713.91-22.497l1.625-.974L1.183 1259.72l-1.625.97L-713.91-22.497z" fill="url(#paint56_linear_1233_273)"/><path d="M-709.218-25.415l1.624-.974L5.874 1256.8l-1.624.97L-709.218-25.415z" fill="url(#paint57_linear_1233_273)"/><path d="M-704.294-28.34l1.625-.974L10.795 1253.88l-1.625.97L-704.294-28.34z" fill="url(#paint58_linear_1233_273)"/><path d="M-699.37-31.258l1.625-.974L15.723 1250.96l-1.624.97L-699.37-31.258z" fill="url(#paint59_linear_1233_273)"/><path d="M-694.683-33.94l1.624-.973L20.409 1248.28l-1.624.97L-694.683-33.94z" fill="url(#paint60_linear_1233_273)"/><path d="M-689.992-36.858l1.625-.974L25.101 1245.36l-1.624.97-713.47-1283.188z" fill="url(#paint61_linear_1233_273)"/><path d="M-684.836-39.54l1.625-.974L30.253 1242.68l-1.624.97L-684.836-39.54z" fill="url(#paint62_linear_1233_273)"/></g><defs><linearGradient id="paint12_linear_1233_273" x1="-289.744" y1="939.896" x2="-286.431" y2="941.728" gradientUnits="userSpaceOnUse"><stop stop-color="#fff" stop-opacity=".271"/><stop offset="1" stop-color="#fff"/></linearGradient><linearGradient id="paint13_linear_1233_273" x1="-295.164" y1="937.861" x2="-291.851" y2="939.694" gradientUnits="userSpaceOnUse"><stop stop-color="#fff" stop-opacity=".271"/><stop offset="1" stop-color="#fff"/></linearGradient><linearGradient id="paint14_linear_1233_273" x1="-299.962" y1="934.716" x2="-296.649" y2="936.548" gradientUnits="userSpaceOnUse"><stop stop-color="#fff" stop-opacity=".271"/><stop offset="1" stop-color="#fff"/></linearGradient><linearGradient id="paint15_linear_1233_273" x1="-304.25" y1="931.07" x2="-300.937" y2="932.903" gradientUnits="userSpaceOnUse"><stop stop-color="#fff" stop-opacity=".271"/><stop offset="1" stop-color="#fff"/></linearGradient><linearGradient id="paint16_linear_1233_273" x1="-309.51" y1="929.178" x2="-306.197" y2="931.01" gradientUnits="userSpaceOnUse"><stop stop-color="#fff" stop-opacity=".271"/><stop offset="1" stop-color="#fff"/></linearGradient><linearGradient id="paint17_linear_1233_273" x1="-314.55" y1="926.466" x2="-311.237" y2="928.298" gradientUnits="userSpaceOnUse"><stop stop-color="#fff" stop-opacity=".271"/><stop offset="1" stop-color="#fff"/></linearGradient><linearGradient id="paint18_linear_1233_273" x1="-319.214" y1="923.315" x2="-315.901" y2="925.147" gradientUnits="userSpaceOnUse"><stop stop-color="#fff" stop-opacity=".271"/><stop offset="1" stop-color="#fff"/></linearGradient><linearGradient id="paint19_linear_1233_273" x1="-323.5" y1="919.67" x2="-320.187" y2="921.502" gradientUnits="userSpaceOnUse"><stop stop-color="#fff" stop-opacity=".271"/><stop offset="1" stop-color="#fff"/></linearGradient><linearGradient id="paint20_linear_1233_273" x1="-328.76" y1="917.777" x2="-325.447" y2="919.61" gradientUnits="userSpaceOnUse"><stop stop-color="#fff" stop-opacity=".271"/><stop offset="1" stop-color="#fff"/></linearGradient><linearGradient id="paint21_linear_1233_273" x1="-333.56" y1="914.632" x2="-330.247" y2="916.464" gradientUnits="userSpaceOnUse"><stop stop-color="#fff" stop-opacity=".271"/><stop offset="1" stop-color="#fff"/></linearGradient><linearGradient id="paint22_linear_1233_273" x1="-337.846" y1="910.986" x2="-334.533" y2="912.819" gradientUnits="userSpaceOnUse"><stop stop-color="#fff" stop-opacity=".271"/><stop offset="1" stop-color="#fff"/></linearGradient><linearGradient id="paint23_linear_1233_273" x1="-342.886" y1="908.274" x2="-339.573" y2="910.106" gradientUnits="userSpaceOnUse"><stop stop-color="#fff" stop-opacity=".271"/><stop offset="1" stop-color="#fff"/></linearGradient><linearGradient id="paint24_linear_1233_273" x1="-347.687" y1="905.128" x2="-344.374" y2="906.961" gradientUnits="userSpaceOnUse"><stop stop-color="#fff" stop-opacity=".271"/><stop offset="1" stop-color="#fff"/></linearGradient><linearGradient id="paint25_linear_1233_273" x1="-352.809" y1="903.231" x2="-349.496" y2="905.063" gradientUnits="userSpaceOnUse"><stop stop-color="#fff" stop-opacity=".271"/><stop offset="1" stop-color="#fff"/></linearGradient><linearGradient id="paint26_linear_1233_273" x1="-357.096" y1="899.585" x2="-353.783" y2="901.418" gradientUnits="userSpaceOnUse"><stop stop-color="#fff" stop-opacity=".271"/><stop offset="1" stop-color="#fff"/></linearGradient><linearGradient id="paint27_linear_1233_273" x1="-362.392" y1="897.158" x2="-359.079" y2="898.99" gradientUnits="userSpaceOnUse"><stop stop-color="#fff" stop-opacity=".271"/><stop offset="1" stop-color="#fff"/></linearGradient><linearGradient id="paint28_linear_1233_273" x1="-583.64" y1="917.753" x2="-580.327" y2="919.585" gradientUnits="userSpaceOnUse"><stop stop-color="#fff" stop-opacity=".271"/><stop offset="1" stop-color="#fff"/></linearGradient><linearGradient id="paint29_linear_1233_273" x1="-588.724" y1="915.121" x2="-585.411" y2="916.953" gradientUnits="userSpaceOnUse"><stop stop-color="#fff" stop-opacity=".271"/><stop offset="1" stop-color="#fff"/></linearGradient><linearGradient id="paint30_linear_1233_273" x1="-593.165" y1="911.335" x2="-589.852" y2="913.167" gradientUnits="userSpaceOnUse"><stop stop-color="#fff" stop-opacity=".271"/><stop offset="1" stop-color="#fff"/></linearGradient><linearGradient id="paint31_linear_1233_273" x1="-598.546" y1="909.652" x2="-595.233" y2="911.484" gradientUnits="userSpaceOnUse"><stop stop-color="#fff" stop-opacity=".271"/><stop offset="1" stop-color="#fff"/></linearGradient><linearGradient id="paint32_linear_1233_273" x1="-603.188" y1="906.648" x2="-599.875" y2="908.481" gradientUnits="userSpaceOnUse"><stop stop-color="#fff" stop-opacity=".271"/><stop offset="1" stop-color="#fff"/></linearGradient><linearGradient id="paint33_linear_1233_273" x1="-607.75" y1="903.085" x2="-604.437" y2="904.917" gradientUnits="userSpaceOnUse"><stop stop-color="#fff" stop-opacity=".271"/><stop offset="1" stop-color="#fff"/></linearGradient><linearGradient id="paint34_linear_1233_273" x1="-612.841" y1="900.705" x2="-609.528" y2="902.537" gradientUnits="userSpaceOnUse"><stop stop-color="#fff" stop-opacity=".271"/><stop offset="1" stop-color="#fff"/></linearGradient><linearGradient id="paint35_linear_1233_273" x1="-617.39" y1="897.528" x2="-614.077" y2="899.36" gradientUnits="userSpaceOnUse"><stop stop-color="#fff" stop-opacity=".271"/><stop offset="1" stop-color="#fff"/></linearGradient><linearGradient id="paint36_linear_1233_273" x1="-622.032" y1="894.525" x2="-618.719" y2="896.357" gradientUnits="userSpaceOnUse"><stop stop-color="#fff" stop-opacity=".271"/><stop offset="1" stop-color="#fff"/></linearGradient><linearGradient id="paint37_linear_1233_273" x1="-627.234" y1="892.104" x2="-623.921" y2="893.936" gradientUnits="userSpaceOnUse"><stop stop-color="#fff" stop-opacity=".271"/><stop offset="1" stop-color="#fff"/></linearGradient><linearGradient id="paint38_linear_1233_273" x1="-631.854" y1="889.055" x2="-628.541" y2="890.888" gradientUnits="userSpaceOnUse"><stop stop-color="#fff" stop-opacity=".271"/><stop offset="1" stop-color="#fff"/></linearGradient><linearGradient id="paint39_linear_1233_273" x1="-637.062" y1="886.646" x2="-633.749" y2="888.478" gradientUnits="userSpaceOnUse"><stop stop-color="#fff" stop-opacity=".271"/><stop offset="1" stop-color="#fff"/></linearGradient><linearGradient id="paint40_linear_1233_273" x1="-641.507" y1="882.858" x2="-638.194" y2="884.691" gradientUnits="userSpaceOnUse"><stop stop-color="#fff" stop-opacity=".271"/><stop offset="1" stop-color="#fff"/></linearGradient><linearGradient id="paint41_linear_1233_273" x1="-646.083" y1="879.978" x2="-642.77" y2="881.81" gradientUnits="userSpaceOnUse"><stop stop-color="#fff" stop-opacity=".271"/><stop offset="1" stop-color="#fff"/></linearGradient><linearGradient id="paint42_linear_1233_273" x1="-651.341" y1="878.086" x2="-648.028" y2="879.918" gradientUnits="userSpaceOnUse"><stop stop-color="#fff" stop-opacity=".271"/><stop offset="1" stop-color="#fff"/></linearGradient><linearGradient id="paint43_linear_1233_273" x1="-655.666" y1="873.904" x2="-652.353" y2="875.736" gradientUnits="userSpaceOnUse"><stop stop-color="#fff" stop-opacity=".271"/><stop offset="1" stop-color="#fff"/></linearGradient><linearGradient id="paint44_linear_1233_273" x1="455.315" y1="962.493" x2="458.62" y2="960.646" gradientUnits="userSpaceOnUse"><stop stop-color="#fff" stop-opacity=".271"/><stop offset="1" stop-color="#fff"/></linearGradient><linearGradient id="paint45_linear_1233_273" x1="459.967" y1="959.083" x2="463.272" y2="957.235" gradientUnits="userSpaceOnUse"><stop stop-color="#fff" stop-opacity=".271"/><stop offset="1" stop-color="#fff"/></linearGradient><linearGradient id="paint46_linear_1233_273" x1="465.18" y1="956.678" x2="468.485" y2="954.831" gradientUnits="userSpaceOnUse"><stop stop-color="#fff" stop-opacity=".271"/><stop offset="1" stop-color="#fff"/></linearGradient><linearGradient id="paint47_linear_1233_273" x1="469.883" y1="953.78" x2="473.188" y2="951.932" gradientUnits="userSpaceOnUse"><stop stop-color="#fff" stop-opacity=".271"/><stop offset="1" stop-color="#fff"/></linearGradient><linearGradient id="paint48_linear_1233_273" x1="474.759" y1="951.198" x2="478.064" y2="949.351" gradientUnits="userSpaceOnUse"><stop stop-color="#fff" stop-opacity=".271"/><stop offset="1" stop-color="#fff"/></linearGradient><linearGradient id="paint49_linear_1233_273" x1="479.482" y1="947.916" x2="482.787" y2="946.068" gradientUnits="userSpaceOnUse"><stop stop-color="#fff" stop-opacity=".271"/><stop offset="1" stop-color="#fff"/></linearGradient><linearGradient id="paint50_linear_1233_273" x1="484.357" y1="945.151" x2="487.663" y2="943.303" gradientUnits="userSpaceOnUse"><stop stop-color="#fff" stop-opacity=".271"/><stop offset="1" stop-color="#fff"/></linearGradient><linearGradient id="paint51_linear_1233_273" x1="489.061" y1="942.252" x2="492.366" y2="940.405" gradientUnits="userSpaceOnUse"><stop stop-color="#fff" stop-opacity=".271"/><stop offset="1" stop-color="#fff"/></linearGradient><linearGradient id="paint52_linear_1233_273" x1="493.758" y1="939.343" x2="497.063" y2="937.495" gradientUnits="userSpaceOnUse"><stop stop-color="#fff" stop-opacity=".271"/><stop offset="1" stop-color="#fff"/></linearGradient><linearGradient id="paint53_linear_1233_273" x1="498.779" y1="936.6" x2="502.084" y2="934.753" gradientUnits="userSpaceOnUse"><stop stop-color="#fff" stop-opacity=".271"/><stop offset="1" stop-color="#fff"/></linearGradient><linearGradient id="paint54_linear_1233_273" x1="503.357" y1="933.48" x2="506.662" y2="931.632" gradientUnits="userSpaceOnUse"><stop stop-color="#fff" stop-opacity=".271"/><stop offset="1" stop-color="#fff"/></linearGradient><linearGradient id="paint55_linear_1233_273" x1="508.094" y1="930.224" x2="511.399" y2="928.376" gradientUnits="userSpaceOnUse"><stop stop-color="#fff" stop-opacity=".271"/><stop offset="1" stop-color="#fff"/></linearGradient><linearGradient id="paint56_linear_1233_273" x1=".543" y1="1260.38" x2="3.848" y2="1258.53" gradientUnits="userSpaceOnUse"><stop stop-color="#fff" stop-opacity=".271"/><stop offset="1" stop-color="#fff"/></linearGradient><linearGradient id="paint57_linear_1233_273" x1="5.005" y1="1257.05" x2="8.31" y2="1255.2" gradientUnits="userSpaceOnUse"><stop stop-color="#fff" stop-opacity=".271"/><stop offset="1" stop-color="#fff"/></linearGradient><linearGradient id="paint58_linear_1233_273" x1="10.099" y1="1254.43" x2="13.404" y2="1252.58" gradientUnits="userSpaceOnUse"><stop stop-color="#fff" stop-opacity=".271"/><stop offset="1" stop-color="#fff"/></linearGradient><linearGradient id="paint59_linear_1233_273" x1="15.234" y1="1251.89" x2="18.539" y2="1250.04" gradientUnits="userSpaceOnUse"><stop stop-color="#fff" stop-opacity=".271"/><stop offset="1" stop-color="#fff"/></linearGradient><linearGradient id="paint60_linear_1233_273" x1="19.546" y1="1248.53" x2="22.851" y2="1246.69" gradientUnits="userSpaceOnUse"><stop stop-color="#fff" stop-opacity=".271"/><stop offset="1" stop-color="#fff"/></linearGradient><linearGradient id="paint61_linear_1233_273" x1="24.49" y1="1246.07" x2="27.795" y2="1244.22" gradientUnits="userSpaceOnUse"><stop stop-color="#fff" stop-opacity=".271"/><stop offset="1" stop-color="#fff"/></linearGradient><linearGradient id="paint62_linear_1233_273" x1="29.39" y1="1242.93" x2="32.695" y2="1241.08" gradientUnits="userSpaceOnUse"><stop stop-color="#fff" stop-opacity=".271"/><stop offset="1" stop-color="#fff"/></linearGradient><radialGradient id="paint0_radial_1233_273" cx="0" cy="0" r="1" gradientUnits="userSpaceOnUse" gradientTransform="matrix(313.0258 -562.98586 180.1439 100.16182 209.123 322.53)"><stop stop-color="#fff"/><stop offset="1" stop-color="#fff" stop-opacity="0"/></radialGradient><radialGradient id="paint1_radial_1233_273" cx="0" cy="0" r="1" gradientUnits="userSpaceOnUse" gradientTransform="rotate(119.075 -55.197 91.109) scale(689.786 220.717)"><stop stop-color="#fff"/><stop offset="1" stop-color="#CDCDCD" stop-opacity="0"/></radialGradient><radialGradient id="paint2_radial_1233_273" cx="0" cy="0" r="1" gradientUnits="userSpaceOnUse" gradientTransform="matrix(-335.19946 602.85342 -192.90058 -107.25687 -66.181 428.945)"><stop stop-color="#fff"/><stop offset="1" stop-color="#CDCDCD" stop-opacity="0"/></radialGradient><radialGradient id="paint3_radial_1233_273" cx="0" cy="0" r="1" gradientUnits="userSpaceOnUse" gradientTransform="matrix(313.03072 -562.98313 180.1439 100.16388 17.467 244.684)"><stop stop-color="#fff"/><stop offset="1" stop-color="#fff" stop-opacity="0"/></radialGradient><radialGradient id="paint4_radial_1233_273" cx="0" cy="0" r="1" gradientUnits="userSpaceOnUse" gradientTransform="rotate(119.075 -128.016 -4.216) scale(689.786 220.717)"><stop stop-color="#fff"/><stop offset="1" stop-color="#CDCDCD" stop-opacity="0"/></radialGradient><radialGradient id="paint5_radial_1233_273" cx="0" cy="0" r="1" gradientUnits="userSpaceOnUse" gradientTransform="matrix(-335.19946 602.85342 -192.90058 -107.25687 -257.594 350.839)"><stop stop-color="#fff"/><stop offset="1" stop-color="#CDCDCD" stop-opacity="0"/></radialGradient><radialGradient id="paint6_radial_1233_273" cx="0" cy="0" r="1" gradientUnits="userSpaceOnUse" gradientTransform="matrix(313.03072 562.98313 -180.1439 100.16388 -388.242 470.816)"><stop stop-color="#fff"/><stop offset="1" stop-color="#fff" stop-opacity="0"/></radialGradient><radialGradient id="paint7_radial_1233_273" cx="0" cy="0" r="1" gradientUnits="userSpaceOnUse" gradientTransform="rotate(-119.075 9.414 217.945) scale(689.786 220.717)"><stop stop-color="#fff"/><stop offset="1" stop-color="#CDCDCD" stop-opacity="0"/></radialGradient><radialGradient id="paint8_radial_1233_273" cx="0" cy="0" r="1" gradientUnits="userSpaceOnUse" gradientTransform="matrix(-335.19946 -602.85342 192.90058 -107.25687 -112.922 577.2)"><stop stop-color="#fff"/><stop offset="1" stop-color="#CDCDCD" stop-opacity="0"/></radialGradient><radialGradient id="paint9_radial_1233_273" cx="0" cy="0" r="1" gradientUnits="userSpaceOnUse" gradientTransform="rotate(60.925 -428.657 100.958) scale(644.157 206.117)"><stop stop-color="#fff"/><stop offset="1" stop-color="#fff" stop-opacity="0"/></radialGradient><radialGradient id="paint10_radial_1233_273" cx="0" cy="0" r="1" gradientUnits="userSpaceOnUse" gradientTransform="rotate(-119.075 124.362 120.462) scale(689.786 220.717)"><stop stop-color="#fff"/><stop offset="1" stop-color="#CDCDCD" stop-opacity="0"/></radialGradient><radialGradient id="paint11_radial_1233_273" cx="0" cy="0" r="1" gradientUnits="userSpaceOnUse" gradientTransform="matrix(-350.3724 -630.14184 201.63256 -112.11204 133.751 516.756)"><stop stop-color="#fff"/><stop offset="1" stop-color="#CDCDCD" stop-opacity="0"/></radialGradient></defs></svg>