<svg width="1920" height="1522" fill="none" xmlns="http://www.w3.org/2000/svg"><path d="M705.511 1105.65c-2.83.92-5.689 1.73-8.581 2.45-14.74 3.64-33.177 1.58-56.362-6.28-20.731-7.03-44.958-18.63-74.065-35.45-54.298-31.39-117.099-76.088-183.592-123.414-77.183-54.933-156.994-111.738-231.68-153.589-84.698-47.461-149.159-67.514-197.073-61.315-143.937 18.629-299.21 171.83-423.974 294.928-46.306 45.69-90.044 88.85-126.398 118.07-40.369 32.45-68.284 45.04-87.854 39.64l.41-1.5c19.051 5.26 46.525-7.24 86.469-39.35 36.293-29.17 80.003-72.3 126.28-117.96 110.502-109.03 244.927-241.66 374.47-283.761 16.913-5.497 33.715-9.443 50.396-11.602 25.542-3.305 56.25.875 91.273 12.424 31.355 10.338 66.276 26.392 106.758 49.077 74.76 41.892 154.607 98.719 231.823 153.678C450.272 989 513.045 1033.68 567.278 1065.03c29.018 16.77 53.153 28.33 73.788 35.32 22.895 7.77 41.047 9.81 55.492 6.24 45.42-11.21 81.403-47.1 109.998-109.705 25.183-55.135 41.241-122.359 56.769-187.372l.243-1.022c17.465-73.123 39.206-158.565 68.027-237.881 29.891-82.26 63.916-148.415 104.015-202.246 42.4-56.908 92.29-103.256 148.32-137.761 54.33-33.467 112.95-54.932 174.22-63.802 25.69-3.719 51.78-4.863 77.52-3.408 24.78 1.404 50.03 5.261 75.06 11.468 47.21 11.703 94.35 31.555 144.11 60.695 99.83 58.448 194.53 146.252 273.99 224.434l-1.09 1.108c-160.83-158.235-350.73-324.407-569.36-292.758-124.19 17.978-238.38 89.342-321.52 200.953-90.712 121.771-136.23 290.741-171.778 439.563l-.247 1.023c-15.546 65.085-31.619 132.387-56.868 187.658-13.698 29.983-28.637 53.293-45.682 71.243-16.795 17.7-35.862 30.07-56.774 36.87z" fill="#BFBFBF" fill-opacity=".3"/><path d="M699.297 1090.76a136.622 136.622 0 01-16.901 4.31c-16.409 3.11-36.244 1.27-60.636-5.64-21.83-6.18-46.975-16.35-76.87-31.08-55.765-27.48-119.26-66.513-186.479-107.83-73.413-45.127-149.329-91.791-221.75-127.401C79.91 795.212 7.539 763.62-48.825 767.024c-124.49 7.512-255.665 107.588-367.562 204.497-19.075 16.517-37.681 33.019-55.677 48.979-44.071 39.08-85.702 75.99-121.148 101.38-39.448 28.26-67.46 39.55-88.154 35.54l.276-1.44c20.272 3.94 47.925-7.28 87.027-35.29 35.383-25.34 76.985-62.23 121.028-101.29 17.999-15.96 36.613-32.459 55.689-48.984 48.27-41.801 112.321-95.054 179.743-136.164 32.989-20.111 64.753-35.995 94.412-47.215 32.958-12.463 64.676-19.693 94.273-21.477 24.373-1.47 52.633 3.136 86.397 14.084 28.2 9.141 59.918 22.541 99.824 42.16 72.487 35.641 148.429 82.322 221.872 127.467 67.191 41.302 130.655 80.309 186.361 107.759 62.485 30.8 105.888 42.43 136.589 36.61 87.353-16.55 127.077-111.029 154.419-201.259 8.225-27.362 15.415-55.236 22.078-81.441 25.845-101.938 50.117-192.967 85.45-274.673 12.965-29.796 27.57-57.843 43.4-83.365 15.788-25.446 33.358-49.285 52.238-70.864 27.2-31.105 57.61-58.891 90.39-82.596 34.7-25.232 72.42-45.646 112.12-60.669 38.77-14.676 79.65-24.3 121.5-28.605 27.37-2.877 55.37-3.108 83.22-.686 26.42 2.296 53.63 7.068 80.88 14.175 55.54 14.402 111.34 37.936 170.62 71.946 50.15 28.774 103.53 65.618 163.17 112.641 26.16 20.623 51.7 41.402 75.93 61.761l-.94 1.122c-24.21-20.347-49.75-41.116-75.9-61.733-127.97-100.888-230.74-157.734-333.24-184.319-56.35-14.7-109.86-19.099-163.59-13.449-85.41 8.781-163.77 38.728-232.91 89.003-32.69 23.639-63.02 51.354-90.15 82.374-38.09 43.552-69.299 93.875-95.397 153.849-35.292 81.606-59.543 172.576-85.377 274.449-6.666 26.222-13.863 54.111-22.098 81.504-17.966 59.294-36.454 101.648-58.185 133.285-22.831 33.24-49.281 54.54-80.456 64.67z" fill="#BFBFBF" fill-opacity=".3"/><path d="M693.878 1076.13c-8.333 2.7-16.988 4.67-26.01 5.91-18.599 2.56-40.392.88-66.638-5.16-23.503-5.41-50.199-14.23-81.607-26.98-58.59-23.79-124.273-57.457-193.81-93.102-63.653-32.629-129.47-66.367-193.93-94.525C62.023 831.756-.02 806.455-51.809 805.979c-127.418-1.172-259.352 86.001-360.055 162.075-22.132 16.722-43.678 33.626-64.51 49.986-83.373 65.43-155.378 121.94-202.3 116.1l.168-1.37c46.356 5.77 118.15-50.57 201.281-115.82 20.84-16.36 42.388-33.268 64.534-49.999 67.223-50.782 123.042-86.597 175.67-112.716 32.17-15.967 63.31-28.214 92.553-36.408 32.278-9.045 63.46-13.496 92.672-13.228 23.771.219 51.886 5.833 85.952 17.159 29.28 9.739 60.465 22.732 98.279 39.254 64.498 28.174 130.336 61.926 194.008 94.561 69.511 35.628 135.162 69.287 193.7 93.047 65.716 26.68 112.599 36.87 147.542 32.06 72.636-10 122.698-67.53 162.317-186.545 9.182-27.579 17.036-56.146 23.674-80.759 1.836-6.839 3.668-13.677 5.492-20.512 23.088-86.316 46.958-175.57 82.806-252.907 26.092-56.301 59.406-103.485 101.836-144.253 27.79-26.696 58.02-49.868 92.43-70.845 34.72-21.169 72.43-37.965 112.09-49.925 38.37-11.572 79.07-18.771 120.96-21.404 53.03-3.33 106.57 1.828 163.66 15.765 56.36 13.601 112.71 34.326 172.27 63.359 50.93 24.82 104.63 56.023 164.19 95.396 24.38 16.116 50.56 33.565 76.84 51.964l-.79 1.126c-26.26-18.392-52.43-35.832-76.8-51.942-127.65-84.377-231.28-133.281-336.03-158.564-56.96-13.909-110.36-19.052-163.26-15.732-85.61 5.376-163.82 29.309-232.41 71.131-34.33 20.925-64.48 44.04-92.19 70.667-42.31 40.646-75.524 87.7-101.547 143.839-35.796 77.231-59.653 166.427-82.723 252.684-1.828 6.837-3.656 13.673-5.494 20.517-6.645 24.631-14.505 53.217-23.698 80.836-18.923 56.853-38.842 97.275-62.684 127.224-21.606 27.12-46.235 45.06-74.746 54.33z" fill="#BFBFBF" fill-opacity=".3"/><path d="M689.765 1061.69c-11.487 3.73-23.606 6.16-36.419 7.32-22.213 2.01-47.594.33-77.592-5.11-26.886-4.88-57.037-12.74-92.187-24.01-65.575-21.04-138.098-50.635-214.876-81.97-46.181-18.849-93.933-38.339-141.589-56.497-9.231-3.516-18.47-7.094-27.407-10.551-56.311-21.795-109.5-42.376-154.484-45.948-99.044-7.859-214.365 31.278-352.558 119.648-25.998 16.623-51.236 33.84-75.644 50.488-77.823 53.08-145.029 98.92-193.01 95.79l.081-1.28c47.541 3.11 114.581-42.62 192.204-95.56 24.414-16.655 49.66-33.874 75.674-50.511 62.696-40.091 118.827-69.259 171.602-89.179 31.334-11.825 61.852-20.437 90.714-25.6 31.58-5.65 62.206-7.352 91.034-5.065 45.173 3.585 98.445 24.2 154.844 46.028 8.934 3.457 18.172 7.032 27.399 10.549 47.671 18.165 95.431 37.656 141.617 56.508 76.755 31.327 149.255 60.92 214.784 81.94 73.606 23.61 127.394 32.84 169.267 29.06 76.93-6.95 129.425-59.94 170.22-171.825 9.758-26.761 17.912-54.304 25.267-80.076 3.753-13.235 7.505-26.703 11.135-39.727 22.132-79.42 45.016-161.542 80.005-232.436 14.192-28.753 30.4-54.014 49.55-77.226 17.124-20.763 36.264-39.426 58.494-57.048 27.84-22.076 58.73-41.406 94.46-59.099 67.84-33.605 146.06-51.565 232.47-53.388 51.68-1.091 105.08 4.815 163.24 18.044 106.6 23.857 214.37 66.096 339.13 132.923 4.48 2.401 8.97 4.798 13.46 7.2 21.09 11.269 42.9 22.921 64.27 34.963l-.62 1.118c-21.37-12.033-43.17-23.684-64.25-34.95-4.49-2.403-8.98-4.799-13.46-7.2-124.66-66.772-232.32-108.971-338.81-132.804-58.06-13.21-111.35-19.1-162.93-18.011-86.22 1.819-164.25 19.736-231.92 53.256-35.64 17.654-66.47 36.936-94.24 58.956-46.66 37-80.882 79.53-107.684 133.836-34.938 70.787-57.804 152.851-79.922 232.214-3.631 13.024-7.382 26.491-11.138 39.731-7.364 25.796-15.525 53.365-25.296 80.163-19.644 53.879-41.647 93.475-67.266 121.056-19.847 21.35-42.18 36.01-67.619 44.28z" fill="#BFBFBF" fill-opacity=".3"/><path d="M687.321 1047.47c-14.999 4.88-31.115 7.7-48.491 8.51-129.455 6.06-318.19-51.13-516.506-115.4-21.06-6.824-41.72-14.285-61.7-21.497-42.493-15.345-82.628-29.834-118.378-35.2-100.781-15.124-216.879 10.858-345.073 77.222-30.781 15.936-60.578 33.218-89.395 49.925-35.209 20.42-68.465 39.71-98.909 53.81-34.119 15.81-60.237 23.02-82.194 22.72l.016-1.2c47.667.67 109.221-35.03 180.49-76.36 28.83-16.721 58.637-34.01 89.446-49.959 128.421-66.483 244.763-92.503 345.797-77.342 35.865 5.381 76.057 19.893 118.61 35.259 19.97 7.211 40.621 14.667 61.663 21.485 198.211 64.237 386.829 121.397 516.083 115.337 81.585-3.82 136.522-52.27 178.131-157.109 10.766-27.121 19.622-55.353 26.863-79.394 5.186-17.347 10.287-35.033 15.222-52.139 21.595-74.869 43.924-152.288 78.761-218.767 27.607-52.683 63.913-92.178 114.243-124.293 27.96-17.836 58.63-32.884 96.49-47.355 34.44-13.156 72.11-22.784 111.95-28.605 37.21-5.438 77.56-7.742 119.94-6.847 49.73 1.053 101.46 7.507 162.81 20.32 59.02 12.322 116.49 27.457 175.7 46.268 54.3 17.252 108.63 37.149 166.1 60.838 8.97 3.695 18.12 7.409 26.97 10.997 16.95 6.877 34.49 13.989 51.67 21.368l-.47 1.096c-17.17-7.373-34.7-14.484-51.65-21.359-8.85-3.591-18-7.301-26.97-10.999-118.17-48.705-229.91-83.715-341.59-107.04-61.28-12.795-112.94-19.244-162.6-20.295-88.53-1.872-164.23 9.7-231.44 35.374-37.79 14.44-68.38 29.453-96.27 47.246-50.16 31.998-86.328 71.349-113.834 123.839-34.781 66.375-57.094 143.732-78.671 218.546-4.933 17.109-10.037 34.797-15.225 52.153-7.25 24.063-16.115 52.327-26.897 79.491-20.591 51.871-44.101 89.426-71.879 114.806-17.502 15.99-36.971 27.46-58.813 34.55z" fill="#BFBFBF" fill-opacity=".3"/><path d="M686.771 1033.59c-18.817 6.11-39.54 9.2-62.453 9.35-80.597.54-155.067-3.03-227.663-10.89-93.631-10.14-184.931-27.26-279.117-52.318-30.64-8.153-60.258-18.679-88.898-28.862-31.652-11.25-61.547-21.878-89.362-28.038-130.873-28.983-255.822 2.921-337.598 34.789-36.642 14.281-72.011 31.296-106.221 47.749-31.44 15.13-61.138 29.41-88.992 40.19-31.292 12.1-55.804 18.05-77.141 18.71l-.033-1.11c46.459-1.43 104.373-29.29 165.691-58.79 34.227-16.46 69.618-33.486 106.296-47.778 54.322-21.17 109.291-35.254 163.378-41.862 61.223-7.478 120.057-5.116 174.856 7.021 27.881 6.175 57.808 16.814 89.491 28.073 28.622 10.173 58.217 20.694 88.814 28.837 218.662 58.179 393.786 63.919 506.486 63.179 87.749-.58 143.39-43.169 186.047-142.398 11.804-27.455 21.407-56.488 28.457-78.716 6.351-20.179 12.49-40.82 18.426-60.778 21.304-71.615 43.335-145.67 78.401-208.872 15.591-28.102 33.8-51.347 55.663-71.068 18.481-16.67 39.671-30.809 64.791-43.231 35.58-17.593 71.34-28.273 98.53-35.61 65.1-17.574 140.76-23.306 231.3-17.523 59.56 3.803 118.07 14.076 162.39 22.596 128.62 24.73 241.3 51.321 344.48 81.292 11.59 3.367 23.41 6.656 34.84 9.833 14.66 4.077 29.83 8.297 44.7 12.733l-.32 1.058c-14.86-4.434-30.02-8.652-44.68-12.728-11.42-3.177-23.24-6.464-34.85-9.838-103.14-29.957-215.78-56.539-344.38-81.263-44.29-8.517-102.76-18.776-162.24-22.579-90.42-5.778-165.97-.055-230.96 17.486-27.13 7.325-62.83 17.982-98.32 35.535-53.41 26.414-91.532 62.59-119.973 113.848-35.011 63.095-57.021 137.09-78.309 208.651-5.939 19.963-12.081 40.609-18.432 60.797-7.059 22.254-16.675 51.321-28.498 78.819-21.522 50.059-46.545 85.546-76.508 108.476-14.509 11.12-30.464 19.5-48.089 25.23z" fill="#BFBFBF" fill-opacity=".3"/><path d="M687.995 1020.39a177.62 177.62 0 01-16.549 4.49c-18.406 4.1-38.566 5.74-61.629 5.03-47.063-1.45-94.566 1.41-144.858 4.44-51.598 3.11-104.958 6.32-163.034 5.23-65.934-1.23-127.812-8-189.168-20.7-38.924-8.05-76.213-21.765-112.278-35.025-22.466-8.262-43.685-16.064-64.15-22.073-107.953-31.696-225.196-34.412-330.128-7.645-43.773 11.164-85.913 27.55-126.669 43.401-53.387 20.762-103.811 40.372-147.541 43.442l-.072-1.01c43.578-3.06 93.934-22.65 147.244-43.378 40.786-15.86 82.96-32.257 126.787-43.439 50.375-12.849 103.925-18.948 159.168-18.121 58.522.875 116.221 9.547 171.498 25.775 20.5 6.018 41.734 13.827 64.217 22.091 36.029 13.249 73.284 26.952 112.13 34.982 137.163 28.38 251.265 21.51 351.939 15.45 50.314-3.03 97.837-5.89 144.947-4.44 94.392 2.91 150.587-34.084 193.967-127.673 12.77-27.544 22.765-56.175 30.052-78.038 7.345-22.225 14.332-45.04 21.085-67.106 21.168-69.157 43.056-140.667 78.59-201.286 16.356-27.906 35.555-50.15 58.693-68.007 19.254-14.861 41.484-26.736 67.954-36.298 34.35-12.409 70.11-19.033 100.56-23.87 34.05-5.414 70.61-7.817 111.75-7.349 35.08.397 74 2.933 118.98 7.752 52.8 5.656 106.54 15.116 158.51 24.263l3.46.608c68.23 12.005 133.35 21.952 196.32 31.569 52.33 7.993 101.77 15.545 150.83 23.912 13.47 2.299 27.15 4.39 40.37 6.411 13.14 2.008 26.73 4.088 40.07 6.359l-.17 1.002c-13.32-2.271-26.91-4.347-40.04-6.358-13.24-2.024-26.92-4.116-40.39-6.417-49.06-8.369-98.49-15.919-150.82-23.91-62.98-9.618-128.1-19.564-196.34-31.573l-3.46-.607c-51.96-9.145-105.68-18.602-158.45-24.253-96.26-10.314-167.33-10.44-230.46-.409-30.4 4.83-66.1 11.439-100.37 23.823-57.24 20.683-96.143 52.717-126.121 103.863-35.474 60.518-57.343 131.973-78.493 201.072-6.755 22.07-13.741 44.888-21.09 67.127-7.295 21.89-17.303 50.554-30.094 78.146-11.446 24.693-23.6 44.961-37.161 61.964-13.397 16.794-27.781 29.924-43.979 40.133-11.106 7-22.858 12.5-35.607 16.65z" fill="#BFBFBF" fill-opacity=".3"/><path d="M690.068 1008.23c-9.923 3.23-20.468 5.6-31.822 7.19-18.343 2.55-38.931 3.03-62.932 1.45-64.948-4.27-126.354 8.29-191.363 21.59-43.253 8.85-87.978 17.99-136.589 22.82-55.055 5.46-107.193 4.4-159.395-3.25-46.542-6.82-90.992-24.48-133.976-41.57-14.088-5.59-27.397-10.88-40.612-15.73-116.42-42.671-231.012-60.46-322.666-50.086-52.34 5.922-102.67 21.443-151.343 36.449-44.233 13.637-86.008 26.517-124.733 30.597l-.099-.92c38.634-4.07 80.372-16.938 124.556-30.563 48.714-15.02 99.086-30.549 151.512-36.483 46.301-5.241 98.408-3.346 154.875 5.627 54.781 8.705 111.372 23.681 168.21 44.513 13.228 4.846 26.54 10.136 40.636 15.736 42.937 17.07 87.335 34.71 133.77 41.51 116.555 17.08 207.611-1.55 295.665-19.56 65.074-13.31 126.538-25.88 191.612-21.6 84.656 5.57 151.389-11.51 201.891-112.952 10.714-21.523 20.473-45.382 31.647-77.36 8.234-23.755 15.932-48.234 23.379-71.905 21.134-67.216 42.993-136.72 79.136-195.226 17.15-27.759 37.338-49.006 61.716-64.955 20.117-13.159 43.377-22.759 71.137-29.341 34.83-8.264 69.78-10.524 102.58-12.13 68.19-3.34 141.32 4.908 230.15 18.319 29.78 4.494 60.18 9.802 89.58 14.935 23.51 4.105 47.83 8.349 71.98 12.213 110.52 17.672 212.05 22.756 310.24 27.673 13.03.651 26.5 1.328 39.6 2.014 14.98.786 30.15 1.246 44.81 1.689 11.98.362 24.36.739 36.53 1.287l-.04.924c-12.16-.55-24.55-.924-36.52-1.287-14.66-.447-29.83-.902-44.83-1.691-13.1-.687-26.57-1.361-39.59-2.015-98.22-4.917-199.78-10.001-310.34-27.682-24.17-3.865-48.48-8.108-72-12.216-29.39-5.131-59.79-10.44-89.56-14.933-88.77-13.4-161.85-21.644-229.97-18.309-32.76 1.605-67.65 3.857-102.41 12.105-60.19 14.276-100.988 43.234-132.281 93.885-36.087 58.406-57.923 127.854-79.042 195.015-7.448 23.68-15.144 48.162-23.386 71.932-11.186 32.019-20.959 55.911-31.694 77.47-12.081 24.266-25.005 43.834-39.51 59.829-13.992 15.427-29.127 27.148-46.262 35.828a153.977 153.977 0 01-22.247 9.164z" fill="#BFBFBF" fill-opacity=".3"/><path d="M692.687 997.336c-36.236 11.774-76.635 9.974-111.874 6.494-74.935-7.389-140.066 16.93-209.02 42.67-38.739 14.47-78.8 29.42-122.731 39.62-49.713 11.54-97.436 15.16-145.894 11.05-53.986-4.57-105.675-27.62-155.665-49.91-5.619-2.5-11.428-5.09-17.073-7.58-134.995-59.447-238.097-89.719-315.202-92.545-62.382-2.287-122.538 12.491-180.71 26.784-33.89 8.328-65.904 16.192-97.246 20.475l-.114-.828c31.294-4.28 63.289-12.139 97.157-20.459 58.229-14.307 118.437-29.098 180.938-26.809 42.111 1.543 92.752 11.414 150.516 29.336 48.511 15.05 102.481 35.756 164.994 63.276 5.645 2.49 11.454 5.08 17.073 7.58 49.924 22.26 101.548 45.28 155.394 49.84 108.127 9.17 189.535-21.22 268.262-50.62 69.049-25.77 134.268-50.121 209.395-42.71 94.756 9.34 159.466-3.73 209.822-98.231 11.311-21.228 21.875-45.597 33.24-76.686 9.05-24.927 17.37-50.714 25.417-75.65 21.179-65.634 43.075-133.505 79.939-190.22 17.967-27.645 39.141-47.902 64.738-61.932 21.037-11.528 45.337-18.843 74.297-22.36 33.99-4.124 67.49-2.617 104.62-.39 65.21 3.911 133.76 17.392 206.33 31.668 7.71 1.517 15.46 3.041 23.25 4.559 9.23 1.802 18.64 3.664 27.73 5.463 43.38 8.579 88.23 17.446 133.42 23.96 127.23 18.336 241.76 10.993 352.53 3.892 16.34-1.047 32.8-2.524 48.73-3.951 10.98-.986 22.34-2.003 33.51-2.866l.07.832c-11.17.861-22.52 1.881-33.51 2.867-15.93 1.43-32.4 2.904-48.75 3.954-54.39 3.485-110.63 7.091-169.47 7.536-66.41.501-126.35-3.239-183.23-11.438-45.21-6.515-90.07-15.386-133.46-23.965-9.09-1.8-18.5-3.662-27.73-5.464-7.79-1.519-15.54-3.042-23.25-4.559-72.55-14.268-141.07-27.749-206.23-31.655-37.09-2.223-70.55-3.727-104.46.387-62.99 7.648-105.687 33.528-138.436 83.917-36.801 56.621-58.682 124.438-79.845 190.022-8.052 24.945-16.374 50.741-25.427 75.681-11.381 31.127-21.959 55.53-33.288 76.792-12.724 23.883-26.419 42.746-41.862 57.674-14.585 14.093-30.458 24.397-48.539 31.498a141.254 141.254 0 01-8.356 3.001z" fill="#BFBFBF" fill-opacity=".3"/><path d="M694.518 988.123c-1.56.507-3.132.99-4.722 1.445-34.376 9.894-72.732 7.805-123.473 1.229-82.416-10.682-147.908 26.133-217.245 65.123-35.54 19.98-72.286 40.64-113.101 56.02-46.175 17.4-91.186 25.37-137.606 24.37-26.52-.57-55.043-6.74-87.192-18.86-28.551-10.76-56.995-25.08-83.68-38.83-13.143-6.77-26.557-13.74-39.529-20.49-94.061-48.92-191.327-99.513-268.209-114.517-73.594-14.361-145.431.53-214.897 14.933-21.379 4.433-43.483 9.017-64.949 12.555l-.121-.736c21.45-3.537 43.547-8.118 64.918-12.549 69.54-14.415 141.449-29.322 215.19-14.935 34.546 6.741 76.149 21.215 127.188 44.259 45.504 20.54 94.164 45.85 141.224 70.33 12.972 6.74 26.381 13.72 39.525 20.49 59.77 30.79 113.859 56.38 170.547 57.6 103.54 2.23 178.16-39.72 250.321-80.29 69.447-39.05 135.047-75.93 217.709-65.214 92.852 12.034 162.828 13.094 217.749-83.502 12.057-21.205 23.128-45.356 34.837-76.013 9.811-25.835 18.689-52.678 27.276-78.639 21.274-64.313 43.273-130.813 80.92-185.974 18.801-27.549 40.968-46.822 67.763-58.923 22.019-9.939 47.349-14.962 77.449-15.353 36.27-.469 73.53 5.785 106.41 11.303l.24.041c49.38 8.29 100.01 21.337 153.61 35.149 24.5 6.315 49.83 12.844 75.41 18.985 50.73 12.186 105.31 24.462 160.75 31.7 126.05 15.95 239.96-1.252 355.23-21.893 17.66-3.165 35.41-6.833 52.57-10.386 10.02-2.072 20.38-4.219 30.58-6.227l.14.733c-10.19 2.011-20.55 4.153-30.57 6.225-17.17 3.553-34.91 7.223-52.59 10.387-50.61 9.062-109.68 19.163-170.33 24.361-66.46 5.697-127.01 4.89-185.13-2.462-55.47-7.243-110.08-19.524-160.83-31.715-25.58-6.144-50.91-12.676-75.42-18.99-53.58-13.809-104.2-26.853-153.55-35.136l-.23-.041c-32.85-5.513-70.08-11.762-106.28-11.294-40.77.526-100.119 8.766-144.607 73.949-37.586 55.071-59.567 121.525-80.83 185.785-8.589 25.966-17.473 52.818-27.287 78.667-11.727 30.692-22.811 54.879-34.886 76.115-24.598 43.293-53.395 69.224-90.292 81.215z" fill="#BFBFBF" fill-opacity=".3"/><path d="M170.912 1161.43c-25.405 8.26-51.019 12.88-77.343 14.02-26.407 1.15-54.42-4.07-85.64-15.96-30.965-11.79-60.815-28.59-83.356-41.91-36.436-21.53-73.338-45.59-109.025-68.85-69.799-45.5-135.726-88.477-191.235-108.634-85.266-30.962-167.088-14.829-253.716 2.248-9.184 1.809-18.681 3.683-28.046 5.465l-.124-.645c9.364-1.782 18.858-3.655 28.042-5.464 41.587-8.2 84.593-16.678 126.811-19.02 22.715-1.262 43.465-.702 63.44 1.702 22.396 2.7 43.271 7.637 63.812 15.095 55.583 20.183 121.542 63.183 191.372 108.703 35.682 23.26 72.578 47.31 109 68.84 53.293 31.49 110.604 60.29 168.636 57.78 100.629-4.36 169.785-57.75 236.664-109.39 34.697-26.79 67.47-52.1 103.181-69.317 19.156-9.239 37.465-15.324 55.972-18.603 20.654-3.663 41.124-3.788 62.576-.377 93.819 14.909 167.919 26.687 225.683-68.775 12.803-21.157 24.383-45.097 36.436-75.34 10.528-26.55 19.922-54.255 28.999-81.052 21.413-63.183 43.552-128.512 82.036-182.299 10.084-14.089 21.389-26.014 33.604-35.438 11.338-8.748 23.852-15.644 37.196-20.491 23.043-8.37 49.403-11.099 80.583-8.329 36.49 3.24 73.6 13.437 106.35 22.438l2.33.638c37.28 10.248 74.79 22.733 114.51 35.955 36.85 12.267 74.95 24.952 113.95 36.092 62.97 17.993 112.42 28.47 160.35 33.976 130.21 14.523 248.22-15.589 357.94-47.68 19.11-5.59 38.27-11.746 56.79-17.705 8.94-2.871 18.17-5.845 27.27-8.706l.19.627c-9.09 2.861-18.33 5.83-27.26 8.7-18.53 5.957-37.69 12.118-56.8 17.71-53.39 15.616-111.08 31.419-171.23 41.249-66.82 10.923-127.98 13.033-186.97 6.454-47.97-5.51-97.46-15.996-160.47-33.998-39.01-11.148-77.12-23.834-113.97-36.099-39.71-13.217-77.21-25.7-114.48-35.937l-2.33-.638c-32.72-8.989-69.8-19.18-106.23-22.414-67.36-5.986-115.274 14.347-150.789 63.982-38.426 53.703-60.554 118.992-81.949 182.128-9.084 26.803-18.476 54.515-29.015 81.081-12.066 30.276-23.661 54.245-36.481 75.437-57.993 95.831-132.287 84.029-226.346 69.084-88.769-14.109-153.109 35.567-221.225 88.167-32.942 25.43-67.009 51.74-105.415 72.21-18.098 9.65-36.136 17.39-54.278 23.29z" fill="#BFBFBF" fill-opacity=".3"/><path d="M138.36 1203.93a247.012 247.012 0 01-49.596 10.66c-26.18 2.88-53.698-1.4-84.125-13.08-25.098-9.63-51.469-23.92-82.99-44.97-48.038-32.08-95.92-71.23-142.226-109.08-54.708-44.72-106.378-86.963-150.55-110.887-89.088-48.254-177.44-34.736-283.687-12.053l-.119-.554c49.458-10.562 97.723-20.087 144.47-20.68 25.129-.32 48.057 1.896 70.095 6.77 24.42 5.401 47.157 13.91 69.511 26.017 44.217 23.95 95.909 66.207 150.638 110.947 46.295 37.84 94.166 76.98 142.184 109.04 45.659 30.5 105.88 64.65 166.733 57.97 98.57-10.82 162.987-75.58 225.286-138.22 33.667-33.85 65.467-65.82 101.14-87.564 19.134-11.665 37.703-19.358 56.765-23.516 21.271-4.639 42.717-4.823 65.56-.558 6.587 1.231 13.154 2.498 19.505 3.72 87.873 16.944 157.279 30.327 214.111-57.762 13.474-21.062 25.913-45.485 38.032-74.667 11.212-27.095 21.083-55.49 30.628-82.945 21.62-62.193 43.972-126.505 83.25-179.142 10.544-14.026 22.356-25.646 35.107-34.539a129.043 129.043 0 0138.782-18.373c24.116-6.825 51.486-7.259 83.656-1.323 37.38 6.896 74.94 21.191 108.07 33.808l2.63 1c28.09 10.692 55.97 22.335 85.48 34.661 45.9 19.176 93.37 39.003 142.43 55.283 59.77 19.833 110.61 31.352 159.97 36.254 90.92 8.811 176.99-8.914 255.73-34.505 36.65-11.91 71.7-25.522 104.94-38.961 20.89-8.449 41.82-17.531 62.06-26.309 7.5-3.254 15.26-6.615 22.89-9.896l.22.523c-7.63 3.278-15.38 6.643-22.88 9.896-20.25 8.78-41.18 17.859-62.09 26.314-53 21.434-110.54 43.307-172.17 58.107-67.25 16.15-128.99 21.188-188.76 15.397-49.4-4.904-100.27-16.432-160.09-36.28-49.08-16.287-96.56-36.118-142.47-55.299-29.51-12.326-57.38-23.968-85.46-34.654l-2.63-1c-33.11-12.608-70.64-26.894-107.98-33.778-69.72-12.861-119.602 4.307-156.979 54.024-39.224 52.566-61.561 116.833-83.167 178.984-9.545 27.464-19.418 55.867-30.637 82.977-12.135 29.211-24.588 53.664-38.081 74.756-26.168 40.558-56.758 62.303-96.275 68.426-35.711 5.535-75.885-2.21-118.419-10.413-6.348-1.223-12.914-2.49-19.501-3.722-94.52-17.645-156.908 45.076-222.96 111.486-30.685 30.85-62.415 62.76-98.791 88.27-25.43 17.83-50.994 30.91-77.24 39.44z" fill="#BFBFBF" fill-opacity=".3"/><path d="M113.549 1246.34a219.77 219.77 0 01-29.6 7.39c-25.892 4.61-52.926 1.26-82.645-10.23-25.409-9.82-52.418-25.52-82.566-48.01-54.89-40.94-108.539-94.88-160.419-147.04-45.191-45.43-87.871-88.342-124.86-115.401-85.184-62.318-172.451-58.375-285.641-31.82l-.111-.466c44.784-10.509 97.403-20.845 148.108-17.866 24.923 1.466 47.763 5.908 69.821 13.579 23.897 8.312 46.174 20.146 68.097 36.186 37.02 27.081 79.713 70.008 124.916 115.448 51.869 52.15 105.501 106.08 160.364 147 64.613 48.19 116.995 66.67 164.844 58.15 96.953-17.27 157.078-93.34 215.228-166.91 32.389-40.98 62.981-79.68 98.394-105.99 18.992-14.109 37.716-23.412 57.235-28.445 21.779-5.612 44.099-5.844 68.239-.698 11.792 2.512 23.413 5.239 34.654 7.877 80.814 18.968 150.607 35.348 206.902-47.189 14.17-20.867 27.132-45.073 39.63-73.994 11.884-27.559 22.199-56.575 32.171-84.635 21.794-61.318 44.329-124.726 84.543-176.19 10.968-13.979 23.268-25.313 36.554-33.689 12.342-7.78 25.928-13.249 40.382-16.26 25.221-5.249 53.591-3.378 86.751 5.724 39.43 10.822 78.38 29.796 112.74 46.534 21.64 10.468 43.9 21.782 65.43 32.727 52.1 26.477 105.96 53.861 161.94 75.123 57.71 21.762 109.91 34.367 159.58 38.531 135.69 11.201 258.73-45.358 363.4-99.25 23.57-12.135 47.19-24.975 70.03-37.396 5.28-2.871 10.55-5.737 15.83-8.6l.23.42c-5.28 2.864-10.56 5.73-15.83 8.601-22.85 12.421-46.47 25.263-70.04 37.399-48.91 25.184-106.89 53.437-167.78 73.23-1.79.583-3.58 1.157-5.38 1.725-67.7 21.376-130.01 29.343-190.5 24.346-49.72-4.17-101.96-16.782-159.71-38.559-56-21.271-109.88-48.658-161.98-75.144-21.53-10.943-43.79-22.257-65.43-32.722-34.34-16.732-73.27-35.694-112.65-46.505-72.2-19.82-124.055-5.82-163.186 44.058-40.169 51.404-62.692 114.772-84.469 176.056-9.975 28.064-20.29 57.089-32.182 84.662-12.512 28.955-25.488 53.181-39.672 74.077-25.872 37.931-55.826 57.616-94.269 61.936-34.571 3.887-72.735-5.067-113.137-14.554-11.237-2.636-22.854-5.364-34.642-7.877-99.901-21.29-159.888 54.611-223.398 134.961-28.634 36.23-58.248 73.69-92.811 104.24-18.68 16.5-37.028 29.46-56.099 39.63-12.174 6.5-24.434 11.75-37.006 15.83z" fill="#BFBFBF" fill-opacity=".3"/><path d="M92.999 1288.9c-4.56 1.48-9.18 2.8-13.87 3.97-49.609 12.32-105.38-8.77-170.512-64.47-56.823-48.6-113.554-117.39-163.606-178.08-38.557-46.75-74.98-90.918-106.96-120.788-87.072-81.331-177.949-79.444-287.607-51.595l-.094-.378c62.576-15.891 109.399-20.526 151.822-15.023 50.572 6.558 95.105 28.381 136.146 66.713 31.998 29.889 68.427 74.061 106.992 120.831 50.041 60.68 106.762 129.45 163.558 178.02 65.026 55.61 120.687 76.68 170.167 64.39C174.58 1268.77 230.712 1181.45 285 1097c30.963-48.17 60.208-93.67 95.231-124.548 18.779-16.559 37.589-27.478 57.511-33.381 22.217-6.584 45.355-6.845 70.731-.798 15.955 3.801 31.592 8.194 46.718 12.444 78.62 22.094 146.516 41.173 202.775-37.021 34.32-47.702 54.937-104.465 74.875-159.358 10.997-30.279 22.369-61.586 35.901-90.966 15.173-32.951 31.532-59.955 50.011-82.561 18.559-22.706 40.691-37.558 65.781-44.153 22.126-5.809 46.336-5.494 74.046.968 50.77 11.845 102.89 42.56 144.77 67.237 15.96 9.407 32.28 19.267 48.06 28.799 105.19 63.55 213.96 129.268 337.97 137.763 55.96 3.835 109.58-5.281 160.53-21.839 74.5-24.213 143.32-64.335 205.61-103.203 28.82-17.975 57.74-36.847 85.71-55.098l1.06-.698.22.327-1.07.698c-27.97 18.253-56.9 37.125-85.71 55.1-50.4 31.444-110.5 66.938-174.19 91.801-68.13 26.595-130.99 37.489-192.18 33.296-124.11-8.502-232.92-74.244-338.15-137.817-15.78-9.533-32.09-19.39-48.06-28.796-41.85-24.665-93.94-55.36-144.66-67.191-58.911-13.745-104.517.334-139.434 43.05-41.142 50.328-63.866 112.904-85.845 173.416-19.948 54.916-40.571 111.706-74.922 159.451-20.068 27.891-41.613 43.447-64.575 50.914-41.595 13.522-87.877.511-138.619-13.749-15.121-4.247-30.755-8.642-46.701-12.442-47.931-11.421-88.567-.586-127.895 34.091-34.981 30.844-64.214 76.324-95.161 124.464-26.726 41.58-54.365 84.57-87.259 120.11-17.773 19.2-35.392 34.46-53.86 46.65-16.589 10.95-33.458 19.17-51.22 24.94z" fill="#BFBFBF" fill-opacity=".3"/></svg>