<svg width="380" height="889" fill="none" xmlns="http://www.w3.org/2000/svg"><path d="M-26 956.604l400.647.045c7.927-55.358 4.897-112.657-6.751-167.468-19.729-92.315-62.62-178.304-113.945-257.579C182.395 421.334 92.233 319.37 54.579 193.372 36 131.755 30.81 66.077 4.912 7.13A216.717 216.717 0 00-25.89-43L-26 956.604z" fill="#011B9E"/><path d="M-26 956.604l253.377.028a233.112 233.112 0 0043.712-62.854c28.436-60.076 31.883-130.033 18.042-195.053-13.842-65.02-44.021-125.596-80.201-181.361-50.393-77.628-113.866-149.459-140.42-238.116-12.984-43.396-16.675-89.645-34.873-131.102-12.09-27.589-33.381-53.331-59.54-66.598L-26 956.604z" fill="#011B9C"/></svg>