<svg xmlns="http://www.w3.org/2000/svg" viewBox="0 0 496 496"><path d="M395.12 192.296h.008-.008zM248 283.864zm.304 18.464l-101.432 85.656L104 359.144v32.32l144 88.384 144-88.384v-32.32l-42.552 28.84z" fill="#1083dd"/><path fill="#0a6cbc" d="M248 479.848l144-88.384v-32.32l-42.552 28.84-101.144-85.656"/><path fill="#1083dd" d="M248 283.864l-147.112-91.552L0 273.744l145.912 96.008L248 283.864z"/><path fill="#0a6cbc" d="M0 273.744l145.912 96.008L248 283.864"/><path fill="#38b4f9" d="M248 283.864l102.104 85.888 145.896-96-100.872-81.456h-.008z"/><path fill="#0594db" d="M350.104 369.752l145.896-96-100.872-81.456h-.008"/><path fill="#1083dd" d="M350.104 16.152l-102.088 87.2H248l147.128 88.944 99.312-80.448z"/><path fill="#0a6cbc" d="M395.128 192.296L496 111.848 350.104 16.152"/><path fill="#38b4f9" d="M248.016 103.352l-102.104-87.2L.016 111.52l100.872 82.4L248 103.352z"/><path fill="#0594db" d="M100.888 193.6L248 103.352h.016l-102.104-87.2"/></svg>