<svg xmlns="http://www.w3.org/2000/svg" viewBox="0 0 499.208 499.208"><path d="M83.149 97.6h46.696c2.672 0 6.576-2.656 6.576-5.304 0-.016 1.176-40.624 1.176-51.8v-.128c0-9.168.168-17.168 3.504-23.872l.712-2.992c-.168.024-.784.112-.952.28l-90.872 90.272c-.176.144-.416.344-.464.536 1.872-.944 4.4-1.744 4.752-1.912 7.88-3.584 17.408-5.08 28.872-5.08z" fill="#40e269"/><path d="M420.085 53.264c-11.504-4.176-34.832-8.496-64.152-11.984-23.6-2.776-51.312-2.56-68.064-2.048-2-13.816-11.656-26.432-22.472-30.8-28.784-11.64-73.272-8.832-84.672-5.624-9.064 2.544-19.12 7.776-24.712 15.808-3.744 5.376-6.168 12.264-6.184 21.864 0 5.448.152 18.248.28 29.656.136 11.4.288 23.272.288 23.352 0 10.168-8.224 20.112-18.4 20.112H85.333c-9.96 0-17.56.032-23.368 2.664-5.832 2.664-9.952 5.424-13.088 9.64-6.224 8.408-7.304 18.36-7.272 28.936 0 0 .112 8.456 2.176 25.176 1.72 12.944 15.704 103.304 28.984 130.808 5.16 10.688 8.576 15.104 18.696 19.816 22.544 9.704 74.056 20.464 98.184 23.552 24.096 3.088 39.208 9.576 48.232-9.392.032-.04 1.8-4.44 4.224-11.288 7.856-23.8 8.944-43.912 8.944-59.912h2.272c0 8-2.056 48.672 26.672 58.92 11.344 4.04 34.864 7.488 58.768 10.312 21.608 2.496 37.312 10.952 37.312 66.632 0 33.864-7.096 38.488-44.136 38.488-30.04 0-41.504.76-41.504-23.184 0-19.352 19.104-17.336 33.216-17.336 6.32 0 1.744-4.72 1.744-16.664 0-11.888 7.4-18.752.4-18.92-48.872-1.36-77.632-.072-77.632 61.304 0 55.72 21.224 66.056 90.592 66.056 54.4 0 73.576-1.792 96.016-71.744 4.456-13.816 15.216-55.96 21.704-126.728 4.128-44.736-3.872-179.792-10.2-213.872-3.728-19.928-15.512-29.744-26.184-33.6zm-68.64 182.856c-6.712-.232-13.168.184-19.2 1.16 1.688-13.744 7.344-30.624 27.376-29.92 22.168.776 25.288 21.816 25.368 36.056-9.352-4.184-20.936-6.832-33.544-7.296z" fill="#46d16a"/><path d="M404.565 90.176c-11.504-4.184-19.32-45.408-48.632-48.888-23.6-2.776-51.312-2.56-68.064-2.048-2-13.816-11.656-26.432-22.472-30.8-28.784-11.64-73.272-8.832-84.672-5.624-9.064 2.536-19.12 7.768-24.712 15.8-3.744 5.376-6.168 12.264-6.184 21.864 0 5.448.152 18.248.28 29.656.136 11.4.288 23.272.288 23.352 0 10.168-8.224 20.112-18.4 20.112H85.333c-9.96 0-17.56.032-23.368 2.664-5.832 2.664-9.952 5.424-13.088 9.64-6.224 8.408-7.304 18.36-7.272 28.936 0 0 .112 8.456 2.176 25.176 1.72 12.944 15.704 103.304 28.984 130.808 5.16 10.688 8.576 15.104 18.696 19.816 22.544 9.704 74.056 20.464 98.184 23.552 24.096 3.088 39.208 9.576 48.232-9.392.032-.04 1.8-4.44 4.224-11.288 7.856-23.8 8.944-43.912 8.944-59.912h2.272c0 8-2.056 48.672 26.672 58.92 11.344 4.04 34.864 7.488 58.768 10.312 21.608 2.496 37.312 10.952 37.312 66.632 0 33.864-7.096 38.488-44.136 38.488-30.04 0-41.504.76-41.504-23.184 0-19.352 19.104-17.336 33.216-17.336 6.32 0 1.744-4.72 1.744-16.664 0-11.888 7.4-18.752.4-18.92-48.872-1.36-77.632-.072-77.632 61.304 0 55.72 21.224 66.056 90.592 66.056 54.4 0 73.576-1.792 96.016-71.744 4.456-13.816 15.216-55.96 21.704-126.728 4.128-44.736-19.392-142.88-25.728-176.96-3.72-19.944-15.512-29.752-26.176-33.6zm-53.12 145.944c-6.712-.232-13.168.184-19.2 1.16 1.688-13.744 7.344-30.624 27.376-29.92 22.168.776 25.288 21.816 25.368 36.056-9.352-4.184-20.936-6.832-33.544-7.296z" fill="#38bc5f"/><g fill="#30aa6f"><path d="M289.045 54.864a76.304 76.304 0 01.12-15.664c-.416.016-.896.024-1.288.032-2-13.816-11.656-26.432-22.472-30.8-28.784-11.64-73.272-8.832-84.672-5.624-9.072 2.544-19.128 7.776-24.72 15.808-3.744 5.376-6.168 12.264-6.184 21.864 0 5.448.152 18.248.28 29.656.136 11.4.288 23.272.288 23.352 0 10.168-8.224 20.112-18.4 20.112H85.333c-9.96 0-17.56.032-23.368 2.664-5.832 2.664-9.952 5.424-13.088 9.64-6.224 8.408-7.304 18.36-7.272 28.936 0 0 .112 8.456 2.176 25.176 1.72 12.944 15.704 103.304 28.984 130.808 5.16 10.688 8.576 15.104 18.696 19.816 22.544 9.704 74.056 20.464 98.184 23.552 24.096 3.088 39.208 9.576 48.232-9.392.032-.04 1.8-4.728 4.224-11.576 3.84-11.648 6.048-22.64 7.304-32.64l1.624-27.568s.312-102.464 35.408-138.856c35.112-36.4 6.496-37.696 2.608-79.296z"/><path d="M285.141 167.96c-61.04 0-75.4 72.696-75.4 176.8 0 4.2.144 8.344.336 12.464 12.704 1.576 21.672.488 27.808-12.432.032-.04 1.8-4.432 4.224-11.288 7.848-23.792 8.936-43.904 8.936-59.904h2.272c0 8-2.056 48.672 26.672 58.92 11.344 4.04 34.864 7.488 58.768 10.312 21.608 2.496 37.312 10.952 37.312 66.632 0 33.864-7.096 38.488-44.136 38.488-30.04 0-41.504.76-41.504-23.184 0-19.352 19.104-17.336 33.216-17.336 6.32 0 1.744-4.72 1.744-16.664 0-11.888 7.4-18.752.4-18.92-48.872-1.36-77.632-.072-77.632 61.304 0 55.72 21.224 66.056 90.592 66.056 54.4 0 73.576-1.792 96.016-71.744 1.456-4.456 3.536-11.904 5.928-22.264 3.992-19.712 6.016-40.92 5.632-63.04-2.576-148.2-100.176-174.2-161.184-174.2zm66.304 68.16c-6.712-.232-13.168.184-19.2 1.16 1.688-13.744 7.344-30.624 27.376-29.92 22.168.776 25.288 21.816 25.368 36.056-9.352-4.184-20.936-6.832-33.544-7.296z"/></g></svg>