<svg xmlns="http://www.w3.org/2000/svg" viewBox="0 0 496 496"><path d="M436.384 184.496c-14.208 0-27.28 4.984-37.544 13.264-36.352-22.632-82.488-36.288-131.92-39.16l25.792-80.8 70.88 16.528c1.864 25.576 23.44 45.816 49.704 45.816 27.48 0 49.856-22.16 49.856-49.408 0-27.224-22.376-49.392-49.856-49.392-19.208 0-35.92 10.84-44.248 26.672L286.68 48.808c-6.896-1.616-13.864 2.32-16.016 9.024l-32.024 100.28c-53.272 1.304-103.36 14.984-142.376 38.928-10.12-7.832-22.84-12.544-36.64-12.544C26.752 184.496 0 211 0 243.568c0 20.144 10.224 37.936 25.816 48.592a101.973 101.973 0 00-.992 14.184c0 40.712 23.88 78.576 67.256 106.624 41.568 26.888 96.608 41.688 154.92 41.688 58.32 0 113.344-14.8 154.92-41.688 43.36-28.048 67.256-65.912 67.256-106.624 0-4.344-.304-8.672-.832-12.968 16.6-10.48 27.656-28.88 27.656-49.808 0-32.568-26.736-59.072-59.616-59.072zm-23.088-116.32c12.56 0 22.776 10.136 22.776 22.552 0 12.448-10.216 22.552-22.776 22.552s-22.768-10.112-22.768-22.552c-.008-12.416 10.208-22.552 22.768-22.552zM140.648 280.12c0-18.36 15.552-33.76 34.08-33.76s33.568 15.4 33.568 33.76-15.04 33.264-33.568 33.264-34.08-14.904-34.08-33.264zm189.008 97.824c-17.272 17.08-43.896 25.392-81.4 25.392-.088 0-.168-.016-.264-.016s-.168.016-.264.016c-37.512 0-64.128-8.312-81.376-25.392-5.304-5.248-5.304-13.752 0-18.984 5.28-5.232 13.856-5.232 19.16 0 11.912 11.8 32.264 17.544 62.216 17.544.096 0 .168.016.264.016s.176-.016.264-.016c29.952 0 50.32-5.752 62.248-17.544 5.296-5.248 13.864-5.232 19.152 0 5.288 5.248 5.288 13.752 0 18.984zm-7.864-64.56c-18.536 0-34.12-14.904-34.12-33.264 0-18.376 15.576-33.76 34.12-33.76s33.576 15.384 33.576 33.76c0 18.36-15.04 33.264-33.576 33.264z" fill="#f8571d"/><path d="M422.52 70.168c7.968 3.52 13.544 11.4 13.544 20.568 0 9.784-6.344 18.032-15.144 21.168a270.422 270.422 0 01-4.8 28.104c26.168-1.472 47.016-22.968 47.016-49.264 0-24.976-18.848-45.64-43.176-48.888a266.432 266.432 0 012.56 28.312zm73.48 173.4c0-32.568-26.736-59.08-59.616-59.08-14.208 0-27.28 4.984-37.544 13.264-.736-.456-1.52-.848-2.256-1.304-11.68 24.688-26.92 47.584-45.2 68.136 2.456 4.688 3.992 9.92 3.992 15.528 0 18.36-15.04 33.264-33.576 33.264-6.72 0-13.024-2.008-18.368-5.376-33.504 24.528-72.528 42.952-115.128 53.32 12.168 10.152 31.616 15.176 59.432 15.176.096 0 .168.016.264.016s.176-.016.264-.016c29.952 0 50.32-5.752 62.248-17.544 5.296-5.248 13.864-5.232 19.152 0 5.288 5.248 5.288 13.752 0 18.984-17.272 17.08-43.896 25.392-81.4 25.392-.088 0-.168-.016-.264-.016s-.168.016-.264.016c-37.512 0-64.128-8.312-81.376-25.392-3.16-3.144-4.4-7.408-3.792-11.472-17.848 2.888-36.176 4.496-54.912 4.496a341.74 341.74 0 01-65.28-6.28c11.392 17.952 28.136 34.328 49.712 48.28 41.568 26.888 96.608 41.688 154.92 41.688 58.32 0 113.344-14.8 154.92-41.688 43.36-28.048 67.256-65.912 67.256-106.624 0-4.344-.304-8.672-.832-12.968 16.592-10.472 27.648-28.872 27.648-49.8z" fill="#e23c0a"/><path d="M55.968 294.76c30.616 0 59.544-7.12 85.208-19.704 2.552-16.032 16.768-28.696 33.544-28.696 2.776 0 5.424.44 8.008 1.088 30.92-26.952 52.872-63.6 60.944-105.12l-5.04 15.784c-53.272 1.304-103.36 14.984-142.376 38.928-10.12-7.832-22.84-12.544-36.64-12.544C26.752 184.496 0 211 0 243.568c0 20.144 10.224 37.936 25.816 48.592-.016.088-.016.168-.024.24a194.351 194.351 0 0030.176 2.36z" fill="#ff7f00"/></svg>