<svg width="84" height="18" fill="none" xmlns="http://www.w3.org/2000/svg"><path d="M.019 0h11.456v2.135h-4.51V14.17H4.492V2.135H0L.019 0zm10.966 3.911h2.114v1.984h.037c.076-.284.208-.548.397-.813.188-.264.415-.51.698-.718.264-.226.566-.396.906-.529.32-.132.66-.207 1-.207.264 0 .453.019.548.019.094.018.207.037.302.037v2.173a3.635 3.635 0 00-.491-.075c-.17-.02-.321-.038-.49-.038-.378 0-.737.075-1.077.226-.34.152-.623.378-.887.662a3.585 3.585 0 00-.604 1.096c-.15.434-.226.944-.226 1.511v4.875h-2.265l.038-10.203zm16.382 10.26H25.14v-1.437h-.038c-.283.53-.698.926-1.245 1.247a3.285 3.285 0 01-1.68.473c-1.34 0-2.322-.321-2.925-1.002-.604-.66-.906-1.681-.906-3.023V3.911h2.264v6.292c0 .907.17 1.549.529 1.908.34.378.83.567 1.453.567.472 0 .868-.076 1.19-.227.32-.151.584-.34.773-.586.208-.245.34-.548.434-.888.095-.34.132-.718.132-1.114V3.91h2.265v10.26h-.019zm3.85-3.288c.076.661.321 1.115.756 1.398.434.264.962.397 1.566.397.208 0 .453-.02.717-.057a3.14 3.14 0 00.755-.189c.246-.094.434-.227.585-.415a.969.969 0 00.208-.7c-.019-.283-.113-.529-.32-.718-.209-.188-.454-.32-.756-.453a6.536 6.536 0 00-1.057-.283c-.396-.076-.792-.17-1.208-.265-.415-.094-.83-.208-1.227-.34a3.515 3.515 0 01-1.056-.548 2.356 2.356 0 01-.737-.87c-.188-.358-.283-.774-.283-1.303 0-.567.132-1.02.416-1.398.264-.378.622-.68 1.038-.907a4.708 4.708 0 011.396-.491c.51-.094 1-.132 1.454-.132.528 0 1.038.056 1.51.17.471.113.924.283 1.302.548.396.245.717.585.962.982.265.397.416.888.491 1.455h-2.36c-.112-.548-.358-.907-.735-1.096a3.037 3.037 0 00-1.34-.283 7.08 7.08 0 00-.566.038 3.333 3.333 0 00-.623.15 1.475 1.475 0 00-.491.322.756.756 0 00-.208.548c0 .283.095.491.283.661.19.17.434.302.755.435.302.113.661.207 1.057.283.397.076.812.17 1.227.265.415.094.812.207 1.208.34.396.132.755.302 1.057.548.302.226.566.51.755.85.189.34.283.774.283 1.266 0 .604-.132 1.114-.415 1.549a3.533 3.533 0 01-1.076 1.04c-.434.264-.944.453-1.472.585a7.897 7.897 0 01-1.604.189 6.755 6.755 0 01-1.793-.227 4.566 4.566 0 01-1.435-.661 3.171 3.171 0 01-.944-1.115c-.226-.434-.358-.963-.377-1.587h2.284v.019h.019zm7.456-6.972h1.717V.812h2.265v3.08h2.039v1.682h-2.039v5.479c0 .245.02.434.038.623.019.17.076.322.132.435a.738.738 0 00.32.264c.152.057.34.095.605.095.15 0 .32 0 .472-.019.15-.019.32-.038.472-.075v1.757c-.246.037-.491.056-.736.075-.246.038-.472.038-.737.038-.603 0-1.075-.057-1.434-.17a2.061 2.061 0 01-.85-.491 1.757 1.757 0 01-.414-.813 6.456 6.456 0 01-.133-1.133V5.593h-1.717v-1.72.038zm7.606 0h2.133v1.398h.038c.32-.604.755-1.02 1.32-1.285a4.275 4.275 0 011.85-.396c.812 0 1.51.132 2.114.434a3.967 3.967 0 011.491 1.172 4.89 4.89 0 01.887 1.738 7.7 7.7 0 01.302 2.116c0 .699-.094 1.36-.264 2.003-.189.642-.453 1.228-.811 1.719A4.015 4.015 0 0153.96 14c-.566.303-1.208.454-1.963.454-.321 0-.66-.038-.982-.095a4.172 4.172 0 01-.943-.283 3.385 3.385 0 01-.83-.51 2.88 2.88 0 01-.643-.718h-.037v5.12h-2.265V3.911h-.019zm7.908 5.14a4.61 4.61 0 00-.188-1.342 3.424 3.424 0 00-.548-1.153 3.02 3.02 0 00-.887-.812c-.358-.208-.774-.303-1.227-.303-.944 0-1.66.322-2.151.983-.472.661-.718 1.55-.718 2.645a4.9 4.9 0 00.19 1.436c.131.434.301.812.565 1.134.246.32.548.566.906.755.359.19.755.284 1.227.284.529 0 .944-.114 1.302-.321a3.04 3.04 0 00.887-.813c.227-.34.397-.718.491-1.152.095-.454.151-.888.151-1.342zM58.17 0h2.264v2.135H58.17V0zm0 3.911h2.264v10.26H58.17V3.91zM62.454 0h2.265v14.17h-2.265V0zm9.173 14.454c-.812 0-1.548-.133-2.19-.416a4.97 4.97 0 01-1.623-1.115 4.855 4.855 0 01-1-1.719 6.722 6.722 0 01-.359-2.173c0-.774.114-1.492.359-2.154a5.026 5.026 0 011-1.719c.434-.472.982-.85 1.623-1.115a5.724 5.724 0 012.19-.415c.811 0 1.547.132 2.19.415.64.265 1.17.643 1.622 1.115a4.855 4.855 0 011 1.72 6.61 6.61 0 01.36 2.153c0 .794-.114 1.512-.36 2.173-.245.661-.566 1.228-1 1.72-.434.472-.981.85-1.623 1.114a5.654 5.654 0 01-2.19.416zm0-1.795c.49 0 .944-.114 1.302-.321.378-.208.66-.492.906-.832a3.58 3.58 0 00.529-1.152 5.185 5.185 0 000-2.626 3.388 3.388 0 00-.529-1.153 2.867 2.867 0 00-.906-.812 2.66 2.66 0 00-1.302-.322c-.49 0-.944.114-1.302.322-.378.207-.661.49-.907.812a3.39 3.39 0 00-.528 1.153 5.149 5.149 0 000 2.626c.113.434.283.812.528 1.152.246.34.548.624.906.832.378.226.812.32 1.303.32zm5.85-8.748h1.718V.812h2.265v3.08h2.04v1.682h-2.04v5.479c0 .245.019.434.038.623.019.17.075.322.132.435a.737.737 0 00.32.264c.152.057.34.095.605.095.15 0 .32 0 .472-.019.15-.019.32-.038.472-.075v1.757c-.246.037-.491.056-.737.075-.245.038-.471.038-.736.038-.604 0-1.075-.057-1.434-.17a2.061 2.061 0 01-.85-.491 1.758 1.758 0 01-.415-.813 6.447 6.447 0 01-.132-1.133V5.593h-1.717v-1.72.038z" fill="#001042"/></svg>