<svg xmlns="http://www.w3.org/2000/svg" viewBox="0 0 474.888 474.888"><circle cx="236.967" cy="236.971" r="236.967" fill="#702c90"/><path d="M405.483 70.341c92.542 92.542 92.542 242.588-.007 335.137-92.542 92.542-242.595 92.542-335.137 0L405.483 70.341z" fill="#5f2c80"/><path d="M468.756 286.396L366.867 178.894l-15.405 14.6-12.658-13.351-32.34 30.641-28.172-29.721-13.672 12.965-38.421-38.424-17.62 17.616-16.838-16.834-16.138 16.135 16.838 16.838-12.864 12.861-43.334-43.341-9.048 9.044-10.911-10.915-16.138 16.138L227.55 300.55l-22.84 22.84-8.602-8.602-7.177 7.169-7.169-7.169-11.147 11.147 137.234 137.238c80.889-25.324 143.096-92.852 160.907-176.777z" fill="#4f286e"/><path d="M328.357 197.929c-6.949 1.871-70.473 51.135-74.66 63.221-.928 4.172.086 44.666 1.01 50.735 4.187.932 34.413.116 39.955 1.048l-.666 12.516c-5.429-.419-43.835-.322-65.743-.322-11.132 0-46.933 1.231-57.923.909l2.084-11.918c6.035-.442 30.993 1.111 36.467-4.715 2.72-2.9 1.871-41.38.943-47.887-2.309-6.96-57.983-76.718-72.535-88.149H99.786v-17.534H226.24v1.205c.116 0 .322.022.43.045l-.43 2.964v13.321h-38.125c16.999 24.857 41.365 54.862 51.756 69.283l50.929-46.159h-30.271l-4.269-17.519h110.91l-.819 1.25c.086 0 .269.019.389.019l-7.921 11.491a1.01 1.01 0 00-.247.037l-3.199 4.722h-20.456c-2.657.587-4.989 1.108-6.56 1.437zm36.183 109.829l-9.792-.49-10.919-1.328.086 18.731 8.617.745 9.287.681 2.721-18.339zm19.008-89.515c-3.304-.116-33.347-2.964-37.249-3.731l.46 79.113 16.999 1.373 19.79-76.755z" fill="#fff"/></svg>