<svg width="631" height="682" fill="none" xmlns="http://www.w3.org/2000/svg"><path d="M274.788 404.684L8.87 558.312l179.963 103.99h76.976l23.592 13.645h39.491l45.1-26.081-30.924-17.662 164.603-95.107-232.883-132.413z" fill="url(#paint0_linear_1_305)" fill-opacity=".5"/><path style="mix-blend-mode:screen" d="M182.977 228.933a1.494 1.494 0 01-.72-.181L.725 123.862a1.443 1.443 0 01-.54-1.957 1.465 1.465 0 011.98-.541l181.532 104.891a1.442 1.442 0 01-.72 2.575v.103z" fill="url(#paint1_linear_1_305)"/><path d="M344.818 372.501l-39.903-23.043 39.903-23.069 39.929 23.069-39.929 23.043z" fill="#fff"/><path d="M344.818 415.523l-39.903-23.069v-42.996l39.903 23.043v43.022z" fill="#CCC7BF"/><path d="M384.747 392.454l-39.929 23.069v-43.022l39.929-23.043v42.996z" fill="#E9E4DB"/><path d="M389.736 398.453l-39.928-23.069 39.928-23.043 39.903 23.043-39.903 23.069z" fill="#fff"/><path d="M389.737 441.449l-39.929-23.043v-43.022l39.929 23.069v42.996z" fill="#CCC7BF"/><path d="M429.639 418.406l-39.903 23.043v-42.996l39.903-23.069v43.022z" fill="#E9E4DB"/><path d="M434.632 424.405l-39.929-23.068 39.929-23.069 39.903 23.069-39.903 23.068z" fill="#fff"/><path d="M434.632 467.402l-39.929-23.069v-42.996l39.929 23.068v42.997z" fill="#CCC7BF"/><path d="M474.535 444.333l-39.903 23.069v-42.997l39.903-23.068v42.996z" fill="#E9E4DB"/><path d="M479.525 450.332l-39.903-23.043 39.903-23.069 39.929 23.069-39.929 23.043z" fill="#fff"/><path d="M479.525 493.354l-39.903-23.069v-42.996l39.903 23.043v43.022z" fill="#CCC7BF"/><path d="M519.454 470.285l-39.928 23.069v-43.022l39.928-23.043v42.996z" fill="#E9E4DB"/><path d="M299.796 398.53l-39.929-23.043 39.929-23.068 39.903 23.068-39.903 23.043z" fill="#fff"/><path d="M299.796 441.552l-39.929-23.068v-42.997l39.929 23.043v43.022z" fill="#CCC7BF"/><path d="M339.699 418.484l-39.903 23.068V398.53l39.903-23.043v42.997z" fill="#E9E4DB"/><path d="M344.688 424.483l-39.903-23.069 39.903-23.069 39.903 23.069-39.903 23.069z" fill="#fff"/><path d="M344.688 467.479l-39.903-23.069v-42.996l39.903 23.069v42.996z" fill="#CCC7BF"/><path d="M384.592 444.41l-39.903 23.069v-42.996l39.903-23.069v42.996z" fill="#E9E4DB"/><path d="M389.584 450.409l-39.903-23.043 39.903-23.069 39.929 23.069-39.929 23.043z" fill="#fff"/><path d="M389.583 493.431l-39.903-23.068v-42.997l39.903 23.043v43.022z" fill="#CCC7BF"/><path d="M429.513 470.363l-39.929 23.068v-43.022l39.929-23.043v42.997z" fill="#E9E4DB"/><path d="M459.561 490.857l-39.903-23.069 39.903-23.069 39.929 23.069-39.929 23.069z" fill="url(#paint2_linear_1_305)"/><path d="M459.561 533.853l-39.903-23.043v-43.022l39.903 23.069v42.996z" fill="url(#paint3_linear_1_305)"/><path d="M499.49 510.81l-39.928 23.043v-42.996l39.928-23.069v43.022z" fill="url(#paint4_linear_1_305)"/><path d="M254.746 424.56l-39.903-23.069 39.903-23.069 39.928 23.069-39.928 23.069z" fill="#fff"/><path d="M254.746 467.556l-39.903-23.043v-43.022l39.903 23.069v42.996z" fill="#CCC7BF"/><path d="M294.675 444.513l-39.929 23.043V424.56l39.929-23.069v43.022z" fill="#E9E4DB"/><path d="M299.64 450.512l-39.903-23.069 39.903-23.068 39.929 23.068-39.929 23.069z" fill="#fff"/><path d="M299.64 493.509l-39.903-23.069v-42.997l39.903 23.069v42.997z" fill="#CCC7BF"/><path d="M339.57 470.44l-39.929 23.069v-42.997l39.929-23.069v42.997z" fill="#E9E4DB"/><path d="M344.56 476.439l-39.929-23.069 39.929-23.043 39.903 23.043-39.903 23.069z" fill="#fff"/><path d="M344.56 519.461l-39.929-23.069V453.37l39.929 23.069v43.022z" fill="#CCC7BF"/><path d="M384.463 496.392l-39.903 23.069v-43.022l39.903-23.069v43.022z" fill="#E9E4DB"/><path d="M389.455 502.391l-39.929-23.069 39.929-23.068 39.903 23.068-39.903 23.069z" fill="#fff"/><path d="M389.455 545.387l-39.929-23.068v-42.997l39.929 23.069v42.996z" fill="#CCC7BF"/><path d="M429.358 522.319l-39.903 23.068v-42.996l39.903-23.069v42.997z" fill="#E9E4DB"/><path d="M209.699 450.589l-39.903-23.068 39.903-23.069 39.929 23.069-39.929 23.068z" fill="#BCB5AB"/><path d="M209.699 493.586l-39.903-23.069v-42.996l39.903 23.068v42.997z" fill="#CCC7BF"/><path d="M249.628 470.517l-39.929 23.069v-42.997l39.929-23.068v42.996z" fill="#A29D96"/><path d="M254.617 476.516l-39.929-23.043 39.929-23.069 39.903 23.069-39.903 23.043z" fill="#BCB5AB"/><path d="M254.617 519.538l-39.929-23.069v-42.996l39.929 23.043v43.022z" fill="#CCC7BF"/><path d="M294.52 496.469l-39.903 23.069v-43.022l39.903-23.043v42.996z" fill="#E9E4DB"/><path d="M299.51 502.468L259.607 479.4l39.903-23.043 39.904 23.043-39.904 23.068z" fill="#BCB5AB"/><path d="M299.51 545.465l-39.903-23.043V479.4l39.903 23.068v42.997z" fill="#CCC7BF"/><path d="M339.414 522.422l-39.903 23.043v-42.997l39.903-23.068v43.022z" fill="#E9E4DB"/><path d="M344.407 560.449l-39.903-23.069 39.903-23.043 39.929 23.043-39.929 23.069z" fill="url(#paint5_linear_1_305)"/><path d="M344.407 603.445l-39.903-23.043V537.38l39.903 23.069v42.996z" fill="url(#paint6_linear_1_305)"/><path d="M384.336 580.402l-39.929 23.043v-42.996l39.929-23.069v43.022z" fill="url(#paint7_linear_1_305)"/><path d="M344.818 323.557l-39.903-23.069 39.903-23.043 39.929 23.043-39.929 23.069z" fill="#fff"/><path d="M344.818 366.553l-39.903-23.043v-43.022l39.903 23.069v42.996z" fill="#CCC7BF"/><path d="M384.747 343.51l-39.929 23.043v-42.996l39.929-23.069v43.022z" fill="#E9E4DB"/><path d="M389.736 349.509l-39.928-23.068 39.928-23.069 39.903 23.069-39.903 23.068z" fill="#fff"/><path d="M389.737 392.506l-39.929-23.069v-42.996l39.929 23.068v42.997z" fill="#CCC7BF"/><path d="M429.639 369.437l-39.903 23.069v-42.997l39.903-23.068v42.996z" fill="#E9E4DB"/><path d="M434.632 375.436l-39.929-23.043 39.929-23.069 39.903 23.069-39.903 23.043z" fill="#BCB5AB"/><path d="M434.632 418.458l-39.929-23.069v-42.996l39.929 23.043v43.022z" fill="#CCC7BF"/><path d="M474.535 395.389l-39.903 23.069v-43.022l39.903-23.043v42.996z" fill="#E9E4DB"/><path d="M479.525 401.388l-39.903-23.069 39.903-23.068 39.929 23.068-39.929 23.069z" fill="#fff"/><path d="M479.525 444.384l-39.903-23.042v-43.023l39.903 23.069v42.996z" fill="#CCC7BF"/><path d="M519.454 421.342l-39.928 23.042v-42.996l39.928-23.069v43.023z" fill="#E9E4DB"/><path d="M299.796 349.586l-39.929-23.068 39.929-23.069 39.903 23.069-39.903 23.068z" fill="#fff"/><path d="M299.796 392.583l-39.929-23.043v-43.022l39.929 23.068v42.997z" fill="#CCC7BF"/><path d="M339.699 369.54l-39.903 23.043v-42.997l39.903-23.068v43.022z" fill="#E9E4DB"/><path d="M344.688 375.513l-39.903-23.043 39.903-23.069 39.903 23.069-39.903 23.043z" fill="#fff"/><path d="M344.688 418.535l-39.903-23.069V352.47l39.903 23.043v43.022z" fill="#CCC7BF"/><path d="M384.592 395.466l-39.903 23.069v-43.022l39.903-23.043v42.996z" fill="#E9E4DB"/><path d="M389.584 401.465l-39.903-23.068 39.903-23.043 39.929 23.043-39.929 23.068z" fill="#fff"/><path d="M389.583 444.462l-39.903-23.043v-43.022l39.903 23.068v42.997z" fill="#CCC7BF"/><path d="M429.513 421.419l-39.929 23.043v-42.997l39.929-23.068v43.022z" fill="#E9E4DB"/><path d="M434.476 427.418l-39.903-23.069 39.903-23.069 39.929 23.069-39.929 23.069z" fill="#fff"/><path d="M434.476 470.414l-39.903-23.069v-42.996l39.903 23.069v42.996z" fill="#CCC7BF"/><path d="M474.405 447.345l-39.929 23.069v-42.996l39.929-23.069v42.996z" fill="#E9E4DB"/><path d="M254.746 375.59l-39.903-23.043 39.903-23.068 39.928 23.068-39.928 23.043zm0 43.022l-39.903-23.068v-42.997l39.903 23.043v43.022zm39.929-23.068l-39.929 23.068V375.59l39.929-23.043v42.997z" fill="#A29D96"/><path d="M299.64 401.543l-39.903-23.069 39.903-23.043 39.929 23.043-39.929 23.069z" fill="#A29D96"/><path d="M299.64 444.539l-39.903-23.043v-43.022l39.903 23.069v42.996zm39.93-23.043l-39.929 23.043v-42.996l39.929-23.069v43.022z" fill="#A29D96"/><path d="M344.56 427.495l-39.929-23.069 39.929-23.068 39.903 23.068-39.903 23.069z" fill="#fff"/><path d="M344.56 470.491l-39.929-23.068v-42.997l39.929 23.069v42.996z" fill="#CCC7BF"/><path d="M384.463 447.423l-39.903 23.068v-42.996l39.903-23.069v42.997z" fill="#E9E4DB"/><path d="M389.455 453.421l-39.929-23.043 39.929-23.068 39.903 23.068-39.903 23.043z" fill="#fff"/><path d="M389.455 496.444l-39.929-23.069v-42.997l39.929 23.043v43.023z" fill="#CCC7BF"/><path d="M429.358 473.375l-39.903 23.069v-43.023l39.903-23.043v42.997z" fill="#E9E4DB"/><path d="M209.699 401.62l-39.903-23.043 39.903-23.069 39.929 23.069-39.929 23.043z" fill="#BCB5AB"/><path d="M209.699 444.642l-39.903-23.069v-42.996l39.903 23.043v43.022z" fill="#CCC7BF"/><path d="M249.628 421.573l-39.929 23.069V401.62l39.929-23.043v42.996z" fill="#A29D96"/><path d="M254.617 427.572l-39.929-23.069 39.929-23.043 39.903 23.043-39.903 23.069z" fill="#BCB5AB"/><path d="M254.617 470.569l-39.929-23.043v-43.023l39.929 23.069v42.997z" fill="#CCC7BF"/><path d="M294.52 447.526l-39.903 23.043v-42.997l39.903-23.069v43.023z" fill="#E9E4DB"/><path d="M299.51 453.499l-39.903-23.043 39.903-23.069 39.904 23.069-39.904 23.043z" fill="#BCB5AB"/><path d="M299.51 496.521l-39.903-23.069v-42.996l39.903 23.043v43.022z" fill="#CCC7BF"/><path d="M339.414 473.452l-39.903 23.069v-43.022l39.903-23.043v42.996z" fill="#E9E4DB"/><path d="M344.407 479.451l-39.903-23.069 39.903-23.043 39.929 23.043-39.929 23.069z" fill="#fff"/><path d="M344.407 522.447l-39.903-23.043v-43.022l39.903 23.069v42.996z" fill="#CCC7BF"/><path d="M384.336 499.404l-39.929 23.043v-42.996l39.929-23.069v43.022z" fill="#E9E4DB"/><path d="M344.818 274.613l-39.903-23.069 39.903-23.068 39.929 23.068-39.929 23.069z" fill="#BCB5AB"/><path d="M344.818 317.61l-39.903-23.069v-42.996l39.903 23.068v42.997z" fill="#CCC7BF"/><path d="M384.747 294.541l-39.929 23.069v-42.997l39.929-23.068v42.996z" fill="#E9E4DB"/><path d="M389.736 300.54l-39.928-23.043 39.928-23.069 39.903 23.069-39.903 23.043z" fill="#fff"/><path d="M389.737 343.562l-39.929-23.069v-42.996l39.929 23.043v43.022z" fill="#CCC7BF"/><path d="M429.639 320.493l-39.903 23.069V300.54l39.903-23.043v42.996z" fill="#E9E4DB"/><path d="M434.632 326.492l-39.929-23.069 39.929-23.068 39.903 23.068-39.903 23.069z" fill="#fff"/><path d="M434.632 369.488l-39.929-23.043v-43.022l39.929 23.069v42.996z" fill="#CCC7BF"/><path d="M474.535 346.445l-39.903 23.043v-42.996l39.903-23.069v43.022z" fill="#E9E4DB"/><path d="M479.525 352.419l-39.903-23.043 39.903-23.069 39.929 23.069-39.929 23.043z" fill="#fff"/><path d="M479.525 395.441l-39.903-23.069v-42.996l39.903 23.043v43.022z" fill="#CCC7BF"/><path d="M519.454 372.372l-39.928 23.069v-43.022l39.928-23.043v42.996z" fill="#E9E4DB"/><path d="M344.688 326.569l-39.903-23.068 39.903-23.043 39.903 23.043-39.903 23.068z" fill="#BCB5AB"/><path d="M344.688 369.566l-39.903-23.043v-43.022l39.903 23.068v42.997zm39.904-23.043l-39.903 23.043v-42.997l39.903-23.068v43.022z" fill="#CCC7BF"/><path d="M389.584 352.522l-39.903-23.069 39.903-23.069 39.929 23.069-39.929 23.069z" fill="#fff"/><path d="M389.583 395.518l-39.903-23.069v-42.996l39.903 23.069v42.996z" fill="#CCC7BF"/><path d="M429.513 372.449l-39.929 23.069v-42.996l39.929-23.069v42.996z" fill="#E9E4DB"/><path d="M539.342 439.029l-39.904-23.043 39.904-23.068 39.903 23.068-39.903 23.043z" fill="url(#paint8_linear_1_305)"/><path d="M539.342 482.051l-39.903-23.068v-42.997l39.903 23.043v43.022z" fill="url(#paint9_linear_1_305)"/><path d="M579.245 458.983l-39.903 23.068v-43.022l39.903-23.043v42.997z" fill="url(#paint10_linear_1_305)"/><path d="M299.64 352.599l-39.903-23.069 39.903-23.069 39.929 23.069-39.929 23.069z" fill="#fff"/><path d="M299.64 395.595l-39.903-23.069V329.53l39.903 23.069v42.996z" fill="#CCC7BF"/><path d="M339.57 372.526l-39.929 23.069v-42.996l39.929-23.069v42.996z" fill="#E9E4DB"/><path d="M344.56 378.525l-39.929-23.043 39.929-23.068 39.903 23.068-39.903 23.043z" fill="#fff"/><path d="M344.56 421.548l-39.929-23.069v-42.997l39.929 23.043v43.023z" fill="#CCC7BF"/><path d="M384.463 398.479l-39.903 23.069v-43.023l39.903-23.043v42.997z" fill="#E9E4DB"/><path d="M389.455 404.478l-39.929-23.069 39.929-23.043 39.903 23.043-39.903 23.069z" fill="#fff"/><path d="M389.455 447.474l-39.929-23.043v-43.022l39.929 23.069v42.996z" fill="#CCC7BF"/><path d="M429.358 424.431l-39.903 23.043v-42.996l39.903-23.069v43.022z" fill="#E9E4DB"/><path d="M209.699 352.676l-39.903-23.069 39.903-23.068 39.929 23.068-39.929 23.069z" fill="#BCB5AB"/><path d="M209.699 395.672l-39.903-23.042v-43.023l39.903 23.069v42.996z" fill="#CCC7BF"/><path d="M249.628 372.63l-39.929 23.042v-42.996l39.929-23.069v43.023z" fill="#A29D96"/><path d="M158.913 433.906l-39.903-23.069 39.903-23.069 39.929 23.069-39.929 23.069z" fill="url(#paint11_linear_1_305)"/><path d="M158.913 476.902l-39.903-23.043v-43.022l39.903 23.069v42.996z" fill="url(#paint12_linear_1_305)"/><path d="M198.842 453.859l-39.929 23.043v-42.996l39.929-23.069v43.022z" fill="url(#paint13_linear_1_305)"/><path d="M299.51 404.555l-39.903-23.069 39.903-23.043 39.904 23.043-39.904 23.069z" fill="#BCB5AB"/><path d="M299.51 447.551l-39.903-23.043v-43.022l39.903 23.069v42.996z" fill="#CCC7BF"/><path d="M339.414 424.508l-39.903 23.043v-42.996l39.903-23.069v43.022z" fill="#E9E4DB"/><path d="M344.407 430.507l-39.903-23.068 39.903-23.069 39.929 23.069-39.929 23.068z" fill="#fff"/><path d="M344.407 473.504l-39.903-23.069v-42.997l39.903 23.069v42.997z" fill="#CCC7BF"/><path d="M384.336 450.435l-39.929 23.069v-42.997l39.929-23.069v42.997z" fill="#E9E4DB"/><path d="M344.818 225.644l-39.903-23.069 39.903-23.043 39.929 23.043-39.929 23.069z" fill="#fff"/><path d="M344.818 268.666l-39.903-23.069v-43.022l39.903 23.069v43.022z" fill="#CCC7BF"/><path d="M384.747 245.597l-39.929 23.069v-43.022l39.929-23.069v43.022z" fill="#E9E4DB"/><path d="M389.736 251.596l-39.928-23.069 39.928-23.068 39.903 23.068-39.903 23.069z" fill="#fff"/><path d="M389.737 294.592l-39.929-23.043v-43.022l39.929 23.069v42.996z" fill="#CCC7BF"/><path d="M429.639 271.549l-39.903 23.043v-42.996l39.903-23.069v43.022z" fill="#E9E4DB"/><path d="M434.632 277.523l-39.929-23.043 39.929-23.069 39.903 23.069-39.903 23.043z" fill="#fff"/><path d="M434.632 320.545l-39.929-23.069V254.48l39.929 23.043v43.022z" fill="#CCC7BF"/><path d="M474.535 297.476l-39.903 23.069v-43.022l39.903-23.043v42.996z" fill="#E9E4DB"/><path d="M207.982 227.516l-39.903-23.068 39.903-23.069 39.929 23.069-39.929 23.068z" fill="url(#paint14_linear_1_305)"/><path d="M207.982 270.513l-39.903-23.069v-42.996l39.903 23.068v42.997z" fill="url(#paint15_linear_1_305)"/><path d="M247.911 247.444l-39.928 23.069v-42.997l39.928-23.068v42.996z" fill="url(#paint16_linear_1_305)"/><path d="M344.688 277.6l-39.903-23.043 39.903-23.069 39.903 23.069-39.903 23.043z" fill="#fff"/><path d="M344.688 320.622l-39.903-23.069v-42.996l39.903 23.043v43.022z" fill="#CCC7BF"/><path d="M384.592 297.553l-39.903 23.069V277.6l39.903-23.043v42.996z" fill="#E9E4DB"/><path d="M389.584 303.552l-39.903-23.069 39.903-23.043 39.929 23.043-39.929 23.069z" fill="#fff"/><path d="M389.583 346.574l-39.903-23.068v-43.023l39.903 23.069v43.022z" fill="#CCC7BF"/><path d="M429.513 323.506l-39.929 23.068v-43.022l39.929-23.069v43.023z" fill="#E9E4DB"/><path d="M434.476 329.504l-39.903-23.068 39.903-23.069 39.929 23.069-39.929 23.068z" fill="#fff"/><path d="M434.476 372.501l-39.903-23.043v-43.022l39.903 23.068v42.997z" fill="#CCC7BF"/><path d="M474.405 349.458l-39.929 23.043v-42.997l39.929-23.068v43.022z" fill="#E9E4DB"/><path d="M299.64 303.629l-39.903-23.043 39.903-23.068 39.929 23.068-39.929 23.043z" fill="#fff"/><path d="M299.64 346.651l-39.903-23.068v-42.997l39.903 23.043v43.022z" fill="#CCC7BF"/><path d="M339.57 323.583l-39.929 23.068v-43.022l39.929-23.043v42.997z" fill="#E9E4DB"/><path d="M344.56 114.033l-39.929-23.068 39.929-23.043 39.903 23.043-39.903 23.068z" fill="url(#paint17_linear_1_305)"/><path d="M344.56 157.03l-39.929-23.043V90.965l39.929 23.068v42.997z" fill="url(#paint18_linear_1_305)"/><path d="M384.463 133.987L344.56 157.03v-42.997l39.903-23.068v43.022z" fill="url(#paint19_linear_1_305)"/><path d="M389.455 355.534l-39.929-23.069 39.929-23.069 39.903 23.069-39.903 23.069z" fill="#fff"/><path d="M389.455 398.53l-39.929-23.068v-42.997l39.929 23.069v42.996z" fill="#CCC7BF"/><path d="M429.358 375.462l-39.903 23.068v-42.996l39.903-23.069v42.997z" fill="#E9E4DB"/><path d="M209.699 303.707l-39.903-23.043 39.903-23.069 39.929 23.069-39.929 23.043z" fill="#fff"/><path d="M209.699 346.729l-39.903-23.069v-42.996l39.903 23.043v43.022z" fill="#CCC7BF"/><path d="M249.628 323.66l-39.929 23.069v-43.022l39.929-23.043v42.996z" fill="#E9E4DB"/><path d="M254.617 329.659l-39.929-23.069 39.929-23.043 39.903 23.043-39.903 23.069z" fill="#fff"/><path d="M254.617 372.655l-39.929-23.043V306.59l39.929 23.069v42.996z" fill="#CCC7BF"/><path d="M294.52 349.612l-39.903 23.043v-42.996l39.903-23.069v43.022z" fill="#E9E4DB"/><path d="M299.51 355.611l-39.903-23.069 39.903-23.068 39.904 23.068-39.904 23.069z" fill="#fff"/><path d="M299.51 398.608l-39.903-23.069v-42.997l39.903 23.069v42.997z" fill="#CCC7BF"/><path d="M339.414 375.539l-39.903 23.069v-42.997l39.903-23.069v42.997z" fill="#E9E4DB"/><path d="M344.407 381.538l-39.903-23.069 39.903-23.043 39.929 23.043-39.929 23.069z" fill="#fff"/><path d="M344.407 424.56l-39.903-23.069v-43.022l39.903 23.069v43.022z" fill="#CCC7BF"/><path d="M384.336 401.491l-39.929 23.069v-43.022l39.929-23.069v43.022z" fill="#E9E4DB"/><path style="mix-blend-mode:screen" d="M629.258 490.857a1.41 1.41 0 01-.72-.181l-69.952-40.421a1.47 1.47 0 01.298-2.699 1.47 1.47 0 011.117.124l69.978 40.422a1.47 1.47 0 01.514 1.957 1.424 1.424 0 01-.505.572c-.218.14-.47.219-.73.226z" fill="url(#paint20_linear_1_305)"/><path style="mix-blend-mode:screen" d="M617.845 592.764a.904.904 0 01-.462-.152l-138.839-92.296a1.08 1.08 0 01-.448-.655 1.235 1.235 0 01.085-.828.985.985 0 01.568-.516.839.839 0 01.719.098l138.839 92.315c.146.13.254.307.312.508.058.201.063.418.013.622a1.09 1.09 0 01-.291.524.876.876 0 01-.496.247v.133z" fill="url(#paint21_linear_1_305)"/><path style="mix-blend-mode:screen" d="M51.346 495.929a1.443 1.443 0 01-1.235-.721 1.444 1.444 0 01.54-1.957l87.602-50.617a1.47 1.47 0 111.415 2.574L52.195 495.8c-.257.148-.56.194-.849.129z" fill="url(#paint22_linear_1_305)"/><path style="mix-blend-mode:screen" d="M345.513 92a2.57 2.57 0 01-.574-.062c-.182-.04-.347-.1-.486-.175a.998.998 0 01-.325-.263.504.504 0 01-.115-.31V.918a.46.46 0 01.051-.34.852.852 0 01.307-.3c.141-.087.314-.157.509-.205a2.665 2.665 0 011.24 0c.195.048.368.118.509.205a.852.852 0 01.307.3.46.46 0 01.051.34v90.26a.5.5 0 01-.104.31.975.975 0 01-.317.266c-.137.076-.3.138-.481.18-.18.042-.375.065-.572.067z" fill="url(#paint23_linear_1_305)"/><path style="mix-blend-mode:screen" d="M207.985 204.268a1.412 1.412 0 01-1.01-.424 1.418 1.418 0 01-.405-1.018V37.406a1.402 1.402 0 01.867-1.332 1.438 1.438 0 011.988 1.332v165.42c0 .382-.151.749-.422 1.019-.27.271-.636.423-1.018.423z" fill="url(#paint24_linear_1_305)"/><path opacity=".7" d="M445.463 293.768l-3.447-2.574c-1.75-1.262-8.413-4.943-10.291-6.102l-22.923 13.234-19.167 6.513v4.558l-31.439 18.022c18.267 8.522 42.656 10.298 63.624 5.69a79.187 79.187 0 0022.1-8.908l14.355-8.291c-.102-7.569-4.502-15.679-12.812-22.142z" fill="#A29D96"/><path d="M477.493 260.762v13.311c0-9.218-6.046-18.461-18.215-25.464-24.158-13.954-63.315-13.954-87.319 0-11.911 6.926-17.88 16.015-18.009 25.129v-13.337c0-9.088 5.995-18.202 18.009-25.128 24.004-13.955 63.161-13.955 87.319 0 12.143 7.029 18.215 16.271 18.189 25.489h.026z" fill="#D5D0C8"/><path d="M371.985 243.254c24.004-13.954 63.161-13.954 87.319 0 11.14 6.463 17.16 14.753 18.009 23.172 1.055-9.912-4.965-20.056-18.009-27.6-24.158-13.98-63.315-13.955-87.319 0-12.863 7.492-18.832 17.559-17.777 27.394.874-8.342 6.792-16.555 17.777-22.966z" fill="url(#paint25_linear_1_305)"/><path opacity=".8" d="M459.304 242.43c-24.158-13.954-63.315-13.954-87.318 0-24.004 13.955-23.875 36.663.283 50.618 24.158 13.954 63.315 13.954 87.318 0 24.004-13.955 23.875-36.663-.283-50.618z" fill="#2983FF"/><path d="M383.074 247.168l-1.132.669a3.37 3.37 0 01-3.371-.026l-3.936-2.265c-.54-.309-.797-.644-.797-.979 0-.334.257-.669.771-.978l1.132-.644a3.291 3.291 0 013.371 0l3.962 2.292c.514.309.797.618.772.978-.026.36-.258.669-.772.953zm-1.775.18l.951-.541c.644-.36.618-.746 0-1.133l-3.884-2.24a1.802 1.802 0 00-1.93 0l-.952.541c-.617.386-.592.747 0 1.133l3.885 2.24a1.802 1.802 0 001.93.077v-.077zm15.899-8.342l-1.158.669c-.5.294-1.067.454-1.646.464a3.233 3.233 0 01-1.698-.464l-3.962-2.291c-.515-.309-.772-.618-.772-.978 0-.361.257-.67.772-.953l1.132-.669a3.187 3.187 0 011.672-.438 3.626 3.626 0 011.698.438l3.936 2.291c.54.309.798.644.798.978 0 .335-.258.67-.772.953zm-1.775.18l.926-.54c.643-.361.643-.747 0-1.107l-3.885-2.266a1.845 1.845 0 00-1.955 0l-.926.541c-.644.36-.618.72 0 1.107l3.884 2.24a1.798 1.798 0 001.956.025zm1.055-6.411l-.463-.257c-.128 0-.154 0-.128-.206l.566-1.21a.46.46 0 01.205-.232l.464-.283a.385.385 0 01.334 0l6.998 4.042v.18l-.515.309a.328.328 0 01-.308 0l-6.278-3.63-.592 1.236s-.154.154-.283.051zm-29.869 39.701l-1.132.67a3.366 3.366 0 01-1.672.437 3.213 3.213 0 01-1.673-.463l-3.962-2.266c-.514-.309-.797-.643-.797-.978 0-.335.257-.67.772-.978l1.157-.644a3.243 3.243 0 013.345 0l3.962 2.291c.54.309.798.618.798.979 0 .36-.258.643-.798.952zm-1.749.181l.926-.541c.643-.361.617-.747 0-1.133l-3.885-2.24a1.857 1.857 0 00-1.955 0l-.927.541c-.643.36-.617.746 0 1.133l3.885 2.24a1.806 1.806 0 001.956 0zm15.411-8.059l-1.158.669c-.51.289-1.087.44-1.673.438a3.221 3.221 0 01-1.672-.463l-3.962-2.369c-.514-.309-.797-.644-.797-.978 0-.335.283-.67.797-.979l1.132-.643a3.213 3.213 0 011.672-.464 3.356 3.356 0 011.698.464l3.937 2.291c.54.283.797.618.797.953 0 .334-.257.772-.771 1.081zm-1.776.18l.927-.541c.643-.36.643-.746 0-1.132l-3.885-2.24a1.848 1.848 0 00-1.956 0l-.926.54c-.643.361-.617.747 0 1.133l3.885 2.24a1.796 1.796 0 001.955 0zm15.411-8.058l-1.158.643a3.109 3.109 0 01-1.646.464 3.243 3.243 0 01-1.698-.464l-3.962-2.214c-.515-.283-.772-.618-.772-.953 0-.334.257-.669.772-.978l1.132-.669a3.368 3.368 0 013.37.025l3.936 2.266c.54.309.798.644.798.978 0 .335-.232.593-.772.902zm-1.775.18l.926-.541c.643-.386.643-.747 0-1.133l-3.885-2.24a1.854 1.854 0 00-1.955 0l-.926.541c-.618.36-.618.747 0 1.133l3.884 2.24a1.806 1.806 0 001.956 0zm.796-6.282l-.437-.258c-.129 0-.154 0-.129-.232l.566-1.184s0-.206.18-.232l.489-.283a.234.234 0 01.309 0l7.024 4.042v.181l-.515.309a.385.385 0 01-.334 0l-6.278-3.631-.566 1.236s-.154.129-.309.052zm14.614-1.777l-1.132.644a3.295 3.295 0 01-3.371 0l-3.962-2.292c-.514-.283-.771-.617-.771-.952 0-.335.257-.67.771-.979l1.132-.669a3.452 3.452 0 011.673-.438 3.298 3.298 0 011.698.464l3.936 2.265c.54.309.797.644.797.979 0 .335-.257.669-.771.978zm-1.776.18l.952-.54c.618-.386.618-.747 0-1.133l-3.884-2.24a1.85 1.85 0 00-1.956 0l-.926.541c-.617.36-.617.746 0 1.107l3.885 2.265a1.844 1.844 0 001.929 0zm-38.411 32.183l-.463-.257s-.155-.155 0-.232l.566-1.21a.562.562 0 01.18-.232l.489-.257a.23.23 0 01.308 0l6.998 4.042s.129 0 0 .18l-.514.283a.234.234 0 01-.309 0l-6.277-3.604-.566 1.21a.208.208 0 01-.034.157.21.21 0 01-.291.055.213.213 0 01-.087-.135zm54.929-25.077l-1.158.644a3.118 3.118 0 01-1.646.464 3.243 3.243 0 01-1.698-.464l-3.962-2.291c-.515-.309-.772-.618-.772-.979 0-.36.257-.669.772-.952l1.132-.67a3.444 3.444 0 011.672-.437 3.625 3.625 0 011.698.437l3.936 2.292c.541.309.798.643.798.978 0 .335-.309.669-.772.978zm-1.775.181l.926-.541c.643-.386.643-.747 0-1.133l-3.885-2.24a1.854 1.854 0 00-1.955 0l-.926.541c-.618.36-.618.721 0 1.107l3.885 2.24a1.803 1.803 0 001.955.026zm15.874-8.342l-1.132.643a3.214 3.214 0 01-1.673.464 3.36 3.36 0 01-1.698-.464l-3.936-2.291c-.54-.283-.797-.618-.797-.953 0-.334.257-.669.771-.978l1.158-.669a3.367 3.367 0 011.672-.438 3.222 3.222 0 011.673.463l3.962 2.266c.54.309.797.644.797.978 0 .335-.283.67-.797.979zm-1.75.18l.926-.541c.644-.36.618-.746 0-1.132l-3.884-2.24a1.852 1.852 0 00-1.956 0l-.926.54c-.643.361-.617.747 0 1.133l3.885 2.24a1.845 1.845 0 001.955 0zm9.931-4.918l-1.132.67a3.425 3.425 0 01-3.344 0l-3.962-2.292c-.541-.309-.798-.643-.798-.978 0-.335.257-.669.772-.978l1.158-.644a3.24 3.24 0 013.344 0l3.962 2.291c.54.309.798.618.798.979 0 .36-.258.669-.798.952zm-1.749.181l.926-.541c.643-.36.617-.747 0-1.133l-3.885-2.24a1.854 1.854 0 00-1.955 0l-.926.541c-.644.386-.618.747 0 1.133l3.884 2.24a1.806 1.806 0 001.956 0zm-40.907 40.267l-1.132.669a3.437 3.437 0 01-1.672.438 3.62 3.62 0 01-1.698-.438l-3.937-2.291c-.54-.309-.797-.644-.797-.978 0-.335.257-.67.772-.979l1.132-.643a3.283 3.283 0 011.672-.464 3.236 3.236 0 011.698.464l3.962 2.291c.514.309.797.618.772.978-.026.361-.258.747-.772.953zm-1.75.18l.927-.541c.643-.36.617-.746 0-1.132l-3.885-2.24a1.803 1.803 0 00-1.93 0l-.952.54c-.617.387-.591.747 0 1.133l3.885 2.24a1.848 1.848 0 001.955 0zm.798-6.256l-.463-.283s-.154-.129 0-.206l.541-1.21a.604.604 0 01.205-.232l.463-.283a.386.386 0 01.335 0l6.998 4.042v.206l-.515.283a.328.328 0 01-.308 0l-6.278-3.63-.592 1.236c-.154.128-.257.154-.386.077zm5.686-3.296l-.463-.257s-.155-.155 0-.232l.566-1.21a.57.57 0 01.18-.232l.489-.257a.28.28 0 01.309 0l6.997 4.068v.18l-.514.283a.234.234 0 01-.309 0l-6.277-3.63-.592 1.236c-.154.103-.257.129-.386.051zm20.299-5.072l-1.158.644a3.105 3.105 0 01-1.646.463 3.233 3.233 0 01-1.698-.463l-3.962-2.291c-.515-.284-.772-.618-.772-.979 0-.36.257-.644.772-.952l1.132-.67a3.448 3.448 0 011.672-.438 3.38 3.38 0 011.698.464l3.936 2.266c.541.309.798.643.798.978 0 .335-.257.669-.772.978zm-1.775.18l.926-.54c.643-.386.643-.747 0-1.133l-3.885-2.24a1.854 1.854 0 00-1.955 0l-.926.541c-.643.36-.618.746 0 1.107l3.885 2.265a1.846 1.846 0 001.955 0zm17.674-9.371l-1.158.669c-.51.289-1.086.44-1.672.438a3.214 3.214 0 01-1.673-.464l-3.962-2.265c-.514-.309-.797-.644-.797-.979 0-.334.257-.669.797-.978l1.132-.644a3.243 3.243 0 013.345 0l3.962 2.292c.54.309.797.618.797.978 0 .361-.283.644-.771.953zm-1.776.18l.927-.541c.643-.36.643-.746 0-1.133l-3.885-2.239a1.849 1.849 0 00-1.955 0l-.927.54c-.643.361-.617.747 0 1.133l3.885 2.24a1.803 1.803 0 001.955.077v-.077zm15.411-8.059l-1.157.67c-.51.289-1.087.44-1.673.438a3.222 3.222 0 01-1.672-.464l-3.962-2.266c-.514-.309-.797-.643-.797-.978 0-.335.257-.669.797-.978l1.132-.644a3.242 3.242 0 013.345 0l3.962 2.291c.54.284.797.618.797.979 0 .36-.257.643-.772.952zm-1.775.181l.926-.541c.644-.36.644-.747 0-1.133l-3.884-2.24a1.857 1.857 0 00-1.956 0l-.926.541c-.643.36-.617.747 0 1.133l3.885 2.24a1.803 1.803 0 001.955 0zm-50.167 38.98l-.437-.284c-.129 0-.155-.128-.129-.206l.566-1.21a.62.62 0 01.206-.231l.463-.284a.385.385 0 01.334 0l6.998 4.043v.206l-.514.283a.335.335 0 01-.309 0l-6.278-3.63-.694 1.184s0 .206-.206.129zm14.483-1.725l-1.132.643a3.22 3.22 0 01-1.672.464 3.37 3.37 0 01-1.698-.464l-3.936-2.291c-.541-.283-.798-.618-.798-.953 0-.335.257-.669.772-.978l1.158-.67a3.377 3.377 0 011.672-.437 3.21 3.21 0 011.672.463l3.962 2.266c.541.309.798.644.798.978 0 .335-.283.67-.798.979zm-1.749.18l.926-.541c.643-.386.617-.747 0-1.133l-3.885-2.24a1.854 1.854 0 00-1.955 0l-.926.541c-.643.36-.618.747 0 1.107l3.885 2.266a1.9 1.9 0 001.955 0zm.669-6.308l-.437-.258c-.129 0-.155-.154-.129-.231l.566-1.21a.57.57 0 01.18-.232l.489-.283a.334.334 0 01.309 0l7.023 4.068v.18l-.514.283a.258.258 0 01-.335 0l-6.277-3.63-.566 1.236c-.052.206-.154.231-.309.077zm14.484-1.622l-1.132.669a3.44 3.44 0 01-1.673.438 3.368 3.368 0 01-1.698-.463l-3.936-2.266c-.54-.309-.798-.644-.798-.978 0-.335.258-.67.772-.979l1.132-.643a3.298 3.298 0 013.371 0l3.962 2.291c.514.309.797.618.797.978 0 .361-.18.644-.797.953zm-1.75.18l.926-.541c.644-.36.618-.746 0-1.132l-3.885-2.24a1.845 1.845 0 00-1.955 0l-.952.54c-.617.361-.591.747 0 1.133l3.885 2.24a1.848 1.848 0 001.981 0zm14.074-14.006l-.463-.257s-.154 0 0-.232l.566-1.184c0-.129 0-.206.18-.232l.489-.283a.284.284 0 01.309 0l7.023 4.042v.18l-.514.309a.385.385 0 01-.335 0l-6.277-3.63-.566 1.236c-.18.18-.283.18-.412.051zm13.404-7.724l-.463-.283s-.155 0 0-.206l.566-1.21a.554.554 0 01.18-.232l.488-.283a.335.335 0 01.309 0l6.998 4.042v.206l-.489.283a.372.372 0 01-.334 0l-6.278-3.63-.566 1.236a.21.21 0 01-.324.212.21.21 0 01-.087-.135zm14.484-1.673l-1.133.643a3.208 3.208 0 01-1.672.464 3.36 3.36 0 01-1.698-.464l-3.962-2.291c-.514-.283-.772-.618-.772-.953 0-.334.258-.669.772-.978l1.132-.669a3.438 3.438 0 011.673-.438 3.297 3.297 0 011.698.463l3.936 2.266c.54.309.797.644.797.978 0 .335-.257.67-.771.979zm-1.776.18l.952-.541c.618-.386.618-.746 0-1.133l-3.885-2.239a1.846 1.846 0 00-1.955 0l-.926.54c-.618.361-.618.747 0 1.107l3.885 2.266a1.853 1.853 0 001.929 0zm-49.782 38.748l-.463-.257a.184.184 0 01-.042-.116c0-.042.015-.083.042-.116l.566-1.184a.388.388 0 01.206-.232l.463-.283a.385.385 0 01.335 0l6.997 4.042v.18l-.514.309a.334.334 0 01-.309 0l-6.406-3.553-.592 1.236c-.051.051-.154.051-.283-.026zm5.919-3.424l-.464-.258s-.154 0 0-.231l.566-1.185c0-.128 0-.206.181-.231l.488-.284a.347.347 0 01.309 0l6.998 4.043c.129 0 .129 0 0 .18l-.515.309a.328.328 0 01-.308 0l-6.355-3.63-.592 1.235s-.18.129-.308.052zm11.859-6.849l-.463-.257s-.155 0 0-.232l.566-1.21s0-.18.18-.206l.489-.283a.23.23 0 01.308 0l6.998 4.042v.18l-.514.309a.335.335 0 01-.309 0l-6.38-3.578-.592 1.235s-.154.078-.283 0zm5.919-3.424l-.438-.257s-.154-.155 0-.232l.566-1.21s0-.18.18-.206l.489-.283a.231.231 0 01.309 0l7.023 4.042v.18l-.514.309a.388.388 0 01-.335 0l-6.277-3.63-.566 1.236s-.283.128-.437.051zm14.123-8.11l-.463-.257s-.155 0 0-.206l.566-1.21c0-.129 0-.206.18-.232l.489-.283a.328.328 0 01.308 0l6.998 4.042v.18l-.514.309a.335.335 0 01-.309 0l-6.278-3.63-.591 1.236s-.258.051-.386.051zm5.916-3.476l-.437-.257a.189.189 0 01-.067-.032.179.179 0 01-.062-.2l.566-1.184c0-.129 0-.206.18-.232l.489-.283a.335.335 0 01.309 0l7.024 4.042v.18l-.515.309a.385.385 0 01-.334 0l-6.278-3.63-.566 1.236c-.051.129-.154.129-.309.051z" fill="#80E4FF"/><path d="M354.131 257.26l-.463-.283s-.154 0 0-.206l.54-1.21a.622.622 0 01.206-.232l.463-.283a.39.39 0 01.335 0l6.998 4.042v.206l-.515.283a.283.283 0 01-.309 0l-6.277-3.63-.592 1.236s-.257.154-.386.077zm14.845-1.931l-1.158.644a3.131 3.131 0 01-1.672.463 3.207 3.207 0 01-1.672-.463l-3.962-2.291c-.515-.284-.798-.618-.798-.953 0-.335.257-.67.798-.978l1.132-.67a3.445 3.445 0 011.672-.438 3.22 3.22 0 011.672.464l3.962 2.266c.54.309.798.643.798.978 0 .335-.258.798-.772.978zm-1.775.181l.926-.541c.643-.386.643-.747 0-1.133l-3.885-2.24a1.854 1.854 0 00-1.955 0l-.926.541c-.644.36-.618.746 0 1.133l3.884 2.24a1.806 1.806 0 001.956 0zm1.028-6.411l-.437-.258s-.154-.154 0-.231l.566-1.211a.916.916 0 01.18-.231l.489-.258a.283.283 0 01.309 0l7.023 4.068v.18l-.514.284a.234.234 0 01-.309 0l-6.277-3.605-.592 1.21s-.283.129-.438.052zm14.126-8.162l-.463-.257s-.155 0 0-.232l.566-1.21a.562.562 0 01.18-.232l.489-.257a.23.23 0 01.308 0l6.998 4.042v.18l-.514.309a.335.335 0 01-.309 0l-6.38-3.579-.566 1.236a.21.21 0 01-.239.052.2.2 0 01-.07-.052zm-16.697 25.437l-.463-.257a.184.184 0 01-.042-.116c0-.042.015-.083.042-.116l.566-1.184c0-.129 0-.206.18-.232l.489-.283a.335.335 0 01.309 0l7.024 4.042v.18l-.515.309a.385.385 0 01-.334 0l-6.278-3.63-.566 1.236s-.283.129-.412.051zm13.635-7.878l-.438-.257a.176.176 0 01-.066-.032.176.176 0 01-.071-.127.18.18 0 01.009-.073l.566-1.184c0-.129 0-.206.18-.232l.489-.283a.328.328 0 01.308 0l7.024 4.042v.18l-.515.309a.385.385 0 01-.334 0l-6.278-3.63-.566 1.236c-.077.128-.154.128-.308.051zm27.271-15.757l-.437-.257s-.155-.155 0-.232l.566-1.21a.621.621 0 01.206-.232l.463-.257a.256.256 0 01.334 0l6.998 4.042v.18l-.515.309a.328.328 0 01-.308 0l-6.278-3.63-.591 1.236s-.283.129-.438.051zm14.612-1.776l-1.132.643a3.21 3.21 0 01-1.672.464 3.36 3.36 0 01-1.698-.464l-3.962-2.291c-.515-.283-.772-.618-.772-.978 0-.361.257-.67.772-.953l1.132-.669a3.437 3.437 0 011.672-.438 3.242 3.242 0 011.698.463l3.962 2.266c.515.309.772.644.772.978 0 .335-.257.67-.772.979zm-1.775.18l.952-.541c.643-.386.617-.746 0-1.132l-3.885-2.24a1.792 1.792 0 00-1.929 0l-.952.54c-.618.361-.618.747 0 1.107l3.885 2.266a1.852 1.852 0 001.929 0zm9.726-4.789l-1.235.773a3.238 3.238 0 01-1.672.437 3.116 3.116 0 01-1.698-.437l-3.962-2.292c-.515-.309-.772-.618-.772-.978 0-.361.257-.67.772-.953l1.132-.669a3.187 3.187 0 011.672-.438 3.264 3.264 0 011.698.438l3.936 2.291c.541.309.798.644.798.979 0 .334-.155.566-.669.849zm-1.775.18l.952-.54c.617-.361.617-.747 0-1.107l-3.885-2.266a1.848 1.848 0 00-1.955 0l-.927.541c-.617.36-.617.721 0 1.107l3.885 2.24a1.805 1.805 0 001.93.025zM382.2 279.273l-1.158.67a3.347 3.347 0 01-1.647.437 3.238 3.238 0 01-1.698-.463l-3.962-2.266c-.514-.309-.771-.643-.771-.978 0-.335.257-.669.771-.978l1.132-.644a3.213 3.213 0 011.673-.463 3.368 3.368 0 011.698.463l3.936 2.291c.54.309.798.618.798.979 0 .36-.258.669-.772.952zm-1.775.181l.926-.541c.643-.361.643-.747 0-1.133l-3.885-2.24a1.857 1.857 0 00-1.955 0l-.927.541c-.617.386-.617.746 0 1.133l3.885 2.24a1.806 1.806 0 001.956 0zm1.157-6.283l-.463-.257c-.129 0-.154 0-.129-.232l.566-1.184a.396.396 0 01.206-.232l.463-.283a.28.28 0 01.335 0l6.997 4.042v.18l-.514.309a.334.334 0 01-.309 0l-6.277-3.63-.592 1.236-.283.051zm14.716-2.059l-1.132.669a3.47 3.47 0 01-1.672.464 3.38 3.38 0 01-1.698-.464l-3.936-2.291c-.54-.309-.798-.618-.798-.979 0-.36.258-.669.772-.952l1.158-.67a3.137 3.137 0 011.672-.437 3.444 3.444 0 011.672.437l3.962 2.292c.515.309.798.643.798.978 0 .335-.283.67-.798.953zm-1.749.18l.926-.541c.643-.36.618-.746 0-1.107l-3.885-2.265a1.846 1.846 0 00-1.955 0l-.926.54c-.643.361-.618.721 0 1.107l3.885 2.24a1.8 1.8 0 001.852.026h.103zm1.028-6.411l-.463-.257a.155.155 0 010-.206l.566-1.21a.443.443 0 01.18-.232l.489-.283a.335.335 0 01.309 0l7.024 4.042v.18l-.515.309a.385.385 0 01-.334 0l-6.278-3.63-.566 1.236a.207.207 0 01-.333.189.21.21 0 01-.079-.138zm5.945-3.424l-.463-.258a.175.175 0 010-.231l.566-1.185a.39.39 0 01.205-.231l.464-.284a.385.385 0 01.334 0l6.998 4.043v.18l-.515.309a.328.328 0 01-.308 0l-6.407-3.502-.591 1.236s-.155.026-.283-.077zm5.917-3.424l-.463-.258s-.155-.129 0-.232l.566-1.184s0-.206.18-.232l.489-.283a.328.328 0 01.308 0l6.998 4.042v.181l-.514.309a.347.347 0 01-.309 0l-6.278-3.631-.566 1.236c-.18.129-.283.129-.411.052zM421.563 250l-.463-.283c-.129 0-.155 0-.129-.206l.566-1.21a.615.615 0 01.206-.232l.463-.283a.372.372 0 01.334 0l6.998 4.068v.18l-.514.283a.234.234 0 01-.309 0l-6.278-3.63-.591 1.236s-.155.077-.283.077zm22.28-12.873l-.437-.258c-.129 0-.154 0-.129-.232l.566-1.184s0-.206.181-.232l.488-.283a.234.234 0 01.309 0l7.024 4.042v.181l-.515.309a.385.385 0 01-.334 0l-6.278-3.631-.566 1.236s-.154.052-.309.052zm-64.474 52.934l-.463-.257s-.154-.155 0-.232l.541-1.21a.611.611 0 01.205-.232l.464-.257a.254.254 0 01.334 0l6.998 4.042v.18l-.515.309a.328.328 0 01-.308 0l-6.278-3.63-.592 1.21c-.154.129-.257.154-.386.077zm14.589-1.776l-1.132.643a3.223 3.223 0 01-1.673.464 3.38 3.38 0 01-1.698-.464l-3.936-2.291c-.54-.309-.797-.618-.797-.979 0-.36.257-.669.771-.952l1.132-.67a3.552 3.552 0 011.698-.437 3.45 3.45 0 011.673.437l3.962 2.292c.514.309.797.644.797.978 0 .335-.309.67-.797.979zm-1.75.154l.926-.515c.644-.386.618-.747 0-1.133l-3.884-2.24a1.86 1.86 0 00-1.956 0l-.926.541c-.643.36-.617.721 0 1.107l3.885 2.24a1.804 1.804 0 001.955 0zm20.248-17.43l-.463-.258s-.129-.154 0-.231l.566-1.21a.554.554 0 01.18-.232l.488-.258a.234.234 0 01.309 0l7.024 4.043v.18l-.515.309a.385.385 0 01-.334 0l-6.278-3.631-.566 1.236a.204.204 0 01-.042.153.206.206 0 01-.369-.101zm22.433-6.385l-1.157.669c-.506.3-1.085.451-1.673.438a2.96 2.96 0 01-1.672-.438l-3.962-2.291c-.514-.309-.797-.618-.797-.979 0-.36.257-.669.797-.952l1.132-.67a3.424 3.424 0 013.345 0l3.962 2.292c.54.309.797.643.797.978 0 .335-.257.669-.772.953zm-1.775.18l.926-.541c.644-.36.644-.746 0-1.107l-3.884-2.266a1.86 1.86 0 00-1.956 0l-.926.541c-.643.361-.617.721 0 1.107l3.885 2.24a1.795 1.795 0 001.878.026h.077zm8.748-10.865l-.463-.257s-.155-.129 0-.232l.566-1.185s0-.206.18-.231l.488-.283a.335.335 0 01.309 0l7.024 4.042v.18l-.515.309a.385.385 0 01-.334 0l-6.381-3.708-.566 1.236s-.18.206-.308.129zm22.563-6.359l-1.158.643a3.132 3.132 0 01-1.672.464 3.223 3.223 0 01-1.673-.464l-3.961-2.291c-.515-.309-.798-.618-.798-.979 0-.36.257-.669.798-.952l1.132-.67a3.419 3.419 0 013.344 0l3.962 2.292c.54.309.798.644.798.978 0 .335-.258.67-.772.979zm-1.775.18l.926-.541c.643-.386.643-.746 0-1.133l-3.885-2.24a1.857 1.857 0 00-1.955 0l-.926.541c-.644.361-.618.721 0 1.107l3.884 2.24a1.807 1.807 0 001.956.026zm-63.676 46.781l-.463-.283s-.154-.129 0-.206l.54-1.21a.615.615 0 01.206-.232l.463-.283a.385.385 0 01.334 0l6.998 4.042v.206l-.514.283a.284.284 0 01-.309 0l-6.277-3.63-.592 1.236s-.257.154-.386.077zm32.365-18.795l-.437-.257s-.155-.155 0-.232l.566-1.21a.554.554 0 01.18-.232l.489-.257a.23.23 0 01.308 0l7.024 4.042v.18l-.515.309a.385.385 0 01-.334 0l-6.278-3.63-.566 1.21c-.205.206-.283.232-.437.077zm14.563-1.648l-1.132.67a3.447 3.447 0 01-1.672.437 3.344 3.344 0 01-1.698-.437l-3.937-2.292c-.54-.309-.797-.643-.797-.978 0-.335.257-.669.772-.978l1.132-.644a3.287 3.287 0 013.37 0l3.962 2.291c.515.309.798.618.772.979-.026.36-.335.669-.772.952zm-1.775.181l.952-.541c.643-.361.617-.747 0-1.107l-3.885-2.266a1.751 1.751 0 00-1.93 0l-.952.541c-.617.36-.591.721 0 1.107l3.885 2.24a1.796 1.796 0 001.853.026h.077zm15.101-7.905l-1.132.644a3.22 3.22 0 01-1.672.464 3.38 3.38 0 01-1.698-.464l-3.962-2.291c-.515-.309-.772-.618-.772-.979 0-.36.257-.669.772-.952l1.132-.67a3.47 3.47 0 013.37 0l3.962 2.292c.515.309.798.643.772.978-.026.335-.257.669-.772.978zm-1.775.155l.952-.541c.617-.36.617-.721 0-1.107l-3.885-2.24a1.751 1.751 0 00-1.93 0l-.952.541c-.617.36-.617.721 0 1.107l3.885 2.24a1.754 1.754 0 001.93 0zm-24.416 24.176l-.437-.258a.166.166 0 01-.067-.032.198.198 0 01-.049-.055.177.177 0 01-.021-.071.163.163 0 01.008-.073l.566-1.185a.37.37 0 01.079-.137.37.37 0 01.127-.094l.463-.284a.28.28 0 01.309 0l7.023 4.042v.181l-.514.309a.347.347 0 01-.309 0l-6.278-3.631-.591 1.236c-.181.129-.309.129-.309.052zm26.576-8.78l-1.132.67a3.188 3.188 0 01-1.672.437 3.116 3.116 0 01-1.698-.437l-3.962-2.292c-.515-.309-.772-.618-.772-.978 0-.361.257-.67.772-.953l1.132-.669a3.187 3.187 0 011.672-.438 3.467 3.467 0 011.698.438l3.962 2.291c.515.309.798.644.772.979-.026.334-.257.669-.772.952zm-1.775.18l.952-.54c.643-.361.617-.747 0-1.107l-3.885-2.266a1.802 1.802 0 00-1.93 0l-.952.541c-.617.36-.591.721 0 1.107l3.885 2.24a1.805 1.805 0 001.93.025zm21.817-11.74l-1.132.644a3.212 3.212 0 01-1.672.463 3.368 3.368 0 01-1.698-.463l-3.937-2.292c-.54-.309-.797-.618-.797-.978s.257-.669.772-.953l1.132-.669a3.472 3.472 0 013.37 0l3.962 2.291c.514.309.797.644.772.979-.026.334-.258.669-.772.978zm-1.775.18l.952-.54c.643-.386.617-.747 0-1.133l-3.885-2.24a1.803 1.803 0 00-1.93 0l-.952.541c-.617.36-.591.721 0 1.107l3.885 2.265a1.854 1.854 0 001.93.052v-.052z" opacity=".5" fill="#0F4BC2"/><path d="M480.22 260.762v13.336c0 9.501-6.251 19.001-18.703 26.236-25.033 14.572-65.939 14.572-91.152 0-12.684-7.338-19.013-16.993-18.987-26.622v-13.414c0 9.629 6.303 19.284 19.012 26.596 25.188 14.573 66.094 14.573 91.152 0 12.427-7.234 18.678-16.735 18.704-26.235l-.026.103z" fill="url(#paint26_linear_1_305)"/><path d="M461.336 234.166c25.213 14.572 25.341 38.259.309 52.831-25.033 14.573-65.965 14.573-91.152 0-25.187-14.572-25.367-38.259-.309-52.831 25.059-14.573 65.811-14.573 91.152 0zm-88.939 51.724c24.158 13.955 63.315 13.955 87.318 0 24.004-13.954 23.875-36.663-.283-50.617-24.158-13.955-63.315-13.955-87.318 0-24.004 13.954-23.875 36.663.283 50.617z" fill="#FDFAF5"/><path d="M473.095 306.487c0 3.296 2.315 4.634 5.145 2.987a11.457 11.457 0 005.146-8.96c0-3.321-2.342-4.66-5.146-3.012a11.522 11.522 0 00-5.145 8.985z" fill="#6C00AC"/><path d="M481.92 297.167l-16.749-9.681a3.652 3.652 0 00-3.705.335 11.541 11.541 0 00-5.145 8.986 3.687 3.687 0 001.466 3.321l16.775 9.68a3.63 3.63 0 01-1.493-3.321 11.542 11.542 0 015.146-8.985 3.651 3.651 0 013.705-.335z" fill="#D2CDC4"/><path d="M486.035 293.562a6.23 6.23 0 00-6.303.593 19.496 19.496 0 00-8.799 15.293 6.185 6.185 0 002.573 5.664l63.597 36.766 12.607-21.55-63.675-36.766z" fill="url(#paint27_linear_1_305)"/><path d="M534.53 346.188c0 5.638 3.962 7.904 8.825 5.149a19.511 19.511 0 008.824-15.293c0-3.682-1.723-5.947-4.27-6.256a7.45 7.45 0 00-4.554 1.184 19.508 19.508 0 00-8.825 15.216z" fill="url(#paint28_linear_1_305)"/><path style="mix-blend-mode:screen" opacity=".5" d="M534.531 346.188c2.213-10.788 9.468-16.503 13.378-16.452-5.016-1.751-14.535 7.261-13.378 16.452z" fill="url(#paint29_radial_1_305)"/><path d="M365.657 255.561l-.463-.283a.153.153 0 010-.206l.566-1.21a.554.554 0 01.18-.232l.489-.283a.328.328 0 01.308 0l7.024 4.042v.206l-.515.283a.31.31 0 01-.334 0l-6.278-3.63-.566 1.236a.204.204 0 01-.033.157.205.205 0 01-.134.087.204.204 0 01-.157-.033.205.205 0 01-.087-.134zm40.907-18.872l-.438-.283s-.154 0 0-.206l.566-1.21a.615.615 0 01.206-.232l.412-.206a.385.385 0 01.334 0l6.998 4.042v.206l-.515.283a.328.328 0 01-.308 0l-6.278-3.63-.591 1.236s-.232.077-.386 0zm-24.365 36.482l-1.158.644a3.108 3.108 0 01-1.646.463 3.233 3.233 0 01-1.698-.463l-3.962-2.291c-.515-.309-.772-.618-.772-.979 0-.36.257-.669.772-.952l1.132-.67a3.444 3.444 0 011.672-.437 3.625 3.625 0 011.698.437l3.936 2.292c.541.309.798.643.798.978 0 .335-.257.721-.772.978zm-1.775.155l.926-.515c.643-.386.643-.747 0-1.133l-3.885-2.24a1.854 1.854 0 00-1.955 0l-.926.541c-.618.36-.618.721 0 1.107l3.885 2.24a1.745 1.745 0 001.955.051v-.051zm1.157-6.334l-.463-.283c-.129 0-.154-.129-.129-.206l.566-1.21a.63.63 0 01.206-.232l.463-.283a.393.393 0 01.335 0l6.998 4.042v.206l-.515.283a.23.23 0 01-.309 0l-6.277-3.63-.592 1.236c-.154.129-.283.155-.283.077zm14.717-1.931l-1.132.644a3.212 3.212 0 01-1.672.463 3.368 3.368 0 01-1.698-.463l-3.937-2.292c-.54-.283-.797-.617-.797-.952 0-.335.257-.67.772-.979l1.157-.669a3.371 3.371 0 011.673-.438 3.222 3.222 0 011.672.464l3.962 2.265c.514.309.797.644.797.979 0 .335-.283.669-.797.978zm-1.75.18l.927-.54c.643-.361.617-.747 0-1.133l-3.885-2.24a1.848 1.848 0 00-1.956 0l-.926.541c-.643.36-.617.746 0 1.133l3.885 2.239a1.85 1.85 0 001.852 0h.103zm1.029-6.41l-.463-.258v-.231l.566-1.211a.574.574 0 01.18-.231l.489-.258a.234.234 0 01.309 0l7.024 4.042v.181l-.515.283a.258.258 0 01-.334 0l-6.278-3.605-.566 1.21a.211.211 0 01-.167.245.212.212 0 01-.157-.033.212.212 0 01-.088-.134zm11.861-6.849l-.463-.257s-.155-.155 0-.232l.566-1.21a.562.562 0 01.18-.232l.489-.283a.328.328 0 01.309 0l6.997 4.068v.18l-.514.283a.234.234 0 01-.309 0l-6.277-3.63-.566 1.236a.212.212 0 01-.033.157.21.21 0 01-.379-.08zm14.124-8.161l-.463-.258c-.129 0-.155-.154-.129-.232l.566-1.21a.62.62 0 01.206-.231l.463-.258a.285.285 0 01.167-.055c.06 0 .119.02.167.055l6.998 4.042v.181l-.514.309a.347.347 0 01-.309 0l-6.278-3.631-.591 1.236s-.155.129-.283.052zm-42.192 40.164l-.464-.258s-.154 0 0-.206l.541-1.21a.39.39 0 01.206-.231l.463-.284a.385.385 0 01.334 0l6.998 4.043v.18l-.515.309a.328.328 0 01-.308 0l-6.278-3.63-.592 1.235s-.257.155-.385.052zm14.587-1.777l-1.132.67a3.45 3.45 0 01-1.673.437 3.368 3.368 0 01-1.698-.463l-3.936-2.266c-.54-.309-.798-.643-.798-.978 0-.335.258-.669.772-.978l1.132-.644a3.287 3.287 0 011.698-.463 3.213 3.213 0 011.673.463l3.962 2.291c.514.309.797.618.797.979 0 .36-.309.643-.797.952zm-1.75.181l.926-.541c.643-.361.618-.747 0-1.133l-3.885-2.24a1.854 1.854 0 00-1.955 0l-.926.541c-.643.36-.617.746 0 1.133l3.885 2.24a1.854 1.854 0 001.955 0zm20.249-17.431l-.464-.283a.155.155 0 010-.206l.566-1.21a.565.565 0 01.181-.232l.488-.283a.335.335 0 01.309 0l7.024 4.042v.206l-.515.284a.385.385 0 01-.334 0l-6.278-3.631-.566 1.236a.21.21 0 01-.324.212.21.21 0 01-.087-.135zm22.433-6.385l-1.158.644a3.131 3.131 0 01-1.672.463 3.213 3.213 0 01-1.673-.463l-3.962-2.291c-.514-.284-.797-.618-.797-.953 0-.335.257-.669.797-.978l1.132-.67a3.463 3.463 0 011.673-.438 3.222 3.222 0 011.672.464l3.962 2.266c.54.309.798.643.798.978 0 .335-.258.669-.772.978zm-1.776.181l.927-.541c.643-.386.643-.747 0-1.133l-3.885-2.24a1.857 1.857 0 00-1.955 0l-.927.541c-.643.36-.617.746 0 1.107l3.885 2.266a1.857 1.857 0 001.878 0h.077zm8.748-10.866l-.463-.257s-.155-.154 0-.232l.566-1.21a.56.56 0 01.18-.231l.489-.284a.327.327 0 01.154-.037c.054 0 .107.012.154.037l7.024 4.068v.18l-.515.284a.257.257 0 01-.334 0l-6.277-3.631-.566 1.236a.21.21 0 01-.325.212.213.213 0 01-.087-.135zm-42.888 40.577l-.463-.258s-.154-.154 0-.231l.54-1.211a.62.62 0 01.206-.231l.463-.258a.258.258 0 01.335 0l6.998 4.042v.181l-.515.309a.346.346 0 01-.309 0l-6.277-3.631-.592 1.21c-.154.232-.257.232-.386.078zm46.927-20.443l-1.132.644a3.21 3.21 0 01-1.672.463 3.368 3.368 0 01-1.698-.463l-3.936-2.292c-.541-.283-.798-.618-.798-.978s.257-.669.772-.953l1.132-.669a3.448 3.448 0 011.672-.438 3.243 3.243 0 011.698.464l3.962 2.265c.515.309.798.644.772.979-.026.334-.334.695-.772.978zm-1.775.18l.952-.54c.643-.386.617-.747 0-1.133l-3.885-2.24a1.8 1.8 0 00-1.929 0l-.952.541c-.618.36-.592.746 0 1.107l3.884 2.265a1.857 1.857 0 001.853.026l.077-.026zm15.102-7.904l-1.132.67a3.444 3.444 0 01-1.672.437 3.368 3.368 0 01-1.698-.463l-3.962-2.266c-.515-.309-.772-.643-.772-.978 0-.335.257-.67.772-.979l1.132-.643a3.29 3.29 0 013.37 0l3.962 2.291c.515.283.798.618.772.979-.026.36-.257.643-.772.952zm-1.775.18l.952-.54c.618-.361.618-.747 0-1.133l-3.885-2.24a1.8 1.8 0 00-1.929 0l-.952.541c-.618.36-.618.746 0 1.133l3.885 2.239a1.791 1.791 0 001.929 0zm-24.416 24.176l-.437-.257c-.129 0-.155-.155-.129-.232l.566-1.21a.63.63 0 01.206-.232l.463-.283a.334.334 0 01.309 0l7.023 4.068v.18l-.514.283a.234.234 0 01-.309 0l-6.406-3.501-.592 1.236s-.18.026-.18-.052zm26.576-8.779l-1.132.643a3.21 3.21 0 01-1.672.464 3.36 3.36 0 01-1.698-.464l-3.962-2.291c-.515-.283-.772-.618-.772-.953 0-.334.257-.669.772-.978l1.132-.669a3.437 3.437 0 011.672-.438 3.242 3.242 0 011.698.463l3.962 2.266c.515.309.798.644.772.978-.026.335-.257.67-.772.979zm-1.775.18l.952-.541c.643-.386.617-.746 0-1.133l-3.885-2.24a1.802 1.802 0 00-1.93 0l-.951.541c-.618.361-.592.747 0 1.133l3.884 2.24a1.802 1.802 0 001.93 0z" fill="#6DBDFF"/><path d="M451.225 660.68l-4.219-.953-8.902-38.13 4.194.952 8.927 38.131zm-10.136-43.306l-4.194-.953-7.203-30.766 4.219.926 7.178 30.793z" fill="#CCC7BF"/><path d="M410.087 635.294l-4.219-.953 31.027-17.919 4.194.952-31.002 17.92z" fill="#E0DAD0"/><path d="M432.703 581.406l-4.219-.926-7.178-30.845 4.193.953 7.204 30.818z" fill="#CCC7BF"/><path d="M401.674 599.326l-4.194-.927 31.002-17.919 4.219.926-31.027 17.92z" fill="#E0DAD0"/><path d="M424.289 545.413l-4.193-.927-7.204-30.792 4.219.952 7.178 30.767z" fill="#CCC7BF"/><path d="M393.288 563.333l-4.22-.927 31.027-17.92 4.194.927-31.001 17.92z" fill="#E0DAD0"/><path d="M415.902 509.471l-4.219-.952-7.178-30.767 4.219.927 7.178 30.792z" fill="#CCC7BF"/><path d="M384.874 527.391l-4.193-.953 31.001-17.919 4.219.952-31.027 17.92z" fill="#E0DAD0"/><path d="M407.515 473.504l-4.219-.927-7.204-30.819 4.219.927 7.204 30.819zm-8.413-35.994l-4.22-.927-4.965-21.318 4.219.953 4.966 21.292z" fill="#CCC7BF"/><path d="M394.136 416.218l-4.219-.953 4.271-2.471 4.219.952-4.271 2.472zm-17.648 75.231l-4.22-.953 31.028-17.919 4.219.927-31.027 17.945zm-8.413-36.019l-4.22-.927 31.028-17.92 4.219.927-31.027 17.92zm-9.21-18.847l-4.219-.952 4.244-2.446 4.22.952-4.245 2.446z" fill="#E0DAD0"/><path d="M415.954 681.071l-4.22-.953-57.088-244.487 4.219.952 57.089 244.488z" fill="#CCC7BF"/><path d="M394.137 416.218l4.27-2.575 57.089 244.591-4.27 2.574-8.902-38.13-31.027 18.022 8.876 37.899-4.245 2.575-57.089-244.591 4.245-2.445 4.965 21.292 31.027-18.023-4.939-21.189zm38.591 165.189l-7.204-30.896-30.873 18.022 7.178 30.896 31.027-18.022h-.128zm-25.187-107.903l-7.204-30.896-31.027 18.022 7.204 30.896 31.027-18.022zm33.6 143.87l-7.204-30.895-31.027 18.022 7.203 30.896 31.028-18.023zm-25.213-107.903l-7.178-30.895-31.027 18.022 7.178 30.896 31.027-18.023zm8.387 36.045l-7.178-30.895-31.027 18.022 7.203 30.767 30.873-18.023.129.129z" fill="#fff"/><path d="M290.711 252.814l-2.297 4.211-14.628 19.659 4.156 4.429 18.675-18.675a40.286 40.286 0 002.734-3.882 21.614 21.614 0 01-8.64-5.742z" fill="#EDB6A4"/><path style="mix-blend-mode:soft-light" d="M290.711 252.814l-2.297 4.211-14.628 19.659 4.156 4.429 18.675-18.675a40.286 40.286 0 002.734-3.882 21.614 21.614 0 01-8.64-5.742z" fill="url(#paint30_linear_1_305)"/><path d="M295.441 326.31v2.68a10.728 10.728 0 01-.493 3.527 1.894 1.894 0 01-.437.766c-1.012 1.148 9.05 1.613 9.05 1.613a5.67 5.67 0 01-.601-1.422 26.171 26.171 0 010-5.469l-7.519-1.695z" fill="#EDB6A4"/><path d="M283.437 340.966l20.698-.739a5.846 5.846 0 00-.246-6.78 18.806 18.806 0 01-9.406-1.067 36.273 36.273 0 01-11.155 5.906c-1.45.656-1.149 1.613.109 2.68z" fill="#E6E9F8"/><path d="M304.164 340.239l-20.74.735.031.875 20.74-.735-.031-.875z" fill="#393768"/><path d="M295.003 268.044a9.999 9.999 0 00-4.622 2.405 9.991 9.991 0 00-2.787 4.403c-1.395 10.39 7.245 53.591 7.355 54.685 2.618.43 5.296.327 7.874-.301h.383a131.624 131.624 0 001.613-38.498c2.434 4.675 39.565 13.097 40.659 10.39l.738-2.215 5.468-15.886-.656-.164a22.741 22.741 0 01-4.429-1.094c-7.629-3.636-46.154-14.874-51.596-13.725z" fill="url(#paint31_linear_1_305)"/><path d="M294.484 245.568l-4.156 7.328a24.892 24.892 0 009.406 6.125c2.433-3.719 6.836-7.383 9.597-12.441l-14.847-1.012z" fill="#1B4BF3"/><path d="M385.807 331.314s3.609-.301 4.785.656c1.176.957 1.039-9.324 1.039-9.324s-5.277 3.035-7.656 1.805c-2.379-1.231 1.832 6.863 1.832 6.863z" fill="#EDB6A4"/><path d="M398.849 342.442l-1.996-20.014a5.688 5.688 0 00-6.562.628 18.13 18.13 0 01-.465 9.188 35.83 35.83 0 016.426 10.444c.738 1.313 1.531 1.039 2.597-.246z" fill="#E6E9F8"/><path d="M396.85 322.401l1.98 20.053.871-.086-1.981-20.053-.87.086z" fill="#393768"/><path d="M366.503 276.629c1.804 18.155-12.468 36.994-19.796 48.068a205.096 205.096 0 0140.139-.492 21.356 21.356 0 01.847 7.847l-44.458 9.515c-25.429 2.735-14.492-41.642-3.145-54.685l26.413-10.253z" fill="url(#paint32_linear_1_305)"/><path d="M368.308 275.207c-10.418 16.734-28.436 19.14-32.811 12.468-6.699-15.585-11.566-12.933-24.608-25.1a239.183 239.183 0 01-6.699-6.535l-1.586-1.64c-2.515-2.643-5.158-5.605-7.929-8.887 2.351-1.996 4.566-3.937 6.753-5.714a59.345 59.345 0 017.711-5.469 24.15 24.15 0 0110.581-3.581c26.249 5.823 25.894 28.49 48.588 44.458z" fill="url(#paint33_linear_1_305)"/><path d="M296.861 235.533l8.203-8.366a9.293 9.293 0 007.355 5.468c2.297 4.129-8.203 13.152-9.132 7.246a10.477 10.477 0 00-6.426-4.348z" fill="#E0A494"/><path style="mix-blend-mode:soft-light" d="M296.861 235.533l8.203-8.366a9.293 9.293 0 007.355 5.468c2.297 4.129-8.203 13.152-9.132 7.246a10.477 10.477 0 00-6.426-4.348z" fill="url(#paint34_linear_1_305)"/><path d="M298.01 240.537c1.695 0 5.605-6.097 8.832-13.042l-12.961-14.218-12.386 11.128c2.789 9.597 13.507 16.87 16.515 16.132z" fill="#EDB6A4"/><path style="mix-blend-mode:soft-light" d="M298.01 240.537c1.695 0 5.605-6.097 8.832-13.042l-12.961-14.218-12.386 11.128c2.789 9.597 13.507 16.87 16.515 16.132z" fill="url(#paint35_linear_1_305)"/><path d="M279.007 228.178c-.547 2.735 3.691 3.746 6.699 4.293a14.272 14.272 0 004.812-8.066c2.188 1.395 5.469 3.309 5.469 4.922a3.99 3.99 0 002.597-1.586 3.688 3.688 0 01-1.285-3.691c.274-.821.41-.903 1.449-1.176 1.039-.273 1.996 1.012 1.86 2.351-.493 3.063 3.581 2.735 5.468 3.637a6.021 6.021 0 00.711-5.469c-1.641-4.484-3.418-7.902-9.214-9.269-4.129-2.378-10.937-1.804-13.344 3.008-.792 7.711-4.183 6.316-5.222 11.046z" fill="#000241"/><path d="M260.689 309.577a11.597 11.597 0 01-3.882 4.347c-1.067 5.222-17.554 32.811-21.874 35.873-2.489 2.379-16.543 9.679-18.894 8.203a20.669 20.669 0 00-1.121-11.21l12.769-2.953 3.582-5.305 15.011-21.874 2.734-4.156 1.531-2.242a17.168 17.168 0 01-1.394-5.66c.738-1.203 1.066-1.066 2.132-.82.438 1.176.629 1.723 1.86 2.051 1.531-1.531 1.312-5.688 1.695-5.715 1.312 0 2.734 1.723 4.211 3.527a9.984 9.984 0 011.64 5.934z" fill="#EDB6A4"/><path style="mix-blend-mode:soft-light" d="M260.689 309.577a11.597 11.597 0 01-3.882 4.347c-1.067 5.222-17.554 32.811-21.874 35.873-2.489 2.379-16.543 9.679-18.894 8.203a20.669 20.669 0 00-1.121-11.21l12.769-2.953 3.582-5.305 15.011-21.874 2.734-4.156 1.531-2.242a17.168 17.168 0 01-1.394-5.66c.738-1.203 1.066-1.066 2.132-.82.438 1.176.629 1.723 1.86 2.051 1.531-1.531 1.312-5.688 1.695-5.715 1.312 0 2.734 1.723 4.211 3.527a9.984 9.984 0 011.64 5.934z" fill="url(#paint36_linear_1_305)"/><path d="M213.386 346.735l8.749-2.734a27.726 27.726 0 014.703 11.757 45.832 45.832 0 01-15.913 8.804l2.461-17.827z" fill="#05EBFB"/><path d="M249.485 281.962l-19.547 19.546c-8.521 8.521-8.521 22.336 0 30.857l6.207 6.207c8.52 8.521 22.336 8.521 30.857 0l19.546-19.547c8.521-8.521 8.521-22.336 0-30.857l-6.206-6.206c-8.521-8.521-22.336-8.521-30.857 0z" fill="url(#paint37_linear_1_305)"/><path d="M256.231 282.406l-25.888 25.889c-4.741 4.741-4.741 12.427 0 17.168l12.683 12.683c4.741 4.741 12.428 4.741 17.169 0l25.888-25.888c4.741-4.741 4.741-12.428 0-17.169L273.4 282.406c-4.741-4.741-12.428-4.741-17.169 0z" fill="#E6E9F8"/><path d="M254.481 312.366l-6.152 6.152a4.13 4.13 0 01-5.851 0 4.128 4.128 0 010-5.852l6.152-6.152a4.128 4.128 0 015.851 0 4.131 4.131 0 010 5.852z" fill="url(#paint38_linear_1_305)"/><path d="M270.148 313.733l-13.316 13.288a4.094 4.094 0 01-2.925 1.227 4.1 4.1 0 01-2.926-1.227 4.114 4.114 0 01-1.215-2.925 4.128 4.128 0 011.215-2.926l13.316-13.316a4.114 4.114 0 012.925-1.215 4.128 4.128 0 012.926 1.215 4.184 4.184 0 010 5.879z" fill="url(#paint39_linear_1_305)"/><path d="M287.19 280.722l.561.561a2.463 2.463 0 010 3.48l-2.301 2.301-4.041-4.041 2.301-2.301a2.458 2.458 0 013.48 0zm4.959 13.071l-4.04-4.041 2.3-2.3a2.46 2.46 0 013.48 0l.561.56a2.46 2.46 0 010 3.48l-2.301 2.301z" fill="#393768"/><path d="M235.395 287.965l.561-.561a2.46 2.46 0 013.48 0l2.301 2.301-4.041 4.041-2.301-2.301a2.462 2.462 0 010-3.48z" fill="url(#paint40_linear_1_305)"/><path d="M228.65 294.669l.561-.561a2.46 2.46 0 013.48 0l2.301 2.301-4.041 4.041-2.301-2.301a2.462 2.462 0 010-3.48z" fill="url(#paint41_linear_1_305)"/><path d="M221.925 301.381l.56-.56a2.46 2.46 0 013.48 0l2.321 2.32-2.321 5.036-4.021-3.296a2.46 2.46 0 010-3.48l-.019-.02z" fill="url(#paint42_linear_1_305)"/><path d="M248.45 282.971l-4.041 4.041-2.3-2.301a2.457 2.457 0 010-3.48l.56-.56a2.46 2.46 0 013.48 0l2.301 2.3z" fill="url(#paint43_linear_1_305)"/><path d="M255.177 276.297l-4.041 4.041-2.301-2.301a2.463 2.463 0 010-3.48l.561-.561a2.462 2.462 0 013.48 0l2.301 2.301z" fill="url(#paint44_linear_1_305)"/><path d="M274.738 330.828l4.041-4.041 2.301 2.301a2.463 2.463 0 010 3.48l-.561.561a2.462 2.462 0 01-3.48 0l-2.301-2.301z" fill="url(#paint45_linear_1_305)"/><path d="M268.07 337.493l4.041-4.04 2.301 2.3a2.465 2.465 0 010 3.481l-.561.56a2.457 2.457 0 01-3.48 0l-2.301-2.301z" fill="url(#paint46_linear_1_305)"/><path d="M259.839 342.419l5.439-2.301 2.301 2.301a2.462 2.462 0 010 3.48l-.561.561a2.46 2.46 0 01-3.48 0l-3.699-4.041z" fill="url(#paint47_linear_1_305)"/><path d="M287.799 325.854l-.561.56a2.457 2.457 0 01-3.48 0l-2.301-2.3 4.041-4.041 2.301 2.301a2.462 2.462 0 010 3.48z" fill="url(#paint48_linear_1_305)"/><path d="M294.525 319.113l-.561.561a2.462 2.462 0 01-3.48 0l-2.301-2.301 2.301-5.259 4.041 3.519a2.464 2.464 0 010 3.48z" fill="url(#paint49_linear_1_305)"/><path d="M280.483 274.018l.561.561a2.463 2.463 0 010 3.48l-2.301 2.301-4.041-4.041 2.301-2.301a2.462 2.462 0 013.48 0z" fill="url(#paint50_linear_1_305)"/><path d="M231.098 333.526l4.04 4.041-2.3 2.3a2.46 2.46 0 01-3.48 0l-.561-.56a2.46 2.46 0 010-3.48l2.301-2.301z" fill="url(#paint51_linear_1_305)"/><path d="M226.053 325.612l3.415 4.5-3.415 2.947a2.464 2.464 0 01-3.48 0l-.58-.58a2.46 2.46 0 010-3.481l4.06-3.386z" fill="url(#paint52_linear_1_305)"/><path d="M235.944 346.55l-.56-.561a2.457 2.457 0 010-3.48l2.3-2.301 5.846 2.301-4.067 4.002a2.46 2.46 0 01-3.519.039z" fill="url(#paint53_linear_1_305)"/><path d="M210.188 518.801s-.273 3.882.793 5.14c1.066 1.258-9.953 1.285-9.953 1.285s3.145-5.714 1.778-8.203c-1.368-2.488 7.382 1.778 7.382 1.778z" fill="#EDB6A4"/><path d="M222.354 532.663l-21.437-1.832a6.13 6.13 0 01.547-7.054c3.276.631 6.66.396 9.816-.684a37.808 37.808 0 0011.32 6.645c1.476.765 1.121 1.722-.246 2.925z" fill="#635FB5"/><path d="M200.782 531.74l21.505 1.708.074-.927-21.506-1.708-.073.927z" fill="#A8CFEF"/><path d="M178.47 417.634c.441.736.807 1.515 1.093 2.324 1.422 6.207 17.39 31.307 21.874 44.267 4.074 13.097 3.035 33.249.739 55.642a15.196 15.196 0 008.913.52c4.457-22.613 11.293-50.83 9.133-57.748a226.906 226.906 0 00-13.672-48.259l-.738-2.734-1.176-4.129-4.511 1.75-16.077 6.125-5.578 2.242z" fill="url(#paint54_linear_1_305)"/><path d="M159.905 511.473s-1.695 3.5-1.176 5.058c.52 1.559-9.761-2.543-9.761-2.543s5.085-4.128 4.757-6.972c-.328-2.844 6.18 4.457 6.18 4.457z" fill="#EDB6A4"/><path d="M165.945 528.753l-19.14-9.624a6.154 6.154 0 013.172-6.316 19.156 19.156 0 009.351 3.035 37.937 37.937 0 008.011 10.417c.957 1.258.246 2.023-1.394 2.488z" fill="#635FB5"/><path d="M146.253 519.963l19.298 9.643.415-.832-19.298-9.643-.415.832z" fill="#A8CFEF"/><path d="M177.513 408.392c0 .848-8.558 7.437-8.831 8.203-5.195 15.64 3.089 27.67 3.527 41.013-1.148 13.672-9.652 31.936-20.179 51.951a15.451 15.451 0 008.203 3.828c12.605-19.14 29.502-42.9 30.077-50.119a228.26 228.26 0 005.468-49.845l.301-2.734.465-4.238h-4.84l-17.198-.328 3.007 2.269z" fill="url(#paint55_linear_1_305)"/><path d="M165.373 424.305c.656 5.633 44.322-.3 44.678-4.347-4.676-18.757-3.09-26.358.382-46.482a208.541 208.541 0 001.586-10.554c0-.848.219-1.696.301-2.571.492-4.156.848-8.667 1.094-13.534a71.85 71.85 0 00-10.062-.547c-3.828.41-7.465 0-10.937.274a25.924 25.924 0 00-14.082 4.101c-11.21 10.828-3.335 43.584-12.96 73.66z" fill="url(#paint56_linear_1_305)"/><path d="M204.445 338.532l-12.277 2.024c1.039 4.675 1.121 4.402-2.734 6.288 1.011 8.641 21.874 10.172 15.393-.355-4.566-.52-2.023-3.172-.382-7.957z" fill="#E0A494"/><path style="mix-blend-mode:soft-light" d="M204.445 338.532l-12.277 2.024c1.039 4.675 1.121 4.402-2.734 6.288 1.011 8.641 21.874 10.172 15.393-.355-4.566-.52-2.023-3.172-.382-7.957z" fill="url(#paint57_linear_1_305)"/><path d="M207.59 340.911c-.793 1.613-8.641 1.723-16.734 1.34l-7.027-19.14 16.406-6.234c7.765 7.355 9.515 21.655 7.355 24.034z" fill="#EDB6A4"/><path style="mix-blend-mode:soft-light" d="M207.59 340.911c-.793 1.613-8.641 1.723-16.734 1.34l-7.027-19.14 16.406-6.234c7.765 7.355 9.515 21.655 7.355 24.034z" fill="url(#paint58_linear_1_305)"/><path d="M208.136 310.889c2.735.82 2.953 10.773-2.269 13.917a15.18 15.18 0 01-9.953.575c.274 2.734.492 6.726 1.969 7.573a4.209 4.209 0 01-2.734 1.668 3.875 3.875 0 00-2.735-3.007c-.902 0-1.066 0-1.831.793-.766.793 0 2.378 1.312 2.871 3.117 1.039 3.008 6.288 2.734 8.53a14.683 14.683 0 01-7.738-3.581c-3.199-3.774-4.456-4.758-5.468-13.043 1.312-15.995 11.566-9.843 26.713-16.296z" fill="#000241"/><path d="M254.072 351.957a11.815 11.815 0 01-5.468 1.641c-3.664 4.074-31.991 18.976-37.268 19.468-3.336.765-19.14-.219-20.37-2.735a20.777 20.777 0 004.839-10.171l12.441 4.047 5.687-2.598 24.089-10.937 4.539-2.105 2.488-1.121a16.04 16.04 0 011.723-5.469c1.257-.656 1.449-.382 2.242.383-.246 1.231-.356 1.805.519 2.734 2.133-.519 4.074-4.21 4.402-4.046a8.196 8.196 0 011.668 5.113 9.95 9.95 0 01-1.531 5.796z" fill="#EDB6A4"/><path style="mix-blend-mode:soft-light" d="M254.072 351.957a11.815 11.815 0 01-5.468 1.641c-3.664 4.074-31.991 18.976-37.268 19.468-3.336.765-19.14-.219-20.37-2.735a20.777 20.777 0 004.839-10.171l12.441 4.047 5.687-2.598 24.089-10.937 4.539-2.105 2.488-1.121a16.04 16.04 0 011.723-5.469c1.257-.656 1.449-.382 2.242.383-.246 1.231-.356 1.805.519 2.734 2.133-.519 4.074-4.21 4.402-4.046a8.196 8.196 0 011.668 5.113 9.95 9.95 0 01-1.531 5.796z" fill="url(#paint59_linear_1_305)"/><path d="M327.403 243.9c.519 2.27-4.074 17.745-5.961 18.21.629 2.16-27.67 21.874-31.088 22.585a10.256 10.256 0 01-3.172 3.418 8.914 8.914 0 01-5.222-.848c-1.668-1.039-3.227-2.214-3.445-3.363 0-.328 3.636-.519 4.812-1.996-.41-1.039-.902-1.176-1.969-1.422-.328-.902-.465-1.203.547-1.941a14.15 14.15 0 015.25.766l26.686-22.804 1.422-11.402a27.12 27.12 0 0012.14-1.203z" fill="#EDB6A4"/><path style="mix-blend-mode:soft-light" d="M327.403 243.9c.519 2.27-4.074 17.745-5.961 18.21.629 2.16-27.67 21.874-31.088 22.585a10.256 10.256 0 01-3.172 3.418 8.914 8.914 0 01-5.222-.848c-1.668-1.039-3.227-2.214-3.445-3.363 0-.328 3.636-.519 4.812-1.996-.41-1.039-.902-1.176-1.969-1.422-.328-.902-.465-1.203.547-1.941a14.15 14.15 0 015.25.766l26.686-22.804 1.422-11.402a27.12 27.12 0 0012.14-1.203z" fill="url(#paint60_linear_1_305)"/><path d="M495.62 239.516l122.698-70.843-.022-119.211-144.937 83.677-2.182 25.287 24.443 81.09z" fill="url(#paint61_linear_1_305)"/><path d="M454.067 163.746l15.332-8.841a3.456 3.456 0 013.555.281l35.995 20.754c3.014 1.732 5.455 6.4 5.455 10.405v39.549c0 2.25-.731 3.746-1.89 4.41l-15.331 8.841-13.498-23.745-10.619-6.131c-3.003-1.732-5.444-6.4-5.444-10.405v-11.586l-13.555-23.532z" fill="#C3CFE2"/><path d="M457.634 218.111l35.995 20.753a3.478 3.478 0 003.566.281c1.124-.663 1.889-2.249 1.889-4.398v-39.55c0-4.015-2.441-8.672-5.455-10.416l-35.995-20.753a3.509 3.509 0 00-3.566-.281c-1.125.663-1.879 2.249-1.879 4.409v39.55c0 4.004 2.441 8.672 5.445 10.405z" fill="url(#paint62_linear_1_305)"/><path d="M469.917 194.073c0-3.06 2.138-4.297 4.792-2.768a10.581 10.581 0 014.792 8.302c0 1.732-.697 2.879-1.777 3.262l1.743 13.329-9.583-5.534 1.777-11.248a9.97 9.97 0 01-1.744-5.343z" fill="#C3CFE2"/><path d="M477.723 202.869c1.125-.383 1.778-1.53 1.778-3.262a9.21 9.21 0 00-1.125-4.095l-6.749 3.881-1.766 11.249 9.583 5.534-1.721-13.307z" fill="#BAC7DB"/><path d="M469.276 138.033a11.362 11.362 0 00-1.766 6.535v17.998a1.77 1.77 0 001.125 1.597 5.689 5.689 0 005.186 0 1.817 1.817 0 001.125-1.496v-18.099a8.232 8.232 0 01.236-2.103c1.406-.743 3.307-.597 5.399.607a17.223 17.223 0 017.784 13.498v18.088a1.863 1.863 0 001.125 1.496 5.725 5.725 0 005.197 0 1.825 1.825 0 001.125-1.496v-18.099c0-8.279-5.805-18.346-12.981-22.497-4.781-2.756-8.999-2.182-11.249.956l-2.306 3.015z" fill="url(#paint63_linear_1_305)"/><path d="M478.127 205.929l-8.211 4.735 9.572 5.534-1.361-10.269z" fill="#C3CFE2"/><defs><linearGradient id="paint0_linear_1_305" x1="314.958" y1="322.8" x2="307.646" y2="700.749" gradientUnits="userSpaceOnUse"><stop stop-color="#093D89"/><stop offset="1" stop-color="#093D89" stop-opacity="0"/></linearGradient><linearGradient id="paint1_linear_1_305" x1=".004" y1="175.071" x2="184.418" y2="175.071" gradientUnits="userSpaceOnUse"><stop stop-opacity="0"/><stop offset=".97" stop-color="#2AB8EE"/><stop offset="1" stop-color="#2DC5FF"/></linearGradient><linearGradient id="paint2_linear_1_305" x1="419.256" y1="467.791" x2="498.786" y2="467.791" gradientUnits="userSpaceOnUse"><stop stop-color="#1C40F2"/><stop offset=".983" stop-color="#03F8FB"/></linearGradient><linearGradient id="paint3_linear_1_305" x1="419.658" y1="472.622" x2="462.177" y2="475.074" gradientUnits="userSpaceOnUse"><stop stop-color="#0082F8"/><stop offset="1" stop-color="#1C40F2"/></linearGradient><linearGradient id="paint4_linear_1_305" x1="459.562" y1="472.622" x2="502.108" y2="475.077" gradientUnits="userSpaceOnUse"><stop stop-color="#0082F8"/><stop offset="1" stop-color="#1C40F2"/></linearGradient><linearGradient id="paint5_linear_1_305" x1="304.102" y1="537.396" x2="383.632" y2="537.396" gradientUnits="userSpaceOnUse"><stop stop-color="#1C40F2"/><stop offset=".983" stop-color="#03F8FB"/></linearGradient><linearGradient id="paint6_linear_1_305" x1="304.504" y1="542.214" x2="347.023" y2="544.666" gradientUnits="userSpaceOnUse"><stop stop-color="#0082F8"/><stop offset="1" stop-color="#1C40F2"/></linearGradient><linearGradient id="paint7_linear_1_305" x1="344.407" y1="542.214" x2="386.954" y2="544.669" gradientUnits="userSpaceOnUse"><stop stop-color="#0082F8"/><stop offset="1" stop-color="#1C40F2"/></linearGradient><linearGradient id="paint8_linear_1_305" x1="499.036" y1="415.976" x2="578.541" y2="415.976" gradientUnits="userSpaceOnUse"><stop stop-color="#1C40F2"/><stop offset=".983" stop-color="#03F8FB"/></linearGradient><linearGradient id="paint9_linear_1_305" x1="499.439" y1="420.82" x2="541.958" y2="423.272" gradientUnits="userSpaceOnUse"><stop stop-color="#0082F8"/><stop offset="1" stop-color="#1C40F2"/></linearGradient><linearGradient id="paint10_linear_1_305" x1="539.342" y1="420.82" x2="581.861" y2="423.272" gradientUnits="userSpaceOnUse"><stop stop-color="#0082F8"/><stop offset="1" stop-color="#1C40F2"/></linearGradient><linearGradient id="paint11_linear_1_305" x1="118.608" y1="410.84" x2="198.138" y2="410.84" gradientUnits="userSpaceOnUse"><stop stop-color="#1C40F2"/><stop offset=".983" stop-color="#03F8FB"/></linearGradient><linearGradient id="paint12_linear_1_305" x1="119.01" y1="415.671" x2="161.529" y2="418.123" gradientUnits="userSpaceOnUse"><stop stop-color="#0082F8"/><stop offset="1" stop-color="#1C40F2"/></linearGradient><linearGradient id="paint13_linear_1_305" x1="158.913" y1="415.671" x2="201.46" y2="418.126" gradientUnits="userSpaceOnUse"><stop stop-color="#0082F8"/><stop offset="1" stop-color="#1C40F2"/></linearGradient><linearGradient id="paint14_linear_1_305" x1="167.677" y1="204.451" x2="247.207" y2="204.451" gradientUnits="userSpaceOnUse"><stop stop-color="#1C40F2"/><stop offset=".983" stop-color="#03F8FB"/></linearGradient><linearGradient id="paint15_linear_1_305" x1="168.079" y1="209.282" x2="210.599" y2="211.734" gradientUnits="userSpaceOnUse"><stop stop-color="#0082F8"/><stop offset="1" stop-color="#1C40F2"/></linearGradient><linearGradient id="paint16_linear_1_305" x1="207.781" y1="237.484" x2="247.559" y2="237.484" gradientUnits="userSpaceOnUse"><stop stop-color="#1C40F2"/><stop offset=".983" stop-color="#03F8FB"/></linearGradient><linearGradient id="paint17_linear_1_305" x1="304.229" y1="90.98" x2="383.759" y2="90.98" gradientUnits="userSpaceOnUse"><stop stop-color="#1C40F2"/><stop offset=".983" stop-color="#03F8FB"/></linearGradient><linearGradient id="paint18_linear_1_305" x1="304.631" y1="95.799" x2="347.177" y2="98.254" gradientUnits="userSpaceOnUse"><stop stop-color="#0082F8"/><stop offset="1" stop-color="#1C40F2"/></linearGradient><linearGradient id="paint19_linear_1_305" x1="344.56" y1="95.799" x2="387.079" y2="98.251" gradientUnits="userSpaceOnUse"><stop stop-color="#0082F8"/><stop offset="1" stop-color="#1C40F2"/></linearGradient><linearGradient id="paint20_linear_1_305" x1="576.08" y1="437.665" x2="631.055" y2="523.965" gradientUnits="userSpaceOnUse"><stop stop-color="#2DC5FF"/><stop offset=".964" stop-color="#041015" stop-opacity="0"/></linearGradient><linearGradient id="paint21_linear_1_305" x1="513.266" y1="475.403" x2="599.499" y2="605.132" gradientUnits="userSpaceOnUse"><stop stop-color="#2DC5FF"/><stop offset="1" stop-opacity="0"/></linearGradient><linearGradient id="paint22_linear_1_305" x1="41.619" y1="506.15" x2="153.541" y2="427.411" gradientUnits="userSpaceOnUse"><stop stop-opacity="0"/><stop offset=".97" stop-color="#2AB8EE"/><stop offset="1" stop-color="#2DC5FF"/></linearGradient><linearGradient id="paint23_linear_1_305" x1="345.513" y1=".108" x2="345.513" y2="92" gradientUnits="userSpaceOnUse"><stop stop-opacity="0"/><stop offset="1" stop-color="#2DC5FF"/></linearGradient><linearGradient id="paint24_linear_1_305" x1="207.985" y1="35.964" x2="207.985" y2="204.268" gradientUnits="userSpaceOnUse"><stop stop-opacity="0"/><stop offset="1" stop-color="#2DC5FF"/></linearGradient><linearGradient id="paint25_linear_1_305" x1="354.079" y1="247.425" x2="477.467" y2="247.425" gradientUnits="userSpaceOnUse"><stop stop-color="#1755D2"/><stop offset=".51" stop-color="#0D47BD"/><stop offset="1" stop-color="#0238A6"/></linearGradient><linearGradient id="paint26_linear_1_305" x1="351.327" y1="285.813" x2="480.22" y2="285.813" gradientUnits="userSpaceOnUse"><stop stop-color="#CCC7BF"/><stop offset=".26" stop-color="#D4CFC7"/><stop offset="1" stop-color="#E9E4DB"/></linearGradient><linearGradient id="paint27_linear_1_305" x1="502.807" y1="331.799" x2="515.743" y2="310.427" gradientUnits="userSpaceOnUse"><stop stop-color="#06569E"/><stop offset=".714" stop-color="#0082F8"/><stop offset="1" stop-color="#00C0FD"/></linearGradient><linearGradient id="paint28_linear_1_305" x1="534.53" y1="331.435" x2="553.296" y2="332.825" gradientUnits="userSpaceOnUse"><stop stop-color="#0082F8"/><stop offset="1" stop-color="#1C40F2"/></linearGradient><linearGradient id="paint30_linear_1_305" x1="263.943" y1="253.244" x2="286.749" y2="272.275" gradientUnits="userSpaceOnUse"><stop stop-color="#fff"/><stop offset=".1" stop-color="#FAFAFA"/><stop offset=".22" stop-color="#EAEAEA"/><stop offset=".36" stop-color="#D0D0D0"/><stop offset=".51" stop-color="#ABABAB"/><stop offset=".67" stop-color="#7D7D7D"/><stop offset=".83" stop-color="#444"/><stop offset="1"/></linearGradient><linearGradient id="paint31_linear_1_305" x1="351.684" y1="316.698" x2="282.21" y2="304.877" gradientUnits="userSpaceOnUse"><stop stop-color="#001DAC"/><stop offset="1" stop-color="#000F57"/></linearGradient><linearGradient id="paint32_linear_1_305" x1="387.759" y1="327.906" x2="322.445" y2="318.035" gradientUnits="userSpaceOnUse"><stop stop-color="#001DAC"/><stop offset="1" stop-color="#000F57"/></linearGradient><linearGradient id="paint33_linear_1_305" x1="294.304" y1="260.941" x2="367.659" y2="260.941" gradientUnits="userSpaceOnUse"><stop stop-color="#1C40F2"/><stop offset=".983" stop-color="#03F8FB"/></linearGradient><linearGradient id="paint34_linear_1_305" x1="291.127" y1="235.032" x2="311.781" y2="233.98" gradientUnits="userSpaceOnUse"><stop stop-color="#fff"/><stop offset=".1" stop-color="#FAFAFA"/><stop offset=".22" stop-color="#EAEAEA"/><stop offset=".36" stop-color="#D0D0D0"/><stop offset=".51" stop-color="#ABABAB"/><stop offset=".67" stop-color="#7D7D7D"/><stop offset=".83" stop-color="#444"/><stop offset="1"/></linearGradient><linearGradient id="paint35_linear_1_305" x1="274.57" y1="224.75" x2="307.941" y2="227.994" gradientUnits="userSpaceOnUse"><stop stop-color="#fff"/><stop offset=".1" stop-color="#FAFAFA"/><stop offset=".22" stop-color="#EAEAEA"/><stop offset=".36" stop-color="#D0D0D0"/><stop offset=".51" stop-color="#ABABAB"/><stop offset=".67" stop-color="#7D7D7D"/><stop offset=".83" stop-color="#444"/><stop offset="1"/></linearGradient><linearGradient id="paint36_linear_1_305" x1="230.074" y1="322.32" x2="249.305" y2="338.467" gradientUnits="userSpaceOnUse"><stop stop-color="#fff"/><stop offset=".1" stop-color="#FAFAFA"/><stop offset=".22" stop-color="#EAEAEA"/><stop offset=".36" stop-color="#D0D0D0"/><stop offset=".51" stop-color="#ABABAB"/><stop offset=".67" stop-color="#7D7D7D"/><stop offset=".83" stop-color="#444"/><stop offset="1"/></linearGradient><linearGradient id="paint37_linear_1_305" x1="217.222" y1="319.649" x2="277.096" y2="273.536" gradientUnits="userSpaceOnUse"><stop stop-color="#0082F8"/><stop offset="1" stop-color="#1C40F2"/></linearGradient><linearGradient id="paint38_linear_1_305" x1="241.263" y1="306.355" x2="256.555" y2="307.815" gradientUnits="userSpaceOnUse"><stop stop-color="#0082F8"/><stop offset="1" stop-color="#00C0FD"/></linearGradient><linearGradient id="paint39_linear_1_305" x1="249.766" y1="308.22" x2="272.639" y2="310.402" gradientUnits="userSpaceOnUse"><stop stop-color="#0082F8"/><stop offset="1" stop-color="#00C0FD"/></linearGradient><linearGradient id="paint40_linear_1_305" x1="233.951" y1="290.001" x2="238.641" y2="286.128" gradientUnits="userSpaceOnUse"><stop stop-color="#0082F8"/><stop offset="1" stop-color="#1C40F2"/></linearGradient><linearGradient id="paint41_linear_1_305" x1="227.206" y1="296.705" x2="231.896" y2="292.833" gradientUnits="userSpaceOnUse"><stop stop-color="#0082F8"/><stop offset="1" stop-color="#1C40F2"/></linearGradient><linearGradient id="paint42_linear_1_305" x1="220.581" y1="303.518" x2="225.185" y2="299.526" gradientUnits="userSpaceOnUse"><stop stop-color="#0082F8"/><stop offset="1" stop-color="#1C40F2"/></linearGradient><linearGradient id="paint43_linear_1_305" x1="248.155" y1="282.676" x2="243.465" y2="286.548" gradientUnits="userSpaceOnUse"><stop stop-color="#0082F8"/><stop offset="1" stop-color="#1C40F2"/></linearGradient><linearGradient id="paint44_linear_1_305" x1="254.881" y1="276.001" x2="250.191" y2="279.874" gradientUnits="userSpaceOnUse"><stop stop-color="#0082F8"/><stop offset="1" stop-color="#1C40F2"/></linearGradient><linearGradient id="paint45_linear_1_305" x1="275.034" y1="331.124" x2="279.724" y2="327.251" gradientUnits="userSpaceOnUse"><stop stop-color="#0082F8"/><stop offset="1" stop-color="#1C40F2"/></linearGradient><linearGradient id="paint46_linear_1_305" x1="268.366" y1="337.789" x2="273.056" y2="333.917" gradientUnits="userSpaceOnUse"><stop stop-color="#0082F8"/><stop offset="1" stop-color="#1C40F2"/></linearGradient><linearGradient id="paint47_linear_1_305" x1="260.078" y1="343" x2="264.674" y2="338.996" gradientUnits="userSpaceOnUse"><stop stop-color="#0082F8"/><stop offset="1" stop-color="#1C40F2"/></linearGradient><linearGradient id="paint48_linear_1_305" x1="289.243" y1="323.818" x2="284.554" y2="327.69" gradientUnits="userSpaceOnUse"><stop stop-color="#0082F8"/><stop offset="1" stop-color="#1C40F2"/></linearGradient><linearGradient id="paint49_linear_1_305" x1="295.861" y1="316.969" x2="291.261" y2="320.968" gradientUnits="userSpaceOnUse"><stop stop-color="#0082F8"/><stop offset="1" stop-color="#1C40F2"/></linearGradient><linearGradient id="paint50_linear_1_305" x1="278.447" y1="272.574" x2="282.32" y2="277.264" gradientUnits="userSpaceOnUse"><stop stop-color="#0082F8"/><stop offset="1" stop-color="#1C40F2"/></linearGradient><linearGradient id="paint51_linear_1_305" x1="230.802" y1="333.821" x2="234.674" y2="338.511" gradientUnits="userSpaceOnUse"><stop stop-color="#0082F8"/><stop offset="1" stop-color="#1C40F2"/></linearGradient><linearGradient id="paint52_linear_1_305" x1="225.316" y1="325.675" x2="229.539" y2="330.583" gradientUnits="userSpaceOnUse"><stop stop-color="#0082F8"/><stop offset="1" stop-color="#1C40F2"/></linearGradient><linearGradient id="paint53_linear_1_305" x1="238.142" y1="347.897" x2="234.097" y2="343.272" gradientUnits="userSpaceOnUse"><stop stop-color="#0082F8"/><stop offset="1" stop-color="#1C40F2"/></linearGradient><linearGradient id="paint54_linear_1_305" x1="220.633" y1="496.819" x2="173.89" y2="493.97" gradientUnits="userSpaceOnUse"><stop stop-color="#001DAC"/><stop offset="1" stop-color="#000F57"/></linearGradient><linearGradient id="paint55_linear_1_305" x1="196.544" y1="490.663" x2="147.24" y2="487.312" gradientUnits="userSpaceOnUse"><stop stop-color="#001DAC"/><stop offset="1" stop-color="#000F57"/></linearGradient><linearGradient id="paint56_linear_1_305" x1="165.131" y1="386.444" x2="212.99" y2="386.444" gradientUnits="userSpaceOnUse"><stop stop-color="#1C40F2"/><stop offset=".983" stop-color="#03F8FB"/></linearGradient><linearGradient id="paint57_linear_1_305" x1="199.96" y1="336.646" x2="196.105" y2="357.371" gradientUnits="userSpaceOnUse"><stop stop-color="#fff"/><stop offset=".1" stop-color="#FAFAFA"/><stop offset=".22" stop-color="#EAEAEA"/><stop offset=".36" stop-color="#D0D0D0"/><stop offset=".51" stop-color="#ABABAB"/><stop offset=".67" stop-color="#7D7D7D"/><stop offset=".83" stop-color="#444"/><stop offset="1"/></linearGradient><linearGradient id="paint58_linear_1_305" x1="208.341" y1="314.035" x2="184.536" y2="341.48" gradientUnits="userSpaceOnUse"><stop stop-color="#fff"/><stop offset=".1" stop-color="#FAFAFA"/><stop offset=".22" stop-color="#EAEAEA"/><stop offset=".36" stop-color="#D0D0D0"/><stop offset=".51" stop-color="#ABABAB"/><stop offset=".67" stop-color="#7D7D7D"/><stop offset=".83" stop-color="#444"/><stop offset="1"/></linearGradient><linearGradient id="paint59_linear_1_305" x1="219.255" y1="345.52" x2="227.349" y2="369.241" gradientUnits="userSpaceOnUse"><stop stop-color="#fff"/><stop offset=".1" stop-color="#FAFAFA"/><stop offset=".22" stop-color="#EAEAEA"/><stop offset=".36" stop-color="#D0D0D0"/><stop offset=".51" stop-color="#ABABAB"/><stop offset=".67" stop-color="#7D7D7D"/><stop offset=".83" stop-color="#444"/><stop offset="1"/></linearGradient><linearGradient id="paint60_linear_1_305" x1="281.577" y1="243.213" x2="312.923" y2="282.711" gradientUnits="userSpaceOnUse"><stop stop-color="#fff"/><stop offset=".1" stop-color="#FAFAFA"/><stop offset=".22" stop-color="#EAEAEA"/><stop offset=".36" stop-color="#D0D0D0"/><stop offset=".51" stop-color="#ABABAB"/><stop offset=".67" stop-color="#7D7D7D"/><stop offset=".83" stop-color="#444"/><stop offset="1"/></linearGradient><linearGradient id="paint61_linear_1_305" x1="471.177" y1="144.489" x2="618.318" y2="144.489" gradientUnits="userSpaceOnUse"><stop stop-color="#4500E9"/><stop offset=".05" stop-color="#4008EA" stop-opacity=".87"/><stop offset=".14" stop-color="#3715EC" stop-opacity=".67"/><stop offset=".23" stop-color="#3021EE" stop-opacity=".49"/><stop offset=".33" stop-color="#2A2AEF" stop-opacity=".34"/><stop offset=".44" stop-color="#2532F0" stop-opacity=".21"/><stop offset=".55" stop-color="#2138F1" stop-opacity=".12"/><stop offset=".67" stop-color="#1E3DF2" stop-opacity=".05"/><stop offset=".81" stop-color="#1D3FF2" stop-opacity=".01"/><stop offset="1" stop-color="#1C40F2" stop-opacity="0"/></linearGradient><linearGradient id="paint62_linear_1_305" x1="499.242" y1="188.392" x2="425.384" y2="229.235" gradientUnits="userSpaceOnUse"><stop stop-color="#F5F7FA"/><stop offset="1" stop-color="#C3CFE2"/></linearGradient><linearGradient id="paint63_linear_1_305" x1="477.409" y1="160.293" x2="506.655" y2="135.828" gradientUnits="userSpaceOnUse"><stop stop-color="#F5F7FA"/><stop offset="1" stop-color="#C3CFE2"/></linearGradient><radialGradient id="paint29_radial_1_305" cx="0" cy="0" r="1" gradientUnits="userSpaceOnUse" gradientTransform="matrix(21.6881 0 0 21.7042 545.44 329.53)"><stop stop-color="#FFE7D7"/><stop offset=".07" stop-color="#A79388"/><stop offset=".13" stop-color="#63544C"/><stop offset=".22" stop-color="#1C150F"/><stop offset=".28"/><stop offset="1"/></radialGradient></defs></svg>